<svg xmlns="http://www.w3.org/2000/svg" xmlns:xlink="http://www.w3.org/1999/xlink" width="420.089" height="236.071" viewBox="0 0 420.089 236.071">
  <defs>
    <linearGradient id="linear-gradient" x1="-3971.885" y1="0.489" x2="3971.873" y2="0.489" gradientUnits="objectBoundingBox">
      <stop offset="0.204" stop-color="#965bff"/>
      <stop offset="1" stop-color="#97a4ea"/>
    </linearGradient>
    <linearGradient id="linear-gradient-2" x1="-8165.279" y1="0.5" x2="-140.213" y2="0.5" gradientUnits="objectBoundingBox">
      <stop offset="0.005" stop-color="#ffa603"/>
      <stop offset="1" stop-color="#ffda05"/>
    </linearGradient>
    <linearGradient id="linear-gradient-3" x1="0" y1="0.5" x2="1" y2="0.5" xlink:href="#linear-gradient"/>
  </defs>
  <g id="Grupo_80048" data-name="Grupo 80048" transform="translate(-35.795 -63.035)">
    <g id="Grupo_79944" data-name="Grupo 79944" transform="translate(35.795 63.035)">
      <g id="Grupo_79940" data-name="Grupo 79940" transform="translate(309.332)">
        <path id="Trazado_116787" data-name="Trazado 116787" d="M594.31,97.645l9.6-2.551L600.5,82.242l-9.6,2.551A24.529,24.529,0,0,0,587.31,80.1L592.3,71.5l-11.5-6.675-4.987,8.594a24.532,24.532,0,0,0-5.856-.785l-2.551-9.6-12.853,3.414,2.55,9.6a24.521,24.521,0,0,0-4.695,3.587l-8.594-4.987-6.675,11.5,8.594,4.987A24.534,24.534,0,0,0,544.943,97l-9.6,2.55,3.414,12.853,9.6-2.551a24.492,24.492,0,0,0,3.587,4.695l-4.987,8.594,11.5,6.675,4.987-8.594A24.539,24.539,0,0,0,569.3,122l2.551,9.6,12.853-3.414-2.55-9.6A24.505,24.505,0,0,0,586.85,115l8.595,4.987,6.675-11.5-8.594-4.987A24.5,24.5,0,0,0,594.31,97.645Zm-21.886,10.208a10.9,10.9,0,1,1,7.735-13.329A10.9,10.9,0,0,1,572.424,107.853Z" transform="translate(-535.341 -63.035)" fill="#9fa8ff"/>
      </g>
      <g id="Grupo_79941" data-name="Grupo 79941" transform="translate(11.398 91.38)">
        <path id="Trazado_116788" data-name="Trazado 116788" d="M77.786,224.449l3.84-1.02-1.365-5.14-3.84,1.02a9.811,9.811,0,0,0-1.435-1.877l1.995-3.437-4.6-2.669-1.995,3.437a9.785,9.785,0,0,0-2.342-.314l-1.02-3.84-5.141,1.365,1.02,3.84a9.8,9.8,0,0,0-1.877,1.435l-3.437-2-2.669,4.6,3.437,2a9.845,9.845,0,0,0-.314,2.342l-3.84,1.02,1.365,5.14,3.84-1.02a9.793,9.793,0,0,0,1.435,1.878l-1.995,3.437,4.6,2.669,1.995-3.437a9.783,9.783,0,0,0,2.342.314l1.02,3.84,5.141-1.365-1.02-3.84a9.841,9.841,0,0,0,1.878-1.435l3.437,1.995,2.669-4.6-3.437-1.995A9.849,9.849,0,0,0,77.786,224.449Zm-8.753,4.083a4.358,4.358,0,1,1,3.094-5.332A4.359,4.359,0,0,1,69.033,228.532Z" transform="translate(-54.202 -210.607)" fill="#d3d5fc"/>
      </g>
      <g id="Grupo_79942" data-name="Grupo 79942" transform="translate(277.601 12.008)">
        <path id="Trazado_116789" data-name="Trazado 116789" d="M502.054,92.965l2.923-.777-1.039-3.913-2.924.776a7.469,7.469,0,0,0-1.092-1.43l1.519-2.616-3.5-2.033-1.518,2.617a7.508,7.508,0,0,0-1.783-.239l-.777-2.923-3.914,1.039.776,2.924a7.486,7.486,0,0,0-1.429,1.092l-2.617-1.518-2.032,3.5,2.617,1.518a7.448,7.448,0,0,0-.239,1.783l-2.924.777,1.039,3.914,2.924-.777a7.509,7.509,0,0,0,1.092,1.429l-1.518,2.617,3.5,2.032,1.518-2.617a7.452,7.452,0,0,0,1.783.239l.776,2.924,3.914-1.039-.777-2.924a7.47,7.47,0,0,0,1.429-1.092l2.617,1.518,2.032-3.5-2.617-1.518A7.506,7.506,0,0,0,502.054,92.965Zm-6.664,3.109a3.318,3.318,0,1,1,2.355-4.059A3.318,3.318,0,0,1,495.39,96.074Z" transform="translate(-484.098 -82.427)" fill="#d3d5fc"/>
      </g>
      <path id="Trazado_116790" data-name="Trazado 116790" d="M159.511,127.371a5.914,5.914,0,0,0-10.735-.484,5.532,5.532,0,0,0-7.505-2.564,9.082,9.082,0,0,0-11.938-4.763,13.3,13.3,0,0,0-26.555.79A10.774,10.774,0,0,0,85,123.714,6.994,6.994,0,0,0,74.372,132.5h84.815a5.9,5.9,0,0,0,.323-5.13Z" transform="translate(-50.131 -79.861)" fill="#9fa8ff"/>
      <path id="Trazado_116791" data-name="Trazado 116791" d="M121.862,154.734a5.914,5.914,0,0,0-10.735-.484,5.534,5.534,0,0,0-7.505-2.564,9.084,9.084,0,0,0-11.938-4.763,13.3,13.3,0,0,0-26.555.79,10.774,10.774,0,0,0-17.783,3.364,6.994,6.994,0,0,0-10.623,8.787h84.816a5.9,5.9,0,0,0,.323-5.13Z" transform="translate(-35.795 -90.28)" fill="#e1f9ff"/>
      <path id="Trazado_116792" data-name="Trazado 116792" d="M669.189,299.329a4.3,4.3,0,0,0-7.8-.352,4.019,4.019,0,0,0-5.451-1.861,6.6,6.6,0,0,0-8.67-3.46,9.656,9.656,0,0,0-19.285.574,7.825,7.825,0,0,0-12.915,2.443,5.079,5.079,0,0,0-7.715,6.381h61.6a4.285,4.285,0,0,0,.235-3.726Z" transform="translate(-253.174 -147.438)" fill="#fff"/>
      <path id="Trazado_116793" data-name="Trazado 116793" d="M648.34,131.1a7.263,7.263,0,0,0-13.183-.594,6.793,6.793,0,0,0-9.217-3.148,11.157,11.157,0,0,0-14.661-5.85,16.327,16.327,0,0,0-32.611.97,13.231,13.231,0,0,0-21.839,4.131A8.589,8.589,0,0,0,543.784,137.4H647.943a7.239,7.239,0,0,0,.4-6.3Z" transform="translate(-228.79 -79.531)" fill="#e1f9ff"/>
      <g id="Grupo_79943" data-name="Grupo 79943" transform="translate(390.798 161.103)">
        <path id="Trazado_116794" data-name="Trazado 116794" d="M684.342,333.44l2.84-.755-1.01-3.8-2.84.754a7.267,7.267,0,0,0-1.061-1.388l1.476-2.542-3.4-1.974-1.476,2.542a7.243,7.243,0,0,0-1.732-.232l-.754-2.84-3.8,1.01.754,2.84a7.259,7.259,0,0,0-1.388,1.061l-2.542-1.475-1.974,3.4,2.542,1.475a7.241,7.241,0,0,0-.232,1.732L666.9,334l1.01,3.8,2.84-.754a7.229,7.229,0,0,0,1.061,1.388l-1.475,2.542,3.4,1.975,1.475-2.543a7.237,7.237,0,0,0,1.732.232l.754,2.84,3.8-1.009-.754-2.84a7.285,7.285,0,0,0,1.388-1.061l2.542,1.475,1.974-3.4-2.542-1.476A7.243,7.243,0,0,0,684.342,333.44Zm-6.473,3.019a3.223,3.223,0,1,1,2.287-3.942A3.223,3.223,0,0,1,677.869,336.459Z" transform="translate(-666.901 -323.203)" fill="#d3d5fc"/>
      </g>
    </g>
    <g id="Grupo_79945" data-name="Grupo 79945" transform="translate(60.307 100.685)">
      <path id="Trazado_116795" data-name="Trazado 116795" d="M447.531,286.513c-.415-8.272-4.327-14.689-11.321-17.649-4.14-1.752-8.612-2.624-12.453-5.073-5.813-3.706-8.773-10.033-9.124-17.376-.274-5.732.809-11.419,1.473-17.111,1.741-14.911-5.039-27.752-17.715-33.469-9.329-4.208-19.841-3.943-29.759-2-5.477,1.074-10.89,2.64-16.432,3.163-6.5.612-13.835.051-18.228-5.8-4.049-5.4-3.951-13.668-3.29-20.218,3.944-39.073-40.356-54.359-67.906-43.977-13.464,5.073-20.116,19.242-24.921,33.046-4.581,13.161-8.2,33.317-20.036,40.874-20.6,13.155-40-31.752-60.747-10.462-4.934,5.063-6.37,12.207-6.844,19.363-.54,8.156-.781,16.481-6.766,22.284a22.793,22.793,0,0,1-12.862,5.848c-10.483,1.473-21.063-1.865-31.532.133-10.869,2.073-18.281,11.008-21.121,22.581-2.03,8.275-1.8,17.018-1.091,25.558Z" transform="translate(-75.748 -123.837)" fill="#d3d5fc"/>
      <rect id="Rectángulo_34435" data-name="Rectángulo 34435" width="372.516" height="2.797" transform="translate(0 162.382)" fill="#9fa5fb"/>
    </g>
    <g id="Grupo_79946" data-name="Grupo 79946" transform="translate(148.464 112.642)">
      <rect id="Rectángulo_34436" data-name="Rectángulo 34436" width="80.27" height="3.757" transform="translate(57.327 146.751)" fill="#6f58ff"/>
      <path id="Rectángulo_34437" data-name="Rectángulo 34437" d="M12.684,0H183.518A12.684,12.684,0,0,1,196.2,12.684v97.195a0,0,0,0,1,0,0H0a0,0,0,0,1,0,0V12.684A12.684,12.684,0,0,1,12.684,0Z" fill="#6f58ff"/>
      <path id="Rectángulo_34438" data-name="Rectángulo 34438" d="M0,0H196.2a0,0,0,0,1,0,0V6.175a12.631,12.631,0,0,1-12.631,12.631H12.631A12.631,12.631,0,0,1,0,6.175V0A0,0,0,0,1,0,0Z" transform="translate(0 109.878)" fill="#9fa5fb"/>
      <path id="Trazado_116796" data-name="Trazado 116796" d="M411.16,153.389H229.436v96.73H411.16Z" transform="translate(-222.197 -147.046)" fill="#d3d5fc"/>
      <rect id="Rectángulo_34439" data-name="Rectángulo 34439" width="36.288" height="4.545" transform="translate(80.144 116.989)" fill="#6f58ff"/>
      <path id="Trazado_116797" data-name="Trazado 116797" d="M385.553,369.027H336.825l2.563-18.067h43.6Z" transform="translate(-263.088 -222.276)" fill="#969ff5"/>
    </g>
    <path id="Trazado_116798" data-name="Trazado 116798" d="M340.4,350.96h43.611l.839,6.172H339.516Z" transform="translate(-115.649 -109.634)" fill="#7373ff"/>
    <g id="Grupo_79967" data-name="Grupo 79967" transform="translate(84.565 208.33)">
      <ellipse id="Elipse_4812" data-name="Elipse 4812" cx="43.855" cy="9.152" rx="43.855" ry="9.152" transform="translate(0 72.473)" fill="#d3d5fc"/>
      <g id="Grupo_79947" data-name="Grupo 79947" transform="translate(16.597 27.592)">
        <path id="Trazado_116799" data-name="Trazado 116799" d="M184.255,348.284a2.055,2.055,0,0,0-.976-.98l-10.869-5.047-5.925-.024-5.926.033-10.679,5.024a2.327,2.327,0,0,0-1.094,1.11c-.776,1.614-4.872,15.2-7.229,23.1-.829,2.778,1.046,5.637,3.693,5.634l42.124-.03c2.611,0,4.476-2.792,3.71-5.551C188.882,363.627,185.007,349.838,184.255,348.284Z" transform="translate(-141.357 -342.233)" fill="#ffb600"/>
        <path id="Trazado_116800" data-name="Trazado 116800" d="M184.217,342.269l-11.855.008.015,34.861,11.877-.008Z" transform="translate(-153.163 -342.247)" fill="#fff"/>
      </g>
      <rect id="Rectángulo_34440" data-name="Rectángulo 34440" width="35.846" height="13.476" transform="translate(24.048 62.479)" fill="#1c244c"/>
      <g id="Grupo_79961" data-name="Grupo 79961" transform="translate(31.035)">
        <path id="Trazado_116801" data-name="Trazado 116801" d="M173.26,330.584l.006,7.506v.023a16,16,0,0,0,5.175.932,13.423,13.423,0,0,0,5.283-.939l-.006-7.529Z" transform="translate(-167.943 -310.203)" fill="#ebaea3"/>
        <path id="Trazado_116802" data-name="Trazado 116802" d="M183.635,333.146c-.068.072-.136.143-.2.211l-.117.113c-.067.065-.136.129-.2.19-.041.037-.082.071-.123.107-.067.058-.133.115-.2.169l-.13.1c-.065.051-.129.1-.194.149-.045.033-.09.065-.136.1-.063.045-.125.089-.188.13-.047.032-.094.061-.142.091s-.12.077-.179.112-.1.059-.15.088-.11.064-.165.094-.108.057-.162.085l-.148.076c-.059.029-.116.056-.174.082-.042.02-.085.041-.128.059-.064.029-.126.055-.189.081l-.1.043c-.071.028-.139.054-.208.08l-.071.027c-.082.03-.162.057-.24.082l-.025.009c-.262.085-.5.148-.7.194a4.15,4.15,0,0,1-.944.105c-.106,0-.212-.006-.318-.016-.168-.016-.333-.037-.5-.061l-.041-.007q-.238-.036-.465-.084l-.012,0a7.486,7.486,0,0,1-2.33-.894l-.034-.02c-.14-.085-.277-.173-.408-.266l-.009-.006-.014-.011a7.173,7.173,0,0,1-1.02-.884v.845a7.14,7.14,0,0,0,1.02.884l.014.011.009,0c.131.093.268.181.408.266l.034.02a7.5,7.5,0,0,0,2.33.895l.012,0c.152.032.307.06.465.084l.041.007c.162.024.327.045.5.061.106.01.212.015.318.016a4.152,4.152,0,0,0,.944-.105c.2-.046.441-.109.7-.194l.025-.009c.078-.025.157-.053.24-.082l.071-.027c.069-.025.137-.051.208-.08l.1-.043c.063-.026.125-.052.189-.08l.128-.06c.058-.027.115-.053.173-.082s.1-.051.149-.077.107-.055.161-.085.11-.062.165-.094.1-.057.15-.087.119-.074.179-.112.095-.06.142-.092c.063-.042.125-.085.188-.129.046-.032.091-.064.136-.1.065-.047.129-.1.194-.148l.13-.1c.067-.054.133-.111.2-.169.041-.035.082-.07.123-.107.068-.061.136-.125.2-.19l.117-.113c.069-.068.137-.139.2-.211l.085-.092v-.845Z" transform="translate(-167.944 -311.146)" fill="#e48c87"/>
        <g id="Grupo_79949" data-name="Grupo 79949" transform="translate(0 12.331)">
          <g id="Grupo_79948" data-name="Grupo 79948">
            <path id="Trazado_116803" data-name="Trazado 116803" d="M168.6,320.39a2.037,2.037,0,1,1-1.123-2.653A2.037,2.037,0,0,1,168.6,320.39Z" transform="translate(-164.673 -317.588)" fill="#e48c87"/>
          </g>
        </g>
        <g id="Grupo_79951" data-name="Grupo 79951" transform="translate(17.226 11.614)">
          <g id="Grupo_79950" data-name="Grupo 79950">
            <path id="Trazado_116804" data-name="Trazado 116804" d="M196.417,319.233a2.037,2.037,0,1,1-1.123-2.653A2.037,2.037,0,0,1,196.417,319.233Z" transform="translate(-192.492 -316.43)" fill="#e48c87"/>
          </g>
        </g>
        <path id="Trazado_116805" data-name="Trazado 116805" d="M184.656,309.651c1.043,11.4-4.985,13.8-7.166,14.294a4,4,0,0,1-1.261.089c-9.75-.925-7.616-15.271-7.616-15.271s.971-5.991,8.359-5.648C176.971,303.115,184.055,303.087,184.656,309.651Z" transform="translate(-166.098 -299.741)" fill="#ebaea3"/>
        <path id="Trazado_116806" data-name="Trazado 116806" d="M165.933,310.284c-.137,1.046.093,2.638,1.518,4.86,0,0,3.477-5.857.743-6.514A1.893,1.893,0,0,0,165.933,310.284Z" transform="translate(-165.14 -301.828)" fill="#313362"/>
        <path id="Trazado_116807" data-name="Trazado 116807" d="M194.608,310.493c.43,1.038.6,2.816-1.241,5.239,0,0-3.526-6.243-.746-6.49A2,2,0,0,1,194.608,310.493Z" transform="translate(-174.908 -302.076)" fill="#313362"/>
        <path id="Trazado_116808" data-name="Trazado 116808" d="M180.929,321.659l-.49,1.82h1.11" transform="translate(-170.677 -306.807)" fill="none" stroke="#e48c87" stroke-miterlimit="10" stroke-width="0.5"/>
        <path id="Trazado_116809" data-name="Trazado 116809" d="M189.872,325.712a1.663,1.663,0,1,1-1.664-1.662A1.663,1.663,0,0,1,189.872,325.712Z" transform="translate(-173.002 -307.718)" fill="#e48c87"/>
        <path id="Trazado_116810" data-name="Trazado 116810" d="M174.78,325.723a1.663,1.663,0,1,1-1.664-1.662A1.663,1.663,0,0,1,174.78,325.723Z" transform="translate(-167.255 -307.722)" fill="#e48c87"/>
        <path id="Trazado_116811" data-name="Trazado 116811" d="M175.107,320.493a.472.472,0,1,1-.473-.472A.472.472,0,0,1,175.107,320.493Z" transform="translate(-168.286 -306.184)" fill="#313362"/>
        <path id="Trazado_116812" data-name="Trazado 116812" d="M187.822,320.458a.472.472,0,1,1-.472-.472A.472.472,0,0,1,187.822,320.458Z" transform="translate(-173.128 -306.17)" fill="#313362"/>
        <g id="Grupo_79952" data-name="Grupo 79952" transform="translate(4.432 10.65)">
          <path id="Trazado_116813" data-name="Trazado 116813" d="M171.835,315.959l3.823-.506a2.578,2.578,0,0,0-2.019-.554,2.635,2.635,0,0,0-1.809,1.066" transform="translate(-171.831 -314.873)" fill="#313362"/>
        </g>
        <g id="Grupo_79953" data-name="Grupo 79953" transform="translate(12.418 10.568)">
          <path id="Trazado_116814" data-name="Trazado 116814" d="M188.552,315.823l-3.824-.5a2.577,2.577,0,0,1,2.018-.557,2.63,2.63,0,0,1,1.81,1.063" transform="translate(-184.728 -314.741)" fill="#313362"/>
        </g>
        <path id="Trazado_116815" data-name="Trazado 116815" d="M165.375,300.63s1.786,9.528,17.509,4.527C182.884,305.156,182.493,291.95,165.375,300.63Z" transform="translate(-164.941 -297.675)" fill="#313362"/>
        <g id="Grupo_79954" data-name="Grupo 79954" transform="translate(8.885 19.663)">
          <path id="Trazado_116816" data-name="Trazado 116816" d="M181.9,329.434a1.558,1.558,0,0,1-2.873,0Z" transform="translate(-179.022 -329.429)" fill="#fff"/>
        </g>
        <g id="Grupo_79960" data-name="Grupo 79960" transform="translate(2.296 11.557)">
          <g id="Grupo_79956" data-name="Grupo 79956" transform="translate(9.588)">
            <g id="Grupo_79955" data-name="Grupo 79955">
              <path id="Trazado_116817" data-name="Trazado 116817" d="M187.277,321.8a3.4,3.4,0,0,1-3.409-3.39v-1.131a.938.938,0,0,1,.938-.935l4.938,0a.938.938,0,0,1,.939.934V318.4A3.4,3.4,0,0,1,187.277,321.8ZM184.8,316.61a.667.667,0,0,0-.668.666v1.131a3.138,3.138,0,0,0,6.275,0v-1.131a.667.667,0,0,0-.669-.665Z" transform="translate(-183.866 -316.338)" fill="#6f58ff"/>
            </g>
          </g>
          <g id="Grupo_79958" data-name="Grupo 79958" transform="translate(0 0.007)">
            <g id="Grupo_79957" data-name="Grupo 79957">
              <path id="Trazado_116818" data-name="Trazado 116818" d="M171.792,321.808a3.4,3.4,0,0,1-3.409-3.39v-1.131a.937.937,0,0,1,.937-.935l4.938,0a.937.937,0,0,1,.939.933v1.131A3.4,3.4,0,0,1,171.792,321.808Zm-2.473-5.187a.668.668,0,0,0-.668.666v1.131a3.138,3.138,0,0,0,6.275,0v-1.131a.668.668,0,0,0-.669-.665Z" transform="translate(-168.382 -316.35)" fill="#6f58ff"/>
            </g>
          </g>
          <g id="Grupo_79959" data-name="Grupo 79959" transform="translate(6.531 1.342)">
            <path id="Trazado_116819" data-name="Trazado 116819" d="M179.2,319.435l-.268-.365a2.821,2.821,0,0,1,3.318.007l-.291.347A2.356,2.356,0,0,0,179.2,319.435Z" transform="translate(-178.929 -318.506)" fill="#6f58ff"/>
          </g>
        </g>
      </g>
      <g id="Grupo_79963" data-name="Grupo 79963" transform="translate(6.745 60.841)">
        <g id="Grupo_79962" data-name="Grupo 79962" transform="translate(0 16.924)">
          <path id="Trazado_116820" data-name="Trazado 116820" d="M127.048,424.259c3.743-1.726,12.043-.692,12.043-.692s-2.417,4.3,1.716,5.811L133,430.87a8.382,8.382,0,0,1-4.131-.209c-2.416-.774-3.182-2.275-3.385-3.455A2.741,2.741,0,0,1,127.048,424.259Z" transform="translate(-125.447 -423.26)" fill="#232323"/>
          <path id="Trazado_116821" data-name="Trazado 116821" d="M147.049,423.754l3.9,0,1.342,4.487-3.528,1.327C144.632,428.059,147.049,423.754,147.049,423.754Z" transform="translate(-133.405 -423.447)" fill="#ebaea3"/>
        </g>
        <path id="Trazado_116822" data-name="Trazado 116822" d="M195.4,396.591c2.746-.883,5.592-1.218,7.647,1.168a5.857,5.857,0,0,1,.628,6.692c-1.235,2.144-3.738,3.124-5.871,4.11-4.452,2.06-39.307,10.433-43.993,11.544l-2.563-8.571c2.139-.726,4.284-1.433,6.428-2.146q5.522-1.836,11.043-3.673,6.128-2.041,12.251-4.094c3.353-1.126,6.706-2.254,10.049-3.408C192.339,397.757,193.852,397.087,195.4,396.591Z" transform="translate(-135.27 -395.928)" fill="#282b54"/>
      </g>
      <g id="Grupo_79965" data-name="Grupo 79965" transform="translate(10.491 61.314)">
        <g id="Grupo_79964" data-name="Grupo 79964" transform="translate(50.303 17.08)">
          <path id="Trazado_116823" data-name="Trazado 116823" d="M232.185,425.263c-3.745-1.721-12.045-.674-12.045-.674s2.424,4.3-1.708,5.813l7.807,1.48a8.379,8.379,0,0,0,4.13-.214c2.414-.777,3.178-2.279,3.38-3.46A2.741,2.741,0,0,0,232.185,425.263Z" transform="translate(-214.903 -424.274)" fill="#232323"/>
          <path id="Trazado_116824" data-name="Trazado 116824" d="M217.97,424.783l-3.9,0-1.336,4.489,3.53,1.321C220.394,429.083,217.97,424.783,217.97,424.783Z" transform="translate(-212.732 -424.468)" fill="#ebaea3"/>
        </g>
        <path id="Trazado_116825" data-name="Trazado 116825" d="M140.532,397.349c-2.748-.879-5.593-1.21-7.646,1.18a5.856,5.856,0,0,0-.619,6.693c1.238,2.143,3.742,3.119,5.877,4.1,4.455,2.053,39.321,10.377,44.009,11.481l2.551-8.574c-2.14-.723-4.287-1.427-6.431-2.137q-5.525-1.828-11.049-3.657-6.13-2.031-12.256-4.076c-3.355-1.121-6.709-2.245-10.054-3.394C143.591,398.511,142.077,397.843,140.532,397.349Z" transform="translate(-131.496 -396.692)" fill="#313362"/>
      </g>
      <g id="Grupo_79966" data-name="Grupo 79966" transform="translate(21.569 36.071)">
        <path id="Trazado_116826" data-name="Trazado 116826" d="M186.037,355.926l-32.9.024a3.753,3.753,0,0,0-3.751,3.756l1.03,24.642,38.38-.027,1-24.643A3.754,3.754,0,0,0,186.037,355.926Z" transform="translate(-149.387 -355.926)" fill="#aeb5f0"/>
        <path id="Trazado_116827" data-name="Trazado 116827" d="M154.655,358.39l32.9-.023a3.733,3.733,0,0,1,2.185.7,3.751,3.751,0,0,0-3.7-3.144l-32.9.024a3.753,3.753,0,0,0-3.751,3.756l1.03,24.642h1.415l-.928-22.2A3.753,3.753,0,0,1,154.655,358.39Z" transform="translate(-149.387 -355.926)" fill="#c3caf1"/>
        <path id="Trazado_116828" data-name="Trazado 116828" d="M183.276,373.272a2.511,2.511,0,1,1-2.513-2.509A2.51,2.51,0,0,1,183.276,373.272Z" transform="translate(-160.379 -361.576)" fill="#fff"/>
      </g>
    </g>
    <g id="Grupo_79974" data-name="Grupo 79974" transform="translate(151.536 189.589)">
      <rect id="Rectángulo_34441" data-name="Rectángulo 34441" width="64.4" height="40.814" transform="translate(1.483 1.502)" fill="#4139a1" opacity="0.29"/>
      <g id="Grupo_79973" data-name="Grupo 79973">
        <g id="Grupo_79972" data-name="Grupo 79972">
          <g id="Grupo_79971" data-name="Grupo 79971">
            <rect id="Rectángulo_34442" data-name="Rectángulo 34442" width="64.4" height="40.814" fill="#fbfffc"/>
            <g id="Grupo_79969" data-name="Grupo 79969" transform="translate(19.722 5.357)">
              <g id="Grupo_79968" data-name="Grupo 79968">
                <path id="Trazado_116829" data-name="Trazado 116829" d="M266.595,300.136A12.037,12.037,0,1,1,278.633,288.1,12.051,12.051,0,0,1,266.595,300.136Zm0-22.981A10.943,10.943,0,1,0,277.539,288.1,10.956,10.956,0,0,0,266.595,277.155Z" transform="translate(-254.557 -276.061)" fill="#db2d51"/>
              </g>
              <path id="Trazado_116830" data-name="Trazado 116830" d="M279.085,291.292l-11.019-6.844v13.688Z" transform="translate(-259.701 -279.255)" fill="#db2d51"/>
            </g>
            <g id="Grupo_79970" data-name="Grupo 79970" transform="translate(1.615 34.337)">
              <rect id="Rectángulo_34443" data-name="Rectángulo 34443" width="61.226" height="4.436" fill="#9fa5fb"/>
              <path id="Trazado_116831" data-name="Trazado 116831" d="M230.129,325.629l-2.277-1.414v2.828Z" transform="translate(-226.281 -323.376)" fill="#fbfffc"/>
              <path id="Trazado_116832" data-name="Trazado 116832" d="M279.812,325.609a1.355,1.355,0,1,1-1.355-1.354A1.355,1.355,0,0,1,279.812,325.609Z" transform="translate(-245.035 -323.391)" fill="#fbfffc"/>
            </g>
          </g>
          <line id="Línea_175" data-name="Línea 175" x2="56.007" transform="translate(5.462 36.59)" fill="none" stroke="#fbfffc" stroke-miterlimit="10" stroke-width="1"/>
        </g>
      </g>
    </g>
    <g id="Grupo_79981" data-name="Grupo 79981" transform="translate(93.61 132.582)">
      <rect id="Rectángulo_34444" data-name="Rectángulo 34444" width="45.739" height="23.49" transform="translate(54.852 1.395)" fill="#4139a1" opacity="0.29"/>
      <rect id="Rectángulo_34445" data-name="Rectángulo 34445" width="45.738" height="23.49" transform="translate(54.853 28.422)" fill="#4139a1" opacity="0.29"/>
      <g id="Grupo_79980" data-name="Grupo 79980" transform="translate(0 0)">
        <g id="Grupo_79979" data-name="Grupo 79979" transform="translate(12.319)">
          <g id="Grupo_79976" data-name="Grupo 79976" transform="translate(0 27.117)">
            <rect id="Rectángulo_34446" data-name="Rectángulo 34446" width="86.918" height="23.477" transform="translate(86.918 23.477) rotate(180)" fill="#db2d51"/>
            <rect id="Rectángulo_34447" data-name="Rectángulo 34447" width="54.569" height="2.58" transform="translate(80.384 7.552) rotate(180)" fill="#fff"/>
            <rect id="Rectángulo_34448" data-name="Rectángulo 34448" width="54.569" height="2.58" transform="translate(80.384 12.713) rotate(180)" fill="#fff"/>
            <rect id="Rectángulo_34449" data-name="Rectángulo 34449" width="28.443" height="2.686" transform="translate(54.306 17.874) rotate(180)" fill="#fff"/>
            <rect id="Rectángulo_34450" data-name="Rectángulo 34450" width="14.382" height="14.382" transform="translate(19.613 18.603) rotate(180)" fill="#fff"/>
            <g id="Grupo_79975" data-name="Grupo 79975" transform="translate(7.051 5.623)">
              <path id="Trazado_116833" data-name="Trazado 116833" d="M170.091,231.059a2.839,2.839,0,1,1-2.839-2.839A2.839,2.839,0,0,1,170.091,231.059Z" transform="translate(-161.954 -228.22)" fill="#d3d5fc"/>
              <path id="Trazado_116834" data-name="Trazado 116834" d="M171.184,244.727H160.442v-1.966a5.371,5.371,0,0,1,5.371-5.371h0a5.37,5.37,0,0,1,5.371,5.371Z" transform="translate(-160.442 -231.712)" fill="#d3d5fc"/>
            </g>
          </g>
          <g id="Grupo_79978" data-name="Grupo 79978">
            <rect id="Rectángulo_34451" data-name="Rectángulo 34451" width="86.918" height="23.477" transform="translate(86.918 23.477) rotate(180)" fill="#ecb42a"/>
            <rect id="Rectángulo_34452" data-name="Rectángulo 34452" width="54.569" height="2.58" transform="translate(80.384 7.552) rotate(180)" fill="#fff"/>
            <rect id="Rectángulo_34453" data-name="Rectángulo 34453" width="54.569" height="2.58" transform="translate(80.384 12.713) rotate(180)" fill="#fff"/>
            <rect id="Rectángulo_34454" data-name="Rectángulo 34454" width="28.443" height="2.686" transform="translate(54.306 17.874) rotate(180)" fill="#fff"/>
            <rect id="Rectángulo_34455" data-name="Rectángulo 34455" width="14.382" height="14.382" transform="translate(19.613 18.603) rotate(180)" fill="#fff"/>
            <g id="Grupo_79977" data-name="Grupo 79977" transform="translate(6.978 5.589)">
              <path id="Trazado_116835" data-name="Trazado 116835" d="M169.974,187.212a2.839,2.839,0,1,1-2.839-2.839A2.839,2.839,0,0,1,169.974,187.212Z" transform="translate(-161.837 -184.373)" fill="#d3d5fc"/>
              <path id="Trazado_116836" data-name="Trazado 116836" d="M171.067,200.88H160.325v-1.966a5.371,5.371,0,0,1,5.371-5.371h0a5.371,5.371,0,0,1,5.371,5.371Z" transform="translate(-160.325 -187.865)" fill="#d3d5fc"/>
            </g>
          </g>
        </g>
        <path id="Trazado_116837" data-name="Trazado 116837" d="M141.481,192.859H129.162v28.083h12.319" transform="translate(-129.162 -182.016)" fill="none" stroke="#4c28dc" stroke-miterlimit="10" stroke-width="2" stroke-dasharray="4"/>
      </g>
    </g>
    <g id="Grupo_79984" data-name="Grupo 79984" transform="translate(322.6 129.471)">
      <rect id="Rectángulo_34456" data-name="Rectángulo 34456" width="22.065" height="14.393" transform="translate(0 2.024)" fill="#4139a1" opacity="0.29"/>
      <g id="Grupo_79983" data-name="Grupo 79983" transform="translate(1.235)">
        <rect id="Rectángulo_34457" data-name="Rectángulo 34457" width="38.575" height="15.192" fill="#ecb42a"/>
        <g id="Grupo_79982" data-name="Grupo 79982" transform="translate(5.074 4.779)">
          <rect id="Rectángulo_34458" data-name="Rectángulo 34458" width="28.752" height="1.316" fill="#fff"/>
          <rect id="Rectángulo_34459" data-name="Rectángulo 34459" width="28.752" height="1.315" transform="translate(0 2.945)" fill="#fff"/>
          <rect id="Rectángulo_34460" data-name="Rectángulo 34460" width="19.593" height="1.315" transform="translate(0 5.889)" fill="#fff"/>
        </g>
      </g>
    </g>
    <g id="Grupo_79987" data-name="Grupo 79987" transform="translate(59.108 220.62)">
      <g id="Grupo_79986" data-name="Grupo 79986">
        <rect id="Rectángulo_34461" data-name="Rectángulo 34461" width="45.743" height="15.192" fill="#6f58ff"/>
        <g id="Grupo_79985" data-name="Grupo 79985" transform="translate(6.017 4.779)">
          <rect id="Rectángulo_34462" data-name="Rectángulo 34462" width="34.095" height="1.316" fill="#fff"/>
          <rect id="Rectángulo_34463" data-name="Rectángulo 34463" width="34.095" height="1.315" transform="translate(0 2.945)" fill="#fff"/>
          <rect id="Rectángulo_34464" data-name="Rectángulo 34464" width="23.234" height="1.315" transform="translate(0 5.889)" fill="#fff"/>
        </g>
      </g>
    </g>
    <g id="Grupo_79989" data-name="Grupo 79989" transform="translate(213.831 99.209)">
      <rect id="Rectángulo_34465" data-name="Rectángulo 34465" width="98.156" height="55.752" transform="translate(2.818 13.432)" fill="#4139a1" opacity="0.29"/>
      <g id="Grupo_79988" data-name="Grupo 79988">
        <rect id="Rectángulo_34466" data-name="Rectángulo 34466" width="98.156" height="66.567" fill="#9090f4"/>
        <rect id="Rectángulo_34467" data-name="Rectángulo 34467" width="86.942" height="47.312" transform="translate(5.414 4.779)" fill="#fff"/>
        <rect id="Rectángulo_34468" data-name="Rectángulo 34468" width="36.469" height="7.679" transform="translate(4.992 55.489)" fill="#fff"/>
        <rect id="Rectángulo_34469" data-name="Rectángulo 34469" width="47.764" height="1.713" transform="translate(44.592 55.489)" fill="#fff"/>
        <rect id="Rectángulo_34470" data-name="Rectángulo 34470" width="38.676" height="1.713" transform="translate(44.592 61.456)" fill="#fff"/>
        <rect id="Rectángulo_34471" data-name="Rectángulo 34471" width="28.325" height="1.713" transform="translate(44.592 58.266)" fill="#fff"/>
        <path id="Trazado_116838" data-name="Trazado 116838" d="M337.381,181.881l18.057-38.533,22.127,27.629,11.553-15.312,28.632,26.217Z" transform="translate(-328.667 -129.79)" fill="#706cca"/>
        <circle id="Elipse_4813" data-name="Elipse 4813" cx="6.741" cy="6.741" r="6.741" transform="translate(68.211 10.728)" fill="#ffc41d"/>
      </g>
    </g>
    <g id="Grupo_80002" data-name="Grupo 80002" transform="translate(81.698 187.112)">
      <g id="Grupo_80001" data-name="Grupo 80001">
        <g id="Grupo_79994" data-name="Grupo 79994">
          <g id="Grupo_79990" data-name="Grupo 79990" transform="translate(3.607 17.286)">
            <rect id="Rectángulo_34472" data-name="Rectángulo 34472" width="10.41" height="1.899" fill="#9fa5fb"/>
          </g>
          <g id="Grupo_79991" data-name="Grupo 79991" transform="translate(3.607 19.834)">
            <path id="Trazado_116839" data-name="Trazado 116839" d="M123.234,298.365h-4.559a2.925,2.925,0,0,1-2.925-2.926h10.41A2.925,2.925,0,0,1,123.234,298.365Z" transform="translate(-115.75 -295.439)" fill="#9fa5fb"/>
          </g>
          <g id="Grupo_79992" data-name="Grupo 79992">
            <path id="Trazado_116840" data-name="Trazado 116840" d="M117.583,263.463a8.643,8.643,0,0,0-5.262,14.562c.209.219.452.4.651.631a3.436,3.436,0,0,1,.666,1.411c.008.031.123.627.107.627h9.644a2.725,2.725,0,0,1,.064-.448,3.882,3.882,0,0,1,1.112-1.973,8.643,8.643,0,0,0-6.982-14.81Z" transform="translate(-109.925 -263.409)" fill="#ecb42a"/>
          </g>
          <g id="Grupo_79993" data-name="Grupo 79993" transform="translate(3.607 18.956)">
            <rect id="Rectángulo_34473" data-name="Rectángulo 34473" width="10.41" height="1.019" fill="#6f58ff"/>
          </g>
        </g>
        <g id="Grupo_79997" data-name="Grupo 79997" transform="translate(5.794 11.192)">
          <g id="Grupo_79995" data-name="Grupo 79995">
            <path id="Trazado_116841" data-name="Trazado 116841" d="M120.335,283.59a1.053,1.053,0,1,1,1.053-1.053A1.055,1.055,0,0,1,120.335,283.59Zm0-1.662a.609.609,0,1,0,.609.609A.61.61,0,0,0,120.335,281.928Z" transform="translate(-119.281 -281.483)" fill="#6959fa"/>
          </g>
          <g id="Grupo_79996" data-name="Grupo 79996" transform="translate(3.591)">
            <path id="Trazado_116842" data-name="Trazado 116842" d="M126.133,283.59a1.053,1.053,0,1,1,1.054-1.053A1.055,1.055,0,0,1,126.133,283.59Zm0-1.662a.609.609,0,1,0,.609.609A.61.61,0,0,0,126.133,281.928Z" transform="translate(-125.08 -281.483)" fill="#6959fa"/>
          </g>
        </g>
        <g id="Grupo_79998" data-name="Grupo 79998" transform="translate(6.625 13.076)">
          <rect id="Rectángulo_34474" data-name="Rectángulo 34474" width="0.444" height="4.209" fill="#6959fa"/>
        </g>
        <g id="Grupo_79999" data-name="Grupo 79999" transform="translate(10.216 13.076)">
          <rect id="Rectángulo_34475" data-name="Rectángulo 34475" width="0.444" height="4.209" fill="#6959fa"/>
        </g>
        <g id="Grupo_80000" data-name="Grupo 80000" transform="translate(7.679 12.023)">
          <rect id="Rectángulo_34476" data-name="Rectángulo 34476" width="1.928" height="0.444" fill="#6959fa"/>
        </g>
      </g>
    </g>
    <g id="Grupo_80008" data-name="Grupo 80008" transform="translate(225.397 172.92)">
      <g id="Grupo_80004" data-name="Grupo 80004">
        <path id="Trazado_116843" data-name="Trazado 116843" d="M402.85,299.52h0Z" transform="translate(-365.162 -262.967)" fill="url(#linear-gradient)"/>
        <path id="Trazado_116844" data-name="Trazado 116844" d="M402.856,299.512l0,0,0,0,0,0h0Z" transform="translate(-365.162 -262.962)" fill="url(#linear-gradient-2)"/>
        <g id="Grupo_80003" data-name="Grupo 80003">
          <path id="Trazado_116845" data-name="Trazado 116845" d="M377.429,249.137a36.389,36.389,0,0,0-15.8,10.807l27.21,22.034Z" transform="translate(-349.468 -243.782)" fill="#6f58ff"/>
          <path id="Trazado_116846" data-name="Trazado 116846" d="M385.617,288.623l-27.21-22.034a36.373,36.373,0,0,0-5.247,8.2l32.456,13.845h0l0,0Z" transform="translate(-346.241 -250.428)" fill="url(#linear-gradient-3)"/>
          <path id="Trazado_116847" data-name="Trazado 116847" d="M381.362,287.053l-27.21-22.034L351,262.465c-7.084,6.875-9.011,13.944-9.011,24.6h39.375l0,0Z" transform="translate(-341.987 -248.857)" fill="#ecb42a"/>
          <path id="Trazado_116848" data-name="Trazado 116848" d="M405.581,283.291l13.4-30.706c.113-.254,4.134,2.2,4.432,2.386a35.919,35.919,0,0,1,5.909,4.356,34.286,34.286,0,0,1,8.631,12.886,36.368,36.368,0,0,1,2.294,11.114Z" transform="translate(-366.202 -245.088)" fill="#7580ea"/>
          <path id="Trazado_116849" data-name="Trazado 116849" d="M397.907,278.692l15.352-35.2c-8.236-3.518-18.919-4.251-27.832-.516L397.9,278.693Z" transform="translate(-358.528 -240.49)" fill="#db2d51"/>
        </g>
      </g>
      <g id="Grupo_80007" data-name="Grupo 80007" transform="translate(75.847 14.212)">
        <g id="Grupo_80005" data-name="Grupo 80005" transform="translate(2.251 15.934)">
          <rect id="Rectángulo_34477" data-name="Rectángulo 34477" width="5.781" height="4.961" fill="#ecb42a"/>
          <rect id="Rectángulo_34478" data-name="Rectángulo 34478" width="5.781" height="4.961" transform="translate(9.398)" fill="#7580ea"/>
          <rect id="Rectángulo_34479" data-name="Rectángulo 34479" width="5.781" height="4.961" transform="translate(18.797)" fill="#db2d51"/>
        </g>
        <g id="Grupo_80006" data-name="Grupo 80006">
          <rect id="Rectángulo_34480" data-name="Rectángulo 34480" width="29.079" height="1.665" fill="#fff"/>
          <rect id="Rectángulo_34481" data-name="Rectángulo 34481" width="29.079" height="1.665" transform="translate(0 3.575)" fill="#fff"/>
          <rect id="Rectángulo_34482" data-name="Rectángulo 34482" width="29.079" height="1.665" transform="translate(0 7.15)" fill="#fff"/>
          <rect id="Rectángulo_34483" data-name="Rectángulo 34483" width="29.079" height="1.665" transform="translate(0 10.724)" fill="#fff"/>
        </g>
      </g>
    </g>
    <g id="Grupo_80020" data-name="Grupo 80020" transform="translate(405.457 132.791)">
      <g id="Grupo_80018" data-name="Grupo 80018">
        <rect id="Rectángulo_34484" data-name="Rectángulo 34484" width="40.743" height="59.478" fill="#fff"/>
        <g id="Grupo_80017" data-name="Grupo 80017" transform="translate(7.352 5.366)">
          <g id="Grupo_80009" data-name="Grupo 80009" transform="translate(7.906 6.187)">
            <line id="Línea_176" data-name="Línea 176" y1="19.474" transform="translate(1.548 1.548)" fill="#fff"/>
            <path id="Trazado_116850" data-name="Trazado 116850" d="M658.959,216.913a1.548,1.548,0,0,1-1.548-1.548V195.891a1.548,1.548,0,1,1,3.1,0v19.473A1.548,1.548,0,0,1,658.959,216.913Z" transform="translate(-657.411 -194.343)" fill="#ecb42a"/>
          </g>
          <g id="Grupo_80010" data-name="Grupo 80010" transform="translate(7.906 25.661)">
            <line id="Línea_177" data-name="Línea 177" y1="9.741" transform="translate(1.548 1.548)" fill="#fff"/>
            <path id="Trazado_116851" data-name="Trazado 116851" d="M658.959,238.629a1.548,1.548,0,0,1-1.548-1.548v-9.742a1.548,1.548,0,0,1,3.1,0v9.742A1.548,1.548,0,0,1,658.959,238.629Z" transform="translate(-657.411 -225.791)" fill="#d3d5fc"/>
          </g>
          <g id="Grupo_80011" data-name="Grupo 80011" transform="translate(22.942)">
            <line id="Línea_178" data-name="Línea 178" y1="25.205" transform="translate(1.548 1.548)" fill="#fff"/>
            <path id="Trazado_116852" data-name="Trazado 116852" d="M683.241,212.653a1.548,1.548,0,0,1-1.548-1.548V185.9a1.548,1.548,0,0,1,3.1,0V211.1A1.548,1.548,0,0,1,683.241,212.653Z" transform="translate(-681.693 -184.351)" fill="#db2d51"/>
          </g>
          <g id="Grupo_80012" data-name="Grupo 80012" transform="translate(22.942 25.206)">
            <line id="Línea_179" data-name="Línea 179" y1="10.197" transform="translate(1.548 1.548)" fill="#fff"/>
            <path id="Trazado_116853" data-name="Trazado 116853" d="M683.241,238.349a1.548,1.548,0,0,1-1.548-1.548V226.6a1.548,1.548,0,0,1,3.1,0v10.2A1.548,1.548,0,0,1,683.241,238.349Z" transform="translate(-681.693 -225.056)" fill="#d3d5fc"/>
          </g>
          <g id="Grupo_80013" data-name="Grupo 80013" transform="translate(15.975 14.364)">
            <line id="Línea_180" data-name="Línea 180" y1="5.566" transform="translate(1.548 1.548)" fill="#fff"/>
            <path id="Trazado_116854" data-name="Trazado 116854" d="M671.99,216.209a1.548,1.548,0,0,1-1.548-1.548V209.1a1.548,1.548,0,1,1,3.1,0v5.566A1.548,1.548,0,0,1,671.99,216.209Z" transform="translate(-670.442 -207.547)" fill="#6f58ff"/>
          </g>
          <g id="Grupo_80014" data-name="Grupo 80014" transform="translate(15.975 19.93)">
            <line id="Línea_181" data-name="Línea 181" y1="15.473" transform="translate(1.548 1.548)" fill="#fff"/>
            <path id="Trazado_116855" data-name="Trazado 116855" d="M671.99,235.1a1.548,1.548,0,0,1-1.548-1.548V218.084a1.548,1.548,0,1,1,3.1,0v15.473A1.548,1.548,0,0,1,671.99,235.1Z" transform="translate(-670.442 -216.536)" fill="#d3d5fc"/>
          </g>
          <g id="Grupo_80015" data-name="Grupo 80015" transform="translate(0 10.167)">
            <line id="Línea_182" data-name="Línea 182" y1="9.762" transform="translate(1.548 1.548)" fill="#fff"/>
            <path id="Trazado_116856" data-name="Trazado 116856" d="M646.191,213.629a1.548,1.548,0,0,1-1.548-1.548v-9.763a1.548,1.548,0,1,1,3.1,0v9.763A1.548,1.548,0,0,1,646.191,213.629Z" transform="translate(-644.643 -200.77)" fill="#7580ea"/>
          </g>
          <g id="Grupo_80016" data-name="Grupo 80016" transform="translate(0 19.93)">
            <line id="Línea_183" data-name="Línea 183" y1="15.473" transform="translate(1.548 1.548)" fill="#fff"/>
            <path id="Trazado_116857" data-name="Trazado 116857" d="M646.191,235.1a1.548,1.548,0,0,1-1.548-1.548V218.084a1.548,1.548,0,0,1,3.1,0v15.473A1.548,1.548,0,0,1,646.191,235.1Z" transform="translate(-644.643 -216.536)" fill="#d3d5fc"/>
          </g>
        </g>
      </g>
      <g id="Grupo_80019" data-name="Grupo 80019" transform="translate(4.571 47.514)">
        <rect id="Rectángulo_34485" data-name="Rectángulo 34485" width="6.074" height="3.272" fill="#7580ea"/>
        <rect id="Rectángulo_34486" data-name="Rectángulo 34486" width="6.074" height="3.272" transform="translate(0 5.285)" fill="#db2d51"/>
        <rect id="Rectángulo_34487" data-name="Rectángulo 34487" width="6.074" height="3.272" transform="translate(17.331)" fill="#ecb42a"/>
        <rect id="Rectángulo_34488" data-name="Rectángulo 34488" width="6.074" height="3.272" transform="translate(17.331 5.285)" fill="#6f58ff"/>
        <rect id="Rectángulo_34489" data-name="Rectángulo 34489" width="7.516" height="1.09" transform="translate(7.293 0.72)" fill="#d3d5fc"/>
        <rect id="Rectángulo_34490" data-name="Rectángulo 34490" width="7.516" height="1.09" transform="translate(7.293 6.589)" fill="#d3d5fc"/>
        <rect id="Rectángulo_34491" data-name="Rectángulo 34491" width="7.516" height="1.09" transform="translate(24.442 0.72)" fill="#d3d5fc"/>
        <rect id="Rectángulo_34492" data-name="Rectángulo 34492" width="7.516" height="1.09" transform="translate(24.442 6.589)" fill="#d3d5fc"/>
      </g>
    </g>
    <g id="Grupo_80034" data-name="Grupo 80034" transform="translate(161.129 93.783)">
      <rect id="Rectángulo_34493" data-name="Rectángulo 34493" width="42.316" height="17.103" transform="translate(1.851 18.859)" fill="#4139a1" opacity="0.29"/>
      <g id="Grupo_80033" data-name="Grupo 80033">
        <g id="Grupo_80021" data-name="Grupo 80021">
          <rect id="Rectángulo_34494" data-name="Rectángulo 34494" width="42.219" height="34.038" fill="#9090f4"/>
          <rect id="Rectángulo_34495" data-name="Rectángulo 34495" width="36.621" height="28.619" transform="translate(2.799 2.619)" fill="#fff"/>
        </g>
        <g id="Grupo_80032" data-name="Grupo 80032" transform="translate(5.102 4.845)">
          <g id="Grupo_80030" data-name="Grupo 80030" transform="translate(6.383)">
            <g id="Grupo_80023" data-name="Grupo 80023" transform="translate(0 0.021)">
              <g id="Grupo_80022" data-name="Grupo 80022">
                <path id="Trazado_116858" data-name="Trazado 116858" d="M265.9,120.553a1.729,1.729,0,0,1,.238,3.449,6.41,6.41,0,0,0-5.933,6.836,1.724,1.724,0,1,1-3.439.24A9.868,9.868,0,0,1,265.9,120.553Z" transform="translate(-256.745 -120.549)" fill="#ecb42a"/>
              </g>
            </g>
            <g id="Grupo_80025" data-name="Grupo 80025" transform="translate(0 8.13)">
              <g id="Grupo_80024" data-name="Grupo 80024">
                <path id="Trazado_116859" data-name="Trazado 116859" d="M256.746,135.363a1.724,1.724,0,1,1,3.447.019,6.407,6.407,0,0,0,6.355,6.444,1.729,1.729,0,0,1-.019,3.457A9.863,9.863,0,0,1,256.746,135.363Z" transform="translate(-256.746 -133.644)" fill="#7580ea"/>
              </g>
            </g>
            <g id="Grupo_80027" data-name="Grupo 80027" transform="translate(8.122 8.175)">
              <g id="Grupo_80026" data-name="Grupo 80026">
                <path id="Trazado_116860" data-name="Trazado 116860" d="M271.586,145.311a1.729,1.729,0,0,1,0-3.457,6.406,6.406,0,0,0,6.39-6.408,1.724,1.724,0,1,1,3.448,0A9.863,9.863,0,0,1,271.586,145.311Z" transform="translate(-269.862 -133.717)" fill="#db2d51"/>
              </g>
            </g>
            <g id="Grupo_80029" data-name="Grupo 80029" transform="translate(9.086)">
              <g id="Grupo_80028" data-name="Grupo 80028">
                <path id="Trazado_116861" data-name="Trazado 116861" d="M271.419,120.539a9.858,9.858,0,0,1,10.5,9.159,1.724,1.724,0,1,1-3.439.24,6.4,6.4,0,0,0-6.818-5.951,1.139,1.139,0,0,0,.183-.032,2.014,2.014,0,0,0,.43-.157,1.752,1.752,0,0,0,.493-.362,1.643,1.643,0,0,0,.372-.65,1.763,1.763,0,0,0,0-1.084,1.619,1.619,0,0,0-.3-.545,1.81,1.81,0,0,0-.706-.5c-.045-.018-.091-.035-.138-.051a1.733,1.733,0,0,0-.454-.069" transform="translate(-271.419 -120.515)" fill="#6f58ff"/>
              </g>
            </g>
          </g>
          <g id="Grupo_80031" data-name="Grupo 80031" transform="translate(0 21.156)">
            <rect id="Rectángulo_34496" data-name="Rectángulo 34496" width="22.302" height="1.236" fill="#d3d5fc"/>
            <rect id="Rectángulo_34497" data-name="Rectángulo 34497" width="2.809" height="1.236" transform="translate(24.127)" fill="#ecb42a"/>
            <rect id="Rectángulo_34498" data-name="Rectángulo 34498" width="2.809" height="1.236" transform="translate(29.206)" fill="#6f58ff"/>
            <rect id="Rectángulo_34499" data-name="Rectángulo 34499" width="2.809" height="1.236" transform="translate(24.127 2.128)" fill="#7580ea"/>
            <rect id="Rectángulo_34500" data-name="Rectángulo 34500" width="2.809" height="1.236" transform="translate(29.206 2.128)" fill="#db2d51"/>
            <rect id="Rectángulo_34501" data-name="Rectángulo 34501" width="22.302" height="1.236" transform="translate(0 2.128)" fill="#d3d5fc"/>
          </g>
        </g>
      </g>
    </g>
    <g id="Grupo_80047" data-name="Grupo 80047" transform="translate(342.963 148.832)">
      <ellipse id="Elipse_4814" data-name="Elipse 4814" cx="29.309" cy="3.606" rx="29.309" ry="3.606" transform="translate(0 140.308)" fill="#d3d5fc"/>
      <g id="Grupo_80046" data-name="Grupo 80046" transform="translate(4.893)">
        <path id="Trazado_116862" data-name="Trazado 116862" d="M599.249,227.274c-.1.249-.114,6.039-.116,6.306q-.009,1.5-.02,3a8.057,8.057,0,0,0,.216,2.357,3.011,3.011,0,0,0,1.915,2,10.816,10.816,0,0,0,6.129.248c.191-.043,2.027-.679,2.041-.661a10.691,10.691,0,0,1-2.077-3.687,13.972,13.972,0,0,1-.113-5.714q.191-1.5.251-3.005a66.655,66.655,0,0,0-.152-6.742c-.495.188-1.586,2.534-1.987,2.907-.5.464-.692.889-1.191,1.353-1,.929-2.234.319-3.237,1.242-.425.4-.38.422-.824.8C599.713,227.992,599.435,226.793,599.249,227.274Z" transform="translate(-562.352 -209.126)" fill="#313362"/>
        <g id="Grupo_80035" data-name="Grupo 80035" transform="translate(0 140.309)">
          <path id="Trazado_116863" data-name="Trazado 116863" d="M556.256,431.544l-.047-2.3-.018-.852-.544.656-2.487-.866-13.032,2.294a.459.459,0,0,0-.061.89c2.85.9,8.715,2.439,13.113,1.5l-.04.453,3.158.292Z" transform="translate(-539.748 -428.177)" fill="#232323"/>
          <path id="Trazado_116864" data-name="Trazado 116864" d="M556.725,428.177l-7.616,1.341s8.617,2.425,10.558-.974" transform="translate(-543.312 -428.177)" fill="#ffbcb5"/>
        </g>
        <path id="Trazado_116865" data-name="Trazado 116865" d="M571.087,334.468c-.056-.125-.108-.251-.155-.378a3.9,3.9,0,0,1-.174-1.933l5.161-35.939,5.195-.3-1.758,31.846c.224.242.45.508.678.793l-7.508,9.1Z" transform="translate(-551.537 -237.508)" fill="#242856"/>
        <g id="Grupo_80036" data-name="Grupo 80036" transform="translate(28.826 139.501)">
          <path id="Trazado_116866" data-name="Trazado 116866" d="M602.759,429.908l-.3-2.022c-.025-.172-.058-.344-.1-.513l-.12-.5-.4.632-2.576-.546-12.639,3.919a.459.459,0,0,0,.049.89c2.94.534,8.955,1.321,13.2-.169l.018.454,3.17-.108Z" transform="translate(-586.299 -426.872)" fill="#232323"/>
          <path id="Trazado_116867" data-name="Trazado 116867" d="M602.65,427.011l-7.459,2.313s8.953,1.3,10.451-2.313" transform="translate(-589.685 -426.925)" fill="#ffbcb5"/>
        </g>
        <path id="Trazado_116868" data-name="Trazado 116868" d="M586.761,368.292l5.028-22.376c.694,2.811,5.158,18.629,5.9,21.874a90.574,90.574,0,0,1,1.735,10.284l3.007,18.059H599.44Z" transform="translate(-557.649 -256.545)" fill="#242856"/>
        <path id="Trazado_116869" data-name="Trazado 116869" d="M568.686,329.043l3.636-32.64,12.809.692c5.967,7.49,3.548,16-.155,24.309-1.988,4.459-4,12.341-8.893,31.983a90.52,90.52,0,0,1-3.106,9.956l-8.748,15.064-2.968-.377Z" transform="translate(-547.94 -237.692)" fill="#2d2f64"/>
        <path id="Trazado_116870" data-name="Trazado 116870" d="M579.017,296.4l-.172,1.148,13.766.619-.785-1.075Z" transform="translate(-554.635 -237.692)" fill="#333" style="mix-blend-mode: overlay;isolation: isolate"/>
        <path id="Trazado_116871" data-name="Trazado 116871" d="M592.191,348.468l-5.43,20.8.875,1.921,5.475-19.378Z" transform="translate(-557.649 -257.517)" fill="#14183a"/>
        <path id="Trazado_116872" data-name="Trazado 116872" d="M575.381,268.7a1.612,1.612,0,0,0,1.9-1.785,47.451,47.451,0,0,1,.006-11.623,17.147,17.147,0,0,1,1.621-6.073c.81-1.626,5.223-2,6.263,1.332.96,3.076-.565,3.987-.965,7.16a52.638,52.638,0,0,1-1.736,8.592,36.209,36.209,0,0,1-1.505,4.119c-.192.437-.378.891-.571,1.35a18.561,18.561,0,0,1-1.015,2.115l-.012.022-.073.151a2,2,0,0,1-2.349,1.057l-3.6-1.017-1.874-6.042C572.779,268.246,574.081,268.455,575.381,268.7Z" transform="translate(-551.829 -219.265)" fill="#e8426d"/>
        <path id="Trazado_116873" data-name="Trazado 116873" d="M585.314,244.561l-5.233,9.591a8.052,8.052,0,0,0-.641,6.726l1,2.841L579.07,276.68l12.809.692c2.911-11,6.191-16.5,6.191-16.5s5.391-11.709-4.556-14.762Z" transform="translate(-554.688 -217.952)" fill="#ff5076"/>
        <path id="Trazado_116874" data-name="Trazado 116874" d="M599.283,273.743c1.222.114-.167-10.089-.053-13.606.079-2.419-.043-5.467.757-7.513.661-1.692,3.585-3.359,4.919-.135a22.521,22.521,0,0,1,1.434,9.436,52.729,52.729,0,0,1-.959,8.713,36.386,36.386,0,0,1-1.13,4.237c-.152.453-.3.921-.448,1.4a18.331,18.331,0,0,1-.821,2.2l-.01.024-.058.157a2,2,0,0,1-2.241,1.264l-3.681-.69-2.409-5.85C595.815,273.438,598.048,273.627,599.283,273.743Z" transform="translate(-560.628 -220.272)" fill="#e8426d"/>
        <g id="Grupo_80037" data-name="Grupo 80037" transform="translate(29.181 14.179)">
          <path id="Trazado_116875" data-name="Trazado 116875" d="M592.5,228.071l.809-1.2L589.39,229l-2.518,3.219s.366,1.691.86,3.953C589.227,236.17,593.952,230.59,592.5,228.071Z" transform="translate(-586.872 -225.394)" fill="#ff8d88"/>
          <path id="Trazado_116876" data-name="Trazado 116876" d="M595.406,228.787s3.386-1.042,3.567-3.079l-2.458.723-3.292-1.944c-2.035,6.691-3.827,9.758-5.322,9.763.211.966.4,1.94.588,2.913-.083,1.546-.252,3.191,1.259,3.681,1.453.47,3.524-.439,4.517-1.316.686-.606,1.035-.633,1.721-1.239,0,0-.4-1.883-.812-3.891C594.848,232.3,594.712,230.163,595.406,228.787Z" transform="translate(-587.264 -224.487)" fill="#ffbcb5"/>
        </g>
        <path id="Trazado_116877" data-name="Trazado 116877" d="M574.561,218.157l1.841,1.6.953,5.792s8.353,1.843,11.465-5.788c0,0,5.073-.284,5.823-4.743s-3.222-11.383-11.819-8.313c0,0-4.122,1.786-5.022,5.234a4.4,4.4,0,0,0-.038,1.9C578,215.119,578.144,218.068,574.561,218.157Z" transform="translate(-553.004 -203.25)" fill="#ffbcb5"/>
        <g id="Grupo_80038" data-name="Grupo 80038" transform="translate(23.543 10.75)">
          <path id="Trazado_116878" data-name="Trazado 116878" d="M586.733,225.956a1.825,1.825,0,1,1-2.364-1.034A1.825,1.825,0,0,1,586.733,225.956Z" transform="translate(-579.839 -221.176)" fill="#ff8d88"/>
          <path id="Trazado_116879" data-name="Trazado 116879" d="M577.948,230.764a5.6,5.6,0,0,0,2.991-.5" transform="translate(-577.836 -223.259)" fill="none" stroke="#ff8d88" stroke-miterlimit="10" stroke-width="0.25"/>
          <path id="Trazado_116880" data-name="Trazado 116880" d="M577.879,230.738l1.9-.108s-1.64-.692-1.988-.328C577.71,230.382,577.879,230.738,577.879,230.738Z" transform="translate(-577.767 -223.233)" fill="#ff8d88"/>
          <path id="Trazado_116881" data-name="Trazado 116881" d="M577.937,230.993c-.111,0-.141.19-.138.269a.48.48,0,0,0,.23.4c.219.121.5,0,.713-.092a5.573,5.573,0,0,0,1.045-.668Z" transform="translate(-577.78 -223.499)" fill="#f88080"/>
          <path id="Trazado_116882" data-name="Trazado 116882" d="M580.527,219.253a2.633,2.633,0,0,1,3.486.984A4.238,4.238,0,0,0,580.527,219.253Z" transform="translate(-578.818 -218.951)" fill="#313362"/>
          <path id="Trazado_116883" data-name="Trazado 116883" d="M582.03,222.834a.57.57,0,1,0-.04-.806A.571.571,0,0,0,582.03,222.834Z" transform="translate(-579.319 -220.051)" fill="#313362"/>
        </g>
        <g id="Grupo_80039" data-name="Grupo 80039" transform="translate(23.501)">
          <path id="Trazado_116884" data-name="Trazado 116884" d="M586.936,201.668c7.9-.79,10.76,4.59,11.789,8.205.618,2.17.828,7.426.029,9.535-2.141,5.648-7.7,2.518-7.7,2.518l-.1-2.881-.56-3.832c-2.689-.632-3.462-4.334-3.462-4.334s-.355.014-.921.034l-.547-1.962v1.98l-.607.02-.531-3v3.013l-.909.025h.016l-.449-1.986-.1,2c-2.449.056-5.106.071-5.125-.126C576.819,201.354,586.936,201.668,586.936,201.668Z" transform="translate(-577.7 -201.59)" fill="#313362"/>
        </g>
        <g id="Grupo_80040" data-name="Grupo 80040" transform="translate(35.031 11.099)">
          <path id="Trazado_116885" data-name="Trazado 116885" d="M600.573,220.313a2.258,2.258,0,0,1-.264,3.182c-.952.806-2.79,1.185-3.6.234s-.273-2.874.678-3.679A2.258,2.258,0,0,1,600.573,220.313Z" transform="translate(-596.32 -219.515)" fill="#ffbcb5"/>
          <path id="Trazado_116886" data-name="Trazado 116886" d="M598.244,227.215a.561.561,0,1,0,.318-.726A.561.561,0,0,0,598.244,227.215Z" transform="translate(-597.038 -222.155)" fill="#fff"/>
        </g>
        <path id="Trazado_116887" data-name="Trazado 116887" d="M581.821,293.664l9.362,1.757.908.17c-.027.1-.054.2-.081.3l-3.824-.206-6.364-1.194c-.845-.159-1.673-.328-2.494-.487l.085-.809C580.206,293.347,581.006,293.511,581.821,293.664Z" transform="translate(-554.819 -236.47)" fill="#333" style="mix-blend-mode: overlay;isolation: isolate"/>
        <g id="Grupo_80041" data-name="Grupo 80041" transform="translate(29.212 26.998)">
          <path id="Trazado_116888" data-name="Trazado 116888" d="M589.131,248.631s-1.969.39-2.185-.992a2.966,2.966,0,0,1,1.178-2.45Z" transform="translate(-586.923 -245.189)" fill="#fff"/>
          <path id="Trazado_116889" data-name="Trazado 116889" d="M597.045,246.178l-6.556,2.829s5.39,3.838,6.556-2.829" transform="translate(-588.281 -245.566)" fill="#fff"/>
        </g>
        <g id="Grupo_80044" data-name="Grupo 80044" transform="translate(1.591 4.628)">
          <path id="Trazado_116890" data-name="Trazado 116890" d="M542.317,230.487l16.562,50.365s5.313-.438,13.414-4.411l-16.562-50.364Z" transform="translate(-542.317 -215.542)" fill="#ecb42a"/>
          <rect id="Rectángulo_34502" data-name="Rectángulo 34502" width="7.242" height="54.03" transform="translate(3.195 13.895) rotate(-18.204)" fill="#ffc950"/>
          <g id="Grupo_80042" data-name="Grupo 80042" transform="translate(16.562 60.898)">
            <path id="Trazado_116891" data-name="Trazado 116891" d="M569.064,311.821l.268.815,2.277,6.924,13.414-4.411-2.277-6.924-.268-.815C574.377,311.383,569.064,311.821,569.064,311.821Z" transform="translate(-569.064 -307.41)" fill="#ededfc"/>
            <path id="Trazado_116892" data-name="Trazado 116892" d="M569.064,311.821l.268.815.048.147s5.313-.438,13.414-4.411l-.048-.147-.268-.815C574.377,311.383,569.064,311.821,569.064,311.821Z" transform="translate(-569.064 -307.41)" fill="#9fa5fb"/>
            <path id="Trazado_116893" data-name="Trazado 116893" d="M570.163,315.161l.267.815.048.147s5.313-.438,13.414-4.411l-.048-.147-.268-.814C575.475,314.722,570.163,315.161,570.163,315.161Z" transform="translate(-569.482 -308.682)" fill="#9fa5fb"/>
            <path id="Trazado_116894" data-name="Trazado 116894" d="M571.261,318.5l.267.814.048.147s5.313-.438,13.414-4.411l-.048-.147-.267-.815C576.573,318.061,571.261,318.5,571.261,318.5Z" transform="translate(-569.901 -309.953)" fill="#9fa5fb"/>
            <path id="Trazado_116895" data-name="Trazado 116895" d="M573.06,323.973l.137.416,1.837,5.585a2.8,2.8,0,0,0,3.515,1.83l8.157-2.683a2.8,2.8,0,0,0,1.742-3.558l-1.837-5.586-.137-.415Z" transform="translate(-570.586 -312.037)" fill="#db2d51"/>
            <path id="Trazado_116896" data-name="Trazado 116896" d="M572.612,322.609l.268.814.048.147s5.312-.439,13.413-4.411l-.048-.147-.268-.815C577.925,322.17,572.612,322.609,572.612,322.609Z" transform="translate(-570.415 -311.518)" fill="#9fa5fb"/>
          </g>
          <g id="Grupo_80043" data-name="Grupo 80043">
            <path id="Trazado_116897" data-name="Trazado 116897" d="M548.857,211.964l-3.022-2.9-.679,4.164A10.466,10.466,0,0,0,548.857,211.964Z" transform="translate(-543.398 -209.064)" fill="#2d2f64"/>
            <path id="Trazado_116898" data-name="Trazado 116898" d="M555.731,221.381l-7.955-7.634a10.465,10.465,0,0,1-3.7,1.264l-1.758,10.781Z" transform="translate(-542.317 -210.847)" fill="#ffe7b6"/>
          </g>
        </g>
        <path id="Trazado_116899" data-name="Trazado 116899" d="M578.5,336.871l8.157-2.682a2.744,2.744,0,0,0,1.824-2.113,2.7,2.7,0,0,1-1.447,1.152l-8.158,2.683a2.8,2.8,0,0,1-3.514-1.83l-1.235-3.754-.211,1.468,1.068,3.248A2.8,2.8,0,0,0,578.5,336.871Z" transform="translate(-552.757 -250.609)" fill="#666" style="mix-blend-mode: overlay;isolation: isolate"/>
        <path id="Trazado_116900" data-name="Trazado 116900" d="M582.679,291.284l-2.409-5.851c-3.127-.167-6.251-.2-9.385-.2-1.608-.009-7.582-.139-7.582-.139a13.34,13.34,0,0,0-2.84-1.828,9.808,9.808,0,0,1-1.643-.825.663.663,0,0,0-1.019.415l1.9,1.62-1.48-.328a.878.878,0,0,0-1.067.8l-.159,2.531a1.8,1.8,0,0,0,1.983,1.4l1.983.056a4.019,4.019,0,0,0,1.229-.155,10.5,10.5,0,0,1,2.253-.435,18.712,18.712,0,0,1,3.617.366c1.116.155,2.232.316,3.345.49.639.1,1.277.2,1.913.323Z" transform="translate(-546.315 -232.334)" fill="#ffbcb5"/>
        <g id="Grupo_80045" data-name="Grupo 80045" transform="translate(6.21 41.84)">
          <path id="Trazado_116901" data-name="Trazado 116901" d="M552.339,274.757l2.3.977-.768-2.336,1.569-1.668a1,1,0,0,0,.142-1.176l-.46-.816a1.138,1.138,0,0,0-1.128-.571l-3.389.407-.831,1.687Z" transform="translate(-549.777 -269.159)" fill="#ffb1a5"/>
          <path id="Trazado_116902" data-name="Trazado 116902" d="M552.339,275.012l.726-1.366-2.457-3.816-.831,1.687Z" transform="translate(-549.777 -269.414)" fill="#ffc1bb"/>
        </g>
      </g>
    </g>
  </g>
</svg>
