<svg xmlns="http://www.w3.org/2000/svg" width="699" height="355.4" viewBox="0 0 699 355.4">
  <g id="Grupo_106868" data-name="Grupo 106868" transform="translate(-698.338 -3456)">
    <g id="Trazado_218592" data-name="Trazado 218592" transform="translate(726.338 3456)" fill="#4dd0e1">
      <path d="M 156 55 L 10 55 C 5.037391185760498 55 1 50.96260833740234 1 46 L 1 10 C 1 5.037391185760498 5.037391185760498 1 10 1 L 156 1 C 160.9626159667969 1 165 5.037391185760498 165 10 L 165 46 C 165 50.96260833740234 160.9626159667969 55 156 55 Z" stroke="none"/>
      <path d="M 10 2 C 5.588790893554688 2 2 5.588794708251953 2 10 L 2 46 C 2 50.41120529174805 5.588790893554688 54 10 54 L 156 54 C 160.4112091064453 54 164 50.41120529174805 164 46 L 164 10 C 164 5.588794708251953 160.4112091064453 2 156 2 L 10 2 M 10 0 L 156 0 C 161.5228424072266 0 166 4.477157592773438 166 10 L 166 46 C 166 51.52284240722656 161.5228424072266 56 156 56 L 10 56 C 4.477157592773438 56 0 51.52284240722656 0 46 L 0 10 C 0 4.477157592773438 4.477157592773438 0 10 0 Z" stroke="none" fill="#727997"/>
    </g>
    <g id="Trazado_218574" data-name="Trazado 218574" transform="translate(1129.338 3456)" fill="#fff">
      <path d="M 156 55 L 10 55 C 5.037391185760498 55 1 50.96260833740234 1 46 L 1 10 C 1 5.037391185760498 5.037391185760498 1 10 1 L 156 1 C 160.9626159667969 1 165 5.037391185760498 165 10 L 165 46 C 165 50.96260833740234 160.9626159667969 55 156 55 Z" stroke="none"/>
      <path d="M 10 2 C 5.588790893554688 2 2 5.588794708251953 2 10 L 2 46 C 2 50.41120529174805 5.588790893554688 54 10 54 L 156 54 C 160.4112091064453 54 164 50.41120529174805 164 46 L 164 10 C 164 5.588794708251953 160.4112091064453 2 156 2 L 10 2 M 10 0 L 156 0 C 161.5228424072266 0 166 4.477157592773438 166 10 L 166 46 C 166 51.52284240722656 161.5228424072266 56 156 56 L 10 56 C 4.477157592773438 56 0 51.52284240722656 0 46 L 0 10 C 0 4.477157592773438 4.477157592773438 0 10 0 Z" stroke="none" fill="#727997"/>
    </g>
    <g id="Trazado_218594" data-name="Trazado 218594" transform="translate(698.338 3561)" fill="#d8faff">
      <path d="M 92 71 L 9 71 C 4.588786602020264 71 1 67.41121673583984 1 63 L 1 9 C 1 4.588786602020264 4.588786602020264 1 9 1 L 92 1 C 96.41121673583984 1 100 4.588786602020264 100 9 L 100 63 C 100 67.41121673583984 96.41121673583984 71 92 71 Z" stroke="none"/>
      <path d="M 9 2 C 5.140182495117188 2 2 5.140182495117188 2 9 L 2 63 C 2 66.85981750488281 5.140182495117188 70 9 70 L 92 70 C 95.85981750488281 70 99 66.85981750488281 99 63 L 99 9 C 99 5.140182495117188 95.85981750488281 2 92 2 L 9 2 M 9 0 L 92 0 C 96.97055816650391 0 101 4.029426574707031 101 9 L 101 63 C 101 67.97055816650391 96.97055816650391 72 92 72 L 9 72 C 4.029426574707031 72 0 67.97055816650391 0 63 L 0 9 C 0 4.029426574707031 4.029426574707031 0 9 0 Z" stroke="none" fill="#727997"/>
    </g>
    <g id="Trazado_218581" data-name="Trazado 218581" transform="translate(1063.338 3561)" fill="#69ceff">
      <path d="M 106 71 L 9 71 C 4.588784694671631 71 1 67.41121673583984 1 63 L 1 9 C 1 4.588784694671631 4.588784694671631 1 9 1 L 106 1 C 110.4112167358398 1 114 4.588784694671631 114 9 L 114 63 C 114 67.41121673583984 110.4112167358398 71 106 71 Z" stroke="none"/>
      <path d="M 9 2 C 5.140182495117188 2 2 5.140182495117188 2 9 L 2 63 C 2 66.85981750488281 5.140182495117188 70 9 70 L 106 70 C 109.8598175048828 70 113 66.85981750488281 113 63 L 113 9 C 113 5.140182495117188 109.8598175048828 2 106 2 L 9 2 M 9 0 L 106 0 C 110.9705657958984 0 115 4.029434204101562 115 9 L 115 63 C 115 67.97056579589844 110.9705657958984 72 106 72 L 9 72 C 4.029434204101562 72 0 67.97056579589844 0 63 L 0 9 C 0 4.029434204101562 4.029434204101562 0 9 0 Z" stroke="none" fill="#727997"/>
    </g>
    <g id="Trazado_218588" data-name="Trazado 218588" transform="translate(1033.338 3657)" fill="#ffeeb9">
      <path d="M 76 71 L 9 71 C 4.588788032531738 71 1 67.41120910644531 1 63 L 1 9 C 1 4.588788032531738 4.588788032531738 1 9 1 L 76 1 C 80.41120910644531 1 84 4.588788032531738 84 9 L 84 63 C 84 67.41120910644531 80.41120910644531 71 76 71 Z" stroke="none"/>
      <path d="M 9 2 C 5.140190124511719 2 2 5.140190124511719 2 9 L 2 63 C 2 66.85980987548828 5.140190124511719 70 9 70 L 76 70 C 79.85980987548828 70 83 66.85980987548828 83 63 L 83 9 C 83 5.140190124511719 79.85980987548828 2 76 2 L 9 2 M 9 0 L 76 0 C 80.97056579589844 0 85 4.029434204101562 85 9 L 85 63 C 85 67.97056579589844 80.97056579589844 72 76 72 L 9 72 C 4.029434204101562 72 0 67.97056579589844 0 63 L 0 9 C 0 4.029434204101562 4.029434204101562 0 9 0 Z" stroke="none" fill="#727997"/>
    </g>
    <g id="Trazado_218575" data-name="Trazado 218575" transform="translate(1219.338 3657)" fill="#ffeeb9">
      <path d="M 76 71 L 9 71 C 4.588788032531738 71 1 67.41120910644531 1 63 L 1 9 C 1 4.588788032531738 4.588788032531738 1 9 1 L 76 1 C 80.41120910644531 1 84 4.588788032531738 84 9 L 84 63 C 84 67.41120910644531 80.41120910644531 71 76 71 Z" stroke="none"/>
      <path d="M 9 2 C 5.140190124511719 2 2 5.140190124511719 2 9 L 2 63 C 2 66.85980987548828 5.140190124511719 70 9 70 L 76 70 C 79.85980987548828 70 83 66.85980987548828 83 63 L 83 9 C 83 5.140190124511719 79.85980987548828 2 76 2 L 9 2 M 9 0 L 76 0 C 80.97056579589844 0 85 4.029434204101562 85 9 L 85 63 C 85 67.97056579589844 80.97056579589844 72 76 72 L 9 72 C 4.029434204101562 72 0 67.97056579589844 0 63 L 0 9 C 0 4.029434204101562 4.029434204101562 0 9 0 Z" stroke="none" fill="#727997"/>
    </g>
    <g id="Trazado_218576" data-name="Trazado 218576" transform="translate(1126.338 3657)" fill="#ffeeb9">
      <path d="M 76 71 L 9 71 C 4.588788032531738 71 1 67.41120910644531 1 63 L 1 9 C 1 4.588788032531738 4.588788032531738 1 9 1 L 76 1 C 80.41120910644531 1 84 4.588788032531738 84 9 L 84 63 C 84 67.41120910644531 80.41120910644531 71 76 71 Z" stroke="none"/>
      <path d="M 9 2 C 5.140190124511719 2 2 5.140190124511719 2 9 L 2 63 C 2 66.85980987548828 5.140190124511719 70 9 70 L 76 70 C 79.85980987548828 70 83 66.85980987548828 83 63 L 83 9 C 83 5.140190124511719 79.85980987548828 2 76 2 L 9 2 M 9 0 L 76 0 C 80.97056579589844 0 85 4.029434204101562 85 9 L 85 63 C 85 67.97056579589844 80.97056579589844 72 76 72 L 9 72 C 4.029434204101562 72 0 67.97056579589844 0 63 L 0 9 C 0 4.029434204101562 4.029434204101562 0 9 0 Z" stroke="none" fill="#727997"/>
    </g>
    <g id="Trazado_218571" data-name="Trazado 218571" transform="translate(1312.338 3657)" fill="#ffeeb9">
      <path d="M 76 71 L 9 71 C 4.588788032531738 71 1 67.41120910644531 1 63 L 1 9 C 1 4.588788032531738 4.588788032531738 1 9 1 L 76 1 C 80.41120910644531 1 84 4.588788032531738 84 9 L 84 63 C 84 67.41120910644531 80.41120910644531 71 76 71 Z" stroke="none"/>
      <path d="M 9 2 C 5.140190124511719 2 2 5.140190124511719 2 9 L 2 63 C 2 66.85980987548828 5.140190124511719 70 9 70 L 76 70 C 79.85980987548828 70 83 66.85980987548828 83 63 L 83 9 C 83 5.140190124511719 79.85980987548828 2 76 2 L 9 2 M 9 0 L 76 0 C 80.97056579589844 0 85 4.029434204101562 85 9 L 85 63 C 85 67.97056579589844 80.97056579589844 72 76 72 L 9 72 C 4.029434204101562 72 0 67.97056579589844 0 63 L 0 9 C 0 4.029434204101562 4.029434204101562 0 9 0 Z" stroke="none" fill="#727997"/>
    </g>
    <g id="Trazado_218590" data-name="Trazado 218590" transform="translate(814.338 3561)" fill="#d8faff">
      <path d="M 92 71 L 9 71 C 4.588786602020264 71 1 67.41121673583984 1 63 L 1 9 C 1 4.588786602020264 4.588786602020264 1 9 1 L 92 1 C 96.41121673583984 1 100 4.588786602020264 100 9 L 100 63 C 100 67.41121673583984 96.41121673583984 71 92 71 Z" stroke="none"/>
      <path d="M 9 2 C 5.140182495117188 2 2 5.140182495117188 2 9 L 2 63 C 2 66.85981750488281 5.140182495117188 70 9 70 L 92 70 C 95.85981750488281 70 99 66.85981750488281 99 63 L 99 9 C 99 5.140182495117188 95.85981750488281 2 92 2 L 9 2 M 9 0 L 92 0 C 96.97055816650391 0 101 4.029426574707031 101 9 L 101 63 C 101 67.97055816650391 96.97055816650391 72 92 72 L 9 72 C 4.029426574707031 72 0 67.97055816650391 0 63 L 0 9 C 0 4.029426574707031 4.029426574707031 0 9 0 Z" stroke="none" fill="#727997"/>
    </g>
    <g id="Trazado_218572" data-name="Trazado 218572" transform="translate(1254.338 3561)" fill="#69ceff">
      <path d="M 92 71 L 9 71 C 4.588786602020264 71 1 67.41121673583984 1 63 L 1 9 C 1 4.588786602020264 4.588786602020264 1 9 1 L 92 1 C 96.41121673583984 1 100 4.588786602020264 100 9 L 100 63 C 100 67.41121673583984 96.41121673583984 71 92 71 Z" stroke="none"/>
      <path d="M 9 2 C 5.140182495117188 2 2 5.140182495117188 2 9 L 2 63 C 2 66.85981750488281 5.140182495117188 70 9 70 L 92 70 C 95.85981750488281 70 99 66.85981750488281 99 63 L 99 9 C 99 5.140182495117188 95.85981750488281 2 92 2 L 9 2 M 9 0 L 92 0 C 96.97055816650391 0 101 4.029426574707031 101 9 L 101 63 C 101 67.97055816650391 96.97055816650391 72 92 72 L 9 72 C 4.029426574707031 72 0 67.97055816650391 0 63 L 0 9 C 0 4.029426574707031 4.029426574707031 0 9 0 Z" stroke="none" fill="#727997"/>
    </g>
    <path id="Trazado_218593" data-name="Trazado 218593" d="M22.77,11.969l4.891,1.977v1.531L21.27,12.516V11.375L27.66,8.422V9.953Zm8.133,0,4.891,1.977v1.531L29.4,12.516V11.375l6.391-2.953V9.953ZM39.9,17H38.4V5.625h1.5Zm3.883-8.453.047,1.063a3.08,3.08,0,0,1,2.531-1.219q2.68,0,2.7,3.023V17H47.621V11.406a1.946,1.946,0,0,0-.418-1.352,1.675,1.675,0,0,0-1.277-.437,2.086,2.086,0,0,0-1.234.375,2.546,2.546,0,0,0-.828.984V17H42.418V8.547ZM53.207,6.5V8.547h1.578V9.664H53.207v5.249a1.173,1.173,0,0,0,.211.763.888.888,0,0,0,.719.254,3.5,3.5,0,0,0,.688-.094V17a4.215,4.215,0,0,1-1.109.155,1.8,1.8,0,0,1-1.461-.586,2.517,2.517,0,0,1-.492-1.664V9.664H50.223V8.547h1.539V6.5ZM59.98,17.156a3.693,3.693,0,0,1-2.8-1.129,4.19,4.19,0,0,1-1.078-3.02v-.266a5.073,5.073,0,0,1,.48-2.246A3.748,3.748,0,0,1,57.93,8.949,3.378,3.378,0,0,1,59.8,8.391a3.166,3.166,0,0,1,2.563,1.086,4.7,4.7,0,0,1,.914,3.109v.6H57.551a3,3,0,0,0,.73,2.02,2.3,2.3,0,0,0,1.777.77,2.517,2.517,0,0,0,1.3-.312,3.259,3.259,0,0,0,.93-.828l.883.688A3.55,3.55,0,0,1,59.98,17.156ZM59.8,9.578a1.928,1.928,0,0,0-1.469.637A3.1,3.1,0,0,0,57.6,12h4.234v-.109a2.753,2.753,0,0,0-.594-1.707A1.815,1.815,0,0,0,59.8,9.578Zm9.234.266a4.331,4.331,0,0,0-.711-.055A1.9,1.9,0,0,0,66.395,11v6H64.949V8.547h1.406l.023.977a2.251,2.251,0,0,1,2.016-1.133,1.477,1.477,0,0,1,.641.109ZM71.191,17V9.664H69.855V8.547h1.336V7.68a2.878,2.878,0,0,1,.727-2.1,2.745,2.745,0,0,1,2.055-.742,3.816,3.816,0,0,1,.992.132l-.078,1.165a4.151,4.151,0,0,0-.781-.07,1.41,1.41,0,0,0-1.086.411,1.669,1.669,0,0,0-.383,1.18v.893h1.8V9.664h-1.8V17Zm10.063,0a3.036,3.036,0,0,1-.2-.891,3.225,3.225,0,0,1-2.406,1.047,2.984,2.984,0,0,1-2.051-.707,2.288,2.288,0,0,1-.8-1.793,2.39,2.39,0,0,1,1-2.051,4.733,4.733,0,0,1,2.824-.73h1.406v-.664A1.623,1.623,0,0,0,80.574,10a1.821,1.821,0,0,0-1.336-.449,2.108,2.108,0,0,0-1.3.391,1.151,1.151,0,0,0-.523.945H75.965a2,2,0,0,1,.449-1.223,3.066,3.066,0,0,1,1.219-.934,4.1,4.1,0,0,1,1.691-.344,3.342,3.342,0,0,1,2.289.73,2.635,2.635,0,0,1,.859,2.012v3.891a4.757,4.757,0,0,0,.3,1.852V17Zm-2.4-1.1a2.54,2.54,0,0,0,1.289-.352,2.127,2.127,0,0,0,.883-.914V12.9H79.895q-2.656,0-2.656,1.555a1.316,1.316,0,0,0,.453,1.063A1.742,1.742,0,0,0,78.855,15.9ZM86.1,15.82h4.945V17H84.332V15.938L89,9.742H84.4v-1.2h6.406V9.57Zm11.688-3.9L92.621,9.9V8.414l6.672,2.953v1.141l-6.672,2.961v-1.5Zm8.359,0L100.98,9.9V8.414l6.672,2.953v1.141l-6.672,2.961v-1.5ZM4.3,35H2.8V23.625H4.3Zm9.016-5.023H8.547V35h-1.5V23.625h7.047v1.227H8.547v3.9H13.32ZM20.883,35a3.036,3.036,0,0,1-.2-.891,3.225,3.225,0,0,1-2.406,1.047,2.984,2.984,0,0,1-2.051-.707,2.287,2.287,0,0,1-.8-1.793,2.39,2.39,0,0,1,1-2.051,4.733,4.733,0,0,1,2.824-.73h1.406v-.664A1.623,1.623,0,0,0,20.2,28a1.821,1.821,0,0,0-1.336-.449,2.108,2.108,0,0,0-1.3.391,1.151,1.151,0,0,0-.523.945H15.594a2,2,0,0,1,.449-1.223,3.066,3.066,0,0,1,1.219-.934,4.1,4.1,0,0,1,1.691-.344,3.342,3.342,0,0,1,2.289.73,2.635,2.635,0,0,1,.859,2.012v3.891a4.757,4.757,0,0,0,.3,1.852V35Zm-2.4-1.1a2.54,2.54,0,0,0,1.289-.352,2.127,2.127,0,0,0,.883-.914V30.9H19.523q-2.656,0-2.656,1.555a1.316,1.316,0,0,0,.453,1.063A1.742,1.742,0,0,0,18.484,33.9ZM19.82,23h1.75l-2.094,2.3-1.164,0Zm11.7,7.867a5.026,5.026,0,0,1-.891,3.113,2.846,2.846,0,0,1-2.391,1.176,2.947,2.947,0,0,1-2.477-1.133L25.7,35H24.367V23h1.445v4.477a2.93,2.93,0,0,1,2.414-1.086,2.863,2.863,0,0,1,2.418,1.164,5.177,5.177,0,0,1,.879,3.188ZM30.078,30.7a3.906,3.906,0,0,0-.57-2.281,1.888,1.888,0,0,0-1.641-.8,2.122,2.122,0,0,0-2.055,1.328V32.6a2.181,2.181,0,0,0,2.07,1.328,1.878,1.878,0,0,0,1.617-.8A4.153,4.153,0,0,0,30.078,30.7Zm7.352-2.859a4.331,4.331,0,0,0-.711-.055A1.9,1.9,0,0,0,34.789,29v6H33.344V26.547H34.75l.023.977a2.251,2.251,0,0,1,2.016-1.133,1.477,1.477,0,0,1,.641.109ZM40.328,35H38.883V26.547h1.445ZM38.766,24.3a.863.863,0,0,1,.215-.594.807.807,0,0,1,.637-.242.819.819,0,0,1,.641.242.854.854,0,0,1,.219.594.826.826,0,0,1-.219.586.834.834,0,0,1-.641.234.821.821,0,0,1-.637-.234A.834.834,0,0,1,38.766,24.3Zm7.266,9.672a2.082,2.082,0,0,0,1.352-.469,1.649,1.649,0,0,0,.641-1.172h1.367a2.621,2.621,0,0,1-.5,1.383,3.293,3.293,0,0,1-1.23,1.047,3.55,3.55,0,0,1-1.629.391A3.482,3.482,0,0,1,43.285,34a4.59,4.59,0,0,1-1.02-3.152v-.242a5.089,5.089,0,0,1,.453-2.2,3.451,3.451,0,0,1,1.3-1.492,3.7,3.7,0,0,1,2-.531,3.39,3.39,0,0,1,2.363.852,3.043,3.043,0,0,1,1,2.211H48.023a1.992,1.992,0,0,0-.621-1.348,1.932,1.932,0,0,0-1.379-.527,2.023,2.023,0,0,0-1.707.793,3.724,3.724,0,0,0-.605,2.293v.273a3.65,3.65,0,0,0,.6,2.25A2.033,2.033,0,0,0,46.031,33.977ZM56.234,35a3.036,3.036,0,0,1-.2-.891,3.225,3.225,0,0,1-2.406,1.047,2.984,2.984,0,0,1-2.051-.707,2.287,2.287,0,0,1-.8-1.793,2.39,2.39,0,0,1,1-2.051,4.733,4.733,0,0,1,2.824-.73h1.406v-.664A1.623,1.623,0,0,0,55.555,28a1.821,1.821,0,0,0-1.336-.449,2.107,2.107,0,0,0-1.3.391,1.151,1.151,0,0,0-.523.945H50.945a2,2,0,0,1,.449-1.223,3.066,3.066,0,0,1,1.219-.934,4.1,4.1,0,0,1,1.691-.344,3.342,3.342,0,0,1,2.289.73,2.635,2.635,0,0,1,.859,2.012v3.891a4.757,4.757,0,0,0,.3,1.852V35Zm-2.4-1.1a2.54,2.54,0,0,0,1.289-.352,2.127,2.127,0,0,0,.883-.914V30.9H54.875q-2.656,0-2.656,1.555a1.316,1.316,0,0,0,.453,1.063A1.742,1.742,0,0,0,53.836,33.9Zm12.391-1.875H61.461L60.391,35H58.844l4.344-11.375H64.5L68.852,35H67.313ZM61.914,30.8h3.867l-1.937-5.32Zm15.4.07a5.026,5.026,0,0,1-.891,3.113,2.846,2.846,0,0,1-2.391,1.176,2.947,2.947,0,0,1-2.477-1.133l-.07.977H70.156V23H71.6v4.477a2.93,2.93,0,0,1,2.414-1.086,2.863,2.863,0,0,1,2.418,1.164,5.177,5.177,0,0,1,.879,3.188ZM75.867,30.7a3.906,3.906,0,0,0-.57-2.281,1.888,1.888,0,0,0-1.641-.8A2.122,2.122,0,0,0,71.6,28.945V32.6a2.181,2.181,0,0,0,2.07,1.328,1.878,1.878,0,0,0,1.617-.8A4.153,4.153,0,0,0,75.867,30.7Zm8.188,2.055a1.064,1.064,0,0,0-.441-.91,4.249,4.249,0,0,0-1.539-.559,7.277,7.277,0,0,1-1.742-.562,2.478,2.478,0,0,1-.953-.781,1.869,1.869,0,0,1-.309-1.078,2.193,2.193,0,0,1,.879-1.758,3.432,3.432,0,0,1,2.246-.719,3.532,3.532,0,0,1,2.332.742,2.357,2.357,0,0,1,.895,1.9H83.969a1.3,1.3,0,0,0-.5-1.023,1.888,1.888,0,0,0-1.27-.43,1.976,1.976,0,0,0-1.234.344,1.082,1.082,0,0,0-.445.9.877.877,0,0,0,.414.789,5.1,5.1,0,0,0,1.5.508,7.8,7.8,0,0,1,1.754.578,2.558,2.558,0,0,1,1,.809,1.988,1.988,0,0,1,.324,1.152,2.163,2.163,0,0,1-.906,1.816,3.8,3.8,0,0,1-2.352.684,4.257,4.257,0,0,1-1.8-.359,2.922,2.922,0,0,1-1.223-1,2.42,2.42,0,0,1-.441-1.395h1.445a1.5,1.5,0,0,0,.582,1.152,2.258,2.258,0,0,0,1.434.426,2.331,2.331,0,0,0,1.316-.332A1.02,1.02,0,0,0,84.055,32.758ZM89.344,24.5v2.047h1.578v1.117H89.344v5.249a1.173,1.173,0,0,0,.211.763.888.888,0,0,0,.719.254,3.5,3.5,0,0,0,.688-.094V35a4.215,4.215,0,0,1-1.109.155,1.8,1.8,0,0,1-1.461-.586,2.517,2.517,0,0,1-.492-1.664V27.664H86.359V26.547H87.9V24.5ZM96.7,27.844a4.331,4.331,0,0,0-.711-.055A1.9,1.9,0,0,0,94.055,29v6H92.609V26.547h1.406l.023.977a2.251,2.251,0,0,1,2.016-1.133,1.477,1.477,0,0,1,.641.109ZM102.93,35a3.036,3.036,0,0,1-.2-.891,3.225,3.225,0,0,1-2.406,1.047,2.984,2.984,0,0,1-2.051-.707,2.288,2.288,0,0,1-.8-1.793,2.39,2.39,0,0,1,1-2.051,4.733,4.733,0,0,1,2.824-.73H102.7v-.664A1.623,1.623,0,0,0,102.25,28a1.821,1.821,0,0,0-1.336-.449,2.108,2.108,0,0,0-1.3.391,1.151,1.151,0,0,0-.523.945H97.641a2,2,0,0,1,.449-1.223,3.066,3.066,0,0,1,1.219-.934A4.1,4.1,0,0,1,101,26.391a3.342,3.342,0,0,1,2.289.73,2.635,2.635,0,0,1,.859,2.012v3.891a4.757,4.757,0,0,0,.3,1.852V35Zm-2.4-1.1a2.54,2.54,0,0,0,1.289-.352,2.127,2.127,0,0,0,.883-.914V30.9H101.57q-2.656,0-2.656,1.555a1.316,1.316,0,0,0,.453,1.063A1.742,1.742,0,0,0,100.531,33.9Zm9.273.078a2.082,2.082,0,0,0,1.352-.469,1.649,1.649,0,0,0,.641-1.172h1.367a2.621,2.621,0,0,1-.5,1.383,3.293,3.293,0,0,1-1.23,1.047,3.55,3.55,0,0,1-1.629.391A3.482,3.482,0,0,1,107.059,34a4.59,4.59,0,0,1-1.02-3.152v-.242a5.089,5.089,0,0,1,.453-2.2,3.451,3.451,0,0,1,1.3-1.492,3.7,3.7,0,0,1,2-.531,3.39,3.39,0,0,1,2.363.852,3.043,3.043,0,0,1,1,2.211H111.8a1.992,1.992,0,0,0-.621-1.348,1.932,1.932,0,0,0-1.379-.527,2.023,2.023,0,0,0-1.707.793,3.724,3.724,0,0,0-.605,2.293v.273a3.65,3.65,0,0,0,.6,2.25A2.033,2.033,0,0,0,109.8,33.977ZM116.75,24.5v2.047h1.578v1.117H116.75v5.249a1.173,1.173,0,0,0,.211.763.888.888,0,0,0,.719.254,3.5,3.5,0,0,0,.688-.094V35a4.215,4.215,0,0,1-1.109.155,1.8,1.8,0,0,1-1.461-.586,2.517,2.517,0,0,1-.492-1.664V27.664h-1.539V26.547H115.3V24.5ZM125.234,35a3.036,3.036,0,0,1-.2-.891,3.225,3.225,0,0,1-2.406,1.047,2.984,2.984,0,0,1-2.051-.707,2.288,2.288,0,0,1-.8-1.793,2.39,2.39,0,0,1,1-2.051,4.733,4.733,0,0,1,2.824-.73h1.406v-.664A1.623,1.623,0,0,0,124.555,28a1.821,1.821,0,0,0-1.336-.449,2.108,2.108,0,0,0-1.3.391,1.151,1.151,0,0,0-.523.945h-1.453a2,2,0,0,1,.449-1.223,3.066,3.066,0,0,1,1.219-.934,4.1,4.1,0,0,1,1.691-.344,3.342,3.342,0,0,1,2.289.73,2.635,2.635,0,0,1,.859,2.012v3.891a4.757,4.757,0,0,0,.3,1.852V35Zm-2.4-1.1a2.54,2.54,0,0,0,1.289-.352,2.127,2.127,0,0,0,.883-.914V30.9h-1.133q-2.656,0-2.656,1.555a1.316,1.316,0,0,0,.453,1.063A1.742,1.742,0,0,0,122.836,33.9Z" transform="translate(745.338 3466)" fill="#12263f"/>
    <path id="Trazado_218577" data-name="Trazado 218577" d="M49.594,13.391a4.185,4.185,0,0,1-1.332,2.785,4.365,4.365,0,0,1-2.98.98,4.008,4.008,0,0,1-3.23-1.445,5.815,5.815,0,0,1-1.215-3.867V10.75A6.481,6.481,0,0,1,41.4,7.961a4.231,4.231,0,0,1,1.605-1.848,4.47,4.47,0,0,1,2.406-.645A4.11,4.11,0,0,1,48.32,6.48a4.235,4.235,0,0,1,1.273,2.8H48.086a3.268,3.268,0,0,0-.848-1.975A2.565,2.565,0,0,0,45.414,6.7,2.684,2.684,0,0,0,43.16,7.759a4.882,4.882,0,0,0-.816,3.026v1.1a5.018,5.018,0,0,0,.773,2.948,2.5,2.5,0,0,0,2.164,1.095,2.887,2.887,0,0,0,1.918-.566,3.143,3.143,0,0,0,.887-1.973ZM52.984,17H51.539V5h1.445Zm3.883,0H55.422V8.547h1.445ZM55.3,6.3a.863.863,0,0,1,.215-.594.807.807,0,0,1,.637-.242.819.819,0,0,1,.641.242.854.854,0,0,1,.219.594.826.826,0,0,1-.219.586.834.834,0,0,1-.641.234.821.821,0,0,1-.637-.234A.834.834,0,0,1,55.3,6.3Zm7.383,10.852a3.693,3.693,0,0,1-2.8-1.129,4.19,4.19,0,0,1-1.078-3.02v-.266a5.073,5.073,0,0,1,.48-2.246,3.748,3.748,0,0,1,1.344-1.547,3.378,3.378,0,0,1,1.871-.559A3.166,3.166,0,0,1,65.07,9.477a4.7,4.7,0,0,1,.914,3.109v.6H60.258a3,3,0,0,0,.73,2.02,2.3,2.3,0,0,0,1.777.77,2.517,2.517,0,0,0,1.3-.312,3.259,3.259,0,0,0,.93-.828l.883.688A3.55,3.55,0,0,1,62.688,17.156Zm-.18-7.578a1.928,1.928,0,0,0-1.469.637A3.1,3.1,0,0,0,60.3,12h4.234v-.109a2.753,2.753,0,0,0-.594-1.707A1.815,1.815,0,0,0,62.508,9.578Zm6.516-1.031.047,1.063A3.08,3.08,0,0,1,71.6,8.391q2.68,0,2.7,3.023V17H72.859V11.406a1.946,1.946,0,0,0-.418-1.352,1.675,1.675,0,0,0-1.277-.437,2.086,2.086,0,0,0-1.234.375,2.546,2.546,0,0,0-.828.984V17H67.656V8.547ZM78.445,6.5V8.547h1.578V9.664H78.445v5.249a1.173,1.173,0,0,0,.211.763.888.888,0,0,0,.719.254,3.5,3.5,0,0,0,.688-.094V17a4.215,4.215,0,0,1-1.109.155,1.8,1.8,0,0,1-1.461-.586A2.517,2.517,0,0,1,77,14.906V9.664H75.461V8.547H77V6.5Zm6.773,10.656a3.693,3.693,0,0,1-2.8-1.129,4.19,4.19,0,0,1-1.078-3.02v-.266a5.073,5.073,0,0,1,.48-2.246,3.748,3.748,0,0,1,1.344-1.547,3.378,3.378,0,0,1,1.871-.559A3.166,3.166,0,0,1,87.6,9.477a4.7,4.7,0,0,1,.914,3.109v.6H82.789a3,3,0,0,0,.73,2.02,2.3,2.3,0,0,0,1.777.77,2.517,2.517,0,0,0,1.3-.312,3.259,3.259,0,0,0,.93-.828l.883.688A3.55,3.55,0,0,1,85.219,17.156Zm-.18-7.578a1.928,1.928,0,0,0-1.469.637A3.1,3.1,0,0,0,82.836,12H87.07v-.109a2.753,2.753,0,0,0-.594-1.707A1.815,1.815,0,0,0,85.039,9.578Z" transform="translate(1148.338 3475)" fill="#12263f"/>
    <path id="Trazado_218595" data-name="Trazado 218595" d="M31.645,11.977H26.871V17h-1.5V5.625h7.047V6.852H26.871v3.9h4.773ZM39.207,17a3.036,3.036,0,0,1-.2-.891A3.225,3.225,0,0,1,36.6,17.156a2.984,2.984,0,0,1-2.051-.707,2.287,2.287,0,0,1-.8-1.793,2.39,2.39,0,0,1,1-2.051,4.733,4.733,0,0,1,2.824-.73H38.98v-.664A1.623,1.623,0,0,0,38.527,10a1.821,1.821,0,0,0-1.336-.449,2.107,2.107,0,0,0-1.3.391,1.151,1.151,0,0,0-.523.945H33.918a2,2,0,0,1,.449-1.223,3.066,3.066,0,0,1,1.219-.934,4.1,4.1,0,0,1,1.691-.344,3.342,3.342,0,0,1,2.289.73,2.635,2.635,0,0,1,.859,2.012v3.891a4.757,4.757,0,0,0,.3,1.852V17Zm-2.4-1.1a2.54,2.54,0,0,0,1.289-.352,2.127,2.127,0,0,0,.883-.914V12.9H37.848q-2.656,0-2.656,1.555a1.316,1.316,0,0,0,.453,1.063A1.742,1.742,0,0,0,36.809,15.9ZM38.145,5h1.75L37.8,7.3l-1.164,0Zm11.7,7.867a5.026,5.026,0,0,1-.891,3.113,2.846,2.846,0,0,1-2.391,1.176,2.947,2.947,0,0,1-2.477-1.133L44.02,17H42.691V5h1.445V9.477a2.93,2.93,0,0,1,2.414-1.086,2.863,2.863,0,0,1,2.418,1.164,5.177,5.177,0,0,1,.879,3.188ZM48.4,12.7a3.906,3.906,0,0,0-.57-2.281,1.888,1.888,0,0,0-1.641-.8,2.122,2.122,0,0,0-2.055,1.328V14.6a2.181,2.181,0,0,0,2.07,1.328,1.878,1.878,0,0,0,1.617-.8A4.153,4.153,0,0,0,48.4,12.7Zm7.352-2.859a4.331,4.331,0,0,0-.711-.055A1.9,1.9,0,0,0,53.113,11v6H51.668V8.547h1.406l.023.977a2.251,2.251,0,0,1,2.016-1.133,1.477,1.477,0,0,1,.641.109ZM58.652,17H57.207V8.547h1.445ZM57.09,6.3a.863.863,0,0,1,.215-.594.807.807,0,0,1,.637-.242.819.819,0,0,1,.641.242A.854.854,0,0,1,58.8,6.3a.826.826,0,0,1-.219.586.834.834,0,0,1-.641.234.821.821,0,0,1-.637-.234A.834.834,0,0,1,57.09,6.3Zm7.266,9.672a2.082,2.082,0,0,0,1.352-.469,1.649,1.649,0,0,0,.641-1.172h1.367a2.621,2.621,0,0,1-.5,1.383,3.293,3.293,0,0,1-1.23,1.047,3.55,3.55,0,0,1-1.629.391A3.482,3.482,0,0,1,61.609,16a4.59,4.59,0,0,1-1.02-3.152v-.242a5.089,5.089,0,0,1,.453-2.2,3.451,3.451,0,0,1,1.3-1.492,3.7,3.7,0,0,1,2-.531,3.39,3.39,0,0,1,2.363.852,3.043,3.043,0,0,1,1,2.211H66.348a1.992,1.992,0,0,0-.621-1.348,1.932,1.932,0,0,0-1.379-.527,2.023,2.023,0,0,0-1.707.793,3.724,3.724,0,0,0-.605,2.293v.273a3.65,3.65,0,0,0,.6,2.25A2.033,2.033,0,0,0,64.355,15.977ZM74.559,17a3.036,3.036,0,0,1-.2-.891,3.225,3.225,0,0,1-2.406,1.047,2.984,2.984,0,0,1-2.051-.707,2.288,2.288,0,0,1-.8-1.793,2.39,2.39,0,0,1,1-2.051,4.733,4.733,0,0,1,2.824-.73h1.406v-.664A1.623,1.623,0,0,0,73.879,10a1.821,1.821,0,0,0-1.336-.449,2.108,2.108,0,0,0-1.3.391,1.151,1.151,0,0,0-.523.945H69.27a2,2,0,0,1,.449-1.223,3.066,3.066,0,0,1,1.219-.934,4.1,4.1,0,0,1,1.691-.344,3.342,3.342,0,0,1,2.289.73,2.635,2.635,0,0,1,.859,2.012v3.891a4.757,4.757,0,0,0,.3,1.852V17Zm-2.4-1.1a2.54,2.54,0,0,0,1.289-.352,2.127,2.127,0,0,0,.883-.914V12.9H73.2q-2.656,0-2.656,1.555A1.316,1.316,0,0,0,71,15.516,1.742,1.742,0,0,0,72.16,15.9ZM21.434,33.391A4.185,4.185,0,0,1,20.1,36.176a4.365,4.365,0,0,1-2.98.98,4.008,4.008,0,0,1-3.23-1.445,5.815,5.815,0,0,1-1.215-3.867V30.75a6.481,6.481,0,0,1,.566-2.789,4.231,4.231,0,0,1,1.605-1.848,4.47,4.47,0,0,1,2.406-.645A4.11,4.11,0,0,1,20.16,26.48a4.235,4.235,0,0,1,1.273,2.8H19.926a3.268,3.268,0,0,0-.848-1.975,2.565,2.565,0,0,0-1.824-.611A2.684,2.684,0,0,0,15,27.759a4.882,4.882,0,0,0-.816,3.026v1.1a5.018,5.018,0,0,0,.773,2.948,2.5,2.5,0,0,0,2.164,1.095,2.886,2.886,0,0,0,1.918-.566,3.143,3.143,0,0,0,.887-1.973Zm1.438-.7a4.993,4.993,0,0,1,.488-2.234,3.643,3.643,0,0,1,1.359-1.531,3.7,3.7,0,0,1,1.988-.539,3.565,3.565,0,0,1,2.793,1.2,4.6,4.6,0,0,1,1.066,3.18v.1a5.036,5.036,0,0,1-.473,2.215,3.589,3.589,0,0,1-1.352,1.527,3.743,3.743,0,0,1-2.02.547,3.556,3.556,0,0,1-2.785-1.2A4.575,4.575,0,0,1,22.871,32.8Zm1.453.172a3.616,3.616,0,0,0,.652,2.258,2.211,2.211,0,0,0,3.5-.012,3.955,3.955,0,0,0,.648-2.418,3.61,3.61,0,0,0-.66-2.254,2.1,2.1,0,0,0-1.754-.863,2.075,2.075,0,0,0-1.727.852A3.925,3.925,0,0,0,24.324,32.867Zm9.422-4.32.047,1.063a3.08,3.08,0,0,1,2.531-1.219q2.68,0,2.7,3.023V37H37.582V31.406a1.946,1.946,0,0,0-.418-1.352,1.675,1.675,0,0,0-1.277-.437,2.086,2.086,0,0,0-1.234.375,2.546,2.546,0,0,0-.828.984V37H32.379V28.547ZM44.6,35.977a2.082,2.082,0,0,0,1.352-.469,1.649,1.649,0,0,0,.641-1.172h1.367a2.621,2.621,0,0,1-.5,1.383,3.293,3.293,0,0,1-1.23,1.047,3.55,3.55,0,0,1-1.629.391A3.482,3.482,0,0,1,41.852,36a4.59,4.59,0,0,1-1.02-3.152v-.242a5.089,5.089,0,0,1,.453-2.2,3.451,3.451,0,0,1,1.3-1.492,3.7,3.7,0,0,1,2-.531,3.39,3.39,0,0,1,2.363.852,3.043,3.043,0,0,1,1,2.211H46.59a1.992,1.992,0,0,0-.621-1.348,1.932,1.932,0,0,0-1.379-.527,2.023,2.023,0,0,0-1.707.793,3.724,3.724,0,0,0-.605,2.293v.273a3.65,3.65,0,0,0,.6,2.25A2.033,2.033,0,0,0,44.6,35.977Zm9.07-6.133a4.331,4.331,0,0,0-.711-.055A1.9,1.9,0,0,0,51.027,31v6H49.582V28.547h1.406l.023.977a2.251,2.251,0,0,1,2.016-1.133,1.477,1.477,0,0,1,.641.109ZM58.5,37.156a3.693,3.693,0,0,1-2.8-1.129,4.19,4.19,0,0,1-1.078-3.02v-.266a5.073,5.073,0,0,1,.48-2.246,3.748,3.748,0,0,1,1.344-1.547,3.378,3.378,0,0,1,1.871-.559,3.166,3.166,0,0,1,2.563,1.086,4.7,4.7,0,0,1,.914,3.109v.6H56.074a3,3,0,0,0,.73,2.02,2.3,2.3,0,0,0,1.777.77,2.517,2.517,0,0,0,1.3-.312,3.258,3.258,0,0,0,.93-.828l.883.688A3.55,3.55,0,0,1,58.5,37.156Zm-.18-7.578a1.928,1.928,0,0,0-1.469.637A3.1,3.1,0,0,0,56.121,32h4.234v-.109a2.753,2.753,0,0,0-.594-1.707A1.815,1.815,0,0,0,58.324,29.578ZM65.434,26.5v2.047h1.578v1.117H65.434v5.249a1.173,1.173,0,0,0,.211.763.888.888,0,0,0,.719.254,3.5,3.5,0,0,0,.688-.094V37a4.215,4.215,0,0,1-1.109.155,1.8,1.8,0,0,1-1.461-.586,2.517,2.517,0,0,1-.492-1.664V29.664H62.449V28.547h1.539V26.5ZM73.918,37a3.036,3.036,0,0,1-.2-.891,3.225,3.225,0,0,1-2.406,1.047,2.984,2.984,0,0,1-2.051-.707,2.288,2.288,0,0,1-.8-1.793,2.39,2.39,0,0,1,1-2.051,4.733,4.733,0,0,1,2.824-.73h1.406v-.664A1.623,1.623,0,0,0,73.238,30a1.821,1.821,0,0,0-1.336-.449,2.108,2.108,0,0,0-1.3.391,1.151,1.151,0,0,0-.523.945H68.629a2,2,0,0,1,.449-1.223,3.066,3.066,0,0,1,1.219-.934,4.1,4.1,0,0,1,1.691-.344,3.342,3.342,0,0,1,2.289.73,2.635,2.635,0,0,1,.859,2.012v3.891a4.757,4.757,0,0,0,.3,1.852V37Zm-2.4-1.1a2.54,2.54,0,0,0,1.289-.352,2.127,2.127,0,0,0,.883-.914V32.9H72.559q-2.656,0-2.656,1.555a1.316,1.316,0,0,0,.453,1.063A1.742,1.742,0,0,0,71.52,35.9ZM85.965,37H84.512V27.367L81.6,28.438V27.125l4.141-1.555h.227Z" transform="translate(698.338 3578)" fill="#12263f"/>
    <path id="Trazado_218582" data-name="Trazado 218582" d="M8.77,11.969l4.891,1.977v1.531L7.27,12.516V11.375L13.66,8.422V9.953Zm8.133,0,4.891,1.977v1.531L15.4,12.516V11.375l6.391-2.953V9.953ZM25.9,17H24.4V5.625h1.5Zm3.883-8.453.047,1.063a3.08,3.08,0,0,1,2.531-1.219q2.68,0,2.7,3.023V17H33.621V11.406a1.946,1.946,0,0,0-.418-1.352,1.675,1.675,0,0,0-1.277-.437,2.086,2.086,0,0,0-1.234.375,2.546,2.546,0,0,0-.828.984V17H28.418V8.547ZM39.207,6.5V8.547h1.578V9.664H39.207v5.249a1.173,1.173,0,0,0,.211.763.888.888,0,0,0,.719.254,3.5,3.5,0,0,0,.688-.094V17a4.215,4.215,0,0,1-1.109.155,1.8,1.8,0,0,1-1.461-.586,2.517,2.517,0,0,1-.492-1.664V9.664H36.223V8.547h1.539V6.5ZM45.98,17.156a3.693,3.693,0,0,1-2.8-1.129,4.19,4.19,0,0,1-1.078-3.02v-.266a5.073,5.073,0,0,1,.48-2.246A3.748,3.748,0,0,1,43.93,8.949,3.378,3.378,0,0,1,45.8,8.391a3.166,3.166,0,0,1,2.563,1.086,4.7,4.7,0,0,1,.914,3.109v.6H43.551a3,3,0,0,0,.73,2.02,2.3,2.3,0,0,0,1.777.77,2.517,2.517,0,0,0,1.3-.312,3.259,3.259,0,0,0,.93-.828l.883.688A3.55,3.55,0,0,1,45.98,17.156ZM45.8,9.578a1.928,1.928,0,0,0-1.469.637A3.1,3.1,0,0,0,43.6,12h4.234v-.109a2.753,2.753,0,0,0-.594-1.707A1.815,1.815,0,0,0,45.8,9.578Zm9.234.266a4.331,4.331,0,0,0-.711-.055A1.9,1.9,0,0,0,52.395,11v6H50.949V8.547h1.406l.023.977a2.251,2.251,0,0,1,2.016-1.133,1.477,1.477,0,0,1,.641.109ZM57.191,17V9.664H55.855V8.547h1.336V7.68a2.878,2.878,0,0,1,.727-2.1,2.745,2.745,0,0,1,2.055-.742,3.816,3.816,0,0,1,.992.132l-.078,1.165a4.151,4.151,0,0,0-.781-.07,1.41,1.41,0,0,0-1.086.411,1.669,1.669,0,0,0-.383,1.18v.893h1.8V9.664h-1.8V17Zm10.063,0a3.036,3.036,0,0,1-.2-.891,3.225,3.225,0,0,1-2.406,1.047,2.984,2.984,0,0,1-2.051-.707,2.287,2.287,0,0,1-.8-1.793,2.39,2.39,0,0,1,1-2.051,4.733,4.733,0,0,1,2.824-.73h1.406v-.664A1.623,1.623,0,0,0,66.574,10a1.821,1.821,0,0,0-1.336-.449,2.108,2.108,0,0,0-1.3.391,1.151,1.151,0,0,0-.523.945H61.965a2,2,0,0,1,.449-1.223,3.066,3.066,0,0,1,1.219-.934,4.1,4.1,0,0,1,1.691-.344,3.342,3.342,0,0,1,2.289.73,2.635,2.635,0,0,1,.859,2.012v3.891a4.757,4.757,0,0,0,.3,1.852V17Zm-2.4-1.1a2.54,2.54,0,0,0,1.289-.352,2.127,2.127,0,0,0,.883-.914V12.9H65.895q-2.656,0-2.656,1.555a1.316,1.316,0,0,0,.453,1.063A1.742,1.742,0,0,0,64.855,15.9ZM72.1,15.82h4.945V17H70.332V15.938L75,9.742H70.4v-1.2h6.406V9.57Zm11.688-3.9L78.621,9.9V8.414l6.672,2.953v1.141l-6.672,2.961v-1.5Zm8.359,0L86.98,9.9V8.414l6.672,2.953v1.141L86.98,15.469v-1.5ZM4.977,37h-1.5V25.625h1.5Zm4.242-4.453V37h-1.5V25.625h4.2a4.215,4.215,0,0,1,2.926.953A3.231,3.231,0,0,1,15.9,29.1a3.189,3.189,0,0,1-1.035,2.551,4.4,4.4,0,0,1-2.965.895Zm0-1.227h2.7a2.7,2.7,0,0,0,1.844-.567,2.075,2.075,0,0,0,.641-1.64,2.143,2.143,0,0,0-.641-1.628A2.525,2.525,0,0,0,12,26.852H9.219Zm12.453-1.477a4.331,4.331,0,0,0-.711-.055A1.9,1.9,0,0,0,19.031,31v6H17.586V28.547h1.406l.023.977a2.251,2.251,0,0,1,2.016-1.133,1.477,1.477,0,0,1,.641.109Zm.789,2.852a4.993,4.993,0,0,1,.488-2.234,3.643,3.643,0,0,1,1.359-1.531,3.7,3.7,0,0,1,1.988-.539,3.565,3.565,0,0,1,2.793,1.2,4.6,4.6,0,0,1,1.066,3.18v.1a5.036,5.036,0,0,1-.473,2.215,3.589,3.589,0,0,1-1.352,1.527,3.743,3.743,0,0,1-2.02.547,3.556,3.556,0,0,1-2.785-1.2A4.575,4.575,0,0,1,22.461,32.8Zm1.453.172a3.616,3.616,0,0,0,.652,2.258,2.211,2.211,0,0,0,3.5-.012,3.955,3.955,0,0,0,.648-2.418,3.61,3.61,0,0,0-.66-2.254,2.1,2.1,0,0,0-1.754-.863,2.075,2.075,0,0,0-1.727.852A3.925,3.925,0,0,0,23.914,32.867Zm7.7-.164a4.952,4.952,0,0,1,.922-3.129,3.137,3.137,0,0,1,4.766-.168V25H38.75V37H37.422l-.07-.906a2.943,2.943,0,0,1-2.414,1.063,2.887,2.887,0,0,1-2.395-1.2,5.008,5.008,0,0,1-.926-3.141Zm1.445.164a3.749,3.749,0,0,0,.594,2.25,1.919,1.919,0,0,0,1.641.813A2.108,2.108,0,0,0,37.3,34.7V30.813a2.125,2.125,0,0,0-1.992-1.2,1.929,1.929,0,0,0-1.656.82A4.128,4.128,0,0,0,33.063,32.867Zm13.148,3.3a3.07,3.07,0,0,1-2.477.992,2.628,2.628,0,0,1-2.059-.785,3.4,3.4,0,0,1-.715-2.324v-5.5h1.445v5.461q0,1.922,1.563,1.922a2.163,2.163,0,0,0,2.2-1.234V28.547h1.445V37H46.242Zm6.992-.187a2.082,2.082,0,0,0,1.352-.469,1.649,1.649,0,0,0,.641-1.172h1.367a2.621,2.621,0,0,1-.5,1.383,3.293,3.293,0,0,1-1.23,1.047,3.55,3.55,0,0,1-1.629.391A3.482,3.482,0,0,1,50.457,36a4.59,4.59,0,0,1-1.02-3.152v-.242a5.089,5.089,0,0,1,.453-2.2,3.451,3.451,0,0,1,1.3-1.492,3.7,3.7,0,0,1,2-.531,3.39,3.39,0,0,1,2.363.852,3.043,3.043,0,0,1,1,2.211H55.2a1.992,1.992,0,0,0-.621-1.348,1.932,1.932,0,0,0-1.379-.527,2.023,2.023,0,0,0-1.707.793,3.724,3.724,0,0,0-.605,2.293v.273a3.65,3.65,0,0,0,.6,2.25A2.033,2.033,0,0,0,53.2,35.977ZM60.148,26.5v2.047h1.578v1.117H60.148v5.249a1.173,1.173,0,0,0,.211.763.888.888,0,0,0,.719.254,3.5,3.5,0,0,0,.688-.094V37a4.215,4.215,0,0,1-1.109.155A1.8,1.8,0,0,1,59.2,36.57a2.517,2.517,0,0,1-.492-1.664V29.664H57.164V28.547H58.7V26.5Zm2.727,6.2a4.993,4.993,0,0,1,.488-2.234,3.643,3.643,0,0,1,1.359-1.531,3.7,3.7,0,0,1,1.988-.539,3.565,3.565,0,0,1,2.793,1.2,4.6,4.6,0,0,1,1.066,3.18v.1a5.036,5.036,0,0,1-.473,2.215,3.589,3.589,0,0,1-1.352,1.527,3.743,3.743,0,0,1-2.02.547,3.556,3.556,0,0,1-2.785-1.2A4.575,4.575,0,0,1,62.875,32.8Zm1.453.172a3.616,3.616,0,0,0,.652,2.258,2.211,2.211,0,0,0,3.5-.012,3.955,3.955,0,0,0,.648-2.418,3.61,3.61,0,0,0-.66-2.254,2.1,2.1,0,0,0-1.754-.863,2.075,2.075,0,0,0-1.727.852A3.925,3.925,0,0,0,64.328,32.867ZM77.3,34.758a1.064,1.064,0,0,0-.441-.91,4.249,4.249,0,0,0-1.539-.559,7.277,7.277,0,0,1-1.742-.562,2.479,2.479,0,0,1-.953-.781,1.869,1.869,0,0,1-.309-1.078,2.193,2.193,0,0,1,.879-1.758,3.432,3.432,0,0,1,2.246-.719,3.532,3.532,0,0,1,2.332.742,2.357,2.357,0,0,1,.895,1.9H77.219a1.3,1.3,0,0,0-.5-1.023,1.888,1.888,0,0,0-1.27-.43,1.976,1.976,0,0,0-1.234.344,1.082,1.082,0,0,0-.445.9.877.877,0,0,0,.414.789,5.1,5.1,0,0,0,1.5.508,7.8,7.8,0,0,1,1.754.578,2.558,2.558,0,0,1,1,.809,1.988,1.988,0,0,1,.324,1.152,2.163,2.163,0,0,1-.906,1.816,3.8,3.8,0,0,1-2.352.684,4.257,4.257,0,0,1-1.8-.359,2.922,2.922,0,0,1-1.223-1,2.42,2.42,0,0,1-.441-1.395h1.445a1.5,1.5,0,0,0,.582,1.152,2.258,2.258,0,0,0,1.434.426,2.331,2.331,0,0,0,1.316-.332A1.02,1.02,0,0,0,77.3,34.758Zm9.836-.734H82.375L81.3,37H79.758L84.1,25.625h1.313L89.766,37H88.227ZM82.828,32.8H86.7l-1.937-5.32Zm15.4.07a5.026,5.026,0,0,1-.891,3.113,2.846,2.846,0,0,1-2.391,1.176,2.947,2.947,0,0,1-2.477-1.133L92.4,37H91.07V25h1.445v4.477a2.93,2.93,0,0,1,2.414-1.086,2.863,2.863,0,0,1,2.418,1.164,5.177,5.177,0,0,1,.879,3.188ZM96.781,32.7a3.906,3.906,0,0,0-.57-2.281,1.888,1.888,0,0,0-1.641-.8,2.122,2.122,0,0,0-2.055,1.328V34.6a2.181,2.181,0,0,0,2.07,1.328,1.878,1.878,0,0,0,1.617-.8A4.153,4.153,0,0,0,96.781,32.7ZM22.246,54.758a1.064,1.064,0,0,0-.441-.91,4.249,4.249,0,0,0-1.539-.559,7.277,7.277,0,0,1-1.742-.562,2.479,2.479,0,0,1-.953-.781,1.869,1.869,0,0,1-.309-1.078,2.193,2.193,0,0,1,.879-1.758,3.432,3.432,0,0,1,2.246-.719,3.532,3.532,0,0,1,2.332.742,2.357,2.357,0,0,1,.895,1.9H22.16a1.3,1.3,0,0,0-.5-1.023,1.888,1.888,0,0,0-1.27-.43,1.976,1.976,0,0,0-1.234.344,1.082,1.082,0,0,0-.445.9.877.877,0,0,0,.414.789,5.1,5.1,0,0,0,1.5.508,7.8,7.8,0,0,1,1.754.578,2.558,2.558,0,0,1,1,.809,1.988,1.988,0,0,1,.324,1.152,2.163,2.163,0,0,1-.906,1.816,3.8,3.8,0,0,1-2.352.684,4.257,4.257,0,0,1-1.8-.359,2.922,2.922,0,0,1-1.223-1,2.42,2.42,0,0,1-.441-1.395h1.445A1.5,1.5,0,0,0,19,55.551a2.258,2.258,0,0,0,1.434.426,2.331,2.331,0,0,0,1.316-.332A1.02,1.02,0,0,0,22.246,54.758ZM27.535,46.5v2.047h1.578v1.117H27.535v5.249a1.173,1.173,0,0,0,.211.763.888.888,0,0,0,.719.254,3.5,3.5,0,0,0,.688-.094V57a4.215,4.215,0,0,1-1.109.155,1.8,1.8,0,0,1-1.461-.586,2.517,2.517,0,0,1-.492-1.664V49.664H24.551V48.547H26.09V46.5Zm7.352,3.344a4.331,4.331,0,0,0-.711-.055A1.9,1.9,0,0,0,32.246,51v6H30.8V48.547h1.406l.023.977a2.251,2.251,0,0,1,2.016-1.133,1.477,1.477,0,0,1,.641.109ZM41.121,57a3.036,3.036,0,0,1-.2-.891,3.225,3.225,0,0,1-2.406,1.047,2.984,2.984,0,0,1-2.051-.707,2.287,2.287,0,0,1-.8-1.793,2.39,2.39,0,0,1,1-2.051,4.733,4.733,0,0,1,2.824-.73h1.406v-.664A1.623,1.623,0,0,0,40.441,50a1.821,1.821,0,0,0-1.336-.449,2.107,2.107,0,0,0-1.3.391,1.151,1.151,0,0,0-.523.945H35.832a2,2,0,0,1,.449-1.223,3.066,3.066,0,0,1,1.219-.934,4.1,4.1,0,0,1,1.691-.344,3.342,3.342,0,0,1,2.289.73,2.635,2.635,0,0,1,.859,2.012v3.891a4.757,4.757,0,0,0,.3,1.852V57Zm-2.4-1.1a2.54,2.54,0,0,0,1.289-.352,2.127,2.127,0,0,0,.883-.914V52.9H39.762q-2.656,0-2.656,1.555a1.316,1.316,0,0,0,.453,1.063A1.742,1.742,0,0,0,38.723,55.9ZM48,55.977a2.082,2.082,0,0,0,1.352-.469,1.649,1.649,0,0,0,.641-1.172h1.367a2.621,2.621,0,0,1-.5,1.383,3.293,3.293,0,0,1-1.23,1.047A3.55,3.55,0,0,1,48,57.156,3.482,3.482,0,0,1,45.25,56a4.59,4.59,0,0,1-1.02-3.152v-.242a5.089,5.089,0,0,1,.453-2.2,3.451,3.451,0,0,1,1.3-1.492,3.7,3.7,0,0,1,2-.531,3.39,3.39,0,0,1,2.363.852,3.043,3.043,0,0,1,1,2.211H49.988a1.992,1.992,0,0,0-.621-1.348,1.932,1.932,0,0,0-1.379-.527,2.023,2.023,0,0,0-1.707.793,3.724,3.724,0,0,0-.605,2.293v.273a3.65,3.65,0,0,0,.6,2.25A2.033,2.033,0,0,0,48,55.977ZM54.941,46.5v2.047H56.52v1.117H54.941v5.249a1.173,1.173,0,0,0,.211.763.888.888,0,0,0,.719.254,3.5,3.5,0,0,0,.688-.094V57a4.215,4.215,0,0,1-1.109.155,1.8,1.8,0,0,1-1.461-.586,2.517,2.517,0,0,1-.492-1.664V49.664H51.957V48.547H53.5V46.5Zm2.727,6.2a4.993,4.993,0,0,1,.488-2.234,3.643,3.643,0,0,1,1.359-1.531,3.7,3.7,0,0,1,1.988-.539,3.565,3.565,0,0,1,2.793,1.2,4.6,4.6,0,0,1,1.066,3.18v.1a5.036,5.036,0,0,1-.473,2.215,3.589,3.589,0,0,1-1.352,1.527,3.743,3.743,0,0,1-2.02.547,3.556,3.556,0,0,1-2.785-1.2A4.575,4.575,0,0,1,57.668,52.8Zm1.453.172a3.616,3.616,0,0,0,.652,2.258,2.211,2.211,0,0,0,3.5-.012,3.955,3.955,0,0,0,.648-2.418,3.61,3.61,0,0,0-.66-2.254,2.1,2.1,0,0,0-1.754-.863,2.075,2.075,0,0,0-1.727.852A3.925,3.925,0,0,0,59.121,52.867ZM72.1,54.758a1.064,1.064,0,0,0-.441-.91,4.249,4.249,0,0,0-1.539-.559,7.277,7.277,0,0,1-1.742-.562,2.479,2.479,0,0,1-.953-.781,1.869,1.869,0,0,1-.309-1.078,2.193,2.193,0,0,1,.879-1.758,3.432,3.432,0,0,1,2.246-.719,3.532,3.532,0,0,1,2.332.742,2.357,2.357,0,0,1,.895,1.9H72.012a1.3,1.3,0,0,0-.5-1.023,1.888,1.888,0,0,0-1.27-.43A1.976,1.976,0,0,0,69,49.922a1.082,1.082,0,0,0-.445.9.877.877,0,0,0,.414.789,5.1,5.1,0,0,0,1.5.508,7.8,7.8,0,0,1,1.754.578,2.558,2.558,0,0,1,1,.809,1.988,1.988,0,0,1,.324,1.152,2.163,2.163,0,0,1-.906,1.816,3.8,3.8,0,0,1-2.352.684,4.257,4.257,0,0,1-1.8-.359,2.922,2.922,0,0,1-1.223-1,2.42,2.42,0,0,1-.441-1.395H68.27a1.5,1.5,0,0,0,.582,1.152,2.258,2.258,0,0,0,1.434.426,2.331,2.331,0,0,0,1.316-.332A1.02,1.02,0,0,0,72.1,54.758Zm9.836-.734H77.168L76.1,57H74.551l4.344-11.375h1.313L84.559,57H83.02ZM77.621,52.8h3.867l-1.937-5.32Z" transform="translate(1070.338 3570)" fill="#12263f"/>
    <path id="Trazado_218587" data-name="Trazado 218587" d="M20.875,12.547V17h-1.5V5.625h4.2a4.215,4.215,0,0,1,2.926.953A3.231,3.231,0,0,1,27.555,9.1a3.189,3.189,0,0,1-1.035,2.551,4.4,4.4,0,0,1-2.965.895Zm0-1.227h2.7a2.7,2.7,0,0,0,1.844-.567,2.075,2.075,0,0,0,.641-1.64,2.143,2.143,0,0,0-.641-1.628,2.525,2.525,0,0,0-1.758-.634H20.875ZM33.328,9.844a4.331,4.331,0,0,0-.711-.055A1.9,1.9,0,0,0,30.688,11v6H29.242V8.547h1.406l.023.977a2.251,2.251,0,0,1,2.016-1.133,1.477,1.477,0,0,1,.641.109Zm.789,2.852a4.993,4.993,0,0,1,.488-2.234A3.643,3.643,0,0,1,35.965,8.93a3.7,3.7,0,0,1,1.988-.539,3.565,3.565,0,0,1,2.793,1.2,4.6,4.6,0,0,1,1.066,3.18v.1a5.036,5.036,0,0,1-.473,2.215,3.589,3.589,0,0,1-1.352,1.527,3.743,3.743,0,0,1-2.02.547,3.556,3.556,0,0,1-2.785-1.2A4.575,4.575,0,0,1,34.117,12.8Zm1.453.172a3.616,3.616,0,0,0,.652,2.258,2.211,2.211,0,0,0,3.5-.012,3.955,3.955,0,0,0,.648-2.418,3.61,3.61,0,0,0-.66-2.254,2.1,2.1,0,0,0-1.754-.863,2.075,2.075,0,0,0-1.727.852A3.925,3.925,0,0,0,35.57,12.867Zm7.7-.164A4.952,4.952,0,0,1,44.2,9.574a3.137,3.137,0,0,1,4.766-.168V5h1.445V17H49.078l-.07-.906a2.943,2.943,0,0,1-2.414,1.063,2.887,2.887,0,0,1-2.395-1.2,5.008,5.008,0,0,1-.926-3.141Zm1.445.164a3.749,3.749,0,0,0,.594,2.25,1.92,1.92,0,0,0,1.641.813A2.108,2.108,0,0,0,48.961,14.7V10.813a2.125,2.125,0,0,0-1.992-1.2,1.929,1.929,0,0,0-1.656.82A4.128,4.128,0,0,0,44.719,12.867Zm13.148,3.3a3.07,3.07,0,0,1-2.477.992,2.628,2.628,0,0,1-2.059-.785,3.4,3.4,0,0,1-.715-2.324v-5.5h1.445v5.461q0,1.922,1.563,1.922a2.163,2.163,0,0,0,2.2-1.234V8.547h1.445V17H57.9Zm6.992-.187a2.082,2.082,0,0,0,1.352-.469,1.649,1.649,0,0,0,.641-1.172h1.367a2.621,2.621,0,0,1-.5,1.383,3.293,3.293,0,0,1-1.23,1.047,3.55,3.55,0,0,1-1.629.391A3.482,3.482,0,0,1,62.113,16a4.59,4.59,0,0,1-1.02-3.152v-.242a5.089,5.089,0,0,1,.453-2.2,3.451,3.451,0,0,1,1.3-1.492,3.7,3.7,0,0,1,2-.531,3.39,3.39,0,0,1,2.363.852,3.043,3.043,0,0,1,1,2.211H66.852a1.992,1.992,0,0,0-.621-1.348,1.932,1.932,0,0,0-1.379-.527,2.023,2.023,0,0,0-1.707.793,3.724,3.724,0,0,0-.605,2.293v.273a3.65,3.65,0,0,0,.6,2.25A2.033,2.033,0,0,0,64.859,15.977ZM71.8,6.5V8.547h1.578V9.664H71.8v5.249a1.173,1.173,0,0,0,.211.763.888.888,0,0,0,.719.254,3.5,3.5,0,0,0,.688-.094V17a4.215,4.215,0,0,1-1.109.155,1.8,1.8,0,0,1-1.461-.586,2.517,2.517,0,0,1-.492-1.664V9.664H68.82V8.547h1.539V6.5Zm2.727,6.2a4.993,4.993,0,0,1,.488-2.234A3.643,3.643,0,0,1,76.379,8.93a3.7,3.7,0,0,1,1.988-.539,3.565,3.565,0,0,1,2.793,1.2,4.6,4.6,0,0,1,1.066,3.18v.1a5.036,5.036,0,0,1-.473,2.215A3.589,3.589,0,0,1,80.4,16.609a3.743,3.743,0,0,1-2.02.547,3.556,3.556,0,0,1-2.785-1.2A4.575,4.575,0,0,1,74.531,12.8Zm1.453.172a3.616,3.616,0,0,0,.652,2.258,2.211,2.211,0,0,0,3.5-.012,3.955,3.955,0,0,0,.648-2.418,3.61,3.61,0,0,0-.66-2.254,2.1,2.1,0,0,0-1.754-.863,2.075,2.075,0,0,0-1.727.852A3.925,3.925,0,0,0,75.984,12.867ZM27.773,33.391a4.185,4.185,0,0,1-1.332,2.785,4.365,4.365,0,0,1-2.98.98,4.008,4.008,0,0,1-3.23-1.445,5.815,5.815,0,0,1-1.215-3.867V30.75a6.481,6.481,0,0,1,.566-2.789,4.231,4.231,0,0,1,1.605-1.848,4.47,4.47,0,0,1,2.406-.645A4.11,4.11,0,0,1,26.5,26.48a4.235,4.235,0,0,1,1.273,2.8H26.266a3.268,3.268,0,0,0-.848-1.975,2.565,2.565,0,0,0-1.824-.611,2.684,2.684,0,0,0-2.254,1.063,4.882,4.882,0,0,0-.816,3.026v1.1a5.018,5.018,0,0,0,.773,2.948,2.5,2.5,0,0,0,2.164,1.095,2.886,2.886,0,0,0,1.918-.566,3.143,3.143,0,0,0,.887-1.973Zm1.438-.7a4.993,4.993,0,0,1,.488-2.234,3.643,3.643,0,0,1,1.359-1.531,3.7,3.7,0,0,1,1.988-.539,3.565,3.565,0,0,1,2.793,1.2,4.6,4.6,0,0,1,1.066,3.18v.1a5.036,5.036,0,0,1-.473,2.215,3.589,3.589,0,0,1-1.352,1.527,3.743,3.743,0,0,1-2.02.547,3.556,3.556,0,0,1-2.785-1.2A4.575,4.575,0,0,1,29.211,32.8Zm1.453.172a3.616,3.616,0,0,0,.652,2.258,2.211,2.211,0,0,0,3.5-.012,3.955,3.955,0,0,0,.648-2.418,3.61,3.61,0,0,0-.66-2.254,2.1,2.1,0,0,0-1.754-.863,2.075,2.075,0,0,0-1.727.852A3.925,3.925,0,0,0,30.664,32.867Zm9.422-4.32.047,1.063a3.08,3.08,0,0,1,2.531-1.219q2.68,0,2.7,3.023V37H43.922V31.406a1.946,1.946,0,0,0-.418-1.352,1.675,1.675,0,0,0-1.277-.437,2.086,2.086,0,0,0-1.234.375,2.546,2.546,0,0,0-.828.984V37H38.719V28.547Zm10.852,7.43a2.082,2.082,0,0,0,1.352-.469,1.649,1.649,0,0,0,.641-1.172H54.3a2.621,2.621,0,0,1-.5,1.383,3.293,3.293,0,0,1-1.23,1.047,3.55,3.55,0,0,1-1.629.391A3.482,3.482,0,0,1,48.191,36a4.59,4.59,0,0,1-1.02-3.152v-.242a5.089,5.089,0,0,1,.453-2.2,3.451,3.451,0,0,1,1.3-1.492,3.7,3.7,0,0,1,2-.531,3.39,3.39,0,0,1,2.363.852,3.043,3.043,0,0,1,1,2.211H52.93a1.992,1.992,0,0,0-.621-1.348,1.932,1.932,0,0,0-1.379-.527,2.023,2.023,0,0,0-1.707.793,3.724,3.724,0,0,0-.605,2.293v.273a3.65,3.65,0,0,0,.6,2.25A2.033,2.033,0,0,0,50.938,35.977Zm9.07-6.133a4.331,4.331,0,0,0-.711-.055A1.9,1.9,0,0,0,57.367,31v6H55.922V28.547h1.406l.023.977a2.251,2.251,0,0,1,2.016-1.133,1.477,1.477,0,0,1,.641.109Zm4.836,7.313a3.693,3.693,0,0,1-2.8-1.129,4.19,4.19,0,0,1-1.078-3.02v-.266a5.073,5.073,0,0,1,.48-2.246,3.748,3.748,0,0,1,1.344-1.547,3.378,3.378,0,0,1,1.871-.559,3.166,3.166,0,0,1,2.563,1.086,4.7,4.7,0,0,1,.914,3.109v.6H62.414a3,3,0,0,0,.73,2.02,2.3,2.3,0,0,0,1.777.77,2.517,2.517,0,0,0,1.3-.312,3.259,3.259,0,0,0,.93-.828l.883.688A3.55,3.55,0,0,1,64.844,37.156Zm-.18-7.578a1.928,1.928,0,0,0-1.469.637A3.1,3.1,0,0,0,62.461,32H66.7v-.109a2.753,2.753,0,0,0-.594-1.707A1.815,1.815,0,0,0,64.664,29.578ZM71.773,26.5v2.047h1.578v1.117H71.773v5.249a1.173,1.173,0,0,0,.211.763.888.888,0,0,0,.719.254,3.5,3.5,0,0,0,.688-.094V37a4.215,4.215,0,0,1-1.109.155,1.8,1.8,0,0,1-1.461-.586,2.517,2.517,0,0,1-.492-1.664V29.664H68.789V28.547h1.539V26.5ZM74.5,32.7a4.993,4.993,0,0,1,.488-2.234,3.643,3.643,0,0,1,1.359-1.531,3.7,3.7,0,0,1,1.988-.539,3.565,3.565,0,0,1,2.793,1.2,4.6,4.6,0,0,1,1.066,3.18v.1a5.036,5.036,0,0,1-.473,2.215,3.589,3.589,0,0,1-1.352,1.527,3.743,3.743,0,0,1-2.02.547,3.556,3.556,0,0,1-2.785-1.2A4.575,4.575,0,0,1,74.5,32.8Zm1.453.172a3.616,3.616,0,0,0,.652,2.258,2.211,2.211,0,0,0,3.5-.012A3.955,3.955,0,0,0,80.75,32.7a3.61,3.61,0,0,0-.66-2.254,2.1,2.1,0,0,0-1.754-.863,2.075,2.075,0,0,0-1.727.852A3.925,3.925,0,0,0,75.953,32.867ZM48.391,54.023H43.625L42.555,57H41.008l4.344-11.375h1.313L51.016,57H49.477ZM44.078,52.8h3.867l-1.937-5.32ZM56.922,57H55.469V47.367l-2.914,1.07V47.125L56.7,45.57h.227Z" transform="translate(1025.338 3666)" fill="#12263f"/>
    <path id="Trazado_218578" data-name="Trazado 218578" d="M20.875,12.547V17h-1.5V5.625h4.2a4.215,4.215,0,0,1,2.926.953A3.231,3.231,0,0,1,27.555,9.1a3.189,3.189,0,0,1-1.035,2.551,4.4,4.4,0,0,1-2.965.895Zm0-1.227h2.7a2.7,2.7,0,0,0,1.844-.567,2.075,2.075,0,0,0,.641-1.64,2.143,2.143,0,0,0-.641-1.628,2.525,2.525,0,0,0-1.758-.634H20.875ZM33.328,9.844a4.331,4.331,0,0,0-.711-.055A1.9,1.9,0,0,0,30.688,11v6H29.242V8.547h1.406l.023.977a2.251,2.251,0,0,1,2.016-1.133,1.477,1.477,0,0,1,.641.109Zm.789,2.852a4.993,4.993,0,0,1,.488-2.234A3.643,3.643,0,0,1,35.965,8.93a3.7,3.7,0,0,1,1.988-.539,3.565,3.565,0,0,1,2.793,1.2,4.6,4.6,0,0,1,1.066,3.18v.1a5.036,5.036,0,0,1-.473,2.215,3.589,3.589,0,0,1-1.352,1.527,3.743,3.743,0,0,1-2.02.547,3.556,3.556,0,0,1-2.785-1.2A4.575,4.575,0,0,1,34.117,12.8Zm1.453.172a3.616,3.616,0,0,0,.652,2.258,2.211,2.211,0,0,0,3.5-.012,3.955,3.955,0,0,0,.648-2.418,3.61,3.61,0,0,0-.66-2.254,2.1,2.1,0,0,0-1.754-.863,2.075,2.075,0,0,0-1.727.852A3.925,3.925,0,0,0,35.57,12.867Zm7.7-.164A4.952,4.952,0,0,1,44.2,9.574a3.137,3.137,0,0,1,4.766-.168V5h1.445V17H49.078l-.07-.906a2.943,2.943,0,0,1-2.414,1.063,2.887,2.887,0,0,1-2.395-1.2,5.008,5.008,0,0,1-.926-3.141Zm1.445.164a3.749,3.749,0,0,0,.594,2.25,1.92,1.92,0,0,0,1.641.813A2.108,2.108,0,0,0,48.961,14.7V10.813a2.125,2.125,0,0,0-1.992-1.2,1.929,1.929,0,0,0-1.656.82A4.128,4.128,0,0,0,44.719,12.867Zm13.148,3.3a3.07,3.07,0,0,1-2.477.992,2.628,2.628,0,0,1-2.059-.785,3.4,3.4,0,0,1-.715-2.324v-5.5h1.445v5.461q0,1.922,1.563,1.922a2.163,2.163,0,0,0,2.2-1.234V8.547h1.445V17H57.9Zm6.992-.187a2.082,2.082,0,0,0,1.352-.469,1.649,1.649,0,0,0,.641-1.172h1.367a2.621,2.621,0,0,1-.5,1.383,3.293,3.293,0,0,1-1.23,1.047,3.55,3.55,0,0,1-1.629.391A3.482,3.482,0,0,1,62.113,16a4.59,4.59,0,0,1-1.02-3.152v-.242a5.089,5.089,0,0,1,.453-2.2,3.451,3.451,0,0,1,1.3-1.492,3.7,3.7,0,0,1,2-.531,3.39,3.39,0,0,1,2.363.852,3.043,3.043,0,0,1,1,2.211H66.852a1.992,1.992,0,0,0-.621-1.348,1.932,1.932,0,0,0-1.379-.527,2.023,2.023,0,0,0-1.707.793,3.724,3.724,0,0,0-.605,2.293v.273a3.65,3.65,0,0,0,.6,2.25A2.033,2.033,0,0,0,64.859,15.977ZM71.8,6.5V8.547h1.578V9.664H71.8v5.249a1.173,1.173,0,0,0,.211.763.888.888,0,0,0,.719.254,3.5,3.5,0,0,0,.688-.094V17a4.215,4.215,0,0,1-1.109.155,1.8,1.8,0,0,1-1.461-.586,2.517,2.517,0,0,1-.492-1.664V9.664H68.82V8.547h1.539V6.5Zm2.727,6.2a4.993,4.993,0,0,1,.488-2.234A3.643,3.643,0,0,1,76.379,8.93a3.7,3.7,0,0,1,1.988-.539,3.565,3.565,0,0,1,2.793,1.2,4.6,4.6,0,0,1,1.066,3.18v.1a5.036,5.036,0,0,1-.473,2.215A3.589,3.589,0,0,1,80.4,16.609a3.743,3.743,0,0,1-2.02.547,3.556,3.556,0,0,1-2.785-1.2A4.575,4.575,0,0,1,74.531,12.8Zm1.453.172a3.616,3.616,0,0,0,.652,2.258,2.211,2.211,0,0,0,3.5-.012,3.955,3.955,0,0,0,.648-2.418,3.61,3.61,0,0,0-.66-2.254,2.1,2.1,0,0,0-1.754-.863,2.075,2.075,0,0,0-1.727.852A3.925,3.925,0,0,0,75.984,12.867ZM27.773,33.391a4.185,4.185,0,0,1-1.332,2.785,4.365,4.365,0,0,1-2.98.98,4.008,4.008,0,0,1-3.23-1.445,5.815,5.815,0,0,1-1.215-3.867V30.75a6.481,6.481,0,0,1,.566-2.789,4.231,4.231,0,0,1,1.605-1.848,4.47,4.47,0,0,1,2.406-.645A4.11,4.11,0,0,1,26.5,26.48a4.235,4.235,0,0,1,1.273,2.8H26.266a3.268,3.268,0,0,0-.848-1.975,2.565,2.565,0,0,0-1.824-.611,2.684,2.684,0,0,0-2.254,1.063,4.882,4.882,0,0,0-.816,3.026v1.1a5.018,5.018,0,0,0,.773,2.948,2.5,2.5,0,0,0,2.164,1.095,2.886,2.886,0,0,0,1.918-.566,3.143,3.143,0,0,0,.887-1.973Zm1.438-.7a4.993,4.993,0,0,1,.488-2.234,3.643,3.643,0,0,1,1.359-1.531,3.7,3.7,0,0,1,1.988-.539,3.565,3.565,0,0,1,2.793,1.2,4.6,4.6,0,0,1,1.066,3.18v.1a5.036,5.036,0,0,1-.473,2.215,3.589,3.589,0,0,1-1.352,1.527,3.743,3.743,0,0,1-2.02.547,3.556,3.556,0,0,1-2.785-1.2A4.575,4.575,0,0,1,29.211,32.8Zm1.453.172a3.616,3.616,0,0,0,.652,2.258,2.211,2.211,0,0,0,3.5-.012,3.955,3.955,0,0,0,.648-2.418,3.61,3.61,0,0,0-.66-2.254,2.1,2.1,0,0,0-1.754-.863,2.075,2.075,0,0,0-1.727.852A3.925,3.925,0,0,0,30.664,32.867Zm9.422-4.32.047,1.063a3.08,3.08,0,0,1,2.531-1.219q2.68,0,2.7,3.023V37H43.922V31.406a1.946,1.946,0,0,0-.418-1.352,1.675,1.675,0,0,0-1.277-.437,2.086,2.086,0,0,0-1.234.375,2.546,2.546,0,0,0-.828.984V37H38.719V28.547Zm10.852,7.43a2.082,2.082,0,0,0,1.352-.469,1.649,1.649,0,0,0,.641-1.172H54.3a2.621,2.621,0,0,1-.5,1.383,3.293,3.293,0,0,1-1.23,1.047,3.55,3.55,0,0,1-1.629.391A3.482,3.482,0,0,1,48.191,36a4.59,4.59,0,0,1-1.02-3.152v-.242a5.089,5.089,0,0,1,.453-2.2,3.451,3.451,0,0,1,1.3-1.492,3.7,3.7,0,0,1,2-.531,3.39,3.39,0,0,1,2.363.852,3.043,3.043,0,0,1,1,2.211H52.93a1.992,1.992,0,0,0-.621-1.348,1.932,1.932,0,0,0-1.379-.527,2.023,2.023,0,0,0-1.707.793,3.724,3.724,0,0,0-.605,2.293v.273a3.65,3.65,0,0,0,.6,2.25A2.033,2.033,0,0,0,50.938,35.977Zm9.07-6.133a4.331,4.331,0,0,0-.711-.055A1.9,1.9,0,0,0,57.367,31v6H55.922V28.547h1.406l.023.977a2.251,2.251,0,0,1,2.016-1.133,1.477,1.477,0,0,1,.641.109Zm4.836,7.313a3.693,3.693,0,0,1-2.8-1.129,4.19,4.19,0,0,1-1.078-3.02v-.266a5.073,5.073,0,0,1,.48-2.246,3.748,3.748,0,0,1,1.344-1.547,3.378,3.378,0,0,1,1.871-.559,3.166,3.166,0,0,1,2.563,1.086,4.7,4.7,0,0,1,.914,3.109v.6H62.414a3,3,0,0,0,.73,2.02,2.3,2.3,0,0,0,1.777.77,2.517,2.517,0,0,0,1.3-.312,3.259,3.259,0,0,0,.93-.828l.883.688A3.55,3.55,0,0,1,64.844,37.156Zm-.18-7.578a1.928,1.928,0,0,0-1.469.637A3.1,3.1,0,0,0,62.461,32H66.7v-.109a2.753,2.753,0,0,0-.594-1.707A1.815,1.815,0,0,0,64.664,29.578ZM71.773,26.5v2.047h1.578v1.117H71.773v5.249a1.173,1.173,0,0,0,.211.763.888.888,0,0,0,.719.254,3.5,3.5,0,0,0,.688-.094V37a4.215,4.215,0,0,1-1.109.155,1.8,1.8,0,0,1-1.461-.586,2.517,2.517,0,0,1-.492-1.664V29.664H68.789V28.547h1.539V26.5ZM74.5,32.7a4.993,4.993,0,0,1,.488-2.234,3.643,3.643,0,0,1,1.359-1.531,3.7,3.7,0,0,1,1.988-.539,3.565,3.565,0,0,1,2.793,1.2,4.6,4.6,0,0,1,1.066,3.18v.1a5.036,5.036,0,0,1-.473,2.215,3.589,3.589,0,0,1-1.352,1.527,3.743,3.743,0,0,1-2.02.547,3.556,3.556,0,0,1-2.785-1.2A4.575,4.575,0,0,1,74.5,32.8Zm1.453.172a3.616,3.616,0,0,0,.652,2.258,2.211,2.211,0,0,0,3.5-.012A3.955,3.955,0,0,0,80.75,32.7a3.61,3.61,0,0,0-.66-2.254,2.1,2.1,0,0,0-1.754-.863,2.075,2.075,0,0,0-1.727.852A3.925,3.925,0,0,0,75.953,32.867ZM42.348,57V45.625h3.719a4.317,4.317,0,0,1,2.785.766,2.759,2.759,0,0,1,.934,2.266,2.31,2.31,0,0,1-.453,1.41,2.937,2.937,0,0,1-1.234.949,2.638,2.638,0,0,1,1.457.98,2.814,2.814,0,0,1,.535,1.723,3.042,3.042,0,0,1-.992,2.406,4.1,4.1,0,0,1-2.8.875Zm1.5-5.32v4.094h2.477a2.385,2.385,0,0,0,1.652-.543,1.907,1.907,0,0,0,.605-1.5q0-2.055-2.234-2.055Zm0-1.2h2.266a2.375,2.375,0,0,0,1.574-.493,1.654,1.654,0,0,0,.59-1.339,1.626,1.626,0,0,0-.547-1.366,2.686,2.686,0,0,0-1.664-.427H43.848ZM56.684,57H55.23V47.367l-2.914,1.07V47.125l4.141-1.555h.227Z" transform="translate(1211.338 3666)" fill="#12263f"/>
    <path id="Trazado_218579" data-name="Trazado 218579" d="M20.875,12.547V17h-1.5V5.625h4.2a4.215,4.215,0,0,1,2.926.953A3.231,3.231,0,0,1,27.555,9.1a3.189,3.189,0,0,1-1.035,2.551,4.4,4.4,0,0,1-2.965.895Zm0-1.227h2.7a2.7,2.7,0,0,0,1.844-.567,2.075,2.075,0,0,0,.641-1.64,2.143,2.143,0,0,0-.641-1.628,2.525,2.525,0,0,0-1.758-.634H20.875ZM33.328,9.844a4.331,4.331,0,0,0-.711-.055A1.9,1.9,0,0,0,30.688,11v6H29.242V8.547h1.406l.023.977a2.251,2.251,0,0,1,2.016-1.133,1.477,1.477,0,0,1,.641.109Zm.789,2.852a4.993,4.993,0,0,1,.488-2.234A3.643,3.643,0,0,1,35.965,8.93a3.7,3.7,0,0,1,1.988-.539,3.565,3.565,0,0,1,2.793,1.2,4.6,4.6,0,0,1,1.066,3.18v.1a5.036,5.036,0,0,1-.473,2.215,3.589,3.589,0,0,1-1.352,1.527,3.743,3.743,0,0,1-2.02.547,3.556,3.556,0,0,1-2.785-1.2A4.575,4.575,0,0,1,34.117,12.8Zm1.453.172a3.616,3.616,0,0,0,.652,2.258,2.211,2.211,0,0,0,3.5-.012,3.955,3.955,0,0,0,.648-2.418,3.61,3.61,0,0,0-.66-2.254,2.1,2.1,0,0,0-1.754-.863,2.075,2.075,0,0,0-1.727.852A3.925,3.925,0,0,0,35.57,12.867Zm7.7-.164A4.952,4.952,0,0,1,44.2,9.574a3.137,3.137,0,0,1,4.766-.168V5h1.445V17H49.078l-.07-.906a2.943,2.943,0,0,1-2.414,1.063,2.887,2.887,0,0,1-2.395-1.2,5.008,5.008,0,0,1-.926-3.141Zm1.445.164a3.749,3.749,0,0,0,.594,2.25,1.92,1.92,0,0,0,1.641.813A2.108,2.108,0,0,0,48.961,14.7V10.813a2.125,2.125,0,0,0-1.992-1.2,1.929,1.929,0,0,0-1.656.82A4.128,4.128,0,0,0,44.719,12.867Zm13.148,3.3a3.07,3.07,0,0,1-2.477.992,2.628,2.628,0,0,1-2.059-.785,3.4,3.4,0,0,1-.715-2.324v-5.5h1.445v5.461q0,1.922,1.563,1.922a2.163,2.163,0,0,0,2.2-1.234V8.547h1.445V17H57.9Zm6.992-.187a2.082,2.082,0,0,0,1.352-.469,1.649,1.649,0,0,0,.641-1.172h1.367a2.621,2.621,0,0,1-.5,1.383,3.293,3.293,0,0,1-1.23,1.047,3.55,3.55,0,0,1-1.629.391A3.482,3.482,0,0,1,62.113,16a4.59,4.59,0,0,1-1.02-3.152v-.242a5.089,5.089,0,0,1,.453-2.2,3.451,3.451,0,0,1,1.3-1.492,3.7,3.7,0,0,1,2-.531,3.39,3.39,0,0,1,2.363.852,3.043,3.043,0,0,1,1,2.211H66.852a1.992,1.992,0,0,0-.621-1.348,1.932,1.932,0,0,0-1.379-.527,2.023,2.023,0,0,0-1.707.793,3.724,3.724,0,0,0-.605,2.293v.273a3.65,3.65,0,0,0,.6,2.25A2.033,2.033,0,0,0,64.859,15.977ZM71.8,6.5V8.547h1.578V9.664H71.8v5.249a1.173,1.173,0,0,0,.211.763.888.888,0,0,0,.719.254,3.5,3.5,0,0,0,.688-.094V17a4.215,4.215,0,0,1-1.109.155,1.8,1.8,0,0,1-1.461-.586,2.517,2.517,0,0,1-.492-1.664V9.664H68.82V8.547h1.539V6.5Zm2.727,6.2a4.993,4.993,0,0,1,.488-2.234A3.643,3.643,0,0,1,76.379,8.93a3.7,3.7,0,0,1,1.988-.539,3.565,3.565,0,0,1,2.793,1.2,4.6,4.6,0,0,1,1.066,3.18v.1a5.036,5.036,0,0,1-.473,2.215A3.589,3.589,0,0,1,80.4,16.609a3.743,3.743,0,0,1-2.02.547,3.556,3.556,0,0,1-2.785-1.2A4.575,4.575,0,0,1,74.531,12.8Zm1.453.172a3.616,3.616,0,0,0,.652,2.258,2.211,2.211,0,0,0,3.5-.012,3.955,3.955,0,0,0,.648-2.418,3.61,3.61,0,0,0-.66-2.254,2.1,2.1,0,0,0-1.754-.863,2.075,2.075,0,0,0-1.727.852A3.925,3.925,0,0,0,75.984,12.867ZM27.773,33.391a4.185,4.185,0,0,1-1.332,2.785,4.365,4.365,0,0,1-2.98.98,4.008,4.008,0,0,1-3.23-1.445,5.815,5.815,0,0,1-1.215-3.867V30.75a6.481,6.481,0,0,1,.566-2.789,4.231,4.231,0,0,1,1.605-1.848,4.47,4.47,0,0,1,2.406-.645A4.11,4.11,0,0,1,26.5,26.48a4.235,4.235,0,0,1,1.273,2.8H26.266a3.268,3.268,0,0,0-.848-1.975,2.565,2.565,0,0,0-1.824-.611,2.684,2.684,0,0,0-2.254,1.063,4.882,4.882,0,0,0-.816,3.026v1.1a5.018,5.018,0,0,0,.773,2.948,2.5,2.5,0,0,0,2.164,1.095,2.886,2.886,0,0,0,1.918-.566,3.143,3.143,0,0,0,.887-1.973Zm1.438-.7a4.993,4.993,0,0,1,.488-2.234,3.643,3.643,0,0,1,1.359-1.531,3.7,3.7,0,0,1,1.988-.539,3.565,3.565,0,0,1,2.793,1.2,4.6,4.6,0,0,1,1.066,3.18v.1a5.036,5.036,0,0,1-.473,2.215,3.589,3.589,0,0,1-1.352,1.527,3.743,3.743,0,0,1-2.02.547,3.556,3.556,0,0,1-2.785-1.2A4.575,4.575,0,0,1,29.211,32.8Zm1.453.172a3.616,3.616,0,0,0,.652,2.258,2.211,2.211,0,0,0,3.5-.012,3.955,3.955,0,0,0,.648-2.418,3.61,3.61,0,0,0-.66-2.254,2.1,2.1,0,0,0-1.754-.863,2.075,2.075,0,0,0-1.727.852A3.925,3.925,0,0,0,30.664,32.867Zm9.422-4.32.047,1.063a3.08,3.08,0,0,1,2.531-1.219q2.68,0,2.7,3.023V37H43.922V31.406a1.946,1.946,0,0,0-.418-1.352,1.675,1.675,0,0,0-1.277-.437,2.086,2.086,0,0,0-1.234.375,2.546,2.546,0,0,0-.828.984V37H38.719V28.547Zm10.852,7.43a2.082,2.082,0,0,0,1.352-.469,1.649,1.649,0,0,0,.641-1.172H54.3a2.621,2.621,0,0,1-.5,1.383,3.293,3.293,0,0,1-1.23,1.047,3.55,3.55,0,0,1-1.629.391A3.482,3.482,0,0,1,48.191,36a4.59,4.59,0,0,1-1.02-3.152v-.242a5.089,5.089,0,0,1,.453-2.2,3.451,3.451,0,0,1,1.3-1.492,3.7,3.7,0,0,1,2-.531,3.39,3.39,0,0,1,2.363.852,3.043,3.043,0,0,1,1,2.211H52.93a1.992,1.992,0,0,0-.621-1.348,1.932,1.932,0,0,0-1.379-.527,2.023,2.023,0,0,0-1.707.793,3.724,3.724,0,0,0-.605,2.293v.273a3.65,3.65,0,0,0,.6,2.25A2.033,2.033,0,0,0,50.938,35.977Zm9.07-6.133a4.331,4.331,0,0,0-.711-.055A1.9,1.9,0,0,0,57.367,31v6H55.922V28.547h1.406l.023.977a2.251,2.251,0,0,1,2.016-1.133,1.477,1.477,0,0,1,.641.109Zm4.836,7.313a3.693,3.693,0,0,1-2.8-1.129,4.19,4.19,0,0,1-1.078-3.02v-.266a5.073,5.073,0,0,1,.48-2.246,3.748,3.748,0,0,1,1.344-1.547,3.378,3.378,0,0,1,1.871-.559,3.166,3.166,0,0,1,2.563,1.086,4.7,4.7,0,0,1,.914,3.109v.6H62.414a3,3,0,0,0,.73,2.02,2.3,2.3,0,0,0,1.777.77,2.517,2.517,0,0,0,1.3-.312,3.259,3.259,0,0,0,.93-.828l.883.688A3.55,3.55,0,0,1,64.844,37.156Zm-.18-7.578a1.928,1.928,0,0,0-1.469.637A3.1,3.1,0,0,0,62.461,32H66.7v-.109a2.753,2.753,0,0,0-.594-1.707A1.815,1.815,0,0,0,64.664,29.578ZM71.773,26.5v2.047h1.578v1.117H71.773v5.249a1.173,1.173,0,0,0,.211.763.888.888,0,0,0,.719.254,3.5,3.5,0,0,0,.688-.094V37a4.215,4.215,0,0,1-1.109.155,1.8,1.8,0,0,1-1.461-.586,2.517,2.517,0,0,1-.492-1.664V29.664H68.789V28.547h1.539V26.5ZM74.5,32.7a4.993,4.993,0,0,1,.488-2.234,3.643,3.643,0,0,1,1.359-1.531,3.7,3.7,0,0,1,1.988-.539,3.565,3.565,0,0,1,2.793,1.2,4.6,4.6,0,0,1,1.066,3.18v.1a5.036,5.036,0,0,1-.473,2.215,3.589,3.589,0,0,1-1.352,1.527,3.743,3.743,0,0,1-2.02.547,3.556,3.556,0,0,1-2.785-1.2A4.575,4.575,0,0,1,74.5,32.8Zm1.453.172a3.616,3.616,0,0,0,.652,2.258,2.211,2.211,0,0,0,3.5-.012A3.955,3.955,0,0,0,80.75,32.7a3.61,3.61,0,0,0-.66-2.254,2.1,2.1,0,0,0-1.754-.863,2.075,2.075,0,0,0-1.727.852A3.925,3.925,0,0,0,75.953,32.867ZM48.391,54.023H43.625L42.555,57H41.008l4.344-11.375h1.313L51.016,57H49.477ZM44.078,52.8h3.867l-1.937-5.32ZM59.625,57H52.172V55.961l3.938-4.375a9.355,9.355,0,0,0,1.207-1.613,2.693,2.693,0,0,0,.332-1.285,2.041,2.041,0,0,0-.539-1.461,1.885,1.885,0,0,0-1.437-.57A2.232,2.232,0,0,0,54,47.27a2.343,2.343,0,0,0-.6,1.707H51.953a3.355,3.355,0,0,1,1.012-2.539,3.751,3.751,0,0,1,2.707-.969,3.6,3.6,0,0,1,2.508.832,2.838,2.838,0,0,1,.922,2.215q0,1.68-2.141,4l-3.047,3.3h5.711Z" transform="translate(1118.338 3666)" fill="#12263f"/>
    <path id="Trazado_218580" data-name="Trazado 218580" d="M20.875,12.547V17h-1.5V5.625h4.2a4.215,4.215,0,0,1,2.926.953A3.231,3.231,0,0,1,27.555,9.1a3.189,3.189,0,0,1-1.035,2.551,4.4,4.4,0,0,1-2.965.895Zm0-1.227h2.7a2.7,2.7,0,0,0,1.844-.567,2.075,2.075,0,0,0,.641-1.64,2.143,2.143,0,0,0-.641-1.628,2.525,2.525,0,0,0-1.758-.634H20.875ZM33.328,9.844a4.331,4.331,0,0,0-.711-.055A1.9,1.9,0,0,0,30.688,11v6H29.242V8.547h1.406l.023.977a2.251,2.251,0,0,1,2.016-1.133,1.477,1.477,0,0,1,.641.109Zm.789,2.852a4.993,4.993,0,0,1,.488-2.234A3.643,3.643,0,0,1,35.965,8.93a3.7,3.7,0,0,1,1.988-.539,3.565,3.565,0,0,1,2.793,1.2,4.6,4.6,0,0,1,1.066,3.18v.1a5.036,5.036,0,0,1-.473,2.215,3.589,3.589,0,0,1-1.352,1.527,3.743,3.743,0,0,1-2.02.547,3.556,3.556,0,0,1-2.785-1.2A4.575,4.575,0,0,1,34.117,12.8Zm1.453.172a3.616,3.616,0,0,0,.652,2.258,2.211,2.211,0,0,0,3.5-.012,3.955,3.955,0,0,0,.648-2.418,3.61,3.61,0,0,0-.66-2.254,2.1,2.1,0,0,0-1.754-.863,2.075,2.075,0,0,0-1.727.852A3.925,3.925,0,0,0,35.57,12.867Zm7.7-.164A4.952,4.952,0,0,1,44.2,9.574a3.137,3.137,0,0,1,4.766-.168V5h1.445V17H49.078l-.07-.906a2.943,2.943,0,0,1-2.414,1.063,2.887,2.887,0,0,1-2.395-1.2,5.008,5.008,0,0,1-.926-3.141Zm1.445.164a3.749,3.749,0,0,0,.594,2.25,1.92,1.92,0,0,0,1.641.813A2.108,2.108,0,0,0,48.961,14.7V10.813a2.125,2.125,0,0,0-1.992-1.2,1.929,1.929,0,0,0-1.656.82A4.128,4.128,0,0,0,44.719,12.867Zm13.148,3.3a3.07,3.07,0,0,1-2.477.992,2.628,2.628,0,0,1-2.059-.785,3.4,3.4,0,0,1-.715-2.324v-5.5h1.445v5.461q0,1.922,1.563,1.922a2.163,2.163,0,0,0,2.2-1.234V8.547h1.445V17H57.9Zm6.992-.187a2.082,2.082,0,0,0,1.352-.469,1.649,1.649,0,0,0,.641-1.172h1.367a2.621,2.621,0,0,1-.5,1.383,3.293,3.293,0,0,1-1.23,1.047,3.55,3.55,0,0,1-1.629.391A3.482,3.482,0,0,1,62.113,16a4.59,4.59,0,0,1-1.02-3.152v-.242a5.089,5.089,0,0,1,.453-2.2,3.451,3.451,0,0,1,1.3-1.492,3.7,3.7,0,0,1,2-.531,3.39,3.39,0,0,1,2.363.852,3.043,3.043,0,0,1,1,2.211H66.852a1.992,1.992,0,0,0-.621-1.348,1.932,1.932,0,0,0-1.379-.527,2.023,2.023,0,0,0-1.707.793,3.724,3.724,0,0,0-.605,2.293v.273a3.65,3.65,0,0,0,.6,2.25A2.033,2.033,0,0,0,64.859,15.977ZM71.8,6.5V8.547h1.578V9.664H71.8v5.249a1.173,1.173,0,0,0,.211.763.888.888,0,0,0,.719.254,3.5,3.5,0,0,0,.688-.094V17a4.215,4.215,0,0,1-1.109.155,1.8,1.8,0,0,1-1.461-.586,2.517,2.517,0,0,1-.492-1.664V9.664H68.82V8.547h1.539V6.5Zm2.727,6.2a4.993,4.993,0,0,1,.488-2.234A3.643,3.643,0,0,1,76.379,8.93a3.7,3.7,0,0,1,1.988-.539,3.565,3.565,0,0,1,2.793,1.2,4.6,4.6,0,0,1,1.066,3.18v.1a5.036,5.036,0,0,1-.473,2.215A3.589,3.589,0,0,1,80.4,16.609a3.743,3.743,0,0,1-2.02.547,3.556,3.556,0,0,1-2.785-1.2A4.575,4.575,0,0,1,74.531,12.8Zm1.453.172a3.616,3.616,0,0,0,.652,2.258,2.211,2.211,0,0,0,3.5-.012,3.955,3.955,0,0,0,.648-2.418,3.61,3.61,0,0,0-.66-2.254,2.1,2.1,0,0,0-1.754-.863,2.075,2.075,0,0,0-1.727.852A3.925,3.925,0,0,0,75.984,12.867ZM27.773,33.391a4.185,4.185,0,0,1-1.332,2.785,4.365,4.365,0,0,1-2.98.98,4.008,4.008,0,0,1-3.23-1.445,5.815,5.815,0,0,1-1.215-3.867V30.75a6.481,6.481,0,0,1,.566-2.789,4.231,4.231,0,0,1,1.605-1.848,4.47,4.47,0,0,1,2.406-.645A4.11,4.11,0,0,1,26.5,26.48a4.235,4.235,0,0,1,1.273,2.8H26.266a3.268,3.268,0,0,0-.848-1.975,2.565,2.565,0,0,0-1.824-.611,2.684,2.684,0,0,0-2.254,1.063,4.882,4.882,0,0,0-.816,3.026v1.1a5.018,5.018,0,0,0,.773,2.948,2.5,2.5,0,0,0,2.164,1.095,2.886,2.886,0,0,0,1.918-.566,3.143,3.143,0,0,0,.887-1.973Zm1.438-.7a4.993,4.993,0,0,1,.488-2.234,3.643,3.643,0,0,1,1.359-1.531,3.7,3.7,0,0,1,1.988-.539,3.565,3.565,0,0,1,2.793,1.2,4.6,4.6,0,0,1,1.066,3.18v.1a5.036,5.036,0,0,1-.473,2.215,3.589,3.589,0,0,1-1.352,1.527,3.743,3.743,0,0,1-2.02.547,3.556,3.556,0,0,1-2.785-1.2A4.575,4.575,0,0,1,29.211,32.8Zm1.453.172a3.616,3.616,0,0,0,.652,2.258,2.211,2.211,0,0,0,3.5-.012,3.955,3.955,0,0,0,.648-2.418,3.61,3.61,0,0,0-.66-2.254,2.1,2.1,0,0,0-1.754-.863,2.075,2.075,0,0,0-1.727.852A3.925,3.925,0,0,0,30.664,32.867Zm9.422-4.32.047,1.063a3.08,3.08,0,0,1,2.531-1.219q2.68,0,2.7,3.023V37H43.922V31.406a1.946,1.946,0,0,0-.418-1.352,1.675,1.675,0,0,0-1.277-.437,2.086,2.086,0,0,0-1.234.375,2.546,2.546,0,0,0-.828.984V37H38.719V28.547Zm10.852,7.43a2.082,2.082,0,0,0,1.352-.469,1.649,1.649,0,0,0,.641-1.172H54.3a2.621,2.621,0,0,1-.5,1.383,3.293,3.293,0,0,1-1.23,1.047,3.55,3.55,0,0,1-1.629.391A3.482,3.482,0,0,1,48.191,36a4.59,4.59,0,0,1-1.02-3.152v-.242a5.089,5.089,0,0,1,.453-2.2,3.451,3.451,0,0,1,1.3-1.492,3.7,3.7,0,0,1,2-.531,3.39,3.39,0,0,1,2.363.852,3.043,3.043,0,0,1,1,2.211H52.93a1.992,1.992,0,0,0-.621-1.348,1.932,1.932,0,0,0-1.379-.527,2.023,2.023,0,0,0-1.707.793,3.724,3.724,0,0,0-.605,2.293v.273a3.65,3.65,0,0,0,.6,2.25A2.033,2.033,0,0,0,50.938,35.977Zm9.07-6.133a4.331,4.331,0,0,0-.711-.055A1.9,1.9,0,0,0,57.367,31v6H55.922V28.547h1.406l.023.977a2.251,2.251,0,0,1,2.016-1.133,1.477,1.477,0,0,1,.641.109Zm4.836,7.313a3.693,3.693,0,0,1-2.8-1.129,4.19,4.19,0,0,1-1.078-3.02v-.266a5.073,5.073,0,0,1,.48-2.246,3.748,3.748,0,0,1,1.344-1.547,3.378,3.378,0,0,1,1.871-.559,3.166,3.166,0,0,1,2.563,1.086,4.7,4.7,0,0,1,.914,3.109v.6H62.414a3,3,0,0,0,.73,2.02,2.3,2.3,0,0,0,1.777.77,2.517,2.517,0,0,0,1.3-.312,3.259,3.259,0,0,0,.93-.828l.883.688A3.55,3.55,0,0,1,64.844,37.156Zm-.18-7.578a1.928,1.928,0,0,0-1.469.637A3.1,3.1,0,0,0,62.461,32H66.7v-.109a2.753,2.753,0,0,0-.594-1.707A1.815,1.815,0,0,0,64.664,29.578ZM71.773,26.5v2.047h1.578v1.117H71.773v5.249a1.173,1.173,0,0,0,.211.763.888.888,0,0,0,.719.254,3.5,3.5,0,0,0,.688-.094V37a4.215,4.215,0,0,1-1.109.155,1.8,1.8,0,0,1-1.461-.586,2.517,2.517,0,0,1-.492-1.664V29.664H68.789V28.547h1.539V26.5ZM74.5,32.7a4.993,4.993,0,0,1,.488-2.234,3.643,3.643,0,0,1,1.359-1.531,3.7,3.7,0,0,1,1.988-.539,3.565,3.565,0,0,1,2.793,1.2,4.6,4.6,0,0,1,1.066,3.18v.1a5.036,5.036,0,0,1-.473,2.215,3.589,3.589,0,0,1-1.352,1.527,3.743,3.743,0,0,1-2.02.547,3.556,3.556,0,0,1-2.785-1.2A4.575,4.575,0,0,1,74.5,32.8Zm1.453.172a3.616,3.616,0,0,0,.652,2.258,2.211,2.211,0,0,0,3.5-.012A3.955,3.955,0,0,0,80.75,32.7a3.61,3.61,0,0,0-.66-2.254,2.1,2.1,0,0,0-1.754-.863,2.075,2.075,0,0,0-1.727.852A3.925,3.925,0,0,0,75.953,32.867ZM42.348,57V45.625h3.719a4.317,4.317,0,0,1,2.785.766,2.759,2.759,0,0,1,.934,2.266,2.31,2.31,0,0,1-.453,1.41,2.937,2.937,0,0,1-1.234.949,2.638,2.638,0,0,1,1.457.98,2.814,2.814,0,0,1,.535,1.723,3.042,3.042,0,0,1-.992,2.406,4.1,4.1,0,0,1-2.8.875Zm1.5-5.32v4.094h2.477a2.385,2.385,0,0,0,1.652-.543,1.907,1.907,0,0,0,.605-1.5q0-2.055-2.234-2.055Zm0-1.2h2.266a2.375,2.375,0,0,0,1.574-.493,1.654,1.654,0,0,0,.59-1.339,1.626,1.626,0,0,0-.547-1.366,2.686,2.686,0,0,0-1.664-.427H43.848ZM59.387,57H51.934V55.961l3.938-4.375a9.355,9.355,0,0,0,1.207-1.613,2.693,2.693,0,0,0,.332-1.285,2.041,2.041,0,0,0-.539-1.461,1.885,1.885,0,0,0-1.437-.57,2.232,2.232,0,0,0-1.676.613,2.343,2.343,0,0,0-.6,1.707H51.715a3.355,3.355,0,0,1,1.012-2.539,3.751,3.751,0,0,1,2.707-.969,3.6,3.6,0,0,1,2.508.832,2.838,2.838,0,0,1,.922,2.215q0,1.68-2.141,4l-3.047,3.3h5.711Z" transform="translate(1304.338 3666)" fill="#12263f"/>
    <path id="Trazado_218591" data-name="Trazado 218591" d="M31.645,11.977H26.871V17h-1.5V5.625h7.047V6.852H26.871v3.9h4.773ZM39.207,17a3.036,3.036,0,0,1-.2-.891A3.225,3.225,0,0,1,36.6,17.156a2.984,2.984,0,0,1-2.051-.707,2.287,2.287,0,0,1-.8-1.793,2.39,2.39,0,0,1,1-2.051,4.733,4.733,0,0,1,2.824-.73H38.98v-.664A1.623,1.623,0,0,0,38.527,10a1.821,1.821,0,0,0-1.336-.449,2.107,2.107,0,0,0-1.3.391,1.151,1.151,0,0,0-.523.945H33.918a2,2,0,0,1,.449-1.223,3.066,3.066,0,0,1,1.219-.934,4.1,4.1,0,0,1,1.691-.344,3.342,3.342,0,0,1,2.289.73,2.635,2.635,0,0,1,.859,2.012v3.891a4.757,4.757,0,0,0,.3,1.852V17Zm-2.4-1.1a2.54,2.54,0,0,0,1.289-.352,2.127,2.127,0,0,0,.883-.914V12.9H37.848q-2.656,0-2.656,1.555a1.316,1.316,0,0,0,.453,1.063A1.742,1.742,0,0,0,36.809,15.9ZM38.145,5h1.75L37.8,7.3l-1.164,0Zm11.7,7.867a5.026,5.026,0,0,1-.891,3.113,2.846,2.846,0,0,1-2.391,1.176,2.947,2.947,0,0,1-2.477-1.133L44.02,17H42.691V5h1.445V9.477a2.93,2.93,0,0,1,2.414-1.086,2.863,2.863,0,0,1,2.418,1.164,5.177,5.177,0,0,1,.879,3.188ZM48.4,12.7a3.906,3.906,0,0,0-.57-2.281,1.888,1.888,0,0,0-1.641-.8,2.122,2.122,0,0,0-2.055,1.328V14.6a2.181,2.181,0,0,0,2.07,1.328,1.878,1.878,0,0,0,1.617-.8A4.153,4.153,0,0,0,48.4,12.7Zm7.352-2.859a4.331,4.331,0,0,0-.711-.055A1.9,1.9,0,0,0,53.113,11v6H51.668V8.547h1.406l.023.977a2.251,2.251,0,0,1,2.016-1.133,1.477,1.477,0,0,1,.641.109ZM58.652,17H57.207V8.547h1.445ZM57.09,6.3a.863.863,0,0,1,.215-.594.807.807,0,0,1,.637-.242.819.819,0,0,1,.641.242A.854.854,0,0,1,58.8,6.3a.826.826,0,0,1-.219.586.834.834,0,0,1-.641.234.821.821,0,0,1-.637-.234A.834.834,0,0,1,57.09,6.3Zm7.266,9.672a2.082,2.082,0,0,0,1.352-.469,1.649,1.649,0,0,0,.641-1.172h1.367a2.621,2.621,0,0,1-.5,1.383,3.293,3.293,0,0,1-1.23,1.047,3.55,3.55,0,0,1-1.629.391A3.482,3.482,0,0,1,61.609,16a4.59,4.59,0,0,1-1.02-3.152v-.242a5.089,5.089,0,0,1,.453-2.2,3.451,3.451,0,0,1,1.3-1.492,3.7,3.7,0,0,1,2-.531,3.39,3.39,0,0,1,2.363.852,3.043,3.043,0,0,1,1,2.211H66.348a1.992,1.992,0,0,0-.621-1.348,1.932,1.932,0,0,0-1.379-.527,2.023,2.023,0,0,0-1.707.793,3.724,3.724,0,0,0-.605,2.293v.273a3.65,3.65,0,0,0,.6,2.25A2.033,2.033,0,0,0,64.355,15.977ZM74.559,17a3.036,3.036,0,0,1-.2-.891,3.225,3.225,0,0,1-2.406,1.047,2.984,2.984,0,0,1-2.051-.707,2.288,2.288,0,0,1-.8-1.793,2.39,2.39,0,0,1,1-2.051,4.733,4.733,0,0,1,2.824-.73h1.406v-.664A1.623,1.623,0,0,0,73.879,10a1.821,1.821,0,0,0-1.336-.449,2.108,2.108,0,0,0-1.3.391,1.151,1.151,0,0,0-.523.945H69.27a2,2,0,0,1,.449-1.223,3.066,3.066,0,0,1,1.219-.934,4.1,4.1,0,0,1,1.691-.344,3.342,3.342,0,0,1,2.289.73,2.635,2.635,0,0,1,.859,2.012v3.891a4.757,4.757,0,0,0,.3,1.852V17Zm-2.4-1.1a2.54,2.54,0,0,0,1.289-.352,2.127,2.127,0,0,0,.883-.914V12.9H73.2q-2.656,0-2.656,1.555A1.316,1.316,0,0,0,71,15.516,1.742,1.742,0,0,0,72.16,15.9ZM21.434,33.391A4.185,4.185,0,0,1,20.1,36.176a4.365,4.365,0,0,1-2.98.98,4.008,4.008,0,0,1-3.23-1.445,5.815,5.815,0,0,1-1.215-3.867V30.75a6.481,6.481,0,0,1,.566-2.789,4.231,4.231,0,0,1,1.605-1.848,4.47,4.47,0,0,1,2.406-.645A4.11,4.11,0,0,1,20.16,26.48a4.235,4.235,0,0,1,1.273,2.8H19.926a3.268,3.268,0,0,0-.848-1.975,2.565,2.565,0,0,0-1.824-.611A2.684,2.684,0,0,0,15,27.759a4.882,4.882,0,0,0-.816,3.026v1.1a5.018,5.018,0,0,0,.773,2.948,2.5,2.5,0,0,0,2.164,1.095,2.886,2.886,0,0,0,1.918-.566,3.143,3.143,0,0,0,.887-1.973Zm1.438-.7a4.993,4.993,0,0,1,.488-2.234,3.643,3.643,0,0,1,1.359-1.531,3.7,3.7,0,0,1,1.988-.539,3.565,3.565,0,0,1,2.793,1.2,4.6,4.6,0,0,1,1.066,3.18v.1a5.036,5.036,0,0,1-.473,2.215,3.589,3.589,0,0,1-1.352,1.527,3.743,3.743,0,0,1-2.02.547,3.556,3.556,0,0,1-2.785-1.2A4.575,4.575,0,0,1,22.871,32.8Zm1.453.172a3.616,3.616,0,0,0,.652,2.258,2.211,2.211,0,0,0,3.5-.012,3.955,3.955,0,0,0,.648-2.418,3.61,3.61,0,0,0-.66-2.254,2.1,2.1,0,0,0-1.754-.863,2.075,2.075,0,0,0-1.727.852A3.925,3.925,0,0,0,24.324,32.867Zm9.422-4.32.047,1.063a3.08,3.08,0,0,1,2.531-1.219q2.68,0,2.7,3.023V37H37.582V31.406a1.946,1.946,0,0,0-.418-1.352,1.675,1.675,0,0,0-1.277-.437,2.086,2.086,0,0,0-1.234.375,2.546,2.546,0,0,0-.828.984V37H32.379V28.547ZM44.6,35.977a2.082,2.082,0,0,0,1.352-.469,1.649,1.649,0,0,0,.641-1.172h1.367a2.621,2.621,0,0,1-.5,1.383,3.293,3.293,0,0,1-1.23,1.047,3.55,3.55,0,0,1-1.629.391A3.482,3.482,0,0,1,41.852,36a4.59,4.59,0,0,1-1.02-3.152v-.242a5.089,5.089,0,0,1,.453-2.2,3.451,3.451,0,0,1,1.3-1.492,3.7,3.7,0,0,1,2-.531,3.39,3.39,0,0,1,2.363.852,3.043,3.043,0,0,1,1,2.211H46.59a1.992,1.992,0,0,0-.621-1.348,1.932,1.932,0,0,0-1.379-.527,2.023,2.023,0,0,0-1.707.793,3.724,3.724,0,0,0-.605,2.293v.273a3.65,3.65,0,0,0,.6,2.25A2.033,2.033,0,0,0,44.6,35.977Zm9.07-6.133a4.331,4.331,0,0,0-.711-.055A1.9,1.9,0,0,0,51.027,31v6H49.582V28.547h1.406l.023.977a2.251,2.251,0,0,1,2.016-1.133,1.477,1.477,0,0,1,.641.109ZM58.5,37.156a3.693,3.693,0,0,1-2.8-1.129,4.19,4.19,0,0,1-1.078-3.02v-.266a5.073,5.073,0,0,1,.48-2.246,3.748,3.748,0,0,1,1.344-1.547,3.378,3.378,0,0,1,1.871-.559,3.166,3.166,0,0,1,2.563,1.086,4.7,4.7,0,0,1,.914,3.109v.6H56.074a3,3,0,0,0,.73,2.02,2.3,2.3,0,0,0,1.777.77,2.517,2.517,0,0,0,1.3-.312,3.258,3.258,0,0,0,.93-.828l.883.688A3.55,3.55,0,0,1,58.5,37.156Zm-.18-7.578a1.928,1.928,0,0,0-1.469.637A3.1,3.1,0,0,0,56.121,32h4.234v-.109a2.753,2.753,0,0,0-.594-1.707A1.815,1.815,0,0,0,58.324,29.578ZM65.434,26.5v2.047h1.578v1.117H65.434v5.249a1.173,1.173,0,0,0,.211.763.888.888,0,0,0,.719.254,3.5,3.5,0,0,0,.688-.094V37a4.215,4.215,0,0,1-1.109.155,1.8,1.8,0,0,1-1.461-.586,2.517,2.517,0,0,1-.492-1.664V29.664H62.449V28.547h1.539V26.5ZM73.918,37a3.036,3.036,0,0,1-.2-.891,3.225,3.225,0,0,1-2.406,1.047,2.984,2.984,0,0,1-2.051-.707,2.288,2.288,0,0,1-.8-1.793,2.39,2.39,0,0,1,1-2.051,4.733,4.733,0,0,1,2.824-.73h1.406v-.664A1.623,1.623,0,0,0,73.238,30a1.821,1.821,0,0,0-1.336-.449,2.108,2.108,0,0,0-1.3.391,1.151,1.151,0,0,0-.523.945H68.629a2,2,0,0,1,.449-1.223,3.066,3.066,0,0,1,1.219-.934,4.1,4.1,0,0,1,1.691-.344,3.342,3.342,0,0,1,2.289.73,2.635,2.635,0,0,1,.859,2.012v3.891a4.757,4.757,0,0,0,.3,1.852V37Zm-2.4-1.1a2.54,2.54,0,0,0,1.289-.352,2.127,2.127,0,0,0,.883-.914V32.9H72.559q-2.656,0-2.656,1.555a1.316,1.316,0,0,0,.453,1.063A1.742,1.742,0,0,0,71.52,35.9ZM88.668,37H81.215V35.961l3.938-4.375a9.354,9.354,0,0,0,1.207-1.613,2.693,2.693,0,0,0,.332-1.285,2.041,2.041,0,0,0-.539-1.461,1.885,1.885,0,0,0-1.437-.57,2.232,2.232,0,0,0-1.676.613,2.343,2.343,0,0,0-.6,1.707H81a3.355,3.355,0,0,1,1.012-2.539,3.751,3.751,0,0,1,2.707-.969,3.6,3.6,0,0,1,2.508.832,2.838,2.838,0,0,1,.922,2.215q0,1.68-2.141,4l-3.047,3.3h5.711Z" transform="translate(814.338 3578)" fill="#12263f"/>
    <path id="Trazado_218573" data-name="Trazado 218573" d="M31.645,11.977H26.871V17h-1.5V5.625h7.047V6.852H26.871v3.9h4.773ZM39.207,17a3.036,3.036,0,0,1-.2-.891A3.225,3.225,0,0,1,36.6,17.156a2.984,2.984,0,0,1-2.051-.707,2.287,2.287,0,0,1-.8-1.793,2.39,2.39,0,0,1,1-2.051,4.733,4.733,0,0,1,2.824-.73H38.98v-.664A1.623,1.623,0,0,0,38.527,10a1.821,1.821,0,0,0-1.336-.449,2.107,2.107,0,0,0-1.3.391,1.151,1.151,0,0,0-.523.945H33.918a2,2,0,0,1,.449-1.223,3.066,3.066,0,0,1,1.219-.934,4.1,4.1,0,0,1,1.691-.344,3.342,3.342,0,0,1,2.289.73,2.635,2.635,0,0,1,.859,2.012v3.891a4.757,4.757,0,0,0,.3,1.852V17Zm-2.4-1.1a2.54,2.54,0,0,0,1.289-.352,2.127,2.127,0,0,0,.883-.914V12.9H37.848q-2.656,0-2.656,1.555a1.316,1.316,0,0,0,.453,1.063A1.742,1.742,0,0,0,36.809,15.9ZM38.145,5h1.75L37.8,7.3l-1.164,0Zm11.7,7.867a5.026,5.026,0,0,1-.891,3.113,2.846,2.846,0,0,1-2.391,1.176,2.947,2.947,0,0,1-2.477-1.133L44.02,17H42.691V5h1.445V9.477a2.93,2.93,0,0,1,2.414-1.086,2.863,2.863,0,0,1,2.418,1.164,5.177,5.177,0,0,1,.879,3.188ZM48.4,12.7a3.906,3.906,0,0,0-.57-2.281,1.888,1.888,0,0,0-1.641-.8,2.122,2.122,0,0,0-2.055,1.328V14.6a2.181,2.181,0,0,0,2.07,1.328,1.878,1.878,0,0,0,1.617-.8A4.153,4.153,0,0,0,48.4,12.7Zm7.352-2.859a4.331,4.331,0,0,0-.711-.055A1.9,1.9,0,0,0,53.113,11v6H51.668V8.547h1.406l.023.977a2.251,2.251,0,0,1,2.016-1.133,1.477,1.477,0,0,1,.641.109ZM58.652,17H57.207V8.547h1.445ZM57.09,6.3a.863.863,0,0,1,.215-.594.807.807,0,0,1,.637-.242.819.819,0,0,1,.641.242A.854.854,0,0,1,58.8,6.3a.826.826,0,0,1-.219.586.834.834,0,0,1-.641.234.821.821,0,0,1-.637-.234A.834.834,0,0,1,57.09,6.3Zm7.266,9.672a2.082,2.082,0,0,0,1.352-.469,1.649,1.649,0,0,0,.641-1.172h1.367a2.621,2.621,0,0,1-.5,1.383,3.293,3.293,0,0,1-1.23,1.047,3.55,3.55,0,0,1-1.629.391A3.482,3.482,0,0,1,61.609,16a4.59,4.59,0,0,1-1.02-3.152v-.242a5.089,5.089,0,0,1,.453-2.2,3.451,3.451,0,0,1,1.3-1.492,3.7,3.7,0,0,1,2-.531,3.39,3.39,0,0,1,2.363.852,3.043,3.043,0,0,1,1,2.211H66.348a1.992,1.992,0,0,0-.621-1.348,1.932,1.932,0,0,0-1.379-.527,2.023,2.023,0,0,0-1.707.793,3.724,3.724,0,0,0-.605,2.293v.273a3.65,3.65,0,0,0,.6,2.25A2.033,2.033,0,0,0,64.355,15.977ZM74.559,17a3.036,3.036,0,0,1-.2-.891,3.225,3.225,0,0,1-2.406,1.047,2.984,2.984,0,0,1-2.051-.707,2.288,2.288,0,0,1-.8-1.793,2.39,2.39,0,0,1,1-2.051,4.733,4.733,0,0,1,2.824-.73h1.406v-.664A1.623,1.623,0,0,0,73.879,10a1.821,1.821,0,0,0-1.336-.449,2.108,2.108,0,0,0-1.3.391,1.151,1.151,0,0,0-.523.945H69.27a2,2,0,0,1,.449-1.223,3.066,3.066,0,0,1,1.219-.934,4.1,4.1,0,0,1,1.691-.344,3.342,3.342,0,0,1,2.289.73,2.635,2.635,0,0,1,.859,2.012v3.891a4.757,4.757,0,0,0,.3,1.852V17Zm-2.4-1.1a2.54,2.54,0,0,0,1.289-.352,2.127,2.127,0,0,0,.883-.914V12.9H73.2q-2.656,0-2.656,1.555A1.316,1.316,0,0,0,71,15.516,1.742,1.742,0,0,0,72.16,15.9ZM21.434,33.391A4.185,4.185,0,0,1,20.1,36.176a4.365,4.365,0,0,1-2.98.98,4.008,4.008,0,0,1-3.23-1.445,5.815,5.815,0,0,1-1.215-3.867V30.75a6.481,6.481,0,0,1,.566-2.789,4.231,4.231,0,0,1,1.605-1.848,4.47,4.47,0,0,1,2.406-.645A4.11,4.11,0,0,1,20.16,26.48a4.235,4.235,0,0,1,1.273,2.8H19.926a3.268,3.268,0,0,0-.848-1.975,2.565,2.565,0,0,0-1.824-.611A2.684,2.684,0,0,0,15,27.759a4.882,4.882,0,0,0-.816,3.026v1.1a5.018,5.018,0,0,0,.773,2.948,2.5,2.5,0,0,0,2.164,1.095,2.886,2.886,0,0,0,1.918-.566,3.143,3.143,0,0,0,.887-1.973Zm1.438-.7a4.993,4.993,0,0,1,.488-2.234,3.643,3.643,0,0,1,1.359-1.531,3.7,3.7,0,0,1,1.988-.539,3.565,3.565,0,0,1,2.793,1.2,4.6,4.6,0,0,1,1.066,3.18v.1a5.036,5.036,0,0,1-.473,2.215,3.589,3.589,0,0,1-1.352,1.527,3.743,3.743,0,0,1-2.02.547,3.556,3.556,0,0,1-2.785-1.2A4.575,4.575,0,0,1,22.871,32.8Zm1.453.172a3.616,3.616,0,0,0,.652,2.258,2.211,2.211,0,0,0,3.5-.012,3.955,3.955,0,0,0,.648-2.418,3.61,3.61,0,0,0-.66-2.254,2.1,2.1,0,0,0-1.754-.863,2.075,2.075,0,0,0-1.727.852A3.925,3.925,0,0,0,24.324,32.867Zm9.422-4.32.047,1.063a3.08,3.08,0,0,1,2.531-1.219q2.68,0,2.7,3.023V37H37.582V31.406a1.946,1.946,0,0,0-.418-1.352,1.675,1.675,0,0,0-1.277-.437,2.086,2.086,0,0,0-1.234.375,2.546,2.546,0,0,0-.828.984V37H32.379V28.547ZM44.6,35.977a2.082,2.082,0,0,0,1.352-.469,1.649,1.649,0,0,0,.641-1.172h1.367a2.621,2.621,0,0,1-.5,1.383,3.293,3.293,0,0,1-1.23,1.047,3.55,3.55,0,0,1-1.629.391A3.482,3.482,0,0,1,41.852,36a4.59,4.59,0,0,1-1.02-3.152v-.242a5.089,5.089,0,0,1,.453-2.2,3.451,3.451,0,0,1,1.3-1.492,3.7,3.7,0,0,1,2-.531,3.39,3.39,0,0,1,2.363.852,3.043,3.043,0,0,1,1,2.211H46.59a1.992,1.992,0,0,0-.621-1.348,1.932,1.932,0,0,0-1.379-.527,2.023,2.023,0,0,0-1.707.793,3.724,3.724,0,0,0-.605,2.293v.273a3.65,3.65,0,0,0,.6,2.25A2.033,2.033,0,0,0,44.6,35.977Zm9.07-6.133a4.331,4.331,0,0,0-.711-.055A1.9,1.9,0,0,0,51.027,31v6H49.582V28.547h1.406l.023.977a2.251,2.251,0,0,1,2.016-1.133,1.477,1.477,0,0,1,.641.109ZM58.5,37.156a3.693,3.693,0,0,1-2.8-1.129,4.19,4.19,0,0,1-1.078-3.02v-.266a5.073,5.073,0,0,1,.48-2.246,3.748,3.748,0,0,1,1.344-1.547,3.378,3.378,0,0,1,1.871-.559,3.166,3.166,0,0,1,2.563,1.086,4.7,4.7,0,0,1,.914,3.109v.6H56.074a3,3,0,0,0,.73,2.02,2.3,2.3,0,0,0,1.777.77,2.517,2.517,0,0,0,1.3-.312,3.258,3.258,0,0,0,.93-.828l.883.688A3.55,3.55,0,0,1,58.5,37.156Zm-.18-7.578a1.928,1.928,0,0,0-1.469.637A3.1,3.1,0,0,0,56.121,32h4.234v-.109a2.753,2.753,0,0,0-.594-1.707A1.815,1.815,0,0,0,58.324,29.578ZM65.434,26.5v2.047h1.578v1.117H65.434v5.249a1.173,1.173,0,0,0,.211.763.888.888,0,0,0,.719.254,3.5,3.5,0,0,0,.688-.094V37a4.215,4.215,0,0,1-1.109.155,1.8,1.8,0,0,1-1.461-.586,2.517,2.517,0,0,1-.492-1.664V29.664H62.449V28.547h1.539V26.5ZM73.918,37a3.036,3.036,0,0,1-.2-.891,3.225,3.225,0,0,1-2.406,1.047,2.984,2.984,0,0,1-2.051-.707,2.288,2.288,0,0,1-.8-1.793,2.39,2.39,0,0,1,1-2.051,4.733,4.733,0,0,1,2.824-.73h1.406v-.664A1.623,1.623,0,0,0,73.238,30a1.821,1.821,0,0,0-1.336-.449,2.108,2.108,0,0,0-1.3.391,1.151,1.151,0,0,0-.523.945H68.629a2,2,0,0,1,.449-1.223,3.066,3.066,0,0,1,1.219-.934,4.1,4.1,0,0,1,1.691-.344,3.342,3.342,0,0,1,2.289.73,2.635,2.635,0,0,1,.859,2.012v3.891a4.757,4.757,0,0,0,.3,1.852V37Zm-2.4-1.1a2.54,2.54,0,0,0,1.289-.352,2.127,2.127,0,0,0,.883-.914V32.9H72.559q-2.656,0-2.656,1.555a1.316,1.316,0,0,0,.453,1.063A1.742,1.742,0,0,0,71.52,35.9ZM88.668,37H81.215V35.961l3.938-4.375a9.354,9.354,0,0,0,1.207-1.613,2.693,2.693,0,0,0,.332-1.285,2.041,2.041,0,0,0-.539-1.461,1.885,1.885,0,0,0-1.437-.57,2.232,2.232,0,0,0-1.676.613,2.343,2.343,0,0,0-.6,1.707H81a3.355,3.355,0,0,1,1.012-2.539,3.751,3.751,0,0,1,2.707-.969,3.6,3.6,0,0,1,2.508.832,2.838,2.838,0,0,1,.922,2.215q0,1.68-2.141,4l-3.047,3.3h5.711Z" transform="translate(1254.338 3578)" fill="#12263f"/>
    <g id="Grupo_105711" data-name="Grupo 105711" transform="translate(758.491 3569.011) rotate(-139)" opacity="0.6">
      <g id="Grupo_99295" data-name="Grupo 99295" transform="translate(0 5.177)">
        <path id="Polgono_36" data-name="Polgono 36" d="M6.6,0l6.6,11H0Z" transform="translate(13.2 57.084) rotate(180)" fill="#12263f"/>
        <rect id="Rectngulo_42834" data-name="Rectngulo 42834" width="4.4" height="8.819" transform="translate(4.4 38.385)" fill="#12263f"/>
        <rect id="Rectngulo_45228" data-name="Rectngulo 45228" width="4.4" height="8.819" transform="translate(4.4 24.239)" fill="#12263f"/>
        <rect id="Rectngulo_45229" data-name="Rectngulo 45229" width="4.4" height="7.563" transform="translate(4.4 11.622)" fill="#12263f"/>
        <rect id="Rectngulo_45230" data-name="Rectngulo 45230" width="4.4" height="7.237" transform="translate(4.4 0)" fill="#12263f"/>
      </g>
    </g>
    <g id="Grupo_105714" data-name="Grupo 105714" transform="translate(1124.904 3569.011) rotate(-139)" opacity="0.6">
      <g id="Grupo_99295-2" data-name="Grupo 99295" transform="translate(0 5.177)">
        <path id="Polgono_36-2" data-name="Polgono 36" d="M6.6,0l6.6,11H0Z" transform="translate(13.2 57.084) rotate(180)" fill="#12263f"/>
        <rect id="Rectngulo_42834-2" data-name="Rectngulo 42834" width="4.4" height="8.819" transform="translate(4.4 38.385)" fill="#12263f"/>
        <rect id="Rectngulo_45228-2" data-name="Rectngulo 45228" width="4.4" height="8.819" transform="translate(4.4 24.239)" fill="#12263f"/>
        <rect id="Rectngulo_45229-2" data-name="Rectngulo 45229" width="4.4" height="7.563" transform="translate(4.4 11.622)" fill="#12263f"/>
        <rect id="Rectngulo_45230-2" data-name="Rectngulo 45230" width="4.4" height="7.237" transform="translate(4.4 0)" fill="#12263f"/>
      </g>
    </g>
    <g id="Grupo_105712" data-name="Grupo 105712" transform="translate(817.426 3522.022) rotate(-41)" opacity="0.6">
      <g id="Grupo_99295-3" data-name="Grupo 99295" transform="translate(0 0)">
        <path id="Polgono_36-3" data-name="Polgono 36" d="M6.6,0l6.6,11H0Z" transform="translate(0 0)" fill="#12263f"/>
        <rect id="Rectngulo_42834-3" data-name="Rectngulo 42834" width="4.4" height="8.819" transform="translate(4.4 9.88)" fill="#12263f"/>
        <rect id="Rectngulo_45228-3" data-name="Rectngulo 45228" width="4.4" height="8.819" transform="translate(4.4 24.026)" fill="#12263f"/>
        <rect id="Rectngulo_45229-3" data-name="Rectngulo 45229" width="4.4" height="7.563" transform="translate(4.4 37.898)" fill="#12263f"/>
        <rect id="Rectngulo_45230-3" data-name="Rectngulo 45230" width="4.4" height="7.236" transform="translate(4.4 49.847)" fill="#12263f"/>
      </g>
    </g>
    <g id="Grupo_105715" data-name="Grupo 105715" transform="translate(1264.926 3522.022) rotate(-41)" opacity="0.6">
      <g id="Grupo_99295-4" data-name="Grupo 99295" transform="translate(0 0)">
        <path id="Polgono_36-4" data-name="Polgono 36" d="M6.6,0l6.6,11H0Z" transform="translate(0 0)" fill="#12263f"/>
        <rect id="Rectngulo_42834-4" data-name="Rectngulo 42834" width="4.4" height="8.819" transform="translate(4.4 9.88)" fill="#12263f"/>
        <rect id="Rectngulo_45228-4" data-name="Rectngulo 45228" width="4.4" height="8.819" transform="translate(4.4 24.026)" fill="#12263f"/>
        <rect id="Rectngulo_45229-4" data-name="Rectngulo 45229" width="4.4" height="7.563" transform="translate(4.4 37.898)" fill="#12263f"/>
        <rect id="Rectngulo_45230-4" data-name="Rectngulo 45230" width="4.4" height="7.236" transform="translate(4.4 49.847)" fill="#12263f"/>
      </g>
    </g>
    <g id="Grupo_105713" data-name="Grupo 105713" transform="translate(1122.346 3475) rotate(90)" opacity="0.6">
      <g id="Grupo_99295-5" data-name="Grupo 99295" transform="translate(0)">
        <path id="Polgono_36-5" data-name="Polgono 36" d="M6.6,0l6.6,11H0Z" fill="#12263f"/>
        <rect id="Rectngulo_42834-5" data-name="Rectngulo 42834" width="4.4" height="220.23" transform="translate(4.4 9.778)" fill="#12263f"/>
      </g>
    </g>
    <path id="Trazado_216576" data-name="Trazado 216576" d="M1008.669-9076.927v-11.491h49.339v-11.275" transform="translate(64.338 12732)" fill="none" stroke="#707070" stroke-width="1"/>
    <path id="Trazado_216580" data-name="Trazado 216580" d="M1008.669-9076.927v-11.491h49.339v-11.275" transform="translate(251.169 12732)" fill="none" stroke="#707070" stroke-width="1"/>
    <path id="Trazado_216577" data-name="Trazado 216577" d="M1058.008-9076.927v-11.491h-49.339v-11.275" transform="translate(113.677 12732)" fill="none" stroke="#707070" stroke-width="1"/>
    <path id="Trazado_216581" data-name="Trazado 216581" d="M1058.008-9076.927v-11.491h-49.339v-11.275" transform="translate(300.508 12732)" fill="none" stroke="#707070" stroke-width="1"/>
    <path id="Trazado_216578" data-name="Trazado 216578" d="M1197.5-8973.008v51.408H684.2v-178.6" transform="translate(64.338 12732)" fill="none" stroke="#ffa726" stroke-width="2" stroke-dasharray="2 2"/>
    <path id="Trazado_216579" data-name="Trazado 216579" d="M1174.7-8989.336v20.586H684.2V-9100.2" transform="translate(180.638 12732)" fill="none" stroke="#707070" stroke-width="2" stroke-dasharray="2 2"/>
    <path id="Trazado_218584" data-name="Trazado 218584" d="M6.6,0l6.6,11H0Z" transform="translate(1255.238 3733)" fill="#ffa726"/>
    <path id="Trazado_218583" data-name="Trazado 218583" d="M6.6,0l6.6,11H0Z" transform="translate(1348.738 3731)" fill="#727997"/>
    <path id="Trazado_216582" data-name="Trazado 216582" d="M1008.669-8993.5v49.5H684.4" transform="translate(64.338 12732)" fill="none" stroke="#ffa726" stroke-width="2" stroke-dasharray="2"/>
    <path id="Trazado_218585" data-name="Trazado 218585" d="M0,0V26" transform="translate(1168.838 3737.5)" fill="none" stroke="#707070" stroke-width="2" stroke-dasharray="2"/>
    <path id="Trazado_218586" data-name="Trazado 218586" d="M6.6,0l6.6,11H0Z" transform="translate(1162.238 3733)" fill="#727997"/>
    <path id="Trazado_218589" data-name="Trazado 218589" d="M6.6,0l6.6,11H0Z" transform="translate(1066.407 3733)" fill="#ffa726"/>
  </g>
</svg>
