<?xml version="1.0" encoding="utf-8"?>
<!-- Generator: Adobe Illustrator 25.4.2, SVG Export Plug-In . SVG Version: 6.00 Build 0)  -->
<svg version="1.1" id="Capa_1" xmlns="http://www.w3.org/2000/svg" xmlns:xlink="http://www.w3.org/1999/xlink" x="0px" y="0px"
	 viewBox="0 0 319.2 74" style="enable-background:new 0 0 319.2 74;" xml:space="preserve">
<style type="text/css">
	.st0{fill:#FFFFFF;}
	.st1{fill:#12263F;}
	.st2{enable-background:new    ;}
</style>
<g id="Grupo_106886" transform="translate(-890.828 -1209)">
	<g id="Trazado_218225" transform="translate(915 1209)">
		<path class="st0" d="M290,73H5c-2.2,0-4-1.8-4-4V5c0-2.2,1.8-4,4-4h285c2.2,0,4,1.8,4,4v64C294,71.2,292.2,73,290,73z"/>
		<path class="st1" d="M5,2C3.3,2,2,3.3,2,5v64c0,1.7,1.3,3,3,3h285c1.7,0,3-1.3,3-3V5c0-1.7-1.3-3-3-3H5 M5,0h285c2.8,0,5,2.2,5,5
			v64c0,2.8-2.2,5-5,5H5c-2.8,0-5-2.2-5-5V5C0,2.2,2.2,0,5,0z"/>
	</g>
	<g id="Trazado_218226" transform="translate(890.828 1227)">
		<path class="st0" d="M48.9,15H1c0,0,0,0,0-0.1V1.1C1,1,1,1,1,1h47.9c0,0,0,0,0,0.1L48.9,15C48.9,15,48.9,15,48.9,15z"/>
		<path class="st1" d="M2,2v12h45.9V2H2 M0.8,0h48.3c0.5,0,0.8,0.5,0.8,1.1v13.8c0,0.6-0.4,1.1-0.8,1.1H0.8C0.4,16,0,15.5,0,14.9
			V1.1C0,0.5,0.4,0,0.8,0z"/>
	</g>
	<g id="Trazado_218227" transform="translate(890.828 1254)">
		<path class="st0" d="M48.9,15H1c0,0,0,0,0-0.1V1.1C1,1,1,1,1,1h47.9c0,0,0,0,0,0.1L48.9,15C48.9,15,48.9,15,48.9,15z"/>
		<path class="st1" d="M2,2v12h45.9V2H2 M0.8,0h48.3c0.5,0,0.8,0.5,0.8,1.1v13.8c0,0.6-0.4,1.1-0.8,1.1H0.8C0.4,16,0,15.5,0,14.9
			V1.1C0,0.5,0.4,0,0.8,0z"/>
	</g>
	<g class="st2">
		<path class="st1" d="M1027.1,1246.8c-0.1,1.5-0.7,2.7-1.7,3.6s-2.4,1.3-4,1.3c-1.8,0-3.3-0.6-4.3-1.8s-1.6-2.9-1.6-5.1v-0.9
			c0-1.4,0.2-2.6,0.7-3.6s1.2-1.8,2.1-2.4s1.9-0.8,3.1-0.8c1.6,0,3,0.4,4,1.3s1.6,2.1,1.7,3.7h-2.9c-0.1-0.9-0.3-1.6-0.8-2
			s-1.1-0.6-2-0.6c-1,0-1.7,0.3-2.2,1s-0.7,1.8-0.7,3.3v1.1c0,1.5,0.2,2.7,0.7,3.4s1.2,1.1,2.2,1.1c0.9,0,1.6-0.2,2-0.6
			s0.7-1.1,0.8-1.9H1027.1z"/>
		<path class="st1" d="M1028.4,1246.1c0-1,0.2-2,0.6-2.8s1-1.5,1.7-1.9s1.6-0.7,2.6-0.7c1.4,0,2.6,0.4,3.5,1.3s1.4,2.1,1.5,3.6
			l0,0.7c0,1.6-0.5,2.9-1.4,3.9s-2.1,1.5-3.6,1.5s-2.7-0.5-3.6-1.5s-1.4-2.3-1.4-4V1246.1z M1031.3,1246.3c0,1,0.2,1.8,0.6,2.3
			s0.9,0.8,1.6,0.8c0.7,0,1.2-0.3,1.6-0.8c0.4-0.5,0.6-1.4,0.6-2.5c0-1-0.2-1.7-0.6-2.3s-0.9-0.8-1.6-0.8c-0.7,0-1.2,0.3-1.6,0.8
			S1031.3,1245.2,1031.3,1246.3z"/>
		<path class="st1" d="M1042.8,1240.9l0.1,1.2c0.7-0.9,1.8-1.4,3-1.4c1.4,0,2.3,0.5,2.8,1.6c0.7-1.1,1.8-1.6,3.2-1.6
			c1.1,0,2,0.3,2.6,1c0.6,0.7,0.8,1.7,0.8,3v6.7h-2.8v-6.7c0-0.6-0.1-1-0.4-1.3s-0.6-0.4-1.2-0.4c-0.8,0-1.4,0.4-1.8,1.2l0,7.3h-2.8
			v-6.7c0-0.6-0.1-1.1-0.4-1.3s-0.7-0.4-1.2-0.4c-0.8,0-1.4,0.3-1.7,1v7.5h-2.8v-10.6H1042.8z"/>
		<path class="st1" d="M1067,1246.3c0,1.6-0.4,2.9-1.1,3.9c-0.7,1-1.7,1.5-3,1.5c-1.1,0-1.9-0.4-2.6-1.1v5h-2.8v-14.6h2.6l0.1,1
			c0.7-0.8,1.6-1.2,2.7-1.2c1.3,0,2.3,0.5,3,1.4s1.1,2.3,1.1,4V1246.3z M1064.2,1246.1c0-1-0.2-1.7-0.5-2.3
			c-0.3-0.5-0.9-0.8-1.5-0.8c-0.9,0-1.5,0.3-1.8,1v4.3c0.3,0.7,1,1,1.8,1C1063.5,1249.4,1064.2,1248.3,1064.2,1246.1z"/>
		<path class="st1" d="M1068.3,1246.1c0-1,0.2-2,0.6-2.8c0.4-0.8,1-1.5,1.7-1.9c0.8-0.4,1.6-0.7,2.6-0.7c1.4,0,2.6,0.4,3.5,1.3
			c0.9,0.9,1.4,2.1,1.5,3.6l0,0.7c0,1.6-0.5,2.9-1.4,3.9c-0.9,1-2.1,1.5-3.6,1.5s-2.7-0.5-3.6-1.5s-1.4-2.3-1.4-4V1246.1z
			 M1071.1,1246.3c0,1,0.2,1.8,0.6,2.3c0.4,0.5,0.9,0.8,1.6,0.8c0.7,0,1.2-0.3,1.6-0.8c0.4-0.5,0.6-1.4,0.6-2.5c0-1-0.2-1.7-0.6-2.3
			c-0.4-0.5-0.9-0.8-1.6-0.8c-0.7,0-1.2,0.3-1.6,0.8C1071.3,1244.4,1071.1,1245.2,1071.1,1246.3z"/>
		<path class="st1" d="M1082.7,1240.9l0.1,1.2c0.8-0.9,1.8-1.4,3-1.4c1.1,0,2,0.3,2.5,1s0.8,1.6,0.8,2.9v6.8h-2.8v-6.8
			c0-0.6-0.1-1-0.4-1.3c-0.3-0.3-0.7-0.4-1.3-0.4c-0.8,0-1.4,0.3-1.8,1v7.5h-2.8v-10.6H1082.7z"/>
		<path class="st1" d="M1096.1,1251.7c-1.5,0-2.8-0.5-3.8-1.4c-1-1-1.5-2.2-1.5-3.8v-0.3c0-1.1,0.2-2,0.6-2.8s1-1.5,1.7-1.9
			s1.6-0.7,2.6-0.7c1.4,0,2.6,0.5,3.4,1.4s1.2,2.2,1.2,3.9v1.2h-6.7c0.1,0.7,0.4,1.2,0.8,1.7s1,0.6,1.7,0.6c1.1,0,1.9-0.4,2.5-1.2
			l1.4,1.6c-0.4,0.6-1,1.1-1.7,1.4S1097,1251.7,1096.1,1251.7z M1095.8,1243c-0.6,0-1,0.2-1.4,0.6c-0.3,0.4-0.6,0.9-0.7,1.6h3.9
			v-0.2c0-0.6-0.2-1.1-0.5-1.5C1096.9,1243.2,1096.4,1243,1095.8,1243z"/>
		<path class="st1" d="M1104.7,1240.9l0.1,1.2c0.8-0.9,1.8-1.4,3-1.4c1.1,0,2,0.3,2.5,1s0.8,1.6,0.8,2.9v6.8h-2.8v-6.8
			c0-0.6-0.1-1-0.4-1.3c-0.3-0.3-0.7-0.4-1.3-0.4c-0.8,0-1.4,0.3-1.8,1v7.5h-2.8v-10.6H1104.7z"/>
		<path class="st1" d="M1116.7,1238.3v2.6h1.8v2.1h-1.8v5.3c0,0.4,0.1,0.7,0.2,0.8c0.1,0.2,0.4,0.3,0.9,0.3c0.3,0,0.6,0,0.8-0.1v2.1
			c-0.6,0.2-1.1,0.3-1.7,0.3c-2,0-3-1-3-3v-5.7h-1.5v-2.1h1.5v-2.6H1116.7z"/>
		<path class="st1" d="M1124.9,1251.7c-1.5,0-2.8-0.5-3.8-1.4c-1-1-1.5-2.2-1.5-3.8v-0.3c0-1.1,0.2-2,0.6-2.8s1-1.5,1.7-1.9
			s1.6-0.7,2.6-0.7c1.4,0,2.6,0.5,3.4,1.4s1.2,2.2,1.2,3.9v1.2h-6.7c0.1,0.7,0.4,1.2,0.8,1.7s1,0.6,1.7,0.6c1.1,0,1.9-0.4,2.5-1.2
			l1.4,1.6c-0.4,0.6-1,1.1-1.7,1.4S1125.8,1251.7,1124.9,1251.7z M1124.6,1243c-0.6,0-1,0.2-1.4,0.6c-0.3,0.4-0.6,0.9-0.7,1.6h3.9
			v-0.2c0-0.6-0.2-1.1-0.5-1.5C1125.6,1243.2,1125.2,1243,1124.6,1243z"/>
	</g>
</g>
</svg>
