<svg xmlns="http://www.w3.org/2000/svg" width="319.172" height="74" viewBox="0 0 319.172 74">
  <g id="Grupo_106886" data-name="Grupo 106886" transform="translate(-890.828 -1209)">
    <g id="Trazado_218225" data-name="Trazado 218225" transform="translate(915 1209)" fill="#fff">
      <path d="M 290 73 L 5 73 C 2.794384717941284 73 1 71.20561218261719 1 69 L 1 5 C 1 2.794384717941284 2.794384717941284 1 5 1 L 290 1 C 292.2056274414062 1 294 2.794384717941284 294 5 L 294 69 C 294 71.20561218261719 292.2056274414062 73 290 73 Z" stroke="none"/>
      <path d="M 5 2 C 3.345794677734375 2 2 3.345809936523438 2 5 L 2 69 C 2 70.65419006347656 3.345794677734375 72 5 72 L 290 72 C 291.6542053222656 72 293 70.65419006347656 293 69 L 293 5 C 293 3.345809936523438 291.6542053222656 2 290 2 L 5 2 M 5 0 L 290 0 C 292.7614135742188 0 295 2.238578796386719 295 5 L 295 69 C 295 71.76142120361328 292.7614135742188 74 290 74 L 5 74 C 2.23858642578125 74 0 71.76142120361328 0 69 L 0 5 C 0 2.238578796386719 2.23858642578125 0 5 0 Z" stroke="none" fill="#12263f"/>
    </g>
    <g id="Trazado_218226" data-name="Trazado 218226" transform="translate(890.828 1227)" fill="#fff">
      <path d="M 48.9355583190918 15 L 1.008779048919678 15 C 1.003687024116516 14.97786521911621 0.9999979734420776 14.95070552825928 0.9999979734420776 14.91891956329346 L 0.9999979734420776 1.081079959869385 C 0.9999979734420776 1.049294471740723 1.003687024116516 1.0221346616745 1.008779048919678 1 L 48.9355583190918 1 C 48.94064712524414 1.0221346616745 48.94433975219727 1.049294471740723 48.94433975219727 1.081079959869385 L 48.94433975219727 14.91891956329346 C 48.94433975219727 14.95070552825928 48.94064712524414 14.97786521911621 48.9355583190918 15 Z" stroke="none"/>
      <path d="M 1.999996185302734 2 L 1.999996185302734 14 L 47.94433975219727 14 L 47.94433975219727 2 L 1.999996185302734 2 M 0.8465194702148438 0 L 49.09781646728516 0 C 49.56533813476562 0 49.94433975219727 0.4840202331542969 49.94433975219727 1.081080436706543 L 49.94433975219727 14.91892051696777 C 49.94433975219727 15.5159797668457 49.56533813476562 16 49.09781646728516 16 L 0.8465194702148438 16 C 0.378997802734375 16 -3.814697265625e-06 15.5159797668457 -3.814697265625e-06 14.91892051696777 L -3.814697265625e-06 1.081080436706543 C -3.814697265625e-06 0.4840202331542969 0.378997802734375 0 0.8465194702148438 0 Z" stroke="none" fill="#12263f"/>
    </g>
    <g id="Trazado_218227" data-name="Trazado 218227" transform="translate(890.828 1254)" fill="#fff">
      <path d="M 48.9355583190918 15 L 1.008779048919678 15 C 1.003687024116516 14.97786521911621 0.9999979734420776 14.95070552825928 0.9999979734420776 14.91891956329346 L 0.9999979734420776 1.081079959869385 C 0.9999979734420776 1.049294471740723 1.003687024116516 1.0221346616745 1.008779048919678 1 L 48.9355583190918 1 C 48.94064712524414 1.0221346616745 48.94433975219727 1.049294471740723 48.94433975219727 1.081079959869385 L 48.94433975219727 14.91891956329346 C 48.94433975219727 14.95070552825928 48.94064712524414 14.97786521911621 48.9355583190918 15 Z" stroke="none"/>
      <path d="M 1.999996185302734 2 L 1.999996185302734 14 L 47.94433975219727 14 L 47.94433975219727 2 L 1.999996185302734 2 M 0.8465194702148438 0 L 49.09781646728516 0 C 49.56533813476562 0 49.94433975219727 0.4840202331542969 49.94433975219727 1.081080436706543 L 49.94433975219727 14.91892051696777 C 49.94433975219727 15.5159797668457 49.56533813476562 16 49.09781646728516 16 L 0.8465194702148438 16 C 0.378997802734375 16 -3.814697265625e-06 15.5159797668457 -3.814697265625e-06 14.91892051696777 L -3.814697265625e-06 1.081080436706543 C -3.814697265625e-06 0.4840202331542969 0.378997802734375 0 0.8465194702148438 0 Z" stroke="none" fill="#12263f"/>
    </g>
    <text id="Componente" transform="translate(985 1219)" fill="#12263f" font-size="20" font-family="Roboto-Bold, Roboto" font-weight="700"><tspan x="-57.529" y="21">Componente</tspan></text>
  </g>
</svg>
