<svg xmlns="http://www.w3.org/2000/svg" width="234.172" height="212" viewBox="0 0 234.172 212">
  <g id="Grupo_106888" data-name="Grupo 106888" transform="translate(-915 -1875)">
    <g id="Grupo_106675" data-name="Grupo 106675" transform="translate(-30.5 44)">
      <g id="Trazado_218228" data-name="Trazado 218228" transform="translate(969.672 1969)" fill="#8fdaff">
        <path d="M 206.4406890869141 73 L 3.55931568145752 73 C 2.172026395797729 73 1 71.16823577880859 1 69 L 1 5 C 1 2.83176326751709 2.172026395797729 1 3.55931568145752 1 L 206.4406890869141 1 C 207.8279724121094 1 209 2.83176326751709 209 5 L 209 69 C 209 71.16823577880859 207.8279724121094 73 206.4406890869141 73 Z" stroke="none"/>
        <path d="M 3.559326171875 2 C 2.938552856445312 2 2 3.196525573730469 2 5 L 2 69 C 2 70.80347442626953 2.938552856445312 72 3.559326171875 72 L 206.440673828125 72 C 207.0614471435547 72 208 70.80347442626953 208 69 L 208 5 C 208 3.196525573730469 207.0614471435547 2 206.440673828125 2 L 3.559326171875 2 M 3.559326171875 0 L 206.440673828125 0 C 208.4064178466797 0 210 2.23858642578125 210 5 L 210 69 C 210 71.76141357421875 208.4064178466797 74 206.440673828125 74 L 3.559326171875 74 C 1.593551635742188 74 0 71.76141357421875 0 69 L 0 5 C 0 2.23858642578125 1.593551635742188 0 3.559326171875 0 Z" stroke="none" fill="#12263f"/>
      </g>
      <g id="Trazado_218229" data-name="Trazado 218229" transform="translate(945.5 1987)" fill="#8fdaff">
        <path d="M 48.9355583190918 15 L 1.008779048919678 15 C 1.003687024116516 14.97786521911621 0.9999979734420776 14.95070552825928 0.9999979734420776 14.91891956329346 L 0.9999979734420776 1.081079959869385 C 0.9999979734420776 1.049294471740723 1.003687024116516 1.0221346616745 1.008779048919678 1 L 48.9355583190918 1 C 48.94064712524414 1.0221346616745 48.94433975219727 1.049294471740723 48.94433975219727 1.081079959869385 L 48.94433975219727 14.91891956329346 C 48.94433975219727 14.95070552825928 48.94064712524414 14.97786521911621 48.9355583190918 15 Z" stroke="none"/>
        <path d="M 1.999996185302734 2 L 1.999996185302734 14 L 47.94433975219727 14 L 47.94433975219727 2 L 1.999996185302734 2 M 0.8465194702148438 0 L 49.09781646728516 0 C 49.56533813476562 0 49.94433975219727 0.4840202331542969 49.94433975219727 1.081080436706543 L 49.94433975219727 14.91892051696777 C 49.94433975219727 15.5159797668457 49.56533813476562 16 49.09781646728516 16 L 0.8465194702148438 16 C 0.378997802734375 16 -3.814697265625e-06 15.5159797668457 -3.814697265625e-06 14.91892051696777 L -3.814697265625e-06 1.081080436706543 C -3.814697265625e-06 0.4840202331542969 0.378997802734375 0 0.8465194702148438 0 Z" stroke="none" fill="#12263f"/>
      </g>
      <g id="Trazado_218230" data-name="Trazado 218230" transform="translate(945.5 2014)" fill="#8fdaff">
        <path d="M 48.9355583190918 15 L 1.008779048919678 15 C 1.003687024116516 14.97786521911621 0.9999979734420776 14.95070552825928 0.9999979734420776 14.91891956329346 L 0.9999979734420776 1.081079959869385 C 0.9999979734420776 1.049294471740723 1.003687024116516 1.0221346616745 1.008779048919678 1 L 48.9355583190918 1 C 48.94064712524414 1.0221346616745 48.94433975219727 1.049294471740723 48.94433975219727 1.081079959869385 L 48.94433975219727 14.91891956329346 C 48.94433975219727 14.95070552825928 48.94064712524414 14.97786521911621 48.9355583190918 15 Z" stroke="none"/>
        <path d="M 1.999996185302734 2 L 1.999996185302734 14 L 47.94433975219727 14 L 47.94433975219727 2 L 1.999996185302734 2 M 0.8465194702148438 0 L 49.09781646728516 0 C 49.56533813476562 0 49.94433975219727 0.4840202331542969 49.94433975219727 1.081080436706543 L 49.94433975219727 14.91892051696777 C 49.94433975219727 15.5159797668457 49.56533813476562 16 49.09781646728516 16 L 0.8465194702148438 16 C 0.378997802734375 16 -3.814697265625e-06 15.5159797668457 -3.814697265625e-06 14.91892051696777 L -3.814697265625e-06 1.081080436706543 C -3.814697265625e-06 0.4840202331542969 0.378997802734375 0 0.8465194702148438 0 Z" stroke="none" fill="#12263f"/>
      </g>
      <text id="Componente" transform="translate(1003.672 1979)" fill="#12263f" font-size="18" font-family="Roboto-Bold, Roboto" font-weight="700"><tspan x="-51.776" y="19">Componente</tspan></text>
    </g>
    <g id="Grupo_106676" data-name="Grupo 106676" transform="translate(-30.5 -94)">
      <g id="Trazado_218228-2" data-name="Trazado 218228" transform="translate(969.672 1969)" fill="#a9ecf5">
        <path d="M 206.4406890869141 73 L 3.55931568145752 73 C 2.172026395797729 73 1 71.16823577880859 1 69 L 1 5 C 1 2.83176326751709 2.172026395797729 1 3.55931568145752 1 L 206.4406890869141 1 C 207.8279724121094 1 209 2.83176326751709 209 5 L 209 69 C 209 71.16823577880859 207.8279724121094 73 206.4406890869141 73 Z" stroke="none"/>
        <path d="M 3.559326171875 2 C 2.938552856445312 2 2 3.196525573730469 2 5 L 2 69 C 2 70.80347442626953 2.938552856445312 72 3.559326171875 72 L 206.440673828125 72 C 207.0614471435547 72 208 70.80347442626953 208 69 L 208 5 C 208 3.196525573730469 207.0614471435547 2 206.440673828125 2 L 3.559326171875 2 M 3.559326171875 0 L 206.440673828125 0 C 208.4064178466797 0 210 2.23858642578125 210 5 L 210 69 C 210 71.76141357421875 208.4064178466797 74 206.440673828125 74 L 3.559326171875 74 C 1.593551635742188 74 0 71.76141357421875 0 69 L 0 5 C 0 2.23858642578125 1.593551635742188 0 3.559326171875 0 Z" stroke="none" fill="#12263f"/>
      </g>
      <g id="Trazado_218229-2" data-name="Trazado 218229" transform="translate(945.5 1987)" fill="#a9ecf5">
        <path d="M 48.9355583190918 15 L 1.008779048919678 15 C 1.003687024116516 14.97786521911621 0.9999979734420776 14.95070552825928 0.9999979734420776 14.91891956329346 L 0.9999979734420776 1.081079959869385 C 0.9999979734420776 1.049294471740723 1.003687024116516 1.0221346616745 1.008779048919678 1 L 48.9355583190918 1 C 48.94064712524414 1.0221346616745 48.94433975219727 1.049294471740723 48.94433975219727 1.081079959869385 L 48.94433975219727 14.91891956329346 C 48.94433975219727 14.95070552825928 48.94064712524414 14.97786521911621 48.9355583190918 15 Z" stroke="none"/>
        <path d="M 1.999996185302734 2 L 1.999996185302734 14 L 47.94433975219727 14 L 47.94433975219727 2 L 1.999996185302734 2 M 0.8465194702148438 0 L 49.09781646728516 0 C 49.56533813476562 0 49.94433975219727 0.4840202331542969 49.94433975219727 1.081080436706543 L 49.94433975219727 14.91892051696777 C 49.94433975219727 15.5159797668457 49.56533813476562 16 49.09781646728516 16 L 0.8465194702148438 16 C 0.378997802734375 16 -3.814697265625e-06 15.5159797668457 -3.814697265625e-06 14.91892051696777 L -3.814697265625e-06 1.081080436706543 C -3.814697265625e-06 0.4840202331542969 0.378997802734375 0 0.8465194702148438 0 Z" stroke="none" fill="#12263f"/>
      </g>
      <g id="Trazado_218230-2" data-name="Trazado 218230" transform="translate(945.5 2014)" fill="#a9ecf5">
        <path d="M 48.9355583190918 15 L 1.008779048919678 15 C 1.003687024116516 14.97786521911621 0.9999979734420776 14.95070552825928 0.9999979734420776 14.91891956329346 L 0.9999979734420776 1.081079959869385 C 0.9999979734420776 1.049294471740723 1.003687024116516 1.0221346616745 1.008779048919678 1 L 48.9355583190918 1 C 48.94064712524414 1.0221346616745 48.94433975219727 1.049294471740723 48.94433975219727 1.081079959869385 L 48.94433975219727 14.91891956329346 C 48.94433975219727 14.95070552825928 48.94064712524414 14.97786521911621 48.9355583190918 15 Z" stroke="none"/>
        <path d="M 1.999996185302734 2 L 1.999996185302734 14 L 47.94433975219727 14 L 47.94433975219727 2 L 1.999996185302734 2 M 0.8465194702148438 0 L 49.09781646728516 0 C 49.56533813476562 0 49.94433975219727 0.4840202331542969 49.94433975219727 1.081080436706543 L 49.94433975219727 14.91892051696777 C 49.94433975219727 15.5159797668457 49.56533813476562 16 49.09781646728516 16 L 0.8465194702148438 16 C 0.378997802734375 16 -3.814697265625e-06 15.5159797668457 -3.814697265625e-06 14.91892051696777 L -3.814697265625e-06 1.081080436706543 C -3.814697265625e-06 0.4840202331542969 0.378997802734375 0 0.8465194702148438 0 Z" stroke="none" fill="#12263f"/>
      </g>
      <text id="Componente-2" data-name="Componente" transform="translate(1003.672 1979)" fill="#12263f" font-size="18" font-family="Roboto-Bold, Roboto" font-weight="700"><tspan x="-51.776" y="19">Componente</tspan></text>
    </g>
    <line id="Línea_1685" data-name="Línea 1685" y2="53" transform="translate(1032.5 1961)" fill="none" stroke="#12263f" stroke-width="2" stroke-dasharray="2 2"/>
    <path id="Polígono_79" data-name="Polígono 79" d="M4.6,0,9.2,7H0Z" transform="translate(1027.899 1954)" fill="#12263f"/>
  </g>
</svg>
