<svg xmlns="http://www.w3.org/2000/svg" width="456" height="216" viewBox="0 0 456 216">
  <g id="Grupo_106889" data-name="Grupo 106889" transform="translate(-833 -2241)">
    <g id="Rect치ngulo_45466" data-name="Rect치ngulo 45466" transform="translate(833 2250)" fill="#fff" stroke="#12263f" stroke-width="2">
      <rect width="456" height="207" stroke="none"/>
      <rect x="1" y="1" width="454" height="205" fill="none"/>
    </g>
    <g id="Rect치ngulo_45467" data-name="Rect치ngulo 45467" transform="translate(833 2241)" fill="#fff" stroke="#12263f" stroke-width="2">
      <rect width="142" height="11" stroke="none"/>
      <rect x="1" y="1" width="140" height="9" fill="none"/>
    </g>
    <g id="Grupo_106681" data-name="Grupo 106681" transform="translate(49.672 409.5)">
      <g id="Grupo_106676" data-name="Grupo 106676" transform="translate(-135.5 -77.5)">
        <g id="Trazado_218228" data-name="Trazado 218228" transform="translate(965.112 1969)" fill="#4dd0e1">
          <path d="M 167.4997406005859 59.04135894775391 L 2.887919425964355 59.04135894775391 C 2.295745372772217 59.04135894775391 1.864745497703552 58.56009674072266 1.660528063774109 58.2732048034668 C 1.240745425224304 57.68353271484375 1.000006318092346 56.84935760498047 1.000006318092346 55.98453140258789 L 1.000006318092346 4.056857109069824 C 1.000006318092346 3.192031145095825 1.240745425224304 2.357835531234741 1.660528063774109 1.768161535263062 C 1.864745497703552 1.48127019405365 2.295745372772217 1.000009417533875 2.887919425964355 1.000009417533875 L 167.4997406005859 1.000009417533875 C 168.0919189453125 1.000009417533875 168.5229187011719 1.48127019405365 168.7271423339844 1.768161535263062 C 169.1469268798828 2.357835531234741 169.3876647949219 3.192031145095825 169.3876647949219 4.056857109069824 L 169.3876647949219 55.98453140258789 C 169.3876647949219 56.84935760498047 169.1469268798828 57.68353271484375 168.7271423339844 58.2732048034668 C 168.5229187011719 58.56009674072266 168.0919189453125 59.04135894775391 167.4997406005859 59.04135894775391 Z" stroke="none"/>
          <path d="M 2.887924194335938 2 C 2.666900634765625 2 1.999984741210938 2.729476928710938 1.999984741210938 4.056842803955078 L 1.999984741210938 55.98452377319336 C 1.999984741210938 57.3118896484375 2.666900634765625 58.04136657714844 2.887924194335938 58.04136657714844 L 167.4997406005859 58.04136657714844 C 167.7207641601562 58.04136657714844 168.3876800537109 57.3118896484375 168.3876800537109 55.98452377319336 L 168.3876800537109 4.056842803955078 C 168.3876800537109 2.729476928710938 167.7207641601562 2 167.4997406005859 2 L 2.887924194335938 2 M 2.887924194335938 0 L 167.4997406005859 0 C 169.0946960449219 0 170.3876800537109 1.816318511962891 170.3876800537109 4.056842803955078 L 170.3876800537109 55.98452377319336 C 170.3876800537109 58.22504806518555 169.0946960449219 60.04136657714844 167.4997406005859 60.04136657714844 L 2.887924194335938 60.04136657714844 C 1.29296875 60.04136657714844 -1.52587890625e-05 58.22504806518555 -1.52587890625e-05 55.98452377319336 L -1.52587890625e-05 4.056842803955078 C -1.52587890625e-05 1.816318511962891 1.29296875 0 2.887924194335938 0 Z" stroke="none" fill="#12263f"/>
        </g>
        <g id="Trazado_218229" data-name="Trazado 218229" transform="translate(945.5 1983.605)" fill="#4dd0e1">
          <path d="M 39.52332305908203 11.98191833496094 L 1.000003457069397 11.98191833496094 L 1.000003457069397 0.9999986886978149 L 39.52332305908203 0.9999986886978149 L 39.52332305908203 11.98191833496094 Z" stroke="none"/>
          <path d="M 2.000003814697266 1.999999046325684 L 2.000003814697266 10.98191833496094 L 38.52332305908203 10.98191833496094 L 38.52332305908203 1.999999046325684 L 2.000003814697266 1.999999046325684 M 0.6868324279785156 -9.5367431640625e-07 L 39.83649444580078 -9.5367431640625e-07 C 40.21581268310547 -9.5367431640625e-07 40.52332305908203 0.3927183151245117 40.52332305908203 0.8771591186523438 L 40.52332305908203 12.10475826263428 C 40.52332305908203 12.58919906616211 40.21581268310547 12.98191833496094 39.83649444580078 12.98191833496094 L 0.6868324279785156 12.98191833496094 C 0.3075027465820312 12.98191833496094 3.814697265625e-06 12.58919906616211 3.814697265625e-06 12.10475826263428 L 3.814697265625e-06 0.8771591186523438 C 3.814697265625e-06 0.3927183151245117 0.3075027465820312 -9.5367431640625e-07 0.6868324279785156 -9.5367431640625e-07 Z" stroke="none" fill="#12263f"/>
        </g>
        <g id="Trazado_218230" data-name="Trazado 218230" transform="translate(945.5 2005.512)" fill="#4dd0e1">
          <path d="M 39.52332305908203 11.98191833496094 L 1.000003457069397 11.98191833496094 L 1.000003457069397 0.9999986886978149 L 39.52332305908203 0.9999986886978149 L 39.52332305908203 11.98191833496094 Z" stroke="none"/>
          <path d="M 2.000003814697266 1.999999046325684 L 2.000003814697266 10.98191833496094 L 38.52332305908203 10.98191833496094 L 38.52332305908203 1.999999046325684 L 2.000003814697266 1.999999046325684 M 0.6868324279785156 -9.5367431640625e-07 L 39.83649444580078 -9.5367431640625e-07 C 40.21581268310547 -9.5367431640625e-07 40.52332305908203 0.3927183151245117 40.52332305908203 0.8771591186523438 L 40.52332305908203 12.10475826263428 C 40.52332305908203 12.58919906616211 40.21581268310547 12.98191833496094 39.83649444580078 12.98191833496094 L 0.6868324279785156 12.98191833496094 C 0.3075027465820312 12.98191833496094 3.814697265625e-06 12.58919906616211 3.814697265625e-06 12.10475826263428 L 3.814697265625e-06 0.8771591186523438 C 3.814697265625e-06 0.3927183151245117 0.3075027465820312 -9.5367431640625e-07 0.6868324279785156 -9.5367431640625e-07 Z" stroke="none" fill="#12263f"/>
        </g>
        <text id="Componente" transform="translate(992.699 1977.114)" fill="#12263f" font-size="18" font-family="Roboto-Bold, Roboto" font-weight="700"><tspan x="-51.776" y="19">Componente</tspan></text>
      </g>
    </g>
    <g id="Grupo_106682" data-name="Grupo 106682" transform="translate(49.672 490)">
      <g id="Grupo_106676-2" data-name="Grupo 106676" transform="translate(-135.5 -77.5)">
        <g id="Trazado_218228-2" data-name="Trazado 218228" transform="translate(965.112 1969)" fill="#039be5">
          <path d="M 167.4997406005859 59.04135894775391 L 2.887919425964355 59.04135894775391 C 2.295745372772217 59.04135894775391 1.864745497703552 58.56009674072266 1.660528063774109 58.2732048034668 C 1.240745425224304 57.68353271484375 1.000006318092346 56.84935760498047 1.000006318092346 55.98453140258789 L 1.000006318092346 4.056857109069824 C 1.000006318092346 3.192031145095825 1.240745425224304 2.357835531234741 1.660528063774109 1.768161535263062 C 1.864745497703552 1.48127019405365 2.295745372772217 1.000009417533875 2.887919425964355 1.000009417533875 L 167.4997406005859 1.000009417533875 C 168.0919189453125 1.000009417533875 168.5229187011719 1.48127019405365 168.7271423339844 1.768161535263062 C 169.1469268798828 2.357835531234741 169.3876647949219 3.192031145095825 169.3876647949219 4.056857109069824 L 169.3876647949219 55.98453140258789 C 169.3876647949219 56.84935760498047 169.1469268798828 57.68353271484375 168.7271423339844 58.2732048034668 C 168.5229187011719 58.56009674072266 168.0919189453125 59.04135894775391 167.4997406005859 59.04135894775391 Z" stroke="none"/>
          <path d="M 2.887924194335938 2 C 2.666900634765625 2 1.999984741210938 2.729476928710938 1.999984741210938 4.056842803955078 L 1.999984741210938 55.98452377319336 C 1.999984741210938 57.3118896484375 2.666900634765625 58.04136657714844 2.887924194335938 58.04136657714844 L 167.4997406005859 58.04136657714844 C 167.7207641601562 58.04136657714844 168.3876800537109 57.3118896484375 168.3876800537109 55.98452377319336 L 168.3876800537109 4.056842803955078 C 168.3876800537109 2.729476928710938 167.7207641601562 2 167.4997406005859 2 L 2.887924194335938 2 M 2.887924194335938 0 L 167.4997406005859 0 C 169.0946960449219 0 170.3876800537109 1.816318511962891 170.3876800537109 4.056842803955078 L 170.3876800537109 55.98452377319336 C 170.3876800537109 58.22504806518555 169.0946960449219 60.04136657714844 167.4997406005859 60.04136657714844 L 2.887924194335938 60.04136657714844 C 1.29296875 60.04136657714844 -1.52587890625e-05 58.22504806518555 -1.52587890625e-05 55.98452377319336 L -1.52587890625e-05 4.056842803955078 C -1.52587890625e-05 1.816318511962891 1.29296875 0 2.887924194335938 0 Z" stroke="none" fill="#12263f"/>
        </g>
        <g id="Trazado_218229-2" data-name="Trazado 218229" transform="translate(945.5 1983.605)" fill="#039be5">
          <path d="M 39.52332305908203 11.98191833496094 L 1.000003457069397 11.98191833496094 L 1.000003457069397 0.9999986886978149 L 39.52332305908203 0.9999986886978149 L 39.52332305908203 11.98191833496094 Z" stroke="none"/>
          <path d="M 2.000003814697266 1.999999046325684 L 2.000003814697266 10.98191833496094 L 38.52332305908203 10.98191833496094 L 38.52332305908203 1.999999046325684 L 2.000003814697266 1.999999046325684 M 0.6868324279785156 -9.5367431640625e-07 L 39.83649444580078 -9.5367431640625e-07 C 40.21581268310547 -9.5367431640625e-07 40.52332305908203 0.3927183151245117 40.52332305908203 0.8771591186523438 L 40.52332305908203 12.10475826263428 C 40.52332305908203 12.58919906616211 40.21581268310547 12.98191833496094 39.83649444580078 12.98191833496094 L 0.6868324279785156 12.98191833496094 C 0.3075027465820312 12.98191833496094 3.814697265625e-06 12.58919906616211 3.814697265625e-06 12.10475826263428 L 3.814697265625e-06 0.8771591186523438 C 3.814697265625e-06 0.3927183151245117 0.3075027465820312 -9.5367431640625e-07 0.6868324279785156 -9.5367431640625e-07 Z" stroke="none" fill="#12263f"/>
        </g>
        <g id="Trazado_218230-2" data-name="Trazado 218230" transform="translate(945.5 2005.512)" fill="#039be5">
          <path d="M 39.52332305908203 11.98191833496094 L 1.000003457069397 11.98191833496094 L 1.000003457069397 0.9999986886978149 L 39.52332305908203 0.9999986886978149 L 39.52332305908203 11.98191833496094 Z" stroke="none"/>
          <path d="M 2.000003814697266 1.999999046325684 L 2.000003814697266 10.98191833496094 L 38.52332305908203 10.98191833496094 L 38.52332305908203 1.999999046325684 L 2.000003814697266 1.999999046325684 M 0.6868324279785156 -9.5367431640625e-07 L 39.83649444580078 -9.5367431640625e-07 C 40.21581268310547 -9.5367431640625e-07 40.52332305908203 0.3927183151245117 40.52332305908203 0.8771591186523438 L 40.52332305908203 12.10475826263428 C 40.52332305908203 12.58919906616211 40.21581268310547 12.98191833496094 39.83649444580078 12.98191833496094 L 0.6868324279785156 12.98191833496094 C 0.3075027465820312 12.98191833496094 3.814697265625e-06 12.58919906616211 3.814697265625e-06 12.10475826263428 L 3.814697265625e-06 0.8771591186523438 C 3.814697265625e-06 0.3927183151245117 0.3075027465820312 -9.5367431640625e-07 0.6868324279785156 -9.5367431640625e-07 Z" stroke="none" fill="#12263f"/>
        </g>
        <text id="Componente-2" data-name="Componente" transform="translate(992.699 1977.114)" fill="#fff" font-size="18" font-family="Roboto-Bold, Roboto" font-weight="700"><tspan x="-51.776" y="19">Componente</tspan></text>
      </g>
    </g>
    <g id="Grupo_106683" data-name="Grupo 106683" transform="translate(259.672 409.5)">
      <g id="Grupo_106676-3" data-name="Grupo 106676" transform="translate(-135.5 -77.5)">
        <g id="Trazado_218228-3" data-name="Trazado 218228" transform="translate(965.112 1969)" fill="#ffca28">
          <path d="M 167.4997406005859 59.04135894775391 L 2.887919425964355 59.04135894775391 C 2.295745372772217 59.04135894775391 1.864745497703552 58.56009674072266 1.660528063774109 58.2732048034668 C 1.240745425224304 57.68353271484375 1.000006318092346 56.84935760498047 1.000006318092346 55.98453140258789 L 1.000006318092346 4.056857109069824 C 1.000006318092346 3.192031145095825 1.240745425224304 2.357835531234741 1.660528063774109 1.768161535263062 C 1.864745497703552 1.48127019405365 2.295745372772217 1.000009417533875 2.887919425964355 1.000009417533875 L 167.4997406005859 1.000009417533875 C 168.0919189453125 1.000009417533875 168.5229187011719 1.48127019405365 168.7271423339844 1.768161535263062 C 169.1469268798828 2.357835531234741 169.3876647949219 3.192031145095825 169.3876647949219 4.056857109069824 L 169.3876647949219 55.98453140258789 C 169.3876647949219 56.84935760498047 169.1469268798828 57.68353271484375 168.7271423339844 58.2732048034668 C 168.5229187011719 58.56009674072266 168.0919189453125 59.04135894775391 167.4997406005859 59.04135894775391 Z" stroke="none"/>
          <path d="M 2.887924194335938 2 C 2.666900634765625 2 1.999984741210938 2.729476928710938 1.999984741210938 4.056842803955078 L 1.999984741210938 55.98452377319336 C 1.999984741210938 57.3118896484375 2.666900634765625 58.04136657714844 2.887924194335938 58.04136657714844 L 167.4997406005859 58.04136657714844 C 167.7207641601562 58.04136657714844 168.3876800537109 57.3118896484375 168.3876800537109 55.98452377319336 L 168.3876800537109 4.056842803955078 C 168.3876800537109 2.729476928710938 167.7207641601562 2 167.4997406005859 2 L 2.887924194335938 2 M 2.887924194335938 0 L 167.4997406005859 0 C 169.0946960449219 0 170.3876800537109 1.816318511962891 170.3876800537109 4.056842803955078 L 170.3876800537109 55.98452377319336 C 170.3876800537109 58.22504806518555 169.0946960449219 60.04136657714844 167.4997406005859 60.04136657714844 L 2.887924194335938 60.04136657714844 C 1.29296875 60.04136657714844 -1.52587890625e-05 58.22504806518555 -1.52587890625e-05 55.98452377319336 L -1.52587890625e-05 4.056842803955078 C -1.52587890625e-05 1.816318511962891 1.29296875 0 2.887924194335938 0 Z" stroke="none" fill="#12263f"/>
        </g>
        <g id="Trazado_218229-3" data-name="Trazado 218229" transform="translate(945.5 1983.605)" fill="#ffca28">
          <path d="M 39.52332305908203 11.98191833496094 L 1.000003457069397 11.98191833496094 L 1.000003457069397 0.9999986886978149 L 39.52332305908203 0.9999986886978149 L 39.52332305908203 11.98191833496094 Z" stroke="none"/>
          <path d="M 2.000003814697266 1.999999046325684 L 2.000003814697266 10.98191833496094 L 38.52332305908203 10.98191833496094 L 38.52332305908203 1.999999046325684 L 2.000003814697266 1.999999046325684 M 0.6868324279785156 -9.5367431640625e-07 L 39.83649444580078 -9.5367431640625e-07 C 40.21581268310547 -9.5367431640625e-07 40.52332305908203 0.3927183151245117 40.52332305908203 0.8771591186523438 L 40.52332305908203 12.10475826263428 C 40.52332305908203 12.58919906616211 40.21581268310547 12.98191833496094 39.83649444580078 12.98191833496094 L 0.6868324279785156 12.98191833496094 C 0.3075027465820312 12.98191833496094 3.814697265625e-06 12.58919906616211 3.814697265625e-06 12.10475826263428 L 3.814697265625e-06 0.8771591186523438 C 3.814697265625e-06 0.3927183151245117 0.3075027465820312 -9.5367431640625e-07 0.6868324279785156 -9.5367431640625e-07 Z" stroke="none" fill="#12263f"/>
        </g>
        <g id="Trazado_218230-3" data-name="Trazado 218230" transform="translate(945.5 2005.512)" fill="#ffca28">
          <path d="M 39.52332305908203 11.98191833496094 L 1.000003457069397 11.98191833496094 L 1.000003457069397 0.9999986886978149 L 39.52332305908203 0.9999986886978149 L 39.52332305908203 11.98191833496094 Z" stroke="none"/>
          <path d="M 2.000003814697266 1.999999046325684 L 2.000003814697266 10.98191833496094 L 38.52332305908203 10.98191833496094 L 38.52332305908203 1.999999046325684 L 2.000003814697266 1.999999046325684 M 0.6868324279785156 -9.5367431640625e-07 L 39.83649444580078 -9.5367431640625e-07 C 40.21581268310547 -9.5367431640625e-07 40.52332305908203 0.3927183151245117 40.52332305908203 0.8771591186523438 L 40.52332305908203 12.10475826263428 C 40.52332305908203 12.58919906616211 40.21581268310547 12.98191833496094 39.83649444580078 12.98191833496094 L 0.6868324279785156 12.98191833496094 C 0.3075027465820312 12.98191833496094 3.814697265625e-06 12.58919906616211 3.814697265625e-06 12.10475826263428 L 3.814697265625e-06 0.8771591186523438 C 3.814697265625e-06 0.3927183151245117 0.3075027465820312 -9.5367431640625e-07 0.6868324279785156 -9.5367431640625e-07 Z" stroke="none" fill="#12263f"/>
        </g>
        <text id="Componente-3" data-name="Componente" transform="translate(992.699 1977.114)" fill="#12263f" font-size="18" font-family="Roboto-Bold, Roboto" font-weight="700"><tspan x="-51.776" y="19">Componente</tspan></text>
      </g>
    </g>
    <g id="Grupo_106684" data-name="Grupo 106684" transform="translate(259.672 490)">
      <g id="Grupo_106676-4" data-name="Grupo 106676" transform="translate(-135.5 -77.5)">
        <g id="Trazado_218228-4" data-name="Trazado 218228" transform="translate(965.112 1969)" fill="#26a69a">
          <path d="M 167.4997406005859 59.04135894775391 L 2.887919425964355 59.04135894775391 C 2.295745372772217 59.04135894775391 1.864745497703552 58.56009674072266 1.660528063774109 58.2732048034668 C 1.240745425224304 57.68353271484375 1.000006318092346 56.84935760498047 1.000006318092346 55.98453140258789 L 1.000006318092346 4.056857109069824 C 1.000006318092346 3.192031145095825 1.240745425224304 2.357835531234741 1.660528063774109 1.768161535263062 C 1.864745497703552 1.48127019405365 2.295745372772217 1.000009417533875 2.887919425964355 1.000009417533875 L 167.4997406005859 1.000009417533875 C 168.0919189453125 1.000009417533875 168.5229187011719 1.48127019405365 168.7271423339844 1.768161535263062 C 169.1469268798828 2.357835531234741 169.3876647949219 3.192031145095825 169.3876647949219 4.056857109069824 L 169.3876647949219 55.98453140258789 C 169.3876647949219 56.84935760498047 169.1469268798828 57.68353271484375 168.7271423339844 58.2732048034668 C 168.5229187011719 58.56009674072266 168.0919189453125 59.04135894775391 167.4997406005859 59.04135894775391 Z" stroke="none"/>
          <path d="M 2.887924194335938 2 C 2.666900634765625 2 1.999984741210938 2.729476928710938 1.999984741210938 4.056842803955078 L 1.999984741210938 55.98452377319336 C 1.999984741210938 57.3118896484375 2.666900634765625 58.04136657714844 2.887924194335938 58.04136657714844 L 167.4997406005859 58.04136657714844 C 167.7207641601562 58.04136657714844 168.3876800537109 57.3118896484375 168.3876800537109 55.98452377319336 L 168.3876800537109 4.056842803955078 C 168.3876800537109 2.729476928710938 167.7207641601562 2 167.4997406005859 2 L 2.887924194335938 2 M 2.887924194335938 0 L 167.4997406005859 0 C 169.0946960449219 0 170.3876800537109 1.816318511962891 170.3876800537109 4.056842803955078 L 170.3876800537109 55.98452377319336 C 170.3876800537109 58.22504806518555 169.0946960449219 60.04136657714844 167.4997406005859 60.04136657714844 L 2.887924194335938 60.04136657714844 C 1.29296875 60.04136657714844 -1.52587890625e-05 58.22504806518555 -1.52587890625e-05 55.98452377319336 L -1.52587890625e-05 4.056842803955078 C -1.52587890625e-05 1.816318511962891 1.29296875 0 2.887924194335938 0 Z" stroke="none" fill="#12263f"/>
        </g>
        <g id="Trazado_218229-4" data-name="Trazado 218229" transform="translate(945.5 1983.605)" fill="#26a69a">
          <path d="M 39.52332305908203 11.98191833496094 L 1.000003457069397 11.98191833496094 L 1.000003457069397 0.9999986886978149 L 39.52332305908203 0.9999986886978149 L 39.52332305908203 11.98191833496094 Z" stroke="none"/>
          <path d="M 2.000003814697266 1.999999046325684 L 2.000003814697266 10.98191833496094 L 38.52332305908203 10.98191833496094 L 38.52332305908203 1.999999046325684 L 2.000003814697266 1.999999046325684 M 0.6868324279785156 -9.5367431640625e-07 L 39.83649444580078 -9.5367431640625e-07 C 40.21581268310547 -9.5367431640625e-07 40.52332305908203 0.3927183151245117 40.52332305908203 0.8771591186523438 L 40.52332305908203 12.10475826263428 C 40.52332305908203 12.58919906616211 40.21581268310547 12.98191833496094 39.83649444580078 12.98191833496094 L 0.6868324279785156 12.98191833496094 C 0.3075027465820312 12.98191833496094 3.814697265625e-06 12.58919906616211 3.814697265625e-06 12.10475826263428 L 3.814697265625e-06 0.8771591186523438 C 3.814697265625e-06 0.3927183151245117 0.3075027465820312 -9.5367431640625e-07 0.6868324279785156 -9.5367431640625e-07 Z" stroke="none" fill="#12263f"/>
        </g>
        <g id="Trazado_218230-4" data-name="Trazado 218230" transform="translate(945.5 2005.512)" fill="#26a69a">
          <path d="M 39.52332305908203 11.98191833496094 L 1.000003457069397 11.98191833496094 L 1.000003457069397 0.9999986886978149 L 39.52332305908203 0.9999986886978149 L 39.52332305908203 11.98191833496094 Z" stroke="none"/>
          <path d="M 2.000003814697266 1.999999046325684 L 2.000003814697266 10.98191833496094 L 38.52332305908203 10.98191833496094 L 38.52332305908203 1.999999046325684 L 2.000003814697266 1.999999046325684 M 0.6868324279785156 -9.5367431640625e-07 L 39.83649444580078 -9.5367431640625e-07 C 40.21581268310547 -9.5367431640625e-07 40.52332305908203 0.3927183151245117 40.52332305908203 0.8771591186523438 L 40.52332305908203 12.10475826263428 C 40.52332305908203 12.58919906616211 40.21581268310547 12.98191833496094 39.83649444580078 12.98191833496094 L 0.6868324279785156 12.98191833496094 C 0.3075027465820312 12.98191833496094 3.814697265625e-06 12.58919906616211 3.814697265625e-06 12.10475826263428 L 3.814697265625e-06 0.8771591186523438 C 3.814697265625e-06 0.3927183151245117 0.3075027465820312 -9.5367431640625e-07 0.6868324279785156 -9.5367431640625e-07 Z" stroke="none" fill="#12263f"/>
        </g>
        <text id="Componente-4" data-name="Componente" transform="translate(992.699 1977.114)" fill="#fff" font-size="18" font-family="Roboto-Bold, Roboto" font-weight="700"><tspan x="-51.776" y="19">Componente</tspan></text>
      </g>
    </g>
    <text id="Paquete" transform="translate(998 2258.541)" fill="#12263f" font-size="18" font-family="Roboto-Bold, Roboto" font-weight="700"><tspan x="-33.473" y="19">Paquete</tspan></text>
  </g>
</svg>
