<svg xmlns="http://www.w3.org/2000/svg" width="546" height="512" viewBox="0 0 546 512">
  <g id="Grupo_106890" data-name="Grupo 106890" transform="translate(-833 -2588)">
    <g id="Grupo_106687" data-name="Grupo 106687" transform="translate(0 371)">
      <g id="Rectángulo_45466" data-name="Rectángulo 45466" transform="translate(833 2250)" fill="#fff" stroke="#12263f" stroke-width="2">
        <rect width="546" height="105" stroke="none"/>
        <rect x="1" y="1" width="544" height="103" fill="none"/>
      </g>
      <g id="Rectángulo_45467" data-name="Rectángulo 45467" transform="translate(833 2217)" fill="#cef9ff" stroke="#12263f" stroke-width="2">
        <rect width="217" height="35" stroke="none"/>
        <rect x="1" y="1" width="215" height="33" fill="none"/>
      </g>
      <g id="Grupo_106681" data-name="Grupo 106681" transform="translate(49.672 383.5)">
        <g id="Grupo_106676" data-name="Grupo 106676" transform="translate(-135.5 -77.5)">
          <g id="Trazado_218228" data-name="Trazado 218228" transform="translate(965.112 1969)" fill="#4dd0e1">
            <path d="M 167.4997406005859 59.04135894775391 L 2.887919425964355 59.04135894775391 C 2.295745372772217 59.04135894775391 1.864745497703552 58.56009674072266 1.660528063774109 58.2732048034668 C 1.240745425224304 57.68353271484375 1.000006318092346 56.84935760498047 1.000006318092346 55.98453140258789 L 1.000006318092346 4.056857109069824 C 1.000006318092346 3.192031145095825 1.240745425224304 2.357835531234741 1.660528063774109 1.768161535263062 C 1.864745497703552 1.48127019405365 2.295745372772217 1.000009417533875 2.887919425964355 1.000009417533875 L 167.4997406005859 1.000009417533875 C 168.0919189453125 1.000009417533875 168.5229187011719 1.48127019405365 168.7271423339844 1.768161535263062 C 169.1469268798828 2.357835531234741 169.3876647949219 3.192031145095825 169.3876647949219 4.056857109069824 L 169.3876647949219 55.98453140258789 C 169.3876647949219 56.84935760498047 169.1469268798828 57.68353271484375 168.7271423339844 58.2732048034668 C 168.5229187011719 58.56009674072266 168.0919189453125 59.04135894775391 167.4997406005859 59.04135894775391 Z" stroke="none"/>
            <path d="M 2.887924194335938 2 C 2.666900634765625 2 1.999984741210938 2.729476928710938 1.999984741210938 4.056842803955078 L 1.999984741210938 55.98452377319336 C 1.999984741210938 57.3118896484375 2.666900634765625 58.04136657714844 2.887924194335938 58.04136657714844 L 167.4997406005859 58.04136657714844 C 167.7207641601562 58.04136657714844 168.3876800537109 57.3118896484375 168.3876800537109 55.98452377319336 L 168.3876800537109 4.056842803955078 C 168.3876800537109 2.729476928710938 167.7207641601562 2 167.4997406005859 2 L 2.887924194335938 2 M 2.887924194335938 0 L 167.4997406005859 0 C 169.0946960449219 0 170.3876800537109 1.816318511962891 170.3876800537109 4.056842803955078 L 170.3876800537109 55.98452377319336 C 170.3876800537109 58.22504806518555 169.0946960449219 60.04136657714844 167.4997406005859 60.04136657714844 L 2.887924194335938 60.04136657714844 C 1.29296875 60.04136657714844 -1.52587890625e-05 58.22504806518555 -1.52587890625e-05 55.98452377319336 L -1.52587890625e-05 4.056842803955078 C -1.52587890625e-05 1.816318511962891 1.29296875 0 2.887924194335938 0 Z" stroke="none" fill="#12263f"/>
          </g>
          <g id="Trazado_218229" data-name="Trazado 218229" transform="translate(945.5 1983.605)" fill="#4dd0e1">
            <path d="M 39.52332305908203 11.98191833496094 L 1.000003457069397 11.98191833496094 L 1.000003457069397 0.9999986886978149 L 39.52332305908203 0.9999986886978149 L 39.52332305908203 11.98191833496094 Z" stroke="none"/>
            <path d="M 2.000003814697266 1.999999046325684 L 2.000003814697266 10.98191833496094 L 38.52332305908203 10.98191833496094 L 38.52332305908203 1.999999046325684 L 2.000003814697266 1.999999046325684 M 0.6868324279785156 -9.5367431640625e-07 L 39.83649444580078 -9.5367431640625e-07 C 40.21581268310547 -9.5367431640625e-07 40.52332305908203 0.3927183151245117 40.52332305908203 0.8771591186523438 L 40.52332305908203 12.10475826263428 C 40.52332305908203 12.58919906616211 40.21581268310547 12.98191833496094 39.83649444580078 12.98191833496094 L 0.6868324279785156 12.98191833496094 C 0.3075027465820312 12.98191833496094 3.814697265625e-06 12.58919906616211 3.814697265625e-06 12.10475826263428 L 3.814697265625e-06 0.8771591186523438 C 3.814697265625e-06 0.3927183151245117 0.3075027465820312 -9.5367431640625e-07 0.6868324279785156 -9.5367431640625e-07 Z" stroke="none" fill="#12263f"/>
          </g>
          <g id="Trazado_218230" data-name="Trazado 218230" transform="translate(945.5 2005.512)" fill="#4dd0e1">
            <path d="M 39.52332305908203 11.98191833496094 L 1.000003457069397 11.98191833496094 L 1.000003457069397 0.9999986886978149 L 39.52332305908203 0.9999986886978149 L 39.52332305908203 11.98191833496094 Z" stroke="none"/>
            <path d="M 2.000003814697266 1.999999046325684 L 2.000003814697266 10.98191833496094 L 38.52332305908203 10.98191833496094 L 38.52332305908203 1.999999046325684 L 2.000003814697266 1.999999046325684 M 0.6868324279785156 -9.5367431640625e-07 L 39.83649444580078 -9.5367431640625e-07 C 40.21581268310547 -9.5367431640625e-07 40.52332305908203 0.3927183151245117 40.52332305908203 0.8771591186523438 L 40.52332305908203 12.10475826263428 C 40.52332305908203 12.58919906616211 40.21581268310547 12.98191833496094 39.83649444580078 12.98191833496094 L 0.6868324279785156 12.98191833496094 C 0.3075027465820312 12.98191833496094 3.814697265625e-06 12.58919906616211 3.814697265625e-06 12.10475826263428 L 3.814697265625e-06 0.8771591186523438 C 3.814697265625e-06 0.3927183151245117 0.3075027465820312 -9.5367431640625e-07 0.6868324279785156 -9.5367431640625e-07 Z" stroke="none" fill="#12263f"/>
          </g>
          <text id="Interfaz_usuarios" data-name="Interfaz usuarios" transform="translate(992.699 1977.114)" fill="#12263f" font-size="18" font-family="Roboto-Bold, Roboto" font-weight="700"><tspan x="-31.57" y="19">Interfaz </tspan><tspan x="-34.91" y="43">usuarios</tspan></text>
        </g>
      </g>
      <g id="Grupo_106683" data-name="Grupo 106683" transform="translate(259.672 383.5)">
        <g id="Grupo_106676-2" data-name="Grupo 106676" transform="translate(-135.5 -77.5)">
          <g id="Trazado_218228-2" data-name="Trazado 218228" transform="translate(965.112 1969)" fill="#ffca28">
            <path d="M 167.4997406005859 59.04135894775391 L 2.887919425964355 59.04135894775391 C 2.295745372772217 59.04135894775391 1.864745497703552 58.56009674072266 1.660528063774109 58.2732048034668 C 1.240745425224304 57.68353271484375 1.000006318092346 56.84935760498047 1.000006318092346 55.98453140258789 L 1.000006318092346 4.056857109069824 C 1.000006318092346 3.192031145095825 1.240745425224304 2.357835531234741 1.660528063774109 1.768161535263062 C 1.864745497703552 1.48127019405365 2.295745372772217 1.000009417533875 2.887919425964355 1.000009417533875 L 167.4997406005859 1.000009417533875 C 168.0919189453125 1.000009417533875 168.5229187011719 1.48127019405365 168.7271423339844 1.768161535263062 C 169.1469268798828 2.357835531234741 169.3876647949219 3.192031145095825 169.3876647949219 4.056857109069824 L 169.3876647949219 55.98453140258789 C 169.3876647949219 56.84935760498047 169.1469268798828 57.68353271484375 168.7271423339844 58.2732048034668 C 168.5229187011719 58.56009674072266 168.0919189453125 59.04135894775391 167.4997406005859 59.04135894775391 Z" stroke="none"/>
            <path d="M 2.887924194335938 2 C 2.666900634765625 2 1.999984741210938 2.729476928710938 1.999984741210938 4.056842803955078 L 1.999984741210938 55.98452377319336 C 1.999984741210938 57.3118896484375 2.666900634765625 58.04136657714844 2.887924194335938 58.04136657714844 L 167.4997406005859 58.04136657714844 C 167.7207641601562 58.04136657714844 168.3876800537109 57.3118896484375 168.3876800537109 55.98452377319336 L 168.3876800537109 4.056842803955078 C 168.3876800537109 2.729476928710938 167.7207641601562 2 167.4997406005859 2 L 2.887924194335938 2 M 2.887924194335938 0 L 167.4997406005859 0 C 169.0946960449219 0 170.3876800537109 1.816318511962891 170.3876800537109 4.056842803955078 L 170.3876800537109 55.98452377319336 C 170.3876800537109 58.22504806518555 169.0946960449219 60.04136657714844 167.4997406005859 60.04136657714844 L 2.887924194335938 60.04136657714844 C 1.29296875 60.04136657714844 -1.52587890625e-05 58.22504806518555 -1.52587890625e-05 55.98452377319336 L -1.52587890625e-05 4.056842803955078 C -1.52587890625e-05 1.816318511962891 1.29296875 0 2.887924194335938 0 Z" stroke="none" fill="#12263f"/>
          </g>
          <g id="Trazado_218229-2" data-name="Trazado 218229" transform="translate(945.5 1983.605)" fill="#ffca28">
            <path d="M 39.52332305908203 11.98191833496094 L 1.000003457069397 11.98191833496094 L 1.000003457069397 0.9999986886978149 L 39.52332305908203 0.9999986886978149 L 39.52332305908203 11.98191833496094 Z" stroke="none"/>
            <path d="M 2.000003814697266 1.999999046325684 L 2.000003814697266 10.98191833496094 L 38.52332305908203 10.98191833496094 L 38.52332305908203 1.999999046325684 L 2.000003814697266 1.999999046325684 M 0.6868324279785156 -9.5367431640625e-07 L 39.83649444580078 -9.5367431640625e-07 C 40.21581268310547 -9.5367431640625e-07 40.52332305908203 0.3927183151245117 40.52332305908203 0.8771591186523438 L 40.52332305908203 12.10475826263428 C 40.52332305908203 12.58919906616211 40.21581268310547 12.98191833496094 39.83649444580078 12.98191833496094 L 0.6868324279785156 12.98191833496094 C 0.3075027465820312 12.98191833496094 3.814697265625e-06 12.58919906616211 3.814697265625e-06 12.10475826263428 L 3.814697265625e-06 0.8771591186523438 C 3.814697265625e-06 0.3927183151245117 0.3075027465820312 -9.5367431640625e-07 0.6868324279785156 -9.5367431640625e-07 Z" stroke="none" fill="#12263f"/>
          </g>
          <g id="Trazado_218230-2" data-name="Trazado 218230" transform="translate(945.5 2005.512)" fill="#ffca28">
            <path d="M 39.52332305908203 11.98191833496094 L 1.000003457069397 11.98191833496094 L 1.000003457069397 0.9999986886978149 L 39.52332305908203 0.9999986886978149 L 39.52332305908203 11.98191833496094 Z" stroke="none"/>
            <path d="M 2.000003814697266 1.999999046325684 L 2.000003814697266 10.98191833496094 L 38.52332305908203 10.98191833496094 L 38.52332305908203 1.999999046325684 L 2.000003814697266 1.999999046325684 M 0.6868324279785156 -9.5367431640625e-07 L 39.83649444580078 -9.5367431640625e-07 C 40.21581268310547 -9.5367431640625e-07 40.52332305908203 0.3927183151245117 40.52332305908203 0.8771591186523438 L 40.52332305908203 12.10475826263428 C 40.52332305908203 12.58919906616211 40.21581268310547 12.98191833496094 39.83649444580078 12.98191833496094 L 0.6868324279785156 12.98191833496094 C 0.3075027465820312 12.98191833496094 3.814697265625e-06 12.58919906616211 3.814697265625e-06 12.10475826263428 L 3.814697265625e-06 0.8771591186523438 C 3.814697265625e-06 0.3927183151245117 0.3075027465820312 -9.5367431640625e-07 0.6868324279785156 -9.5367431640625e-07 Z" stroke="none" fill="#12263f"/>
          </g>
          <text id="Interfaz_administrador" data-name="Interfaz administrador" transform="translate(992.699 1977.114)" fill="#12263f" font-size="18" font-family="Roboto-Bold, Roboto" font-weight="700"><tspan x="-31.57" y="19">Interfaz </tspan><tspan x="-56.588" y="43">administrador</tspan></text>
        </g>
      </g>
      <text id="Presentación" transform="translate(840.5 2225)" fill="#12263f" font-size="16" font-family="Roboto-Bold, Roboto" font-weight="700"><tspan x="0" y="17">Presentación</tspan></text>
    </g>
    <g id="Grupo_106688" data-name="Grupo 106688" transform="translate(0 543)">
      <g id="Rectángulo_45466-2" data-name="Rectángulo 45466" transform="translate(833 2250)" fill="#fff" stroke="#12263f" stroke-width="2">
        <rect width="542" height="181" stroke="none"/>
        <rect x="1" y="1" width="540" height="179" fill="none"/>
      </g>
      <g id="Rectángulo_45470" data-name="Rectángulo 45470" transform="translate(833 2491)" fill="#fff" stroke="#12263f" stroke-width="2">
        <rect width="208" height="66" stroke="none"/>
        <rect x="1" y="1" width="206" height="64" fill="none"/>
      </g>
      <g id="Rectángulo_45472" data-name="Rectángulo 45472" transform="translate(1142 2491)" fill="#fff" stroke="#12263f" stroke-width="2">
        <rect width="208" height="66" stroke="none"/>
        <rect x="1" y="1" width="206" height="64" fill="none"/>
      </g>
      <g id="Rectángulo_45467-2" data-name="Rectángulo 45467" transform="translate(833 2217)" fill="#cef9ff" stroke="#12263f" stroke-width="2">
        <rect width="217" height="35" stroke="none"/>
        <rect x="1" y="1" width="215" height="33" fill="none"/>
      </g>
      <g id="Rectángulo_45469" data-name="Rectángulo 45469" transform="translate(833 2458)" fill="#cef9ff" stroke="#12263f" stroke-width="2">
        <rect width="131" height="35" stroke="none"/>
        <rect x="1" y="1" width="129" height="33" fill="none"/>
      </g>
      <g id="Rectángulo_45471" data-name="Rectángulo 45471" transform="translate(1142 2458)" fill="#cef9ff" stroke="#12263f" stroke-width="2">
        <rect width="131" height="35" stroke="none"/>
        <rect x="1" y="1" width="129" height="33" fill="none"/>
      </g>
      <g id="Grupo_106681-2" data-name="Grupo 106681" transform="translate(49.672 383.5)">
        <g id="Grupo_106676-3" data-name="Grupo 106676" transform="translate(810 1891.5)">
          <g id="Trazado_218228-3" data-name="Trazado 218228" transform="translate(19.612)" fill="#4dd0e1">
            <path d="M 127.7140579223633 59.04136657714844 L 2.201974391937256 59.04136657714844 C 1.789257764816284 59.04136657714844 1.00000786781311 57.85093307495117 1.00000786781311 55.98451614379883 L 1.00000786781311 4.056849956512451 C 1.00000786781311 2.190433263778687 1.789257764816284 0.9999999403953552 2.201974391937256 0.9999999403953552 L 127.7140579223633 0.9999999403953552 C 128.1267700195312 0.9999999403953552 128.9160308837891 2.190433263778687 128.9160308837891 4.056849956512451 L 128.9160308837891 55.98451614379883 C 128.9160308837891 57.85093307495117 128.1267700195312 59.04136657714844 127.7140579223633 59.04136657714844 Z" stroke="none"/>
            <path d="M 2.487518310546875 1.999992370605469 C 2.301300048828125 2.270896911621094 1.999992370605469 2.976085662841797 1.999992370605469 4.056846618652344 L 1.999992370605469 55.98451995849609 C 1.999992370605469 57.06528091430664 2.301300048828125 57.77046966552734 2.487518310546875 58.04137420654297 L 127.4284896850586 58.04137420654297 C 127.6147079467773 57.77041244506836 127.9160079956055 57.06520462036133 127.9160079956055 55.98451995849609 L 127.9160079956055 4.056846618652344 C 127.9160079956055 2.976161956787109 127.6147079467773 2.270954132080078 127.4284896850586 1.999992370605469 L 2.487518310546875 1.999992370605469 M 2.201972961425781 -7.62939453125e-06 L 127.7140426635742 -7.62939453125e-06 C 128.9301605224609 -7.62939453125e-06 129.9160003662109 1.816318511962891 129.9160003662109 4.056846618652344 L 129.9160003662109 55.98451995849609 C 129.9160003662109 58.22504806518555 128.9301605224609 60.04137420654297 127.7140426635742 60.04137420654297 L 2.201972961425781 60.04137420654297 C 0.98583984375 60.04137420654297 -1.52587890625e-05 58.22504806518555 -1.52587890625e-05 55.98451995849609 L -1.52587890625e-05 4.056846618652344 C -1.52587890625e-05 1.816318511962891 0.98583984375 -7.62939453125e-06 2.201972961425781 -7.62939453125e-06 Z" stroke="none" fill="#12263f"/>
          </g>
          <g id="Trazado_218229-3" data-name="Trazado 218229" transform="translate(0 14.605)" fill="#4dd0e1">
            <path d="M 39.52332305908203 11.98191833496094 L 1.000003457069397 11.98191833496094 L 1.000003457069397 0.9999986886978149 L 39.52332305908203 0.9999986886978149 L 39.52332305908203 11.98191833496094 Z" stroke="none"/>
            <path d="M 2.000003814697266 1.999999046325684 L 2.000003814697266 10.98191833496094 L 38.52332305908203 10.98191833496094 L 38.52332305908203 1.999999046325684 L 2.000003814697266 1.999999046325684 M 0.6868324279785156 -9.5367431640625e-07 L 39.83649444580078 -9.5367431640625e-07 C 40.21581268310547 -9.5367431640625e-07 40.52332305908203 0.3927183151245117 40.52332305908203 0.8771591186523438 L 40.52332305908203 12.10475826263428 C 40.52332305908203 12.58919906616211 40.21581268310547 12.98191833496094 39.83649444580078 12.98191833496094 L 0.6868324279785156 12.98191833496094 C 0.3075027465820312 12.98191833496094 3.814697265625e-06 12.58919906616211 3.814697265625e-06 12.10475826263428 L 3.814697265625e-06 0.8771591186523438 C 3.814697265625e-06 0.3927183151245117 0.3075027465820312 -9.5367431640625e-07 0.6868324279785156 -9.5367431640625e-07 Z" stroke="none" fill="#12263f"/>
          </g>
          <g id="Trazado_218230-3" data-name="Trazado 218230" transform="translate(0 36.512)" fill="#4dd0e1">
            <path d="M 39.52332305908203 11.98191833496094 L 1.000003457069397 11.98191833496094 L 1.000003457069397 0.9999986886978149 L 39.52332305908203 0.9999986886978149 L 39.52332305908203 11.98191833496094 Z" stroke="none"/>
            <path d="M 2.000003814697266 1.999999046325684 L 2.000003814697266 10.98191833496094 L 38.52332305908203 10.98191833496094 L 38.52332305908203 1.999999046325684 L 2.000003814697266 1.999999046325684 M 0.6868324279785156 -9.5367431640625e-07 L 39.83649444580078 -9.5367431640625e-07 C 40.21581268310547 -9.5367431640625e-07 40.52332305908203 0.3927183151245117 40.52332305908203 0.8771591186523438 L 40.52332305908203 12.10475826263428 C 40.52332305908203 12.58919906616211 40.21581268310547 12.98191833496094 39.83649444580078 12.98191833496094 L 0.6868324279785156 12.98191833496094 C 0.3075027465820312 12.98191833496094 3.814697265625e-06 12.58919906616211 3.814697265625e-06 12.10475826263428 L 3.814697265625e-06 0.8771591186523438 C 3.814697265625e-06 0.3927183151245117 0.3075027465820312 -9.5367431640625e-07 0.6868324279785156 -9.5367431640625e-07 Z" stroke="none" fill="#12263f"/>
          </g>
          <text id="Creación_de_facturas" data-name="Creación de facturas" transform="translate(31.527 11.114)" fill="#12263f" font-size="16" font-family="Roboto-Bold, Roboto" font-weight="700"><tspan x="-42.887" y="17">Creación de </tspan><tspan x="-29.711" y="37">facturas</tspan></text>
        </g>
      </g>
      <g id="Grupo_106690" data-name="Grupo 106690" transform="translate(49.672 458.5)">
        <g id="Grupo_106676-4" data-name="Grupo 106676" transform="translate(810 1891.5)">
          <g id="Trazado_218228-4" data-name="Trazado 218228" transform="translate(19.612)" fill="#4dd0e1">
            <path d="M 127.7140579223633 59.04136657714844 L 2.201974391937256 59.04136657714844 C 1.789257764816284 59.04136657714844 1.00000786781311 57.85093307495117 1.00000786781311 55.98451614379883 L 1.00000786781311 4.056849956512451 C 1.00000786781311 2.190433263778687 1.789257764816284 0.9999999403953552 2.201974391937256 0.9999999403953552 L 127.7140579223633 0.9999999403953552 C 128.1267700195312 0.9999999403953552 128.9160308837891 2.190433263778687 128.9160308837891 4.056849956512451 L 128.9160308837891 55.98451614379883 C 128.9160308837891 57.85093307495117 128.1267700195312 59.04136657714844 127.7140579223633 59.04136657714844 Z" stroke="none"/>
            <path d="M 2.487518310546875 1.999992370605469 C 2.301300048828125 2.270896911621094 1.999992370605469 2.976085662841797 1.999992370605469 4.056846618652344 L 1.999992370605469 55.98451995849609 C 1.999992370605469 57.06528091430664 2.301300048828125 57.77046966552734 2.487518310546875 58.04137420654297 L 127.4284896850586 58.04137420654297 C 127.6147079467773 57.77041244506836 127.9160079956055 57.06520462036133 127.9160079956055 55.98451995849609 L 127.9160079956055 4.056846618652344 C 127.9160079956055 2.976161956787109 127.6147079467773 2.270954132080078 127.4284896850586 1.999992370605469 L 2.487518310546875 1.999992370605469 M 2.201972961425781 -7.62939453125e-06 L 127.7140426635742 -7.62939453125e-06 C 128.9301605224609 -7.62939453125e-06 129.9160003662109 1.816318511962891 129.9160003662109 4.056846618652344 L 129.9160003662109 55.98451995849609 C 129.9160003662109 58.22504806518555 128.9301605224609 60.04137420654297 127.7140426635742 60.04137420654297 L 2.201972961425781 60.04137420654297 C 0.98583984375 60.04137420654297 -1.52587890625e-05 58.22504806518555 -1.52587890625e-05 55.98451995849609 L -1.52587890625e-05 4.056846618652344 C -1.52587890625e-05 1.816318511962891 0.98583984375 -7.62939453125e-06 2.201972961425781 -7.62939453125e-06 Z" stroke="none" fill="#12263f"/>
          </g>
          <g id="Trazado_218229-4" data-name="Trazado 218229" transform="translate(0 14.605)" fill="#4dd0e1">
            <path d="M 39.52332305908203 11.98191833496094 L 1.000003457069397 11.98191833496094 L 1.000003457069397 0.9999986886978149 L 39.52332305908203 0.9999986886978149 L 39.52332305908203 11.98191833496094 Z" stroke="none"/>
            <path d="M 2.000003814697266 1.999999046325684 L 2.000003814697266 10.98191833496094 L 38.52332305908203 10.98191833496094 L 38.52332305908203 1.999999046325684 L 2.000003814697266 1.999999046325684 M 0.6868324279785156 -9.5367431640625e-07 L 39.83649444580078 -9.5367431640625e-07 C 40.21581268310547 -9.5367431640625e-07 40.52332305908203 0.3927183151245117 40.52332305908203 0.8771591186523438 L 40.52332305908203 12.10475826263428 C 40.52332305908203 12.58919906616211 40.21581268310547 12.98191833496094 39.83649444580078 12.98191833496094 L 0.6868324279785156 12.98191833496094 C 0.3075027465820312 12.98191833496094 3.814697265625e-06 12.58919906616211 3.814697265625e-06 12.10475826263428 L 3.814697265625e-06 0.8771591186523438 C 3.814697265625e-06 0.3927183151245117 0.3075027465820312 -9.5367431640625e-07 0.6868324279785156 -9.5367431640625e-07 Z" stroke="none" fill="#12263f"/>
          </g>
          <g id="Trazado_218230-4" data-name="Trazado 218230" transform="translate(0 36.512)" fill="#4dd0e1">
            <path d="M 39.52332305908203 11.98191833496094 L 1.000003457069397 11.98191833496094 L 1.000003457069397 0.9999986886978149 L 39.52332305908203 0.9999986886978149 L 39.52332305908203 11.98191833496094 Z" stroke="none"/>
            <path d="M 2.000003814697266 1.999999046325684 L 2.000003814697266 10.98191833496094 L 38.52332305908203 10.98191833496094 L 38.52332305908203 1.999999046325684 L 2.000003814697266 1.999999046325684 M 0.6868324279785156 -9.5367431640625e-07 L 39.83649444580078 -9.5367431640625e-07 C 40.21581268310547 -9.5367431640625e-07 40.52332305908203 0.3927183151245117 40.52332305908203 0.8771591186523438 L 40.52332305908203 12.10475826263428 C 40.52332305908203 12.58919906616211 40.21581268310547 12.98191833496094 39.83649444580078 12.98191833496094 L 0.6868324279785156 12.98191833496094 C 0.3075027465820312 12.98191833496094 3.814697265625e-06 12.58919906616211 3.814697265625e-06 12.10475826263428 L 3.814697265625e-06 0.8771591186523438 C 3.814697265625e-06 0.3927183151245117 0.3075027465820312 -9.5367431640625e-07 0.6868324279785156 -9.5367431640625e-07 Z" stroke="none" fill="#12263f"/>
          </g>
          <text id="Gestor_de_avisos" data-name="Gestor de 
avisos" transform="translate(31.527 11.114)" fill="#12263f" font-size="16" font-family="Roboto-Bold, Roboto" font-weight="700"><tspan x="-34.738" y="17">Gestor de </tspan><tspan x="-23.145" y="37">avisos</tspan></text>
        </g>
      </g>
      <g id="Grupo_106683-2" data-name="Grupo 106683" transform="translate(217.672 383.5)">
        <g id="Grupo_106676-5" data-name="Grupo 106676" transform="translate(-135.5 -77.5)">
          <g id="Trazado_218228-5" data-name="Trazado 218228" transform="translate(965.112 1969)" fill="#ffca28">
            <path d="M 130.2686309814453 59.04137420654297 L 2.246015071868896 59.04137420654297 C 1.806724190711975 59.04137420654297 0.9999969601631165 57.88079071044922 0.9999969601631165 55.98451995849609 L 0.9999969601631165 4.056847095489502 C 0.9999969601631165 2.160574197769165 1.806724190711975 0.9999923706054688 2.246015071868896 0.9999923706054688 L 130.2686309814453 0.9999923706054688 C 130.7079315185547 0.9999923706054688 131.5146484375 2.160574197769165 131.5146484375 4.056847095489502 L 131.5146484375 55.98451995849609 C 131.5146484375 57.88079071044922 130.7079315185547 59.04137420654297 130.2686309814453 59.04137420654297 Z" stroke="none"/>
            <path d="M 2.504440307617188 1.999992370605469 C 2.3154296875 2.259021759033203 2 2.962417602539062 2 4.056846618652344 L 2 55.98451995849609 C 2 57.07894897460938 2.3154296875 57.78234481811523 2.504440307617188 58.04137420654297 L 130.0101928710938 58.04137420654297 C 130.1992034912109 57.78234481811523 130.5146484375 57.07894897460938 130.5146484375 55.98451995849609 L 130.5146484375 4.056846618652344 C 130.5146484375 2.962417602539062 130.1992034912109 2.259021759033203 130.0101928710938 1.999992370605469 L 2.504440307617188 1.999992370605469 M 2.246017456054688 -7.62939453125e-06 L 130.2686309814453 -7.62939453125e-06 C 131.5090637207031 -7.62939453125e-06 132.5146484375 1.816318511962891 132.5146484375 4.056846618652344 L 132.5146484375 55.98451995849609 C 132.5146484375 58.22504806518555 131.5090637207031 60.04137420654297 130.2686309814453 60.04137420654297 L 2.246017456054688 60.04137420654297 C 1.00555419921875 60.04137420654297 0 58.22504806518555 0 55.98451995849609 L 0 4.056846618652344 C 0 1.816318511962891 1.00555419921875 -7.62939453125e-06 2.246017456054688 -7.62939453125e-06 Z" stroke="none" fill="#12263f"/>
          </g>
          <g id="Trazado_218229-5" data-name="Trazado 218229" transform="translate(945.5 1983.605)" fill="#ffca28">
            <path d="M 39.52332305908203 11.98191833496094 L 1.000003457069397 11.98191833496094 L 1.000003457069397 0.9999986886978149 L 39.52332305908203 0.9999986886978149 L 39.52332305908203 11.98191833496094 Z" stroke="none"/>
            <path d="M 2.000003814697266 1.999999046325684 L 2.000003814697266 10.98191833496094 L 38.52332305908203 10.98191833496094 L 38.52332305908203 1.999999046325684 L 2.000003814697266 1.999999046325684 M 0.6868324279785156 -9.5367431640625e-07 L 39.83649444580078 -9.5367431640625e-07 C 40.21581268310547 -9.5367431640625e-07 40.52332305908203 0.3927183151245117 40.52332305908203 0.8771591186523438 L 40.52332305908203 12.10475826263428 C 40.52332305908203 12.58919906616211 40.21581268310547 12.98191833496094 39.83649444580078 12.98191833496094 L 0.6868324279785156 12.98191833496094 C 0.3075027465820312 12.98191833496094 3.814697265625e-06 12.58919906616211 3.814697265625e-06 12.10475826263428 L 3.814697265625e-06 0.8771591186523438 C 3.814697265625e-06 0.3927183151245117 0.3075027465820312 -9.5367431640625e-07 0.6868324279785156 -9.5367431640625e-07 Z" stroke="none" fill="#12263f"/>
          </g>
          <g id="Trazado_218230-5" data-name="Trazado 218230" transform="translate(945.5 2005.512)" fill="#ffca28">
            <path d="M 39.52332305908203 11.98191833496094 L 1.000003457069397 11.98191833496094 L 1.000003457069397 0.9999986886978149 L 39.52332305908203 0.9999986886978149 L 39.52332305908203 11.98191833496094 Z" stroke="none"/>
            <path d="M 2.000003814697266 1.999999046325684 L 2.000003814697266 10.98191833496094 L 38.52332305908203 10.98191833496094 L 38.52332305908203 1.999999046325684 L 2.000003814697266 1.999999046325684 M 0.6868324279785156 -9.5367431640625e-07 L 39.83649444580078 -9.5367431640625e-07 C 40.21581268310547 -9.5367431640625e-07 40.52332305908203 0.3927183151245117 40.52332305908203 0.8771591186523438 L 40.52332305908203 12.10475826263428 C 40.52332305908203 12.58919906616211 40.21581268310547 12.98191833496094 39.83649444580078 12.98191833496094 L 0.6868324279785156 12.98191833496094 C 0.3075027465820312 12.98191833496094 3.814697265625e-06 12.58919906616211 3.814697265625e-06 12.10475826263428 L 3.814697265625e-06 0.8771591186523438 C 3.814697265625e-06 0.3927183151245117 0.3075027465820312 -9.5367431640625e-07 0.6868324279785156 -9.5367431640625e-07 Z" stroke="none" fill="#12263f"/>
          </g>
          <text id="Gestión_de_animales" data-name="Gestión de animales" transform="translate(970.627 1977.114)" fill="#12263f" font-size="16" font-family="Roboto-Bold, Roboto" font-weight="700"><tspan x="-38.539" y="17">Gestión de </tspan><tspan x="-32.664" y="37">animales</tspan></text>
        </g>
      </g>
      <g id="Grupo_106691" data-name="Grupo 106691" transform="translate(217.672 458.5)">
        <g id="Grupo_106676-6" data-name="Grupo 106676" transform="translate(-135.5 -77.5)">
          <g id="Trazado_218228-6" data-name="Trazado 218228" transform="translate(965.112 1969)" fill="#ffca28">
            <path d="M 130.2686309814453 59.04137420654297 L 2.246015071868896 59.04137420654297 C 1.806724190711975 59.04137420654297 0.9999969601631165 57.88079071044922 0.9999969601631165 55.98451995849609 L 0.9999969601631165 4.056847095489502 C 0.9999969601631165 2.160574197769165 1.806724190711975 0.9999923706054688 2.246015071868896 0.9999923706054688 L 130.2686309814453 0.9999923706054688 C 130.7079315185547 0.9999923706054688 131.5146484375 2.160574197769165 131.5146484375 4.056847095489502 L 131.5146484375 55.98451995849609 C 131.5146484375 57.88079071044922 130.7079315185547 59.04137420654297 130.2686309814453 59.04137420654297 Z" stroke="none"/>
            <path d="M 2.504440307617188 1.999992370605469 C 2.3154296875 2.259021759033203 2 2.962417602539062 2 4.056846618652344 L 2 55.98451995849609 C 2 57.07894897460938 2.3154296875 57.78234481811523 2.504440307617188 58.04137420654297 L 130.0101928710938 58.04137420654297 C 130.1992034912109 57.78234481811523 130.5146484375 57.07894897460938 130.5146484375 55.98451995849609 L 130.5146484375 4.056846618652344 C 130.5146484375 2.962417602539062 130.1992034912109 2.259021759033203 130.0101928710938 1.999992370605469 L 2.504440307617188 1.999992370605469 M 2.246017456054688 -7.62939453125e-06 L 130.2686309814453 -7.62939453125e-06 C 131.5090637207031 -7.62939453125e-06 132.5146484375 1.816318511962891 132.5146484375 4.056846618652344 L 132.5146484375 55.98451995849609 C 132.5146484375 58.22504806518555 131.5090637207031 60.04137420654297 130.2686309814453 60.04137420654297 L 2.246017456054688 60.04137420654297 C 1.00555419921875 60.04137420654297 0 58.22504806518555 0 55.98451995849609 L 0 4.056846618652344 C 0 1.816318511962891 1.00555419921875 -7.62939453125e-06 2.246017456054688 -7.62939453125e-06 Z" stroke="none" fill="#12263f"/>
          </g>
          <g id="Trazado_218229-6" data-name="Trazado 218229" transform="translate(945.5 1983.605)" fill="#ffca28">
            <path d="M 39.52332305908203 11.98191833496094 L 1.000003457069397 11.98191833496094 L 1.000003457069397 0.9999986886978149 L 39.52332305908203 0.9999986886978149 L 39.52332305908203 11.98191833496094 Z" stroke="none"/>
            <path d="M 2.000003814697266 1.999999046325684 L 2.000003814697266 10.98191833496094 L 38.52332305908203 10.98191833496094 L 38.52332305908203 1.999999046325684 L 2.000003814697266 1.999999046325684 M 0.6868324279785156 -9.5367431640625e-07 L 39.83649444580078 -9.5367431640625e-07 C 40.21581268310547 -9.5367431640625e-07 40.52332305908203 0.3927183151245117 40.52332305908203 0.8771591186523438 L 40.52332305908203 12.10475826263428 C 40.52332305908203 12.58919906616211 40.21581268310547 12.98191833496094 39.83649444580078 12.98191833496094 L 0.6868324279785156 12.98191833496094 C 0.3075027465820312 12.98191833496094 3.814697265625e-06 12.58919906616211 3.814697265625e-06 12.10475826263428 L 3.814697265625e-06 0.8771591186523438 C 3.814697265625e-06 0.3927183151245117 0.3075027465820312 -9.5367431640625e-07 0.6868324279785156 -9.5367431640625e-07 Z" stroke="none" fill="#12263f"/>
          </g>
          <g id="Trazado_218230-6" data-name="Trazado 218230" transform="translate(945.5 2005.512)" fill="#ffca28">
            <path d="M 39.52332305908203 11.98191833496094 L 1.000003457069397 11.98191833496094 L 1.000003457069397 0.9999986886978149 L 39.52332305908203 0.9999986886978149 L 39.52332305908203 11.98191833496094 Z" stroke="none"/>
            <path d="M 2.000003814697266 1.999999046325684 L 2.000003814697266 10.98191833496094 L 38.52332305908203 10.98191833496094 L 38.52332305908203 1.999999046325684 L 2.000003814697266 1.999999046325684 M 0.6868324279785156 -9.5367431640625e-07 L 39.83649444580078 -9.5367431640625e-07 C 40.21581268310547 -9.5367431640625e-07 40.52332305908203 0.3927183151245117 40.52332305908203 0.8771591186523438 L 40.52332305908203 12.10475826263428 C 40.52332305908203 12.58919906616211 40.21581268310547 12.98191833496094 39.83649444580078 12.98191833496094 L 0.6868324279785156 12.98191833496094 C 0.3075027465820312 12.98191833496094 3.814697265625e-06 12.58919906616211 3.814697265625e-06 12.10475826263428 L 3.814697265625e-06 0.8771591186523438 C 3.814697265625e-06 0.3927183151245117 0.3075027465820312 -9.5367431640625e-07 0.6868324279785156 -9.5367431640625e-07 Z" stroke="none" fill="#12263f"/>
          </g>
          <text id="Workflow" transform="translate(970.627 1987.086)" fill="#12263f" font-size="16" font-family="Roboto-Bold, Roboto" font-weight="700"><tspan x="-33.895" y="17">Workflow</tspan></text>
        </g>
      </g>
      <g id="Grupo_106689" data-name="Grupo 106689" transform="translate(387.672 383.5)">
        <g id="Grupo_106676-7" data-name="Grupo 106676" transform="translate(-135.5 -77.5)">
          <g id="Trazado_218228-7" data-name="Trazado 218228" transform="translate(965.112 1969)" fill="#53c7ff">
            <path d="M 130.2686309814453 59.04137420654297 L 2.246015071868896 59.04137420654297 C 1.806724190711975 59.04137420654297 0.9999969601631165 57.88079071044922 0.9999969601631165 55.98451995849609 L 0.9999969601631165 4.056847095489502 C 0.9999969601631165 2.160574197769165 1.806724190711975 0.9999923706054688 2.246015071868896 0.9999923706054688 L 130.2686309814453 0.9999923706054688 C 130.7079315185547 0.9999923706054688 131.5146484375 2.160574197769165 131.5146484375 4.056847095489502 L 131.5146484375 55.98451995849609 C 131.5146484375 57.88079071044922 130.7079315185547 59.04137420654297 130.2686309814453 59.04137420654297 Z" stroke="none"/>
            <path d="M 2.504440307617188 1.999992370605469 C 2.3154296875 2.259021759033203 2 2.962417602539062 2 4.056846618652344 L 2 55.98451995849609 C 2 57.07894897460938 2.3154296875 57.78234481811523 2.504440307617188 58.04137420654297 L 130.0101928710938 58.04137420654297 C 130.1992034912109 57.78234481811523 130.5146484375 57.07894897460938 130.5146484375 55.98451995849609 L 130.5146484375 4.056846618652344 C 130.5146484375 2.962417602539062 130.1992034912109 2.259021759033203 130.0101928710938 1.999992370605469 L 2.504440307617188 1.999992370605469 M 2.246017456054688 -7.62939453125e-06 L 130.2686309814453 -7.62939453125e-06 C 131.5090637207031 -7.62939453125e-06 132.5146484375 1.816318511962891 132.5146484375 4.056846618652344 L 132.5146484375 55.98451995849609 C 132.5146484375 58.22504806518555 131.5090637207031 60.04137420654297 130.2686309814453 60.04137420654297 L 2.246017456054688 60.04137420654297 C 1.00555419921875 60.04137420654297 0 58.22504806518555 0 55.98451995849609 L 0 4.056846618652344 C 0 1.816318511962891 1.00555419921875 -7.62939453125e-06 2.246017456054688 -7.62939453125e-06 Z" stroke="none" fill="#12263f"/>
          </g>
          <g id="Trazado_218229-7" data-name="Trazado 218229" transform="translate(945.5 1983.605)" fill="#53c7ff">
            <path d="M 39.52332305908203 11.98191833496094 L 1.000003457069397 11.98191833496094 L 1.000003457069397 0.9999986886978149 L 39.52332305908203 0.9999986886978149 L 39.52332305908203 11.98191833496094 Z" stroke="none"/>
            <path d="M 2.000003814697266 1.999999046325684 L 2.000003814697266 10.98191833496094 L 38.52332305908203 10.98191833496094 L 38.52332305908203 1.999999046325684 L 2.000003814697266 1.999999046325684 M 0.6868324279785156 -9.5367431640625e-07 L 39.83649444580078 -9.5367431640625e-07 C 40.21581268310547 -9.5367431640625e-07 40.52332305908203 0.3927183151245117 40.52332305908203 0.8771591186523438 L 40.52332305908203 12.10475826263428 C 40.52332305908203 12.58919906616211 40.21581268310547 12.98191833496094 39.83649444580078 12.98191833496094 L 0.6868324279785156 12.98191833496094 C 0.3075027465820312 12.98191833496094 3.814697265625e-06 12.58919906616211 3.814697265625e-06 12.10475826263428 L 3.814697265625e-06 0.8771591186523438 C 3.814697265625e-06 0.3927183151245117 0.3075027465820312 -9.5367431640625e-07 0.6868324279785156 -9.5367431640625e-07 Z" stroke="none" fill="#12263f"/>
          </g>
          <g id="Trazado_218230-7" data-name="Trazado 218230" transform="translate(945.5 2005.512)" fill="#53c7ff">
            <path d="M 39.52332305908203 11.98191833496094 L 1.000003457069397 11.98191833496094 L 1.000003457069397 0.9999986886978149 L 39.52332305908203 0.9999986886978149 L 39.52332305908203 11.98191833496094 Z" stroke="none"/>
            <path d="M 2.000003814697266 1.999999046325684 L 2.000003814697266 10.98191833496094 L 38.52332305908203 10.98191833496094 L 38.52332305908203 1.999999046325684 L 2.000003814697266 1.999999046325684 M 0.6868324279785156 -9.5367431640625e-07 L 39.83649444580078 -9.5367431640625e-07 C 40.21581268310547 -9.5367431640625e-07 40.52332305908203 0.3927183151245117 40.52332305908203 0.8771591186523438 L 40.52332305908203 12.10475826263428 C 40.52332305908203 12.58919906616211 40.21581268310547 12.98191833496094 39.83649444580078 12.98191833496094 L 0.6868324279785156 12.98191833496094 C 0.3075027465820312 12.98191833496094 3.814697265625e-06 12.58919906616211 3.814697265625e-06 12.10475826263428 L 3.814697265625e-06 0.8771591186523438 C 3.814697265625e-06 0.3927183151245117 0.3075027465820312 -9.5367431640625e-07 0.6868324279785156 -9.5367431640625e-07 Z" stroke="none" fill="#12263f"/>
          </g>
          <text id="Gestión_de_empleados" data-name="Gestión de empleados" transform="translate(970.627 1977.114)" fill="#12263f" font-size="16" font-family="Roboto-Bold, Roboto" font-weight="700"><tspan x="-38.539" y="17">Gestión de </tspan><tspan x="-39.633" y="37">empleados</tspan></text>
        </g>
      </g>
      <g id="Grupo_106692" data-name="Grupo 106692" transform="translate(387.672 458.5)">
        <g id="Grupo_106676-8" data-name="Grupo 106676" transform="translate(-135.5 -77.5)">
          <g id="Trazado_218228-8" data-name="Trazado 218228" transform="translate(965.112 1969)" fill="#53c7ff">
            <path d="M 130.2686309814453 59.04137420654297 L 2.246015071868896 59.04137420654297 C 1.806724190711975 59.04137420654297 0.9999969601631165 57.88079071044922 0.9999969601631165 55.98451995849609 L 0.9999969601631165 4.056847095489502 C 0.9999969601631165 2.160574197769165 1.806724190711975 0.9999923706054688 2.246015071868896 0.9999923706054688 L 130.2686309814453 0.9999923706054688 C 130.7079315185547 0.9999923706054688 131.5146484375 2.160574197769165 131.5146484375 4.056847095489502 L 131.5146484375 55.98451995849609 C 131.5146484375 57.88079071044922 130.7079315185547 59.04137420654297 130.2686309814453 59.04137420654297 Z" stroke="none"/>
            <path d="M 2.504440307617188 1.999992370605469 C 2.3154296875 2.259021759033203 2 2.962417602539062 2 4.056846618652344 L 2 55.98451995849609 C 2 57.07894897460938 2.3154296875 57.78234481811523 2.504440307617188 58.04137420654297 L 130.0101928710938 58.04137420654297 C 130.1992034912109 57.78234481811523 130.5146484375 57.07894897460938 130.5146484375 55.98451995849609 L 130.5146484375 4.056846618652344 C 130.5146484375 2.962417602539062 130.1992034912109 2.259021759033203 130.0101928710938 1.999992370605469 L 2.504440307617188 1.999992370605469 M 2.246017456054688 -7.62939453125e-06 L 130.2686309814453 -7.62939453125e-06 C 131.5090637207031 -7.62939453125e-06 132.5146484375 1.816318511962891 132.5146484375 4.056846618652344 L 132.5146484375 55.98451995849609 C 132.5146484375 58.22504806518555 131.5090637207031 60.04137420654297 130.2686309814453 60.04137420654297 L 2.246017456054688 60.04137420654297 C 1.00555419921875 60.04137420654297 0 58.22504806518555 0 55.98451995849609 L 0 4.056846618652344 C 0 1.816318511962891 1.00555419921875 -7.62939453125e-06 2.246017456054688 -7.62939453125e-06 Z" stroke="none" fill="#12263f"/>
          </g>
          <g id="Trazado_218229-8" data-name="Trazado 218229" transform="translate(945.5 1983.605)" fill="#53c7ff">
            <path d="M 39.52332305908203 11.98191833496094 L 1.000003457069397 11.98191833496094 L 1.000003457069397 0.9999986886978149 L 39.52332305908203 0.9999986886978149 L 39.52332305908203 11.98191833496094 Z" stroke="none"/>
            <path d="M 2.000003814697266 1.999999046325684 L 2.000003814697266 10.98191833496094 L 38.52332305908203 10.98191833496094 L 38.52332305908203 1.999999046325684 L 2.000003814697266 1.999999046325684 M 0.6868324279785156 -9.5367431640625e-07 L 39.83649444580078 -9.5367431640625e-07 C 40.21581268310547 -9.5367431640625e-07 40.52332305908203 0.3927183151245117 40.52332305908203 0.8771591186523438 L 40.52332305908203 12.10475826263428 C 40.52332305908203 12.58919906616211 40.21581268310547 12.98191833496094 39.83649444580078 12.98191833496094 L 0.6868324279785156 12.98191833496094 C 0.3075027465820312 12.98191833496094 3.814697265625e-06 12.58919906616211 3.814697265625e-06 12.10475826263428 L 3.814697265625e-06 0.8771591186523438 C 3.814697265625e-06 0.3927183151245117 0.3075027465820312 -9.5367431640625e-07 0.6868324279785156 -9.5367431640625e-07 Z" stroke="none" fill="#12263f"/>
          </g>
          <g id="Trazado_218230-8" data-name="Trazado 218230" transform="translate(945.5 2005.512)" fill="#53c7ff">
            <path d="M 39.52332305908203 11.98191833496094 L 1.000003457069397 11.98191833496094 L 1.000003457069397 0.9999986886978149 L 39.52332305908203 0.9999986886978149 L 39.52332305908203 11.98191833496094 Z" stroke="none"/>
            <path d="M 2.000003814697266 1.999999046325684 L 2.000003814697266 10.98191833496094 L 38.52332305908203 10.98191833496094 L 38.52332305908203 1.999999046325684 L 2.000003814697266 1.999999046325684 M 0.6868324279785156 -9.5367431640625e-07 L 39.83649444580078 -9.5367431640625e-07 C 40.21581268310547 -9.5367431640625e-07 40.52332305908203 0.3927183151245117 40.52332305908203 0.8771591186523438 L 40.52332305908203 12.10475826263428 C 40.52332305908203 12.58919906616211 40.21581268310547 12.98191833496094 39.83649444580078 12.98191833496094 L 0.6868324279785156 12.98191833496094 C 0.3075027465820312 12.98191833496094 3.814697265625e-06 12.58919906616211 3.814697265625e-06 12.10475826263428 L 3.814697265625e-06 0.8771591186523438 C 3.814697265625e-06 0.3927183151245117 0.3075027465820312 -9.5367431640625e-07 0.6868324279785156 -9.5367431640625e-07 Z" stroke="none" fill="#12263f"/>
          </g>
          <text id="Gestión_documental" data-name="Gestión documental" transform="translate(970.627 1977.114)" fill="#12263f" font-size="16" font-family="Roboto-Bold, Roboto" font-weight="700"><tspan x="-27.715" y="17">Gestión </tspan><tspan x="-42.523" y="37">documental</tspan></text>
        </g>
      </g>
      <text id="Lógica_de_negocio" data-name="Lógica de negocio" transform="translate(843.5 2225)" fill="#12263f" font-size="16" font-family="Roboto-Bold, Roboto" font-weight="700"><tspan x="0" y="17">Lógica de negocio</tspan></text>
      <text id="BBDD" transform="translate(843.5 2466)" fill="#12263f" font-size="16" font-family="Roboto-Bold, Roboto" font-weight="700"><tspan x="0" y="17">BBDD</tspan></text>
      <text id="Servicios" transform="translate(1152.5 2466)" fill="#12263f" font-size="16" font-family="Roboto-Bold, Roboto" font-weight="700"><tspan x="0" y="17">Servicios</tspan></text>
    </g>
    <line id="Línea_1686" data-name="Línea 1686" y1="57.5" transform="translate(1106.5 2725.5)" fill="none" stroke="#12263f" stroke-width="2" stroke-dasharray="2 2"/>
    <path id="Polígono_80" data-name="Polígono 80" d="M4.6,0,9.2,7H0Z" transform="translate(1111.1 2792) rotate(-180)" fill="#12263f"/>
    <g id="Grupo_106693" data-name="Grupo 106693">
      <line id="Línea_1687" data-name="Línea 1687" y2="48" transform="translate(1001.499 2986.5)" fill="none" stroke="#12263f" stroke-width="2" stroke-dasharray="2 2"/>
      <path id="Polígono_81" data-name="Polígono 81" d="M4.6,0,9.2,7H0Z" transform="translate(996.899 2977.5)" fill="#12263f"/>
    </g>
  </g>
</svg>
