<?xml version="1.0" encoding="utf-8"?>
<!-- Generator: Adobe Illustrator 25.4.2, SVG Export Plug-In . SVG Version: 6.00 Build 0)  -->
<svg version="1.1" id="Capa_1" xmlns="http://www.w3.org/2000/svg" xmlns:xlink="http://www.w3.org/1999/xlink" x="0px" y="0px"
	 viewBox="0 0 281 79" style="enable-background:new 0 0 281 79;" xml:space="preserve">
<style type="text/css">
	.st0{fill:#A1E0FF;}
	.st1{fill:none;stroke:#12263F;stroke-width:2;stroke-linejoin:round;}
	.st2{enable-background:new    ;}
	.st3{fill:#12263F;}
	.st4{fill:#FFFFFF;}
</style>
<g id="Grupo_106880" transform="translate(-802 -1344)">
	<g id="Rectángulo_45432" transform="translate(802 1344)">
		<rect class="st0" width="281" height="79"/>
		<rect x="1" y="1" class="st1" width="279" height="77"/>
	</g>
	<g class="st2">
		<path class="st3" d="M920.4,1386.4h-4.6l-0.9,2.6h-2.8l4.8-12.8h2.4l4.8,12.8h-2.8L920.4,1386.4z M916.5,1384.2h3.2l-1.6-4.8
			L916.5,1384.2z"/>
		<path class="st3" d="M930.4,1381.9c-0.3,0-0.7-0.1-0.9-0.1c-1,0-1.6,0.3-1.9,1v6.2h-2.5v-9.5h2.4l0.1,1.1c0.5-0.9,1.2-1.3,2.1-1.3
			c0.3,0,0.5,0,0.8,0.1L930.4,1381.9z"/>
		<path class="st3" d="M935.1,1377.2v2.3h1.6v1.9h-1.6v4.7c0,0.4,0.1,0.6,0.2,0.8s0.4,0.2,0.8,0.2c0.3,0,0.5,0,0.7-0.1v1.9
			c-0.5,0.2-1,0.2-1.5,0.2c-1.8,0-2.7-0.9-2.7-2.7v-5.1h-1.4v-1.9h1.4v-2.3H935.1z"/>
		<path class="st3" d="M938.2,1377c0-0.4,0.1-0.7,0.4-0.9s0.6-0.4,1-0.4c0.4,0,0.8,0.1,1,0.4s0.4,0.6,0.4,0.9c0,0.4-0.1,0.7-0.4,0.9
			s-0.6,0.4-1,0.4s-0.8-0.1-1-0.4S938.2,1377.4,938.2,1377z M940.9,1389h-2.5v-9.5h2.5V1389z"/>
		<path class="st3" d="M943.6,1389v-7.6h-1.4v-1.9h1.4v-0.8c0-1.1,0.3-1.9,0.9-2.5c0.6-0.6,1.5-0.9,2.6-0.9c0.4,0,0.8,0.1,1.3,0.2
			l0,2c-0.2-0.1-0.5-0.1-0.8-0.1c-1,0-1.4,0.4-1.4,1.3v0.8h1.9v1.9h-1.9v7.6H943.6z"/>
		<path class="st3" d="M954.9,1389c-0.1-0.2-0.2-0.5-0.3-0.9c-0.6,0.7-1.4,1-2.4,1c-0.9,0-1.7-0.3-2.3-0.8c-0.6-0.5-0.9-1.2-0.9-2
			c0-1,0.4-1.8,1.1-2.3c0.7-0.5,1.8-0.8,3.2-0.8h1.2v-0.5c0-0.4-0.1-0.8-0.3-1.1c-0.2-0.3-0.6-0.4-1.1-0.4c-0.4,0-0.8,0.1-1,0.3
			c-0.2,0.2-0.4,0.5-0.4,0.8h-2.5c0-0.6,0.2-1.1,0.5-1.5s0.8-0.8,1.4-1.1s1.3-0.4,2.1-0.4c1.2,0,2.1,0.3,2.8,0.9
			c0.7,0.6,1,1.4,1,2.5v4.1c0,0.9,0.1,1.6,0.4,2v0.1H954.9z M952.8,1387.2c0.4,0,0.7-0.1,1-0.3c0.3-0.2,0.6-0.4,0.7-0.7v-1.6h-0.9
			c-1.3,0-1.9,0.4-2,1.3l0,0.1c0,0.3,0.1,0.6,0.3,0.8S952.4,1387.2,952.8,1387.2z"/>
		<path class="st3" d="M963,1387.1c0.5,0,0.8-0.1,1.1-0.4s0.4-0.6,0.5-1h2.4c0,0.6-0.2,1.2-0.5,1.8c-0.3,0.5-0.8,1-1.4,1.2
			c-0.6,0.3-1.3,0.4-2,0.4c-1.4,0-2.4-0.4-3.2-1.3c-0.8-0.9-1.2-2.1-1.2-3.6v-0.2c0-1.5,0.4-2.6,1.2-3.5s1.8-1.3,3.2-1.3
			c1.2,0,2.1,0.3,2.9,1c0.7,0.7,1.1,1.6,1.1,2.7h-2.4c0-0.5-0.2-0.9-0.5-1.2s-0.7-0.5-1.2-0.5c-0.6,0-1,0.2-1.3,0.6
			c-0.3,0.4-0.5,1.1-0.5,2.1v0.3c0,1,0.1,1.7,0.4,2.1S962.4,1387.1,963,1387.1z"/>
		<path class="st3" d="M971.5,1377.2v2.3h1.6v1.9h-1.6v4.7c0,0.4,0.1,0.6,0.2,0.8s0.4,0.2,0.8,0.2c0.3,0,0.5,0,0.7-0.1v1.9
			c-0.5,0.2-1,0.2-1.5,0.2c-1.8,0-2.7-0.9-2.7-2.7v-5.1h-1.4v-1.9h1.4v-2.3H971.5z"/>
	</g>
	<g id="Trazado_217612" transform="translate(1027 1355.855)">
		<path class="st4" d="M39,53.3H1V1l27.8,0l5.3,4.5l4.8,4.2L39,53.3z"/>
		<path class="st3" d="M28.4,2L2,2v50.3h36l-0.1-42.1l-4.5-3.9L28.4,2 M29.2,0l5.6,4.8l5.2,4.5l0.1,45H0V0L29.2,0z"/>
	</g>
	<path id="Trazado_217611" class="st1" d="M1056.4,1357.4v9h9L1056.4,1357.4z"/>
</g>
</svg>
