<?xml version="1.0" encoding="utf-8"?>
<!-- Generator: Adobe Illustrator 25.4.2, SVG Export Plug-In . SVG Version: 6.00 Build 0)  -->
<svg version="1.1" id="Capa_1" xmlns="http://www.w3.org/2000/svg" xmlns:xlink="http://www.w3.org/1999/xlink" x="0px" y="0px"
	 viewBox="0 0 554.3 126.5" style="enable-background:new 0 0 554.3 126.5;" xml:space="preserve">
<style type="text/css">
	.st0{fill:#B6F7FF;}
	.st1{fill:none;stroke:#12263F;stroke-width:2;stroke-linejoin:round;}
	.st2{fill:#4DD0E1;stroke:#12263F;stroke-width:2;stroke-linejoin:round;}
	.st3{enable-background:new    ;}
	.st4{fill:#12263F;}
	.st5{fill:none;stroke:#12263F;stroke-width:3;}
</style>
<g id="Grupo_106881" transform="translate(-673 -1812.532)">
	<g id="Grupo_106403" transform="translate(65 1034.332)">
		<g id="Rectángulo_45431" transform="translate(608 791)">
			<rect y="0" class="st0" width="210.6" height="37"/>
			<rect x="1" y="1" class="st1" width="208.6" height="35"/>
		</g>
		<g id="Rectángulo_45432" transform="translate(608 825)">
			<rect y="0" class="st0" width="210.6" height="79"/>
			<rect x="1" y="1" class="st1" width="208.6" height="77"/>
		</g>
		<path id="Trazado_217609" class="st2" d="M609.2,792l12.2-12.8l213.1,0.2L822.1,792H609.2z"/>
		<path id="Trazado_217610" class="st2" d="M834.5,779.2L818,792.3v111.4l16.5-13.9V779.2z"/>
		<g class="st3">
			<path class="st4" d="M705.6,816h-2.6l-5.1-8.4v8.4h-2.6v-12.8h2.6l5.1,8.4v-8.4h2.6V816z"/>
			<path class="st4" d="M707.3,811.2c0-0.9,0.2-1.8,0.5-2.5s0.9-1.3,1.6-1.7s1.5-0.6,2.4-0.6c1.3,0,2.3,0.4,3.1,1.2s1.3,1.9,1.4,3.2
				l0,0.7c0,1.5-0.4,2.6-1.2,3.5s-1.9,1.3-3.3,1.3s-2.5-0.4-3.3-1.3s-1.2-2.1-1.2-3.6V811.2z M709.8,811.3c0,0.9,0.2,1.6,0.5,2.1
				c0.3,0.5,0.8,0.7,1.5,0.7c0.6,0,1.1-0.2,1.4-0.7c0.3-0.5,0.5-1.2,0.5-2.3c0-0.9-0.2-1.6-0.5-2.1s-0.8-0.7-1.5-0.7
				c-0.6,0-1.1,0.2-1.4,0.7C710,809.6,709.8,810.3,709.8,811.3z"/>
			<path class="st4" d="M717.5,811.2c0-1.5,0.3-2.7,1-3.5s1.6-1.3,2.7-1.3c0.9,0,1.7,0.3,2.3,1v-4.9h2.5V816h-2.3l-0.1-1
				c-0.6,0.8-1.4,1.2-2.4,1.2c-1.1,0-2-0.4-2.7-1.3S717.5,812.7,717.5,811.2z M720,811.4c0,0.9,0.2,1.6,0.5,2.1s0.8,0.7,1.4,0.7
				c0.8,0,1.3-0.3,1.7-1v-3.8c-0.3-0.7-0.9-1-1.6-1C720.6,808.4,720,809.4,720,811.4z"/>
			<path class="st4" d="M732.4,816.2c-1.4,0-2.5-0.4-3.4-1.3s-1.3-2-1.3-3.4v-0.2c0-1,0.2-1.8,0.6-2.6s0.9-1.3,1.6-1.7
				s1.4-0.6,2.3-0.6c1.3,0,2.3,0.4,3.1,1.2s1.1,2,1.1,3.5v1h-6.1c0.1,0.6,0.3,1.1,0.7,1.5s0.9,0.6,1.6,0.6c1,0,1.7-0.4,2.3-1.1
				l1.2,1.4c-0.4,0.5-0.9,1-1.5,1.3C733.9,816,733.2,816.2,732.4,816.2z M732.1,808.4c-0.5,0-0.9,0.2-1.2,0.5
				c-0.3,0.3-0.5,0.8-0.6,1.5h3.5v-0.2c0-0.6-0.2-1-0.5-1.3C733.1,808.5,732.6,808.4,732.1,808.4z"/>
		</g>
	</g>
	<g id="Grupo_106404" transform="translate(391.733 1034.332)">
		<g id="Rectángulo_45431-2" transform="translate(608 791)">
			<rect x="0" y="0" class="st0" width="210.6" height="37"/>
			<rect x="1" y="1" class="st1" width="208.6" height="35"/>
		</g>
		<g id="Rectángulo_45432-2" transform="translate(608 825)">
			<rect x="0" y="0" class="st0" width="210.6" height="79"/>
			<rect x="1" y="1" class="st1" width="208.6" height="77"/>
		</g>
		<path id="Trazado_217609-2" class="st2" d="M609.2,792l12.2-12.8l213.1,0.2L822.1,792H609.2z"/>
		<path id="Trazado_217610-2" class="st2" d="M834.5,779.2L818,792.3v111.4l16.5-13.9V779.2z"/>
		<g class="st3">
			<path class="st4" d="M705.6,816h-2.6l-5.1-8.4v8.4h-2.6v-12.8h2.6l5.1,8.4v-8.4h2.6V816z"/>
			<path class="st4" d="M707.3,811.2c0-0.9,0.2-1.8,0.5-2.5s0.9-1.3,1.6-1.7s1.5-0.6,2.4-0.6c1.3,0,2.3,0.4,3.1,1.2s1.3,1.9,1.4,3.2
				l0,0.7c0,1.5-0.4,2.6-1.2,3.5s-1.9,1.3-3.3,1.3s-2.5-0.4-3.3-1.3s-1.2-2.1-1.2-3.6V811.2z M709.8,811.3c0,0.9,0.2,1.6,0.5,2.1
				c0.3,0.5,0.8,0.7,1.5,0.7c0.6,0,1.1-0.2,1.4-0.7c0.3-0.5,0.5-1.2,0.5-2.3c0-0.9-0.2-1.6-0.5-2.1s-0.8-0.7-1.5-0.7
				c-0.6,0-1.1,0.2-1.4,0.7C710,809.6,709.8,810.3,709.8,811.3z"/>
			<path class="st4" d="M717.5,811.2c0-1.5,0.3-2.7,1-3.5s1.6-1.3,2.7-1.3c0.9,0,1.7,0.3,2.3,1v-4.9h2.5V816h-2.3l-0.1-1
				c-0.6,0.8-1.4,1.2-2.4,1.2c-1.1,0-2-0.4-2.7-1.3S717.5,812.7,717.5,811.2z M720,811.4c0,0.9,0.2,1.6,0.5,2.1s0.8,0.7,1.4,0.7
				c0.8,0,1.3-0.3,1.7-1v-3.8c-0.3-0.7-0.9-1-1.6-1C720.6,808.4,720,809.4,720,811.4z"/>
			<path class="st4" d="M732.4,816.2c-1.4,0-2.5-0.4-3.4-1.3s-1.3-2-1.3-3.4v-0.2c0-1,0.2-1.8,0.6-2.6s0.9-1.3,1.6-1.7
				s1.4-0.6,2.3-0.6c1.3,0,2.3,0.4,3.1,1.2s1.1,2,1.1,3.5v1h-6.1c0.1,0.6,0.3,1.1,0.7,1.5s0.9,0.6,1.6,0.6c1,0,1.7-0.4,2.3-1.1
				l1.2,1.4c-0.4,0.5-0.9,1-1.5,1.3C733.9,816,733.2,816.2,732.4,816.2z M732.1,808.4c-0.5,0-0.9,0.2-1.2,0.5
				c-0.3,0.3-0.5,0.8-0.6,1.5h3.5v-0.2c0-0.6-0.2-1-0.5-1.3C733.1,808.5,732.6,808.4,732.1,808.4z"/>
		</g>
	</g>
	<line id="Línea_1676" class="st5" x1="999.5" y1="1879.2" x2="899.5" y2="1879.2"/>
</g>
</svg>
