<?xml version="1.0" encoding="utf-8"?>
<!-- Generator: Adobe Illustrator 25.4.2, SVG Export Plug-In . SVG Version: 6.00 Build 0)  -->
<svg version="1.1" id="Capa_1" xmlns="http://www.w3.org/2000/svg" xmlns:xlink="http://www.w3.org/1999/xlink" x="0px" y="0px"
	 viewBox="0 0 297.9 270.8" style="enable-background:new 0 0 297.9 270.8;" xml:space="preserve">
<style type="text/css">
	.st0{fill:#B6F7FF;}
	.st1{fill:none;stroke:#12263F;stroke-width:2;stroke-linejoin:round;}
	.st2{fill:#4DD0E1;stroke:#12263F;stroke-width:2;stroke-linejoin:round;}
	.st3{enable-background:new    ;}
	.st4{fill:#12263F;}
</style>
<g id="Grupo_106882" transform="translate(-951 -2196.333)">
	<g id="Rectángulo_45431" transform="translate(951 2209.133)">
		<rect y="0" class="st0" width="281" height="37"/>
		<rect x="1" y="1" class="st1" width="279" height="35"/>
	</g>
	<g id="Rectángulo_45432" transform="translate(951 2243.133)">
		<rect y="0" class="st0" width="281" height="113"/>
		<rect x="1" y="1" class="st1" width="279" height="111"/>
	</g>
	<g id="Rectángulo_45440" transform="translate(951 2354.133)">
		<rect y="0" class="st0" width="281" height="113"/>
		<rect x="1" y="1" class="st1" width="279" height="111"/>
	</g>
	<path id="Trazado_217609" class="st2" d="M952.2,2210.1l16-12.8l279.7,0.2l-16.4,12.6H952.2z"/>
	<path id="Trazado_217610" class="st2" d="M1247.9,2197.3l-16.5,13.1v255.1l16.5-13.9V2197.3z"/>
	<g class="st3">
		<path class="st4" d="M1071.1,2234.1v-12.8h3.9c1.1,0,2.1,0.3,3,0.8c0.9,0.5,1.6,1.2,2.1,2.2c0.5,0.9,0.7,2,0.7,3.2v0.6
			c0,1.2-0.2,2.2-0.7,3.2s-1.2,1.6-2.1,2.2s-1.9,0.8-3,0.8H1071.1z M1073.8,2223.5v8.5h1.3c1,0,1.8-0.3,2.4-1s0.8-1.6,0.8-2.9v-0.7
			c0-1.3-0.3-2.3-0.8-3s-1.3-1-2.4-1H1073.8z"/>
		<path class="st4" d="M1087.1,2234.3c-1.4,0-2.5-0.4-3.4-1.3s-1.3-2-1.3-3.4v-0.2c0-1,0.2-1.8,0.6-2.6s0.9-1.3,1.6-1.7
			s1.4-0.6,2.3-0.6c1.3,0,2.3,0.4,3.1,1.2s1.1,2,1.1,3.5v1h-6.1c0.1,0.6,0.3,1.1,0.7,1.5s0.9,0.6,1.6,0.6c1,0,1.7-0.4,2.3-1.1
			l1.2,1.4c-0.4,0.5-0.9,1-1.5,1.3C1088.6,2234.2,1087.8,2234.3,1087.1,2234.3z M1086.8,2226.5c-0.5,0-0.9,0.2-1.2,0.5
			c-0.3,0.3-0.5,0.8-0.6,1.5h3.5v-0.2c0-0.6-0.2-1-0.5-1.3C1087.7,2226.6,1087.3,2226.5,1086.8,2226.5z"/>
		<path class="st4" d="M1095.8,2231l1.8-6.4h2.7l-3.2,9.5h-2.4l-3.2-9.5h2.7L1095.8,2231z"/>
		<path class="st4" d="M1101.4,2222.2c0-0.4,0.1-0.7,0.4-0.9c0.3-0.2,0.6-0.4,1-0.4c0.4,0,0.8,0.1,1,0.4s0.4,0.6,0.4,0.9
			c0,0.4-0.1,0.7-0.4,0.9c-0.3,0.2-0.6,0.4-1,0.4s-0.8-0.1-1-0.4C1101.5,2222.9,1101.4,2222.5,1101.4,2222.2z M1104.1,2234.1h-2.5
			v-9.5h2.5V2234.1z"/>
		<path class="st4" d="M1110.1,2232.3c0.5,0,0.8-0.1,1.1-0.4s0.4-0.6,0.5-1h2.4c0,0.6-0.2,1.2-0.5,1.8c-0.3,0.5-0.8,1-1.4,1.2
			c-0.6,0.3-1.3,0.4-2,0.4c-1.4,0-2.4-0.4-3.2-1.3c-0.8-0.9-1.2-2.1-1.2-3.6v-0.2c0-1.5,0.4-2.6,1.2-3.5s1.8-1.3,3.2-1.3
			c1.2,0,2.1,0.3,2.9,1c0.7,0.7,1.1,1.6,1.1,2.7h-2.4c0-0.5-0.2-0.9-0.5-1.2s-0.7-0.5-1.2-0.5c-0.6,0-1,0.2-1.3,0.6
			c-0.3,0.4-0.5,1.1-0.5,2.1v0.3c0,1,0.1,1.7,0.4,2.1S1109.5,2232.3,1110.1,2232.3z"/>
		<path class="st4" d="M1119.9,2234.3c-1.4,0-2.5-0.4-3.4-1.3c-0.9-0.9-1.3-2-1.3-3.4v-0.2c0-1,0.2-1.8,0.6-2.6s0.9-1.3,1.6-1.7
			c0.7-0.4,1.4-0.6,2.3-0.6c1.3,0,2.3,0.4,3.1,1.2c0.7,0.8,1.1,2,1.1,3.5v1h-6.1c0.1,0.6,0.3,1.1,0.7,1.5c0.4,0.4,0.9,0.6,1.6,0.6
			c1,0,1.7-0.4,2.3-1.1l1.2,1.4c-0.4,0.5-0.9,1-1.5,1.3C1121.4,2234.2,1120.7,2234.3,1119.9,2234.3z M1119.6,2226.5
			c-0.5,0-0.9,0.2-1.2,0.5c-0.3,0.3-0.5,0.8-0.6,1.5h3.5v-0.2c0-0.6-0.2-1-0.5-1.3C1120.6,2226.6,1120.2,2226.5,1119.6,2226.5z"/>
	</g>
	<g class="st3">
		<path class="st4" d="M973.2,2269.5h3.2v1.4h-3.2v3.6h-1.5v-3.6h-3.2v-1.4h3.2v-3.3h1.5V2269.5z"/>
		<path class="st4" d="M988.6,2272.6h-4.8l-1.1,3h-1.5l4.3-11.4h1.3l4.4,11.4h-1.5L988.6,2272.6z M984.3,2271.4h3.9l-1.9-5.3
			L984.3,2271.4z"/>
		<path class="st4" d="M994.4,2265.1v2h1.6v1.1h-1.6v5.2c0,0.3,0.1,0.6,0.2,0.8c0.1,0.2,0.4,0.3,0.7,0.3c0.2,0,0.4,0,0.7-0.1v1.2
			c-0.4,0.1-0.8,0.2-1.1,0.2c-0.6,0-1.1-0.2-1.5-0.6s-0.5-0.9-0.5-1.7v-5.2h-1.5v-1.1h1.5v-2H994.4z"/>
		<path class="st4" d="M999.6,2265.1v2h1.6v1.1h-1.6v5.2c0,0.3,0.1,0.6,0.2,0.8c0.1,0.2,0.4,0.3,0.7,0.3c0.2,0,0.4,0,0.7-0.1v1.2
			c-0.4,0.1-0.8,0.2-1.1,0.2c-0.6,0-1.1-0.2-1.5-0.6s-0.5-0.9-0.5-1.7v-5.2h-1.5v-1.1h1.5v-2H999.6z"/>
		<path class="st4" d="M1007,2268.4c-0.2,0-0.5-0.1-0.7-0.1c-0.9,0-1.6,0.4-1.9,1.2v6h-1.4v-8.5h1.4l0,1c0.5-0.8,1.1-1.1,2-1.1
			c0.3,0,0.5,0,0.6,0.1V2268.4z"/>
		<path class="st4" d="M1008.3,2264.9c0-0.2,0.1-0.4,0.2-0.6c0.1-0.2,0.4-0.2,0.6-0.2s0.5,0.1,0.6,0.2c0.1,0.2,0.2,0.4,0.2,0.6
			s-0.1,0.4-0.2,0.6c-0.1,0.2-0.4,0.2-0.6,0.2s-0.5-0.1-0.6-0.2C1008.4,2265.3,1008.3,2265.1,1008.3,2264.9z M1009.9,2275.6h-1.4
			v-8.5h1.4V2275.6z"/>
		<path class="st4" d="M1019.3,2271.4c0,1.3-0.3,2.3-0.9,3.1s-1.4,1.2-2.4,1.2c-1.1,0-1.9-0.4-2.5-1.1l-0.1,1h-1.3v-12h1.4v4.5
			c0.6-0.7,1.4-1.1,2.4-1.1c1,0,1.8,0.4,2.4,1.2s0.9,1.8,0.9,3.2V2271.4z M1017.9,2271.3c0-1-0.2-1.7-0.6-2.3
			c-0.4-0.5-0.9-0.8-1.6-0.8c-1,0-1.6,0.4-2.1,1.3v3.7c0.4,0.9,1.1,1.3,2.1,1.3c0.7,0,1.2-0.3,1.6-0.8
			C1017.7,2273.2,1017.9,2272.4,1017.9,2271.3z"/>
		<path class="st4" d="M1026.4,2274.7c-0.6,0.7-1.4,1-2.5,1c-0.9,0-1.6-0.3-2.1-0.8c-0.5-0.5-0.7-1.3-0.7-2.3v-5.5h1.4v5.5
			c0,1.3,0.5,1.9,1.6,1.9c1.1,0,1.8-0.4,2.2-1.2v-6.1h1.4v8.5h-1.4L1026.4,2274.7z"/>
		<path class="st4" d="M1031.9,2265.1v2h1.6v1.1h-1.6v5.2c0,0.3,0.1,0.6,0.2,0.8c0.1,0.2,0.4,0.3,0.7,0.3c0.2,0,0.4,0,0.7-0.1v1.2
			c-0.4,0.1-0.8,0.2-1.1,0.2c-0.6,0-1.1-0.2-1.5-0.6s-0.5-0.9-0.5-1.7v-5.2h-1.5v-1.1h1.5v-2H1031.9z"/>
		<path class="st4" d="M1038.7,2275.7c-1.1,0-2.1-0.4-2.8-1.1s-1.1-1.8-1.1-3v-0.3c0-0.8,0.2-1.6,0.5-2.2s0.8-1.2,1.3-1.5
			c0.6-0.4,1.2-0.6,1.9-0.6c1.1,0,2,0.4,2.6,1.1s0.9,1.8,0.9,3.1v0.6h-5.7c0,0.8,0.3,1.5,0.7,2c0.5,0.5,1.1,0.8,1.8,0.8
			c0.5,0,0.9-0.1,1.3-0.3c0.4-0.2,0.7-0.5,0.9-0.8l0.9,0.7C1041.2,2275.2,1040.1,2275.7,1038.7,2275.7z M1038.5,2268.2
			c-0.6,0-1.1,0.2-1.5,0.6c-0.4,0.4-0.6,1-0.7,1.8h4.2v-0.1c0-0.7-0.2-1.3-0.6-1.7C1039.6,2268.4,1039.1,2268.2,1038.5,2268.2z"/>
		<path class="st4" d="M1052.2,2275.6h-1.5v-9.6l-2.9,1.1v-1.3l4.1-1.6h0.2V2275.6z"/>
		<path class="st4" d="M1056.6,2274.8c0-0.2,0.1-0.5,0.2-0.6s0.4-0.2,0.7-0.2s0.5,0.1,0.7,0.2c0.2,0.2,0.2,0.4,0.2,0.6
			c0,0.2-0.1,0.4-0.2,0.6c-0.2,0.2-0.4,0.2-0.7,0.2s-0.5-0.1-0.7-0.2S1056.6,2275.1,1056.6,2274.8z M1056.6,2267.9
			c0-0.2,0.1-0.5,0.2-0.6s0.4-0.2,0.7-0.2s0.5,0.1,0.7,0.2c0.2,0.2,0.2,0.4,0.2,0.6c0,0.2-0.1,0.4-0.2,0.6c-0.2,0.2-0.4,0.2-0.7,0.2
			s-0.5-0.1-0.7-0.2S1056.6,2268.2,1056.6,2267.9z"/>
		<path class="st4" d="M1072.2,2265.4h-3.7v10.1h-1.5v-10.1h-3.6v-1.2h8.8V2265.4z"/>
		<path class="st4" d="M1076.5,2273.5l2-6.3h1.5l-3.4,9.8c-0.5,1.4-1.4,2.1-2.5,2.1l-0.3,0l-0.5-0.1v-1.2l0.4,0
			c0.5,0,0.9-0.1,1.1-0.3s0.5-0.6,0.7-1.1l0.3-0.9l-3-8.4h1.6L1076.5,2273.5z"/>
		<path class="st4" d="M1088.4,2271.4c0,1.3-0.3,2.3-0.9,3.1c-0.6,0.8-1.4,1.2-2.4,1.2c-1,0-1.8-0.3-2.4-1v4.1h-1.4v-11.7h1.3
			l0.1,0.9c0.6-0.7,1.4-1.1,2.5-1.1c1,0,1.8,0.4,2.4,1.1c0.6,0.8,0.9,1.8,0.9,3.2V2271.4z M1087,2271.3c0-1-0.2-1.7-0.6-2.3
			s-1-0.8-1.7-0.8c-0.9,0-1.5,0.4-2,1.2v4c0.4,0.8,1.1,1.2,2,1.2c0.7,0,1.2-0.3,1.7-0.8C1086.8,2273.2,1087,2272.4,1087,2271.3z"/>
		<path class="st4" d="M1093.8,2275.7c-1.1,0-2.1-0.4-2.8-1.1s-1.1-1.8-1.1-3v-0.3c0-0.8,0.2-1.6,0.5-2.2s0.8-1.2,1.3-1.5
			c0.6-0.4,1.2-0.6,1.9-0.6c1.1,0,2,0.4,2.6,1.1s0.9,1.8,0.9,3.1v0.6h-5.7c0,0.8,0.3,1.5,0.7,2c0.5,0.5,1.1,0.8,1.8,0.8
			c0.5,0,0.9-0.1,1.3-0.3c0.4-0.2,0.7-0.5,0.9-0.8l0.9,0.7C1096.2,2275.2,1095.2,2275.7,1093.8,2275.7z M1093.6,2268.2
			c-0.6,0-1.1,0.2-1.5,0.6c-0.4,0.4-0.6,1-0.7,1.8h4.2v-0.1c0-0.7-0.2-1.3-0.6-1.7C1094.7,2268.4,1094.2,2268.2,1093.6,2268.2z"/>
	</g>
	<g class="st3">
		<path class="st4" d="M973.2,2289.5h3.2v1.4h-3.2v3.6h-1.5v-3.6h-3.2v-1.4h3.2v-3.3h1.5V2289.5z"/>
		<path class="st4" d="M988.6,2292.6h-4.8l-1.1,3h-1.5l4.3-11.4h1.3l4.4,11.4h-1.5L988.6,2292.6z M984.3,2291.4h3.9l-1.9-5.3
			L984.3,2291.4z"/>
		<path class="st4" d="M994.4,2285.1v2h1.6v1.1h-1.6v5.2c0,0.3,0.1,0.6,0.2,0.8c0.1,0.2,0.4,0.3,0.7,0.3c0.2,0,0.4,0,0.7-0.1v1.2
			c-0.4,0.1-0.8,0.2-1.1,0.2c-0.6,0-1.1-0.2-1.5-0.6s-0.5-0.9-0.5-1.7v-5.2h-1.5v-1.1h1.5v-2H994.4z"/>
		<path class="st4" d="M999.6,2285.1v2h1.6v1.1h-1.6v5.2c0,0.3,0.1,0.6,0.2,0.8c0.1,0.2,0.4,0.3,0.7,0.3c0.2,0,0.4,0,0.7-0.1v1.2
			c-0.4,0.1-0.8,0.2-1.1,0.2c-0.6,0-1.1-0.2-1.5-0.6s-0.5-0.9-0.5-1.7v-5.2h-1.5v-1.1h1.5v-2H999.6z"/>
		<path class="st4" d="M1007,2288.4c-0.2,0-0.5-0.1-0.7-0.1c-0.9,0-1.6,0.4-1.9,1.2v6h-1.4v-8.5h1.4l0,1c0.5-0.8,1.1-1.1,2-1.1
			c0.3,0,0.5,0,0.6,0.1V2288.4z"/>
		<path class="st4" d="M1008.3,2284.9c0-0.2,0.1-0.4,0.2-0.6c0.1-0.2,0.4-0.2,0.6-0.2s0.5,0.1,0.6,0.2c0.1,0.2,0.2,0.4,0.2,0.6
			s-0.1,0.4-0.2,0.6c-0.1,0.2-0.4,0.2-0.6,0.2s-0.5-0.1-0.6-0.2C1008.4,2285.3,1008.3,2285.1,1008.3,2284.9z M1009.9,2295.6h-1.4
			v-8.5h1.4V2295.6z"/>
		<path class="st4" d="M1019.3,2291.4c0,1.3-0.3,2.3-0.9,3.1s-1.4,1.2-2.4,1.2c-1.1,0-1.9-0.4-2.5-1.1l-0.1,1h-1.3v-12h1.4v4.5
			c0.6-0.7,1.4-1.1,2.4-1.1c1,0,1.8,0.4,2.4,1.2s0.9,1.8,0.9,3.2V2291.4z M1017.9,2291.3c0-1-0.2-1.7-0.6-2.3
			c-0.4-0.5-0.9-0.8-1.6-0.8c-1,0-1.6,0.4-2.1,1.3v3.7c0.4,0.9,1.1,1.3,2.1,1.3c0.7,0,1.2-0.3,1.6-0.8
			C1017.7,2293.2,1017.9,2292.4,1017.9,2291.3z"/>
		<path class="st4" d="M1026.4,2294.7c-0.6,0.7-1.4,1-2.5,1c-0.9,0-1.6-0.3-2.1-0.8c-0.5-0.5-0.7-1.3-0.7-2.3v-5.5h1.4v5.5
			c0,1.3,0.5,1.9,1.6,1.9c1.1,0,1.8-0.4,2.2-1.2v-6.1h1.4v8.5h-1.4L1026.4,2294.7z"/>
		<path class="st4" d="M1031.9,2285.1v2h1.6v1.1h-1.6v5.2c0,0.3,0.1,0.6,0.2,0.8c0.1,0.2,0.4,0.3,0.7,0.3c0.2,0,0.4,0,0.7-0.1v1.2
			c-0.4,0.1-0.8,0.2-1.1,0.2c-0.6,0-1.1-0.2-1.5-0.6s-0.5-0.9-0.5-1.7v-5.2h-1.5v-1.1h1.5v-2H1031.9z"/>
		<path class="st4" d="M1038.7,2295.7c-1.1,0-2.1-0.4-2.8-1.1s-1.1-1.8-1.1-3v-0.3c0-0.8,0.2-1.6,0.5-2.2s0.8-1.2,1.3-1.5
			c0.6-0.4,1.2-0.6,1.9-0.6c1.1,0,2,0.4,2.6,1.1s0.9,1.8,0.9,3.1v0.6h-5.7c0,0.8,0.3,1.5,0.7,2c0.5,0.5,1.1,0.8,1.8,0.8
			c0.5,0,0.9-0.1,1.3-0.3c0.4-0.2,0.7-0.5,0.9-0.8l0.9,0.7C1041.2,2295.2,1040.1,2295.7,1038.7,2295.7z M1038.5,2288.2
			c-0.6,0-1.1,0.2-1.5,0.6c-0.4,0.4-0.6,1-0.7,1.8h4.2v-0.1c0-0.7-0.2-1.3-0.6-1.7C1039.6,2288.4,1039.1,2288.2,1038.5,2288.2z"/>
		<path class="st4" d="M1054.9,2295.6h-7.5v-1l3.9-4.4c0.6-0.7,1-1.2,1.2-1.6c0.2-0.4,0.3-0.8,0.3-1.3c0-0.6-0.2-1.1-0.5-1.5
			s-0.8-0.6-1.4-0.6c-0.7,0-1.3,0.2-1.7,0.6s-0.6,1-0.6,1.7h-1.4c0-1,0.3-1.9,1-2.5c0.7-0.6,1.6-1,2.7-1c1.1,0,1.9,0.3,2.5,0.8
			c0.6,0.6,0.9,1.3,0.9,2.2c0,1.1-0.7,2.5-2.1,4l-3,3.3h5.7V2295.6z"/>
		<path class="st4" d="M1056.6,2294.8c0-0.2,0.1-0.5,0.2-0.6s0.4-0.2,0.7-0.2s0.5,0.1,0.7,0.2c0.2,0.2,0.2,0.4,0.2,0.6
			c0,0.2-0.1,0.4-0.2,0.6c-0.2,0.2-0.4,0.2-0.7,0.2s-0.5-0.1-0.7-0.2S1056.6,2295.1,1056.6,2294.8z M1056.6,2287.9
			c0-0.2,0.1-0.5,0.2-0.6s0.4-0.2,0.7-0.2s0.5,0.1,0.7,0.2c0.2,0.2,0.2,0.4,0.2,0.6c0,0.2-0.1,0.4-0.2,0.6c-0.2,0.2-0.4,0.2-0.7,0.2
			s-0.5-0.1-0.7-0.2S1056.6,2288.2,1056.6,2287.9z"/>
		<path class="st4" d="M1072.2,2285.4h-3.7v10.1h-1.5v-10.1h-3.6v-1.2h8.8V2285.4z"/>
		<path class="st4" d="M1076.5,2293.5l2-6.3h1.5l-3.4,9.8c-0.5,1.4-1.4,2.1-2.5,2.1l-0.3,0l-0.5-0.1v-1.2l0.4,0
			c0.5,0,0.9-0.1,1.1-0.3s0.5-0.6,0.7-1.1l0.3-0.9l-3-8.4h1.6L1076.5,2293.5z"/>
		<path class="st4" d="M1088.4,2291.4c0,1.3-0.3,2.3-0.9,3.1c-0.6,0.8-1.4,1.2-2.4,1.2c-1,0-1.8-0.3-2.4-1v4.1h-1.4v-11.7h1.3
			l0.1,0.9c0.6-0.7,1.4-1.1,2.5-1.1c1,0,1.8,0.4,2.4,1.1c0.6,0.8,0.9,1.8,0.9,3.2V2291.4z M1087,2291.3c0-1-0.2-1.7-0.6-2.3
			s-1-0.8-1.7-0.8c-0.9,0-1.5,0.4-2,1.2v4c0.4,0.8,1.1,1.2,2,1.2c0.7,0,1.2-0.3,1.7-0.8C1086.8,2293.2,1087,2292.4,1087,2291.3z"/>
		<path class="st4" d="M1093.8,2295.7c-1.1,0-2.1-0.4-2.8-1.1s-1.1-1.8-1.1-3v-0.3c0-0.8,0.2-1.6,0.5-2.2s0.8-1.2,1.3-1.5
			c0.6-0.4,1.2-0.6,1.9-0.6c1.1,0,2,0.4,2.6,1.1s0.9,1.8,0.9,3.1v0.6h-5.7c0,0.8,0.3,1.5,0.7,2c0.5,0.5,1.1,0.8,1.8,0.8
			c0.5,0,0.9-0.1,1.3-0.3c0.4-0.2,0.7-0.5,0.9-0.8l0.9,0.7C1096.2,2295.2,1095.2,2295.7,1093.8,2295.7z M1093.6,2288.2
			c-0.6,0-1.1,0.2-1.5,0.6c-0.4,0.4-0.6,1-0.7,1.8h4.2v-0.1c0-0.7-0.2-1.3-0.6-1.7C1094.7,2288.4,1094.2,2288.2,1093.6,2288.2z"/>
	</g>
	<g class="st3">
		<path class="st4" d="M973.2,2309.5h3.2v1.4h-3.2v3.6h-1.5v-3.6h-3.2v-1.4h3.2v-3.3h1.5V2309.5z"/>
		<path class="st4" d="M988.6,2312.6h-4.8l-1.1,3h-1.5l4.3-11.4h1.3l4.4,11.4h-1.5L988.6,2312.6z M984.3,2311.4h3.9l-1.9-5.3
			L984.3,2311.4z"/>
		<path class="st4" d="M994.4,2305.1v2h1.6v1.1h-1.6v5.2c0,0.3,0.1,0.6,0.2,0.8c0.1,0.2,0.4,0.3,0.7,0.3c0.2,0,0.4,0,0.7-0.1v1.2
			c-0.4,0.1-0.8,0.2-1.1,0.2c-0.6,0-1.1-0.2-1.5-0.6s-0.5-0.9-0.5-1.7v-5.2h-1.5v-1.1h1.5v-2H994.4z"/>
		<path class="st4" d="M999.6,2305.1v2h1.6v1.1h-1.6v5.2c0,0.3,0.1,0.6,0.2,0.8c0.1,0.2,0.4,0.3,0.7,0.3c0.2,0,0.4,0,0.7-0.1v1.2
			c-0.4,0.1-0.8,0.2-1.1,0.2c-0.6,0-1.1-0.2-1.5-0.6s-0.5-0.9-0.5-1.7v-5.2h-1.5v-1.1h1.5v-2H999.6z"/>
		<path class="st4" d="M1007,2308.4c-0.2,0-0.5-0.1-0.7-0.1c-0.9,0-1.6,0.4-1.9,1.2v6h-1.4v-8.5h1.4l0,1c0.5-0.8,1.1-1.1,2-1.1
			c0.3,0,0.5,0,0.6,0.1V2308.4z"/>
		<path class="st4" d="M1008.3,2304.9c0-0.2,0.1-0.4,0.2-0.6c0.1-0.2,0.4-0.2,0.6-0.2s0.5,0.1,0.6,0.2c0.1,0.2,0.2,0.4,0.2,0.6
			s-0.1,0.4-0.2,0.6c-0.1,0.2-0.4,0.2-0.6,0.2s-0.5-0.1-0.6-0.2C1008.4,2305.3,1008.3,2305.1,1008.3,2304.9z M1009.9,2315.6h-1.4
			v-8.5h1.4V2315.6z"/>
		<path class="st4" d="M1019.3,2311.4c0,1.3-0.3,2.3-0.9,3.1s-1.4,1.2-2.4,1.2c-1.1,0-1.9-0.4-2.5-1.1l-0.1,1h-1.3v-12h1.4v4.5
			c0.6-0.7,1.4-1.1,2.4-1.1c1,0,1.8,0.4,2.4,1.2s0.9,1.8,0.9,3.2V2311.4z M1017.9,2311.3c0-1-0.2-1.7-0.6-2.3
			c-0.4-0.5-0.9-0.8-1.6-0.8c-1,0-1.6,0.4-2.1,1.3v3.7c0.4,0.9,1.1,1.3,2.1,1.3c0.7,0,1.2-0.3,1.6-0.8
			C1017.7,2313.2,1017.9,2312.4,1017.9,2311.3z"/>
		<path class="st4" d="M1026.4,2314.7c-0.6,0.7-1.4,1-2.5,1c-0.9,0-1.6-0.3-2.1-0.8c-0.5-0.5-0.7-1.3-0.7-2.3v-5.5h1.4v5.5
			c0,1.3,0.5,1.9,1.6,1.9c1.1,0,1.8-0.4,2.2-1.2v-6.1h1.4v8.5h-1.4L1026.4,2314.7z"/>
		<path class="st4" d="M1031.9,2305.1v2h1.6v1.1h-1.6v5.2c0,0.3,0.1,0.6,0.2,0.8c0.1,0.2,0.4,0.3,0.7,0.3c0.2,0,0.4,0,0.7-0.1v1.2
			c-0.4,0.1-0.8,0.2-1.1,0.2c-0.6,0-1.1-0.2-1.5-0.6s-0.5-0.9-0.5-1.7v-5.2h-1.5v-1.1h1.5v-2H1031.9z"/>
		<path class="st4" d="M1038.7,2315.7c-1.1,0-2.1-0.4-2.8-1.1s-1.1-1.8-1.1-3v-0.3c0-0.8,0.2-1.6,0.5-2.2s0.8-1.2,1.3-1.5
			c0.6-0.4,1.2-0.6,1.9-0.6c1.1,0,2,0.4,2.6,1.1s0.9,1.8,0.9,3.1v0.6h-5.7c0,0.8,0.3,1.5,0.7,2c0.5,0.5,1.1,0.8,1.8,0.8
			c0.5,0,0.9-0.1,1.3-0.3c0.4-0.2,0.7-0.5,0.9-0.8l0.9,0.7C1041.2,2315.2,1040.1,2315.7,1038.7,2315.7z M1038.5,2308.2
			c-0.6,0-1.1,0.2-1.5,0.6c-0.4,0.4-0.6,1-0.7,1.8h4.2v-0.1c0-0.7-0.2-1.3-0.6-1.7C1039.6,2308.4,1039.1,2308.2,1038.5,2308.2z"/>
		<path class="st4" d="M1049.6,2309.2h1.1c0.7,0,1.2-0.2,1.6-0.5s0.6-0.8,0.6-1.4c0-1.3-0.7-2-2-2c-0.6,0-1.1,0.2-1.5,0.5
			c-0.4,0.4-0.6,0.8-0.6,1.4h-1.4c0-0.9,0.3-1.6,1-2.2c0.7-0.6,1.5-0.9,2.5-0.9c1.1,0,1.9,0.3,2.5,0.9s0.9,1.4,0.9,2.4
			c0,0.5-0.2,1-0.5,1.4s-0.8,0.8-1.3,1c0.6,0.2,1.1,0.5,1.4,1c0.3,0.5,0.5,1,0.5,1.7c0,1-0.3,1.8-1,2.4c-0.7,0.6-1.5,0.9-2.6,0.9
			c-1.1,0-1.9-0.3-2.6-0.9c-0.7-0.6-1-1.3-1-2.3h1.5c0,0.6,0.2,1.1,0.6,1.4s0.9,0.5,1.6,0.5c0.7,0,1.2-0.2,1.6-0.5
			c0.4-0.4,0.6-0.9,0.6-1.6c0-0.7-0.2-1.2-0.6-1.5s-1-0.5-1.8-0.5h-1.1V2309.2z"/>
		<path class="st4" d="M1056.6,2314.8c0-0.2,0.1-0.5,0.2-0.6s0.4-0.2,0.7-0.2s0.5,0.1,0.7,0.2c0.2,0.2,0.2,0.4,0.2,0.6
			c0,0.2-0.1,0.4-0.2,0.6c-0.2,0.2-0.4,0.2-0.7,0.2s-0.5-0.1-0.7-0.2S1056.6,2315.1,1056.6,2314.8z M1056.6,2307.9
			c0-0.2,0.1-0.5,0.2-0.6s0.4-0.2,0.7-0.2s0.5,0.1,0.7,0.2c0.2,0.2,0.2,0.4,0.2,0.6c0,0.2-0.1,0.4-0.2,0.6c-0.2,0.2-0.4,0.2-0.7,0.2
			s-0.5-0.1-0.7-0.2S1056.6,2308.2,1056.6,2307.9z"/>
		<path class="st4" d="M1072.2,2305.4h-3.7v10.1h-1.5v-10.1h-3.6v-1.2h8.8V2305.4z"/>
		<path class="st4" d="M1076.5,2313.5l2-6.3h1.5l-3.4,9.8c-0.5,1.4-1.4,2.1-2.5,2.1l-0.3,0l-0.5-0.1v-1.2l0.4,0
			c0.5,0,0.9-0.1,1.1-0.3s0.5-0.6,0.7-1.1l0.3-0.9l-3-8.4h1.6L1076.5,2313.5z"/>
		<path class="st4" d="M1088.4,2311.4c0,1.3-0.3,2.3-0.9,3.1c-0.6,0.8-1.4,1.2-2.4,1.2c-1,0-1.8-0.3-2.4-1v4.1h-1.4v-11.7h1.3
			l0.1,0.9c0.6-0.7,1.4-1.1,2.5-1.1c1,0,1.8,0.4,2.4,1.1c0.6,0.8,0.9,1.8,0.9,3.2V2311.4z M1087,2311.3c0-1-0.2-1.7-0.6-2.3
			s-1-0.8-1.7-0.8c-0.9,0-1.5,0.4-2,1.2v4c0.4,0.8,1.1,1.2,2,1.2c0.7,0,1.2-0.3,1.7-0.8C1086.8,2313.2,1087,2312.4,1087,2311.3z"/>
		<path class="st4" d="M1093.8,2315.7c-1.1,0-2.1-0.4-2.8-1.1s-1.1-1.8-1.1-3v-0.3c0-0.8,0.2-1.6,0.5-2.2s0.8-1.2,1.3-1.5
			c0.6-0.4,1.2-0.6,1.9-0.6c1.1,0,2,0.4,2.6,1.1s0.9,1.8,0.9,3.1v0.6h-5.7c0,0.8,0.3,1.5,0.7,2c0.5,0.5,1.1,0.8,1.8,0.8
			c0.5,0,0.9-0.1,1.3-0.3c0.4-0.2,0.7-0.5,0.9-0.8l0.9,0.7C1096.2,2315.2,1095.2,2315.7,1093.8,2315.7z M1093.6,2308.2
			c-0.6,0-1.1,0.2-1.5,0.6c-0.4,0.4-0.6,1-0.7,1.8h4.2v-0.1c0-0.7-0.2-1.3-0.6-1.7C1094.7,2308.4,1094.2,2308.2,1093.6,2308.2z"/>
	</g>
	<g class="st3">
		<path class="st4" d="M973.2,2329.5h3.2v1.4h-3.2v3.6h-1.5v-3.6h-3.2v-1.4h3.2v-3.3h1.5V2329.5z"/>
		<path class="st4" d="M988.6,2332.6h-4.8l-1.1,3h-1.5l4.3-11.4h1.3l4.4,11.4h-1.5L988.6,2332.6z M984.3,2331.4h3.9l-1.9-5.3
			L984.3,2331.4z"/>
		<path class="st4" d="M994.4,2325.1v2h1.6v1.1h-1.6v5.2c0,0.3,0.1,0.6,0.2,0.8c0.1,0.2,0.4,0.3,0.7,0.3c0.2,0,0.4,0,0.7-0.1v1.2
			c-0.4,0.1-0.8,0.2-1.1,0.2c-0.6,0-1.1-0.2-1.5-0.6s-0.5-0.9-0.5-1.7v-5.2h-1.5v-1.1h1.5v-2H994.4z"/>
		<path class="st4" d="M999.6,2325.1v2h1.6v1.1h-1.6v5.2c0,0.3,0.1,0.6,0.2,0.8c0.1,0.2,0.4,0.3,0.7,0.3c0.2,0,0.4,0,0.7-0.1v1.2
			c-0.4,0.1-0.8,0.2-1.1,0.2c-0.6,0-1.1-0.2-1.5-0.6s-0.5-0.9-0.5-1.7v-5.2h-1.5v-1.1h1.5v-2H999.6z"/>
		<path class="st4" d="M1007,2328.4c-0.2,0-0.5-0.1-0.7-0.1c-0.9,0-1.6,0.4-1.9,1.2v6h-1.4v-8.5h1.4l0,1c0.5-0.8,1.1-1.1,2-1.1
			c0.3,0,0.5,0,0.6,0.1V2328.4z"/>
		<path class="st4" d="M1008.3,2324.9c0-0.2,0.1-0.4,0.2-0.6c0.1-0.2,0.4-0.2,0.6-0.2s0.5,0.1,0.6,0.2c0.1,0.2,0.2,0.4,0.2,0.6
			s-0.1,0.4-0.2,0.6c-0.1,0.2-0.4,0.2-0.6,0.2s-0.5-0.1-0.6-0.2C1008.4,2325.3,1008.3,2325.1,1008.3,2324.9z M1009.9,2335.6h-1.4
			v-8.5h1.4V2335.6z"/>
		<path class="st4" d="M1019.3,2331.4c0,1.3-0.3,2.3-0.9,3.1s-1.4,1.2-2.4,1.2c-1.1,0-1.9-0.4-2.5-1.1l-0.1,1h-1.3v-12h1.4v4.5
			c0.6-0.7,1.4-1.1,2.4-1.1c1,0,1.8,0.4,2.4,1.2s0.9,1.8,0.9,3.2V2331.4z M1017.9,2331.3c0-1-0.2-1.7-0.6-2.3
			c-0.4-0.5-0.9-0.8-1.6-0.8c-1,0-1.6,0.4-2.1,1.3v3.7c0.4,0.9,1.1,1.3,2.1,1.3c0.7,0,1.2-0.3,1.6-0.8
			C1017.7,2333.2,1017.9,2332.4,1017.9,2331.3z"/>
		<path class="st4" d="M1026.4,2334.7c-0.6,0.7-1.4,1-2.5,1c-0.9,0-1.6-0.3-2.1-0.8c-0.5-0.5-0.7-1.3-0.7-2.3v-5.5h1.4v5.5
			c0,1.3,0.5,1.9,1.6,1.9c1.1,0,1.8-0.4,2.2-1.2v-6.1h1.4v8.5h-1.4L1026.4,2334.7z"/>
		<path class="st4" d="M1031.9,2325.1v2h1.6v1.1h-1.6v5.2c0,0.3,0.1,0.6,0.2,0.8c0.1,0.2,0.4,0.3,0.7,0.3c0.2,0,0.4,0,0.7-0.1v1.2
			c-0.4,0.1-0.8,0.2-1.1,0.2c-0.6,0-1.1-0.2-1.5-0.6s-0.5-0.9-0.5-1.7v-5.2h-1.5v-1.1h1.5v-2H1031.9z"/>
		<path class="st4" d="M1038.7,2335.7c-1.1,0-2.1-0.4-2.8-1.1s-1.1-1.8-1.1-3v-0.3c0-0.8,0.2-1.6,0.5-2.2s0.8-1.2,1.3-1.5
			c0.6-0.4,1.2-0.6,1.9-0.6c1.1,0,2,0.4,2.6,1.1s0.9,1.8,0.9,3.1v0.6h-5.7c0,0.8,0.3,1.5,0.7,2c0.5,0.5,1.1,0.8,1.8,0.8
			c0.5,0,0.9-0.1,1.3-0.3c0.4-0.2,0.7-0.5,0.9-0.8l0.9,0.7C1041.2,2335.2,1040.1,2335.7,1038.7,2335.7z M1038.5,2328.2
			c-0.6,0-1.1,0.2-1.5,0.6c-0.4,0.4-0.6,1-0.7,1.8h4.2v-0.1c0-0.7-0.2-1.3-0.6-1.7C1039.6,2328.4,1039.1,2328.2,1038.5,2328.2z"/>
		<path class="st4" d="M1053.6,2331.8h1.6v1.2h-1.6v2.6h-1.5v-2.6h-5.2v-0.9l5.1-7.9h1.5V2331.8z M1048.6,2331.8h3.5v-5.6l-0.2,0.3
			L1048.6,2331.8z"/>
		<path class="st4" d="M1056.6,2334.8c0-0.2,0.1-0.5,0.2-0.6s0.4-0.2,0.7-0.2s0.5,0.1,0.7,0.2c0.2,0.2,0.2,0.4,0.2,0.6
			c0,0.2-0.1,0.4-0.2,0.6c-0.2,0.2-0.4,0.2-0.7,0.2s-0.5-0.1-0.7-0.2S1056.6,2335.1,1056.6,2334.8z M1056.6,2327.9
			c0-0.2,0.1-0.5,0.2-0.6s0.4-0.2,0.7-0.2s0.5,0.1,0.7,0.2c0.2,0.2,0.2,0.4,0.2,0.6c0,0.2-0.1,0.4-0.2,0.6c-0.2,0.2-0.4,0.2-0.7,0.2
			s-0.5-0.1-0.7-0.2S1056.6,2328.2,1056.6,2327.9z"/>
		<path class="st4" d="M1072.2,2325.4h-3.7v10.1h-1.5v-10.1h-3.6v-1.2h8.8V2325.4z"/>
		<path class="st4" d="M1076.5,2333.5l2-6.3h1.5l-3.4,9.8c-0.5,1.4-1.4,2.1-2.5,2.1l-0.3,0l-0.5-0.1v-1.2l0.4,0
			c0.5,0,0.9-0.1,1.1-0.3s0.5-0.6,0.7-1.1l0.3-0.9l-3-8.4h1.6L1076.5,2333.5z"/>
		<path class="st4" d="M1088.4,2331.4c0,1.3-0.3,2.3-0.9,3.1c-0.6,0.8-1.4,1.2-2.4,1.2c-1,0-1.8-0.3-2.4-1v4.1h-1.4v-11.7h1.3
			l0.1,0.9c0.6-0.7,1.4-1.1,2.5-1.1c1,0,1.8,0.4,2.4,1.1c0.6,0.8,0.9,1.8,0.9,3.2V2331.4z M1087,2331.3c0-1-0.2-1.7-0.6-2.3
			s-1-0.8-1.7-0.8c-0.9,0-1.5,0.4-2,1.2v4c0.4,0.8,1.1,1.2,2,1.2c0.7,0,1.2-0.3,1.7-0.8C1086.8,2333.2,1087,2332.4,1087,2331.3z"/>
		<path class="st4" d="M1093.8,2335.7c-1.1,0-2.1-0.4-2.8-1.1s-1.1-1.8-1.1-3v-0.3c0-0.8,0.2-1.6,0.5-2.2s0.8-1.2,1.3-1.5
			c0.6-0.4,1.2-0.6,1.9-0.6c1.1,0,2,0.4,2.6,1.1s0.9,1.8,0.9,3.1v0.6h-5.7c0,0.8,0.3,1.5,0.7,2c0.5,0.5,1.1,0.8,1.8,0.8
			c0.5,0,0.9-0.1,1.3-0.3c0.4-0.2,0.7-0.5,0.9-0.8l0.9,0.7C1096.2,2335.2,1095.2,2335.7,1093.8,2335.7z M1093.6,2328.2
			c-0.6,0-1.1,0.2-1.5,0.6c-0.4,0.4-0.6,1-0.7,1.8h4.2v-0.1c0-0.7-0.2-1.3-0.6-1.7C1094.7,2328.4,1094.2,2328.2,1093.6,2328.2z"/>
	</g>
	<g class="st3">
		<path class="st4" d="M973.2,2378.5h3.2v1.4h-3.2v3.6h-1.5v-3.6h-3.2v-1.4h3.2v-3.3h1.5V2378.5z"/>
		<path class="st4" d="M991.1,2379.3c0,1.1-0.2,2.1-0.6,2.9s-0.9,1.5-1.6,1.9s-1.5,0.7-2.4,0.7c-0.9,0-1.7-0.2-2.4-0.7
			c-0.7-0.4-1.2-1.1-1.6-1.9s-0.6-1.8-0.6-2.8v-0.8c0-1.1,0.2-2.1,0.6-2.9c0.4-0.8,0.9-1.5,1.6-1.9s1.5-0.7,2.4-0.7
			c0.9,0,1.7,0.2,2.4,0.7s1.2,1.1,1.6,1.9s0.6,1.8,0.6,2.9V2379.3z M989.6,2378.5c0-1.3-0.3-2.4-0.8-3.1c-0.5-0.7-1.3-1.1-2.3-1.1
			c-0.9,0-1.7,0.4-2.2,1.1c-0.5,0.7-0.8,1.7-0.8,3v0.8c0,1.3,0.3,2.3,0.8,3.1c0.5,0.7,1.3,1.1,2.3,1.1c1,0,1.7-0.4,2.2-1.1
			s0.8-1.7,0.8-3V2378.5z"/>
		<path class="st4" d="M1000.3,2380.4c0,1.3-0.3,2.3-0.9,3.1c-0.6,0.8-1.4,1.2-2.4,1.2c-1,0-1.8-0.3-2.4-1v4.1h-1.4v-11.7h1.3
			l0.1,0.9c0.6-0.7,1.4-1.1,2.5-1.1c1,0,1.8,0.4,2.4,1.1c0.6,0.8,0.9,1.8,0.9,3.2V2380.4z M998.8,2380.3c0-1-0.2-1.7-0.6-2.3
			s-1-0.8-1.7-0.8c-0.9,0-1.5,0.4-2,1.2v4c0.4,0.8,1.1,1.2,2,1.2c0.7,0,1.2-0.3,1.7-0.8C998.6,2382.2,998.8,2381.4,998.8,2380.3z"/>
		<path class="st4" d="M1005.6,2384.7c-1.1,0-2.1-0.4-2.8-1.1s-1.1-1.8-1.1-3v-0.3c0-0.8,0.2-1.6,0.5-2.2s0.8-1.2,1.3-1.5
			c0.6-0.4,1.2-0.6,1.9-0.6c1.1,0,2,0.4,2.6,1.1s0.9,1.8,0.9,3.1v0.6h-5.7c0,0.8,0.3,1.5,0.7,2c0.5,0.5,1.1,0.8,1.8,0.8
			c0.5,0,0.9-0.1,1.3-0.3c0.4-0.2,0.7-0.5,0.9-0.8l0.9,0.7C1008.1,2384.2,1007,2384.7,1005.6,2384.7z M1005.4,2377.2
			c-0.6,0-1.1,0.2-1.5,0.6c-0.4,0.4-0.6,1-0.7,1.8h4.2v-0.1c0-0.7-0.2-1.3-0.6-1.7C1006.5,2377.4,1006,2377.2,1005.4,2377.2z"/>
		<path class="st4" d="M1014.7,2377.4c-0.2,0-0.5-0.1-0.7-0.1c-0.9,0-1.6,0.4-1.9,1.2v6h-1.4v-8.5h1.4l0,1c0.5-0.8,1.1-1.1,2-1.1
			c0.3,0,0.5,0,0.6,0.1V2377.4z"/>
		<path class="st4" d="M1020.9,2384.6c-0.1-0.2-0.2-0.5-0.2-0.9c-0.7,0.7-1.5,1-2.4,1c-0.8,0-1.5-0.2-2.1-0.7
			c-0.5-0.5-0.8-1.1-0.8-1.8c0-0.9,0.3-1.6,1-2.1c0.7-0.5,1.6-0.7,2.8-0.7h1.4v-0.7c0-0.5-0.2-0.9-0.5-1.2c-0.3-0.3-0.7-0.4-1.3-0.4
			c-0.5,0-0.9,0.1-1.3,0.4c-0.3,0.3-0.5,0.6-0.5,0.9h-1.5c0-0.4,0.1-0.8,0.4-1.2c0.3-0.4,0.7-0.7,1.2-0.9c0.5-0.2,1.1-0.3,1.7-0.3
			c1,0,1.7,0.2,2.3,0.7c0.6,0.5,0.8,1.2,0.9,2v3.9c0,0.8,0.1,1.4,0.3,1.9v0.1H1020.9z M1018.5,2383.5c0.5,0,0.9-0.1,1.3-0.4
			s0.7-0.5,0.9-0.9v-1.7h-1.1c-1.8,0-2.7,0.5-2.7,1.6c0,0.5,0.2,0.8,0.5,1.1C1017.6,2383.3,1018,2383.5,1018.5,2383.5z"/>
		<path class="st4" d="M1026.3,2374.1v2h1.6v1.1h-1.6v5.2c0,0.3,0.1,0.6,0.2,0.8c0.1,0.2,0.4,0.3,0.7,0.3c0.2,0,0.4,0,0.7-0.1v1.2
			c-0.4,0.1-0.8,0.2-1.1,0.2c-0.6,0-1.1-0.2-1.5-0.6s-0.5-0.9-0.5-1.7v-5.2h-1.5v-1.1h1.5v-2H1026.3z"/>
		<path class="st4" d="M1029.6,2373.9c0-0.2,0.1-0.4,0.2-0.6c0.1-0.2,0.4-0.2,0.6-0.2s0.5,0.1,0.6,0.2c0.1,0.2,0.2,0.4,0.2,0.6
			s-0.1,0.4-0.2,0.6c-0.1,0.2-0.4,0.2-0.6,0.2s-0.5-0.1-0.6-0.2C1029.7,2374.3,1029.6,2374.1,1029.6,2373.9z M1031.2,2384.6h-1.4
			v-8.5h1.4V2384.6z"/>
		<path class="st4" d="M1033.1,2380.3c0-0.8,0.2-1.6,0.5-2.2c0.3-0.7,0.8-1.2,1.4-1.5c0.6-0.4,1.2-0.5,2-0.5c1.2,0,2.1,0.4,2.8,1.2
			s1.1,1.9,1.1,3.2v0.1c0,0.8-0.2,1.6-0.5,2.2c-0.3,0.7-0.8,1.2-1.4,1.5s-1.3,0.5-2,0.5c-1.1,0-2.1-0.4-2.8-1.2s-1.1-1.9-1.1-3.2
			V2380.3z M1034.6,2380.4c0,0.9,0.2,1.7,0.7,2.3c0.4,0.6,1,0.9,1.7,0.9c0.7,0,1.3-0.3,1.8-0.9c0.4-0.6,0.6-1.4,0.6-2.4
			c0-0.9-0.2-1.7-0.7-2.3c-0.4-0.6-1-0.9-1.8-0.9c-0.7,0-1.3,0.3-1.7,0.9S1034.6,2379.4,1034.6,2380.4z"/>
		<path class="st4" d="M1044,2376.1l0,1.1c0.6-0.8,1.5-1.2,2.5-1.2c1.8,0,2.7,1,2.7,3v5.6h-1.4v-5.6c0-0.6-0.1-1.1-0.4-1.4
			s-0.7-0.4-1.3-0.4c-0.5,0-0.9,0.1-1.2,0.4c-0.4,0.2-0.6,0.6-0.8,1v6h-1.4v-8.5H1044z"/>
		<path class="st4" d="M1060,2384.6h-1.5v-9.6l-2.9,1.1v-1.3l4.1-1.6h0.2V2384.6z"/>
		<path class="st4" d="M1068.3,2380c0-1.2,0.2-2.3,0.5-3.4c0.3-1.1,0.8-2.1,1.4-3s1.3-1.5,1.9-1.9l0.3,1c-0.8,0.6-1.4,1.5-1.9,2.7
			c-0.5,1.2-0.8,2.5-0.8,4l0,0.7c0,2,0.4,3.8,1.1,5.2c0.4,0.9,1,1.6,1.6,2.1l-0.3,0.9c-0.7-0.4-1.4-1-2-1.9
			C1068.9,2384.5,1068.3,2382.4,1068.3,2380z"/>
		<path class="st4" d="M1083,2384.6c-0.1-0.2-0.2-0.5-0.2-0.9c-0.7,0.7-1.5,1-2.4,1c-0.8,0-1.5-0.2-2.1-0.7
			c-0.5-0.5-0.8-1.1-0.8-1.8c0-0.9,0.3-1.6,1-2.1c0.7-0.5,1.6-0.7,2.8-0.7h1.4v-0.7c0-0.5-0.2-0.9-0.5-1.2c-0.3-0.3-0.7-0.4-1.3-0.4
			c-0.5,0-0.9,0.1-1.3,0.4c-0.3,0.3-0.5,0.6-0.5,0.9h-1.5c0-0.4,0.1-0.8,0.4-1.2c0.3-0.4,0.7-0.7,1.2-0.9c0.5-0.2,1.1-0.3,1.7-0.3
			c1,0,1.7,0.2,2.3,0.7c0.6,0.5,0.8,1.2,0.9,2v3.9c0,0.8,0.1,1.4,0.3,1.9v0.1H1083z M1080.6,2383.5c0.5,0,0.9-0.1,1.3-0.4
			s0.7-0.5,0.9-0.9v-1.7h-1.1c-1.8,0-2.7,0.5-2.7,1.6c0,0.5,0.2,0.8,0.5,1.1C1079.7,2383.3,1080.1,2383.5,1080.6,2383.5z"/>
		<path class="st4" d="M1090.6,2377.4c-0.2,0-0.5-0.1-0.7-0.1c-0.9,0-1.6,0.4-1.9,1.2v6h-1.4v-8.5h1.4l0,1c0.5-0.8,1.1-1.1,2-1.1
			c0.3,0,0.5,0,0.6,0.1V2377.4z"/>
		<path class="st4" d="M1091.6,2380.3c0-1.3,0.3-2.4,0.9-3.1s1.4-1.2,2.4-1.2c1,0,1.8,0.4,2.4,1.1l0.1-0.9h1.3v8.2
			c0,1.1-0.3,2-1,2.6s-1.5,0.9-2.6,0.9c-0.6,0-1.2-0.1-1.8-0.4c-0.6-0.3-1-0.6-1.3-1.1l0.8-0.9c0.6,0.8,1.4,1.1,2.3,1.1
			c0.7,0,1.3-0.2,1.6-0.6c0.4-0.4,0.6-1,0.6-1.7v-0.7c-0.6,0.7-1.4,1-2.4,1c-1,0-1.8-0.4-2.4-1.2
			C1091.9,2382.7,1091.6,2381.7,1091.6,2380.3z M1093,2380.4c0,1,0.2,1.7,0.6,2.2s0.9,0.8,1.6,0.8c0.9,0,1.6-0.4,2-1.2v-3.9
			c-0.4-0.8-1.1-1.2-2-1.2c-0.7,0-1.3,0.3-1.6,0.8C1093.2,2378.6,1093,2379.4,1093,2380.4z"/>
		<path class="st4" d="M1106.4,2384.6h-1.4v-12h1.4V2384.6z"/>
		<path class="st4" d="M1108.7,2373.9c0-0.2,0.1-0.4,0.2-0.6c0.1-0.2,0.4-0.2,0.6-0.2s0.5,0.1,0.6,0.2c0.1,0.2,0.2,0.4,0.2,0.6
			s-0.1,0.4-0.2,0.6c-0.1,0.2-0.4,0.2-0.6,0.2s-0.5-0.1-0.6-0.2C1108.8,2374.3,1108.7,2374.1,1108.7,2373.9z M1110.3,2384.6h-1.4
			v-8.5h1.4V2384.6z"/>
		<path class="st4" d="M1117.5,2382.3c0-0.4-0.1-0.7-0.4-0.9c-0.3-0.2-0.8-0.4-1.5-0.6c-0.7-0.2-1.3-0.3-1.7-0.6s-0.7-0.5-1-0.8
			c-0.2-0.3-0.3-0.7-0.3-1.1c0-0.7,0.3-1.3,0.9-1.8s1.3-0.7,2.2-0.7c1,0,1.7,0.2,2.3,0.7c0.6,0.5,0.9,1.1,0.9,1.9h-1.5
			c0-0.4-0.2-0.7-0.5-1s-0.8-0.4-1.3-0.4c-0.5,0-0.9,0.1-1.2,0.3s-0.4,0.5-0.4,0.9c0,0.3,0.1,0.6,0.4,0.8c0.3,0.2,0.8,0.3,1.5,0.5
			c0.7,0.2,1.3,0.4,1.8,0.6c0.4,0.2,0.8,0.5,1,0.8c0.2,0.3,0.3,0.7,0.3,1.2c0,0.8-0.3,1.4-0.9,1.8c-0.6,0.5-1.4,0.7-2.4,0.7
			c-0.7,0-1.3-0.1-1.8-0.4c-0.5-0.2-0.9-0.6-1.2-1c-0.3-0.4-0.4-0.9-0.4-1.4h1.4c0,0.5,0.2,0.9,0.6,1.2c0.4,0.3,0.8,0.4,1.4,0.4
			c0.5,0,1-0.1,1.3-0.3C1117.4,2383,1117.5,2382.7,1117.5,2382.3z"/>
		<path class="st4" d="M1122.8,2374.1v2h1.6v1.1h-1.6v5.2c0,0.3,0.1,0.6,0.2,0.8c0.1,0.2,0.4,0.3,0.7,0.3c0.2,0,0.4,0,0.7-0.1v1.2
			c-0.4,0.1-0.8,0.2-1.1,0.2c-0.6,0-1.1-0.2-1.5-0.6s-0.5-0.9-0.5-1.7v-5.2h-1.5v-1.1h1.5v-2H1122.8z"/>
		<path class="st4" d="M1133.4,2380c0,1.2-0.2,2.3-0.5,3.3s-0.8,2-1.4,2.9c-0.6,0.9-1.3,1.5-2,1.9l-0.3-0.9c0.8-0.6,1.4-1.6,1.9-2.9
			c0.5-1.3,0.7-2.7,0.7-4.3v-0.2c0-1.1-0.1-2.1-0.3-3.1c-0.2-0.9-0.5-1.8-1-2.5c-0.4-0.7-0.9-1.3-1.4-1.7l0.3-0.9
			c0.7,0.4,1.3,1,2,1.9c0.6,0.9,1.1,1.9,1.4,2.9C1133.2,2377.7,1133.4,2378.8,1133.4,2380z"/>
		<path class="st4" d="M1139.5,2383.8c0-0.2,0.1-0.5,0.2-0.6s0.4-0.2,0.7-0.2s0.5,0.1,0.7,0.2c0.2,0.2,0.2,0.4,0.2,0.6
			c0,0.2-0.1,0.4-0.2,0.6c-0.2,0.2-0.4,0.2-0.7,0.2s-0.5-0.1-0.7-0.2S1139.5,2384.1,1139.5,2383.8z M1139.5,2376.9
			c0-0.2,0.1-0.5,0.2-0.6s0.4-0.2,0.7-0.2s0.5,0.1,0.7,0.2c0.2,0.2,0.2,0.4,0.2,0.6c0,0.2-0.1,0.4-0.2,0.6c-0.2,0.2-0.4,0.2-0.7,0.2
			s-0.5-0.1-0.7-0.2S1139.5,2377.2,1139.5,2376.9z"/>
		<path class="st4" d="M1151.5,2377.4c-0.2,0-0.5-0.1-0.7-0.1c-0.9,0-1.6,0.4-1.9,1.2v6h-1.4v-8.5h1.4l0,1c0.5-0.8,1.1-1.1,2-1.1
			c0.3,0,0.5,0,0.6,0.1V2377.4z"/>
		<path class="st4" d="M1156.3,2384.7c-1.1,0-2.1-0.4-2.8-1.1s-1.1-1.8-1.1-3v-0.3c0-0.8,0.2-1.6,0.5-2.2s0.8-1.2,1.3-1.5
			c0.6-0.4,1.2-0.6,1.9-0.6c1.1,0,2,0.4,2.6,1.1s0.9,1.8,0.9,3.1v0.6h-5.7c0,0.8,0.3,1.5,0.7,2c0.5,0.5,1.1,0.8,1.8,0.8
			c0.5,0,0.9-0.1,1.3-0.3c0.4-0.2,0.7-0.5,0.9-0.8l0.9,0.7C1158.8,2384.2,1157.7,2384.7,1156.3,2384.7z M1156.1,2377.2
			c-0.6,0-1.1,0.2-1.5,0.6c-0.4,0.4-0.6,1-0.7,1.8h4.2v-0.1c0-0.7-0.2-1.3-0.6-1.7C1157.2,2377.4,1156.7,2377.2,1156.1,2377.2z"/>
		<path class="st4" d="M1163.2,2374.1v2h1.6v1.1h-1.6v5.2c0,0.3,0.1,0.6,0.2,0.8c0.1,0.2,0.4,0.3,0.7,0.3c0.2,0,0.4,0,0.7-0.1v1.2
			c-0.4,0.1-0.8,0.2-1.1,0.2c-0.6,0-1.1-0.2-1.5-0.6s-0.5-0.9-0.5-1.7v-5.2h-1.5v-1.1h1.5v-2H1163.2z"/>
		<path class="st4" d="M1171.7,2383.7c-0.6,0.7-1.4,1-2.5,1c-0.9,0-1.6-0.3-2.1-0.8c-0.5-0.5-0.7-1.3-0.7-2.3v-5.5h1.4v5.5
			c0,1.3,0.5,1.9,1.6,1.9c1.1,0,1.8-0.4,2.2-1.2v-6.1h1.4v8.5h-1.4L1171.7,2383.7z"/>
		<path class="st4" d="M1179.4,2377.4c-0.2,0-0.5-0.1-0.7-0.1c-0.9,0-1.6,0.4-1.9,1.2v6h-1.4v-8.5h1.4l0,1c0.5-0.8,1.1-1.1,2-1.1
			c0.3,0,0.5,0,0.6,0.1V2377.4z"/>
		<path class="st4" d="M1182.1,2376.1l0,1.1c0.6-0.8,1.5-1.2,2.5-1.2c1.8,0,2.7,1,2.7,3v5.6h-1.4v-5.6c0-0.6-0.1-1.1-0.4-1.4
			s-0.7-0.4-1.3-0.4c-0.5,0-0.9,0.1-1.2,0.4c-0.4,0.2-0.6,0.6-0.8,1v6h-1.4v-8.5H1182.1z"/>
	</g>
	<g class="st3">
		<path class="st4" d="M973.2,2398.5h3.2v1.4h-3.2v3.6h-1.5v-3.6h-3.2v-1.4h3.2v-3.3h1.5V2398.5z"/>
		<path class="st4" d="M991.1,2399.3c0,1.1-0.2,2.1-0.6,2.9s-0.9,1.5-1.6,1.9s-1.5,0.7-2.4,0.7c-0.9,0-1.7-0.2-2.4-0.7
			c-0.7-0.4-1.2-1.1-1.6-1.9s-0.6-1.8-0.6-2.8v-0.8c0-1.1,0.2-2.1,0.6-2.9c0.4-0.8,0.9-1.5,1.6-1.9s1.5-0.7,2.4-0.7
			c0.9,0,1.7,0.2,2.4,0.7s1.2,1.1,1.6,1.9s0.6,1.8,0.6,2.9V2399.3z M989.6,2398.5c0-1.3-0.3-2.4-0.8-3.1c-0.5-0.7-1.3-1.1-2.3-1.1
			c-0.9,0-1.7,0.4-2.2,1.1c-0.5,0.7-0.8,1.7-0.8,3v0.8c0,1.3,0.3,2.3,0.8,3.1c0.5,0.7,1.3,1.1,2.3,1.1c1,0,1.7-0.4,2.2-1.1
			s0.8-1.7,0.8-3V2398.5z"/>
		<path class="st4" d="M1000.3,2400.4c0,1.3-0.3,2.3-0.9,3.1c-0.6,0.8-1.4,1.2-2.4,1.2c-1,0-1.8-0.3-2.4-1v4.1h-1.4v-11.7h1.3
			l0.1,0.9c0.6-0.7,1.4-1.1,2.5-1.1c1,0,1.8,0.4,2.4,1.1c0.6,0.8,0.9,1.8,0.9,3.2V2400.4z M998.8,2400.3c0-1-0.2-1.7-0.6-2.3
			s-1-0.8-1.7-0.8c-0.9,0-1.5,0.4-2,1.2v4c0.4,0.8,1.1,1.2,2,1.2c0.7,0,1.2-0.3,1.7-0.8C998.6,2402.2,998.8,2401.4,998.8,2400.3z"/>
		<path class="st4" d="M1005.6,2404.7c-1.1,0-2.1-0.4-2.8-1.1s-1.1-1.8-1.1-3v-0.3c0-0.8,0.2-1.6,0.5-2.2s0.8-1.2,1.3-1.5
			c0.6-0.4,1.2-0.6,1.9-0.6c1.1,0,2,0.4,2.6,1.1s0.9,1.8,0.9,3.1v0.6h-5.7c0,0.8,0.3,1.5,0.7,2c0.5,0.5,1.1,0.8,1.8,0.8
			c0.5,0,0.9-0.1,1.3-0.3c0.4-0.2,0.7-0.5,0.9-0.8l0.9,0.7C1008.1,2404.2,1007,2404.7,1005.6,2404.7z M1005.4,2397.2
			c-0.6,0-1.1,0.2-1.5,0.6c-0.4,0.4-0.6,1-0.7,1.8h4.2v-0.1c0-0.7-0.2-1.3-0.6-1.7C1006.5,2397.4,1006,2397.2,1005.4,2397.2z"/>
		<path class="st4" d="M1014.7,2397.4c-0.2,0-0.5-0.1-0.7-0.1c-0.9,0-1.6,0.4-1.9,1.2v6h-1.4v-8.5h1.4l0,1c0.5-0.8,1.1-1.1,2-1.1
			c0.3,0,0.5,0,0.6,0.1V2397.4z"/>
		<path class="st4" d="M1020.9,2404.6c-0.1-0.2-0.2-0.5-0.2-0.9c-0.7,0.7-1.5,1-2.4,1c-0.8,0-1.5-0.2-2.1-0.7
			c-0.5-0.5-0.8-1.1-0.8-1.8c0-0.9,0.3-1.6,1-2.1c0.7-0.5,1.6-0.7,2.8-0.7h1.4v-0.7c0-0.5-0.2-0.9-0.5-1.2c-0.3-0.3-0.7-0.4-1.3-0.4
			c-0.5,0-0.9,0.1-1.3,0.4c-0.3,0.3-0.5,0.6-0.5,0.9h-1.5c0-0.4,0.1-0.8,0.4-1.2c0.3-0.4,0.7-0.7,1.2-0.9c0.5-0.2,1.1-0.3,1.7-0.3
			c1,0,1.7,0.2,2.3,0.7c0.6,0.5,0.8,1.2,0.9,2v3.9c0,0.8,0.1,1.4,0.3,1.9v0.1H1020.9z M1018.5,2403.5c0.5,0,0.9-0.1,1.3-0.4
			s0.7-0.5,0.9-0.9v-1.7h-1.1c-1.8,0-2.7,0.5-2.7,1.6c0,0.5,0.2,0.8,0.5,1.1C1017.6,2403.3,1018,2403.5,1018.5,2403.5z"/>
		<path class="st4" d="M1026.3,2394.1v2h1.6v1.1h-1.6v5.2c0,0.3,0.1,0.6,0.2,0.8c0.1,0.2,0.4,0.3,0.7,0.3c0.2,0,0.4,0,0.7-0.1v1.2
			c-0.4,0.1-0.8,0.2-1.1,0.2c-0.6,0-1.1-0.2-1.5-0.6s-0.5-0.9-0.5-1.7v-5.2h-1.5v-1.1h1.5v-2H1026.3z"/>
		<path class="st4" d="M1029.6,2393.9c0-0.2,0.1-0.4,0.2-0.6c0.1-0.2,0.4-0.2,0.6-0.2s0.5,0.1,0.6,0.2c0.1,0.2,0.2,0.4,0.2,0.6
			s-0.1,0.4-0.2,0.6c-0.1,0.2-0.4,0.2-0.6,0.2s-0.5-0.1-0.6-0.2C1029.7,2394.3,1029.6,2394.1,1029.6,2393.9z M1031.2,2404.6h-1.4
			v-8.5h1.4V2404.6z"/>
		<path class="st4" d="M1033.1,2400.3c0-0.8,0.2-1.6,0.5-2.2c0.3-0.7,0.8-1.2,1.4-1.5c0.6-0.4,1.2-0.5,2-0.5c1.2,0,2.1,0.4,2.8,1.2
			s1.1,1.9,1.1,3.2v0.1c0,0.8-0.2,1.6-0.5,2.2c-0.3,0.7-0.8,1.2-1.4,1.5s-1.3,0.5-2,0.5c-1.1,0-2.1-0.4-2.8-1.2s-1.1-1.9-1.1-3.2
			V2400.3z M1034.6,2400.4c0,0.9,0.2,1.7,0.7,2.3c0.4,0.6,1,0.9,1.7,0.9c0.7,0,1.3-0.3,1.8-0.9c0.4-0.6,0.6-1.4,0.6-2.4
			c0-0.9-0.2-1.7-0.7-2.3c-0.4-0.6-1-0.9-1.8-0.9c-0.7,0-1.3,0.3-1.7,0.9S1034.6,2399.4,1034.6,2400.4z"/>
		<path class="st4" d="M1044,2396.1l0,1.1c0.6-0.8,1.5-1.2,2.5-1.2c1.8,0,2.7,1,2.7,3v5.6h-1.4v-5.6c0-0.6-0.1-1.1-0.4-1.4
			s-0.7-0.4-1.3-0.4c-0.5,0-0.9,0.1-1.2,0.4c-0.4,0.2-0.6,0.6-0.8,1v6h-1.4v-8.5H1044z"/>
		<path class="st4" d="M1062.7,2404.6h-7.5v-1l3.9-4.4c0.6-0.7,1-1.2,1.2-1.6c0.2-0.4,0.3-0.8,0.3-1.3c0-0.6-0.2-1.1-0.5-1.5
			s-0.8-0.6-1.4-0.6c-0.7,0-1.3,0.2-1.7,0.6s-0.6,1-0.6,1.7h-1.4c0-1,0.3-1.9,1-2.5c0.7-0.6,1.6-1,2.7-1c1.1,0,1.9,0.3,2.5,0.8
			c0.6,0.6,0.9,1.3,0.9,2.2c0,1.1-0.7,2.5-2.1,4l-3,3.3h5.7V2404.6z"/>
		<path class="st4" d="M1068.3,2400c0-1.2,0.2-2.3,0.5-3.4c0.3-1.1,0.8-2.1,1.4-3s1.3-1.5,1.9-1.9l0.3,1c-0.8,0.6-1.4,1.5-1.9,2.7
			c-0.5,1.2-0.8,2.5-0.8,4l0,0.7c0,2,0.4,3.8,1.1,5.2c0.4,0.9,1,1.6,1.6,2.1l-0.3,0.9c-0.7-0.4-1.4-1-2-1.9
			C1068.9,2404.5,1068.3,2402.4,1068.3,2400z"/>
		<path class="st4" d="M1083,2404.6c-0.1-0.2-0.2-0.5-0.2-0.9c-0.7,0.7-1.5,1-2.4,1c-0.8,0-1.5-0.2-2.1-0.7
			c-0.5-0.5-0.8-1.1-0.8-1.8c0-0.9,0.3-1.6,1-2.1c0.7-0.5,1.6-0.7,2.8-0.7h1.4v-0.7c0-0.5-0.2-0.9-0.5-1.2c-0.3-0.3-0.7-0.4-1.3-0.4
			c-0.5,0-0.9,0.1-1.3,0.4c-0.3,0.3-0.5,0.6-0.5,0.9h-1.5c0-0.4,0.1-0.8,0.4-1.2c0.3-0.4,0.7-0.7,1.2-0.9c0.5-0.2,1.1-0.3,1.7-0.3
			c1,0,1.7,0.2,2.3,0.7c0.6,0.5,0.8,1.2,0.9,2v3.9c0,0.8,0.1,1.4,0.3,1.9v0.1H1083z M1080.6,2403.5c0.5,0,0.9-0.1,1.3-0.4
			s0.7-0.5,0.9-0.9v-1.7h-1.1c-1.8,0-2.7,0.5-2.7,1.6c0,0.5,0.2,0.8,0.5,1.1C1079.7,2403.3,1080.1,2403.5,1080.6,2403.5z"/>
		<path class="st4" d="M1090.6,2397.4c-0.2,0-0.5-0.1-0.7-0.1c-0.9,0-1.6,0.4-1.9,1.2v6h-1.4v-8.5h1.4l0,1c0.5-0.8,1.1-1.1,2-1.1
			c0.3,0,0.5,0,0.6,0.1V2397.4z"/>
		<path class="st4" d="M1091.6,2400.3c0-1.3,0.3-2.4,0.9-3.1s1.4-1.2,2.4-1.2c1,0,1.8,0.4,2.4,1.1l0.1-0.9h1.3v8.2
			c0,1.1-0.3,2-1,2.6s-1.5,0.9-2.6,0.9c-0.6,0-1.2-0.1-1.8-0.4c-0.6-0.3-1-0.6-1.3-1.1l0.8-0.9c0.6,0.8,1.4,1.1,2.3,1.1
			c0.7,0,1.3-0.2,1.6-0.6c0.4-0.4,0.6-1,0.6-1.7v-0.7c-0.6,0.7-1.4,1-2.4,1c-1,0-1.8-0.4-2.4-1.2
			C1091.9,2402.7,1091.6,2401.7,1091.6,2400.3z M1093,2400.4c0,1,0.2,1.7,0.6,2.2s0.9,0.8,1.6,0.8c0.9,0,1.6-0.4,2-1.2v-3.9
			c-0.4-0.8-1.1-1.2-2-1.2c-0.7,0-1.3,0.3-1.6,0.8C1093.2,2398.6,1093,2399.4,1093,2400.4z"/>
		<path class="st4" d="M1106.4,2404.6h-1.4v-12h1.4V2404.6z"/>
		<path class="st4" d="M1108.7,2393.9c0-0.2,0.1-0.4,0.2-0.6c0.1-0.2,0.4-0.2,0.6-0.2s0.5,0.1,0.6,0.2c0.1,0.2,0.2,0.4,0.2,0.6
			s-0.1,0.4-0.2,0.6c-0.1,0.2-0.4,0.2-0.6,0.2s-0.5-0.1-0.6-0.2C1108.8,2394.3,1108.7,2394.1,1108.7,2393.9z M1110.3,2404.6h-1.4
			v-8.5h1.4V2404.6z"/>
		<path class="st4" d="M1117.5,2402.3c0-0.4-0.1-0.7-0.4-0.9c-0.3-0.2-0.8-0.4-1.5-0.6c-0.7-0.2-1.3-0.3-1.7-0.6s-0.7-0.5-1-0.8
			c-0.2-0.3-0.3-0.7-0.3-1.1c0-0.7,0.3-1.3,0.9-1.8s1.3-0.7,2.2-0.7c1,0,1.7,0.2,2.3,0.7c0.6,0.5,0.9,1.1,0.9,1.9h-1.5
			c0-0.4-0.2-0.7-0.5-1s-0.8-0.4-1.3-0.4c-0.5,0-0.9,0.1-1.2,0.3s-0.4,0.5-0.4,0.9c0,0.3,0.1,0.6,0.4,0.8c0.3,0.2,0.8,0.3,1.5,0.5
			c0.7,0.2,1.3,0.4,1.8,0.6c0.4,0.2,0.8,0.5,1,0.8c0.2,0.3,0.3,0.7,0.3,1.2c0,0.8-0.3,1.4-0.9,1.8c-0.6,0.5-1.4,0.7-2.4,0.7
			c-0.7,0-1.3-0.1-1.8-0.4c-0.5-0.2-0.9-0.6-1.2-1c-0.3-0.4-0.4-0.9-0.4-1.4h1.4c0,0.5,0.2,0.9,0.6,1.2c0.4,0.3,0.8,0.4,1.4,0.4
			c0.5,0,1-0.1,1.3-0.3C1117.4,2403,1117.5,2402.7,1117.5,2402.3z"/>
		<path class="st4" d="M1122.8,2394.1v2h1.6v1.1h-1.6v5.2c0,0.3,0.1,0.6,0.2,0.8c0.1,0.2,0.4,0.3,0.7,0.3c0.2,0,0.4,0,0.7-0.1v1.2
			c-0.4,0.1-0.8,0.2-1.1,0.2c-0.6,0-1.1-0.2-1.5-0.6s-0.5-0.9-0.5-1.7v-5.2h-1.5v-1.1h1.5v-2H1122.8z"/>
		<path class="st4" d="M1133.4,2400c0,1.2-0.2,2.3-0.5,3.3s-0.8,2-1.4,2.9c-0.6,0.9-1.3,1.5-2,1.9l-0.3-0.9c0.8-0.6,1.4-1.6,1.9-2.9
			c0.5-1.3,0.7-2.7,0.7-4.3v-0.2c0-1.1-0.1-2.1-0.3-3.1c-0.2-0.9-0.5-1.8-1-2.5c-0.4-0.7-0.9-1.3-1.4-1.7l0.3-0.9
			c0.7,0.4,1.3,1,2,1.9c0.6,0.9,1.1,1.9,1.4,2.9C1133.2,2397.7,1133.4,2398.8,1133.4,2400z"/>
		<path class="st4" d="M1139.5,2403.8c0-0.2,0.1-0.5,0.2-0.6s0.4-0.2,0.7-0.2s0.5,0.1,0.7,0.2c0.2,0.2,0.2,0.4,0.2,0.6
			c0,0.2-0.1,0.4-0.2,0.6c-0.2,0.2-0.4,0.2-0.7,0.2s-0.5-0.1-0.7-0.2S1139.5,2404.1,1139.5,2403.8z M1139.5,2396.9
			c0-0.2,0.1-0.5,0.2-0.6s0.4-0.2,0.7-0.2s0.5,0.1,0.7,0.2c0.2,0.2,0.2,0.4,0.2,0.6c0,0.2-0.1,0.4-0.2,0.6c-0.2,0.2-0.4,0.2-0.7,0.2
			s-0.5-0.1-0.7-0.2S1139.5,2397.2,1139.5,2396.9z"/>
		<path class="st4" d="M1151.5,2397.4c-0.2,0-0.5-0.1-0.7-0.1c-0.9,0-1.6,0.4-1.9,1.2v6h-1.4v-8.5h1.4l0,1c0.5-0.8,1.1-1.1,2-1.1
			c0.3,0,0.5,0,0.6,0.1V2397.4z"/>
		<path class="st4" d="M1156.3,2404.7c-1.1,0-2.1-0.4-2.8-1.1s-1.1-1.8-1.1-3v-0.3c0-0.8,0.2-1.6,0.5-2.2s0.8-1.2,1.3-1.5
			c0.6-0.4,1.2-0.6,1.9-0.6c1.1,0,2,0.4,2.6,1.1s0.9,1.8,0.9,3.1v0.6h-5.7c0,0.8,0.3,1.5,0.7,2c0.5,0.5,1.1,0.8,1.8,0.8
			c0.5,0,0.9-0.1,1.3-0.3c0.4-0.2,0.7-0.5,0.9-0.8l0.9,0.7C1158.8,2404.2,1157.7,2404.7,1156.3,2404.7z M1156.1,2397.2
			c-0.6,0-1.1,0.2-1.5,0.6c-0.4,0.4-0.6,1-0.7,1.8h4.2v-0.1c0-0.7-0.2-1.3-0.6-1.7C1157.2,2397.4,1156.7,2397.2,1156.1,2397.2z"/>
		<path class="st4" d="M1163.2,2394.1v2h1.6v1.1h-1.6v5.2c0,0.3,0.1,0.6,0.2,0.8c0.1,0.2,0.4,0.3,0.7,0.3c0.2,0,0.4,0,0.7-0.1v1.2
			c-0.4,0.1-0.8,0.2-1.1,0.2c-0.6,0-1.1-0.2-1.5-0.6s-0.5-0.9-0.5-1.7v-5.2h-1.5v-1.1h1.5v-2H1163.2z"/>
		<path class="st4" d="M1171.7,2403.7c-0.6,0.7-1.4,1-2.5,1c-0.9,0-1.6-0.3-2.1-0.8c-0.5-0.5-0.7-1.3-0.7-2.3v-5.5h1.4v5.5
			c0,1.3,0.5,1.9,1.6,1.9c1.1,0,1.8-0.4,2.2-1.2v-6.1h1.4v8.5h-1.4L1171.7,2403.7z"/>
		<path class="st4" d="M1179.4,2397.4c-0.2,0-0.5-0.1-0.7-0.1c-0.9,0-1.6,0.4-1.9,1.2v6h-1.4v-8.5h1.4l0,1c0.5-0.8,1.1-1.1,2-1.1
			c0.3,0,0.5,0,0.6,0.1V2397.4z"/>
		<path class="st4" d="M1182.1,2396.1l0,1.1c0.6-0.8,1.5-1.2,2.5-1.2c1.8,0,2.7,1,2.7,3v5.6h-1.4v-5.6c0-0.6-0.1-1.1-0.4-1.4
			s-0.7-0.4-1.3-0.4c-0.5,0-0.9,0.1-1.2,0.4c-0.4,0.2-0.6,0.6-0.8,1v6h-1.4v-8.5H1182.1z"/>
	</g>
	<g class="st3">
		<path class="st4" d="M973.2,2418.5h3.2v1.4h-3.2v3.6h-1.5v-3.6h-3.2v-1.4h3.2v-3.3h1.5V2418.5z"/>
		<path class="st4" d="M991.1,2419.3c0,1.1-0.2,2.1-0.6,2.9s-0.9,1.5-1.6,1.9s-1.5,0.7-2.4,0.7c-0.9,0-1.7-0.2-2.4-0.7
			c-0.7-0.4-1.2-1.1-1.6-1.9s-0.6-1.8-0.6-2.8v-0.8c0-1.1,0.2-2.1,0.6-2.9c0.4-0.8,0.9-1.5,1.6-1.9s1.5-0.7,2.4-0.7
			c0.9,0,1.7,0.2,2.4,0.7s1.2,1.1,1.6,1.9s0.6,1.8,0.6,2.9V2419.3z M989.6,2418.5c0-1.3-0.3-2.4-0.8-3.1c-0.5-0.7-1.3-1.1-2.3-1.1
			c-0.9,0-1.7,0.4-2.2,1.1c-0.5,0.7-0.8,1.7-0.8,3v0.8c0,1.3,0.3,2.3,0.8,3.1c0.5,0.7,1.3,1.1,2.3,1.1c1,0,1.7-0.4,2.2-1.1
			s0.8-1.7,0.8-3V2418.5z"/>
		<path class="st4" d="M1000.3,2420.4c0,1.3-0.3,2.3-0.9,3.1c-0.6,0.8-1.4,1.2-2.4,1.2c-1,0-1.8-0.3-2.4-1v4.1h-1.4v-11.7h1.3
			l0.1,0.9c0.6-0.7,1.4-1.1,2.5-1.1c1,0,1.8,0.4,2.4,1.1c0.6,0.8,0.9,1.8,0.9,3.2V2420.4z M998.8,2420.3c0-1-0.2-1.7-0.6-2.3
			s-1-0.8-1.7-0.8c-0.9,0-1.5,0.4-2,1.2v4c0.4,0.8,1.1,1.2,2,1.2c0.7,0,1.2-0.3,1.7-0.8C998.6,2422.2,998.8,2421.4,998.8,2420.3z"/>
		<path class="st4" d="M1005.6,2424.7c-1.1,0-2.1-0.4-2.8-1.1s-1.1-1.8-1.1-3v-0.3c0-0.8,0.2-1.6,0.5-2.2s0.8-1.2,1.3-1.5
			c0.6-0.4,1.2-0.6,1.9-0.6c1.1,0,2,0.4,2.6,1.1s0.9,1.8,0.9,3.1v0.6h-5.7c0,0.8,0.3,1.5,0.7,2c0.5,0.5,1.1,0.8,1.8,0.8
			c0.5,0,0.9-0.1,1.3-0.3c0.4-0.2,0.7-0.5,0.9-0.8l0.9,0.7C1008.1,2424.2,1007,2424.7,1005.6,2424.7z M1005.4,2417.2
			c-0.6,0-1.1,0.2-1.5,0.6c-0.4,0.4-0.6,1-0.7,1.8h4.2v-0.1c0-0.7-0.2-1.3-0.6-1.7C1006.5,2417.4,1006,2417.2,1005.4,2417.2z"/>
		<path class="st4" d="M1014.7,2417.4c-0.2,0-0.5-0.1-0.7-0.1c-0.9,0-1.6,0.4-1.9,1.2v6h-1.4v-8.5h1.4l0,1c0.5-0.8,1.1-1.1,2-1.1
			c0.3,0,0.5,0,0.6,0.1V2417.4z"/>
		<path class="st4" d="M1020.9,2424.6c-0.1-0.2-0.2-0.5-0.2-0.9c-0.7,0.7-1.5,1-2.4,1c-0.8,0-1.5-0.2-2.1-0.7
			c-0.5-0.5-0.8-1.1-0.8-1.8c0-0.9,0.3-1.6,1-2.1c0.7-0.5,1.6-0.7,2.8-0.7h1.4v-0.7c0-0.5-0.2-0.9-0.5-1.2c-0.3-0.3-0.7-0.4-1.3-0.4
			c-0.5,0-0.9,0.1-1.3,0.4c-0.3,0.3-0.5,0.6-0.5,0.9h-1.5c0-0.4,0.1-0.8,0.4-1.2c0.3-0.4,0.7-0.7,1.2-0.9c0.5-0.2,1.1-0.3,1.7-0.3
			c1,0,1.7,0.2,2.3,0.7c0.6,0.5,0.8,1.2,0.9,2v3.9c0,0.8,0.1,1.4,0.3,1.9v0.1H1020.9z M1018.5,2423.5c0.5,0,0.9-0.1,1.3-0.4
			s0.7-0.5,0.9-0.9v-1.7h-1.1c-1.8,0-2.7,0.5-2.7,1.6c0,0.5,0.2,0.8,0.5,1.1C1017.6,2423.3,1018,2423.5,1018.5,2423.5z"/>
		<path class="st4" d="M1026.3,2414.1v2h1.6v1.1h-1.6v5.2c0,0.3,0.1,0.6,0.2,0.8c0.1,0.2,0.4,0.3,0.7,0.3c0.2,0,0.4,0,0.7-0.1v1.2
			c-0.4,0.1-0.8,0.2-1.1,0.2c-0.6,0-1.1-0.2-1.5-0.6s-0.5-0.9-0.5-1.7v-5.2h-1.5v-1.1h1.5v-2H1026.3z"/>
		<path class="st4" d="M1029.6,2413.9c0-0.2,0.1-0.4,0.2-0.6c0.1-0.2,0.4-0.2,0.6-0.2s0.5,0.1,0.6,0.2c0.1,0.2,0.2,0.4,0.2,0.6
			s-0.1,0.4-0.2,0.6c-0.1,0.2-0.4,0.2-0.6,0.2s-0.5-0.1-0.6-0.2C1029.7,2414.3,1029.6,2414.1,1029.6,2413.9z M1031.2,2424.6h-1.4
			v-8.5h1.4V2424.6z"/>
		<path class="st4" d="M1033.1,2420.3c0-0.8,0.2-1.6,0.5-2.2c0.3-0.7,0.8-1.2,1.4-1.5c0.6-0.4,1.2-0.5,2-0.5c1.2,0,2.1,0.4,2.8,1.2
			s1.1,1.9,1.1,3.2v0.1c0,0.8-0.2,1.6-0.5,2.2c-0.3,0.7-0.8,1.2-1.4,1.5s-1.3,0.5-2,0.5c-1.1,0-2.1-0.4-2.8-1.2s-1.1-1.9-1.1-3.2
			V2420.3z M1034.6,2420.4c0,0.9,0.2,1.7,0.7,2.3c0.4,0.6,1,0.9,1.7,0.9c0.7,0,1.3-0.3,1.8-0.9c0.4-0.6,0.6-1.4,0.6-2.4
			c0-0.9-0.2-1.7-0.7-2.3c-0.4-0.6-1-0.9-1.8-0.9c-0.7,0-1.3,0.3-1.7,0.9S1034.6,2419.4,1034.6,2420.4z"/>
		<path class="st4" d="M1044,2416.1l0,1.1c0.6-0.8,1.5-1.2,2.5-1.2c1.8,0,2.7,1,2.7,3v5.6h-1.4v-5.6c0-0.6-0.1-1.1-0.4-1.4
			s-0.7-0.4-1.3-0.4c-0.5,0-0.9,0.1-1.2,0.4c-0.4,0.2-0.6,0.6-0.8,1v6h-1.4v-8.5H1044z"/>
		<path class="st4" d="M1057.4,2418.2h1.1c0.7,0,1.2-0.2,1.6-0.5s0.6-0.8,0.6-1.4c0-1.3-0.7-2-2-2c-0.6,0-1.1,0.2-1.5,0.5
			c-0.4,0.4-0.6,0.8-0.6,1.4h-1.4c0-0.9,0.3-1.6,1-2.2c0.7-0.6,1.5-0.9,2.5-0.9c1.1,0,1.9,0.3,2.5,0.9s0.9,1.4,0.9,2.4
			c0,0.5-0.2,1-0.5,1.4s-0.8,0.8-1.3,1c0.6,0.2,1.1,0.5,1.4,1c0.3,0.5,0.5,1,0.5,1.7c0,1-0.3,1.8-1,2.4c-0.7,0.6-1.5,0.9-2.6,0.9
			c-1.1,0-1.9-0.3-2.6-0.9c-0.7-0.6-1-1.3-1-2.3h1.5c0,0.6,0.2,1.1,0.6,1.4s0.9,0.5,1.6,0.5c0.7,0,1.2-0.2,1.6-0.5
			c0.4-0.4,0.6-0.9,0.6-1.6c0-0.7-0.2-1.2-0.6-1.5s-1-0.5-1.8-0.5h-1.1V2418.2z"/>
		<path class="st4" d="M1068.3,2420c0-1.2,0.2-2.3,0.5-3.4c0.3-1.1,0.8-2.1,1.4-3s1.3-1.5,1.9-1.9l0.3,1c-0.8,0.6-1.4,1.5-1.9,2.7
			c-0.5,1.2-0.8,2.5-0.8,4l0,0.7c0,2,0.4,3.8,1.1,5.2c0.4,0.9,1,1.6,1.6,2.1l-0.3,0.9c-0.7-0.4-1.4-1-2-1.9
			C1068.9,2424.5,1068.3,2422.4,1068.3,2420z"/>
		<path class="st4" d="M1083,2424.6c-0.1-0.2-0.2-0.5-0.2-0.9c-0.7,0.7-1.5,1-2.4,1c-0.8,0-1.5-0.2-2.1-0.7
			c-0.5-0.5-0.8-1.1-0.8-1.8c0-0.9,0.3-1.6,1-2.1c0.7-0.5,1.6-0.7,2.8-0.7h1.4v-0.7c0-0.5-0.2-0.9-0.5-1.2c-0.3-0.3-0.7-0.4-1.3-0.4
			c-0.5,0-0.9,0.1-1.3,0.4c-0.3,0.3-0.5,0.6-0.5,0.9h-1.5c0-0.4,0.1-0.8,0.4-1.2c0.3-0.4,0.7-0.7,1.2-0.9c0.5-0.2,1.1-0.3,1.7-0.3
			c1,0,1.7,0.2,2.3,0.7c0.6,0.5,0.8,1.2,0.9,2v3.9c0,0.8,0.1,1.4,0.3,1.9v0.1H1083z M1080.6,2423.5c0.5,0,0.9-0.1,1.3-0.4
			s0.7-0.5,0.9-0.9v-1.7h-1.1c-1.8,0-2.7,0.5-2.7,1.6c0,0.5,0.2,0.8,0.5,1.1C1079.7,2423.3,1080.1,2423.5,1080.6,2423.5z"/>
		<path class="st4" d="M1090.6,2417.4c-0.2,0-0.5-0.1-0.7-0.1c-0.9,0-1.6,0.4-1.9,1.2v6h-1.4v-8.5h1.4l0,1c0.5-0.8,1.1-1.1,2-1.1
			c0.3,0,0.5,0,0.6,0.1V2417.4z"/>
		<path class="st4" d="M1091.6,2420.3c0-1.3,0.3-2.4,0.9-3.1s1.4-1.2,2.4-1.2c1,0,1.8,0.4,2.4,1.1l0.1-0.9h1.3v8.2
			c0,1.1-0.3,2-1,2.6s-1.5,0.9-2.6,0.9c-0.6,0-1.2-0.1-1.8-0.4c-0.6-0.3-1-0.6-1.3-1.1l0.8-0.9c0.6,0.8,1.4,1.1,2.3,1.1
			c0.7,0,1.3-0.2,1.6-0.6c0.4-0.4,0.6-1,0.6-1.7v-0.7c-0.6,0.7-1.4,1-2.4,1c-1,0-1.8-0.4-2.4-1.2
			C1091.9,2422.7,1091.6,2421.7,1091.6,2420.3z M1093,2420.4c0,1,0.2,1.7,0.6,2.2s0.9,0.8,1.6,0.8c0.9,0,1.6-0.4,2-1.2v-3.9
			c-0.4-0.8-1.1-1.2-2-1.2c-0.7,0-1.3,0.3-1.6,0.8C1093.2,2418.6,1093,2419.4,1093,2420.4z"/>
		<path class="st4" d="M1106.4,2424.6h-1.4v-12h1.4V2424.6z"/>
		<path class="st4" d="M1108.7,2413.9c0-0.2,0.1-0.4,0.2-0.6c0.1-0.2,0.4-0.2,0.6-0.2s0.5,0.1,0.6,0.2c0.1,0.2,0.2,0.4,0.2,0.6
			s-0.1,0.4-0.2,0.6c-0.1,0.2-0.4,0.2-0.6,0.2s-0.5-0.1-0.6-0.2C1108.8,2414.3,1108.7,2414.1,1108.7,2413.9z M1110.3,2424.6h-1.4
			v-8.5h1.4V2424.6z"/>
		<path class="st4" d="M1117.5,2422.3c0-0.4-0.1-0.7-0.4-0.9c-0.3-0.2-0.8-0.4-1.5-0.6c-0.7-0.2-1.3-0.3-1.7-0.6s-0.7-0.5-1-0.8
			c-0.2-0.3-0.3-0.7-0.3-1.1c0-0.7,0.3-1.3,0.9-1.8s1.3-0.7,2.2-0.7c1,0,1.7,0.2,2.3,0.7c0.6,0.5,0.9,1.1,0.9,1.9h-1.5
			c0-0.4-0.2-0.7-0.5-1s-0.8-0.4-1.3-0.4c-0.5,0-0.9,0.1-1.2,0.3s-0.4,0.5-0.4,0.9c0,0.3,0.1,0.6,0.4,0.8c0.3,0.2,0.8,0.3,1.5,0.5
			c0.7,0.2,1.3,0.4,1.8,0.6c0.4,0.2,0.8,0.5,1,0.8c0.2,0.3,0.3,0.7,0.3,1.2c0,0.8-0.3,1.4-0.9,1.8c-0.6,0.5-1.4,0.7-2.4,0.7
			c-0.7,0-1.3-0.1-1.8-0.4c-0.5-0.2-0.9-0.6-1.2-1c-0.3-0.4-0.4-0.9-0.4-1.4h1.4c0,0.5,0.2,0.9,0.6,1.2c0.4,0.3,0.8,0.4,1.4,0.4
			c0.5,0,1-0.1,1.3-0.3C1117.4,2423,1117.5,2422.7,1117.5,2422.3z"/>
		<path class="st4" d="M1122.8,2414.1v2h1.6v1.1h-1.6v5.2c0,0.3,0.1,0.6,0.2,0.8c0.1,0.2,0.4,0.3,0.7,0.3c0.2,0,0.4,0,0.7-0.1v1.2
			c-0.4,0.1-0.8,0.2-1.1,0.2c-0.6,0-1.1-0.2-1.5-0.6s-0.5-0.9-0.5-1.7v-5.2h-1.5v-1.1h1.5v-2H1122.8z"/>
		<path class="st4" d="M1133.4,2420c0,1.2-0.2,2.3-0.5,3.3s-0.8,2-1.4,2.9c-0.6,0.9-1.3,1.5-2,1.9l-0.3-0.9c0.8-0.6,1.4-1.6,1.9-2.9
			c0.5-1.3,0.7-2.7,0.7-4.3v-0.2c0-1.1-0.1-2.1-0.3-3.1c-0.2-0.9-0.5-1.8-1-2.5c-0.4-0.7-0.9-1.3-1.4-1.7l0.3-0.9
			c0.7,0.4,1.3,1,2,1.9c0.6,0.9,1.1,1.9,1.4,2.9C1133.2,2417.7,1133.4,2418.8,1133.4,2420z"/>
		<path class="st4" d="M1139.5,2423.8c0-0.2,0.1-0.5,0.2-0.6s0.4-0.2,0.7-0.2s0.5,0.1,0.7,0.2c0.2,0.2,0.2,0.4,0.2,0.6
			c0,0.2-0.1,0.4-0.2,0.6c-0.2,0.2-0.4,0.2-0.7,0.2s-0.5-0.1-0.7-0.2S1139.5,2424.1,1139.5,2423.8z M1139.5,2416.9
			c0-0.2,0.1-0.5,0.2-0.6s0.4-0.2,0.7-0.2s0.5,0.1,0.7,0.2c0.2,0.2,0.2,0.4,0.2,0.6c0,0.2-0.1,0.4-0.2,0.6c-0.2,0.2-0.4,0.2-0.7,0.2
			s-0.5-0.1-0.7-0.2S1139.5,2417.2,1139.5,2416.9z"/>
		<path class="st4" d="M1151.5,2417.4c-0.2,0-0.5-0.1-0.7-0.1c-0.9,0-1.6,0.4-1.9,1.2v6h-1.4v-8.5h1.4l0,1c0.5-0.8,1.1-1.1,2-1.1
			c0.3,0,0.5,0,0.6,0.1V2417.4z"/>
		<path class="st4" d="M1156.3,2424.7c-1.1,0-2.1-0.4-2.8-1.1s-1.1-1.8-1.1-3v-0.3c0-0.8,0.2-1.6,0.5-2.2s0.8-1.2,1.3-1.5
			c0.6-0.4,1.2-0.6,1.9-0.6c1.1,0,2,0.4,2.6,1.1s0.9,1.8,0.9,3.1v0.6h-5.7c0,0.8,0.3,1.5,0.7,2c0.5,0.5,1.1,0.8,1.8,0.8
			c0.5,0,0.9-0.1,1.3-0.3c0.4-0.2,0.7-0.5,0.9-0.8l0.9,0.7C1158.8,2424.2,1157.7,2424.7,1156.3,2424.7z M1156.1,2417.2
			c-0.6,0-1.1,0.2-1.5,0.6c-0.4,0.4-0.6,1-0.7,1.8h4.2v-0.1c0-0.7-0.2-1.3-0.6-1.7C1157.2,2417.4,1156.7,2417.2,1156.1,2417.2z"/>
		<path class="st4" d="M1163.2,2414.1v2h1.6v1.1h-1.6v5.2c0,0.3,0.1,0.6,0.2,0.8c0.1,0.2,0.4,0.3,0.7,0.3c0.2,0,0.4,0,0.7-0.1v1.2
			c-0.4,0.1-0.8,0.2-1.1,0.2c-0.6,0-1.1-0.2-1.5-0.6s-0.5-0.9-0.5-1.7v-5.2h-1.5v-1.1h1.5v-2H1163.2z"/>
		<path class="st4" d="M1171.7,2423.7c-0.6,0.7-1.4,1-2.5,1c-0.9,0-1.6-0.3-2.1-0.8c-0.5-0.5-0.7-1.3-0.7-2.3v-5.5h1.4v5.5
			c0,1.3,0.5,1.9,1.6,1.9c1.1,0,1.8-0.4,2.2-1.2v-6.1h1.4v8.5h-1.4L1171.7,2423.7z"/>
		<path class="st4" d="M1179.4,2417.4c-0.2,0-0.5-0.1-0.7-0.1c-0.9,0-1.6,0.4-1.9,1.2v6h-1.4v-8.5h1.4l0,1c0.5-0.8,1.1-1.1,2-1.1
			c0.3,0,0.5,0,0.6,0.1V2417.4z"/>
		<path class="st4" d="M1182.1,2416.1l0,1.1c0.6-0.8,1.5-1.2,2.5-1.2c1.8,0,2.7,1,2.7,3v5.6h-1.4v-5.6c0-0.6-0.1-1.1-0.4-1.4
			s-0.7-0.4-1.3-0.4c-0.5,0-0.9,0.1-1.2,0.4c-0.4,0.2-0.6,0.6-0.8,1v6h-1.4v-8.5H1182.1z"/>
	</g>
	<g class="st3">
		<path class="st4" d="M973.2,2438.5h3.2v1.4h-3.2v3.6h-1.5v-3.6h-3.2v-1.4h3.2v-3.3h1.5V2438.5z"/>
		<path class="st4" d="M991.1,2439.3c0,1.1-0.2,2.1-0.6,2.9s-0.9,1.5-1.6,1.9s-1.5,0.7-2.4,0.7c-0.9,0-1.7-0.2-2.4-0.7
			c-0.7-0.4-1.2-1.1-1.6-1.9s-0.6-1.8-0.6-2.8v-0.8c0-1.1,0.2-2.1,0.6-2.9c0.4-0.8,0.9-1.5,1.6-1.9s1.5-0.7,2.4-0.7
			c0.9,0,1.7,0.2,2.4,0.7s1.2,1.1,1.6,1.9s0.6,1.8,0.6,2.9V2439.3z M989.6,2438.5c0-1.3-0.3-2.4-0.8-3.1c-0.5-0.7-1.3-1.1-2.3-1.1
			c-0.9,0-1.7,0.4-2.2,1.1c-0.5,0.7-0.8,1.7-0.8,3v0.8c0,1.3,0.3,2.3,0.8,3.1c0.5,0.7,1.3,1.1,2.3,1.1c1,0,1.7-0.4,2.2-1.1
			s0.8-1.7,0.8-3V2438.5z"/>
		<path class="st4" d="M1000.3,2440.4c0,1.3-0.3,2.3-0.9,3.1c-0.6,0.8-1.4,1.2-2.4,1.2c-1,0-1.8-0.3-2.4-1v4.1h-1.4v-11.7h1.3
			l0.1,0.9c0.6-0.7,1.4-1.1,2.5-1.1c1,0,1.8,0.4,2.4,1.1c0.6,0.8,0.9,1.8,0.9,3.2V2440.4z M998.8,2440.3c0-1-0.2-1.7-0.6-2.3
			s-1-0.8-1.7-0.8c-0.9,0-1.5,0.4-2,1.2v4c0.4,0.8,1.1,1.2,2,1.2c0.7,0,1.2-0.3,1.7-0.8C998.6,2442.2,998.8,2441.4,998.8,2440.3z"/>
		<path class="st4" d="M1005.6,2444.7c-1.1,0-2.1-0.4-2.8-1.1s-1.1-1.8-1.1-3v-0.3c0-0.8,0.2-1.6,0.5-2.2s0.8-1.2,1.3-1.5
			c0.6-0.4,1.2-0.6,1.9-0.6c1.1,0,2,0.4,2.6,1.1s0.9,1.8,0.9,3.1v0.6h-5.7c0,0.8,0.3,1.5,0.7,2c0.5,0.5,1.1,0.8,1.8,0.8
			c0.5,0,0.9-0.1,1.3-0.3c0.4-0.2,0.7-0.5,0.9-0.8l0.9,0.7C1008.1,2444.2,1007,2444.7,1005.6,2444.7z M1005.4,2437.2
			c-0.6,0-1.1,0.2-1.5,0.6c-0.4,0.4-0.6,1-0.7,1.8h4.2v-0.1c0-0.7-0.2-1.3-0.6-1.7C1006.5,2437.4,1006,2437.2,1005.4,2437.2z"/>
		<path class="st4" d="M1014.7,2437.4c-0.2,0-0.5-0.1-0.7-0.1c-0.9,0-1.6,0.4-1.9,1.2v6h-1.4v-8.5h1.4l0,1c0.5-0.8,1.1-1.1,2-1.1
			c0.3,0,0.5,0,0.6,0.1V2437.4z"/>
		<path class="st4" d="M1020.9,2444.6c-0.1-0.2-0.2-0.5-0.2-0.9c-0.7,0.7-1.5,1-2.4,1c-0.8,0-1.5-0.2-2.1-0.7
			c-0.5-0.5-0.8-1.1-0.8-1.8c0-0.9,0.3-1.6,1-2.1c0.7-0.5,1.6-0.7,2.8-0.7h1.4v-0.7c0-0.5-0.2-0.9-0.5-1.2c-0.3-0.3-0.7-0.4-1.3-0.4
			c-0.5,0-0.9,0.1-1.3,0.4c-0.3,0.3-0.5,0.6-0.5,0.9h-1.5c0-0.4,0.1-0.8,0.4-1.2c0.3-0.4,0.7-0.7,1.2-0.9c0.5-0.2,1.1-0.3,1.7-0.3
			c1,0,1.7,0.2,2.3,0.7c0.6,0.5,0.8,1.2,0.9,2v3.9c0,0.8,0.1,1.4,0.3,1.9v0.1H1020.9z M1018.5,2443.5c0.5,0,0.9-0.1,1.3-0.4
			s0.7-0.5,0.9-0.9v-1.7h-1.1c-1.8,0-2.7,0.5-2.7,1.6c0,0.5,0.2,0.8,0.5,1.1C1017.6,2443.3,1018,2443.5,1018.5,2443.5z"/>
		<path class="st4" d="M1026.3,2434.1v2h1.6v1.1h-1.6v5.2c0,0.3,0.1,0.6,0.2,0.8c0.1,0.2,0.4,0.3,0.7,0.3c0.2,0,0.4,0,0.7-0.1v1.2
			c-0.4,0.1-0.8,0.2-1.1,0.2c-0.6,0-1.1-0.2-1.5-0.6s-0.5-0.9-0.5-1.7v-5.2h-1.5v-1.1h1.5v-2H1026.3z"/>
		<path class="st4" d="M1029.6,2433.9c0-0.2,0.1-0.4,0.2-0.6c0.1-0.2,0.4-0.2,0.6-0.2s0.5,0.1,0.6,0.2c0.1,0.2,0.2,0.4,0.2,0.6
			s-0.1,0.4-0.2,0.6c-0.1,0.2-0.4,0.2-0.6,0.2s-0.5-0.1-0.6-0.2C1029.7,2434.3,1029.6,2434.1,1029.6,2433.9z M1031.2,2444.6h-1.4
			v-8.5h1.4V2444.6z"/>
		<path class="st4" d="M1033.1,2440.3c0-0.8,0.2-1.6,0.5-2.2c0.3-0.7,0.8-1.2,1.4-1.5c0.6-0.4,1.2-0.5,2-0.5c1.2,0,2.1,0.4,2.8,1.2
			s1.1,1.9,1.1,3.2v0.1c0,0.8-0.2,1.6-0.5,2.2c-0.3,0.7-0.8,1.2-1.4,1.5s-1.3,0.5-2,0.5c-1.1,0-2.1-0.4-2.8-1.2s-1.1-1.9-1.1-3.2
			V2440.3z M1034.6,2440.4c0,0.9,0.2,1.7,0.7,2.3c0.4,0.6,1,0.9,1.7,0.9c0.7,0,1.3-0.3,1.8-0.9c0.4-0.6,0.6-1.4,0.6-2.4
			c0-0.9-0.2-1.7-0.7-2.3c-0.4-0.6-1-0.9-1.8-0.9c-0.7,0-1.3,0.3-1.7,0.9S1034.6,2439.4,1034.6,2440.4z"/>
		<path class="st4" d="M1044,2436.1l0,1.1c0.6-0.8,1.5-1.2,2.5-1.2c1.8,0,2.7,1,2.7,3v5.6h-1.4v-5.6c0-0.6-0.1-1.1-0.4-1.4
			s-0.7-0.4-1.3-0.4c-0.5,0-0.9,0.1-1.2,0.4c-0.4,0.2-0.6,0.6-0.8,1v6h-1.4v-8.5H1044z"/>
		<path class="st4" d="M1061.4,2440.8h1.6v1.2h-1.6v2.6h-1.5v-2.6h-5.2v-0.9l5.1-7.9h1.5V2440.8z M1056.4,2440.8h3.5v-5.6l-0.2,0.3
			L1056.4,2440.8z"/>
		<path class="st4" d="M1068.3,2440c0-1.2,0.2-2.3,0.5-3.4c0.3-1.1,0.8-2.1,1.4-3s1.3-1.5,1.9-1.9l0.3,1c-0.8,0.6-1.4,1.5-1.9,2.7
			c-0.5,1.2-0.8,2.5-0.8,4l0,0.7c0,2,0.4,3.8,1.1,5.2c0.4,0.9,1,1.6,1.6,2.1l-0.3,0.9c-0.7-0.4-1.4-1-2-1.9
			C1068.9,2444.5,1068.3,2442.4,1068.3,2440z"/>
		<path class="st4" d="M1083,2444.6c-0.1-0.2-0.2-0.5-0.2-0.9c-0.7,0.7-1.5,1-2.4,1c-0.8,0-1.5-0.2-2.1-0.7
			c-0.5-0.5-0.8-1.1-0.8-1.8c0-0.9,0.3-1.6,1-2.1c0.7-0.5,1.6-0.7,2.8-0.7h1.4v-0.7c0-0.5-0.2-0.9-0.5-1.2c-0.3-0.3-0.7-0.4-1.3-0.4
			c-0.5,0-0.9,0.1-1.3,0.4c-0.3,0.3-0.5,0.6-0.5,0.9h-1.5c0-0.4,0.1-0.8,0.4-1.2c0.3-0.4,0.7-0.7,1.2-0.9c0.5-0.2,1.1-0.3,1.7-0.3
			c1,0,1.7,0.2,2.3,0.7c0.6,0.5,0.8,1.2,0.9,2v3.9c0,0.8,0.1,1.4,0.3,1.9v0.1H1083z M1080.6,2443.5c0.5,0,0.9-0.1,1.3-0.4
			s0.7-0.5,0.9-0.9v-1.7h-1.1c-1.8,0-2.7,0.5-2.7,1.6c0,0.5,0.2,0.8,0.5,1.1C1079.7,2443.3,1080.1,2443.5,1080.6,2443.5z"/>
		<path class="st4" d="M1090.6,2437.4c-0.2,0-0.5-0.1-0.7-0.1c-0.9,0-1.6,0.4-1.9,1.2v6h-1.4v-8.5h1.4l0,1c0.5-0.8,1.1-1.1,2-1.1
			c0.3,0,0.5,0,0.6,0.1V2437.4z"/>
		<path class="st4" d="M1091.6,2440.3c0-1.3,0.3-2.4,0.9-3.1s1.4-1.2,2.4-1.2c1,0,1.8,0.4,2.4,1.1l0.1-0.9h1.3v8.2
			c0,1.1-0.3,2-1,2.6s-1.5,0.9-2.6,0.9c-0.6,0-1.2-0.1-1.8-0.4c-0.6-0.3-1-0.6-1.3-1.1l0.8-0.9c0.6,0.8,1.4,1.1,2.3,1.1
			c0.7,0,1.3-0.2,1.6-0.6c0.4-0.4,0.6-1,0.6-1.7v-0.7c-0.6,0.7-1.4,1-2.4,1c-1,0-1.8-0.4-2.4-1.2
			C1091.9,2442.7,1091.6,2441.7,1091.6,2440.3z M1093,2440.4c0,1,0.2,1.7,0.6,2.2s0.9,0.8,1.6,0.8c0.9,0,1.6-0.4,2-1.2v-3.9
			c-0.4-0.8-1.1-1.2-2-1.2c-0.7,0-1.3,0.3-1.6,0.8C1093.2,2438.6,1093,2439.4,1093,2440.4z"/>
		<path class="st4" d="M1106.4,2444.6h-1.4v-12h1.4V2444.6z"/>
		<path class="st4" d="M1108.7,2433.9c0-0.2,0.1-0.4,0.2-0.6c0.1-0.2,0.4-0.2,0.6-0.2s0.5,0.1,0.6,0.2c0.1,0.2,0.2,0.4,0.2,0.6
			s-0.1,0.4-0.2,0.6c-0.1,0.2-0.4,0.2-0.6,0.2s-0.5-0.1-0.6-0.2C1108.8,2434.3,1108.7,2434.1,1108.7,2433.9z M1110.3,2444.6h-1.4
			v-8.5h1.4V2444.6z"/>
		<path class="st4" d="M1117.5,2442.3c0-0.4-0.1-0.7-0.4-0.9c-0.3-0.2-0.8-0.4-1.5-0.6c-0.7-0.2-1.3-0.3-1.7-0.6s-0.7-0.5-1-0.8
			c-0.2-0.3-0.3-0.7-0.3-1.1c0-0.7,0.3-1.3,0.9-1.8s1.3-0.7,2.2-0.7c1,0,1.7,0.2,2.3,0.7c0.6,0.5,0.9,1.1,0.9,1.9h-1.5
			c0-0.4-0.2-0.7-0.5-1s-0.8-0.4-1.3-0.4c-0.5,0-0.9,0.1-1.2,0.3s-0.4,0.5-0.4,0.9c0,0.3,0.1,0.6,0.4,0.8c0.3,0.2,0.8,0.3,1.5,0.5
			c0.7,0.2,1.3,0.4,1.8,0.6c0.4,0.2,0.8,0.5,1,0.8c0.2,0.3,0.3,0.7,0.3,1.2c0,0.8-0.3,1.4-0.9,1.8c-0.6,0.5-1.4,0.7-2.4,0.7
			c-0.7,0-1.3-0.1-1.8-0.4c-0.5-0.2-0.9-0.6-1.2-1c-0.3-0.4-0.4-0.9-0.4-1.4h1.4c0,0.5,0.2,0.9,0.6,1.2c0.4,0.3,0.8,0.4,1.4,0.4
			c0.5,0,1-0.1,1.3-0.3C1117.4,2443,1117.5,2442.7,1117.5,2442.3z"/>
		<path class="st4" d="M1122.8,2434.1v2h1.6v1.1h-1.6v5.2c0,0.3,0.1,0.6,0.2,0.8c0.1,0.2,0.4,0.3,0.7,0.3c0.2,0,0.4,0,0.7-0.1v1.2
			c-0.4,0.1-0.8,0.2-1.1,0.2c-0.6,0-1.1-0.2-1.5-0.6s-0.5-0.9-0.5-1.7v-5.2h-1.5v-1.1h1.5v-2H1122.8z"/>
		<path class="st4" d="M1133.4,2440c0,1.2-0.2,2.3-0.5,3.3s-0.8,2-1.4,2.9c-0.6,0.9-1.3,1.5-2,1.9l-0.3-0.9c0.8-0.6,1.4-1.6,1.9-2.9
			c0.5-1.3,0.7-2.7,0.7-4.3v-0.2c0-1.1-0.1-2.1-0.3-3.1c-0.2-0.9-0.5-1.8-1-2.5c-0.4-0.7-0.9-1.3-1.4-1.7l0.3-0.9
			c0.7,0.4,1.3,1,2,1.9c0.6,0.9,1.1,1.9,1.4,2.9C1133.2,2437.7,1133.4,2438.8,1133.4,2440z"/>
		<path class="st4" d="M1139.5,2443.8c0-0.2,0.1-0.5,0.2-0.6s0.4-0.2,0.7-0.2s0.5,0.1,0.7,0.2c0.2,0.2,0.2,0.4,0.2,0.6
			c0,0.2-0.1,0.4-0.2,0.6c-0.2,0.2-0.4,0.2-0.7,0.2s-0.5-0.1-0.7-0.2S1139.5,2444.1,1139.5,2443.8z M1139.5,2436.9
			c0-0.2,0.1-0.5,0.2-0.6s0.4-0.2,0.7-0.2s0.5,0.1,0.7,0.2c0.2,0.2,0.2,0.4,0.2,0.6c0,0.2-0.1,0.4-0.2,0.6c-0.2,0.2-0.4,0.2-0.7,0.2
			s-0.5-0.1-0.7-0.2S1139.5,2437.2,1139.5,2436.9z"/>
		<path class="st4" d="M1151.5,2437.4c-0.2,0-0.5-0.1-0.7-0.1c-0.9,0-1.6,0.4-1.9,1.2v6h-1.4v-8.5h1.4l0,1c0.5-0.8,1.1-1.1,2-1.1
			c0.3,0,0.5,0,0.6,0.1V2437.4z"/>
		<path class="st4" d="M1156.3,2444.7c-1.1,0-2.1-0.4-2.8-1.1s-1.1-1.8-1.1-3v-0.3c0-0.8,0.2-1.6,0.5-2.2s0.8-1.2,1.3-1.5
			c0.6-0.4,1.2-0.6,1.9-0.6c1.1,0,2,0.4,2.6,1.1s0.9,1.8,0.9,3.1v0.6h-5.7c0,0.8,0.3,1.5,0.7,2c0.5,0.5,1.1,0.8,1.8,0.8
			c0.5,0,0.9-0.1,1.3-0.3c0.4-0.2,0.7-0.5,0.9-0.8l0.9,0.7C1158.8,2444.2,1157.7,2444.7,1156.3,2444.7z M1156.1,2437.2
			c-0.6,0-1.1,0.2-1.5,0.6c-0.4,0.4-0.6,1-0.7,1.8h4.2v-0.1c0-0.7-0.2-1.3-0.6-1.7C1157.2,2437.4,1156.7,2437.2,1156.1,2437.2z"/>
		<path class="st4" d="M1163.2,2434.1v2h1.6v1.1h-1.6v5.2c0,0.3,0.1,0.6,0.2,0.8c0.1,0.2,0.4,0.3,0.7,0.3c0.2,0,0.4,0,0.7-0.1v1.2
			c-0.4,0.1-0.8,0.2-1.1,0.2c-0.6,0-1.1-0.2-1.5-0.6s-0.5-0.9-0.5-1.7v-5.2h-1.5v-1.1h1.5v-2H1163.2z"/>
		<path class="st4" d="M1171.7,2443.7c-0.6,0.7-1.4,1-2.5,1c-0.9,0-1.6-0.3-2.1-0.8c-0.5-0.5-0.7-1.3-0.7-2.3v-5.5h1.4v5.5
			c0,1.3,0.5,1.9,1.6,1.9c1.1,0,1.8-0.4,2.2-1.2v-6.1h1.4v8.5h-1.4L1171.7,2443.7z"/>
		<path class="st4" d="M1179.4,2437.4c-0.2,0-0.5-0.1-0.7-0.1c-0.9,0-1.6,0.4-1.9,1.2v6h-1.4v-8.5h1.4l0,1c0.5-0.8,1.1-1.1,2-1.1
			c0.3,0,0.5,0,0.6,0.1V2437.4z"/>
		<path class="st4" d="M1182.1,2436.1l0,1.1c0.6-0.8,1.5-1.2,2.5-1.2c1.8,0,2.7,1,2.7,3v5.6h-1.4v-5.6c0-0.6-0.1-1.1-0.4-1.4
			s-0.7-0.4-1.3-0.4c-0.5,0-0.9,0.1-1.2,0.4c-0.4,0.2-0.6,0.6-0.8,1v6h-1.4v-8.5H1182.1z"/>
	</g>
</g>
</svg>
