<svg xmlns="http://www.w3.org/2000/svg" width="338" height="249.359" viewBox="0 0 338 249.359">
  <g id="Grupo_106840" data-name="Grupo 106840" transform="translate(-665 -6016.647)">
    <g id="Trazado_218528" data-name="Trazado 218528" transform="translate(864 6125.006)" fill="#4dd0e1">
      <path d="M 132 46 L 7 46 C 3.691581726074219 46 1 43.30841827392578 1 40 L 1 7 C 1 3.691581726074219 3.691581726074219 1 7 1 L 132 1 C 135.3084106445312 1 138 3.691581726074219 138 7 L 138 40 C 138 43.30841827392578 135.3084106445312 46 132 46 Z" stroke="none"/>
      <path d="M 7 2 C 4.242996215820312 2 2 4.243000030517578 2 7 L 2 40 C 2 42.75699996948242 4.242996215820312 45 7 45 L 132 45 C 134.7570037841797 45 137 42.75699996948242 137 40 L 137 7 C 137 4.243000030517578 134.7570037841797 2 132 2 L 7 2 M 7 0 L 132 0 C 135.8659973144531 0 139 3.133998870849609 139 7 L 139 40 C 139 43.86600112915039 135.8659973144531 47 132 47 L 7 47 C 3.134002685546875 47 0 43.86600112915039 0 40 L 0 7 C 0 3.133998870849609 3.134002685546875 0 7 0 Z" stroke="none" fill="#fff"/>
    </g>
    <g id="Trazado_218529" data-name="Trazado 218529" transform="translate(665 6218.006)" fill="#039be5">
      <path d="M 132 46 L 7 46 C 3.691581726074219 46 1 43.30841827392578 1 40 L 1 7 C 1 3.691581726074219 3.691581726074219 1 7 1 L 132 1 C 135.3084106445312 1 138 3.691581726074219 138 7 L 138 40 C 138 43.30841827392578 135.3084106445312 46 132 46 Z" stroke="none"/>
      <path d="M 7 2 C 4.242996215820312 2 2 4.243000030517578 2 7 L 2 40 C 2 42.75699996948242 4.242996215820312 45 7 45 L 132 45 C 134.7570037841797 45 137 42.75699996948242 137 40 L 137 7 C 137 4.243000030517578 134.7570037841797 2 132 2 L 7 2 M 7 0 L 132 0 C 135.8659973144531 0 139 3.133998870849609 139 7 L 139 40 C 139 43.86600112915039 135.8659973144531 47 132 47 L 7 47 C 3.134002685546875 47 0 43.86600112915039 0 40 L 0 7 C 0 3.133998870849609 3.134002685546875 0 7 0 Z" stroke="none" fill="#fff"/>
    </g>
    <g id="Trazado_218530" data-name="Trazado 218530" transform="translate(864 6219.006)" fill="#ffca28">
      <path d="M 132 46 L 7 46 C 3.691581726074219 46 1 43.30841827392578 1 40 L 1 7 C 1 3.691581726074219 3.691581726074219 1 7 1 L 132 1 C 135.3084106445312 1 138 3.691581726074219 138 7 L 138 40 C 138 43.30841827392578 135.3084106445312 46 132 46 Z" stroke="none"/>
      <path d="M 7 2 C 4.242996215820312 2 2 4.243000030517578 2 7 L 2 40 C 2 42.75699996948242 4.242996215820312 45 7 45 L 132 45 C 134.7570037841797 45 137 42.75699996948242 137 40 L 137 7 C 137 4.243000030517578 134.7570037841797 2 132 2 L 7 2 M 7 0 L 132 0 C 135.8659973144531 0 139 3.133998870849609 139 7 L 139 40 C 139 43.86600112915039 135.8659973144531 47 132 47 L 7 47 C 3.134002685546875 47 0 43.86600112915039 0 40 L 0 7 C 0 3.133998870849609 3.134002685546875 0 7 0 Z" stroke="none" fill="#fff"/>
    </g>
    <path id="Trazado_218531" data-name="Trazado 218531" d="M27.344,13.211A4.025,4.025,0,0,1,25.988,16.1a4.76,4.76,0,0,1-3.223,1.055,4.28,4.28,0,0,1-3.441-1.473,6.038,6.038,0,0,1-1.254-4.043v-.7a6.819,6.819,0,0,1,.578-2.891A4.332,4.332,0,0,1,20.3,6.137a4.629,4.629,0,0,1,2.5-.668,4.637,4.637,0,0,1,3.172,1.055,4.326,4.326,0,0,1,1.391,2.961H25.016a2.376,2.376,0,0,0-.613-1.6,2.271,2.271,0,0,0-1.605-.5,1.991,1.991,0,0,0-1.754.84,4.707,4.707,0,0,0-.6,2.605V11.7a5.038,5.038,0,0,0,.559,2.7,1.954,1.954,0,0,0,1.762.852,2.314,2.314,0,0,0,1.621-.5A2.241,2.241,0,0,0,25,13.211Zm1.039-.516a5.013,5.013,0,0,1,.484-2.242A3.546,3.546,0,0,1,30.262,8.93a4.069,4.069,0,0,1,2.113-.539,3.849,3.849,0,0,1,2.793,1.047,4.2,4.2,0,0,1,1.207,2.844l.016.578A4.418,4.418,0,0,1,35.3,15.98a3.775,3.775,0,0,1-2.914,1.176,3.793,3.793,0,0,1-2.918-1.172,4.5,4.5,0,0,1-1.09-3.187Zm2.258.16a3.16,3.16,0,0,0,.453,1.843,1.628,1.628,0,0,0,2.578.008,3.457,3.457,0,0,0,.461-2.015,3.128,3.128,0,0,0-.461-1.831,1.5,1.5,0,0,0-1.3-.649,1.474,1.474,0,0,0-1.281.646A3.516,3.516,0,0,0,30.641,12.856Zm9.219-4.309.07.977a2.951,2.951,0,0,1,2.43-1.133,2.453,2.453,0,0,1,2,.789,3.682,3.682,0,0,1,.672,2.359V17H42.773V11.594a1.465,1.465,0,0,0-.312-1.043,1.4,1.4,0,0,0-1.039-.324,1.553,1.553,0,0,0-1.43.813V17H37.734V8.547Zm9.586-2.078V8.547h1.445V10.2H49.445v4.219a1.007,1.007,0,0,0,.18.672.9.9,0,0,0,.688.2,3.6,3.6,0,0,0,.664-.055v1.711a4.648,4.648,0,0,1-1.367.2,2.156,2.156,0,0,1-2.422-2.4V10.2H45.953V8.547h1.234V6.469Zm7.453,4.2a6.134,6.134,0,0,0-.812-.062,1.654,1.654,0,0,0-1.68.867V17H52.148V8.547h2.133l.063,1.008a2.092,2.092,0,0,1,1.883-1.164,2.366,2.366,0,0,1,.7.1Zm.453,2.031a5.013,5.013,0,0,1,.484-2.242A3.546,3.546,0,0,1,59.23,8.93a4.069,4.069,0,0,1,2.113-.539,3.849,3.849,0,0,1,2.793,1.047,4.2,4.2,0,0,1,1.207,2.844l.016.578a4.418,4.418,0,0,1-1.086,3.121,4.209,4.209,0,0,1-5.832,0,4.5,4.5,0,0,1-1.09-3.187Zm2.258.16a3.16,3.16,0,0,0,.453,1.843,1.628,1.628,0,0,0,2.578.008,3.457,3.457,0,0,0,.461-2.015,3.128,3.128,0,0,0-.461-1.831,1.5,1.5,0,0,0-1.3-.649,1.474,1.474,0,0,0-1.281.646A3.516,3.516,0,0,0,59.609,12.856ZM69.133,17H66.867V5h2.266Zm6.758,0a2.507,2.507,0,0,1-.227-.758,2.732,2.732,0,0,1-2.133.914,3,3,0,0,1-2.059-.719,2.312,2.312,0,0,1-.816-1.812,2.389,2.389,0,0,1,1-2.062,4.915,4.915,0,0,1,2.879-.727H75.57v-.484a1.393,1.393,0,0,0-.3-.937,1.183,1.183,0,0,0-.949-.352,1.345,1.345,0,0,0-.895.273.929.929,0,0,0-.324.75H70.844A2.268,2.268,0,0,1,71.3,9.727a3,3,0,0,1,1.281-.98,4.669,4.669,0,0,1,1.859-.355,3.689,3.689,0,0,1,2.48.785,2.747,2.747,0,0,1,.918,2.207v3.664a4.041,4.041,0,0,0,.336,1.82V17Zm-1.867-1.57a1.945,1.945,0,0,0,.922-.223,1.462,1.462,0,0,0,.625-.6V13.156h-.844q-1.7,0-1.8,1.172l-.008.133a.9.9,0,0,0,.3.7A1.153,1.153,0,0,0,74.023,15.43Zm5.2-2.719a5.094,5.094,0,0,1,.887-3.148,2.877,2.877,0,0,1,2.426-1.172,2.589,2.589,0,0,1,2.039.922V5h2.266V17H84.8l-.109-.9a2.657,2.657,0,0,1-2.172,1.055,2.869,2.869,0,0,1-2.395-1.176A5.258,5.258,0,0,1,79.219,12.711Zm2.258.168a3.337,3.337,0,0,0,.414,1.823,1.349,1.349,0,0,0,1.2.634,1.511,1.511,0,0,0,1.477-.884V11.111a1.489,1.489,0,0,0-1.461-.884Q81.477,10.227,81.477,12.879Zm6.758-.184a5.013,5.013,0,0,1,.484-2.242A3.546,3.546,0,0,1,90.113,8.93a4.069,4.069,0,0,1,2.113-.539A3.849,3.849,0,0,1,95.02,9.438a4.2,4.2,0,0,1,1.207,2.844l.016.578a4.418,4.418,0,0,1-1.086,3.121,4.209,4.209,0,0,1-5.832,0,4.5,4.5,0,0,1-1.09-3.187Zm2.258.16a3.16,3.16,0,0,0,.453,1.843,1.628,1.628,0,0,0,2.578.008,3.457,3.457,0,0,0,.461-2.015,3.128,3.128,0,0,0-.461-1.831,1.5,1.5,0,0,0-1.3-.649,1.474,1.474,0,0,0-1.281.646A3.516,3.516,0,0,0,90.492,12.856Zm11.891-2.192a6.134,6.134,0,0,0-.812-.062,1.654,1.654,0,0,0-1.68.867V17H97.633V8.547h2.133l.063,1.008a2.092,2.092,0,0,1,1.883-1.164,2.366,2.366,0,0,1,.7.1Z" transform="translate(874 6138.75)" fill="#12263f"/>
    <path id="Trazado_218532" data-name="Trazado 218532" d="M31.762,14.18,34.34,5.625h2.609L32.988,17H30.543L26.6,5.625h2.6ZM40.254,17H37.988V8.547h2.266Zm-2.4-10.641a1.112,1.112,0,0,1,.34-.836,1.465,1.465,0,0,1,1.848,0,1.105,1.105,0,0,1,.344.836,1.108,1.108,0,0,1-.348.844,1.448,1.448,0,0,1-1.836,0A1.108,1.108,0,0,1,37.855,6.359Zm8.836,8.3a.727.727,0,0,0-.41-.652,4.659,4.659,0,0,0-1.316-.426q-3.016-.633-3.016-2.562a2.323,2.323,0,0,1,.934-1.879,3.766,3.766,0,0,1,2.441-.754,4.053,4.053,0,0,1,2.574.758,2.388,2.388,0,0,1,.965,1.969H46.605a1.092,1.092,0,0,0-.312-.8A1.322,1.322,0,0,0,45.316,10a1.351,1.351,0,0,0-.883.258.814.814,0,0,0-.312.656.7.7,0,0,0,.355.605,3.657,3.657,0,0,0,1.2.4A9.8,9.8,0,0,1,47.1,12.3a2.336,2.336,0,0,1,1.789,2.273,2.2,2.2,0,0,1-.992,1.871,4.28,4.28,0,0,1-2.562.715,4.47,4.47,0,0,1-1.887-.379,3.166,3.166,0,0,1-1.293-1.039,2.414,2.414,0,0,1-.469-1.426h2.141a1.179,1.179,0,0,0,.445.922,1.766,1.766,0,0,0,1.109.32,1.635,1.635,0,0,0,.98-.246A.766.766,0,0,0,46.691,14.664Zm6.352-8.2V8.547h1.445V10.2H53.043v4.219a1.007,1.007,0,0,0,.18.672.9.9,0,0,0,.688.2,3.6,3.6,0,0,0,.664-.055v1.711a4.648,4.648,0,0,1-1.367.2,2.156,2.156,0,0,1-2.422-2.4V10.2H49.551V8.547h1.234V6.469ZM60.645,17a2.507,2.507,0,0,1-.227-.758,2.732,2.732,0,0,1-2.133.914,3,3,0,0,1-2.059-.719,2.312,2.312,0,0,1-.816-1.812,2.389,2.389,0,0,1,1-2.062,4.915,4.915,0,0,1,2.879-.727h1.039v-.484a1.393,1.393,0,0,0-.3-.937,1.183,1.183,0,0,0-.949-.352,1.345,1.345,0,0,0-.895.273.929.929,0,0,0-.324.75H55.6a2.268,2.268,0,0,1,.453-1.359,3,3,0,0,1,1.281-.98,4.669,4.669,0,0,1,1.859-.355,3.689,3.689,0,0,1,2.48.785,2.747,2.747,0,0,1,.918,2.207v3.664a4.041,4.041,0,0,0,.336,1.82V17Zm-1.867-1.57a1.945,1.945,0,0,0,.922-.223,1.462,1.462,0,0,0,.625-.6V13.156H59.48q-1.7,0-1.8,1.172l-.008.133a.9.9,0,0,0,.3.7A1.153,1.153,0,0,0,58.777,15.43Z" transform="translate(690 6232.006)" fill="#fff"/>
    <path id="Trazado_218533" data-name="Trazado 218533" d="M22.07,5.625l2.922,8.25L27.9,5.625h3.078V17H28.625V13.891l.234-5.367L25.789,17H24.18L21.117,8.531l.234,5.359V17H19.008V5.625ZM32.523,12.7a5.013,5.013,0,0,1,.484-2.242A3.546,3.546,0,0,1,34.4,8.93a4.069,4.069,0,0,1,2.113-.539,3.849,3.849,0,0,1,2.793,1.047,4.2,4.2,0,0,1,1.207,2.844l.016.578a4.418,4.418,0,0,1-1.086,3.121,4.209,4.209,0,0,1-5.832,0,4.5,4.5,0,0,1-1.09-3.187Zm2.258.16a3.16,3.16,0,0,0,.453,1.843,1.628,1.628,0,0,0,2.578.008,3.457,3.457,0,0,0,.461-2.015,3.128,3.128,0,0,0-.461-1.831,1.5,1.5,0,0,0-1.3-.649,1.474,1.474,0,0,0-1.281.646A3.516,3.516,0,0,0,34.781,12.856Zm6.789-.145a5.094,5.094,0,0,1,.887-3.148,2.877,2.877,0,0,1,2.426-1.172,2.589,2.589,0,0,1,2.039.922V5h2.266V17H47.148l-.109-.9a2.657,2.657,0,0,1-2.172,1.055,2.869,2.869,0,0,1-2.395-1.176A5.258,5.258,0,0,1,41.57,12.711Zm2.258.168a3.337,3.337,0,0,0,.414,1.823,1.349,1.349,0,0,0,1.2.634,1.511,1.511,0,0,0,1.477-.884V11.111a1.489,1.489,0,0,0-1.461-.884Q43.828,10.227,43.828,12.879Zm11,4.277A4.15,4.15,0,0,1,51.8,16.016a4.054,4.054,0,0,1-1.168-3.039v-.219a5.106,5.106,0,0,1,.492-2.277A3.612,3.612,0,0,1,52.52,8.934a3.914,3.914,0,0,1,2.059-.543,3.508,3.508,0,0,1,2.73,1.094,4.444,4.444,0,0,1,1,3.1v.922H52.922a2.1,2.1,0,0,0,.66,1.328,2,2,0,0,0,1.395.5,2.437,2.437,0,0,0,2.039-.945l1.109,1.242a3.389,3.389,0,0,1-1.375,1.121A4.511,4.511,0,0,1,54.828,17.156Zm-.258-6.945a1.411,1.411,0,0,0-1.09.455,2.357,2.357,0,0,0-.535,1.3h3.141v-.181a1.681,1.681,0,0,0-.406-1.165A1.456,1.456,0,0,0,54.57,10.211ZM61.969,17H59.7V5h2.266Zm1.508-4.3a5.013,5.013,0,0,1,.484-2.242A3.546,3.546,0,0,1,65.355,8.93a4.069,4.069,0,0,1,2.113-.539,3.849,3.849,0,0,1,2.793,1.047,4.2,4.2,0,0,1,1.207,2.844l.016.578A4.418,4.418,0,0,1,70.4,15.98a4.209,4.209,0,0,1-5.832,0,4.5,4.5,0,0,1-1.09-3.187Zm2.258.16a3.16,3.16,0,0,0,.453,1.843,1.628,1.628,0,0,0,2.578.008,3.457,3.457,0,0,0,.461-2.015,3.128,3.128,0,0,0-.461-1.831,1.5,1.5,0,0,0-1.3-.649,1.474,1.474,0,0,0-1.281.646A3.516,3.516,0,0,0,65.734,12.856Z" transform="translate(889 6233.006)" fill="#12263f"/>
    <g id="Grupo_97073" data-name="Grupo 97073" transform="translate(54.127 1527.881)">
      <g id="Grupo_97051" data-name="Grupo 97051" transform="translate(155.983 4349.75)">
        <path id="Trazado_213030" data-name="Trazado 213030" d="M606.486,249.264a20.153,20.153,0,0,1-1.4,6.986,17.112,17.112,0,0,1-7.338,7.993c-.466.266-1.042.333-1.425.764-1.423.1-2.734.707-4.161.854a16.8,16.8,0,0,1-7.143-.7c.129-.178.324-.138.505-.161a2.171,2.171,0,0,0,1.951-1.891,2.227,2.227,0,0,0-.687-2.576,23.262,23.262,0,0,1-4.1-3.612,14.94,14.94,0,0,1-2.867-4.606,18.763,18.763,0,0,1-1.137-6.64c-.076-3.336-.016-6.675-.021-10.013,0-1.18-.472-1.715-1.612-1.812-.378-.032-.6-.158-.633-.55a7.528,7.528,0,0,1,5.62-2.133c5.187-.025,10.375,0,15.563-.012a16.813,16.813,0,0,1,2.136.132,7.757,7.757,0,0,1,6.588,7.109c.1,3.306.051,6.616.07,9.924A2.237,2.237,0,0,0,606.486,249.264Z" transform="translate(-61.541 -77.488)" fill="#feead1"/>
        <path id="Trazado_213031" data-name="Trazado 213031" d="M604.216,191.6a2.238,2.238,0,0,1-.092-.94c-.019-3.308.029-6.618-.069-9.924a7.757,7.757,0,0,0-6.588-7.109,16.812,16.812,0,0,0-2.136-.132c-5.188.007-10.375-.013-15.563.012a7.528,7.528,0,0,0-5.62,2.133l-.229.1a.321.321,0,0,1-.157-.463c.353-.79.669-1.6,1.06-2.368a17.789,17.789,0,0,1,4-5.309,18.548,18.548,0,0,1,8.434-4.406,26.276,26.276,0,0,1,10.367-.176c-.168.587.238.58.624.618a17.011,17.011,0,0,1,8.742,3.228,17.207,17.207,0,0,1,3.887,4.044.8.8,0,0,1-.043,1.169,9.957,9.957,0,0,0-2.451,6.782c.011,2.726,0,5.452,0,8.177C608.384,189.867,607.025,191.352,604.216,191.6Z" transform="translate(-59.271 -19.828)" fill="#12263f"/>
        <path id="Trazado_213032" data-name="Trazado 213032" d="M564.1,143.2a26.276,26.276,0,0,0-10.367.176,18.548,18.548,0,0,0-8.434,4.406,17.789,17.789,0,0,0-4,5.309c-.391.77-.707,1.579-1.06,2.368a.321.321,0,0,0,.157.463,8.183,8.183,0,0,0-2.316,5.483c0,1.664,0,3.327-.01,4.99a9.283,9.283,0,0,1-.123,2.365,1.674,1.674,0,0,0-.811.588,1.458,1.458,0,0,1-1.678.267c-.392-.138-.787-.259-1.186-.372a2.319,2.319,0,0,1-.361-1.355c.045-3.493-.228-7,.146-10.476.629-5.856,2.841-10.93,7.669-14.585a19.059,19.059,0,0,1,9.672-3.648,28.818,28.818,0,0,1,14.409,2.24c.289.121.755.14.717.605-.032.392-.451.4-.727.513C565.242,142.773,564.67,142.979,564.1,143.2Z" transform="translate(-25.752)" fill="#162e4d"/>
        <path id="Trazado_213033" data-name="Trazado 213033" d="M551.375,473.614a9.1,9.1,0,0,0,2.4,2.171,7.781,7.781,0,0,0,3.585.881A12.209,12.209,0,0,1,569.363,489.1q0,2.859,0,5.719c0,1.6-.309,1.909-1.891,1.908q-20.372,0-40.743-.009c-1.694,0-3.387-.02-5.081-.03l.784-.282,42.183,0c.132,0,.265-.005.4,0,.554.024.529-.292.267-.573a2.512,2.512,0,0,1-.563-1.994,12.744,12.744,0,0,0-.562-4.448,11.908,11.908,0,0,0-3.805-5.527,11.115,11.115,0,0,0-3.95-2.218,16.824,16.824,0,0,0-4.51-.7c-2.682-.081-4.69-2.475-3.141-5.148a.274.274,0,0,0-.125-.4A25.636,25.636,0,0,0,551.375,473.614Z" transform="translate(-15.48 -281.383)" fill="#47c0cf"/>
        <path id="Trazado_213034" data-name="Trazado 213034" d="M559.554,257.591a9.281,9.281,0,0,0,.123-2.365c.015-1.663.007-3.327.01-4.99A8.183,8.183,0,0,1,562,244.753l.229-.1c.03.392.254.518.633.55,1.139.1,1.61.632,1.612,1.812.005,3.338-.054,6.677.021,10.013a18.762,18.762,0,0,0,1.137,6.64,14.938,14.938,0,0,0,2.867,4.606,23.262,23.262,0,0,0,4.1,3.612,2.227,2.227,0,0,1,.687,2.576,2.171,2.171,0,0,1-1.951,1.891c-.181.024-.376-.017-.505.161a2.177,2.177,0,0,1-.376-.1c-.583-.277-.825-.108-.739.536a10.783,10.783,0,0,1-.149,1.95.359.359,0,0,1-.172.321c-.387-.614.049-1.224.04-1.84a1.718,1.718,0,0,0-1.147-1.756,14.3,14.3,0,0,1-3.822-2.852,19.533,19.533,0,0,1-3.079-4.138,5.432,5.432,0,0,1-.881-2.5c0-.5-.454-.732-.532-1.206-.237-1.432-.281-2.878-.431-4.316A15.319,15.319,0,0,0,559.554,257.591Z" transform="translate(-47.354 -88.833)" fill="#fdf2e2"/>
        <path id="Trazado_213035" data-name="Trazado 213035" d="M506.951,496.409l-.784.282c-2.611.139-3.008.1-2.916-2.672.059-1.773.01-3.549.011-5.324a12.2,12.2,0,0,1,9.874-11.81,17.144,17.144,0,0,1,2.6-.279,6.527,6.527,0,0,0,5.281-2.766,2.113,2.113,0,0,1,.225-.222l2.729,1.9a2.624,2.624,0,0,0,.077.542c.869,2.409-.1,4.22-2.621,4.788-1.484.334-3.028.151-4.527.578a12.106,12.106,0,0,0-5.956,3.676,11.3,11.3,0,0,0-3.032,8.489A3.537,3.537,0,0,1,506.951,496.409Z" transform="translate(0 -281.387)" fill="#78e7f6"/>
        <path id="Trazado_213036" data-name="Trazado 213036" d="M619.157,462.375l-2.729-1.9.187-.565a.3.3,0,0,0,.3-.337l.323-.949a.359.359,0,0,0,.171-.321,9.219,9.219,0,0,1,1.246.423,9.577,9.577,0,0,0,3.968.845,17.988,17.988,0,0,0,5.55-.558,2.939,2.939,0,0,0,1.941-1.023,8.777,8.777,0,0,0,.972,2.484,25.69,25.69,0,0,1-2.753,1.785c-.175.055-.351.106-.524.167a12.137,12.137,0,0,1-5.268.677C621.371,462.995,620.307,462.5,619.157,462.375Z" transform="translate(-95.187 -268.248)" fill="#fddbb8"/>
        <path id="Trazado_213037" data-name="Trazado 213037" d="M635.276,445.824a2.939,2.939,0,0,1-1.941,1.023,17.987,17.987,0,0,1-5.55.558,9.577,9.577,0,0,1-3.969-.845,9.216,9.216,0,0,0-1.246-.423,10.766,10.766,0,0,0,.149-1.951c-.086-.645.156-.813.739-.536a2.179,2.179,0,0,0,.376.1,16.8,16.8,0,0,0,7.143.7c1.427-.147,2.738-.756,4.161-.854C635.033,444.348,635.311,445.077,635.276,445.824Z" transform="translate(-100.353 -256.077)" fill="#fdd6a7"/>
        <path id="Trazado_213038" data-name="Trazado 213038" d="M540.15,326.024a15.314,15.314,0,0,1-.006,3.011,3.875,3.875,0,0,1-3.67-2.529c.4.113.794.234,1.186.372a1.458,1.458,0,0,0,1.678-.267A1.674,1.674,0,0,1,540.15,326.024Z" transform="translate(-27.95 -157.266)" fill="#484851"/>
        <path id="Trazado_213039" data-name="Trazado 213039" d="M617.892,467.949a.3.3,0,0,1-.3.337A.283.283,0,0,1,617.892,467.949Z" transform="translate(-96.169 -276.619)" fill="#fdf2e2"/>
        <path id="Trazado_213040" data-name="Trazado 213040" d="M543.6,484.949c1.151.129,2.215.619,3.381.732a12.137,12.137,0,0,0,5.268-.677c.173-.061.349-.111.524-.167a.274.274,0,0,1,.125.4c-1.55,2.673.459,5.067,3.141,5.148a16.826,16.826,0,0,1,4.51.7,11.117,11.117,0,0,1,3.95,2.218,11.908,11.908,0,0,1,3.805,5.527,12.743,12.743,0,0,1,.562,4.448,2.513,2.513,0,0,0,.563,1.994c.262.28.288.6-.267.573-.132-.006-.265,0-.4,0l-42.183,0a3.537,3.537,0,0,0,.96-2.822,11.3,11.3,0,0,1,3.032-8.489,12.107,12.107,0,0,1,5.956-3.676c1.5-.427,3.043-.244,4.527-.578,2.525-.569,3.489-2.379,2.621-4.788A2.63,2.63,0,0,1,543.6,484.949Zm15.922,15.792c-.662,0-1.326-.024-1.987.006a1.23,1.23,0,0,0-1.249,1.187,1.17,1.17,0,0,0,1.106,1.38,20.766,20.766,0,0,0,4.28.009,1.213,1.213,0,0,0,1.148-1.361,1.278,1.278,0,0,0-1.313-1.217C560.843,500.722,560.18,500.741,559.518,500.741Z" transform="translate(-19.627 -290.822)" fill="#4dd0e1"/>
        <path id="Trazado_213041" data-name="Trazado 213041" d="M716.564,584.787c.662,0,1.325-.019,1.987,0a1.278,1.278,0,0,1,1.313,1.217,1.213,1.213,0,0,1-1.148,1.361,20.771,20.771,0,0,1-4.28-.009,1.17,1.17,0,0,1-1.106-1.38,1.23,1.23,0,0,1,1.249-1.187C715.239,584.763,715.9,584.787,716.564,584.787Z" transform="translate(-176.673 -374.868)" fill="#fdf7f7"/>
      </g>
    </g>
    <g id="Grupo_97074" data-name="Grupo 97074" transform="translate(1573.68 10773.139) rotate(180)">
      <path id="Sustracción_17" data-name="Sustracción 17" d="M7.458,13.482a2.117,2.117,0,0,1-1.825-1.055L.284,3.161A2.106,2.106,0,1,1,3.932,1.055L5.482,3.74c-.017-.319-.038-.659-.065-1.038l.9,1.8,3.867-.4.437-2.41.367-.636a2.106,2.106,0,1,1,3.648,2.106L9.281,12.428A2.108,2.108,0,0,1,7.458,13.482Z" transform="translate(827.551 4660.184)" fill="#4dd0e1" stroke="rgba(0,0,0,0)" stroke-miterlimit="10" stroke-width="1"/>
      <rect id="Rectángulo_42341" data-name="Rectángulo 42341" width="4" height="105.925" transform="translate(833 4561)" fill="#4dd0e1"/>
    </g>
    <g id="Grupo_97080" data-name="Grupo 97080" transform="translate(-3769.051 5157.263) rotate(-68)">
      <path id="Sustracción_17-2" data-name="Sustracción 17" d="M7.458,13.482a2.117,2.117,0,0,1-1.825-1.055L.284,3.161A2.106,2.106,0,1,1,3.932,1.055L5.482,3.74c-.017-.319-.038-.659-.065-1.038l.9,1.8,3.867-.4.437-2.41.367-.636a2.106,2.106,0,1,1,3.648,2.106L9.281,12.428A2.108,2.108,0,0,1,7.458,13.482Z" transform="translate(827.551 4637.153)" fill="#4dd0e1" stroke="rgba(0,0,0,0)" stroke-miterlimit="10" stroke-width="1"/>
      <rect id="Rectángulo_42341-2" data-name="Rectángulo 42341" width="4" height="82.893" transform="translate(833 4561)" fill="#4dd0e1"/>
    </g>
    <g id="Grupo_97081" data-name="Grupo 97081" transform="matrix(-0.485, -0.875, 0.875, -0.485, 800.536, 6218.19)">
      <path id="Sustracción_17-3" data-name="Sustracción 17" d="M7.458,0A2.117,2.117,0,0,0,5.633,1.055L.284,10.321a2.106,2.106,0,1,0,3.648,2.106L5.482,9.742c-.017.319-.038.659-.065,1.038l.9-1.8,3.867.4.437,2.41.367.636a2.106,2.106,0,1,0,3.648-2.106L9.281,1.055A2.108,2.108,0,0,0,7.458,0Z" transform="translate(0 0)" fill="#4dd0e1" stroke="rgba(0,0,0,0)" stroke-miterlimit="10" stroke-width="1"/>
      <rect id="Rectángulo_42341-3" data-name="Rectángulo 42341" width="4" height="70.2" transform="translate(5.449 6.742)" fill="#4dd0e1"/>
    </g>
    <g id="Grupo_97078" data-name="Grupo 97078" transform="translate(70.868 6.982)">
      <g id="Grupo_97076" data-name="Grupo 97076" transform="translate(836.964 6205.157) rotate(180)">
        <path id="Sustracción_17-4" data-name="Sustracción 17" d="M7.458,13.482a2.117,2.117,0,0,1-1.825-1.055L.284,3.161A2.106,2.106,0,1,1,3.932,1.055L5.482,3.74c-.017-.319-.038-.659-.065-1.038l.9,1.8,3.867-.4.437-2.41.367-.636a2.106,2.106,0,1,1,3.648,2.106L9.281,12.428A2.108,2.108,0,0,1,7.458,13.482Z" transform="translate(0 20.787)" fill="#4dd0e1" stroke="rgba(0,0,0,0)" stroke-miterlimit="10" stroke-width="1"/>
        <rect id="Rectángulo_42341-4" data-name="Rectángulo 42341" width="4" height="30.436" transform="translate(5.449)" fill="#4dd0e1"/>
      </g>
      <g id="Grupo_97077" data-name="Grupo 97077" transform="translate(803.133 6173.024)">
        <path id="Sustracción_17-5" data-name="Sustracción 17" d="M7.459,13.482a2.117,2.117,0,0,1-1.825-1.055L.284,3.161A2.106,2.106,0,1,1,3.932,1.055L5.482,3.74c-.017-.319-.038-.659-.065-1.038l.9,1.8,3.867-.4.437-2.41.367-.636a2.106,2.106,0,1,1,3.648,2.106L9.281,12.428A2.108,2.108,0,0,1,7.459,13.482Z" transform="translate(0 18.65)" fill="#4dd0e1" stroke="rgba(0,0,0,0)" stroke-miterlimit="10" stroke-width="1"/>
        <rect id="Rectángulo_42341-5" data-name="Rectángulo 42341" width="4" height="30.436" transform="translate(5.449)" fill="#4dd0e1"/>
      </g>
    </g>
    <path id="Trazado_218534" data-name="Trazado 218534" d="M2.468,11.1V15H1.155V5.047H4.826a3.688,3.688,0,0,1,2.56.834,2.827,2.827,0,0,1,.926,2.208,2.79,2.79,0,0,1-.906,2.232,3.853,3.853,0,0,1-2.594.783Zm0-1.073H4.826a2.358,2.358,0,0,0,1.613-.5A1.815,1.815,0,0,0,7,8.1a1.876,1.876,0,0,0-.561-1.424A2.209,2.209,0,0,0,4.9,6.12H2.468Zm10.391,5.106a3.232,3.232,0,0,1-2.447-.988,3.666,3.666,0,0,1-.943-2.642v-.232a4.438,4.438,0,0,1,.42-1.965,3.28,3.28,0,0,1,1.176-1.354A2.956,2.956,0,0,1,12.7,7.467a2.77,2.77,0,0,1,2.242.95,4.114,4.114,0,0,1,.8,2.721v.526H10.732a2.629,2.629,0,0,0,.639,1.767,2.009,2.009,0,0,0,1.555.673,2.2,2.2,0,0,0,1.135-.273,2.851,2.851,0,0,0,.813-.725l.772.6A3.106,3.106,0,0,1,12.858,15.137ZM12.7,8.506a1.687,1.687,0,0,0-1.285.557,2.708,2.708,0,0,0-.643,1.562h3.705v-.1a2.409,2.409,0,0,0-.52-1.494A1.588,1.588,0,0,0,12.7,8.506Zm6.221-2.693V7.6H20.3v.978H18.922v4.593a1.027,1.027,0,0,0,.185.667.777.777,0,0,0,.629.222,3.062,3.062,0,0,0,.6-.082V15a3.688,3.688,0,0,1-.971.136,1.575,1.575,0,0,1-1.278-.513,2.2,2.2,0,0,1-.431-1.456V8.581H16.311V7.6h1.347V5.813ZM23.153,15H21.889V7.6h1.265ZM21.786,5.642a.755.755,0,0,1,.188-.52.706.706,0,0,1,.557-.212.717.717,0,0,1,.561.212.747.747,0,0,1,.191.52.722.722,0,0,1-.191.513.73.73,0,0,1-.561.205.718.718,0,0,1-.557-.205A.73.73,0,0,1,21.786,5.642ZM28.144,14.1a1.822,1.822,0,0,0,1.183-.41,1.443,1.443,0,0,0,.561-1.025h1.2a2.293,2.293,0,0,1-.437,1.21,2.881,2.881,0,0,1-1.077.916,3.107,3.107,0,0,1-1.425.342,3.047,3.047,0,0,1-2.4-1.008,4.016,4.016,0,0,1-.892-2.758v-.212a4.453,4.453,0,0,1,.4-1.921,3.02,3.02,0,0,1,1.138-1.306,3.233,3.233,0,0,1,1.753-.465,2.966,2.966,0,0,1,2.068.745,2.663,2.663,0,0,1,.878,1.935h-1.2a1.743,1.743,0,0,0-.543-1.179,1.691,1.691,0,0,0-1.207-.461,1.77,1.77,0,0,0-1.494.694,3.259,3.259,0,0,0-.53,2.006v.239a3.194,3.194,0,0,0,.526,1.969A1.779,1.779,0,0,0,28.144,14.1Zm5.735.9H32.614V7.6h1.265ZM32.512,5.642a.755.755,0,0,1,.188-.52.706.706,0,0,1,.557-.212.717.717,0,0,1,.561.212.747.747,0,0,1,.191.52.722.722,0,0,1-.191.513.73.73,0,0,1-.561.205.718.718,0,0,1-.557-.205A.73.73,0,0,1,32.512,5.642Zm3.056,5.592a4.369,4.369,0,0,1,.427-1.955,3.187,3.187,0,0,1,1.189-1.34,3.238,3.238,0,0,1,1.74-.472,3.119,3.119,0,0,1,2.444,1.046,4.024,4.024,0,0,1,.933,2.782v.089a4.407,4.407,0,0,1-.414,1.938A3.14,3.14,0,0,1,40.7,14.658a3.275,3.275,0,0,1-1.767.479A3.111,3.111,0,0,1,36.5,14.091a4,4,0,0,1-.933-2.769Zm1.271.15a3.164,3.164,0,0,0,.571,1.976,1.934,1.934,0,0,0,3.059-.01,3.46,3.46,0,0,0,.567-2.116,3.159,3.159,0,0,0-.578-1.972,1.836,1.836,0,0,0-1.535-.755,1.816,1.816,0,0,0-1.511.745A3.435,3.435,0,0,0,36.839,11.384ZM39.5,4.5h1.531L39.2,6.51l-1.019,0Zm5.585,3.1.041.93a2.7,2.7,0,0,1,2.215-1.066q2.345,0,2.365,2.646V15H48.439V10.105a1.7,1.7,0,0,0-.366-1.183,1.466,1.466,0,0,0-1.118-.383,1.825,1.825,0,0,0-1.08.328,2.228,2.228,0,0,0-.725.861V15H43.887V7.6Z" transform="translate(781.189 6075.978)" fill="#12263f"/>
    <path id="Trazado_218535" data-name="Trazado 218535" d="M4.806,10.974H2.468V15H1.148V5.047H4.443a3.9,3.9,0,0,1,2.587.766,2.755,2.755,0,0,1,.906,2.229,2.68,2.68,0,0,1-.5,1.62,3,3,0,0,1-1.4,1.032l2.338,4.225V15H6.966ZM2.468,9.9H4.484A2.275,2.275,0,0,0,6.04,9.394a1.714,1.714,0,0,0,.578-1.356,1.8,1.8,0,0,0-.55-1.418,2.33,2.33,0,0,0-1.589-.5H2.468Zm10.179,5.236a3.232,3.232,0,0,1-2.447-.988,3.666,3.666,0,0,1-.943-2.642v-.232a4.438,4.438,0,0,1,.42-1.965,3.28,3.28,0,0,1,1.176-1.354,2.956,2.956,0,0,1,1.637-.489,2.77,2.77,0,0,1,2.242.95,4.114,4.114,0,0,1,.8,2.721v.526H10.521a2.629,2.629,0,0,0,.639,1.767,2.009,2.009,0,0,0,1.555.673,2.2,2.2,0,0,0,1.135-.273,2.851,2.851,0,0,0,.813-.725l.772.6A3.106,3.106,0,0,1,12.646,15.137Zm-.157-6.631a1.687,1.687,0,0,0-1.285.557,2.708,2.708,0,0,0-.643,1.562h3.705v-.1a2.409,2.409,0,0,0-.52-1.494A1.588,1.588,0,0,0,12.489,8.506ZM21.3,13.038a.931.931,0,0,0-.386-.8,3.718,3.718,0,0,0-1.347-.489,6.367,6.367,0,0,1-1.524-.492,2.169,2.169,0,0,1-.834-.684,1.635,1.635,0,0,1-.27-.943A1.919,1.919,0,0,1,17.708,8.1a3,3,0,0,1,1.965-.629,3.091,3.091,0,0,1,2.041.649A2.063,2.063,0,0,1,22.5,9.777H21.226a1.142,1.142,0,0,0-.441-.9,1.652,1.652,0,0,0-1.111-.376,1.729,1.729,0,0,0-1.08.3.947.947,0,0,0-.39.786.767.767,0,0,0,.362.69,4.458,4.458,0,0,0,1.309.444,6.821,6.821,0,0,1,1.535.506,2.239,2.239,0,0,1,.872.708,1.74,1.74,0,0,1,.284,1.008,1.893,1.893,0,0,1-.793,1.589,3.326,3.326,0,0,1-2.058.6,3.725,3.725,0,0,1-1.572-.314,2.557,2.557,0,0,1-1.07-.878,2.117,2.117,0,0,1-.386-1.22h1.265a1.309,1.309,0,0,0,.509,1.008,1.976,1.976,0,0,0,1.254.373,2.039,2.039,0,0,0,1.152-.291A.893.893,0,0,0,21.3,13.038Zm9.16-1.654a4.429,4.429,0,0,1-.772,2.721A2.476,2.476,0,0,1,27.6,15.137a2.713,2.713,0,0,1-2.119-.854v3.562H24.213V7.6h1.155l.062.82a2.605,2.605,0,0,1,2.146-.957,2.522,2.522,0,0,1,2.109,1,4.477,4.477,0,0,1,.776,2.8ZM29.2,11.24a3.268,3.268,0,0,0-.533-1.976A1.718,1.718,0,0,0,27.2,8.54a1.859,1.859,0,0,0-1.723,1.019v3.534A1.863,1.863,0,0,0,27.214,14.1a1.71,1.71,0,0,0,1.446-.721A3.567,3.567,0,0,0,29.2,11.24Zm7.438,3.028a2.686,2.686,0,0,1-2.167.868,2.3,2.3,0,0,1-1.8-.687,2.974,2.974,0,0,1-.625-2.034V7.6H33.3v4.778q0,1.682,1.367,1.682a1.893,1.893,0,0,0,1.928-1.08V7.6h1.265V15h-1.2Zm6.221.868a3.232,3.232,0,0,1-2.447-.988,3.666,3.666,0,0,1-.943-2.642v-.232a4.438,4.438,0,0,1,.42-1.965A3.28,3.28,0,0,1,41.06,7.956,2.956,2.956,0,0,1,42.7,7.467a2.77,2.77,0,0,1,2.242.95,4.114,4.114,0,0,1,.8,2.721v.526H40.729a2.629,2.629,0,0,0,.639,1.767,2.009,2.009,0,0,0,1.555.673,2.2,2.2,0,0,0,1.135-.273,2.851,2.851,0,0,0,.813-.725l.772.6A3.106,3.106,0,0,1,42.854,15.137ZM42.7,8.506a1.687,1.687,0,0,0-1.285.557,2.708,2.708,0,0,0-.643,1.562h3.705v-.1a2.409,2.409,0,0,0-.52-1.494A1.588,1.588,0,0,0,42.7,8.506Zm8.812,4.532a.931.931,0,0,0-.386-.8,3.718,3.718,0,0,0-1.347-.489,6.367,6.367,0,0,1-1.524-.492,2.169,2.169,0,0,1-.834-.684,1.635,1.635,0,0,1-.27-.943A1.919,1.919,0,0,1,47.917,8.1a3,3,0,0,1,1.965-.629,3.091,3.091,0,0,1,2.041.649,2.063,2.063,0,0,1,.783,1.661H51.434a1.142,1.142,0,0,0-.441-.9,1.652,1.652,0,0,0-1.111-.376,1.729,1.729,0,0,0-1.08.3.947.947,0,0,0-.39.786.767.767,0,0,0,.362.69,4.458,4.458,0,0,0,1.309.444,6.821,6.821,0,0,1,1.535.506,2.239,2.239,0,0,1,.872.708,1.74,1.74,0,0,1,.284,1.008,1.893,1.893,0,0,1-.793,1.589,3.326,3.326,0,0,1-2.058.6,3.725,3.725,0,0,1-1.572-.314,2.557,2.557,0,0,1-1.07-.878,2.117,2.117,0,0,1-.386-1.22h1.265a1.309,1.309,0,0,0,.509,1.008,1.976,1.976,0,0,0,1.254.373,2.039,2.039,0,0,0,1.152-.291A.893.893,0,0,0,51.509,13.038Zm4.628-7.226V7.6h1.381v.978H56.137v4.593a1.027,1.027,0,0,0,.185.667.777.777,0,0,0,.629.222,3.062,3.062,0,0,0,.6-.082V15a3.688,3.688,0,0,1-.971.136,1.575,1.575,0,0,1-1.278-.513,2.2,2.2,0,0,1-.431-1.456V8.581H53.525V7.6h1.347V5.813ZM63.561,15a2.657,2.657,0,0,1-.178-.779,2.822,2.822,0,0,1-2.105.916,2.611,2.611,0,0,1-1.794-.619,2,2,0,0,1-.7-1.569,2.091,2.091,0,0,1,.878-1.794,4.142,4.142,0,0,1,2.471-.639h1.23V9.935a1.42,1.42,0,0,0-.4-1.056A1.593,1.593,0,0,0,61.8,8.485a1.844,1.844,0,0,0-1.135.342,1.007,1.007,0,0,0-.458.827H58.933a1.745,1.745,0,0,1,.393-1.07,2.683,2.683,0,0,1,1.066-.817,3.588,3.588,0,0,1,1.48-.3,2.924,2.924,0,0,1,2,.639,2.306,2.306,0,0,1,.752,1.76v3.4a4.162,4.162,0,0,0,.26,1.62V15Zm-2.1-.964a2.223,2.223,0,0,0,1.128-.308,1.861,1.861,0,0,0,.772-.8V11.411h-.991q-2.324,0-2.324,1.36a1.151,1.151,0,0,0,.4.93A1.524,1.524,0,0,0,61.462,14.036Z" transform="translate(792.537 6158.506)" fill="#12263f"/>
    <path id="Trazado_218536" data-name="Trazado 218536" d="M8.477,11.842a3.662,3.662,0,0,1-1.166,2.437,3.82,3.82,0,0,1-2.608.858,3.507,3.507,0,0,1-2.827-1.265A5.088,5.088,0,0,1,.813,10.488V9.531a5.671,5.671,0,0,1,.5-2.44,3.7,3.7,0,0,1,1.4-1.617A3.911,3.911,0,0,1,4.819,4.91,3.6,3.6,0,0,1,7.362,5.8,3.706,3.706,0,0,1,8.477,8.246H7.157a2.86,2.86,0,0,0-.742-1.728,2.244,2.244,0,0,0-1.6-.535,2.348,2.348,0,0,0-1.972.93,4.272,4.272,0,0,0-.714,2.648v.965a4.391,4.391,0,0,0,.677,2.579,2.187,2.187,0,0,0,1.894.958,2.526,2.526,0,0,0,1.678-.5,2.75,2.75,0,0,0,.776-1.726Zm1.258-.608a4.369,4.369,0,0,1,.427-1.955,3.187,3.187,0,0,1,1.189-1.34,3.238,3.238,0,0,1,1.74-.472,3.119,3.119,0,0,1,2.444,1.046,4.024,4.024,0,0,1,.933,2.782v.089a4.407,4.407,0,0,1-.414,1.938,3.14,3.14,0,0,1-1.183,1.336,3.275,3.275,0,0,1-1.767.479,3.111,3.111,0,0,1-2.437-1.046,4,4,0,0,1-.933-2.769Zm1.271.15a3.164,3.164,0,0,0,.571,1.976,1.934,1.934,0,0,0,3.059-.01,3.46,3.46,0,0,0,.567-2.116,3.159,3.159,0,0,0-.578-1.972,1.836,1.836,0,0,0-1.535-.755,1.816,1.816,0,0,0-1.511.745A3.435,3.435,0,0,0,11.006,11.384ZM19.243,7.6l.034.82a2.732,2.732,0,0,1,2.194-.957,2.115,2.115,0,0,1,2.112,1.189,2.8,2.8,0,0,1,.96-.861,2.837,2.837,0,0,1,1.4-.328q2.434,0,2.475,2.577V15H27.152V10.119a1.7,1.7,0,0,0-.362-1.186,1.6,1.6,0,0,0-1.217-.393,1.677,1.677,0,0,0-1.169.42,1.706,1.706,0,0,0-.54,1.131V15H22.593V10.153A1.411,1.411,0,0,0,21.014,8.54a1.692,1.692,0,0,0-1.7,1.06V15H18.047V7.6Zm15.647,6.665a2.686,2.686,0,0,1-2.167.868,2.3,2.3,0,0,1-1.8-.687,2.974,2.974,0,0,1-.625-2.034V7.6h1.265v4.778q0,1.682,1.367,1.682a1.893,1.893,0,0,0,1.928-1.08V7.6h1.265V15h-1.2ZM39.238,7.6l.041.93a2.7,2.7,0,0,1,2.215-1.066q2.345,0,2.365,2.646V15H42.595V10.105a1.7,1.7,0,0,0-.366-1.183,1.466,1.466,0,0,0-1.118-.383,1.825,1.825,0,0,0-1.08.328,2.228,2.228,0,0,0-.725.861V15H38.042V7.6Zm7.9,7.4H45.876V7.6h1.265ZM45.773,5.642a.755.755,0,0,1,.188-.52.706.706,0,0,1,.557-.212.717.717,0,0,1,.561.212.747.747,0,0,1,.191.52.722.722,0,0,1-.191.513.73.73,0,0,1-.561.205.718.718,0,0,1-.557-.205A.73.73,0,0,1,45.773,5.642ZM52.131,14.1a1.822,1.822,0,0,0,1.183-.41,1.443,1.443,0,0,0,.561-1.025h1.2a2.293,2.293,0,0,1-.437,1.21,2.881,2.881,0,0,1-1.077.916,3.107,3.107,0,0,1-1.425.342,3.047,3.047,0,0,1-2.4-1.008,4.016,4.016,0,0,1-.892-2.758v-.212a4.453,4.453,0,0,1,.4-1.921,3.02,3.02,0,0,1,1.138-1.306,3.233,3.233,0,0,1,1.753-.465,2.966,2.966,0,0,1,2.068.745,2.663,2.663,0,0,1,.878,1.935h-1.2a1.743,1.743,0,0,0-.543-1.179,1.691,1.691,0,0,0-1.207-.461A1.77,1.77,0,0,0,50.63,9.2a3.259,3.259,0,0,0-.53,2.006v.239a3.194,3.194,0,0,0,.526,1.969A1.779,1.779,0,0,0,52.131,14.1Zm8.928.9a2.657,2.657,0,0,1-.178-.779,2.822,2.822,0,0,1-2.105.916,2.611,2.611,0,0,1-1.794-.619,2,2,0,0,1-.7-1.569,2.091,2.091,0,0,1,.878-1.794,4.142,4.142,0,0,1,2.471-.639h1.23V9.935a1.42,1.42,0,0,0-.4-1.056,1.593,1.593,0,0,0-1.169-.393,1.844,1.844,0,0,0-1.135.342,1.007,1.007,0,0,0-.458.827H56.431a1.745,1.745,0,0,1,.393-1.07,2.683,2.683,0,0,1,1.066-.817,3.588,3.588,0,0,1,1.48-.3,2.924,2.924,0,0,1,2,.639,2.306,2.306,0,0,1,.752,1.76v3.4a4.162,4.162,0,0,0,.26,1.62V15Zm-2.1-.964a2.223,2.223,0,0,0,1.128-.308,1.861,1.861,0,0,0,.772-.8V11.411h-.991q-2.324,0-2.324,1.36a1.151,1.151,0,0,0,.4.93A1.524,1.524,0,0,0,58.96,14.036Zm8.114.068a1.822,1.822,0,0,0,1.183-.41,1.443,1.443,0,0,0,.561-1.025h1.2a2.293,2.293,0,0,1-.437,1.21,2.882,2.882,0,0,1-1.077.916,3.107,3.107,0,0,1-1.425.342,3.047,3.047,0,0,1-2.4-1.008,4.016,4.016,0,0,1-.892-2.758v-.212a4.453,4.453,0,0,1,.4-1.921,3.02,3.02,0,0,1,1.138-1.306,3.233,3.233,0,0,1,1.753-.465,2.966,2.966,0,0,1,2.068.745,2.663,2.663,0,0,1,.878,1.935h-1.2a1.743,1.743,0,0,0-.543-1.179,1.691,1.691,0,0,0-1.207-.461,1.77,1.77,0,0,0-1.494.694,3.259,3.259,0,0,0-.53,2.006v.239a3.194,3.194,0,0,0,.526,1.969A1.779,1.779,0,0,0,67.074,14.1Zm5.735.9H71.545V7.6H72.81ZM71.442,5.642a.755.755,0,0,1,.188-.52.706.706,0,0,1,.557-.212.717.717,0,0,1,.561.212.747.747,0,0,1,.191.52.722.722,0,0,1-.191.513.73.73,0,0,1-.561.205.718.718,0,0,1-.557-.205A.73.73,0,0,1,71.442,5.642ZM74.5,11.233a4.369,4.369,0,0,1,.427-1.955,3.187,3.187,0,0,1,1.189-1.34,3.238,3.238,0,0,1,1.74-.472A3.119,3.119,0,0,1,80.3,8.513a4.024,4.024,0,0,1,.933,2.782v.089a4.407,4.407,0,0,1-.414,1.938,3.14,3.14,0,0,1-1.183,1.336,3.275,3.275,0,0,1-1.767.479,3.111,3.111,0,0,1-2.437-1.046,4,4,0,0,1-.933-2.769Zm1.271.15a3.164,3.164,0,0,0,.571,1.976,1.934,1.934,0,0,0,3.059-.01,3.46,3.46,0,0,0,.567-2.116,3.159,3.159,0,0,0-.578-1.972,1.836,1.836,0,0,0-1.535-.755,1.816,1.816,0,0,0-1.511.745A3.435,3.435,0,0,0,75.77,11.384ZM78.429,4.5H79.96L78.128,6.51l-1.019,0Zm5.585,3.1.041.93A2.7,2.7,0,0,1,86.27,7.467q2.345,0,2.365,2.646V15H87.37V10.105A1.7,1.7,0,0,0,87,8.923a1.466,1.466,0,0,0-1.118-.383,1.825,1.825,0,0,0-1.08.328,2.228,2.228,0,0,0-.725.861V15H82.817V7.6ZM.649,29.24A4.333,4.333,0,0,1,1.456,26.5a2.551,2.551,0,0,1,2.112-1.036,2.565,2.565,0,0,1,2.058.889V22.5H6.891V33H5.729l-.062-.793a2.575,2.575,0,0,1-2.112.93,2.526,2.526,0,0,1-2.1-1.053,4.382,4.382,0,0,1-.81-2.748Zm1.265.144a3.281,3.281,0,0,0,.52,1.969,1.68,1.68,0,0,0,1.436.711,1.845,1.845,0,0,0,1.757-1.08v-3.4A1.859,1.859,0,0,0,3.883,26.54a1.687,1.687,0,0,0-1.449.718A3.612,3.612,0,0,0,1.914,29.384Zm10.008,3.753a3.232,3.232,0,0,1-2.447-.988,3.666,3.666,0,0,1-.943-2.642v-.232a4.438,4.438,0,0,1,.42-1.965,3.28,3.28,0,0,1,1.176-1.354,2.956,2.956,0,0,1,1.637-.489,2.77,2.77,0,0,1,2.242.95,4.114,4.114,0,0,1,.8,2.721v.526H9.8a2.629,2.629,0,0,0,.639,1.767,2.009,2.009,0,0,0,1.555.673,2.2,2.2,0,0,0,1.135-.273,2.851,2.851,0,0,0,.813-.725l.772.6A3.106,3.106,0,0,1,11.922,33.137Zm-.157-6.631a1.687,1.687,0,0,0-1.285.557,2.708,2.708,0,0,0-.643,1.562h3.705v-.1a2.409,2.409,0,0,0-.52-1.494A1.588,1.588,0,0,0,11.765,26.506Zm7.663,2.734a4.333,4.333,0,0,1,.807-2.738,2.745,2.745,0,0,1,4.17-.147V22.5h1.265V33H24.507l-.062-.793a2.575,2.575,0,0,1-2.112.93,2.526,2.526,0,0,1-2.1-1.053,4.382,4.382,0,0,1-.81-2.748Zm1.265.144a3.281,3.281,0,0,0,.52,1.969,1.68,1.68,0,0,0,1.436.711,1.845,1.845,0,0,0,1.757-1.08v-3.4a1.859,1.859,0,0,0-1.743-1.046,1.687,1.687,0,0,0-1.449.718A3.612,3.612,0,0,0,20.692,29.384ZM32.2,33a2.657,2.657,0,0,1-.178-.779,2.822,2.822,0,0,1-2.105.916,2.611,2.611,0,0,1-1.794-.619,2,2,0,0,1-.7-1.569,2.091,2.091,0,0,1,.878-1.794,4.141,4.141,0,0,1,2.471-.639H32v-.581a1.42,1.42,0,0,0-.4-1.056,1.593,1.593,0,0,0-1.169-.393,1.844,1.844,0,0,0-1.135.342,1.007,1.007,0,0,0-.458.827H27.569a1.745,1.745,0,0,1,.393-1.07,2.683,2.683,0,0,1,1.066-.817,3.588,3.588,0,0,1,1.48-.3,2.924,2.924,0,0,1,2,.639,2.306,2.306,0,0,1,.752,1.76v3.4a4.162,4.162,0,0,0,.26,1.62V33Zm-2.1-.964a2.223,2.223,0,0,0,1.128-.308,1.861,1.861,0,0,0,.772-.8V29.411h-.991q-2.324,0-2.324,1.36a1.151,1.151,0,0,0,.4.93A1.524,1.524,0,0,0,30.1,32.036Zm6.863-8.224V25.6h1.381v.978H36.962v4.593a1.027,1.027,0,0,0,.185.667.777.777,0,0,0,.629.222,3.062,3.062,0,0,0,.6-.082V33a3.688,3.688,0,0,1-.971.136,1.575,1.575,0,0,1-1.278-.513,2.2,2.2,0,0,1-.431-1.456V26.581H34.351V25.6H35.7V23.813Zm2.386,5.421a4.369,4.369,0,0,1,.427-1.955,3.187,3.187,0,0,1,1.189-1.34,3.238,3.238,0,0,1,1.74-.472,3.119,3.119,0,0,1,2.444,1.046,4.024,4.024,0,0,1,.933,2.782v.089a4.407,4.407,0,0,1-.414,1.938,3.14,3.14,0,0,1-1.183,1.336,3.275,3.275,0,0,1-1.767.479,3.111,3.111,0,0,1-2.437-1.046,4,4,0,0,1-.933-2.769Zm1.271.15a3.164,3.164,0,0,0,.571,1.976,1.934,1.934,0,0,0,3.059-.01,3.46,3.46,0,0,0,.567-2.116,3.159,3.159,0,0,0-.578-1.972,1.836,1.836,0,0,0-1.535-.755,1.816,1.816,0,0,0-1.511.745A3.434,3.434,0,0,0,40.619,29.384Zm11.354,1.654a.931.931,0,0,0-.386-.8,3.718,3.718,0,0,0-1.347-.489,6.367,6.367,0,0,1-1.524-.492,2.169,2.169,0,0,1-.834-.684,1.635,1.635,0,0,1-.27-.943,1.919,1.919,0,0,1,.769-1.538,3,3,0,0,1,1.965-.629,3.091,3.091,0,0,1,2.041.649,2.063,2.063,0,0,1,.783,1.661H51.9a1.142,1.142,0,0,0-.441-.9,1.652,1.652,0,0,0-1.111-.376,1.729,1.729,0,0,0-1.08.3.947.947,0,0,0-.39.786.767.767,0,0,0,.362.69,4.458,4.458,0,0,0,1.309.444,6.821,6.821,0,0,1,1.535.506,2.239,2.239,0,0,1,.872.708,1.74,1.74,0,0,1,.284,1.008,1.893,1.893,0,0,1-.793,1.589,3.326,3.326,0,0,1-2.058.6,3.725,3.725,0,0,1-1.572-.314,2.557,2.557,0,0,1-1.07-.878,2.117,2.117,0,0,1-.386-1.22h1.265a1.309,1.309,0,0,0,.509,1.008,1.976,1.976,0,0,0,1.254.373,2.039,2.039,0,0,0,1.152-.291A.893.893,0,0,0,51.974,31.038Z" transform="translate(914 6180.006)" fill="#12263f"/>
  </g>
</svg>
