<?xml version="1.0" encoding="utf-8"?>
<!-- Generator: Adobe Illustrator 25.4.2, SVG Export Plug-In . SVG Version: 6.00 Build 0)  -->
<svg version="1.1" id="Capa_1" xmlns="http://www.w3.org/2000/svg" xmlns:xlink="http://www.w3.org/1999/xlink" x="0px" y="0px"
	 viewBox="0 0 203 231" style="enable-background:new 0 0 203 231;" xml:space="preserve">
<style type="text/css">
	.st0{fill:#FFFFFF;}
	.st1{fill:none;stroke:#707070;}
	.st2{fill:none;stroke:#707070;stroke-width:2;stroke-dasharray:2;}
	.st3{fill:#12263F;}
	.st4{fill:#FFCA28;}
	.st5{fill:#4DD0E1;}
	.st6{enable-background:new    ;}
	.st7{fill:#1565C0;}
	.st8{fill:none;stroke:#12263F;stroke-width:2;}
</style>
<g id="Grupo_97091" transform="translate(-1119 -6544)">
	<g id="Rectángulo_42362" transform="translate(1119 6544)">
		<path class="st0" d="M20,0h163c11,0,20,9,20,20v191c0,11-9,20-20,20H20c-11,0-20-9-20-20V20C0,9,9,0,20,0z"/>
		<path class="st1" d="M20,0.5h163c10.8,0,19.5,8.7,19.5,19.5v191c0,10.8-8.7,19.5-19.5,19.5H20c-10.8,0-19.5-8.7-19.5-19.5V20
			C0.5,9.2,9.2,0.5,20,0.5z"/>
	</g>
	<g id="Rectángulo_42351" transform="translate(1138 6557)">
		<path class="st0" d="M15,0h137c8.3,0,15,6.7,15,15v28c0,8.3-6.7,15-15,15H15C6.7,58,0,51.3,0,43V15C0,6.7,6.7,0,15,0z"/>
		<path class="st2" d="M15,1h137c7.7,0,14,6.3,14,14v28c0,7.7-6.3,14-14,14H15C7.3,57,1,50.7,1,43V15C1,7.3,7.3,1,15,1z"/>
	</g>
	<g id="Rectángulo_42353" transform="translate(1138 6629)">
		<path class="st0" d="M15,0h137c8.3,0,15,6.7,15,15v28c0,8.3-6.7,15-15,15H15C6.7,58,0,51.3,0,43V15C0,6.7,6.7,0,15,0z"/>
		<path class="st2" d="M15,1h137c7.7,0,14,6.3,14,14v28c0,7.7-6.3,14-14,14H15C7.3,57,1,50.7,1,43V15C1,7.3,7.3,1,15,1z"/>
	</g>
	<g id="Rectángulo_42354" transform="translate(1138 6701)">
		<path class="st0" d="M15,0h137c8.3,0,15,6.7,15,15v28c0,8.3-6.7,15-15,15H15C6.7,58,0,51.3,0,43V15C0,6.7,6.7,0,15,0z"/>
		<path class="st2" d="M15,1h137c7.7,0,14,6.3,14,14v28c0,7.7-6.3,14-14,14H15C7.3,57,1,50.7,1,43V15C1,7.3,7.3,1,15,1z"/>
	</g>
	<g id="Grupo_97084" transform="translate(1151.809 6562.544)">
		<path id="Trazado_213098" class="st3" d="M0,36.1c0-7.4,3.3-12.4,10-15.3c-2.3-1.7-3.7-4.5-3.5-7.4c0.1-2.3,1.1-4.4,2.8-5.9
			C12.7,4.5,18,4.7,21.2,8c3.3,3.5,3.1,8.9-0.3,12.2c-0.2,0.2-0.5,0.4-0.8,0.6c1,0.6,2.1,1.1,3.1,1.7c0.3,0.1,0.5,0.3,0.8,0.5
			c0.6,0.7,1.1,0.6,1.9,0c1.7-1.4,3.7-2.4,5.8-3c-3.8-2.7-5.6-6.3-5-11c0.4-2.7,1.7-5.1,3.9-6.7C35-1.2,41.5-0.7,45.3,3.5
			c2.2,2.3,3.2,5.6,2.8,8.8c-0.4,3.2-2.3,6.1-5,7.8c0.3,0.1,0.5,0.2,0.6,0.3c2,0.7,3.9,1.7,5.7,3.1c0.2,0.2,0.6,0.2,0.8,0.2
			c1.5-0.9,3-1.9,4.5-2.8c-2.5-1.8-3.7-4.9-3.3-7.9c0.3-2.3,1.4-4.3,3.2-5.7c3.6-2.7,8.6-2.3,11.6,1.1c3.1,3.6,2.8,9-0.8,12.2
			c-0.2,0.2-0.4,0.3-0.5,0.4c6.6,2.9,10,7.9,10,15.2H56.6c0,0.4,0,0.7,0.1,1c0.3,1.8,0.1,3.6-0.5,5.3c-1.1,3-3.8,5-7,5
			c-2.1,0.1-4.3,0-6.5,0c-5.5,0-11.1,0-16.6,0c-3.8,0.2-7.2-2.5-8-6.2c-0.2-1.4-0.2-2.7-0.1-4.1c0-0.3,0-0.6,0.1-1H0z M37.4,45.1
			L37.4,45.1c3.9,0,7.8,0,11.8,0c2.8-0.1,5-2.3,5.2-5c0.2-2.5-0.2-5-1-7.4c-3-8.1-11.7-12.6-20-10.5c-7.7,2-13,9-12.8,16.9
			c0,3.7,2.3,6,6,6C30,45.1,33.7,45.1,37.4,45.1z M37.3,19.2c4.6,0,8.4-3.7,8.4-8.4c0,0,0-0.1,0-0.1c0-4.6-3.8-8.4-8.4-8.4
			c0,0,0,0,0,0c-4.7,0-8.4,3.8-8.4,8.4C28.9,15.5,32.7,19.2,37.3,19.2z M72.3,33.7c-0.5-4.8-3.6-8.9-8.2-10.5
			c-4.4-1.6-9.6-0.5-12.4,2.4c0.3,0.4,0.6,0.7,0.9,1.1c1.5,1.9,2.6,4,3.3,6.3c0.1,0.5,0.5,0.9,1,0.8c0,0,0,0,0,0c4.9,0,9.8,0,14.6,0
			L72.3,33.7z M2.4,33.7c0.3,0,0.4,0,0.6,0c5,0,10,0,15,0c0.5,0,0.7-0.2,0.8-0.6c0.7-2.4,1.9-4.7,3.5-6.6c0.3-0.3,0.5-0.7,0.8-1
			c-3.7-3.2-8.9-3.9-13.3-1.9C5.7,25.4,2.9,29.2,2.4,33.7L2.4,33.7z M66,13.9c0-3.4-2.8-6.1-6.1-6.1c-3.4,0-6.1,2.7-6.2,6.1
			c0,3.4,2.8,6.2,6.2,6.2C63.3,20,66,17.3,66,13.9L66,13.9z M21.1,14c0-3.4-2.7-6.2-6-6.2c-3.4,0-6.2,2.7-6.3,6.1
			c0,3.4,2.7,6.1,6.1,6.2C18.3,20.1,21.1,17.4,21.1,14L21.1,14z"/>
		<path id="Trazado_213099" class="st4" d="M37.4,45.1c-3.7,0-7.3,0-11,0c-3.7,0-6-2.3-6-6c-0.2-7.9,5.1-14.9,12.8-16.9
			c8.4-2.1,17,2.4,20,10.5c0.9,2.4,1.2,4.9,1,7.4c-0.2,2.7-2.4,4.9-5.2,5C45.2,45.2,41.3,45.1,37.4,45.1L37.4,45.1z"/>
		<path id="Trazado_213100" class="st4" d="M37.3,19.2c-4.7,0-8.4-3.8-8.4-8.4c0-4.7,3.8-8.4,8.4-8.4c4.6,0,8.4,3.7,8.5,8.4
			c0,0,0,0,0,0C45.8,15.4,42.1,19.2,37.3,19.2C37.4,19.2,37.4,19.2,37.3,19.2z"/>
		<path id="Trazado_213101" class="st5" d="M72.3,33.7h-0.8c-4.9,0-9.8,0-14.6,0c-0.5,0.1-1-0.2-1.1-0.7c0,0,0,0,0,0
			c-0.7-2.3-1.8-4.4-3.3-6.3c-0.3-0.4-0.6-0.7-0.9-1.1c2.9-2.9,8-4,12.4-2.4C68.7,24.8,71.9,28.9,72.3,33.7z"/>
		<path id="Trazado_213102" class="st5" d="M2.4,33.7c0.5-4.4,3.3-8.3,7.4-10.1c4.4-2,9.6-1.3,13.3,1.9c-0.3,0.3-0.5,0.7-0.8,1
			c-1.6,2-2.8,4.2-3.5,6.6c-0.1,0.4-0.3,0.6-0.8,0.6c-5,0-10,0-15,0C2.9,33.7,2.7,33.7,2.4,33.7z"/>
		<path id="Trazado_213103" class="st5" d="M66,13.9c0,3.4-2.7,6.1-6.1,6.2c-3.4,0-6.2-2.8-6.2-6.2c0.1-3.4,2.8-6.1,6.2-6.1
			C63.2,7.8,66,10.5,66,13.9z"/>
		<path id="Trazado_213104" class="st5" d="M21.1,14c-0.1,3.4-2.8,6.1-6.2,6.1c-3.4-0.1-6.1-2.8-6.1-6.2c0.1-3.4,2.9-6.1,6.3-6.1
			C18.5,7.8,21.2,10.6,21.1,14z"/>
	</g>
	<g class="st6">
		<path class="st3" d="M1241.2,6588v6.8c0,0.9-0.3,1.7-0.9,2.3c-0.6,0.6-1.4,0.9-2.4,1l-0.3,0c-1.1,0-2-0.3-2.6-0.9s-1-1.4-1-2.4
			v-6.8h1.3v6.7c0,0.7,0.2,1.3,0.6,1.7c0.4,0.4,1,0.6,1.7,0.6c0.7,0,1.3-0.2,1.7-0.6c0.4-0.4,0.6-1,0.6-1.7v-6.7H1241.2z"/>
		<path class="st3" d="M1247.3,6596c0-0.3-0.1-0.6-0.4-0.8c-0.3-0.2-0.7-0.4-1.3-0.5c-0.6-0.1-1.1-0.3-1.5-0.5
			c-0.4-0.2-0.7-0.4-0.8-0.7c-0.2-0.3-0.3-0.6-0.3-0.9c0-0.6,0.3-1.1,0.8-1.5c0.5-0.4,1.2-0.6,2-0.6c0.8,0,1.5,0.2,2,0.6
			c0.5,0.4,0.8,1,0.8,1.7h-1.3c0-0.3-0.1-0.6-0.4-0.9c-0.3-0.3-0.7-0.4-1.1-0.4c-0.5,0-0.8,0.1-1.1,0.3s-0.4,0.5-0.4,0.8
			c0,0.3,0.1,0.5,0.4,0.7s0.7,0.3,1.3,0.4c0.6,0.1,1.1,0.3,1.5,0.5s0.7,0.4,0.9,0.7c0.2,0.3,0.3,0.6,0.3,1c0,0.7-0.3,1.2-0.8,1.6
			c-0.5,0.4-1.2,0.6-2.1,0.6c-0.6,0-1.1-0.1-1.6-0.3s-0.8-0.5-1.1-0.9c-0.3-0.4-0.4-0.8-0.4-1.2h1.3c0,0.4,0.2,0.8,0.5,1
			c0.3,0.2,0.7,0.4,1.3,0.4c0.5,0,0.9-0.1,1.2-0.3C1247.2,6596.6,1247.3,6596.4,1247.3,6596z"/>
		<path class="st3" d="M1253.3,6598.1c-1,0-1.8-0.3-2.4-1c-0.6-0.7-0.9-1.5-0.9-2.6v-0.2c0-0.7,0.1-1.4,0.4-2c0.3-0.6,0.7-1,1.2-1.4
			c0.5-0.3,1-0.5,1.6-0.5c1,0,1.7,0.3,2.2,1s0.8,1.5,0.8,2.7v0.5h-5c0,0.7,0.2,1.3,0.6,1.8c0.4,0.4,0.9,0.7,1.6,0.7
			c0.4,0,0.8-0.1,1.1-0.3s0.6-0.4,0.8-0.7l0.8,0.6C1255.5,6597.7,1254.6,6598.1,1253.3,6598.1z M1253.2,6591.5
			c-0.5,0-0.9,0.2-1.3,0.6c-0.3,0.4-0.6,0.9-0.6,1.6h3.7v-0.1c0-0.6-0.2-1.1-0.5-1.5C1254.1,6591.7,1253.7,6591.5,1253.2,6591.5z"/>
		<path class="st3" d="M1261.2,6591.7c-0.2,0-0.4,0-0.6,0c-0.8,0-1.4,0.4-1.7,1.1v5.2h-1.3v-7.4h1.2l0,0.9c0.4-0.7,1-1,1.8-1
			c0.2,0,0.4,0,0.6,0.1V6591.7z"/>
		<path class="st3" d="M1266.7,6596c0-0.3-0.1-0.6-0.4-0.8c-0.3-0.2-0.7-0.4-1.3-0.5c-0.6-0.1-1.1-0.3-1.5-0.5
			c-0.4-0.2-0.7-0.4-0.8-0.7c-0.2-0.3-0.3-0.6-0.3-0.9c0-0.6,0.3-1.1,0.8-1.5c0.5-0.4,1.2-0.6,2-0.6c0.8,0,1.5,0.2,2,0.6
			c0.5,0.4,0.8,1,0.8,1.7h-1.3c0-0.3-0.1-0.6-0.4-0.9c-0.3-0.3-0.7-0.4-1.1-0.4c-0.5,0-0.8,0.1-1.1,0.3s-0.4,0.5-0.4,0.8
			c0,0.3,0.1,0.5,0.4,0.7s0.7,0.3,1.3,0.4c0.6,0.1,1.1,0.3,1.5,0.5s0.7,0.4,0.9,0.7c0.2,0.3,0.3,0.6,0.3,1c0,0.7-0.3,1.2-0.8,1.6
			c-0.5,0.4-1.2,0.6-2.1,0.6c-0.6,0-1.1-0.1-1.6-0.3s-0.8-0.5-1.1-0.9c-0.3-0.4-0.4-0.8-0.4-1.2h1.3c0,0.4,0.2,0.8,0.5,1
			c0.3,0.2,0.7,0.4,1.3,0.4c0.5,0,0.9-0.1,1.2-0.3C1266.6,6596.6,1266.7,6596.4,1266.7,6596z"/>
	</g>
	<g class="st6">
		<path class="st3" d="M1241,6658.1h-3.2v8.9h-1.3v-8.9h-3.2v-1.1h7.7V6658.1z"/>
		<path class="st3" d="M1243.6,6660.5c0.6-0.7,1.3-1,2.2-1c1.6,0,2.4,0.9,2.4,2.6v4.9h-1.3v-4.9c0-0.5-0.1-0.9-0.4-1.2
			c-0.2-0.3-0.6-0.4-1.1-0.4c-0.4,0-0.8,0.1-1.1,0.3s-0.6,0.5-0.7,0.9v5.3h-1.3v-10.5h1.3V6660.5z"/>
		<path class="st3" d="M1253.6,6660.7c-0.2,0-0.4,0-0.6,0c-0.8,0-1.4,0.4-1.7,1.1v5.2h-1.3v-7.4h1.2l0,0.9c0.4-0.7,1-1,1.8-1
			c0.2,0,0.4,0,0.6,0.1V6660.7z"/>
		<path class="st3" d="M1257.8,6667.1c-1,0-1.8-0.3-2.4-1c-0.6-0.7-0.9-1.5-0.9-2.6v-0.2c0-0.7,0.1-1.4,0.4-2c0.3-0.6,0.7-1,1.2-1.4
			c0.5-0.3,1-0.5,1.6-0.5c1,0,1.7,0.3,2.2,1s0.8,1.5,0.8,2.7v0.5h-5c0,0.7,0.2,1.3,0.6,1.8c0.4,0.4,0.9,0.7,1.6,0.7
			c0.4,0,0.8-0.1,1.1-0.3s0.6-0.4,0.8-0.7l0.8,0.6C1260,6666.7,1259.1,6667.1,1257.8,6667.1z M1257.7,6660.5c-0.5,0-0.9,0.2-1.3,0.6
			c-0.3,0.4-0.6,0.9-0.6,1.6h3.7v-0.1c0-0.6-0.2-1.1-0.5-1.5C1258.6,6660.7,1258.2,6660.5,1257.7,6660.5z"/>
		<path class="st3" d="M1266.7,6667c-0.1-0.1-0.1-0.4-0.2-0.8c-0.6,0.6-1.3,0.9-2.1,0.9c-0.7,0-1.3-0.2-1.8-0.6
			c-0.5-0.4-0.7-0.9-0.7-1.6c0-0.8,0.3-1.4,0.9-1.8c0.6-0.4,1.4-0.6,2.5-0.6h1.2v-0.6c0-0.4-0.1-0.8-0.4-1.1
			c-0.3-0.3-0.7-0.4-1.2-0.4c-0.5,0-0.8,0.1-1.1,0.3s-0.5,0.5-0.5,0.8h-1.3c0-0.4,0.1-0.7,0.4-1.1c0.3-0.3,0.6-0.6,1.1-0.8
			c0.4-0.2,0.9-0.3,1.5-0.3c0.9,0,1.5,0.2,2,0.6c0.5,0.4,0.7,1,0.8,1.8v3.4c0,0.7,0.1,1.2,0.3,1.6v0.1H1266.7z M1264.6,6666
			c0.4,0,0.8-0.1,1.1-0.3s0.6-0.5,0.8-0.8v-1.5h-1c-1.5,0-2.3,0.5-2.3,1.4c0,0.4,0.1,0.7,0.4,0.9S1264.2,6666,1264.6,6666z"/>
		<path class="st3" d="M1269.5,6663.2c0-1.1,0.3-2,0.8-2.7c0.5-0.7,1.2-1,2.1-1c0.9,0,1.6,0.3,2.1,0.9v-3.9h1.3v10.5h-1.2l-0.1-0.8
			c-0.5,0.6-1.2,0.9-2.1,0.9c-0.9,0-1.6-0.4-2.1-1.1C1269.8,6665.4,1269.5,6664.5,1269.5,6663.2L1269.5,6663.2z M1270.7,6663.4
			c0,0.8,0.2,1.5,0.5,2s0.8,0.7,1.4,0.7c0.8,0,1.4-0.4,1.8-1.1v-3.4c-0.4-0.7-1-1-1.7-1c-0.6,0-1.1,0.2-1.4,0.7
			S1270.7,6662.4,1270.7,6663.4z"/>
		<path class="st3" d="M1282,6665c0-0.3-0.1-0.6-0.4-0.8c-0.3-0.2-0.7-0.4-1.3-0.5c-0.6-0.1-1.1-0.3-1.5-0.5
			c-0.4-0.2-0.7-0.4-0.8-0.7c-0.2-0.3-0.3-0.6-0.3-0.9c0-0.6,0.3-1.1,0.8-1.5c0.5-0.4,1.2-0.6,2-0.6c0.8,0,1.5,0.2,2,0.6
			c0.5,0.4,0.8,1,0.8,1.7h-1.3c0-0.3-0.1-0.6-0.4-0.9c-0.3-0.3-0.7-0.4-1.1-0.4c-0.5,0-0.8,0.1-1.1,0.3s-0.4,0.5-0.4,0.8
			c0,0.3,0.1,0.5,0.4,0.7s0.7,0.3,1.3,0.4c0.6,0.1,1.1,0.3,1.5,0.5s0.7,0.4,0.9,0.7c0.2,0.3,0.3,0.6,0.3,1c0,0.7-0.3,1.2-0.8,1.6
			c-0.5,0.4-1.2,0.6-2.1,0.6c-0.6,0-1.1-0.1-1.6-0.3s-0.8-0.5-1.1-0.9c-0.3-0.4-0.4-0.8-0.4-1.2h1.3c0,0.4,0.2,0.8,0.5,1
			c0.3,0.2,0.7,0.4,1.3,0.4c0.5,0,0.9-0.1,1.2-0.3C1281.8,6665.6,1282,6665.4,1282,6665z"/>
	</g>
	<g class="st6">
		<path class="st3" d="M1235.5,6735.1v3.9h-1.3v-10h3.7c1.1,0,1.9,0.3,2.6,0.8c0.6,0.6,0.9,1.3,0.9,2.2c0,1-0.3,1.7-0.9,2.2
			c-0.6,0.5-1.5,0.8-2.6,0.8H1235.5z M1235.5,6734h2.4c0.7,0,1.2-0.2,1.6-0.5s0.6-0.8,0.6-1.4c0-0.6-0.2-1.1-0.6-1.4
			s-0.9-0.5-1.5-0.6h-2.4V6734z"/>
		<path class="st3" d="M1242.4,6735.2c0-0.7,0.1-1.4,0.4-2c0.3-0.6,0.7-1,1.2-1.3c0.5-0.3,1.1-0.5,1.7-0.5c1,0,1.8,0.3,2.4,1
			c0.6,0.7,0.9,1.6,0.9,2.8v0.1c0,0.7-0.1,1.4-0.4,1.9c-0.3,0.6-0.7,1-1.2,1.3c-0.5,0.3-1.1,0.5-1.8,0.5c-1,0-1.8-0.3-2.4-1
			C1242.7,6737.4,1242.4,6736.5,1242.4,6735.2L1242.4,6735.2z M1243.6,6735.4c0,0.8,0.2,1.5,0.6,2c0.4,0.5,0.9,0.7,1.5,0.7
			c0.6,0,1.2-0.3,1.5-0.8c0.4-0.5,0.6-1.2,0.6-2.1c0-0.8-0.2-1.5-0.6-2c-0.4-0.5-0.9-0.8-1.5-0.8c-0.6,0-1.1,0.2-1.5,0.7
			S1243.6,6734.5,1243.6,6735.4z"/>
		<path class="st3" d="M1255,6737c0-0.3-0.1-0.6-0.4-0.8c-0.3-0.2-0.7-0.4-1.3-0.5c-0.6-0.1-1.1-0.3-1.5-0.5
			c-0.4-0.2-0.7-0.4-0.8-0.7c-0.2-0.3-0.3-0.6-0.3-0.9c0-0.6,0.3-1.1,0.8-1.5c0.5-0.4,1.2-0.6,2-0.6c0.8,0,1.5,0.2,2,0.6
			c0.5,0.4,0.8,1,0.8,1.7h-1.3c0-0.3-0.1-0.6-0.4-0.9c-0.3-0.3-0.7-0.4-1.1-0.4c-0.5,0-0.8,0.1-1.1,0.3s-0.4,0.5-0.4,0.8
			c0,0.3,0.1,0.5,0.4,0.7s0.7,0.3,1.3,0.4c0.6,0.1,1.1,0.3,1.5,0.5s0.7,0.4,0.9,0.7c0.2,0.3,0.3,0.6,0.3,1c0,0.7-0.3,1.2-0.8,1.6
			c-0.5,0.4-1.2,0.6-2.1,0.6c-0.6,0-1.1-0.1-1.6-0.3s-0.8-0.5-1.1-0.9c-0.3-0.4-0.4-0.8-0.4-1.2h1.3c0,0.4,0.2,0.8,0.5,1
			c0.3,0.2,0.7,0.4,1.3,0.4c0.5,0,0.9-0.1,1.2-0.3C1254.8,6737.6,1255,6737.4,1255,6737z"/>
		<path class="st3" d="M1259.6,6729.8v1.8h1.4v1h-1.4v4.6c0,0.3,0.1,0.5,0.2,0.7s0.3,0.2,0.6,0.2c0.1,0,0.3,0,0.6-0.1v1
			c-0.3,0.1-0.7,0.1-1,0.1c-0.6,0-1-0.2-1.3-0.5s-0.4-0.8-0.4-1.5v-4.6h-1.3v-1h1.3v-1.8H1259.6z"/>
		<path class="st3" d="M1266.8,6737c0-0.3-0.1-0.6-0.4-0.8c-0.3-0.2-0.7-0.4-1.3-0.5c-0.6-0.1-1.1-0.3-1.5-0.5
			c-0.4-0.2-0.7-0.4-0.8-0.7c-0.2-0.3-0.3-0.6-0.3-0.9c0-0.6,0.3-1.1,0.8-1.5c0.5-0.4,1.2-0.6,2-0.6c0.8,0,1.5,0.2,2,0.6
			c0.5,0.4,0.8,1,0.8,1.7h-1.3c0-0.3-0.1-0.6-0.4-0.9c-0.3-0.3-0.7-0.4-1.1-0.4c-0.5,0-0.8,0.1-1.1,0.3s-0.4,0.5-0.4,0.8
			c0,0.3,0.1,0.5,0.4,0.7s0.7,0.3,1.3,0.4c0.6,0.1,1.1,0.3,1.5,0.5s0.7,0.4,0.9,0.7c0.2,0.3,0.3,0.6,0.3,1c0,0.7-0.3,1.2-0.8,1.6
			c-0.5,0.4-1.2,0.6-2.1,0.6c-0.6,0-1.1-0.1-1.6-0.3s-0.8-0.5-1.1-0.9c-0.3-0.4-0.4-0.8-0.4-1.2h1.3c0,0.4,0.2,0.8,0.5,1
			c0.3,0.2,0.7,0.4,1.3,0.4c0.5,0,0.9-0.1,1.2-0.3C1266.6,6737.6,1266.8,6737.4,1266.8,6737z"/>
	</g>
	<g id="Grupo_97087" transform="translate(1151.809 6638.147)">
		<g id="Rectángulo_42355" transform="translate(0.191 -0.147)">
			<rect x="0" y="0" class="st7" width="70" height="8"/>
			<rect x="1" y="1" class="st8" width="68" height="6"/>
		</g>
		<g id="Rectángulo_42358" transform="translate(0.191 19.853)">
			<rect x="0" y="0" class="st0" width="70" height="8"/>
			<rect x="1" y="1" class="st8" width="68" height="6"/>
		</g>
		<g id="Rectángulo_42356" transform="translate(0.191 9.853)">
			<rect x="0" y="0" class="st0" width="70" height="8"/>
			<rect x="1" y="1" class="st8" width="68" height="6"/>
		</g>
		<g id="Rectángulo_42357" transform="translate(0.191 29.853)">
			<rect x="0" y="0" class="st0" width="70" height="8"/>
			<rect x="1" y="1" class="st8" width="68" height="6"/>
		</g>
		<rect id="Rectángulo_42359" x="1.2" y="21.9" class="st5" width="56" height="5"/>
		<rect id="Rectángulo_42360" x="1.2" y="11.9" class="st5" width="39" height="5"/>
		<rect id="Rectángulo_42361" x="1.2" y="31.9" class="st5" width="30" height="5"/>
	</g>
	<g id="Grupo_97089" transform="translate(1164.338 6709.46)">
		<g id="Grupo_97088" transform="translate(0 0)">
			<path id="Trazado_213105" class="st3" d="M16.5,0c3.6,0,7.2,0,10.8,0c1.5,0,3,0.6,3.9,1.8c1.2,1.3,1.8,3.1,1.8,4.8
				c0,2.9,0,5.9,0,8.8c0,0.5,0.1,0.6,0.6,0.6c1.8,0,3.7,0,5.6,0c2.9-0.2,5.4,2.1,5.6,5c0,0.2,0,0.4,0,0.6c0,6.9,0,13.8,0,20.8
				c0.1,0.5-0.1,1-0.6,1.2c-0.5,0.2-1,0.1-1.4-0.2c-1.5-1-3.1-2-4.6-3.1c-0.8-0.6-1.8-0.8-2.8-0.8c-6,0-12.1,0-18.1,0
				c-2.9,0.2-5.5-2-5.7-5c0-0.2,0-0.5,0-0.7c0-2.9,0-5.8,0-8.7c0-0.4-0.1-0.6-0.6-0.6c0,0,0,0-0.1,0c-3.7,0-3-0.2-6.1,1.8
				c-1.1,0.7-2.1,1.4-3.2,2.1c-0.4,0.3-0.9,0.4-1.3,0.2C0.2,28.4-0.1,28,0,27.5c0-7.4,0-14.7,0-22.1C-0.1,2.5,2.3,0.1,5.2,0
				c0.1,0,0.1,0,0.2,0C9.1,0,12.8,0,16.5,0z M2.1,25.8c1.2-0.8,2.2-1.4,3.2-2.1c1.2-0.8,2.6-1.3,4.1-1.2c6,0,12.1,0,18.1,0
				c1.8,0.1,3.3-1.2,3.4-3c0-0.1,0-0.3,0-0.4c0-4.1,0-8.3,0-12.4c0-1.2-0.4-2.4-1.2-3.3c-0.6-0.8-1.5-1.2-2.5-1.2
				c-7.2,0-14.4,0-21.7,0C3.9,2,2.3,3.3,2.1,5c0,0.2,0,0.4,0,0.6c0,6.5,0,12.9,0,19.4L2.1,25.8z M42.7,40.7c0-0.2,0-0.3,0-0.4
				c0-6.3,0-12.6,0-18.8c0.1-1.7-1.3-3.2-3.1-3.3c-0.1,0-0.2,0-0.2,0c-1.8,0-3.7,0-5.6,0c-0.8,0-0.8,0-0.8,0.7
				c0.1,1.1-0.3,2.3-0.9,3.2c0,0.1-0.1,0.2-0.1,0.3h0.6c1.2,0,2.3,0,3.5,0c0.6-0.1,1.1,0.4,1.2,1c0,0,0,0.1,0,0.1
				c0,0.6-0.5,1.1-1.1,1.1c0,0-0.1,0-0.1,0c-0.2,0-0.4,0-0.5,0c-7,0-14.1,0-21.1,0c-0.5,0-0.6,0.1-0.6,0.6c0,2.9,0,5.8,0,8.8
				c0,0.3,0,0.6,0.1,0.9c0.3,1.6,1.8,2.7,3.4,2.5c5.9,0,11.8,0,17.7,0c1.7-0.1,3.4,0.4,4.8,1.4C40.7,39.4,41.6,40,42.7,40.7
				L42.7,40.7z"/>
			<path id="Trazado_213106" class="st5" d="M2.1,25.8V25c0-6.5,0-12.9,0-19.4C2,3.9,3.2,2.3,5,2.2c0.2,0,0.4,0,0.6,0
				c7.2,0,14.4,0,21.7,0c1,0,1.9,0.4,2.5,1.2C30.5,4.3,31,5.4,31,6.6c0,4.1,0,8.3,0,12.4c0.1,1.8-1.2,3.3-3,3.4c-0.1,0-0.3,0-0.4,0
				c-6,0-12.1,0-18.1,0c-1.4,0-2.9,0.4-4.1,1.2C4.4,24.4,3.3,25,2.1,25.8z M16.5,9.6h6.3c0.6,0,1.2,0,1.8,0c0.6,0,1-0.5,1-1
				c0-0.6-0.4-1.1-1-1.1c-0.1,0-0.3,0-0.4,0H9c-0.2,0-0.4,0-0.5,0c-0.5,0.1-0.9,0.5-1,1c0,0.6,0.4,1,1,1.1c0.2,0,0.4,0,0.6,0
				L16.5,9.6z M16.6,13.9h3.9c1.3,0,2.7,0,4.1,0c0.6,0,1.1-0.4,1.1-1c0,0,0,0,0,0c0-0.6-0.5-1.1-1.1-1.1c0,0,0,0,0,0
				c-0.1,0-0.2,0-0.4,0H9c-0.2,0-0.4,0-0.5,0c-0.5,0.1-0.9,0.4-0.9,0.9c-0.1,0.5,0.2,0.9,0.7,1.1c0.2,0.1,0.5,0.1,0.7,0.1
				C11.5,13.9,14,13.9,16.6,13.9L16.6,13.9z M12.8,16c-1.4,0-2.7,0-4.1,0c-0.5-0.1-1,0.3-1.2,0.8c-0.2,0.7,0.3,1.3,1.2,1.3
				c2.7,0,5.4,0,8.1,0c0.8,0,1.3-0.4,1.3-1c0-0.7-0.5-1.1-1.3-1.1C15.5,16,14.2,16,12.8,16L12.8,16z"/>
			<path id="Trazado_213107" class="st4" d="M42.7,40.7c-1-0.7-2-1.2-2.9-1.9c-1.4-1-3.1-1.5-4.8-1.4c-5.9,0-11.8,0-17.7,0
				c-1.6,0.1-3-1-3.4-2.5c-0.1-0.3-0.1-0.6-0.1-0.9c0-2.9,0-5.8,0-8.8c0-0.5,0.2-0.6,0.6-0.6c7,0,14.1,0,21.1,0c0.2,0,0.4,0,0.5,0
				c0.6,0.1,1.1-0.4,1.2-1c0,0,0-0.1,0-0.1c0-0.6-0.5-1.1-1.1-1c0,0-0.1,0-0.1,0c-1.2,0-2.3,0-3.5,0h-0.6c0-0.1,0.1-0.2,0.1-0.3
				c0.6-1,0.9-2.1,0.9-3.2c0-0.7,0-0.7,0.8-0.7c1.8,0,3.7,0,5.6,0c1.7-0.1,3.2,1.3,3.3,3c0,0.1,0,0.2,0,0.2c0,6.3,0,12.6,0,18.8
				C42.7,40.4,42.7,40.5,42.7,40.7z M28.3,28.8h7.6c0.2,0,0.4,0,0.6,0c0.5-0.1,0.9-0.5,0.9-1c0-0.5-0.4-1-0.9-1.1
				c-0.2,0-0.3,0-0.5,0H20.6c-0.1,0-0.3,0-0.4,0c-0.5,0.1-0.9,0.5-0.9,1.1c0,0.5,0.4,1,1,1c0.2,0,0.4,0,0.5,0L28.3,28.8z M24.1,31
				c-1.2,0-2.4,0-3.6,0c-0.8,0-1.3,0.4-1.3,1.1s0.5,1.1,1.3,1.1c2.4,0,4.7,0,7.1,0c0.6,0.1,1.2-0.4,1.2-1c0,0,0-0.1,0-0.1
				c0-0.6-0.5-1.1-1.1-1c0,0-0.1,0-0.1,0C26.4,31,25.2,31,24.1,31L24.1,31z"/>
			<path id="Trazado_213108" class="st3" d="M16.5,9.6H9c-0.2,0-0.4,0-0.6,0c-0.6,0-1-0.5-1-1.1c0-0.5,0.4-1,1-1c0.2,0,0.4,0,0.5,0
				h15.2c0.1,0,0.3,0,0.4,0c0.6,0,1,0.5,1,1.1c0,0.6-0.5,1-1,1c-0.6,0-1.2,0-1.8,0L16.5,9.6z"/>
			<path id="Trazado_213109" class="st3" d="M16.6,13.9c-2.6,0-5.1,0-7.7,0c-0.2,0-0.5,0-0.7-0.1c-0.5-0.2-0.7-0.6-0.7-1.1
				c0.1-0.5,0.4-0.9,0.9-0.9c0.2,0,0.4,0,0.5,0h15.2c0.1,0,0.2,0,0.4,0c0.6,0,1.1,0.5,1.1,1.1c0,0,0,0,0,0c0,0.6-0.5,1.1-1.1,1.1
				c0,0,0,0,0,0c-1.3,0-2.7,0-4.1,0L16.6,13.9z"/>
			<path id="Trazado_213110" class="st3" d="M12.8,16c1.3,0,2.7,0,4,0c0.8,0,1.3,0.4,1.3,1.1c0,0.6-0.5,1-1.3,1c-2.7,0-5.4,0-8.1,0
				c-0.9,0-1.4-0.6-1.2-1.3C7.7,16.3,8.2,16,8.7,16C10.1,16,11.4,16,12.8,16z"/>
			<path id="Trazado_213111" class="st3" d="M28.3,28.8h-7.6c-0.2,0-0.4,0-0.5,0c-0.5-0.1-0.9-0.5-1-1c0-0.5,0.4-1,0.9-1.1
				c0.1,0,0.3,0,0.4,0H36c0.2,0,0.3,0,0.5,0c0.5,0.1,0.9,0.6,0.9,1.1c0,0.5-0.4,0.9-0.9,1c-0.2,0-0.4,0-0.6,0L28.3,28.8z"/>
			<path id="Trazado_213112" class="st3" d="M24.1,31c1.2,0,2.3,0,3.5,0c0.6-0.1,1.2,0.4,1.2,1c0,0,0,0.1,0,0.1
				c0,0.6-0.5,1.1-1.1,1.1c0,0-0.1,0-0.1,0c-2.4,0-4.7,0-7.1,0c-0.8,0-1.3-0.4-1.3-1.1s0.5-1.1,1.3-1.1C21.7,31,22.9,31,24.1,31z"/>
		</g>
	</g>
</g>
</svg>
