<svg xmlns="http://www.w3.org/2000/svg" width="203" height="231" viewBox="0 0 203 231">
  <g id="Grupo_97091" data-name="Grupo 97091" transform="translate(-1119 -6544)">
    <g id="Rectángulo_42362" data-name="Rectángulo 42362" transform="translate(1119 6544)" fill="#fff" stroke="#707070" stroke-width="1">
      <rect width="203" height="231" rx="20" stroke="none"/>
      <rect x="0.5" y="0.5" width="202" height="230" rx="19.5" fill="none"/>
    </g>
    <g id="Rectángulo_42351" data-name="Rectángulo 42351" transform="translate(1138 6557)" fill="#fff" stroke="#707070" stroke-width="2" stroke-dasharray="2">
      <rect width="167" height="58" rx="15" stroke="none"/>
      <rect x="1" y="1" width="165" height="56" rx="14" fill="none"/>
    </g>
    <g id="Rectángulo_42353" data-name="Rectángulo 42353" transform="translate(1138 6629)" fill="#fff" stroke="#707070" stroke-width="2" stroke-dasharray="2">
      <rect width="167" height="58" rx="15" stroke="none"/>
      <rect x="1" y="1" width="165" height="56" rx="14" fill="none"/>
    </g>
    <g id="Rectángulo_42354" data-name="Rectángulo 42354" transform="translate(1138 6701)" fill="#fff" stroke="#707070" stroke-width="2" stroke-dasharray="2">
      <rect width="167" height="58" rx="15" stroke="none"/>
      <rect x="1" y="1" width="165" height="56" rx="14" fill="none"/>
    </g>
    <g id="Grupo_97084" data-name="Grupo 97084" transform="translate(1151.809 6562.544)">
      <path id="Trazado_213098" data-name="Trazado 213098" d="M299.742-283.288c.027-7.378,3.344-12.387,10.027-15.267a8.583,8.583,0,0,1-3.523-7.373,8.212,8.212,0,0,1,2.793-5.893,8.566,8.566,0,0,1,11.9.4,8.645,8.645,0,0,1-1.084,12.857c1.04.562,2.084,1.118,3.12,1.689a2.884,2.884,0,0,1,.765.531c.623.691,1.135.644,1.865.048a17.776,17.776,0,0,1,5.844-3.023c-3.844-2.743-5.627-6.346-5-10.97a10.238,10.238,0,0,1,3.871-6.726,10.805,10.805,0,0,1,14.739,1.068,10.531,10.531,0,0,1,2.765,8.767,10.915,10.915,0,0,1-5.011,7.808c.281.126.455.222.64.285a19.752,19.752,0,0,1,5.651,3.077.974.974,0,0,0,.843.157c1.5-.9,2.973-1.861,4.49-2.827a8.449,8.449,0,0,1-3.307-7.924,8.2,8.2,0,0,1,3.239-5.662,8.556,8.556,0,0,1,11.623,1.1,8.625,8.625,0,0,1-1.369,12.611c6.647,2.858,9.966,7.891,10.015,15.22H356.354c.025.414.043.713.062,1.012a11.428,11.428,0,0,1-.461,5.3A7.617,7.617,0,0,1,349-271.976c-2.149.12-4.31.043-6.465.044-5.532,0-11.064.018-16.6-.005a7.791,7.791,0,0,1-7.957-6.219,24.4,24.4,0,0,1-.142-4.108c-.006-.307.031-.614.055-1.024Zm37.358,8.981v-.023c3.922,0,7.846.062,11.766-.021a5.342,5.342,0,0,0,5.157-5,17.676,17.676,0,0,0-1.049-7.416,17,17,0,0,0-20.043-10.489,17.015,17.015,0,0,0-12.827,16.9c0,3.717,2.3,6.042,6.007,6.047Q331.607-274.3,337.1-274.307Zm-.032-25.875a8.412,8.412,0,0,0,8.445-8.476,8.419,8.419,0,0,0-8.455-8.391,8.444,8.444,0,0,0-8.418,8.439A8.428,8.428,0,0,0,337.068-300.182Zm34.99,14.482a12.462,12.462,0,0,0-8.185-10.533c-4.4-1.613-9.587-.481-12.445,2.375.286.359.574.724.864,1.088a18.181,18.181,0,0,1,3.294,6.3.919.919,0,0,0,1.077.786c4.877-.027,9.754-.015,14.631-.015Zm-69.889-.051c.3.027.431.048.557.048,5.011,0,10.022,0,15.033.014.5,0,.658-.2.785-.638a18.7,18.7,0,0,1,3.5-6.632c.271-.332.527-.677.782-1.007a12.382,12.382,0,0,0-13.287-1.883A12.585,12.585,0,0,0,302.169-285.751Zm63.573-19.79a6.194,6.194,0,0,0-6.15-6.149,6.225,6.225,0,0,0-6.18,6.132,6.208,6.208,0,0,0,6.2,6.185A6.206,6.206,0,0,0,365.743-305.541Zm-44.863.092a6.171,6.171,0,0,0-6.05-6.239,6.238,6.238,0,0,0-6.28,6.115,6.234,6.234,0,0,0,6.111,6.2A6.2,6.2,0,0,0,320.88-305.449Z" transform="translate(-299.742 319.424)" fill="#12263f"/>
      <path id="Trazado_213099" data-name="Trazado 213099" d="M447.43-157.147q-5.494,0-10.988,0c-3.7,0-6.009-2.33-6.007-6.047a17.015,17.015,0,0,1,12.827-16.9A17,17,0,0,1,463.3-169.607a17.676,17.676,0,0,1,1.049,7.416,5.342,5.342,0,0,1-5.158,5c-3.92.083-7.844.021-11.766.021Z" transform="translate(-410.072 202.263)" fill="#ffca28"/>
      <path id="Trazado_213100" data-name="Trazado 213100" d="M493.643-287.314a8.428,8.428,0,0,1-8.428-8.427,8.444,8.444,0,0,1,8.418-8.439,8.419,8.419,0,0,1,8.455,8.391A8.412,8.412,0,0,1,493.643-287.314Z" transform="translate(-456.316 306.555)" fill="#ffca28"/>
      <path id="Trazado_213101" data-name="Trazado 213101" d="M652.1-164.06h-.763c-4.877,0-9.754-.012-14.631.015a.919.919,0,0,1-1.077-.786,18.181,18.181,0,0,0-3.294-6.3c-.29-.364-.579-.728-.864-1.088,2.858-2.856,8.043-3.989,12.445-2.375A12.462,12.462,0,0,1,652.1-164.06Z" transform="translate(-579.782 197.784)" fill="#4dd0e1"/>
      <path id="Trazado_213102" data-name="Trazado 213102" d="M315.32-164.165a12.585,12.585,0,0,1,7.371-10.1,12.382,12.382,0,0,1,13.287,1.883c-.256.33-.512.675-.783,1.007a18.7,18.7,0,0,0-3.5,6.632c-.127.436-.288.64-.785.638-5.011-.018-10.022-.012-15.033-.014C315.751-164.117,315.624-164.138,315.32-164.165Z" transform="translate(-312.893 197.837)" fill="#4dd0e1"/>
      <path id="Trazado_213103" data-name="Trazado 213103" d="M656.528-263.641a6.206,6.206,0,0,1-6.133,6.168,6.208,6.208,0,0,1-6.2-6.185,6.225,6.225,0,0,1,6.18-6.132A6.194,6.194,0,0,1,656.528-263.641Z" transform="translate(-590.527 277.524)" fill="#4dd0e1"/>
      <path id="Trazado_213104" data-name="Trazado 213104" d="M368.593-263.554a6.2,6.2,0,0,1-6.219,6.079,6.234,6.234,0,0,1-6.111-6.2,6.238,6.238,0,0,1,6.28-6.115A6.171,6.171,0,0,1,368.593-263.554Z" transform="translate(-347.456 277.528)" fill="#4dd0e1"/>
    </g>
    <text id="Users" transform="translate(1233 6583)" fill="#12263f" font-size="14" font-family="Roboto-Regular, Roboto"><tspan x="0" y="15">Users</tspan></text>
    <text id="Threads" transform="translate(1233 6652)" fill="#12263f" font-size="14" font-family="Roboto-Regular, Roboto"><tspan x="0" y="15">Threads</tspan></text>
    <text id="Posts" transform="translate(1233 6724)" fill="#12263f" font-size="14" font-family="Roboto-Regular, Roboto"><tspan x="0" y="15">Posts</tspan></text>
    <g id="Grupo_97087" data-name="Grupo 97087" transform="translate(1151.809 6638.147)">
      <g id="Rectángulo_42355" data-name="Rectángulo 42355" transform="translate(0.191 -0.147)" fill="#1565c0" stroke="#12263f" stroke-width="2">
        <rect width="70" height="8" stroke="none"/>
        <rect x="1" y="1" width="68" height="6" fill="none"/>
      </g>
      <g id="Rectángulo_42358" data-name="Rectángulo 42358" transform="translate(0.191 19.853)" fill="#fff" stroke="#12263f" stroke-width="2">
        <rect width="70" height="8" stroke="none"/>
        <rect x="1" y="1" width="68" height="6" fill="none"/>
      </g>
      <g id="Rectángulo_42356" data-name="Rectángulo 42356" transform="translate(0.191 9.853)" fill="#fff" stroke="#12263f" stroke-width="2">
        <rect width="70" height="8" stroke="none"/>
        <rect x="1" y="1" width="68" height="6" fill="none"/>
      </g>
      <g id="Rectángulo_42357" data-name="Rectángulo 42357" transform="translate(0.191 29.853)" fill="#fff" stroke="#12263f" stroke-width="2">
        <rect width="70" height="8" stroke="none"/>
        <rect x="1" y="1" width="68" height="6" fill="none"/>
      </g>
      <rect id="Rectángulo_42359" data-name="Rectángulo 42359" width="56" height="5" transform="translate(1.191 21.853)" fill="#4dd0e1"/>
      <rect id="Rectángulo_42360" data-name="Rectángulo 42360" width="39" height="5" transform="translate(1.191 11.853)" fill="#4dd0e1"/>
      <rect id="Rectángulo_42361" data-name="Rectángulo 42361" width="30" height="5" transform="translate(1.191 31.853)" fill="#4dd0e1"/>
    </g>
    <g id="Grupo_97089" data-name="Grupo 97089" transform="translate(1164.338 6709.46)">
      <g id="Grupo_97088" data-name="Grupo 97088" transform="translate(0 0)">
        <path id="Trazado_213105" data-name="Trazado 213105" d="M1010.472-467.1c3.611,0,7.223.025,10.833-.012a4.886,4.886,0,0,1,3.933,1.795,7.17,7.17,0,0,1,1.805,4.84c0,2.935.011,5.87-.011,8.805,0,.479.137.6.6.592,1.85-.026,3.7-.016,5.55-.009a5.326,5.326,0,0,1,5.6,5.6q.008,10.38.006,20.759a1.235,1.235,0,0,1-.556,1.237,1.236,1.236,0,0,1-1.387-.212c-1.535-1.032-3.084-2.043-4.613-3.084a4.718,4.718,0,0,0-2.757-.829q-9.046.021-18.091.007a5.348,5.348,0,0,1-5.687-5.678c0-2.9-.009-5.8.008-8.7,0-.434-.109-.639-.562-.567a.353.353,0,0,1-.053,0c-3.687.008-3-.216-6.079,1.825-1.068.707-2.136,1.414-3.194,2.134a1.157,1.157,0,0,1-1.293.174,1.19,1.19,0,0,1-.573-1.175c.005-7.364-.005-14.729.008-22.094a5.3,5.3,0,0,1,5.413-5.408C1003.072-467.116,1006.772-467.1,1010.472-467.1Zm-14.378,25.745c1.168-.759,2.228-1.409,3.244-2.12a6.823,6.823,0,0,1,4.064-1.218q9.045.025,18.089,0a3.2,3.2,0,0,0,3.413-3.4c.007-4.127,0-8.253.006-12.38a5.182,5.182,0,0,0-1.176-3.3,2.941,2.941,0,0,0-2.476-1.21c-7.222.025-14.443.011-21.665.013a3.215,3.215,0,0,0-3.5,3.53q0,9.685,0,19.37Zm40.517,14.92c.018-.222.033-.325.033-.428q0-9.418-.005-18.837a3.16,3.16,0,0,0-3.29-3.252c-1.85-.012-3.7,0-5.55,0-.754,0-.767,0-.754.738a5.624,5.624,0,0,1-.863,3.25,1.374,1.374,0,0,0-.093.281h.575c1.156,0,2.312-.008,3.469.006a1.068,1.068,0,0,1,1.175,1.043,1.083,1.083,0,0,1-1.191,1.084c-.178.005-.356,0-.534,0q-10.566,0-21.131-.009c-.476,0-.637.109-.633.615.024,2.917.01,5.834.015,8.751a4.468,4.468,0,0,0,.07.9,3.191,3.191,0,0,0,3.351,2.545c5.888,0,11.775.032,17.663-.017a7.75,7.75,0,0,1,4.8,1.435C1034.625-427.678,1035.586-427.1,1036.61-426.436Z" transform="translate(-993.95 467.113)" fill="#12263f"/>
        <path id="Trazado_213106" data-name="Trazado 213106" d="M1014.033-423.492v-.709q0-9.685,0-19.37a3.215,3.215,0,0,1,3.5-3.531c7.222,0,14.443.012,21.665-.013a2.941,2.941,0,0,1,2.477,1.209,5.184,5.184,0,0,1,1.176,3.3c-.01,4.127,0,8.253-.006,12.38a3.2,3.2,0,0,1-3.413,3.4q-9.044.008-18.089,0a6.821,6.821,0,0,0-4.064,1.218C1016.261-424.9,1015.2-424.252,1014.033-423.492Zm14.35-16.135h6.289c.6,0,1.209.017,1.812-.013a1.05,1.05,0,0,0,1.021-1.03,1.075,1.075,0,0,0-1.023-1.089c-.141-.013-.284-.007-.426-.007h-15.191a4.661,4.661,0,0,0-.532.011,1.067,1.067,0,0,0-.963,1.033,1.054,1.054,0,0,0,.966,1.081,5.366,5.366,0,0,0,.586.013Zm.072,4.267h3.891c1.35,0,2.7.01,4.051-.007a1.067,1.067,0,0,0,1.108-1.058,1.075,1.075,0,0,0-1.094-1.071c-.124-.007-.249,0-.373,0h-15.191a4.522,4.522,0,0,0-.532.016,1.052,1.052,0,0,0-.939.939,1.009,1.009,0,0,0,.673,1.09,2.321,2.321,0,0,0,.731.091Q1024.619-435.355,1028.456-435.361Zm-3.758,2.134c-1.367,0-2.733-.006-4.1,0a1.106,1.106,0,0,0-1.194.778c-.2.73.328,1.347,1.2,1.349q4.073.014,8.147,0c.792,0,1.27-.4,1.281-1.043.011-.665-.477-1.085-1.29-1.088C1027.4-433.232,1026.047-433.228,1024.7-433.227Z" transform="translate(-1011.889 449.25)" fill="#4dd0e1"/>
        <path id="Trazado_213107" data-name="Trazado 213107" d="M1152.681-274.5c-1.024-.668-1.985-1.243-2.888-1.9a7.75,7.75,0,0,0-4.8-1.435c-5.887.049-11.775.021-17.663.017a3.191,3.191,0,0,1-3.351-2.545,4.494,4.494,0,0,1-.07-.9c-.005-2.917.009-5.834-.015-8.751,0-.505.157-.615.633-.615q10.565.021,21.131.009c.178,0,.356,0,.534,0a1.083,1.083,0,0,0,1.191-1.084,1.067,1.067,0,0,0-1.175-1.043c-1.156-.014-2.312-.005-3.469-.006h-.575a1.36,1.36,0,0,1,.093-.281,5.626,5.626,0,0,0,.863-3.25c-.013-.736,0-.737.754-.738,1.85,0,3.7-.009,5.55,0a3.16,3.16,0,0,1,3.29,3.252q.02,9.418.005,18.837C1152.714-274.826,1152.7-274.723,1152.681-274.5ZM1138.3-286.345h7.569a4.451,4.451,0,0,0,.585-.018,1.05,1.05,0,0,0,.927-1.009,1.063,1.063,0,0,0-.9-1.093,2.894,2.894,0,0,0-.479-.018H1130.6a2.958,2.958,0,0,0-.426.014,1.079,1.079,0,0,0-.931,1.067,1.069,1.069,0,0,0,.952,1.044,4.386,4.386,0,0,0,.533.014Zm-4.213,2.129c-1.192,0-2.383,0-3.575,0-.778,0-1.264.42-1.267,1.063s.5,1.071,1.261,1.072q3.548.007,7.1,0a1.109,1.109,0,0,0,1.241-1.092,1.1,1.1,0,0,0-1.235-1.041C1136.431-284.222,1135.258-284.216,1134.084-284.216Z" transform="translate(-1110.021 315.179)" fill="#ffca28"/>
        <path id="Trazado_213108" data-name="Trazado 213108" d="M1073.052-394.884h-7.462a5.374,5.374,0,0,1-.586-.013,1.054,1.054,0,0,1-.966-1.081,1.067,1.067,0,0,1,.963-1.033,4.663,4.663,0,0,1,.533-.011h15.19c.142,0,.285-.006.426.007a1.075,1.075,0,0,1,1.023,1.089,1.05,1.05,0,0,1-1.021,1.03c-.6.03-1.208.013-1.812.013Z" transform="translate(-1056.558 404.506)" fill="#12263f"/>
        <path id="Trazado_213109" data-name="Trazado 213109" d="M1073.126-354.9q-3.838,0-7.675,0a2.319,2.319,0,0,1-.731-.091,1.009,1.009,0,0,1-.673-1.09,1.052,1.052,0,0,1,.939-.939,4.514,4.514,0,0,1,.532-.016h15.19c.124,0,.249,0,.373,0a1.075,1.075,0,0,1,1.094,1.071,1.067,1.067,0,0,1-1.108,1.058c-1.35.016-2.7.006-4.051.007Z" transform="translate(-1056.56 368.788)" fill="#12263f"/>
        <path id="Trazado_213110" data-name="Trazado 213110" d="M1069.285-317.013c1.349,0,2.7,0,4.047,0,.813,0,1.3.423,1.29,1.088-.011.643-.489,1.042-1.281,1.043q-4.074.006-8.147,0c-.874,0-1.407-.619-1.2-1.349a1.107,1.107,0,0,1,1.194-.778C1066.551-317.019,1067.918-317.013,1069.285-317.013Z" transform="translate(-1056.476 333.036)" fill="#12263f"/>
        <path id="Trazado_213111" data-name="Trazado 213111" d="M1183.092-214.876h-7.569a4.383,4.383,0,0,1-.532-.014,1.069,1.069,0,0,1-.953-1.044,1.079,1.079,0,0,1,.931-1.067,2.964,2.964,0,0,1,.426-.014H1190.8a2.893,2.893,0,0,1,.479.018,1.063,1.063,0,0,1,.9,1.093,1.05,1.05,0,0,1-.927,1.009,4.459,4.459,0,0,1-.585.018Z" transform="translate(-1154.816 243.71)" fill="#12263f"/>
        <path id="Trazado_213112" data-name="Trazado 213112" d="M1178.876-177.034c1.174,0,2.348-.005,3.521,0a1.1,1.1,0,0,1,1.235,1.041,1.109,1.109,0,0,1-1.241,1.092q-3.548.008-7.1,0c-.764,0-1.264-.436-1.261-1.072s.49-1.058,1.267-1.063C1176.493-177.038,1177.685-177.034,1178.876-177.034Z" transform="translate(-1154.813 207.996)" fill="#12263f"/>
      </g>
    </g>
  </g>
</svg>
