<svg xmlns="http://www.w3.org/2000/svg" width="358.49" height="305.867" viewBox="0 0 358.49 305.867">
  <g id="Grupo_97943" data-name="Grupo 97943" transform="translate(-2345.245 1601.336)">
    <path id="Trazado_213113" data-name="Trazado 213113" d="M4191.046-1514.737a43,43,0,0,1-22.256-10.409,42.352,42.352,0,0,1-14.27-27.659,43.1,43.1,0,0,1,33.445-46.575c22.949-5.176,46.415,9.734,51.311,32.739a43.008,43.008,0,0,1-35.389,51.8c-.254.042-.506.1-.755.154l-6,.416a5.146,5.146,0,0,0-2.311-.049,5.6,5.6,0,0,0-1.944-.141,2.95,2.95,0,0,0-1.446-.082Zm9.222-44.344h.007c0-1.737,0-3.474,0-5.211,0-.375.047-.781-.407-.984a1.528,1.528,0,0,0-2.315,1.392c-.01.45,0,.9,0,1.351,0,2.638,0,5.276-.009,7.913a3.491,3.491,0,0,1-1.476,3.179,3.919,3.919,0,0,1-6.166-2.9,20.459,20.459,0,0,1-.041-2.121c0-2.638-.023-5.276.007-7.913.011-.986-.609-.978-1.278-.95s-1.483-.214-1.471.948c.03,3.474-.09,6.953.073,10.42a5.428,5.428,0,0,0,4.936,5.334,8.762,8.762,0,0,0,3.638-.126,5.477,5.477,0,0,0,4.5-5.5C4200.312-1555.862,4200.268-1557.472,4200.268-1559.08Zm6.957,2.161c0-2.38.016-4.761-.008-7.141-.011-1.231-.091-1.276-1.326-1.271-1.26,0-1.382.074-1.388,1.232q-.027,7.044,0,14.089c0,1.214.08,1.248,1.347,1.26s1.355-.03,1.367-1.221C4207.241-1552.287,4207.225-1554.6,4207.225-1556.92Z" transform="translate(-1676.28 -0.929)" fill="#ff4c1a"/>
    <path id="Trazado_213114" data-name="Trazado 213114" d="M4376.021-1156.6l6-.417c7.091,1.867,14.178,3.756,21.278,5.6q59.977,15.562,119.96,31.106c.25.065.495.141.747.2,1.313.311,2.744,1.087,3.906.793,1.129-.286,1.17-2.105,1.826-3.189a15.7,15.7,0,0,1,18.056-6.989,15.662,15.662,0,0,1,11.087,16.048,15.51,15.51,0,0,1-12.784,14.3c-6.6,1.141-11.9-1.173-15.8-6.578-1.143-1.583-.891-1.409-2.544-.608q-24.423,11.818-48.836,23.651a4.129,4.129,0,0,0-1.772,1.125l20.9,15.955a15.841,15.841,0,0,1,12.683-5.652,15.191,15.191,0,0,1,10.408,4.467,15.636,15.636,0,0,1,1.44,20.778,15.649,15.649,0,0,1-20.591,3.79c-5.751-3.466-10.711-12.429-4.8-22.365a3.546,3.546,0,0,0-1.13-1.035c-6.3-4.81-12.613-9.594-18.878-14.444a2.494,2.494,0,0,0-3.07-.331c-12.14,5.943-24.321,11.806-36.486,17.7-.518.25-1.02.534-1.635.858a17.471,17.471,0,0,1,1.208,7.006,15.668,15.668,0,0,1-13.6,14.788,15.289,15.289,0,0,1-12.168-3.612,14.878,14.878,0,0,1-5.51-11.3,15.3,15.3,0,0,1,7.283-13.877c1.406-.936,1.425-.926.726-2.5q-18.421-41.572-36.861-83.135c-.246-.553-.292-1.292-1.027-1.539Zm3.875.623a4.148,4.148,0,0,0,1.4,1.283q46.531,35.514,93.048,71.047a2.619,2.619,0,0,0,3.234.308c11.558-5.661,23.152-11.247,34.735-16.857,5.1-2.468,10.183-4.959,15.3-7.388.917-.437,1.225-.808.826-1.87a14.122,14.122,0,0,1-.684-7.416c.124-.725-.059-1.1-.774-1.253-.44-.092-.869-.233-1.305-.346q-12.331-3.183-24.662-6.366-59.585-15.443-119.17-30.893A3.174,3.174,0,0,0,4379.9-1155.975Zm-1.546.536a2.516,2.516,0,0,0,.387,1.793q18.14,40.933,36.3,81.858c.692,1.559.7,1.554,2.37,1.106a15.6,15.6,0,0,1,17.02,6.147c.223.316.442.635.637.967a.675.675,0,0,0,.972.3q.527-.239,1.05-.491,17.893-8.663,35.78-17.336a3.371,3.371,0,0,0,1.567-1.037Zm52.857,100.323c-.282-.4-.219-1.248-1.192-1.089-1.1.179-1.61-.31-1.43-1.41a.984.984,0,0,0-.676-1.19c-.611-.293-.929-.057-1.292.4a1.04,1.04,0,0,1-1.887-.069.975.975,0,0,0-1.3-.451.979.979,0,0,0-.674,1.2c.1.969-.415,1.5-1.386,1.327-.6-.106-.97-.027-1.225.551a.98.98,0,0,0,.311,1.341,1.078,1.078,0,0,1-.021,1.916c-.455.347-.713.617-.473,1.259a1.052,1.052,0,0,0,1.317.762c.91-.1,1.33.413,1.193,1.29a1.07,1.07,0,0,0,.715,1.352c.63.264.926-.033,1.281-.469a1,1,0,0,1,1.765,0c.393.524.761.82,1.443.54.6-.247.645-.657.609-1.232-.063-.973.474-1.491,1.433-1.256a.875.875,0,0,0,1.2-.578.912.912,0,0,0-.287-1.314c-.886-.671-.781-1.4.1-2.032A.846.846,0,0,0,4431.206-1055.115Zm78.11,2.618a1.389,1.389,0,0,1-.825,1.181c-.512.33-.362.763-.213,1.2a.912.912,0,0,0,.977.7c1.439.055,1.5.116,1.433,1.478a.894.894,0,0,0,.6,1.031c.418.188.746.338,1.211-.047,1.155-.953,1.225-.959,2.22,0a.957.957,0,0,0,1.2.212.941.941,0,0,0,.725-.96c.033-1.438.107-1.519,1.466-1.5a1.077,1.077,0,0,0,1.138-.763c.262-.519.075-.824-.333-1.137-.885-.678-.871-1.406.045-2.015a.913.913,0,0,0,.349-1.31c-.192-.455-.453-.742-1.014-.66-1.057.154-1.654-.279-1.472-1.393a.991.991,0,0,0-.642-1.215c-.585-.279-.939-.057-1.307.408-.631.8-1.33.743-1.879-.08a.984.984,0,0,0-1.305-.436.947.947,0,0,0-.7,1.177c.107.959-.341,1.535-1.335,1.327-.614-.128-.951-.051-1.237.519a.979.979,0,0,0,.4,1.46A1.154,1.154,0,0,1,4509.315-1052.5Zm35.8-53.638a.693.693,0,0,0,.732-.238c.754-1.005,1.511-1.147,2.262-.005.321.488.725.394,1.179.243.49-.164.762-.434.694-.983-.147-1.2.364-1.7,1.561-1.444.566.123.814-.215,1.017-.647s.315-.855-.164-1.193c-.977-.691-1.06-1.42-.037-2.12.553-.38.5-.823.3-1.339-.188-.483-.5-.579-1.032-.59-1.271-.026-1.5-.244-1.389-1.411.063-.644-.075-.93-.622-1.186a.967.967,0,0,0-1.307.277c-.885.884-1.11.872-1.99-.084a.959.959,0,0,0-1.311-.309.944.944,0,0,0-.684.981c-.017,1.355-.083,1.422-1.507,1.45a1.112,1.112,0,0,0-1.119.806c-.259.537-.014.819.373,1.126.875.7.821,1.4-.089,2.008a.857.857,0,0,0-.394,1.138c.192.526.447.88,1.111.8,1.232-.157,1.619.482,1.423,1.622C4543.985-1106.428,4544.635-1106.327,4545.114-1106.136Zm-130.894,48.084c-.129,1.237.188,1.55,1.371,1.106a1.12,1.12,0,0,1,1.578.5c.656.928,1.322.844,1.706-.212.292-.8.684-.909,1.438-.789,1.142.182,1.569-.282,1.125-1.286a1.157,1.157,0,0,1,.519-1.722c.821-.558.74-1.325-.171-1.618-.894-.287-1.048-.7-.873-1.553.2-.991-.375-1.54-1.2-1.113-.89.46-1.321.37-1.84-.5-.479-.811-1.3-.695-1.609.231-.287.872-.66,1.081-1.542.874-.985-.232-1.53.337-1.12,1.182.427.879.387,1.313-.507,1.841-.805.475-.659,1.324.271,1.645C4414.125-1059.2,4414.448-1058.872,4414.22-1058.052Zm88.264,1.068c-.052,1.335.194,1.586,1.393,1.131.768-.292,1.131-.077,1.579.546.656.911,1.2.83,1.666-.261.322-.762.737-.86,1.489-.764,1.18.15,1.53-.286,1.051-1.361a1.078,1.078,0,0,1,.44-1.588c1.036-.744.979-1.147-.253-1.716-.731-.338-.871-.729-.69-1.507.25-1.065-.314-1.51-1.327-1.041-.729.338-1.109.287-1.582-.395-.742-1.068-1.317-1.015-1.783.166-.3.767-.638.94-1.434.766-1.11-.244-1.542.254-1.109,1.286.345.82.249,1.22-.543,1.7a.863.863,0,0,0,.184,1.662C4502.323-1058.113,4502.676-1057.812,4502.484-1056.984Zm39.415-58.762c1.3.1,1.637-.252,1.125-1.363-.355-.774-.152-1.106.5-1.547.96-.648.913-1.381-.114-1.724-.865-.289-1.1-.6-.86-1.523.255-.986-.356-1.53-1.223-1.1-.916.451-1.331.291-1.832-.575a.819.819,0,0,0-1.549.22c-.319.975-.783,1.1-1.725.911s-1.363.452-.89,1.365a1.048,1.048,0,0,1-.38,1.6c-1.074.79-1.035,1.23.148,1.739.711.306.97.621.781,1.447-.252,1.1.3,1.59,1.263,1.127.835-.4,1.219-.243,1.7.513.537.836,1.254.751,1.65-.187C4540.792-1115.543,4541.065-1115.986,4541.9-1115.746Z" transform="translate(-1855.173 -358.606)" fill="#3b3b53"/>
    <path id="Trazado_213115" data-name="Trazado 213115" d="M3501.951-1038.324c.417.391.242.64-.194.834-.937.414-2.027.327-3,.929a14.859,14.859,0,0,1-.234,6.647,15.554,15.554,0,0,1-6.873,9.437c-1.415.906-1.421.914-.727,2.491q7.259,16.5,14.526,33c.657,1.491.67,1.478,2.231,1.086a15.423,15.423,0,0,1,14.987,3.876c.533.489.955,1.347,1.9.653.585-.166,1.047.271.695.611-.993.96-.224,1.618.18,2.358a15.711,15.711,0,0,1-4.4,20.22,14.636,14.636,0,0,1-9.16,3.146c-8.22-.249-14.2-5.5-15.526-13.018a15.4,15.4,0,0,1,7.351-16.181c1.292-.809,1.306-.814.692-2.206q-7.271-16.513-14.551-33.022c-.706-1.6-.713-1.6-2.5-1.145a15.7,15.7,0,0,1-19.195-11.233,15.669,15.669,0,0,1,11.384-19.1,15.673,15.673,0,0,1,18.312,9.3,6.453,6.453,0,0,1,.389,1.088c.132.621.515.631,1.012.528C3500.14-1038.208,3501-1038.722,3501.951-1038.324Zm12.3,66.09c-.6.168-1.314.232-1.131,1.3.165.968-.389,1.48-1.356,1.313a.955.955,0,0,0-1.228.573.9.9,0,0,0,.279,1.311c.9.671.839,1.41-.075,2.006-.574.374-.546.791-.327,1.316.19.455.448.748,1.011.661,1.063-.166,1.653.269,1.471,1.384a.989.989,0,0,0,.641,1.214c.583.282.938.087,1.306-.387.618-.8,1.313-.782,1.875.051a.978.978,0,0,0,1.3.456c.566-.2.719-.537.751-1.153.067-1.3.186-1.415,1.47-1.314a.89.89,0,0,0,1.051-.543c.243-.492.389-.935-.184-1.345-.874-.625-.989-1.35-.045-2a.983.983,0,0,0,.413-1.309.942.942,0,0,0-1.166-.711c-.978.125-1.507-.333-1.315-1.334a.947.947,0,0,0-.563-1.225c-.666-.342-1.032-.148-1.451.4-.545.705-1.185.684-1.77-.011C3514.966-971.868,3514.831-972.287,3514.254-972.234Zm-21.552-60.633c-.243-.464-.2-1.255-1.028-1.147-1.323.171-1.712-.346-1.587-1.648a1.038,1.038,0,0,0-1.727-.812c-.965,1.173-1.569.9-2.425-.112-.559-.663-1.617-.1-1.714.83-.154,1.474-.188,1.595-1.5,1.478-.706-.062-.9.225-1.128.725-.212.463-.244.8.238,1.151.852.616.988,1.355.066,2.025-.488.354-.7.669-.43,1.274.235.526.476.858,1.135.747.981-.165,1.515.29,1.369,1.293a1.085,1.085,0,0,0,.734,1.346c.647.286.924-.071,1.272-.487a1,1,0,0,1,1.763.031c.4.555.776.791,1.442.52.6-.243.667-.651.622-1.231-.076-.985.444-1.495,1.418-1.256a.89.89,0,0,0,1.2-.585.979.979,0,0,0-.317-1.339c-.9-.716-.687-1.42.162-2.025C3492.539-1032.282,3492.778-1032.472,3492.7-1032.867Zm-10.319-8.432c.063-1.4-.112-1.552-1.521-1.039-.708.258-1.032-.02-1.416-.556-.676-.947-1.3-.932-1.681.075-.308.824-.633,1.1-1.546.876-1.057-.261-1.562.358-1.074,1.312.428.836.274,1.2-.512,1.668-.923.551-.806,1.342.263,1.718.908.319,1,.72.747,1.574-.237.805.467,1.491,1.145,1.122.942-.513,1.428-.515,1.961.526a.87.87,0,0,0,1.6-.239c.261-1.046.722-1.121,1.659-.917s1.367-.411.938-1.366c-.378-.84-.191-1.232.539-1.716.817-.542.73-1.289-.191-1.615C3482.549-1040.14,3482.2-1040.468,3482.384-1041.3Zm28.948,64.5c.083-1.14-.319-1.545-1.339-1.078-.848.388-1.215.205-1.68-.547-.51-.825-1.292-.742-1.624.177-.342.951-.751,1.131-1.718.83-.83-.26-1.379.544-.917,1.367s.3,1.193-.477,1.672c-.952.588-.864,1.336.2,1.711.855.3,1.066.637.818,1.539-.26.951.376,1.506,1.24,1.086.907-.441,1.325-.312,1.821.571a.843.843,0,0,0,1.583-.188c.308-.952.714-1.157,1.682-.945.934.2,1.412-.466.95-1.334s-.188-1.217.5-1.7c.906-.635.809-1.228-.285-1.67C3511.339-975.61,3511.062-975.991,3511.332-976.8Z" transform="translate(-1122.422 -445.4)" fill="#36364e"/>
    <path id="Trazado_213117" data-name="Trazado 213117" d="M4094.3-715.628c.411-.808.708-1.445,1.055-2.054.146-.257.433-.214.673-.1a.45.45,0,0,1,.22.483.785.785,0,0,1-.1.366c-1.026,1.53-.153,2.264,1.064,3.167a15.529,15.529,0,0,1,5.668,16.5,15.667,15.667,0,0,1-13.379,11.47,15.6,15.6,0,0,1-17.333-13.819,15.655,15.655,0,0,1,13.36-17.235A17.47,17.47,0,0,1,4094.3-715.628Zm3.478,14.968c-.244-.778-.346-1.44-1.281-1.3-1.1.161-1.594-.362-1.341-1.461.154-.67-.22-.909-.724-1.144a.916.916,0,0,0-1.169.245c-.995.906-1.07.9-2.1-.087a.961.961,0,0,0-1.186-.266c-.393.171-.754.289-.773.919-.047,1.482-.113,1.539-1.566,1.515-.6-.01-.773.265-.974.689a.892.892,0,0,0,.137,1.179c.993,1.1.99,1.183.043,2.107-.379.371-.558.65-.359,1.142s.4.94,1.084.83c1.074-.172,1.63.293,1.45,1.4a.994.994,0,0,0,.657,1.206c.587.282.945.077,1.3-.4.529-.711,1.2-.8,1.762-.092.4.5.7.858,1.411.615s.756-.718.712-1.357c-.06-.889.445-1.358,1.312-1.176.585.123.965.123,1.254-.471a1.032,1.032,0,0,0-.333-1.485c-.815-.62-.707-1.3.083-1.881C4097.485-700.171,4097.852-700.346,4097.773-700.661Zm-10.317-8.673c.066-1.149-.33-1.557-1.326-1.091-.844.4-1.223.231-1.687-.531-.5-.824-1.307-.757-1.62.135-.329.937-.707,1.178-1.694.867-.843-.266-1.424.531-.971,1.332s.371,1.194-.425,1.687c-.957.594-.893,1.361.132,1.719.839.293,1.119.587.865,1.512-.266.965.355,1.547,1.195,1.14.875-.424,1.324-.406,1.833.513a.854.854,0,0,0,1.6-.1c.308-1.1.8-1.215,1.819-.953.747.192,1.235-.583.836-1.349-.426-.814-.273-1.219.459-1.722.917-.628.828-1.264-.234-1.679C4087.484-708.145,4087.217-708.527,4087.457-709.334Z" transform="translate(-1609.981 -712.853)" fill="#36364e"/>
    <path id="Trazado_213119" data-name="Trazado 213119" d="M4985.752-518.558c0,4.957-.009,9.914,0,14.871.008,2.44-.207,1.945,2.034,2.289,7.383,1.132,12.812,5.041,15.814,11.821,3.406,7.684,2.382,15.08-3.089,21.475s-12.626,8.587-20.738,6.378-13.082-7.791-14.657-16.032a20.248,20.248,0,0,1,17.178-23.628c2.471-.343,2.188.179,2.191-2.535q.021-14.678.006-29.356c0-.515,0-1.03.02-1.544a.543.543,0,0,1,.628-.562.556.556,0,0,1,.595.6c.013.45.013.9.013,1.352Q4985.755-525.993,4985.752-518.558Zm-19.708,37.188a19.013,19.013,0,0,0,18.874,19.178,19.019,19.019,0,0,0,19.285-18.967,19.131,19.131,0,0,0-19.074-19.233A19.121,19.121,0,0,0,4966.045-481.37Z" transform="translate(-2330.106 -860.065)" fill="#46465d"/>
    <path id="Trazado_213120" data-name="Trazado 213120" d="M3611.384-518.257q0,7.438,0,14.876c0,2.287-.149,1.9,1.934,2.192a19.953,19.953,0,0,1,14.751,9.495,20.239,20.239,0,0,1-.683,22.393,20.347,20.347,0,0,1-21.084,8.093,20.463,20.463,0,0,1-15.491-16,20.337,20.337,0,0,1,17.24-23.94,9.493,9.493,0,0,1,1.147-.16c.757-.009,1-.387.957-1.1-.039-.642-.007-1.288-.007-1.932,0-9.659-.015-19.319.036-28.978,0-.6-.658-1.85.67-1.774.961.054.5,1.153.5,1.764C3611.4-528.3,3611.384-523.28,3611.384-518.257Zm18.481,37.287a19.114,19.114,0,0,0-19.105-19.188,19.2,19.2,0,0,0-19.084,19.065,19.1,19.1,0,0,0,18.961,19.134A18.989,18.989,0,0,0,3629.865-480.97Z" transform="translate(-1221.471 -860.298)" fill="#46465d"/>
    <path id="Trazado_213121" data-name="Trazado 213121" d="M4527.328-518.641q0,7.729,0,15.458c0,1.426.016,1.487,1.429,1.646a20.407,20.407,0,0,1,10.738,4.428,20.294,20.294,0,0,1,6.439,22.467,20.229,20.229,0,0,1-19.162,13.633,20.173,20.173,0,0,1-20.3-18.848,20.264,20.264,0,0,1,16.266-21.384c.879-.186,1.783-.27,2.678-.372a.659.659,0,0,0,.67-.749c0-.515.008-1.03.008-1.546q0-14.685,0-29.37,0-.773.006-1.546a.542.542,0,0,1,.585-.6.52.52,0,0,1,.618.555c.014.451.014.9.014,1.352Q4527.329-526.08,4527.328-518.641Zm18.488,37.337a19.128,19.128,0,0,0-18.978-19.133,19.23,19.23,0,0,0-19.221,19.137,19.113,19.113,0,0,0,19.031,19.072A19,19,0,0,0,4545.816-481.3Z" transform="translate(-1960.359 -860.029)" fill="#46465d"/>
    <path id="Trazado_213122" data-name="Trazado 213122" d="M4068.974-518.61c0,4.895-.016,9.79.005,14.685.012,2.715-.331,2.147,2.176,2.54,6.908,1.082,12.139,4.649,15.255,10.872,3.846,7.682,3.127,15.211-2.231,21.91s-12.623,9.106-20.908,6.942-13.374-7.781-14.888-16.25a20.184,20.184,0,0,1,17.329-23.495c2.273-.319,2.043.191,2.045-2.257q.015-14.782,0-29.563c0-.515.008-1.03,0-1.546a.539.539,0,0,1,.57-.613.52.52,0,0,1,.624.544c.013.451.012.9.012,1.352Q4068.974-526.049,4068.974-518.61Zm-.512,56.414a19.05,19.05,0,0,0,19.014-19.064,19.179,19.179,0,0,0-19.187-19.147,19.215,19.215,0,0,0-19.03,19.127A19.09,19.09,0,0,0,4068.462-462.2Z" transform="translate(-1590.617 -860.062)" fill="#46465d"/>
    <path id="Trazado_213123" data-name="Trazado 213123" d="M4258.855-1155.517l.009.587q-5.2,12.765-10.394,25.528-7.983,19.547-15.982,39.084c-.219.534-.466,1.059-.732,1.571a.486.486,0,0,1-.657.215.453.453,0,0,1-.29-.607c.211-.607.428-1.211.67-1.805q12.409-30.337,24.826-60.673c.315-.768.6-1.547.916-2.362-.984-.785-1.16.652-1.829.683q0-.618,0-1.235l.037-.024c.7.029,1.161-.215,1.115-1.013A5.141,5.141,0,0,1,4258.855-1155.517Z" transform="translate(-1738.008 -359.686)" fill="#36364e"/>
    <path id="Trazado_213124" data-name="Trazado 213124" d="M4003.1-57.31c.657-1.779,1.209-3.265,1.755-4.754.609-1.656.607-1.657,2.573-1.432,0,2.546,0,5.11,0,7.674,0,.424-.084.739-.616.764-.656.032-.7-.371-.722-.861a28.255,28.255,0,0,0-.165-4.691c-.788.571-.81,1.4-1.093,2.067-.35.827-.633,1.684-.916,2.537-.171.514-.342.964-1.016.95-.7-.015-.787-.56-.954-1.031-.408-1.15-.793-2.308-1.2-3.459a1.923,1.923,0,0,0-.793-1.274c0,1.716,0,3.277,0,4.839,0,.47-.029.917-.687.91s-.691-.45-.693-.921c0-2.188,0-4.376-.006-6.564,0-.518-.08-1.113.7-1.085.582.021,1.308-.311,1.591.624.315,1.044.709,2.065,1.088,3.088A8.88,8.88,0,0,0,4003.1-57.31Z" transform="translate(-1550.69 -1240.577)" fill="#1a1a1a"/>
    <path id="Trazado_213126" data-name="Trazado 213126" d="M4240.776-48.879a15.4,15.4,0,0,0,1.512-3.682c.317-.9.8-1.043,1.727-.629-.7,1.86-1.393,3.7-2.079,5.55a1.058,1.058,0,0,1-1.15.787.98.98,0,0,1-.965-.766c-.618-1.619-1.228-3.241-1.833-4.841-.15-.056-.292-.167-.38-.134-2.66.987-2.639.99-2.734,4.158-.018.588.436,1.623-.8,1.533-1.038-.076-.563-.985-.588-1.524-.063-1.412-.012-2.828-.021-4.243,0-.573.4-1.034.774-.666.634.628.982.49,1.626.066.915-.6,1.974.062,2.979-.079.458-.065.476.527.6.87C4239.858-51.407,4240.246-50.328,4240.776-48.879Z" transform="translate(-1740.126 -1248.768)" fill="#1a1a1a"/>
    <path id="Trazado_213127" data-name="Trazado 213127" d="M4609.707-52.27c-1.665,0-2.553-.578-3-1.839a4.015,4.015,0,0,1,.884-4.28c.865-.689,2.868-.975,3.594-.186.708.769.9.157,1.315-.1a2.143,2.143,0,0,0,.846-1.246.536.536,0,0,1,.593-.385.513.513,0,0,1,.435.553c-.029.659.252.934.922.862.381-.041.813-.038.849.511.033.529-.328.658-.753.607-.942-.113-1.054.434-1,1.168.027.384,0,.772.005,1.158.016,1.008-.242,2.206,1.461,2.009.291-.033.423.222.391.524a.637.637,0,0,1-.441.568,2.015,2.015,0,0,1-2.865-1.859c-.061-.832.009-1.673-.026-2.508-.051-1.2-.631-1.591-1.753-1.082-.542.247-1,0-1.492.033-1.229.077-1.763.776-1.711,2.281.048,1.38.59,1.986,1.792,1.993.191,0,.384-.046.575-.048.373-.005.931-.511,1.013.319.056.569-.362.782-.831.876A6.291,6.291,0,0,1,4609.707-52.27Z" transform="translate(-2041.06 -1243.291)" fill="#1a1a1a"/>
    <path id="Trazado_213129" data-name="Trazado 213129" d="M4493.286-63.651a5.9,5.9,0,0,1,1.922-.512c1.4.012,2.212.6,2.346,2,.122,1.273.044,2.564.059,3.847.005.563-.261.809-.825.785-.5-.02-.652-.314-.654-.749-.005-1.091-.006-2.182-.016-3.273-.007-.8-.258-1.392-1.192-1.4a1.341,1.341,0,0,0-1.548,1.338c-.069,1.023-.07,2.05-.09,3.076-.01.547-.037,1.041-.8,1.014-.652-.023-.66-.458-.66-.929q0-3.658,0-7.316c0-.455-.032-.922.63-.964.742-.046.826.42.822.986C4493.28-65.113,4493.286-64.477,4493.286-63.651Z" transform="translate(-1948.596 -1238.11)" fill="#1a1a1a"/>
    <path id="Trazado_213130" data-name="Trazado 213130" d="M4388.747-55.426c.958-2.57,1.928-5.123,2.854-7.693a.923.923,0,0,1,.981-.707,1.008,1.008,0,0,1,1.146.747c.834,2.349,1.739,4.673,2.6,7.011.1.278.279.667-.123.824a.879.879,0,0,1-1.064-.151,2.628,2.628,0,0,1-.454-1.042c-.246-1.234-1.167-1.1-2.063-1.105s-1.822-.135-2.037,1.139C4390.436-55.478,4390.007-54.839,4388.747-55.426Zm3.894-6.643a8.519,8.519,0,0,0-.96,3.168,3.35,3.35,0,0,0,2.061-.152A12.761,12.761,0,0,0,4392.641-62.069Z" transform="translate(-1865.439 -1240.46)" fill="#1a1a1a"/>
    <path id="Trazado_213134" data-name="Trazado 213134" d="M4669.205-49.647c0,.515.005,1.03,0,1.545-.02,1.3-.021,1.279-1.433,1.21-.285-.014-.577.2-.871.291-2.2.655-3.375-.166-3.431-2.413-.027-1.029-.01-2.06,0-3.09,0-.45-.042-.915.648-.931.643-.015.731.359.729.859,0,.966-.021,1.932.012,2.9.026.79.1,1.591,1.163,1.684.974.086,1.6-.464,1.706-1.652.089-1.023.048-2.058.047-3.088,0-.479.21-.692.688-.694s.723.208.726.679c.008.9,0,1.8,0,2.7Z" transform="translate(-2087.041 -1249.165)" fill="#1a1a1a"/>
    <path id="Trazado_213135" data-name="Trazado 213135" d="M4574.756-47.992c.133-.02.453-.049.764-.12.327-.075.648-.157.739.292a.639.639,0,0,1-.439.757,4.464,4.464,0,0,1-3.01.08c-1.61-.521-2.331-2.32-1.818-4.329a2.815,2.815,0,0,1,3.517-2.147,2.426,2.426,0,0,1,1.924,1.682c.513,1.468.179,1.911-1.4,1.925-.576.005-1.152,0-1.728.005-.313,0-.694-.04-.824.309a1.053,1.053,0,0,0,.316,1.049C4573.27-47.943,4573.919-47.944,4574.756-47.992Zm-2.352-2.837a9.758,9.758,0,0,0,2.718-.16c.012-.9-.409-1.372-1.237-1.4C4573.086-52.415,4572.56-52.029,4572.4-50.829Z" transform="translate(-2012.322 -1248.763)" fill="#1a1a1a"/>
    <path id="Trazado_213137" data-name="Trazado 213137" d="M4343.513-48.033c.117-.019.438-.056.752-.122s.64-.167.727.3a.667.667,0,0,1-.441.755,3.8,3.8,0,0,1-4.508-1.082,4,4,0,0,1,.64-4.782,3.033,3.033,0,0,1,3.105-.344,2.836,2.836,0,0,1,1.576,2.67c0,.627-.337.752-.85.75-.834,0-1.67,0-2.506,0-.313,0-.681-.057-.81.326a.994.994,0,0,0,.2.9C4341.884-47.982,4342.59-47.975,4343.513-48.033Zm-1.105-2.82c.488-.154,1.316.337,1.391-.5.065-.733-.588-1.086-1.294-1.076s-1.331.361-1.3,1.1C4341.229-50.565,4341.984-50.985,4342.408-50.852Z" transform="translate(-1825.737 -1248.728)" fill="#1a1a1a"/>
    <path id="Trazado_213138" data-name="Trazado 213138" d="M4199.164-46.812a2.852,2.852,0,0,1-3.07-1.833,3.8,3.8,0,0,1,.552-3.99,3.078,3.078,0,0,1,3.372-.685,2.857,2.857,0,0,1,1.6,2.655c.006.582-.221.81-.786.8-.9-.013-1.8-.03-2.7.014-.738.036-.928.526-.507,1.15a1.576,1.576,0,0,0,1.488.713,14.94,14.94,0,0,0,1.528-.17c.274-.043.5-.074.58.269a.6.6,0,0,1-.2.684A3.165,3.165,0,0,1,4199.164-46.812Zm-.436-4.019c.468-.155,1.284.343,1.319-.57.026-.663-.538-.956-1.168-1-.764-.054-1.6.594-1.439,1.161C4197.641-50.538,4198.294-50.972,4198.728-50.832Z" transform="translate(-1709.77 -1248.75)" fill="#1a1a1a"/>
    <path id="Trazado_213140" data-name="Trazado 213140" d="M4134.119-50.116c.034,2.086-1.121,3.4-3.017,3.429-1.913.029-3.123-1.229-3.167-3.293-.044-2.1,1.082-3.38,3.01-3.411S4134.084-52.178,4134.119-50.116Zm-1.505.094c0-1.169-.3-1.87-1.008-2.083a1.514,1.514,0,0,0-1.753.4,3.48,3.48,0,0,0-.019,3.284,1.448,1.448,0,0,0,1.733.457C4132.53-48.3,4132.607-49.159,4132.614-50.022Z" transform="translate(-1655.047 -1248.877)" fill="#1a1a1a"/>
    <path id="Trazado_213141" data-name="Trazado 213141" d="M4733.541-49.731c-1.178,0-2.2-.01-3.225.005-.354.005-.814-.129-.937.4a1.053,1.053,0,0,0,.4,1.026c.706.67,1.557.422,2.38.376.371-.02.942-.5,1.029.311.062.592-.448.745-.881.828-3.381.643-4.774-1.2-4.532-3.747a2.826,2.826,0,0,1,2.806-2.847c1.73-.064,2.647.74,2.956,2.611A8.488,8.488,0,0,1,4733.541-49.731Zm-4.243-1.09c.4.05.647.1.9.107q.474.023.95,0c.358-.016.832.094.876-.447a.993.993,0,0,0-.555-.927C4730.638-52.569,4729.966-52.223,4729.3-50.821Z" transform="translate(-2138.905 -1248.882)" fill="#1a1a1a"/>
    <path id="Trazado_213145" data-name="Trazado 213145" d="M4168.6-52.314a5.139,5.139,0,0,0-.643.006c-.249.027-.523.069-.617.359a.626.626,0,0,0,.37.789c.573.292,1.171.531,1.75.809a1.729,1.729,0,0,1,1.067,1.866,1.75,1.75,0,0,1-1.456,1.594,5.378,5.378,0,0,1-2.678-.015.722.722,0,0,1-.6-.85c.078-.667.494-.341.837-.3a16.271,16.271,0,0,0,1.725.126.673.673,0,0,0,.714-.532.749.749,0,0,0-.458-.778c-.573-.29-1.166-.54-1.738-.83a1.716,1.716,0,0,1-1.073-1.866,1.7,1.7,0,0,1,1.58-1.453,5.264,5.264,0,0,1,2.3.079c.289.075.679.192.615.591s-.3.708-.806.574C4169.235-52.212,4168.978-52.243,4168.6-52.314Z" transform="translate(-1685.573 -1248.804)" fill="#1a1a1a"/>
    <path id="Trazado_213149" data-name="Trazado 213149" d="M4549.682-61.568c.39.854.3,1.94,1.539,1.673a.5.5,0,0,1,.621.539c.008.406-.244.534-.6.565a1.8,1.8,0,0,0-1.231.309c0,.658.017,1.416,0,2.172-.026,1.034-.018,2.009,1.468,1.835.326-.038.42.21.425.494a.575.575,0,0,1-.361.6,1.994,1.994,0,0,1-2.867-1.6c-.079-.7-.036-1.411-.046-2.117a7.1,7.1,0,0,0-.012-.963C4548.337-59.849,4548.331-59.848,4549.682-61.568Z" transform="translate(-1994.281 -1242.282)" fill="#1a1a1a"/>
    <path id="Trazado_213150" data-name="Trazado 213150" d="M4073.988-48.247c.125-.025.252-.047.376-.075.3-.067.633-.252.759.23a.747.747,0,0,1-.492.921,3.208,3.208,0,0,1-3.9-1.163,4.164,4.164,0,0,1,.048-4.061,3.351,3.351,0,0,1,3.938-1.162c.254.1.455.261.417.557a.642.642,0,0,1-.6.632,2.862,2.862,0,0,1-.567-.079c-.808-.11-1.539-.061-1.962.8a3.274,3.274,0,0,0,.217,2.939A1.831,1.831,0,0,0,4073.988-48.247Z" transform="translate(-1608.492 -1248.566)" fill="#1a1a1a"/>
    <path id="Trazado_213152" data-name="Trazado 213152" d="M4312.545-52.175c-1.545-.021-2.19.667-2.132,2.243.057,1.5.681,2.039,2.172,2,.393-.01,1.073-.723,1.2.252.1.794-.581.889-1.166.941-1.266.113-2.445-.012-3.184-1.255a4.6,4.6,0,0,1,.2-4.391c.933-1.184,2.217-1.113,3.515-.949.421.053.735.254.636.753a.588.588,0,0,1-.7.5C4312.892-52.1,4312.7-52.147,4312.545-52.175Z" transform="translate(-1801.082 -1248.851)" fill="#1a1a1a"/>
    <path id="Trazado_213154" data-name="Trazado 213154" d="M4462.552-52.583c-1.436-.019-2.081.668-2.012,2.255.066,1.512.687,2.065,2.208,1.963.127-.009.253-.045.381-.066.282-.047.625-.3.753.205a.747.747,0,0,1-.458.937,3.134,3.134,0,0,1-3.991-1.367,4.538,4.538,0,0,1,0-3.576,3.307,3.307,0,0,1,4.162-1.42.547.547,0,0,1,.3.639c-.058.27-.181.495-.482.505A7.471,7.471,0,0,1,4462.552-52.583Z" transform="translate(-1922.166 -1248.444)" fill="#1a1a1a"/>
    <path id="Trazado_213157" data-name="Trazado 213157" d="M4103.3-50.168c0-.643-.015-1.287,0-1.929.028-1.182.056-1.225,1.246-.649.342.165.428,0,.61-.12a1.98,1.98,0,0,1,1.028-.495c.412-.009.963-.241,1.062.446.082.565-.26.695-.779.835-1.471.4-1.725.779-1.786,2.291-.032.771-.017,1.543-.014,2.315,0,.458-.172.709-.673.707s-.692-.235-.687-.7c0-.064-.006-.129-.006-.193Q4103.3-48.914,4103.3-50.168Z" transform="translate(-1635.167 -1248.865)" fill="#1a1a1a"/>
    <path id="Trazado_213158" data-name="Trazado 213158" d="M4702.928-50.176c0-.578-.02-1.157.006-1.734.018-.431-.178-.957.234-1.259.506-.37.78.06,1.064.431.25.325.424-.016.609-.138a1.915,1.915,0,0,1,1.034-.471c.41,0,.966-.228,1.026.485.038.438-.187.638-.637.788-1.8.6-1.894.76-1.929,2.535-.016.706-.01,1.413-.01,2.12,0,.484-.247.674-.719.667-.5-.007-.669-.279-.669-.726q0-1.349,0-2.7Z" transform="translate(-2118.864 -1248.885)" fill="#1a1a1a"/>
    <path id="Trazado_213159" data-name="Trazado 213159" d="M3981.151-1086.739c.126.617-.437.553-.714.619q-7.3,1.717-14.607,3.371c-.414.095-1.065.468-.914-.51-.117-.614.442-.547.721-.613q7.283-1.712,14.581-3.363C3980.628-1087.329,3981.275-1087.716,3981.151-1086.739Z" transform="translate(-1523.525 -414.77)" fill="#36364e"/>
    <path id="Trazado_213160" data-name="Trazado 213160" d="M4212.989-1140.965c.215.177.359.431.125.625a2.126,2.126,0,0,1-.86.4q-7.391,1.72-14.783,3.411c-.45.1-.966.239-.721-.566-.111-.617.45-.544.729-.61,4.944-1.167,9.9-2.3,14.844-3.448A.548.548,0,0,1,4212.989-1140.965Z" transform="translate(-1710.509 -371.371)" fill="#36364e"/>
    <path id="Trazado_213161" data-name="Trazado 213161" d="M4434.13-50.268c0-.577-.019-1.155.007-1.732.019-.432-.17-.943.235-1.267.465-.371.762.094,1.139.29.546.285.879-.4,1.372-.446.413-.036.973-.333,1.168.254.189.569-.084.841-.751,1.006-1.416.35-1.62.706-1.676,2.141-.031.769-.013,1.539-.01,2.309,0,.519-.154.852-.765.838-.627-.014-.717-.4-.717-.893q0-1.251,0-2.5Z" transform="translate(-1902.033 -1248.766)" fill="#1a1a1a"/>
    <path id="Trazado_213164" data-name="Trazado 213164" d="M4296.624-1155.876q-6.405,1.509-12.813,3.012c-.417.1-1.061.457-.9-.514-.112-.616.449-.546.728-.611,3.561-.831,7.128-1.625,10.693-2.428.333.347.575-.054.859-.1a2.949,2.949,0,0,1,1.445.082Q4296.627-1156.156,4296.624-1155.876Z" transform="translate(-1780.041 -358.958)" fill="#36364e"/>
    <path id="Trazado_213165" data-name="Trazado 213165" d="M3915.175-1067.119c.286.254.377.575-.019.731a13.122,13.122,0,0,1-1.828.515q-4.18.985-8.364,1.945c-.331.076-.715.381-1.008-.092-.283-.256-.374-.577.023-.732a13.221,13.221,0,0,1,1.828-.515q4.18-.985,8.365-1.945C3914.5-1067.288,3914.885-1067.6,3915.175-1067.119Z" transform="translate(-1474.17 -430.911)" fill="#36364e"/>
    <path id="Trazado_213166" data-name="Trazado 213166" d="M3743.163-1027.048c.285.255.361.527-.015.745a6.252,6.252,0,0,1-1.83.512c-2.792.642-5.579,1.3-8.372,1.939-.331.076-.715.383-1.006-.1-.215-.176-.361-.469-.129-.62a3.934,3.934,0,0,1,1.226-.483c2.839-.673,5.677-1.345,8.531-1.956C3742.068-1027.114,3742.623-1027.566,3743.163-1027.048Z" transform="translate(-1335.406 -463.25)" fill="#36364e"/>
    <path id="Trazado_213167" data-name="Trazado 213167" d="M3829.162-1047.069c.282.254.38.576-.019.733a13.192,13.192,0,0,1-1.829.515q-4.184.986-8.372,1.947c-.329.075-.713.39-1-.094-.214-.176-.365-.462-.126-.616a3.932,3.932,0,0,1,1.221-.488c2.841-.672,5.68-1.345,8.534-1.956C3828.069-1047.135,3828.625-1047.6,3829.162-1047.069Z" transform="translate(-1404.781 -447.096)" fill="#36364e"/>
    <path id="Trazado_213168" data-name="Trazado 213168" d="M4147.179-1121.085c.291.255.356.532-.015.746a6.317,6.317,0,0,1-1.832.508c-2.792.64-5.582,1.3-8.375,1.941-.329.075-.713.393-1-.1-.214-.176-.354-.43-.127-.624a3.13,3.13,0,0,1,1.411-.523c2.723-.627,5.434-1.3,8.167-1.877C4145.967-1121.128,4146.572-1121.638,4147.179-1121.085Z" transform="translate(-1661.323 -387.385)" fill="#36364e"/>
    <path id="Trazado_213169" data-name="Trazado 213169" d="M4061.181-1101.064c.291.255.355.53-.015.747a6.2,6.2,0,0,1-1.832.51c-2.794.641-5.583,1.3-8.376,1.941-.329.075-.712.394-1-.1-.213-.176-.354-.43-.126-.624a3.171,3.171,0,0,1,1.412-.522c2.72-.627,5.433-1.3,8.162-1.876C4059.967-1101.106,4060.572-1101.607,4061.181-1101.064Z" transform="translate(-1591.95 -403.54)" fill="#36364e"/>
    <path id="Trazado_213170" data-name="Trazado 213170" d="M4295.092-49.576c0,.828,0,1.657,0,2.485,0,.473-.263.658-.726.661-.514,0-.649-.3-.651-.725q-.005-2.581.007-5.162c0-.465.235-.671.71-.66.495.012.663.291.668.725.005.892,0,1.784,0,2.676Z" transform="translate(-1788.776 -1249.211)" fill="#1a1a1a"/>
    <path id="Trazado_213174" data-name="Trazado 213174" d="M4056.783-49.676c0,.827.009,1.655,0,2.482-.005.4-.069.762-.61.761-.444,0-.737-.143-.737-.633,0-1.782,0-3.563.008-5.344,0-.372.224-.547.6-.568.464-.027.726.155.729.631.007.891,0,1.781,0,2.672Z" transform="translate(-1596.56 -1249.208)" fill="#1a1a1a"/>
    <path id="Trazado_213175" data-name="Trazado 213175" d="M4531.342-49.95c0-.764,0-1.528,0-2.291,0-.417.114-.723.627-.754.631-.038.736.335.736.831,0,1.655,0,3.31,0,4.965,0,.4-.086.741-.619.756-.612.018-.751-.323-.748-.834.006-.891,0-1.782,0-2.673Z" transform="translate(-1980.463 -1249.195)" fill="#1a1a1a"/>
    <path id="Trazado_213176" data-name="Trazado 213176" d="M4210.606-797.336q1.494-3.748,2.993-7.494c.1-.237.222-.461.339-.689a.555.555,0,0,1,.788-.291c.265.122.287.391.224.657a1.067,1.067,0,0,1-.066.181,78,78,0,0,1-3.313,7.748Z" transform="translate(-1721.736 -641.86)" fill="#36364e"/>
    <path id="Trazado_213177" data-name="Trazado 213177" d="M4198.8-760.8c-.706,2.478-1.857,4.782-2.792,7.17a2.013,2.013,0,0,1-.295.5.513.513,0,0,1-.683.123.391.391,0,0,1-.233-.47,7.541,7.541,0,0,1,.211-.738q1.383-3.287,2.783-6.567Z" transform="translate(-1708.969 -678.222)" fill="#36364e"/>
    <path id="Trazado_213178" data-name="Trazado 213178" d="M3678.136-1006.164c.216.175.362.542.139.614-2.06.672-4.093,1.516-6.335,1.327-.279-.253-.382-.622.016-.727C3673.989-1005.485,3675.957-1006.373,3678.136-1006.164Z" transform="translate(-1287.006 -480.268)" fill="#36364e"/>
    <path id="Trazado_213179" data-name="Trazado 213179" d="M3711.416-1012.63c.137.34-.1.438-.345.5-1.236.3-2.471.605-3.714.873-.433.093-.768-.03-.579-.6-.113-.485.3-.488.561-.553q1.753-.441,3.525-.816C3711.314-1013.321,3711.625-1013.192,3711.416-1012.63Z" transform="translate(-1315.264 -474.574)" fill="#36364e"/>
    <path id="Trazado_213180" data-name="Trazado 213180" d="M3651.342-998.6c.137.348-.111.435-.355.494-1.245.3-2.489.607-3.74.881-.46.1-.76-.042-.542-.6-.132-.341.108-.435.35-.494,1.231-.3,2.461-.6,3.7-.867C3651.181-999.277,3651.519-999.166,3651.342-998.6Z" transform="translate(-1266.789 -485.9)" fill="#36364e"/>
    <path id="Trazado_213181" data-name="Trazado 213181" d="M3883.345-1052.594c.107.334-.112.442-.366.5-1.241.3-2.48.606-3.728.877-.456.1-.761-.046-.544-.606-.13-.341.111-.433.353-.491,1.23-.3,2.462-.6,3.7-.868C3883.188-1053.273,3883.525-1053.165,3883.345-1052.594Z" transform="translate(-1453.942 -442.343)" fill="#36364e"/>
    <path id="Trazado_213182" data-name="Trazado 213182" d="M3797.33-1032.645c.139.348-.108.439-.353.5-1.246.3-2.492.611-3.746.885-.464.1-.759-.052-.536-.609-.134-.349.118-.432.359-.49,1.241-.3,2.482-.607,3.728-.881C3797.236-1033.342,3797.543-1033.207,3797.33-1032.645Z" transform="translate(-1384.554 -458.426)" fill="#36364e"/>
    <path id="Trazado_213183" data-name="Trazado 213183" d="M4115.329-1106.642c.14.347-.108.44-.352.5-1.247.3-2.495.612-3.748.885-.465.1-.76-.055-.536-.611-.135-.349.118-.431.359-.49,1.241-.3,2.483-.606,3.729-.88C4115.238-1107.34,4115.541-1107.2,4115.329-1106.642Z" transform="translate(-1641.077 -398.734)" fill="#36364e"/>
    <path id="Trazado_213184" data-name="Trazado 213184" d="M3786.081-712.655a8.277,8.277,0,0,1,2.14-1.652l1.342.171a19.17,19.17,0,0,1-3.482,2.713Z" transform="translate(-1379.28 -715.729)" fill="#36364e"/>
    <path id="Trazado_213185" data-name="Trazado 213185" d="M3923.9-823.907a19.432,19.432,0,0,1,3.482-2.711q0,.616,0,1.232a8.252,8.252,0,0,1-2.143,1.653Z" transform="translate(-1490.455 -625.129)" fill="#36364e"/>
    <path id="Trazado_213186" data-name="Trazado 213186" d="M4322.078-1128.66a8.258,8.258,0,0,1,2.139-1.651l1.342.171a19.323,19.323,0,0,1-3.481,2.712Z" transform="translate(-1811.659 -380.147)" fill="#36364e"/>
    <path id="Trazado_213187" data-name="Trazado 213187" d="M4295.021-64.649a.764.764,0,0,1-.8.685.711.711,0,0,1-.7-.925c.079-.494.424-.59.841-.545A.7.7,0,0,1,4295.021-64.649Z" transform="translate(-1788.613 -1239.155)" fill="#1a1a1a"/>
    <path id="Trazado_213188" data-name="Trazado 213188" d="M4531.75-65.5a.662.662,0,0,1,.745.691.7.7,0,0,1-.653.791.72.72,0,0,1-.838-.8A.676.676,0,0,1,4531.75-65.5Z" transform="translate(-1980.195 -1239.109)" fill="#1a1a1a"/>
    <path id="Trazado_213190" data-name="Trazado 213190" d="M3825.991-747.888a23.823,23.823,0,0,1,3.089-2.47c.408-.3.81-.346.982.285-.576,1.179-1.737,1.688-2.736,2.382Z" transform="translate(-1411.475 -686.476)" fill="#36364e"/>
    <path id="Trazado_213191" data-name="Trazado 213191" d="M4055.851-63.978a.743.743,0,0,1-.795-.66c-.067-.547.228-.828.769-.834a.652.652,0,0,1,.709.713A.741.741,0,0,1,4055.851-63.978Z" transform="translate(-1596.249 -1239.132)" fill="#1a1a1a"/>
    <path id="Trazado_213192" data-name="Trazado 213192" d="M4304.07-1114.67a8.242,8.242,0,0,1,2.134-1.647l1.35.162a14.364,14.364,0,0,1-2.933,2.3A.837.837,0,0,1,4304.07-1114.67Z" transform="translate(-1797.132 -391.435)" fill="#36364e"/>
    <path id="Trazado_213193" data-name="Trazado 213193" d="M4170.072-1011.225c.862-.652,1.453-1.712,2.7-1.782.519.14.572.5.235.8a11.908,11.908,0,0,1-2.381,1.795A.837.837,0,0,1,4170.072-1011.225Z" transform="translate(-1689.038 -474.774)" fill="#36364e"/>
    <path id="Trazado_213194" data-name="Trazado 213194" d="M3980.127-863.814c-.522-.138-.574-.5-.237-.8a11.686,11.686,0,0,1,2.386-1.8.836.836,0,0,1,.544.816C3981.962-864.942,3981.37-863.886,3980.127-863.814Z" transform="translate(-1535.45 -593.03)" fill="#36364e"/>
    <path id="Trazado_213197" data-name="Trazado 213197" d="M4209.911-1039.195a3.3,3.3,0,0,1,1.405-1.107l1.339.173a3.316,3.316,0,0,1-1.4,1.1Z" transform="translate(-1721.175 -452.756)" fill="#36364e"/>
    <path id="Trazado_213198" data-name="Trazado 213198" d="M4093.983-950.644a5.965,5.965,0,0,1,1.633-1.318c.333-.2.6-.125.693.3.183.825-.521.927-.993,1.218Z" transform="translate(-1627.659 -523.931)" fill="#36364e"/>
    <path id="Trazado_213199" data-name="Trazado 213199" d="M4075.951-935.22a3.484,3.484,0,0,1,1.4-1.082l1.316.209a3.352,3.352,0,0,1-1.379,1.07Z" transform="translate(-1613.113 -536.65)" fill="#36364e"/>
    <path id="Trazado_213200" data-name="Trazado 213200" d="M4289.989-1101.264a3.412,3.412,0,0,1,1.37-1.06l1.335.2a3.431,3.431,0,0,1-1.4,1.08Z" transform="translate(-1785.773 -402.723)" fill="#36364e"/>
    <path id="Trazado_213201" data-name="Trazado 213201" d="M3941.9-831.187a3.31,3.31,0,0,1,1.408-1.114l1.338.173a3.293,3.293,0,0,1-1.4,1.1Z" transform="translate(-1504.973 -620.546)" fill="#36364e"/>
    <path id="Trazado_213202" data-name="Trazado 213202" d="M4155.867-997.222a3.312,3.312,0,0,1,1.4-1.1l1.335.2a3.442,3.442,0,0,1-1.4,1.081Z" transform="translate(-1677.58 -486.62)" fill="#36364e"/>
    <path id="Trazado_213203" data-name="Trazado 213203" d="M4264.031-1082.624a6.089,6.089,0,0,1,1.625-1.313c.332-.2.6-.13.691.29.2.828-.51.928-.978,1.22Z" transform="translate(-1764.834 -417.468)" fill="#36364e"/>
    <path id="Trazado_213204" data-name="Trazado 213204" d="M4112.038-964.642a6.033,6.033,0,0,1,1.625-1.309c.333-.2.6-.125.689.294.19.824-.511.93-.983,1.219Z" transform="translate(-1642.224 -512.647)" fill="#36364e"/>
    <path id="Trazado_213205" data-name="Trazado 213205" d="M3807.917-727.193a3.332,3.332,0,0,1,1.406-1.108l1.314.21a3.366,3.366,0,0,1-1.376,1.068Z" transform="translate(-1396.895 -704.44)" fill="#36364e"/>
    <path id="Trazado_213206" data-name="Trazado 213206" d="M3773.871-699.089c-.195-.832.519-.93.989-1.225l1.349.164a5.486,5.486,0,0,1-1.684,1.369C3774.2-698.589,3773.958-698.707,3773.871-699.089Z" transform="translate(-1369.404 -727.017)" fill="#36364e"/>
    <path id="Trazado_213207" data-name="Trazado 213207" d="M3996.043-874.619a6.027,6.027,0,0,1,1.624-1.312c.33-.2.6-.132.691.288.2.828-.507.928-.976,1.221Z" transform="translate(-1548.653 -585.262)" fill="#36364e"/>
    <path id="Trazado_213208" data-name="Trazado 213208" d="M4059.879-921.087c-.189-.829.521-.929.992-1.224l1.321.205a5.816,5.816,0,0,1-1.622,1.313C4060.239-920.593,4059.973-920.669,4059.879-921.087Z" transform="translate(-1600.123 -547.936)" fill="#36364e"/>
    <path id="Trazado_213209" data-name="Trazado 213209" d="M4193.88-1025.087c-.188-.828.519-.932.991-1.224l1.343.17a5.471,5.471,0,0,1-1.683,1.364C4194.208-1024.586,4193.966-1024.705,4193.88-1025.087Z" transform="translate(-1708.219 -464.041)" fill="#36364e"/>
    <path id="Trazado_213210" data-name="Trazado 213210" d="M4246.01-1067.2a3.4,3.4,0,0,1,1.4-1.08l1.329.176a3.327,3.327,0,0,1-1.392,1.1Z" transform="translate(-1750.296 -430.184)" fill="#36364e"/>
    <path id="Trazado_213211" data-name="Trazado 213211" d="M4130.065-978.63a6.1,6.1,0,0,1,1.624-1.306c.329-.2.594-.128.687.291.2.827-.507.93-.978,1.221Z" transform="translate(-1656.766 -501.365)" fill="#36364e"/>
    <path id="Trazado_213212" data-name="Trazado 213212" d="M3908.006-803.65c.042-1,.676-1.315,1.55-1.36a.56.56,0,0,1,.167.089c.537.6-.058.9-.4,1.108C3908.953-803.593,3908.547-802.736,3908.006-803.65Z" transform="translate(-1477.635 -642.561)" fill="#36364e"/>
    <path id="Trazado_213213" data-name="Trazado 213213" d="M3887.873-789.789c.577-.534,1.009-1.3,1.963-1.233.49.13.573.442.255.784a5.09,5.09,0,0,1-.889.625Z" transform="translate(-1461.394 -653.841)" fill="#36364e"/>
    <path id="Trazado_213214" data-name="Trazado 213214" d="M3862.053-769.953c.459-.383.911-.773,1.377-1.146.212-.169.423-.172.55.122.466.593.466.593-.59,1.221Z" transform="translate(-1440.565 -669.823)" fill="#36364e"/>
    <path id="Trazado_213215" data-name="Trazado 213215" d="M3846.794-754.863c-.716.175-.946-.159-.642-.752.153-.295.581-.448.883-.665l1.3.217A4.434,4.434,0,0,1,3846.794-754.863Z" transform="translate(-1427.632 -681.87)" fill="#36364e"/>
    <path id="Trazado_213216" data-name="Trazado 213216" d="M4230.113-1052.879c-.489-.124-.588-.432-.27-.782a4.979,4.979,0,0,1,.889-.633l1.336.175C4231.5-1053.578,4231.057-1052.833,4230.113-1052.879Z" transform="translate(-1737.107 -441.468)" fill="#36364e"/>
    <path id="Trazado_213217" data-name="Trazado 213217" d="M4346.1-1142.888c-.488-.122-.6-.428-.276-.781a4.92,4.92,0,0,1,.887-.636l1.344.166C4347.484-1143.589,4347.038-1142.854,4346.1-1142.888Z" transform="translate(-1830.665 -368.858)" fill="#36364e"/>
    <path id="Trazado_213218" data-name="Trazado 213218" d="M4039.877-907.788c.577-.534,1.011-1.3,1.962-1.235.486.128.579.438.261.783a4.948,4.948,0,0,1-.885.629Z" transform="translate(-1584.012 -558.653)" fill="#36364e"/>
    <path id="Trazado_213219" data-name="Trazado 213219" d="M4140.432-983.1c-.53-.159-.437-.464-.139-.748a4.59,4.59,0,0,1,.725-.478l1.337.2c-.457.382-.909.772-1.374,1.144C4140.771-982.819,4140.562-982.809,4140.432-983.1Z" transform="translate(-1664.822 -497.907)" fill="#36364e"/>
    <path id="Trazado_213220" data-name="Trazado 213220" d="M4274.426-1087.1c-.529-.158-.439-.463-.139-.748a4.527,4.527,0,0,1,.727-.477l1.335.2c-.456.382-.908.771-1.371,1.143C4274.766-1086.821,4274.557-1086.81,4274.426-1087.1Z" transform="translate(-1772.911 -414.013)" fill="#36364e"/>
    <path id="Trazado_213221" data-name="Trazado 213221" d="M3962.117-844.877c-.49-.124-.586-.433-.268-.782a4.993,4.993,0,0,1,.889-.633l1.336.177C3963.5-845.579,3963.062-844.827,3962.117-844.877Z" transform="translate(-1520.919 -609.259)" fill="#36364e"/>
    <path id="Trazado_213222" data-name="Trazado 213222" d="M3872.008-775.645c.035-1,.66-1.332,1.55-1.358.055.029.154.051.16.089C3873.892-775.877,3873.052-775.257,3872.008-775.645Z" transform="translate(-1448.596 -665.153)" fill="#36364e"/>
    <path id="Trazado_213223" data-name="Trazado 213223" d="M4023.9-893.984c-.185-.937.678-.992,1.155-1.371.244-.068.5-.156.671.122.272.444-.018.771-.339.938C4024.941-894.06,4024.6-893.08,4023.9-893.984Z" transform="translate(-1571.105 -569.625)" fill="#36364e"/>
    <path id="Trazado_213224" data-name="Trazado 213224" d="M3898.949-797.018c.311-.8.768-1.38,1.754-1.162.851.759-.155.925-.456,1.192C3899.894-796.673,3899.351-796.068,3898.949-797.018Z" transform="translate(-1470.328 -648.033)" fill="#36364e"/>
    <path id="Trazado_213225" data-name="Trazado 213225" d="M3764.949-693.016c.31-.8.77-1.378,1.754-1.162.851.758-.153.926-.455,1.192C3765.893-692.671,3765.351-692.064,3764.949-693.016Z" transform="translate(-1362.233 -731.93)" fill="#36364e"/>
    <path id="Trazado_213226" data-name="Trazado 213226" d="M4184.947-1019.011c.313-.8.771-1.375,1.753-1.162.854.759-.151.927-.453,1.194C4185.892-1018.663,4185.347-1018.059,4184.947-1019.011Z" transform="translate(-1701.038 -468.957)" fill="#36364e"/>
    <path id="Trazado_213227" data-name="Trazado 213227" d="M4050.947-915.01c.314-.8.772-1.375,1.754-1.162.854.759-.151.928-.453,1.2C4051.892-914.66,4051.346-914.058,4050.947-915.01Z" transform="translate(-1592.942 -552.852)" fill="#36364e"/>
    <path id="Trazado_213228" data-name="Trazado 213228" d="M4014.951-886.905c.609-1.059.9-1.251,1.753-1.161.847.757-.158.917-.454,1.186C4015.9-886.557,4015.358-885.98,4014.951-886.905Z" transform="translate(-1563.905 -575.545)" fill="#36364e"/>
    <path id="Trazado_213229" data-name="Trazado 213229" d="M4006.469-879.8c-.266-.08-.488-.3-.3-.514.376-.436.713-1.031,1.466-.844.112.057.318.106.323.17C4008.012-880.2,4007.438-879.745,4006.469-879.8Z" transform="translate(-1556.763 -581.107)" fill="#36364e"/>
    <path id="Trazado_213230" data-name="Trazado 213230" d="M3804.076-722.079a1.21,1.21,0,0,1,.744-.561q0,.619,0,1.237a1.2,1.2,0,0,1-.743.559Q3804.076-721.462,3804.076-722.079Z" transform="translate(-1393.796 -709.007)" fill="#36364e"/>
    <path id="Trazado_213231" data-name="Trazado 213231" d="M4122.606-969.169c-.525-.59-.522-.6.6-1.242a.834.834,0,0,1,.543.815C4123.416-969.327,4123.222-968.684,4122.606-969.169Z" transform="translate(-1650.475 -509.135)" fill="#36364e"/>
    <path id="Trazado_213232" data-name="Trazado 213232" d="M4104.943-955.177c-.678-.834.146-.949.6-1.244a.835.835,0,0,1,.547.814C4105.752-955.341,4105.56-954.7,4104.943-955.177Z" transform="translate(-1636.292 -520.42)" fill="#36364e"/>
    <path id="Trazado_213233" data-name="Trazado 213233" d="M4206.074-1034.089a1.206,1.206,0,0,1,.744-.561c0,.412,0,.825,0,1.237a1.184,1.184,0,0,1-.744.559C4206.072-1033.266,4206.072-1033.677,4206.074-1034.089Z" transform="translate(-1718.079 -457.314)" fill="#36364e"/>
    <path id="Trazado_213234" data-name="Trazado 213234" d="M3859.729-764.689l1.337.2a3.187,3.187,0,0,1-1.356,1.059.866.866,0,0,0-.537-.823A.673.673,0,0,1,3859.729-764.689Z" transform="translate(-1438.242 -675.087)" fill="#3b3b53"/>
    <path id="Trazado_213235" data-name="Trazado 213235" d="M3880.957-783.4c.077-.815.813-.95,1.34-1.3q.01.615.018,1.228C3881.881-783.11,3881.458-782.513,3880.957-783.4Z" transform="translate(-1455.814 -658.939)" fill="#36364e"/>
    <path id="Trazado_213236" data-name="Trazado 213236" d="M3916.952-811.374c.093-.8.815-.948,1.347-1.294q.006.615.013,1.229C3917.876-811.059,3917.449-810.477,3916.952-811.374Z" transform="translate(-1484.851 -636.384)" fill="#36364e"/>
    <path id="Trazado_213237" data-name="Trazado 213237" d="M3956.014-839.923c.437-.376.864-.964,1.362-.064-.093.8-.816.947-1.348,1.291C3956.023-839.105,3956.02-839.514,3956.014-839.923Z" transform="translate(-1516.362 -613.962)" fill="#36364e"/>
    <path id="Trazado_213238" data-name="Trazado 213238" d="M3974.015-853.9c.437-.37.861-.963,1.36-.068-.084.808-.811.95-1.342,1.3Q3974.024-853.284,3974.015-853.9Z" transform="translate(-1530.883 -602.69)" fill="#36364e"/>
    <path id="Trazado_213239" data-name="Trazado 213239" d="M4243.678-1062.7l1.335.2a3.164,3.164,0,0,1-1.35,1.055.856.856,0,0,0-.546-.818A.681.681,0,0,1,4243.678-1062.7Z" transform="translate(-1747.963 -434.69)" fill="#3b3b53"/>
    <path id="Trazado_213240" data-name="Trazado 213240" d="M3993.688-868.691l1.339.2a3.223,3.223,0,0,1-1.359,1.059.837.837,0,0,0-.544-.816A.688.688,0,0,1,3993.688-868.691Z" transform="translate(-1546.297 -591.19)" fill="#3b3b53"/>
    <path id="Trazado_213241" data-name="Trazado 213241" d="M4032.955-901.4c.083-.809.815-.948,1.342-1.3q.008.616.018,1.231C4033.88-901.092,4033.455-900.505,4032.955-901.4Z" transform="translate(-1578.429 -563.758)" fill="#36364e"/>
    <path id="Trazado_213242" data-name="Trazado 213242" d="M4261.709-1076.693l1.338.2a3.183,3.183,0,0,1-1.354,1.056.855.855,0,0,0-.54-.817A.672.672,0,0,1,4261.709-1076.693Z" transform="translate(-1762.512 -423.399)" fill="#3b3b53"/>
    <path id="Trazado_213243" data-name="Trazado 213243" d="M4073.647-930.7l1.334.2a3.25,3.25,0,0,1-1.339,1.05.862.862,0,0,0-.548-.817A.664.664,0,0,1,4073.647-930.7Z" transform="translate(-1610.809 -541.167)" fill="#3b3b53"/>
    <path id="Trazado_213244" data-name="Trazado 213244" d="M4109.644-957.475a.834.834,0,0,0-.549-.814.717.717,0,0,1,.57-.448l1.333.205A3.192,3.192,0,0,1,4109.644-957.475Z" transform="translate(-1639.849 -518.553)" fill="#3b3b53"/>
    <path id="Trazado_213245" data-name="Trazado 213245" d="M4127.668-971.468a.836.836,0,0,0-.544-.816.712.712,0,0,1,.569-.449l1.332.205A3.213,3.213,0,0,1,4127.668-971.468Z" transform="translate(-1654.393 -507.262)" fill="#3b3b53"/>
    <path id="Trazado_213246" data-name="Trazado 213246" d="M4146.388-988.544l-1.338-.2a3.2,3.2,0,0,1,1.355-1.057.858.858,0,0,0,.542.819A.681.681,0,0,1,4146.388-988.544Z" transform="translate(-1668.853 -493.495)" fill="#3b3b53"/>
    <path id="Trazado_213247" data-name="Trazado 213247" d="M4091.667-944.7l1.334.2a3.106,3.106,0,0,1-1.343,1.052.862.862,0,0,0-.546-.819A.667.667,0,0,1,4091.667-944.7Z" transform="translate(-1625.343 -529.875)" fill="#3b3b53"/>
    <path id="Trazado_213248" data-name="Trazado 213248" d="M4164.428-1002.534l-1.335-.2a3.14,3.14,0,0,1,1.349-1.056.835.835,0,0,0,.553.815A.7.7,0,0,1,4164.428-1002.534Z" transform="translate(-1683.409 -482.212)" fill="#3b3b53"/>
    <path id="Trazado_213249" data-name="Trazado 213249" d="M4298.413-1106.542l-1.337-.2a3.185,3.185,0,0,1,1.352-1.058.836.836,0,0,0,.552.817A.7.7,0,0,1,4298.413-1106.542Z" transform="translate(-1791.491 -398.309)" fill="#3b3b53"/>
    <path id="Trazado_213250" data-name="Trazado 213250" d="M4224.014-1047.927c.436-.377.864-.962,1.36-.063-.1.8-.814.949-1.347,1.291Q4224.019-1047.313,4224.014-1047.927Z" transform="translate(-1732.553 -446.17)" fill="#36364e"/>
    <path id="Trazado_213251" data-name="Trazado 213251" d="M4280.387-1092.55l-1.336-.2a3.193,3.193,0,0,1,1.354-1.059.865.865,0,0,0,.54.823A.678.678,0,0,1,4280.387-1092.55Z" transform="translate(-1776.949 -409.594)" fill="#3b3b53"/>
    <path id="Trazado_213252" data-name="Trazado 213252" d="M3823.676-736.7l1.335.2a3.147,3.147,0,0,1-1.345,1.053.865.865,0,0,0-.546-.82A.674.674,0,0,1,3823.676-736.7Z" transform="translate(-1409.16 -697.667)" fill="#3b3b53"/>
    <path id="Trazado_213253" data-name="Trazado 213253" d="M4340.012-1137.95c.44-.38.87-.961,1.362-.058-.1.792-.814.947-1.349,1.286C4340.021-1137.132,4340.018-1137.541,4340.012-1137.95Z" transform="translate(-1826.126 -373.551)" fill="#36364e"/>
    <path id="Trazado_213254" data-name="Trazado 213254" d="M3923.917-811.438c0-.409-.009-.819-.013-1.229l0,.015,1.34.173A3.073,3.073,0,0,1,3923.917-811.438Z" transform="translate(-1490.457 -636.384)" fill="#3b3b53"/>
    <path id="Trazado_213255" data-name="Trazado 213255" d="M4152.6-991.331a.859.859,0,0,1-.543-.819,1.216,1.216,0,0,1,.74-.563q.01.614.021,1.228A.181.181,0,0,1,4152.6-991.331Z" transform="translate(-1674.504 -491.143)" fill="#36364e"/>
    <path id="Trazado_213256" data-name="Trazado 213256" d="M3887.9-783.478c-.007-.409-.012-.819-.019-1.228l0,.015,1.329.176A2.975,2.975,0,0,1,3887.9-783.478Z" transform="translate(-1461.395 -658.939)" fill="#3b3b53"/>
    <path id="Trazado_213257" data-name="Trazado 213257" d="M4260.235-1074.441a.855.855,0,0,1,.54.817,1.2,1.2,0,0,1-.741.563q-.01-.614-.019-1.227A.181.181,0,0,1,4260.235-1074.441Z" transform="translate(-1761.594 -425.214)" fill="#36364e"/>
    <path id="Trazado_213258" data-name="Trazado 213258" d="M4254.563-1073.641q.01.614.018,1.228l0-.015-1.327-.176A2.991,2.991,0,0,1,4254.563-1073.641Z" transform="translate(-1756.142 -425.861)" fill="#3b3b53"/>
    <path id="Trazado_213259" data-name="Trazado 213259" d="M3852.57-760.381l-1.305-.218a3.007,3.007,0,0,1,1.306-1.035q0,.626,0,1.253Z" transform="translate(-1431.863 -677.551)" fill="#3b3b53"/>
    <path id="Trazado_213260" data-name="Trazado 213260" d="M3858-761.043q0-.626,0-1.253a.188.188,0,0,1,.223-.157.865.865,0,0,1,.537.823A1.316,1.316,0,0,1,3858-761.043Z" transform="translate(-1437.296 -676.89)" fill="#36364e"/>
    <path id="Trazado_213261" data-name="Trazado 213261" d="M4218.5-1045.681q.006.614.014,1.228l0-.015-1.339-.173A3.227,3.227,0,0,1,4218.5-1045.681Z" transform="translate(-1727.04 -448.416)" fill="#3b3b53"/>
    <path id="Trazado_213262" data-name="Trazado 213262" d="M3816.5-732.424l-1.315-.21a3.071,3.071,0,0,1,1.321-1.039l-.006,1.248Z" transform="translate(-1402.759 -700.107)" fill="#3b3b53"/>
    <path id="Trazado_213263" data-name="Trazado 213263" d="M3780.475-704.543l-1.348-.164a3.156,3.156,0,0,1,1.345-1.053v1.231Z" transform="translate(-1373.67 -722.624)" fill="#3b3b53"/>
    <path id="Trazado_213264" data-name="Trazado 213264" d="M3798.495-719.74q0,.618,0,1.235l0-.015-1.34-.17A3.272,3.272,0,0,1,3798.495-719.74Z" transform="translate(-1388.214 -711.346)" fill="#3b3b53"/>
    <path id="Trazado_213265" data-name="Trazado 213265" d="M3807.92-721.4q0-.619,0-1.237l0,.014,1.344.17A3.141,3.141,0,0,1,3807.92-721.4Z" transform="translate(-1396.897 -709.007)" fill="#3b3b53"/>
    <path id="Trazado_213266" data-name="Trazado 213266" d="M4242.228-1060.456a.858.858,0,0,1,.546.818,1.211,1.211,0,0,1-.743.562q-.009-.614-.017-1.228A.177.177,0,0,1,4242.228-1060.456Z" transform="translate(-1747.073 -436.495)" fill="#36364e"/>
    <path id="Trazado_213267" data-name="Trazado 213267" d="M4236.526-1059.661q.007.614.017,1.228l0-.015-1.336-.175A3.054,3.054,0,0,1,4236.526-1059.661Z" transform="translate(-1741.584 -437.138)" fill="#3b3b53"/>
    <path id="Trazado_213268" data-name="Trazado 213268" d="M4334.469-1135.708q.005.614.012,1.228l0-.014-1.343-.171A3.234,3.234,0,0,1,4334.469-1135.708Z" transform="translate(-1820.583 -375.793)" fill="#3b3b53"/>
    <path id="Trazado_213269" data-name="Trazado 213269" d="M4352.51-1148.532l-1.343-.166a3.15,3.15,0,0,1,1.343-1.053c0,.411,0,.823,0,1.234Z" transform="translate(-1835.124 -364.465)" fill="#3b3b53"/>
    <path id="Trazado_213270" data-name="Trazado 213270" d="M4289.982-1096.84l1.3.217a2.982,2.982,0,0,1-1.306,1.036c0-.417,0-.835,0-1.252Z" transform="translate(-1785.767 -407.147)" fill="#3b3b53"/>
    <path id="Trazado_213271" data-name="Trazado 213271" d="M4286.815-1096.839q0,.626,0,1.252a.185.185,0,0,1-.22.158.867.867,0,0,1-.54-.823A1.322,1.322,0,0,1,4286.815-1096.839Z" transform="translate(-1782.598 -407.147)" fill="#36364e"/>
    <path id="Trazado_213272" data-name="Trazado 213272" d="M4155.89-991.486q-.011-.614-.021-1.228l0,.015,1.33.178A2.978,2.978,0,0,1,4155.89-991.486Z" transform="translate(-1677.58 -491.143)" fill="#3b3b53"/>
    <path id="Trazado_213273" data-name="Trazado 213273" d="M4084.5-940.435l-1.316-.208a3.231,3.231,0,0,1,1.322-1.04q0,.623-.006,1.247Z" transform="translate(-1618.947 -532.308)" fill="#3b3b53"/>
    <path id="Trazado_213274" data-name="Trazado 213274" d="M4089.988-941.083q0-.624.006-1.248a.176.176,0,0,1,.212-.153.863.863,0,0,1,.546.818A1.3,1.3,0,0,1,4089.988-941.083Z" transform="translate(-1624.437 -531.662)" fill="#36364e"/>
    <path id="Trazado_213275" data-name="Trazado 213275" d="M4066.463-926.454l-1.322-.205a3.26,3.26,0,0,1,1.33-1.042l-.007,1.245Z" transform="translate(-1604.393 -543.588)" fill="#3b3b53"/>
    <path id="Trazado_213276" data-name="Trazado 213276" d="M4200.482-1031.747q0,.617,0,1.235l0-.014-1.343-.17A3.126,3.126,0,0,1,4200.482-1031.747Z" transform="translate(-1712.488 -459.656)" fill="#3b3b53"/>
    <path id="Trazado_213277" data-name="Trazado 213277" d="M4071.986-927.1l.006-1.245a.172.172,0,0,1,.208-.152.862.862,0,0,1,.549.817A1.3,1.3,0,0,1,4071.986-927.1Z" transform="translate(-1609.914 -542.948)" fill="#36364e"/>
    <path id="Trazado_213278" data-name="Trazado 213278" d="M4039.9-901.467q-.008-.615-.018-1.231l0,.015,1.338.177A3.069,3.069,0,0,1,4039.9-901.467Z" transform="translate(-1584.013 -563.758)" fill="#3b3b53"/>
    <path id="Trazado_213279" data-name="Trazado 213279" d="M3821.989-733.076l.006-1.248a.178.178,0,0,1,.214-.154.864.864,0,0,1,.545.82A1.316,1.316,0,0,1,3821.989-733.076Z" transform="translate(-1408.247 -699.456)" fill="#36364e"/>
    <path id="Trazado_213280" data-name="Trazado 213280" d="M3968.531-851.655q.01.614.018,1.229l0-.015-1.336-.176A3.049,3.049,0,0,1,3968.531-851.655Z" transform="translate(-1525.399 -604.933)" fill="#3b3b53"/>
    <path id="Trazado_213281" data-name="Trazado 213281" d="M3950.5-837.675c.005.409.009.818.015,1.227l0-.015-1.338-.173A3.069,3.069,0,0,1,3950.5-837.675Z" transform="translate(-1510.851 -616.21)" fill="#3b3b53"/>
    <path id="Trazado_213282" data-name="Trazado 213282" d="M4209.914-1033.413c0-.412,0-.825,0-1.237l0,.014,1.343.171A3.133,3.133,0,0,1,4209.914-1033.413Z" transform="translate(-1721.176 -457.314)" fill="#3b3b53"/>
    <path id="Trazado_213283" data-name="Trazado 213283" d="M3941.9-826.6l1.347.164a3.146,3.146,0,0,1-1.343,1.052q0-.615,0-1.232Z" transform="translate(-1504.973 -625.129)" fill="#3b3b53"/>
    <path id="Trazado_213284" data-name="Trazado 213284" d="M4316.461-1120.553l-1.35-.162a3.151,3.151,0,0,1,1.347-1.055v1.231Z" transform="translate(-1806.039 -387.036)" fill="#3b3b53"/>
    <path id="Trazado_213285" data-name="Trazado 213285" d="M4342.952-1157.064c-.286.048-.527.449-.859.1.158-.1.314-.2.476-.292Z" transform="translate(-1827.804 -358.412)" fill="#3b3b53"/>
    <path id="Trazado_213286" data-name="Trazado 213286" d="M4211.362-761.52l-1.01.015a.355.355,0,0,1,.05-.187l.964.112Z" transform="translate(-1721.531 -677.504)" fill="#3b3b53"/>
    <path id="Trazado_213287" data-name="Trazado 213287" d="M4337.321-1413.281c0,1.608.043,3.218-.01,4.824a5.477,5.477,0,0,1-4.5,5.5,8.763,8.763,0,0,1-3.639.125,5.426,5.426,0,0,1-4.934-5.334c-.165-3.466-.042-6.946-.075-10.42-.01-1.162.807-.92,1.473-.948s1.291-.036,1.278.95c-.031,2.638-.012,5.276-.006,7.913a19.935,19.935,0,0,0,.042,2.121,3.917,3.917,0,0,0,6.163,2.9,3.5,3.5,0,0,0,1.477-3.179c.009-2.638.006-5.276.009-7.913,0-.45-.008-.9,0-1.351a1.528,1.528,0,0,1,2.316-1.391c.454.2.4.609.406.984.006,1.737,0,3.474,0,5.211Z" transform="translate(-1813.331 -146.728)" fill="#f5f5f5"/>
    <path id="Trazado_213288" data-name="Trazado 213288" d="M4416.841-1410.557c0,2.316.018,4.633-.005,6.948-.014,1.191-.094,1.233-1.368,1.221s-1.343-.046-1.348-1.26q-.024-7.045,0-14.09c0-1.157.127-1.227,1.385-1.232,1.236-.005,1.315.04,1.329,1.271C4416.859-1415.319,4416.841-1412.938,4416.841-1410.557Z" transform="translate(-1885.898 -147.291)" fill="#f5f5f5"/>
    <path id="Trazado_213289" data-name="Trazado 213289" d="M4353.957-1155.436c.005-.187.008-.373.011-.561a5.609,5.609,0,0,1,1.944.141c.046.8-.41,1.043-1.115,1.013C4354.96-1155.667,4354.343-1155.388,4353.957-1155.436Z" transform="translate(-1837.375 -359.397)" fill="#3b3b53"/>
    <path id="Trazado_213290" data-name="Trazado 213290" d="M4614.175-646.2a.84.84,0,0,1-.479.85c-.88.629-.983,1.361-.1,2.032a.914.914,0,0,1,.287,1.313.877.877,0,0,1-1.2.579c-.958-.235-1.495.283-1.432,1.256.037.574-.009.984-.61,1.231-.682.281-1.049-.016-1.442-.54a1,1,0,0,0-1.766,0c-.354.436-.651.732-1.281.469a1.068,1.068,0,0,1-.714-1.352c.136-.877-.284-1.39-1.2-1.29a1.051,1.051,0,0,1-1.316-.762c-.241-.642.019-.911.473-1.259a1.077,1.077,0,0,0,.021-1.916.982.982,0,0,1-.31-1.341c.252-.578.622-.657,1.225-.551.969.17,1.485-.358,1.385-1.328a.98.98,0,0,1,.673-1.2.977.977,0,0,1,1.3.451,1.038,1.038,0,0,0,1.885.069c.365-.458.684-.694,1.292-.4a.985.985,0,0,1,.678,1.19c-.18,1.1.333,1.589,1.429,1.411C4613.958-647.444,4613.9-646.6,4614.175-646.2Zm-5.7-.45a2.255,2.255,0,0,0-2.227,2.2,2.241,2.241,0,0,0,2.26,2.161,2.231,2.231,0,0,0,2.223-2.194A2.247,2.247,0,0,0,4608.478-646.646Z" transform="translate(-2038.145 -767.525)" fill="#ebebec"/>
    <path id="Trazado_213291" data-name="Trazado 213291" d="M5060.609-638.9a1.157,1.157,0,0,0-.5-.826.979.979,0,0,1-.4-1.46c.286-.571.625-.647,1.237-.519,1,.207,1.442-.368,1.336-1.327a.947.947,0,0,1,.7-1.177.983.983,0,0,1,1.3.435c.55.823,1.248.882,1.88.08.366-.465.722-.687,1.307-.408a.992.992,0,0,1,.642,1.215c-.183,1.114.415,1.548,1.474,1.393.561-.082.82.2,1.014.66a.915.915,0,0,1-.351,1.31c-.917.609-.93,1.337-.045,2.015.409.313.595.618.333,1.137a1.075,1.075,0,0,1-1.138.763c-1.359-.023-1.432.058-1.467,1.5a.94.94,0,0,1-.724.96.955.955,0,0,1-1.2-.212c-1-.958-1.067-.953-2.22,0-.466.385-.793.235-1.213.047a.89.89,0,0,1-.595-1.031c.066-1.362,0-1.423-1.436-1.478a.913.913,0,0,1-.977-.7c-.146-.432-.3-.864.215-1.2C5060.226-638,5060.625-638.326,5060.609-638.9Zm6.673.137a2.159,2.159,0,0,0-2.288-2.085,2.114,2.114,0,0,0-2.091,2.267,2.148,2.148,0,0,0,2.273,2.1A2.2,2.2,0,0,0,5067.282-638.758Z" transform="translate(-2406.468 -772.208)" fill="#ebebec"/>
    <path id="Trazado_213292" data-name="Trazado 213292" d="M5235.675-940.441c-.478-.191-1.128-.292-.989-1.1.2-1.14-.19-1.779-1.424-1.622-.664.084-.917-.269-1.11-.8a.857.857,0,0,1,.4-1.138c.91-.611.962-1.312.087-2.008-.386-.307-.633-.59-.373-1.127a1.109,1.109,0,0,1,1.117-.8c1.425-.029,1.493-.1,1.508-1.45a.945.945,0,0,1,.685-.981.958.958,0,0,1,1.31.309c.88.956,1.106.969,1.99.085a.969.969,0,0,1,1.309-.277c.547.256.684.541.621,1.185-.113,1.168.117,1.385,1.389,1.411.536.011.845.107,1.03.59.2.517.252.959-.3,1.339-1.019.7-.937,1.429.041,2.119.477.338.366.759.162,1.194s-.449.77-1.019.647c-1.2-.26-1.707.248-1.558,1.444a.839.839,0,0,1-.693.983c-.456.152-.859.246-1.181-.243-.75-1.142-1.507-1-2.261.005A.7.7,0,0,1,5235.675-940.441Zm-.142-5.463a2.229,2.229,0,0,0,2.256,2.16,2.2,2.2,0,0,0,2.122-2.28,2.2,2.2,0,0,0-2.245-2.159A2.231,2.231,0,0,0,5235.533-945.9Z" transform="translate(-2545.734 -524.3)" fill="#ebebec"/>
    <path id="Trazado_213293" data-name="Trazado 213293" d="M4566.727-677.35c.228-.82-.1-1.151-.859-1.414-.929-.321-1.075-1.169-.269-1.644.895-.529.932-.962.506-1.841-.411-.846.135-1.414,1.121-1.182.882.207,1.254,0,1.54-.874.305-.926,1.132-1.042,1.611-.231.517.873.95.963,1.839.5.826-.426,1.4.122,1.2,1.113-.175.856-.021,1.266.873,1.553.912.293.993,1.059.171,1.618a1.155,1.155,0,0,0-.518,1.721c.444,1.005.016,1.468-1.125,1.286-.756-.12-1.146-.013-1.439.789-.383,1.057-1.051,1.14-1.706.212a1.119,1.119,0,0,0-1.577-.5C4566.914-675.8,4566.6-676.113,4566.727-677.35Zm3.373-4.549a1.776,1.776,0,0,0-1.854,1.783,1.772,1.772,0,0,0,1.774,1.857,1.773,1.773,0,0,0,1.856-1.779A1.787,1.787,0,0,0,4570.1-681.9Z" transform="translate(-2007.679 -739.307)" fill="#ebebec"/>
    <path id="Trazado_213294" data-name="Trazado 213294" d="M5023.255-671.783c.194-.828-.16-1.129-.92-1.379a.863.863,0,0,1-.184-1.662c.792-.477.89-.876.545-1.7-.435-1.032,0-1.529,1.109-1.286.8.175,1.13,0,1.432-.765.467-1.182,1.042-1.234,1.783-.166.474.682.855.732,1.583.395,1.012-.469,1.576-.023,1.327,1.041-.181.778-.042,1.17.69,1.507,1.231.569,1.29.972.251,1.716a1.078,1.078,0,0,0-.44,1.587c.479,1.074.13,1.51-1.051,1.36-.751-.1-1.166,0-1.488.764-.461,1.091-1.01,1.172-1.665.261-.449-.623-.812-.838-1.579-.546C5023.45-670.2,5023.2-670.448,5023.255-671.783Zm5.189-2.666a1.9,1.9,0,0,0-1.781-1.889,1.884,1.884,0,0,0-1.913,1.739,1.827,1.827,0,0,0,1.854,1.968A1.878,1.878,0,0,0,5028.444-674.449Z" transform="translate(-2375.945 -743.807)" fill="#ebebec"/>
    <path id="Trazado_213295" data-name="Trazado 213295" d="M5201.86-978.211c-.833-.239-1.105.2-1.4.9-.4.938-1.114,1.023-1.651.187-.485-.756-.869-.915-1.7-.513-.962.462-1.515-.024-1.263-1.127.189-.826-.069-1.141-.78-1.447-1.184-.509-1.223-.95-.148-1.739a1.048,1.048,0,0,0,.378-1.6c-.473-.914-.055-1.556.892-1.365s1.405.064,1.724-.911a.818.818,0,0,1,1.548-.22c.5.866.917,1.025,1.833.575.867-.426,1.48.118,1.223,1.1-.239.921,0,1.234.862,1.523,1.026.343,1.073,1.076.112,1.724-.652.441-.856.773-.5,1.547C5203.5-978.463,5203.157-978.114,5201.86-978.211Zm-.834-3.405a1.855,1.855,0,0,0-1.9-1.74,1.871,1.871,0,0,0-1.826,2.01,1.883,1.883,0,0,0,2,1.643A1.861,1.861,0,0,0,5201.026-981.616Z" transform="translate(-2515.136 -496.142)" fill="#ebebec"/>
    <path id="Trazado_213296" data-name="Trazado 213296" d="M3692.031-650.172c.576-.053.711.366.951.65.586.7,1.226.716,1.771.01.42-.544.785-.738,1.452-.4a.947.947,0,0,1,.562,1.225c-.191,1,.338,1.459,1.315,1.334a.942.942,0,0,1,1.167.711.983.983,0,0,1-.414,1.309c-.943.654-.829,1.379.044,2,.574.41.428.854.185,1.345a.891.891,0,0,1-1.052.543c-1.283-.1-1.4.013-1.469,1.314-.032.616-.185.955-.751,1.153a.977.977,0,0,1-1.3-.456c-.562-.833-1.257-.852-1.875-.051-.368.474-.723.669-1.306.387a.99.99,0,0,1-.641-1.214c.181-1.115-.408-1.55-1.471-1.384-.562.088-.821-.206-1.01-.66-.219-.525-.248-.942.327-1.316.915-.6.976-1.335.076-2.006a.9.9,0,0,1-.28-1.312.955.955,0,0,1,1.228-.572c.967.167,1.52-.346,1.356-1.313C3690.718-649.94,3691.435-650,3692.031-650.172Zm1.691,7.829a2.127,2.127,0,0,0,2.174-2.194,2.145,2.145,0,0,0-2.2-2.172,2.189,2.189,0,0,0-2.187,2.2A2.177,2.177,0,0,0,3693.723-642.343Z" transform="translate(-1300.199 -767.462)" fill="#ebebec"/>
    <path id="Trazado_213297" data-name="Trazado 213297" d="M3549.783-980.512c.075.395-.166.584-.437.778-.849.606-1.068,1.309-.163,2.025a.979.979,0,0,1,.317,1.339.89.89,0,0,1-1.2.585c-.974-.238-1.495.272-1.418,1.256.045.58-.023.988-.621,1.231-.667.271-1.047.035-1.443-.52a1,1,0,0,0-1.763-.031c-.349.416-.624.773-1.272.487a1.086,1.086,0,0,1-.734-1.346c.147-1-.388-1.458-1.369-1.293-.659.111-.9-.22-1.134-.747-.269-.6-.058-.92.429-1.274.922-.67.786-1.409-.066-2.025-.481-.349-.449-.688-.238-1.151.23-.5.422-.787,1.127-.724,1.317.116,1.351,0,1.5-1.478.1-.927,1.153-1.493,1.712-.83.856,1.015,1.461,1.284,2.425.112a1.038,1.038,0,0,1,1.728.811c-.127,1.3.264,1.819,1.586,1.648C3549.583-981.767,3549.539-980.976,3549.783-980.512Zm-5.613,3.87a2.242,2.242,0,0,0,2.165-2.255,2.23,2.23,0,0,0-2.307-2.108,2.217,2.217,0,0,0-2.156,2.249A2.237,2.237,0,0,0,3544.17-976.642Z" transform="translate(-1179.501 -497.755)" fill="#ebebec"/>
    <path id="Trazado_213298" data-name="Trazado 213298" d="M3508.859-1016.972c-.182.831.165,1.158.911,1.424.92.327,1.008,1.073.191,1.615-.729.484-.918.876-.54,1.716.431.955,0,1.57-.938,1.366s-1.4-.129-1.659.917a.869.869,0,0,1-1.6.238c-.534-1.041-1.019-1.038-1.961-.526-.677.369-1.383-.317-1.145-1.123.252-.853.161-1.255-.747-1.574-1.07-.376-1.186-1.166-.263-1.718.786-.47.94-.832.513-1.667-.488-.954.016-1.573,1.074-1.311.912.226,1.238-.052,1.545-.877.376-1.008,1.006-1.021,1.682-.075.382.536.706.814,1.415.556C3508.748-1018.524,3508.921-1018.369,3508.859-1016.972Zm-3.423.883a1.863,1.863,0,0,0-1.778,1.868,1.878,1.878,0,0,0,1.857,1.8,1.814,1.814,0,0,0,1.845-1.965A1.83,1.83,0,0,0,3505.436-1016.089Z" transform="translate(-1148.897 -469.727)" fill="#ebebec"/>
    <path id="Trazado_213299" data-name="Trazado 213299" d="M3658.416-682.9c-.27.8.007,1.186.755,1.488,1.094.442,1.191,1.035.285,1.67-.693.486-.959.851-.5,1.7s-.015,1.538-.949,1.334c-.968-.211-1.374-.006-1.682.945a.843.843,0,0,1-1.583.188c-.5-.883-.915-1.012-1.821-.571-.864.42-1.5-.135-1.24-1.086.249-.9.037-1.237-.818-1.539-1.062-.375-1.15-1.123-.2-1.711.774-.478.941-.844.478-1.672s.087-1.627.917-1.367c.967.3,1.376.121,1.719-.83.332-.919,1.114-1,1.624-.177.465.752.833.935,1.68.547C3658.1-684.448,3658.5-684.043,3658.416-682.9Zm-1.5,2.789a1.846,1.846,0,0,0-1.841-1.8,1.856,1.856,0,0,0-1.9,1.745,1.863,1.863,0,0,0,1.941,1.9A1.857,1.857,0,0,0,3656.916-680.114Z" transform="translate(-1269.505 -739.292)" fill="#ebebec"/>
    <path id="Trazado_213302" data-name="Trazado 213302" d="M4157.575-646.033c.079.315-.288.49-.6.72-.79.585-.9,1.261-.084,1.881a1.034,1.034,0,0,1,.335,1.485c-.291.594-.67.594-1.254.471-.868-.183-1.373.286-1.313,1.176.044.639,0,1.112-.711,1.357s-1.015-.117-1.411-.615c-.559-.7-1.232-.618-1.763.092-.354.477-.712.681-1.3.4a.992.992,0,0,1-.657-1.206c.178-1.1-.377-1.568-1.45-1.4-.689.11-.884-.336-1.085-.83s-.021-.771.357-1.142c.947-.925.951-1.007-.043-2.107a.893.893,0,0,1-.136-1.179c.2-.423.374-.7.975-.689,1.454.024,1.519-.033,1.566-1.515.02-.63.38-.748.774-.919a.959.959,0,0,1,1.184.266c1.028.992,1.1.993,2.1.087a.915.915,0,0,1,1.169-.245c.505.235.879.474.723,1.144-.254,1.1.246,1.621,1.342,1.461C4157.23-647.473,4157.331-646.811,4157.575-646.033Zm-3.515,1.521a2.157,2.157,0,0,0-2.207-2.178,2.2,2.2,0,0,0-2.2,2.192,2.192,2.192,0,0,0,2.218,2.173A2.15,2.15,0,0,0,4154.06-644.512Z" transform="translate(-1669.783 -767.481)" fill="#ebebec"/>
    <path id="Trazado_213303" data-name="Trazado 213303" d="M4116.607-682.884c-.241.807.025,1.189.783,1.484,1.063.414,1.152,1.05.235,1.679-.733.5-.885.908-.459,1.722.4.766-.089,1.542-.837,1.349-1.018-.262-1.509-.152-1.818.953a.854.854,0,0,1-1.6.1c-.509-.919-.958-.938-1.833-.513-.84.406-1.462-.175-1.195-1.14.253-.925-.027-1.219-.866-1.512-1.024-.358-1.087-1.125-.131-1.719.795-.493.879-.884.425-1.687s.126-1.6.971-1.332c.986.311,1.365.07,1.693-.867.314-.893,1.117-.96,1.62-.136.465.762.843.926,1.687.531C4116.275-684.442,4116.672-684.034,4116.607-682.884Zm-1.5,2.853a1.84,1.84,0,0,0-1.764-1.875,1.889,1.889,0,0,0-1.984,1.866,1.9,1.9,0,0,0,1.881,1.782A1.845,1.845,0,0,0,4115.1-680.031Z" transform="translate(-1639.131 -739.303)" fill="#ebebec"/>
    <path id="Trazado_213304" data-name="Trazado 213304" d="M4971.36-335.363a19.121,19.121,0,0,1,19.085-19.022,19.132,19.132,0,0,1,19.074,19.232,19.019,19.019,0,0,1-19.285,18.967A19.014,19.014,0,0,1,4971.36-335.363Zm19.609-2.161q-4.443,0-8.888,0c-2.5,0-2.609.116-2.547,2.613,0,.064,0,.129,0,.193.064,1.419.31,1.7,1.691,1.765.963.044,1.932.011,2.9.011q7.924,0,15.845,0c.635,0,1.379.172,1.833-.372.831-1,.537-2.214.333-3.325-.184-1.006-1.119-.881-1.889-.882Q4995.608-337.527,4990.97-337.524Zm-.1-2.276q4.734,0,9.472,0c.57,0,1.251.127,1.583-.465a4.134,4.134,0,0,0,.14-3.365c-.3-.931-1.238-.754-2-.755q-9.179-.009-18.361,0a7.674,7.674,0,0,0-.965.025,1.2,1.2,0,0,0-1.193,1.262q-.011.483-.014.966c-.008,2.2.1,2.328,2.251,2.335C4984.813-339.792,4987.841-339.8,4990.871-339.8Zm-.024,13.6c3.212,0,6.424.019,9.638-.008,1.44-.012,1.686-.278,1.772-1.66.026-.448.006-.9,0-1.349-.025-.909-.44-1.452-1.405-1.458-.321,0-.642-.009-.963-.009h-17.929c-.256,0-.514-.011-.77.005-1.352.087-1.562.291-1.638,1.586-.015.256,0,.514,0,.771.013,1.959.138,2.11,2.05,2.12C4984.676-326.188,4987.762-326.2,4990.846-326.2Z" transform="translate(-2335.422 -1006.071)" fill="#f0f2f2"/>
    <path id="Trazado_213305" data-name="Trazado 213305" d="M3634.968-335.2a18.988,18.988,0,0,1-19.228,19.011,19.1,19.1,0,0,1-18.961-19.134,19.2,19.2,0,0,1,19.084-19.065A19.112,19.112,0,0,1,3634.968-335.2Zm-19.243-4.6q4.832,0,9.665,0c.577,0,1.292.11,1.576-.478a4.662,4.662,0,0,0,.1-3.392c-.273-.9-1.257-.716-2.018-.718q-5.317-.009-10.631,0-3.964,0-7.926,0c-.579,0-1.249-.1-1.6.449a4.025,4.025,0,0,0-.212,3.353c.263.981,1.209.781,1.962.783C3609.668-339.793,3612.7-339.8,3615.725-339.8Zm.176,6.86c2.834,0,5.67-.045,8.5.012,3.158.063,2.827-.487,2.834-3.156,0-.945-.433-1.444-1.4-1.434-.258,0-.515,0-.773,0q-9.18,0-18.359.006c-.625,0-1.389-.221-1.8.395a3.969,3.969,0,0,0-.231,3.353c.249.941,1.184.825,1.955.826Q3611.263-332.937,3615.9-332.94Zm.014,6.741h.771c2.892,0,5.784,0,8.675-.005.629,0,1.422.143,1.684-.6a5.7,5.7,0,0,0,.033-3.22.918.918,0,0,0-.9-.61,13.47,13.47,0,0,0-1.346-.051q-8.963,0-17.927,0c-.322,0-.643.007-.964.008-.962,0-1.386.533-1.419,1.446-.007.193-.007.386-.011.578-.051,2.2.176,2.446,2.346,2.452C3609.875-326.193,3612.894-326.2,3615.915-326.2Z" transform="translate(-1226.574 -1006.073)" fill="#f0f2f2"/>
    <path id="Trazado_213306" data-name="Trazado 213306" d="M4550.844-335.3a19,19,0,0,1-19.168,19.075,19.115,19.115,0,0,1-19.031-19.072,19.232,19.232,0,0,1,19.221-19.137A19.129,19.129,0,0,1,4550.844-335.3Zm-19.185,2.319h3.863l5.987,0c.669,0,1.382-.061,1.582-.811a6,6,0,0,0-.015-3.055.93.93,0,0,0-.859-.672c-.448-.043-.9-.041-1.351-.041q-8.982,0-17.963,0c-.386,0-.773-.007-1.16.013a1.156,1.156,0,0,0-1.2,1.232c-.014.257-.013.515-.019.772-.046,2.377.118,2.557,2.441,2.564C4525.864-332.973,4528.763-332.979,4531.659-332.979Zm.174-6.859h1.352c2.7,0,5.407,0,8.111,0,.631,0,1.422.145,1.689-.6a4.539,4.539,0,0,0-.028-3.385c-.377-.85-1.338-.594-2.086-.6q-8.981-.017-17.961-.006a10.985,10.985,0,0,0-1.157.023,1.2,1.2,0,0,0-1.21,1.242c-.01.257-.013.514-.019.772-.048,2.4.084,2.548,2.426,2.553C4525.911-339.833,4528.872-339.838,4531.833-339.838Zm-.163,13.6q4.833,0,9.665,0c.571,0,1.3.14,1.581-.456a4.424,4.424,0,0,0,.082-3.384c-.327-.911-1.312-.631-2.049-.633q-9.083-.025-18.169-.009c-.321,0-.644,0-.965.017a1.2,1.2,0,0,0-1.273,1.365c0,.322-.007.644,0,.966.012,1.981.129,2.122,2.049,2.133C4525.614-326.226,4528.643-326.239,4531.67-326.239Z" transform="translate(-1965.385 -1006.033)" fill="#f0f2f2"/>
    <path id="Trazado_213307" data-name="Trazado 213307" d="M4073.448-316.235a19.089,19.089,0,0,1-19.2-19.084,19.215,19.215,0,0,1,19.03-19.127,19.178,19.178,0,0,1,19.186,19.147A19.05,19.05,0,0,1,4073.448-316.235Zm.333-21.338q-4.72,0-9.439,0c-.635,0-1.383-.125-1.7.591a4.318,4.318,0,0,0-.073,3.193c.342.995,1.353.791,2.171.792q9.055.01,18.109,0c.321,0,.645.009.963-.019a1.273,1.273,0,0,0,1.336-1.335c.009-.385.013-.771.008-1.156-.023-1.89-.182-2.059-2.124-2.068C4079.946-337.584,4076.864-337.574,4073.781-337.573Zm-.071-6.868h-9.25c-.643,0-1.4-.105-1.75.534a4.086,4.086,0,0,0-.112,3.353c.326.925,1.27.7,2.016.7,4.3.011,8.607.005,12.91.005q2.891,0,5.781,0c.576,0,1.276.1,1.565-.492a4.519,4.519,0,0,0,.1-3.374c-.283-.886-1.252-.723-2.016-.724Q4078.334-344.445,4073.71-344.441Zm.045,18.192c3.15,0,6.3.005,9.453,0,.628,0,1.418.161,1.717-.556a4.554,4.554,0,0,0,.055-3.2c-.345-1.017-1.4-.708-2.195-.712-5.016-.021-10.032-.011-15.049-.01-1.221,0-2.443-.007-3.665.008-.51.006-1.1-.034-1.376.5a4.349,4.349,0,0,0-.15,3.189c.254.993,1.2.785,1.949.788C4067.582-326.243,4070.669-326.25,4073.756-326.25Z" transform="translate(-1595.603 -1006.022)" fill="#f0f2f2"/>
    <path id="Trazado_213308" data-name="Trazado 213308" d="M4622.709-632.241a2.246,2.246,0,0,1,2.255,2.168,2.232,2.232,0,0,1-2.222,2.195,2.241,2.241,0,0,1-2.26-2.161A2.253,2.253,0,0,1,4622.709-632.241Z" transform="translate(-2052.377 -781.93)" fill="#3b3b53"/>
    <path id="Trazado_213309" data-name="Trazado 213309" d="M5081.765-624.367a2.194,2.194,0,0,1-2.1,2.281,2.148,2.148,0,0,1-2.274-2.1,2.114,2.114,0,0,1,2.091-2.267A2.158,2.158,0,0,1,5081.765-624.367Z" transform="translate(-2420.951 -786.6)" fill="#3b3b53"/>
    <path id="Trazado_213310" data-name="Trazado 213310" d="M5249.965-931.6a2.231,2.231,0,0,1,2.134-2.279,2.2,2.2,0,0,1,2.246,2.159,2.2,2.2,0,0,1-2.123,2.28A2.229,2.229,0,0,1,5249.965-931.6Z" transform="translate(-2560.167 -538.603)" fill="#3b3b53"/>
    <path id="Trazado_213311" data-name="Trazado 213311" d="M4583.335-668.636a1.788,1.788,0,0,1,1.776,1.861,1.773,1.773,0,0,1-1.856,1.779,1.77,1.77,0,0,1-1.773-1.857A1.774,1.774,0,0,1,4583.335-668.636Z" transform="translate(-2020.914 -752.571)" fill="#36364e"/>
    <path id="Trazado_213312" data-name="Trazado 213312" d="M5041.6-661.258a1.877,1.877,0,0,1-1.84,1.818,1.827,1.827,0,0,1-1.854-1.968,1.884,1.884,0,0,1,1.913-1.739A1.9,1.9,0,0,1,5041.6-661.258Z" transform="translate(-2389.102 -756.997)" fill="#3b3b53"/>
    <path id="Trazado_213313" data-name="Trazado 213313" d="M5214.145-968.426a1.859,1.859,0,0,1-1.729,1.912,1.884,1.884,0,0,1-2-1.642,1.872,1.872,0,0,1,1.826-2.01A1.855,1.855,0,0,1,5214.145-968.426Z" transform="translate(-2528.256 -509.332)" fill="#3b3b53"/>
    <path id="Trazado_213314" data-name="Trazado 213314" d="M3708.156-627.876a2.177,2.177,0,0,1-2.216-2.167,2.188,2.188,0,0,1,2.188-2.2,2.145,2.145,0,0,1,2.2,2.172A2.128,2.128,0,0,1,3708.156-627.876Z" transform="translate(-1314.631 -781.929)" fill="#3b3b53"/>
    <path id="Trazado_213315" data-name="Trazado 213315" d="M3558.542-961.987a2.237,2.237,0,0,1-2.3-2.114,2.217,2.217,0,0,1,2.157-2.249,2.23,2.23,0,0,1,2.307,2.108A2.242,2.242,0,0,1,3558.542-961.987Z" transform="translate(-1193.872 -512.409)" fill="#3b3b53"/>
    <path id="Trazado_213316" data-name="Trazado 213316" d="M3518.665-1002.854a1.831,1.831,0,0,1,1.925,1.7,1.816,1.816,0,0,1-1.845,1.965,1.876,1.876,0,0,1-1.856-1.8A1.86,1.86,0,0,1,3518.665-1002.854Z" transform="translate(-1162.127 -482.962)" fill="#3b3b53"/>
    <path id="Trazado_213317" data-name="Trazado 213317" d="M3670.148-666.837a1.858,1.858,0,0,1-1.8,1.844,1.864,1.864,0,0,1-1.941-1.9,1.857,1.857,0,0,1,1.9-1.745A1.846,1.846,0,0,1,3670.148-666.837Z" transform="translate(-1282.737 -752.569)" fill="#3b3b53"/>
    <path id="Trazado_213325" data-name="Trazado 213325" d="M4168.443-630.065a2.15,2.15,0,0,1-2.191,2.188,2.192,2.192,0,0,1-2.218-2.173,2.2,2.2,0,0,1,2.2-2.193A2.156,2.156,0,0,1,4168.443-630.065Z" transform="translate(-1684.168 -781.929)" fill="#3b3b53"/>
    <path id="Trazado_213326" data-name="Trazado 213326" d="M4128.239-666.781a1.846,1.846,0,0,1-1.868,1.772,1.9,1.9,0,0,1-1.882-1.782,1.889,1.889,0,0,1,1.986-1.865A1.842,1.842,0,0,1,4128.239-666.781Z" transform="translate(-1652.267 -752.553)" fill="#3b3b53"/>
    <path id="Trazado_213327" data-name="Trazado 213327" d="M5025.033-267.182q4.638,0,9.275,0c.77,0,1.7-.125,1.889.882.206,1.111.5,2.328-.333,3.325-.454.544-1.2.371-1.833.372q-7.923.008-15.844,0c-.966,0-1.935.033-2.9-.011-1.381-.063-1.627-.346-1.692-1.765,0-.064,0-.129,0-.193-.062-2.5.045-2.61,2.547-2.613Q5020.587-267.187,5025.033-267.182Zm5.571,2.23c-.117-.646-.465-1.062-1.151-1.033a1,1,0,0,0-1.05,1.109,1.016,1.016,0,0,0,1.121,1.05A1.1,1.1,0,0,0,5030.6-264.952Zm3.406.022c-.124-.623-.429-1.076-1.129-1.058a.985.985,0,0,0-1.05,1.1.994.994,0,0,0,1.083,1.073A1.106,1.106,0,0,0,5034.009-264.929Z" transform="translate(-2369.485 -1076.414)" fill="#0b6f85"/>
    <path id="Trazado_213328" data-name="Trazado 213328" d="M5024.978-298.142c-3.027,0-6.055.008-9.084,0-2.15-.008-2.26-.131-2.251-2.335,0-.322.007-.644.014-.966a1.2,1.2,0,0,1,1.194-1.262,7.653,7.653,0,0,1,.964-.025q9.182,0,18.362,0c.759,0,1.695-.176,2,.755a4.13,4.13,0,0,1-.139,3.365c-.332.592-1.012.464-1.584.465Q5029.715-298.137,5024.978-298.142Zm4.508-3.424c-.5.142-1.016.38-1.042,1.083a1.015,1.015,0,0,0,1.032,1.141,1.009,1.009,0,0,0,1.149-1.021C5030.667-301.028,5030.222-301.4,5029.486-301.566Zm3.382.022c-.631.155-1.047.508-.992,1.2a.986.986,0,0,0,1.143,1,1.012,1.012,0,0,0,1-1.156A1.108,1.108,0,0,0,5032.868-301.544Z" transform="translate(-2369.531 -1047.729)" fill="#0b6f85"/>
    <path id="Trazado_213329" data-name="Trazado 213329" d="M5024.971-227.329c-3.084,0-6.169.013-9.254,0-1.91-.01-2.037-.161-2.048-2.12,0-.257-.013-.515,0-.771.077-1.295.287-1.5,1.638-1.586.257-.016.514-.005.771-.005h17.927c.322,0,.643.007.964.009.966.006,1.381.549,1.406,1.458.011.45.031.9,0,1.349-.085,1.382-.331,1.648-1.771,1.66C5031.4-227.31,5028.183-227.329,5024.971-227.329Zm7.941-1.167a1.022,1.022,0,0,0,1.143-1.06,1,1,0,0,0-1.083-1.086.993.993,0,0,0-1.093,1.065A.988.988,0,0,0,5032.913-228.5Zm-3.261,0a1.022,1.022,0,0,0,1-1.156,1.01,1.01,0,0,0-1.178-.987,1.007,1.007,0,0,0-1.015,1.155C5028.508-228.8,5028.966-228.5,5029.651-228.494Z" transform="translate(-2369.548 -1104.943)" fill="#036b82"/>
    <path id="Trazado_213330" data-name="Trazado 213330" d="M3647.6-298.154c-3.028,0-6.057.007-9.085,0-.752,0-1.7.2-1.961-.783a4.024,4.024,0,0,1,.213-3.353c.354-.547,1.025-.449,1.6-.449q3.962,0,7.925,0,5.314,0,10.631,0c.761,0,1.745-.183,2.018.718a4.672,4.672,0,0,1-.1,3.392c-.284.589-1,.478-1.577.478Q3652.432-298.152,3647.6-298.154Zm4.744-3.4a1.053,1.053,0,0,0-1.075,1.078.981.981,0,0,0,1.016,1.122,1,1,0,0,0,1.1-1.048A1.077,1.077,0,0,0,3652.342-301.552Zm3.461,2.214a1.027,1.027,0,0,0,.974-1.164.983.983,0,0,0-1.109-1.023,1,1,0,0,0-.984,1.155A1.021,1.021,0,0,0,3655.8-299.338Z" transform="translate(-1258.448 -1047.719)" fill="#0b6f85"/>
    <path id="Trazado_213331" data-name="Trazado 213331" d="M3647.753-262.717q-4.638,0-9.276,0c-.771,0-1.707.115-1.956-.826a3.975,3.975,0,0,1,.231-3.353c.415-.616,1.179-.394,1.8-.395q9.179-.016,18.358-.006c.259,0,.516.008.774,0,.968-.01,1.4.489,1.4,1.434-.007,2.669.323,3.219-2.834,3.156C3653.422-262.762,3650.586-262.717,3647.753-262.717Zm5.631-2.4c-.13-.64-.49-1.051-1.173-.989a.988.988,0,0,0-.964,1.169.979.979,0,0,0,1.139.992A1.059,1.059,0,0,0,3653.385-265.117Zm3.389-.01a1,1,0,0,0-1.064-.979.989.989,0,0,0-1.071,1.072,1,1,0,0,0,1.059,1.1C3656.351-263.931,3656.733-264.339,3656.774-265.127Z" transform="translate(-1258.426 -1076.295)" fill="#0b6f85"/>
    <path id="Trazado_213332" data-name="Trazado 213332" d="M3648.147-227.314c-3.02,0-6.04.006-9.06,0-2.17-.006-2.4-.252-2.345-2.451,0-.193,0-.386.011-.578.032-.913.457-1.443,1.419-1.446.322,0,.642-.008.964-.008q8.964,0,17.927,0a13.457,13.457,0,0,1,1.347.051.919.919,0,0,1,.9.61,5.7,5.7,0,0,1-.033,3.22c-.262.742-1.054.6-1.684.6-2.892.009-5.783,0-8.675.005Zm7.961-3.333a1.023,1.023,0,0,0-1.1,1.071.971.971,0,0,0,1.052,1.084.964.964,0,0,0,1.084-1.046A1.017,1.017,0,0,0,3656.108-230.646Zm-2.333,1.075c-.1-.743-.517-1.1-1.17-1.059a.986.986,0,0,0-.99,1.156.97.97,0,0,0,1.148.98A1,1,0,0,0,3653.775-229.571Z" transform="translate(-1258.807 -1104.958)" fill="#036b82"/>
    <path id="Trazado_213333" data-name="Trazado 213333" d="M4564.519-262.587c-2.9,0-5.8.006-8.692,0-2.325-.006-2.489-.186-2.441-2.564.005-.257,0-.515.019-.772a1.154,1.154,0,0,1,1.2-1.232c.386-.02.772-.013,1.161-.013q8.979,0,17.963,0c.45,0,.9,0,1.35.041a.928.928,0,0,1,.858.672,6.031,6.031,0,0,1,.017,3.055c-.2.751-.914.811-1.583.811l-5.988,0Zm4.771-3.4a1.027,1.027,0,0,0-1.092,1.067,1.008,1.008,0,0,0,1.051,1.116,1.039,1.039,0,0,0,1.118-1.07A1.048,1.048,0,0,0,4569.291-265.989Zm3.4,0a1.009,1.009,0,0,0-1.063,1.08.985.985,0,0,0,1.044,1.1,1,1,0,0,0,1.081-1.078A1.025,1.025,0,0,0,4572.689-265.987Z" transform="translate(-1998.245 -1076.425)" fill="#0b6f85"/>
    <path id="Trazado_213334" data-name="Trazado 213334" d="M4564.688-298.222c-2.961,0-5.923,0-8.884,0-2.34,0-2.471-.15-2.424-2.553.005-.257.009-.515.021-.772a1.2,1.2,0,0,1,1.208-1.242,11.012,11.012,0,0,1,1.158-.023q8.981,0,17.961.006c.749,0,1.708-.255,2.085.6a4.535,4.535,0,0,1,.028,3.385c-.268.746-1.059.6-1.687.6-2.706.009-5.409,0-8.113,0Zm4.544-1.18a1.064,1.064,0,0,0,1.129-1.065,1.039,1.039,0,0,0-1.062-1.128,1,1,0,0,0-1.1,1.057A1.04,1.04,0,0,0,4569.233-299.4Zm4.529-1.122c-.1-.686-.475-1.108-1.132-1.075a1,1,0,0,0-1.008,1.141.983.983,0,0,0,1.1,1.036C4573.416-299.446,4573.707-299.906,4573.762-300.524Z" transform="translate(-1998.24 -1047.65)" fill="#0b6f85"/>
    <path id="Trazado_213335" data-name="Trazado 213335" d="M4564.595-227.437c-3.029,0-6.057.013-9.084,0-1.921-.011-2.038-.151-2.05-2.132,0-.322.009-.644.005-.966a1.2,1.2,0,0,1,1.273-1.365c.321-.018.645-.016.966-.016q9.083,0,18.168.009c.737,0,1.721-.278,2.049.633a4.428,4.428,0,0,1-.083,3.384c-.277.6-1.009.455-1.58.456Q4569.426-227.431,4564.595-227.437Zm5.884-2.231c-.115-.646-.453-1.092-1.14-1.084a1,1,0,0,0-1.093,1.081,1,1,0,0,0,1.1,1.074C4570.052-228.585,4570.35-229.047,4570.479-229.668Zm3.363-.032c-.1-.744-.528-1.1-1.181-1.055a.986.986,0,0,0-.979,1.166.97.97,0,0,0,1.156.973A1,1,0,0,0,4573.842-229.7Z" transform="translate(-1998.31 -1104.836)" fill="#036b82"/>
    <path id="Trazado_213336" data-name="Trazado 213336" d="M4107.375-267.189c3.083,0,6.166-.01,9.247,0,1.944.009,2.1.178,2.124,2.068.006.385,0,.771-.008,1.156a1.273,1.273,0,0,1-1.336,1.335c-.319.029-.643.019-.963.019q-9.054,0-18.109,0c-.817,0-1.829.2-2.171-.792a4.32,4.32,0,0,1,.073-3.193c.321-.716,1.069-.589,1.7-.591Q4102.656-267.194,4107.375-267.189Zm7.988,3.39c.632-.12,1.066-.447,1.047-1.138a.986.986,0,0,0-1.093-1.055,1,1,0,0,0-1.065,1.1C4114.261-264.241,4114.713-263.888,4115.363-263.8Zm-2.375-1.216a.987.987,0,0,0-1.113-.974.973.973,0,0,0-.986,1.133.985.985,0,0,0,1.1,1.029A1.033,1.033,0,0,0,4112.989-265.015Z" transform="translate(-1629.197 -1076.407)" fill="#0b6f85"/>
    <path id="Trazado_213337" data-name="Trazado 213337" d="M4107.3-302.736q4.622,0,9.248,0c.763,0,1.733-.162,2.015.724a4.521,4.521,0,0,1-.1,3.374c-.29.593-.99.491-1.565.492q-2.892,0-5.781,0-6.455,0-12.91-.005c-.747,0-1.689.224-2.015-.7a4.093,4.093,0,0,1,.11-3.353c.347-.639,1.109-.534,1.751-.534Q4102.677-302.734,4107.3-302.736Zm9.116,2.261a1.035,1.035,0,0,0-1.126-1.043,1.036,1.036,0,0,0-1.047,1.138,1.015,1.015,0,0,0,1.131,1.039A1.034,1.034,0,0,0,4116.417-300.474Zm-3.422-.018a1.018,1.018,0,0,0-1.043-1.032,1,1,0,0,0-1.068,1.075.981.981,0,0,0,1.024,1.106C4112.578-299.33,4112.936-299.737,4113-300.492Z" transform="translate(-1629.194 -1047.728)" fill="#0b6f85"/>
    <path id="Trazado_213338" data-name="Trazado 213338" d="M4107.438-227.443c-3.086,0-6.172.008-9.259-.005-.749,0-1.7.2-1.951-.788a4.351,4.351,0,0,1,.15-3.189c.28-.53.867-.49,1.375-.5,1.223-.015,2.445-.008,3.667-.008,5.016,0,10.032-.01,15.048.01.794,0,1.851-.3,2.2.712a4.549,4.549,0,0,1-.055,3.2c-.3.717-1.088.554-1.716.556C4113.741-227.438,4110.589-227.443,4107.438-227.443Zm9.082-2.22a1.027,1.027,0,0,0-1.086-1.095,1.006,1.006,0,0,0-1.1,1.069.988.988,0,0,0,1.086,1.07A1,1,0,0,0,4116.52-229.663Zm-3.429-.093a.986.986,0,0,0-1.086-1,.976.976,0,0,0-1.06,1.082.976.976,0,0,0,1.081,1.056C4112.719-228.627,4113.055-229.018,4113.091-229.756Z" transform="translate(-1629.286 -1104.829)" fill="#036b82"/>
    <path id="Trazado_213377" data-name="Trazado 213377" d="M5092.423-259.949a1.1,1.1,0,0,1-1.081,1.126,1.015,1.015,0,0,1-1.121-1.05,1,1,0,0,1,1.049-1.109C5091.958-261.011,5092.3-260.595,5092.423-259.949Z" transform="translate(-2431.305 -1081.416)" fill="#ebebec"/>
    <path id="Trazado_213378" data-name="Trazado 213378" d="M5110.136-259.934a1.107,1.107,0,0,1-1.1,1.109.994.994,0,0,1-1.083-1.073.985.985,0,0,1,1.05-1.1C5109.707-261.01,5110.011-260.557,5110.136-259.934Z" transform="translate(-2445.612 -1081.409)" fill="#ebebec"/>
    <path id="Trazado_213379" data-name="Trazado 213379" d="M5091.245-296.655c.735.171,1.179.539,1.139,1.2a1.01,1.01,0,0,1-1.15,1.02,1.015,1.015,0,0,1-1.032-1.141C5090.228-296.275,5090.744-296.513,5091.245-296.655Z" transform="translate(-2431.289 -1052.641)" fill="#ebebec"/>
    <path id="Trazado_213380" data-name="Trazado 213380" d="M5108.927-296.539a1.108,1.108,0,0,1,1.157,1.045,1.013,1.013,0,0,1-1.005,1.156.987.987,0,0,1-1.144-1C5107.88-296.031,5108.3-296.384,5108.927-296.539Z" transform="translate(-2445.59 -1052.735)" fill="#ebebec"/>
    <path id="Trazado_213381" data-name="Trazado 213381" d="M5108.926-223.589a.989.989,0,0,1-1.032-1.082.994.994,0,0,1,1.093-1.065,1,1,0,0,1,1.082,1.086A1.021,1.021,0,0,1,5108.926-223.589Z" transform="translate(-2445.561 -1109.85)" fill="#ebebec"/>
    <path id="Trazado_213382" data-name="Trazado 213382" d="M5091.347-223.589c-.686,0-1.145-.309-1.2-.988a1.008,1.008,0,0,1,1.015-1.155,1.01,1.01,0,0,1,1.179.987A1.021,1.021,0,0,1,5091.347-223.589Z" transform="translate(-2431.242 -1109.849)" fill="#ebebec"/>
    <path id="Trazado_213383" data-name="Trazado 213383" d="M3714.831-296.524c.664.115,1.073.485,1.044,1.152a1,1,0,0,1-1.1,1.048.98.98,0,0,1-1.015-1.121A1.052,1.052,0,0,1,3714.831-296.524Z" transform="translate(-1320.936 -1052.747)" fill="#ebebec"/>
    <path id="Trazado_213384" data-name="Trazado 213384" d="M3732.544-294.209a1.021,1.021,0,0,1-1.119-1.032,1,1,0,0,1,.985-1.155.983.983,0,0,1,1.108,1.023A1.028,1.028,0,0,1,3732.544-294.209Z" transform="translate(-1335.187 -1052.848)" fill="#ebebec"/>
    <path id="Trazado_213385" data-name="Trazado 213385" d="M3715.889-260.027a1.06,1.06,0,0,1-1,1.173.978.978,0,0,1-1.139-.992.988.988,0,0,1,.964-1.169C3715.4-261.077,3715.758-260.667,3715.889-260.027Z" transform="translate(-1320.931 -1081.386)" fill="#ebebec"/>
    <path id="Trazado_213386" data-name="Trazado 213386" d="M3733.447-260.011c-.041.789-.423,1.2-1.075,1.19a1,1,0,0,1-1.059-1.1.99.99,0,0,1,1.072-1.072A1,1,0,0,1,3733.447-260.011Z" transform="translate(-1335.099 -1081.411)" fill="#ebebec"/>
    <path id="Trazado_213387" data-name="Trazado 213387" d="M3732.373-225.831a1.016,1.016,0,0,1,1.04,1.11.963.963,0,0,1-1.083,1.046.971.971,0,0,1-1.054-1.084A1.023,1.023,0,0,1,3732.373-225.831Z" transform="translate(-1335.07 -1109.773)" fill="#ebebec"/>
    <path id="Trazado_213388" data-name="Trazado 213388" d="M3715.844-224.7a1,1,0,0,1-1.012,1.077.969.969,0,0,1-1.147-.98.986.986,0,0,1,.99-1.156C3715.328-225.806,3715.748-225.445,3715.844-224.7Z" transform="translate(-1320.875 -1109.827)" fill="#ebebec"/>
    <path id="Trazado_213389" data-name="Trazado 213389" d="M4631.121-261.058a1.047,1.047,0,0,1,1.076,1.113,1.039,1.039,0,0,1-1.118,1.07,1.01,1.01,0,0,1-1.052-1.116A1.029,1.029,0,0,1,4631.121-261.058Z" transform="translate(-2060.074 -1081.356)" fill="#ebebec"/>
    <path id="Trazado_213390" data-name="Trazado 213390" d="M4648.825-261.047a1.024,1.024,0,0,1,1.062,1.1,1,1,0,0,1-1.08,1.078.987.987,0,0,1-1.046-1.1A1.012,1.012,0,0,1,4648.825-261.047Z" transform="translate(-2074.38 -1081.365)" fill="#ebebec"/>
    <path id="Trazado_213391" data-name="Trazado 213391" d="M4631.082-294.2a1.04,1.04,0,0,1-1.038-1.136,1,1,0,0,1,1.1-1.057,1.04,1.04,0,0,1,1.063,1.128A1.064,1.064,0,0,1,4631.082-294.2Z" transform="translate(-2060.089 -1052.852)" fill="#ebebec"/>
    <path id="Trazado_213392" data-name="Trazado 213392" d="M4649.9-295.342c-.055.618-.347,1.078-1.036,1.1a.983.983,0,0,1-1.1-1.036,1,1,0,0,1,1.008-1.141C4649.425-296.45,4649.8-296.027,4649.9-295.342Z" transform="translate(-2074.378 -1052.832)" fill="#ebebec"/>
    <path id="Trazado_213393" data-name="Trazado 213393" d="M4632.183-224.661c-.129.621-.427,1.083-1.138,1.072a1,1,0,0,1-1.1-1.074,1,1,0,0,1,1.093-1.081C4631.73-225.753,4632.068-225.306,4632.183-224.661Z" transform="translate(-2060.013 -1109.843)" fill="#ebebec"/>
    <path id="Trazado_213394" data-name="Trazado 213394" d="M4649.858-224.723a1,1,0,0,1-1.006,1.084.971.971,0,0,1-1.156-.973.987.987,0,0,1,.98-1.166A1.053,1.053,0,0,1,4649.858-224.723Z" transform="translate(-2074.325 -1109.813)" fill="#ebebec"/>
    <path id="Trazado_213395" data-name="Trazado 213395" d="M4191.988-258.783c-.649-.09-1.1-.442-1.11-1.1a1,1,0,0,1,1.065-1.1.985.985,0,0,1,1.091,1.055C4193.055-259.23,4192.62-258.9,4191.988-258.783Z" transform="translate(-1705.822 -1081.423)" fill="#ebebec"/>
    <path id="Trazado_213396" data-name="Trazado 213396" d="M4175.571-260a1.031,1.031,0,0,1-1,1.188.983.983,0,0,1-1.1-1.029.973.973,0,0,1,.987-1.133A.985.985,0,0,1,4175.571-260Z" transform="translate(-1691.78 -1081.425)" fill="#ebebec"/>
    <path id="Trazado_213397" data-name="Trazado 213397" d="M4193.02-295.356a1.036,1.036,0,0,1-1.042,1.134,1.015,1.015,0,0,1-1.131-1.039,1.036,1.036,0,0,1,1.047-1.138A1.037,1.037,0,0,1,4193.02-295.356Z" transform="translate(-1705.795 -1052.846)" fill="#ebebec"/>
    <path id="Trazado_213398" data-name="Trazado 213398" d="M4175.584-295.4c-.059.755-.417,1.162-1.086,1.15a.981.981,0,0,1-1.025-1.106,1,1,0,0,1,1.068-1.075A1.019,1.019,0,0,1,4175.584-295.4Z" transform="translate(-1691.782 -1052.824)" fill="#ebebec"/>
    <path id="Trazado_213399" data-name="Trazado 213399" d="M4193.008-224.646a1,1,0,0,1-1.1,1.044.988.988,0,0,1-1.086-1.07,1.006,1.006,0,0,1,1.1-1.069A1.025,1.025,0,0,1,4193.008-224.646Z" transform="translate(-1705.775 -1109.846)" fill="#ebebec"/>
    <path id="Trazado_213400" data-name="Trazado 213400" d="M4175.454-224.733c-.035.738-.372,1.129-1.064,1.137a.976.976,0,0,1-1.082-1.056.976.976,0,0,1,1.061-1.082A.986.986,0,0,1,4175.454-224.733Z" transform="translate(-1691.648 -1109.852)" fill="#ebebec"/>
  </g>
</svg>
