<svg xmlns="http://www.w3.org/2000/svg" width="342.212" height="252.264" viewBox="0 0 342.212 252.264">
  <g id="Grupo_106843" data-name="Grupo 106843" transform="translate(-626.356 -8146.694)">
    <g id="Grupo_98621" data-name="Grupo 98621" transform="translate(626.356 8394.681)">
      <path id="Trazado_213529" data-name="Trazado 213529" d="M2042.211,1510.369a2.14,2.14,0,0,1-2.139,2.139H1702.139a2.139,2.139,0,0,1,0-4.278h337.934A2.138,2.138,0,0,1,2042.211,1510.369Z" transform="translate(-1700 -1508.23)" fill="#052064"/>
    </g>
    <g id="Grupo_98641" data-name="Grupo 98641" transform="translate(639.833 8146.694)">
      <g id="Grupo_98637" data-name="Grupo 98637" transform="translate(0)">
        <g id="Grupo_98632" data-name="Grupo 98632">
          <path id="Trazado_213535" data-name="Trazado 213535" d="M2077.034,361V520.077H1763.015V361a12.225,12.225,0,0,1,12.224-12.224H2064.81A12.225,12.225,0,0,1,2077.034,361Z" transform="translate(-1763.015 -348.777)" fill="#052064"/>
        </g>
        <g id="Grupo_98633" data-name="Grupo 98633" transform="translate(20.143 20.143)">
          <rect id="Rectángulo_42603" data-name="Rectángulo 42603" width="273.731" height="151.157" fill="#fff"/>
        </g>
        <g id="Grupo_98634" data-name="Grupo 98634" transform="translate(10.988 10.988)">
          <path id="Trazado_213536" data-name="Trazado 213536" d="M1814.387,400.149V549.474h292.042V400.149Z" transform="translate(-1814.387 -400.149)" fill="#fff"/>
        </g>
        <g id="Grupo_98635" data-name="Grupo 98635" transform="translate(86.685 213.425)">
          <path id="Trazado_213537" data-name="Trazado 213537" d="M2308.956,1381.2l-16.093-18.662h0v-15.9H2184.4v15.9l-16.092,18.661Z" transform="translate(-2168.308 -1346.638)" fill="#e5e7eb"/>
        </g>
        <g id="Grupo_98636" data-name="Grupo 98636" transform="translate(86.685 213.425)" opacity="0.1">
          <path id="Trazado_213538" data-name="Trazado 213538" d="M2308.956,1381.2l-16.093-18.662h0v-15.9H2184.4v15.9l-16.092,18.661Z" transform="translate(-2168.308 -1346.638)" fill="#052064"/>
        </g>
      </g>
      <g id="Grupo_98638" data-name="Grupo 98638" transform="translate(0 171.3)">
        <path id="Trazado_213539" data-name="Trazado 213539" d="M2077.034,1149.685v29.9a12.223,12.223,0,0,1-12.224,12.224H1775.239a12.224,12.224,0,0,1-12.224-12.224v-29.9Z" transform="translate(-1763.015 -1149.685)" fill="#e5e7eb"/>
      </g>
      <g id="Grupo_98639" data-name="Grupo 98639" transform="translate(0 160.312)">
        <rect id="Rectángulo_42604" data-name="Rectángulo 42604" width="10.988" height="314.019" transform="translate(314.019 0) rotate(90)" fill="#052064"/>
      </g>
      <g id="Grupo_98640" data-name="Grupo 98640" transform="translate(144.265 179.617)">
        <circle id="Elipse_6313" data-name="Elipse 6313" cx="9.012" cy="9.012" r="9.012" transform="translate(0 12.745) rotate(-45)" fill="#052064"/>
      </g>
    </g>
    <g id="Grupo_98673" data-name="Grupo 98673" transform="translate(697.658 8161.26)">
      <g id="Grupo_98658" data-name="Grupo 98658" transform="translate(80.333 13.352)">
        <g id="Grupo_98653" data-name="Grupo 98653">
          <g id="Grupo_98652" data-name="Grupo 98652">
            <path id="Trazado_213545" data-name="Trazado 213545" d="M2527,537.841l-2.585,17.762-16.923-.288a42.721,42.721,0,0,1-5.752,9.654l8.313,14.745-14.387,10.732L2483.9,578.275a42.732,42.732,0,0,1-10.892,2.762l-4.548,16.3-17.762-2.585.288-16.923a42.737,42.737,0,0,1-9.654-5.752l-14.745,8.314-10.732-14.387,12.171-11.764a42.767,42.767,0,0,1-2.762-10.893l-16.3-4.548,2.584-17.762,16.923.288a42.73,42.73,0,0,1,5.752-9.654l-8.313-14.745L2440.3,486.2l11.764,12.171a42.747,42.747,0,0,1,10.893-2.762l4.547-16.3,17.762,2.585-.288,16.923a42.733,42.733,0,0,1,9.654,5.752l14.745-8.313,10.731,14.387L2507.935,522.4a42.747,42.747,0,0,1,2.762,10.893Z" transform="translate(-2408.964 -479.304)" fill="#e5e7eb"/>
          </g>
        </g>
        <g id="Grupo_98655" data-name="Grupo 98655" transform="translate(25.843 25.844)">
          <g id="Grupo_98654" data-name="Grupo 98654">
            <path id="Trazado_213546" data-name="Trazado 213546" d="M2595.794,638.089a32.942,32.942,0,0,0-1.26-14.953l-1.409.875v0a31.511,31.511,0,0,1-2.238,24.013l1.489.636A33.027,33.027,0,0,0,2595.794,638.089Zm-5.73-23.884a33.131,33.131,0,0,0-51.127-3.74l1.453.81a31.523,31.523,0,0,1,48.412,3.934Zm-22.134,51.9-.941-1.491a31.574,31.574,0,0,1-35.255-35.85c.017-.118.035-.236.055-.353l-1.535-.585q-.061.352-.112.706a33.172,33.172,0,0,0,37.789,37.573Z" transform="translate(-2529.792 -600.137)" fill="#fff"/>
          </g>
        </g>
        <g id="Grupo_98657" data-name="Grupo 98657" transform="translate(45.499 45.497)">
          <g id="Grupo_98656" data-name="Grupo 98656">
            <path id="Trazado_213547" data-name="Trazado 213547" d="M2637.794,693.919l-.075-1.658c-.183-.036-.371-.067-.559-.094a13.519,13.519,0,0,0-6.326,26.168l.236-1.625a11.909,11.909,0,0,1,5.858-22.95C2637.221,693.8,2637.51,693.855,2637.794,693.919Zm10.8,13.575a13.536,13.536,0,0,0-5.381-12.845l-.792,1.42a11.906,11.906,0,0,1-3.876,20.912l.286,1.591A13.536,13.536,0,0,0,2648.59,707.493Z" transform="translate(-2621.694 -692.025)" fill="#fff"/>
          </g>
        </g>
      </g>
      <g id="Grupo_98665" data-name="Grupo 98665" transform="translate(0 55.441)">
        <g id="Grupo_98660" data-name="Grupo 98660">
          <g id="Grupo_98659" data-name="Grupo 98659">
            <path id="Trazado_213548" data-name="Trazado 213548" d="M2116.091,700.08l4,12.726-11.423,5.272a31.768,31.768,0,0,1-.734,8.321l10.327,7.188-6.168,11.83-11.806-4.35a31.769,31.769,0,0,1-6.4,5.366l2.219,12.384-12.727,4-5.271-11.423a31.768,31.768,0,0,1-8.321-.734L2062.6,760.99l-11.83-6.167,4.35-11.806a31.767,31.767,0,0,1-5.366-6.4l-12.383,2.219-4-12.727,11.423-5.271a31.766,31.766,0,0,1,.734-8.32l-10.327-7.188,6.167-11.831,11.807,4.35a31.774,31.774,0,0,1,6.4-5.366l-2.219-12.384,12.727-4,5.271,11.423a31.773,31.773,0,0,1,8.321.734l7.188-10.327,11.831,6.168-4.351,11.806a31.779,31.779,0,0,1,5.366,6.4Z" transform="translate(-2033.369 -676.094)" fill="#e5e7eb"/>
          </g>
        </g>
        <g id="Grupo_98662" data-name="Grupo 98662" transform="translate(19.69 18.704)">
          <g id="Grupo_98661" data-name="Grupo 98661">
            <path id="Trazado_213549" data-name="Trazado 213549" d="M2172.625,780.8a24.485,24.485,0,0,0-5.672-9.6l-.661,1.041v0a23.422,23.422,0,0,1,6.255,16.8l1.2-.055A24.557,24.557,0,0,0,2172.625,780.8Zm-11.548-14.141a24.627,24.627,0,0,0-35.439,14l1.235.073a23.431,23.431,0,0,1,33.683-13Zm1.939,41.9-1.112-.694a23.469,23.469,0,0,1-35.18-12.62c-.026-.084-.053-.169-.077-.254l-1.217.1q.073.255.153.509a24.658,24.658,0,0,0,37.433,12.955Z" transform="translate(-2125.431 -763.545)" fill="#fff"/>
          </g>
        </g>
        <g id="Grupo_98664" data-name="Grupo 98664" transform="translate(33.315 33.485)">
          <g id="Grupo_98663" data-name="Grupo 98663">
            <path id="Trazado_213550" data-name="Trazado 213550" d="M2197.154,833.914l-.585-1.086c-.134.035-.27.075-.4.117a10.049,10.049,0,0,0,4.213,19.563l-.366-1.165a8.852,8.852,0,0,1-3.488-17.257C2196.733,834.021,2196.943,833.963,2197.154,833.914Zm11.611,5.6a10.06,10.06,0,0,0-7.75-6.863l-.072,1.207a8.849,8.849,0,0,1,4.157,15.252l.7.973A10.059,10.059,0,0,0,2208.765,839.517Z" transform="translate(-2189.132 -832.654)" fill="#fff"/>
          </g>
        </g>
      </g>
      <g id="Grupo_98672" data-name="Grupo 98672" transform="translate(34.647)">
        <g id="Grupo_98667" data-name="Grupo 98667">
          <g id="Grupo_98666" data-name="Grupo 98666">
            <path id="Trazado_213551" data-name="Trazado 213551" d="M2251.9,434.76l2.2,8.7-7.872,3.1a21.36,21.36,0,0,1-.815,5.557l6.653,5.224-4.6,7.7-7.757-3.377a21.363,21.363,0,0,1-4.5,3.354l1.01,8.4-8.7,2.2-3.1-7.872a21.356,21.356,0,0,1-5.557-.815l-5.224,6.654-7.7-4.6,3.378-7.756a21.375,21.375,0,0,1-3.355-4.5l-8.4,1.01-2.2-8.7,7.872-3.1a21.338,21.338,0,0,1,.815-5.557l-6.654-5.224,4.6-7.7,7.757,3.377a21.354,21.354,0,0,1,4.5-3.354l-1.01-8.4,8.7-2.2,3.1,7.872a21.355,21.355,0,0,1,5.557.815l5.224-6.654,7.7,4.6-3.377,7.756a21.37,21.37,0,0,1,3.354,4.5Z" transform="translate(-2195.362 -416.879)" fill="#e5e7eb"/>
          </g>
        </g>
        <g id="Grupo_98669" data-name="Grupo 98669" transform="translate(13.208 12.785)">
          <g id="Grupo_98668" data-name="Grupo 98668">
            <path id="Trazado_213552" data-name="Trazado 213552" d="M2289.345,489.176a16.46,16.46,0,0,0-3.436-6.666l-.484.673v0a15.747,15.747,0,0,1,3.548,11.519l.809.01A16.513,16.513,0,0,0,2289.345,489.176Zm-7.2-9.939a16.558,16.558,0,0,0-24.33,8.028l.826.1a15.753,15.753,0,0,1,23.112-7.42Zm-.32,28.2-.719-.509a15.78,15.78,0,0,1-23.125-9.832c-.014-.058-.029-.115-.042-.174l-.821.023q.039.174.083.348a16.579,16.579,0,0,0,24.625,10.144Z" transform="translate(-2257.114 -476.653)" fill="#fff"/>
          </g>
        </g>
        <g id="Grupo_98671" data-name="Grupo 98671" transform="translate(22.608 22.75)">
          <g id="Grupo_98670" data-name="Grupo 98670">
            <path id="Trazado_213553" data-name="Trazado 213553" d="M2306.8,524l-.35-.751c-.092.018-.184.04-.276.063a6.756,6.756,0,0,0,2.07,13.294l-.2-.8a5.952,5.952,0,0,1-1.674-11.719C2306.509,524.054,2306.652,524.023,2306.8,524Zm7.577,4.21a6.764,6.764,0,0,0-4.937-4.907l-.095.807a5.95,5.95,0,0,1,2.2,10.4l.435.68A6.765,6.765,0,0,0,2314.373,528.208Z" transform="translate(-2301.066 -523.247)" fill="#fff"/>
          </g>
        </g>
      </g>
    </g>
    <g id="Grupo_99159" data-name="Grupo 99159" transform="translate(794.291 8199.383)">
      <rect id="Rectángulo_42795" data-name="Rectángulo 42795" width="4.278" height="65.923" transform="translate(0 0)" fill="#052064"/>
    </g>
    <g id="Grupo_99160" data-name="Grupo 99160" transform="translate(705.962 8229.467)">
      <path id="Trazado_213585" data-name="Trazado 213585" d="M2253.957,771.616h-4.278V740.055h-173.2v31.562H2072.2V735.777h181.76Z" transform="translate(-2072.196 -735.777)" fill="#052064"/>
    </g>
    <g id="Grupo_99165" data-name="Grupo 99165" transform="translate(673.234 8179.756)">
      <g id="Grupo_99161" data-name="Grupo 99161" transform="translate(88.329 0)">
        <rect id="Rectángulo_42796" data-name="Rectángulo 42796" width="69.733" height="39.252" rx="12" fill="#84cdff"/>
      </g>
      <g id="Grupo_99162" data-name="Grupo 99162" transform="translate(88.329 65.923)">
        <rect id="Rectángulo_42797" data-name="Rectángulo 42797" width="69.733" height="39.252" rx="12" fill="#84cdff"/>
      </g>
      <g id="Grupo_99163" data-name="Grupo 99163" transform="translate(177.482 65.923)">
        <rect id="Rectángulo_42798" data-name="Rectángulo 42798" width="69.733" height="39.252" rx="12" fill="#84cdff"/>
      </g>
      <g id="Grupo_99164" data-name="Grupo 99164" transform="translate(0 65.923)">
        <rect id="Rectángulo_42799" data-name="Rectángulo 42799" width="69.733" height="39.252" rx="12" fill="#84cdff"/>
      </g>
    </g>
    <g id="Grupo_99183" data-name="Grupo 99183" transform="translate(833.92 8295.625)">
      <g id="Grupo_99166" data-name="Grupo 99166" transform="translate(10.888 20.067)">
        <rect id="Rectángulo_42800" data-name="Rectángulo 42800" width="81.55" height="67.879" fill="#052064"/>
      </g>
      <g id="Grupo_99167" data-name="Grupo 99167" transform="translate(10.888 22.976)">
        <rect id="Rectángulo_42801" data-name="Rectángulo 42801" width="17.292" height="58.355" fill="#052064"/>
      </g>
      <g id="Grupo_99172" data-name="Grupo 99172">
        <g id="Grupo_99168" data-name="Grupo 99168">
          <rect id="Rectángulo_42802" data-name="Rectángulo 42802" width="103.326" height="28.18" rx="14.09" fill="#039be5"/>
        </g>
        <g id="Grupo_99170" data-name="Grupo 99170" transform="translate(56.781 3.841)">
          <g id="Grupo_99169" data-name="Grupo 99169">
            <path id="Trazado_213586" data-name="Trazado 213586" d="M2978.642,1076.284h-2.562v-10.667h-40.138v-2.562h42.7Z" transform="translate(-2935.942 -1063.055)" fill="#fff"/>
          </g>
        </g>
        <g id="Grupo_99171" data-name="Grupo 99171" transform="translate(5.123 5.204)">
          <rect id="Rectángulo_42803" data-name="Rectángulo 42803" width="16.653" height="17.772" fill="#ffa800"/>
        </g>
      </g>
      <g id="Grupo_99177" data-name="Grupo 99177" transform="translate(0 35.438)">
        <g id="Grupo_99173" data-name="Grupo 99173">
          <rect id="Rectángulo_42804" data-name="Rectángulo 42804" width="103.326" height="28.18" rx="14.09" fill="#039be5"/>
        </g>
        <g id="Grupo_99175" data-name="Grupo 99175" transform="translate(56.781 3.841)">
          <g id="Grupo_99174" data-name="Grupo 99174">
            <path id="Trazado_213587" data-name="Trazado 213587" d="M2978.642,1241.974h-2.562v-10.667h-40.138v-2.562h42.7Z" transform="translate(-2935.942 -1228.745)" fill="#fff"/>
          </g>
        </g>
        <g id="Grupo_99176" data-name="Grupo 99176" transform="translate(5.123 5.204)">
          <rect id="Rectángulo_42805" data-name="Rectángulo 42805" width="16.653" height="17.772" fill="#ffa800"/>
        </g>
      </g>
      <g id="Grupo_99182" data-name="Grupo 99182" transform="translate(0 70.876)">
        <g id="Grupo_99178" data-name="Grupo 99178">
          <rect id="Rectángulo_42806" data-name="Rectángulo 42806" width="103.326" height="28.18" rx="14.09" fill="#039be5"/>
        </g>
        <g id="Grupo_99180" data-name="Grupo 99180" transform="translate(56.781 3.841)">
          <g id="Grupo_99179" data-name="Grupo 99179">
            <path id="Trazado_213588" data-name="Trazado 213588" d="M2978.642,1407.664h-2.562V1397h-40.138v-2.562h42.7Z" transform="translate(-2935.942 -1394.434)" fill="#fff"/>
          </g>
        </g>
        <g id="Grupo_99181" data-name="Grupo 99181" transform="translate(5.123 5.204)">
          <rect id="Rectángulo_42807" data-name="Rectángulo 42807" width="16.653" height="17.772" fill="#ffa800"/>
        </g>
      </g>
    </g>
    <g id="Grupo_99211" data-name="Grupo 99211" transform="translate(656.008 8184.913)">
      <g id="Grupo_99184" data-name="Grupo 99184" transform="translate(43.385 203.619)">
        <path id="Trazado_213589" data-name="Trazado 213589" d="M2041.511,1485.629h20.26a3.116,3.116,0,0,0-.57-1.9,3.207,3.207,0,0,0-2.031-1.081,19.481,19.481,0,0,0-2.352-.136,12.452,12.452,0,0,1-5.5-1.593,18.607,18.607,0,0,0-2.64-1.44l-5.522.145a6.329,6.329,0,0,0-1.476,2.977A11.149,11.149,0,0,0,2041.511,1485.629Z" transform="translate(-2041.481 -1479.481)" fill="#052064"/>
      </g>
      <g id="Grupo_99185" data-name="Grupo 99185" transform="translate(43.514 197.203)">
        <path id="Trazado_213590" data-name="Trazado 213590" d="M2042.085,1450.074l1.551,5.97,5.522-.144-.324-6.416Z" transform="translate(-2042.085 -1449.484)" fill="#f5bdd7"/>
      </g>
      <g id="Grupo_99186" data-name="Grupo 99186" transform="translate(0.364 90.79)">
        <path id="Trazado_213591" data-name="Trazado 213591" d="M1892.1,1007.889a50.351,50.351,0,0,0-1.024-11.473c-2.688-13.007-7.521-38.059-7.521-38.063-.749-5.4-5.236-6.978-10.634-6.229-3.138.435-32.6,6.535-32.577,6.813l6.423,99.847,8.2-.281,9.4-74.756,12.862,20.8.009.03,5.7,54.416,7.873-.539Z" transform="translate(-1840.34 -951.949)" fill="#039be5"/>
      </g>
      <g id="Grupo_99187" data-name="Grupo 99187" transform="translate(6.436 203.619)">
        <path id="Trazado_213592" data-name="Trazado 213592" d="M1868.76,1485.628h20.26a3.121,3.121,0,0,0-.569-1.9,3.208,3.208,0,0,0-2.031-1.081,19.464,19.464,0,0,0-2.351-.136,12.449,12.449,0,0,1-5.5-1.592,18.651,18.651,0,0,0-2.64-1.44l-5.522.145a6.323,6.323,0,0,0-1.475,2.977A11.145,11.145,0,0,0,1868.76,1485.628Z" transform="translate(-1868.73 -1479.48)" fill="#052064"/>
      </g>
      <g id="Grupo_99188" data-name="Grupo 99188" transform="translate(7.457 197.359)">
        <path id="Trazado_213593" data-name="Trazado 213593" d="M1873.5,1450.454l.66,6.163,5.522-.145.857-6.259Z" transform="translate(-1873.5 -1450.213)" fill="#f5bdd7"/>
      </g>
      <g id="Grupo_99192" data-name="Grupo 99192" transform="translate(23.544 23.385)">
        <g id="Grupo_99190" data-name="Grupo 99190" transform="translate(0.336)">
          <g id="Grupo_99189" data-name="Grupo 99189">
            <path id="Trazado_213594" data-name="Trazado 213594" d="M2013.888,636.833a2.024,2.024,0,0,0-2.335,1.372,49.04,49.04,0,0,1-2.936,8.062,26.372,26.372,0,0,1-4.446,6.726,15.824,15.824,0,0,1-6.032,4.105,16.548,16.548,0,0,1-3.473.862,20.374,20.374,0,0,1-3.685.145,32.658,32.658,0,0,1-7.659-1.388,58.3,58.3,0,0,1-7.664-2.927c-2.53-1.161-5.03-2.466-7.495-3.881s-4.9-2.919-7.3-4.5a6.312,6.312,0,0,0-5.1-.658,7.563,7.563,0,0,0-4.4,3.377h0a7.151,7.151,0,0,0-.858,5.5,6.534,6.534,0,0,0,3.426,4.24c2.828,1.335,5.706,2.6,8.647,3.766s5.945,2.235,9.032,3.15a69.036,69.036,0,0,0,9.553,2.152,42.139,42.139,0,0,0,10.177.336,29.063,29.063,0,0,0,5.214-.984,24.759,24.759,0,0,0,5-2.062,23.182,23.182,0,0,0,7.807-7.1,32.41,32.41,0,0,0,4.253-8.914,53.745,53.745,0,0,0,1.949-9.2A1.969,1.969,0,0,0,2013.888,636.833Z" transform="translate(-1950.285 -636.802)" fill="#ea80b3"/>
          </g>
        </g>
        <g id="Grupo_99191" data-name="Grupo 99191" transform="translate(0 5.577)">
          <path id="Trazado_213595" data-name="Trazado 213595" d="M1971.223,690.837l-16.68-8.6c-5.045-2.6-7.351-8.524-4.749-13.569h0a10.761,10.761,0,0,1,14.171-4.7l16.68,8.6Z" transform="translate(-1948.715 -662.877)" fill="#fff"/>
        </g>
      </g>
      <g id="Grupo_99193" data-name="Grupo 99193" transform="translate(0.364 26.092)">
        <path id="Trazado_213596" data-name="Trazado 213596" d="M1862.649,649.534h0a18.969,18.969,0,0,1,20.648,18.815l.253,52.21c-17.67,8.566-27.644,5.7-43.21.584l1.114-49.054A23.262,23.262,0,0,1,1862.649,649.534Z" transform="translate(-1840.34 -649.458)" fill="#fff"/>
      </g>
      <g id="Grupo_99194" data-name="Grupo 99194" transform="translate(0 25.734)">
        <path id="Trazado_213597" data-name="Trazado 213597" d="M1882.317,667.031a19.352,19.352,0,0,0-19.3-19.249c-.576,0-1.162.025-1.74.077-.284.025-.564.056-.844.092q-.035.183-.075.372c.314-.043.632-.077.952-.106q.862-.076,1.708-.075a18.97,18.97,0,0,1,18.94,18.89l.092,19.06h.359Zm-24,57.54.025.361c1.029.085,2.06.128,3.1.128a37.806,37.806,0,0,0,7-.663l-.122-.339A37.244,37.244,0,0,1,1858.317,724.572Zm-18.561-53.807-.269,11.9h.359l.27-11.89a23.2,23.2,0,0,1,6.6-15.62c-.088-.086-.175-.169-.257-.253A23.574,23.574,0,0,0,1839.755,670.765Zm-.5,38.072-.357-.05-.257,11.3.252.083c1.922.632,3.746,1.225,5.5,1.76,0-.124,0-.246.006-.37-1.731-.533-3.522-1.115-5.393-1.731Zm43.228-8.194h-.357l.09,18.6q-1.794.87-3.488,1.584l.088.354q1.743-.736,3.556-1.615l.2-.1Z" transform="translate(-1838.637 -647.782)" fill="#84cdff"/>
      </g>
      <g id="Grupo_99198" data-name="Grupo 99198" transform="translate(16.614 4.078)">
        <g id="Grupo_99195" data-name="Grupo 99195" transform="translate(2.333 15.873)">
          <path id="Trazado_213598" data-name="Trazado 213598" d="M1936.418,621.007l-.4,13.492a7.485,7.485,0,0,1-8.792-.261l.4-13.492Z" transform="translate(-1927.226 -620.746)" fill="#f5bdd7"/>
        </g>
        <g id="Grupo_99196" data-name="Grupo 99196" transform="translate(2.627 15.873)">
          <path id="Trazado_213599" data-name="Trazado 213599" d="M1937.5,621.007l-.182,6.1a7.118,7.118,0,0,1-1.982.393q-.333.017-.665.007a7.91,7.91,0,0,1-6.071-3.143l.108-3.621Z" transform="translate(-1928.598 -620.746)" fill="#ea80b3"/>
        </g>
        <g id="Grupo_99197" data-name="Grupo 99197">
          <path id="Trazado_213600" data-name="Trazado 213600" d="M1932.083,554.533l-.536,7.91a6.267,6.267,0,0,1-5.916,5.834h0a6.97,6.97,0,0,1-6.747-4.083,53.237,53.237,0,0,1-2.127-5.868,9.539,9.539,0,0,1,2.315-9.614,7.684,7.684,0,0,1,13.011,5.821Z" transform="translate(-1916.316 -546.532)" fill="#f5bdd7"/>
        </g>
      </g>
      <g id="Grupo_99201" data-name="Grupo 99201" transform="translate(12.26)">
        <g id="Grupo_99199" data-name="Grupo 99199" transform="translate(18.52 6.616)">
          <path id="Trazado_213601" data-name="Trazado 213601" d="M1982.547,559.63s1.539,2.621,1.381,7.479a23.826,23.826,0,0,0,.054-8.71Z" transform="translate(-1982.547 -558.399)" fill="#052064"/>
        </g>
        <g id="Grupo_99200" data-name="Grupo 99200">
          <path id="Trazado_213602" data-name="Trazado 213602" d="M1897.919,543.332s-4.39-6.287-.039-11.29c4.69-5.392,7.87-4.9,11.3-4.052,4.333,1.074,6.686,2.52,8.325,2.128.876-.209,1.637-.973,1.792-.474a6.341,6.341,0,0,1-1.98,5.729c-2.433,2.269-5.68,2.011-8.9.432s-4.715-1.338-6,.657c-1.365,2.116.654,5.866.654,5.866l-.969.378S1898.348,540.632,1897.919,543.332Z" transform="translate(-1895.956 -527.465)" fill="#052064"/>
        </g>
      </g>
      <g id="Grupo_99202" data-name="Grupo 99202" transform="translate(13.848 12.233)">
        <path id="Trazado_213603" data-name="Trazado 213603" d="M1909.97,587.691a3.318,3.318,0,1,1-3.207-3.029A3.13,3.13,0,0,1,1909.97,587.691Z" transform="translate(-1903.381 -584.66)" fill="#f5bdd7"/>
      </g>
      <g id="Grupo_99210" data-name="Grupo 99210" transform="translate(5.217 37.257)">
        <g id="Grupo_99203" data-name="Grupo 99203" transform="translate(39.994 11.714)">
          <path id="Trazado_213604" data-name="Trazado 213604" d="M2050.02,796.772h31.148l12.813-40.348h-31.148Z" transform="translate(-2050.02 -756.424)" fill="#052064"/>
        </g>
        <g id="Grupo_99209" data-name="Grupo 99209">
          <g id="Grupo_99206" data-name="Grupo 99206" transform="translate(0.885 2.106)">
            <g id="Grupo_99205" data-name="Grupo 99205">
              <g id="Grupo_99204" data-name="Grupo 99204">
                <path id="Trazado_213605" data-name="Trazado 213605" d="M1934.791,750.746a1.8,1.8,0,0,1-1.725,1.994,42.827,42.827,0,0,1-9.086-.557,67.839,67.839,0,0,1-8.765-2.065c-.712-.228-1.437-.434-2.142-.683l-2.122-.738-2.1-.8c-.7-.263-1.382-.567-2.076-.85l-1.036-.432-1.021-.46c-.679-.31-1.365-.612-2.04-.931-1.335-.661-2.7-1.293-4.005-2a162.205,162.205,0,0,1-29.367-20.2,6.562,6.562,0,0,1-.938-1.011,6.162,6.162,0,0,1-.662-1.161,6.491,6.491,0,0,1-.543-2.544,6.6,6.6,0,0,1,2.034-4.8h0a7.017,7.017,0,0,1,4.828-2,6.288,6.288,0,0,1,2.463.474,6.14,6.14,0,0,1,1.107.605,5.819,5.819,0,0,1,.991.835,151.439,151.439,0,0,0,24.56,22.465c1.118.826,2.277,1.571,3.424,2.354.579.378,1.167.74,1.751,1.112l.879.554.892.526c.6.346,1.186.716,1.792,1.043l1.816,1,1.843.942c.614.319,1.243.594,1.865.894a62.228,62.228,0,0,0,7.691,2.982,38.6,38.6,0,0,0,7.968,1.621,2.01,2.01,0,0,1,1.724,1.834Z" transform="translate(-1867.165 -711.505)" fill="#f4bcd6"/>
              </g>
            </g>
          </g>
          <g id="Grupo_99207" data-name="Grupo 99207" transform="translate(0.508 0.509)">
            <path id="Trazado_213606" data-name="Trazado 213606" d="M1882.559,732.241l-13.487-11.268c-4.079-3.408-4.976-9.292-1.568-13.371h0a10.077,10.077,0,0,1,13.911-1.4l13.487,11.268Z" transform="translate(-1865.405 -704.036)" fill="#fff"/>
          </g>
          <g id="Grupo_99208" data-name="Grupo 99208">
            <path id="Trazado_213607" data-name="Trazado 213607" d="M1884.117,708.149l7.2,6.012.328-.392-7.215-6.028Zm-21.008,4.585a10.461,10.461,0,0,0,3.143,6.193l.407-.313a9.584,9.584,0,0,1-2.444-10.54l-.443-.26A9.43,9.43,0,0,0,1863.109,712.734Zm10.311-11.076a10.891,10.891,0,0,0-6.364,2.06l.333.384a10.171,10.171,0,0,1,10.827-.692l.353-.382A10.2,10.2,0,0,0,1873.42,701.658Zm-2.124,20.866-.295.417,9.754,8.146,4.385-5.247-.45-.252-4,4.784Zm21.021-6.068-4.738,5.674.5.191,4.621-5.529C1892.577,716.684,1892.449,716.57,1892.317,716.455Z" transform="translate(-1863.029 -701.658)" fill="#84cdff"/>
          </g>
        </g>
      </g>
    </g>
  </g>
</svg>
