<svg xmlns="http://www.w3.org/2000/svg" width="505" height="468.29" viewBox="0 0 505 468.29">
  <g id="Grupo_99455" data-name="Grupo 99455" transform="translate(-47.443 -36.375)">
    <g id="Grupo_99321" data-name="Grupo 99321" transform="translate(47.443 36.375)">
      <g id="Grupo_99303" data-name="Grupo 99303" transform="translate(0 74.065)">
        <rect id="Rectángulo_42844" data-name="Rectángulo 42844" width="204.405" height="8.776" fill="#ebebeb"/>
        <path id="Trazado_213646" data-name="Trazado 213646" d="M73.883,139.129H65.921l-3.2-34.548H73.883Z" transform="translate(-44.163 -95.805)" fill="#ebebeb"/>
        <path id="Trazado_213647" data-name="Trazado 213647" d="M191.268,139.129h7.962l3.2-34.548H191.268Z" transform="translate(-16.583 -95.805)" fill="#ebebeb"/>
        <path id="Trazado_213648" data-name="Trazado 213648" d="M62.727,104.584H73.879v11.9H63.824Z" transform="translate(-44.163 -95.805)" fill="#dbdbdb"/>
        <path id="Trazado_213649" data-name="Trazado 213649" d="M202.421,104.584l-1.1,11.9H191.27v-11.9Z" transform="translate(-16.583 -95.805)" fill="#dbdbdb"/>
      </g>
      <g id="Grupo_99315" data-name="Grupo 99315" transform="translate(28.023)">
        <g id="Grupo_99312" data-name="Grupo 99312">
          <g id="Grupo_99305" data-name="Grupo 99305" transform="translate(25.165 21.255)">
            <path id="Trazado_213650" data-name="Trazado 213650" d="M112.065,54.032C103,66.317,93.538,80.572,91.235,95.977c-.028.233.345.31.4.079a91.564,91.564,0,0,1,4.012-12.334c5.962-1.642,11.815-2.99,14.946-8.909,3.194-6.084,2.789-14.016,2.181-20.644C112.732,53.813,112.25,53.8,112.065,54.032Z" transform="translate(-91.234 -53.875)" fill="#ebebeb"/>
            <g id="Grupo_99304" data-name="Grupo 99304" transform="translate(4.485 3.87)">
              <path id="Trazado_213651" data-name="Trazado 213651" d="M94.943,82.921c4.075-9.143,9.306-18.324,15.954-25.843.045-.05.115.023.074.074a109.293,109.293,0,0,0-10.892,17.12c3-3.05,6.3-5.78,9.14-9.013.056-.063.145.028.091.091-2.825,3.39-5.91,7.074-9.589,9.582q-1.483,2.731-2.993,5.474c.248-.138.5-.262.757-.387.044-.022.084.044.039.067-.281.142-.559.291-.848.414-.477.865-.951,1.73-1.443,2.592C95.124,83.283,94.857,83.114,94.943,82.921Z" transform="translate(-94.926 -57.061)" fill="#a6a6a6"/>
              <path id="Trazado_213652" data-name="Trazado 213652" d="M97.445,76.551a53.594,53.594,0,0,0,6.963-4.648c.058-.049.145.034.085.085a36.84,36.84,0,0,1-6.948,4.734C97.432,76.779,97.334,76.614,97.445,76.551Z" transform="translate(-94.396 -53.88)" fill="#a6a6a6"/>
            </g>
          </g>
          <g id="Grupo_99307" data-name="Grupo 99307" transform="translate(23.519)">
            <path id="Trazado_213653" data-name="Trazado 213653" d="M90.532,99.59c.019.187.336.183.332-.015.047-5.073,0-10.17.081-15.266,1.3-2.622,4.089-4.075,6.029-6.176a27.108,27.108,0,0,0,3.618-5.038,36.2,36.2,0,0,0,4.2-13.994c.536-5.427-1.524-23.333-3.811-22.711-1.187.323-5.025,9.192-6.044,12.124a84.474,84.474,0,0,0-3.61,14.865C89.471,75.319,89.625,87.577,90.532,99.59Z" transform="translate(-89.879 -36.375)" fill="#ebebeb"/>
            <g id="Grupo_99306" data-name="Grupo 99306" transform="translate(0.572 3.132)">
              <path id="Trazado_213654" data-name="Trazado 213654" d="M90.4,77.153l.023-.019c.277-6.419,1.723-12.9,3.076-19.127,1.459-6.708,3.164-13.023,6.614-19a.1.1,0,0,1,.171.1,70.516,70.516,0,0,0-5.312,14.587c.231-.362.511-.7.752-1.046.095-.135.317-.01.223.13A9.39,9.39,0,0,1,94.866,54.3a.094.094,0,0,1-.045.021c-1.188,4.794-2.04,9.7-2.77,14.589.055-.062.107-.13.162-.189a.048.048,0,0,1,.075.057c-.09.163-.192.324-.291.486-.367,2.483-.708,4.96-1.051,7.416,4.421-3.778,8.2-8.232,10.325-13.72.01-.024.051-.015.041.012-2.085,5.693-5.374,10.751-10.437,14.205q-.138.993-.279,1.981c-.019.137-.237.1-.237-.032,0-.584.03-1.171.053-1.757A.134.134,0,0,1,90.4,77.153Z" transform="translate(-90.35 -38.954)" fill="#a6a6a6"/>
              <path id="Trazado_213655" data-name="Trazado 213655" d="M92.1,65.492a102.362,102.362,0,0,0,9.006-15.511c.027-.062.134-.017.111.047a50.378,50.378,0,0,1-8.946,15.595C92.194,65.715,92.037,65.594,92.1,65.492Z" transform="translate(-89.977 -36.594)" fill="#a6a6a6"/>
              <path id="Trazado_213656" data-name="Trazado 213656" d="M95.8,50.266c1.4-2.476,2.876-4.886,4.193-7.41.036-.07.134-.008.1.061a38.523,38.523,0,0,1-4.081,7.476A.125.125,0,0,1,95.8,50.266Z" transform="translate(-89.185 -38.123)" fill="#a6a6a6"/>
              <path id="Trazado_213657" data-name="Trazado 213657" d="M95.352,49.838a.021.021,0,0,1,0,.043A.021.021,0,0,1,95.352,49.838Z" transform="translate(-89.282 -36.618)" fill="#a6a6a6"/>
            </g>
          </g>
          <g id="Grupo_99309" data-name="Grupo 99309" transform="translate(7.524 9.341)">
            <path id="Trazado_213658" data-name="Trazado 213658" d="M90.877,84.941a51.6,51.6,0,0,1-1.185,9.995c.052.362.1.723.157,1.094a47.564,47.564,0,0,0,1.788-11.14.341.341,0,0,0,.016-.345v-.011a73.742,73.742,0,0,0-1.12-15.095c-1.57-9.324-5-18.271-11.5-25.259a.465.465,0,0,0-.719.148C75.684,51,76.6,58.96,78.834,65.616A38.959,38.959,0,0,0,83.99,75.727C86.221,78.863,89.065,81.516,90.877,84.941Z" transform="translate(-76.71 -44.066)" fill="#ebebeb"/>
            <g id="Grupo_99308" data-name="Grupo 99308" transform="translate(2.828 3.171)">
              <path id="Trazado_213659" data-name="Trazado 213659" d="M79.3,46.743c6.161,10,10.45,21.858,10.974,33.672.01.209-.343.264-.372.05-.146-1.062-.308-2.113-.479-3.16l-.011,0a40.367,40.367,0,0,1-6.992-8.068c-.032-.053.046-.117.089-.068A84.731,84.731,0,0,0,89.3,76.555c-.442-2.613-.964-5.183-1.584-7.715-.165-.189-.325-.384-.487-.573-.107-.125.07-.309.182-.183.049.056.1.109.148.164a89.276,89.276,0,0,0-3.221-10.229c-1.569-1.87-3.323-3.488-4.466-5.742a.047.047,0,0,1,.081-.047c.919,1.289,1.808,2.586,2.851,3.782.415.476.871.922,1.3,1.387a78.924,78.924,0,0,0-5.045-10.516A.138.138,0,0,1,79.3,46.743Z" transform="translate(-79.038 -46.677)" fill="#a6a6a6"/>
              <path id="Trazado_213660" data-name="Trazado 213660" d="M80.3,56.9c1.993,2.679,4.262,5.237,6.114,8.008.053.08-.063.162-.129.1a40.921,40.921,0,0,1-6.119-8.029C80.114,56.887,80.244,56.816,80.3,56.9Z" transform="translate(-78.798 -44.492)" fill="#a6a6a6"/>
              <path id="Trazado_213661" data-name="Trazado 213661" d="M85.557,64l.085.085a.065.065,0,0,1-.091.092l-.085-.085C85.408,64.029,85.5,63.938,85.557,64Z" transform="translate(-77.662 -42.965)" fill="#a6a6a6"/>
            </g>
          </g>
          <g id="Grupo_99311" data-name="Grupo 99311" transform="translate(0 28.673)">
            <path id="Trazado_213662" data-name="Trazado 213662" d="M70.517,60.586a30.7,30.7,0,0,0,6.5,15.256,16.178,16.178,0,0,0,5.274,4.115c2.283,1.131,4.675,2.432,7.037,3.359a46.116,46.116,0,0,1,2.492,8.85c.077-.257.152-.526.228-.783C90.535,78.356,82.1,67.221,71.323,60.073A.524.524,0,0,0,70.517,60.586Z" transform="translate(-70.515 -59.983)" fill="#ebebeb"/>
            <g id="Grupo_99310" data-name="Grupo 99310" transform="translate(3.702 4.295)">
              <path id="Trazado_213663" data-name="Trazado 213663" d="M73.59,63.676c-.076-.067.027-.2.109-.142A44.1,44.1,0,0,1,87.438,80.467c.079.177-.166.334-.267.155-.5-.878-1.013-1.732-1.533-2.571h-.007c-2.461-.463-4.791-2.195-6.618-3.839-.05-.045.023-.117.073-.073A15.141,15.141,0,0,0,82.2,76.328c1,.509,2.083.831,3.127,1.238-.912-1.448-1.863-2.835-2.855-4.182a28.686,28.686,0,0,1-7.4-4.159c-.069-.051-.008-.165.069-.119a73.986,73.986,0,0,0,6.876,3.675,61.455,61.455,0,0,0-4.855-5.659c-.836-.442-1.685-.885-2.495-1.358-.067-.039-.023-.152.052-.126a8.937,8.937,0,0,1,1.915.94C75.665,65.595,74.662,64.623,73.59,63.676Z" transform="translate(-73.563 -63.518)" fill="#a6a6a6"/>
              <path id="Trazado_213664" data-name="Trazado 213664" d="M73.792,67.354a3.236,3.236,0,0,1,.414.3c.04.035-.011.086-.052.068a3.032,3.032,0,0,1-.432-.244C73.648,67.424,73.717,67.305,73.792,67.354Z" transform="translate(-73.536 -62.698)" fill="#a6a6a6"/>
            </g>
          </g>
        </g>
        <g id="Grupo_99314" data-name="Grupo 99314" transform="translate(12.587 50.87)">
          <g id="Grupo_99313" data-name="Grupo 99313" transform="translate(0 3.894)">
            <path id="Trazado_213665" data-name="Trazado 213665" d="M103.082,100.765h-22.2l1.094-14.553.419-4.747h18.983l.419,4.747Z" transform="translate(-80.878 -81.465)" fill="#dbdbdb"/>
            <path id="Trazado_213666" data-name="Trazado 213666" d="M101.6,86.212H81.779l.419-4.747H101.18Z" transform="translate(-80.685 -81.465)" fill="#c7c7c7"/>
          </g>
          <rect id="Rectángulo_42845" data-name="Rectángulo 42845" width="22.008" height="4.867" fill="#dbdbdb"/>
        </g>
      </g>
      <g id="Grupo_99316" data-name="Grupo 99316" transform="translate(103.461 18.361)">
        <rect id="Rectángulo_42846" data-name="Rectángulo 42846" width="52.845" height="13.308" transform="translate(13.308 2.826) rotate(90)" fill="#c7c7c7"/>
        <rect id="Rectángulo_42847" data-name="Rectángulo 42847" width="5.807" height="13.308" transform="translate(13.308 0) rotate(90)" fill="#dbdbdb"/>
        <rect id="Rectángulo_42848" data-name="Rectángulo 42848" width="2.155" height="13.308" transform="translate(13.308 13.248) rotate(90)" fill="#dbdbdb"/>
        <rect id="Rectángulo_42849" data-name="Rectángulo 42849" width="5.807" height="13.308" transform="translate(13.308 42.932) rotate(90)" fill="#dbdbdb"/>
      </g>
      <g id="Grupo_99317" data-name="Grupo 99317" transform="translate(116.769 12.387)">
        <rect id="Rectángulo_42850" data-name="Rectángulo 42850" width="61.644" height="9.3" transform="translate(9.3 0) rotate(90)" fill="#dbdbdb"/>
        <rect id="Rectángulo_42851" data-name="Rectángulo 42851" width="23.709" height="5.581" transform="translate(7.4 5.796) rotate(90)" fill="#ebebeb"/>
      </g>
      <g id="Grupo_99318" data-name="Grupo 99318" transform="translate(141.939 24.011)">
        <rect id="Rectángulo_42852" data-name="Rectángulo 42852" width="61.644" height="9.301" transform="matrix(0.711, 0.703, -0.703, 0.711, 6.538, 0)" fill="#c7c7c7"/>
        <rect id="Rectángulo_42853" data-name="Rectángulo 42853" width="23.709" height="5.581" transform="matrix(0.711, 0.703, -0.703, 0.711, 21.943, 17.799)" fill="#dbdbdb"/>
      </g>
      <g id="Grupo_99319" data-name="Grupo 99319" transform="translate(126.063 27.218)">
        <rect id="Rectángulo_42854" data-name="Rectángulo 42854" width="46.824" height="15.794" transform="translate(15.794 0) rotate(90)" fill="#a6a6a6"/>
        <rect id="Rectángulo_42855" data-name="Rectángulo 42855" width="4.364" height="15.794" transform="translate(15.794 37.496) rotate(90)" fill="#c7c7c7"/>
        <rect id="Rectángulo_42856" data-name="Rectángulo 42856" width="1.692" height="15.794" transform="translate(15.794 32.939) rotate(90)" fill="#c7c7c7"/>
      </g>
      <g id="Grupo_99320" data-name="Grupo 99320" transform="translate(76.158 29.325)">
        <rect id="Rectángulo_42857" data-name="Rectángulo 42857" width="44.005" height="10.91" transform="translate(27.385 4.304) rotate(113.234)" fill="#a6a6a6"/>
        <rect id="Rectángulo_42858" data-name="Rectángulo 42858" width="4.101" height="10.91" transform="matrix(-0.394, 0.919, -0.919, -0.394, 13.484, 36.684)" fill="#c7c7c7"/>
        <rect id="Rectángulo_42859" data-name="Rectángulo 42859" width="4.101" height="10.91" transform="translate(23.807 12.639) rotate(113.232)" fill="#c7c7c7"/>
        <rect id="Rectángulo_42860" data-name="Rectángulo 42860" width="1.59" height="10.91" transform="matrix(-0.394, 0.919, -0.919, -0.394, 21.08, 18.989)" fill="#c7c7c7"/>
      </g>
    </g>
    <g id="Grupo_99367" data-name="Grupo 99367" transform="translate(451.073 260.321)">
      <g id="Grupo_99336" data-name="Grupo 99336">
        <g id="Grupo_99335" data-name="Grupo 99335">
          <path id="Trazado_213667" data-name="Trazado 213667" d="M379.769,300.826l62.379.031.04-80.075-46.316-.023-16.07,15.25Z" transform="translate(-379.769 -220.759)" fill="#ebebeb"/>
          <path id="Trazado_213668" data-name="Trazado 213668" d="M395.866,220.759l-16.07,15.25,16.063.008Z" transform="translate(-379.763 -220.759)" fill="#dbdbdb"/>
          <g id="Grupo_99334" data-name="Grupo 99334" transform="translate(5.483 13.447)">
            <g id="Grupo_99322" data-name="Grupo 99322" transform="translate(16.162)">
              <rect id="Rectángulo_42861" data-name="Rectángulo 42861" width="34.682" height="2.056" fill="#dbdbdb"/>
            </g>
            <g id="Grupo_99323" data-name="Grupo 99323" transform="translate(16.159 5.19)">
              <rect id="Rectángulo_42862" data-name="Rectángulo 42862" width="34.682" height="2.056" fill="#dbdbdb"/>
            </g>
            <g id="Grupo_99324" data-name="Grupo 99324" transform="translate(16.156 10.38)">
              <rect id="Rectángulo_42863" data-name="Rectángulo 42863" width="34.682" height="2.056" fill="#dbdbdb"/>
            </g>
            <g id="Grupo_99325" data-name="Grupo 99325" transform="translate(0.021 15.566)">
              <rect id="Rectángulo_42864" data-name="Rectángulo 42864" width="50.815" height="2.056" fill="#dbdbdb"/>
            </g>
            <g id="Grupo_99326" data-name="Grupo 99326" transform="translate(0.018 20.756)">
              <rect id="Rectángulo_42865" data-name="Rectángulo 42865" width="50.815" height="2.056" fill="#dbdbdb"/>
            </g>
            <g id="Grupo_99327" data-name="Grupo 99327" transform="translate(0.016 25.946)">
              <rect id="Rectángulo_42866" data-name="Rectángulo 42866" width="50.815" height="2.056" fill="#dbdbdb"/>
            </g>
            <g id="Grupo_99328" data-name="Grupo 99328" transform="translate(0.013 31.136)">
              <rect id="Rectángulo_42867" data-name="Rectángulo 42867" width="50.815" height="2.056" fill="#dbdbdb"/>
            </g>
            <g id="Grupo_99329" data-name="Grupo 99329" transform="translate(0.01 36.325)">
              <rect id="Rectángulo_42868" data-name="Rectángulo 42868" width="50.815" height="2.056" fill="#dbdbdb"/>
            </g>
            <g id="Grupo_99330" data-name="Grupo 99330" transform="translate(0.008 41.516)">
              <rect id="Rectángulo_42869" data-name="Rectángulo 42869" width="50.815" height="2.056" fill="#dbdbdb"/>
            </g>
            <g id="Grupo_99331" data-name="Grupo 99331" transform="translate(0.005 46.705)">
              <rect id="Rectángulo_42870" data-name="Rectángulo 42870" width="50.815" height="2.056" fill="#dbdbdb"/>
            </g>
            <g id="Grupo_99332" data-name="Grupo 99332" transform="translate(0.003 51.895)">
              <rect id="Rectángulo_42871" data-name="Rectángulo 42871" width="50.815" height="2.056" fill="#dbdbdb"/>
            </g>
            <g id="Grupo_99333" data-name="Grupo 99333" transform="translate(0 57.085)">
              <rect id="Rectángulo_42872" data-name="Rectángulo 42872" width="50.815" height="2.056" fill="#dbdbdb"/>
            </g>
          </g>
        </g>
      </g>
      <g id="Grupo_99351" data-name="Grupo 99351" transform="translate(19.475 18.277)">
        <g id="Grupo_99350" data-name="Grupo 99350">
          <path id="Trazado_213669" data-name="Trazado 213669" d="M395.8,315.874l62.379.031.04-80.075-46.316-.023-16.07,15.25Z" transform="translate(-395.804 -235.807)" fill="#dbdbdb"/>
          <path id="Trazado_213670" data-name="Trazado 213670" d="M411.9,235.807l-16.07,15.25,16.063.008Z" transform="translate(-395.798 -235.807)" fill="#c7c7c7"/>
          <g id="Grupo_99349" data-name="Grupo 99349" transform="translate(5.483 13.447)">
            <g id="Grupo_99337" data-name="Grupo 99337" transform="translate(16.162)">
              <rect id="Rectángulo_42873" data-name="Rectángulo 42873" width="34.682" height="2.056" fill="#c7c7c7"/>
            </g>
            <g id="Grupo_99338" data-name="Grupo 99338" transform="translate(16.159 5.19)">
              <rect id="Rectángulo_42874" data-name="Rectángulo 42874" width="34.682" height="2.056" fill="#c7c7c7"/>
            </g>
            <g id="Grupo_99339" data-name="Grupo 99339" transform="translate(16.156 10.38)">
              <rect id="Rectángulo_42875" data-name="Rectángulo 42875" width="34.682" height="2.056" fill="#c7c7c7"/>
            </g>
            <g id="Grupo_99340" data-name="Grupo 99340" transform="translate(0.021 15.566)">
              <rect id="Rectángulo_42876" data-name="Rectángulo 42876" width="50.815" height="2.056" fill="#c7c7c7"/>
            </g>
            <g id="Grupo_99341" data-name="Grupo 99341" transform="translate(0.018 20.756)">
              <rect id="Rectángulo_42877" data-name="Rectángulo 42877" width="50.815" height="2.056" fill="#c7c7c7"/>
            </g>
            <g id="Grupo_99342" data-name="Grupo 99342" transform="translate(0.016 25.946)">
              <rect id="Rectángulo_42878" data-name="Rectángulo 42878" width="50.815" height="2.056" fill="#c7c7c7"/>
            </g>
            <g id="Grupo_99343" data-name="Grupo 99343" transform="translate(0.013 31.136)">
              <rect id="Rectángulo_42879" data-name="Rectángulo 42879" width="50.815" height="2.056" fill="#c7c7c7"/>
            </g>
            <g id="Grupo_99344" data-name="Grupo 99344" transform="translate(0.01 36.325)">
              <rect id="Rectángulo_42880" data-name="Rectángulo 42880" width="50.815" height="2.056" fill="#c7c7c7"/>
            </g>
            <g id="Grupo_99345" data-name="Grupo 99345" transform="translate(0.008 41.516)">
              <rect id="Rectángulo_42881" data-name="Rectángulo 42881" width="50.815" height="2.056" fill="#c7c7c7"/>
            </g>
            <g id="Grupo_99346" data-name="Grupo 99346" transform="translate(0.005 46.705)">
              <rect id="Rectángulo_42882" data-name="Rectángulo 42882" width="50.815" height="2.056" fill="#c7c7c7"/>
            </g>
            <g id="Grupo_99347" data-name="Grupo 99347" transform="translate(0.003 51.895)">
              <rect id="Rectángulo_42883" data-name="Rectángulo 42883" width="50.815" height="2.056" fill="#c7c7c7"/>
            </g>
            <g id="Grupo_99348" data-name="Grupo 99348" transform="translate(0 57.085)">
              <rect id="Rectángulo_42884" data-name="Rectángulo 42884" width="50.815" height="2.056" fill="#c7c7c7"/>
            </g>
          </g>
        </g>
      </g>
      <g id="Grupo_99366" data-name="Grupo 99366" transform="translate(38.95 36.554)">
        <g id="Grupo_99365" data-name="Grupo 99365">
          <path id="Trazado_213671" data-name="Trazado 213671" d="M411.838,330.923l62.379.031.04-80.075-46.316-.023-16.07,15.25Z" transform="translate(-411.838 -250.856)" fill="#c7c7c7"/>
          <path id="Trazado_213672" data-name="Trazado 213672" d="M427.935,250.856l-16.07,15.25,16.063.008Z" transform="translate(-411.833 -250.856)" fill="#a6a6a6"/>
          <g id="Grupo_99364" data-name="Grupo 99364" transform="translate(5.483 13.447)">
            <g id="Grupo_99352" data-name="Grupo 99352" transform="translate(16.162)">
              <rect id="Rectángulo_42885" data-name="Rectángulo 42885" width="34.682" height="2.056" fill="#a6a6a6"/>
            </g>
            <g id="Grupo_99353" data-name="Grupo 99353" transform="translate(16.159 5.19)">
              <rect id="Rectángulo_42886" data-name="Rectángulo 42886" width="34.682" height="2.056" fill="#a6a6a6"/>
            </g>
            <g id="Grupo_99354" data-name="Grupo 99354" transform="translate(16.156 10.38)">
              <rect id="Rectángulo_42887" data-name="Rectángulo 42887" width="34.682" height="2.056" fill="#a6a6a6"/>
            </g>
            <g id="Grupo_99355" data-name="Grupo 99355" transform="translate(0.021 15.566)">
              <rect id="Rectángulo_42888" data-name="Rectángulo 42888" width="50.815" height="2.056" fill="#a6a6a6"/>
            </g>
            <g id="Grupo_99356" data-name="Grupo 99356" transform="translate(0.018 20.756)">
              <rect id="Rectángulo_42889" data-name="Rectángulo 42889" width="50.815" height="2.056" fill="#a6a6a6"/>
            </g>
            <g id="Grupo_99357" data-name="Grupo 99357" transform="translate(0.016 25.946)">
              <rect id="Rectángulo_42890" data-name="Rectángulo 42890" width="50.815" height="2.056" fill="#a6a6a6"/>
            </g>
            <g id="Grupo_99358" data-name="Grupo 99358" transform="translate(0.013 31.136)">
              <rect id="Rectángulo_42891" data-name="Rectángulo 42891" width="50.815" height="2.056" fill="#a6a6a6"/>
            </g>
            <g id="Grupo_99359" data-name="Grupo 99359" transform="translate(0.01 36.325)">
              <rect id="Rectángulo_42892" data-name="Rectángulo 42892" width="50.815" height="2.056" fill="#a6a6a6"/>
            </g>
            <g id="Grupo_99360" data-name="Grupo 99360" transform="translate(0.008 41.516)">
              <rect id="Rectángulo_42893" data-name="Rectángulo 42893" width="50.815" height="2.056" fill="#a6a6a6"/>
            </g>
            <g id="Grupo_99361" data-name="Grupo 99361" transform="translate(0.005 46.705)">
              <rect id="Rectángulo_42894" data-name="Rectángulo 42894" width="50.815" height="2.056" fill="#a6a6a6"/>
            </g>
            <g id="Grupo_99362" data-name="Grupo 99362" transform="translate(0.003 51.895)">
              <rect id="Rectángulo_42895" data-name="Rectángulo 42895" width="50.815" height="2.056" fill="#a6a6a6"/>
            </g>
            <g id="Grupo_99363" data-name="Grupo 99363" transform="translate(0 57.085)">
              <rect id="Rectángulo_42896" data-name="Rectángulo 42896" width="50.815" height="2.056" fill="#a6a6a6"/>
            </g>
          </g>
        </g>
      </g>
    </g>
    <g id="Grupo_99368" data-name="Grupo 99368" transform="translate(54.712 46.095)">
      <path id="Trazado_213673" data-name="Trazado 213673" d="M420.77,52.733,407.98,44.8l-2.427,3.917a3.578,3.578,0,0,1-3.367,1.662,20.737,20.737,0,0,0-2.251-.072,3.573,3.573,0,0,1-3.246-1.868l-2.178-4.06L381.243,51.5l2.178,4.059a3.574,3.574,0,0,1-.242,3.738,21.059,21.059,0,0,0-1.185,1.914,3.577,3.577,0,0,1-3.245,1.885l-4.606-.146-.468,15.044,4.623.14a3.579,3.579,0,0,1,3.113,2.1q.237.5.5.99t.549.963a3.569,3.569,0,0,1,.027,3.737l-2.444,3.945L392.832,97.8l2.435-3.924a3.578,3.578,0,0,1,3.369-1.657,20.876,20.876,0,0,0,2.241.073,3.574,3.574,0,0,1,3.244,1.868l2.179,4.061L419.568,91.1l-2.178-4.062a3.575,3.575,0,0,1,.239-3.736,20.844,20.844,0,0,0,1.178-1.907,3.578,3.578,0,0,1,3.245-1.89l4.617.142.468-15.044-4.619-.143a3.571,3.571,0,0,1-3.1-2.093q-.237-.5-.5-1t-.549-.963a3.585,3.585,0,0,1-.025-3.755Zm-9.5,12.738a12.329,12.329,0,1,1-16.689-5.046A12.318,12.318,0,0,1,411.271,65.471Z" transform="translate(15.284 -44.378)" fill="#ebebeb"/>
      <path id="Trazado_213674" data-name="Trazado 213674" d="M90.866,214.611l-5.27-9.132L82.8,207.093A2.506,2.506,0,0,1,80.173,207a14.763,14.763,0,0,0-1.365-.789,2.5,2.5,0,0,1-1.387-2.228v-3.228H66.873v3.228a2.5,2.5,0,0,1-1.387,2.228,14.763,14.763,0,0,0-1.365.789,2.506,2.506,0,0,1-2.628.089L58.7,205.479l-5.27,9.132,2.808,1.617a2.508,2.508,0,0,1,1.227,2.326c-.012.257-.019.516-.019.776s.007.519.019.776a2.5,2.5,0,0,1-1.219,2.316l-2.815,1.627,5.27,9.132,2.8-1.617a2.508,2.508,0,0,1,2.63.092,14.656,14.656,0,0,0,1.359.788,2.5,2.5,0,0,1,1.385,2.226V237.9H77.42v-3.228a2.5,2.5,0,0,1,1.385-2.226,14.5,14.5,0,0,0,1.359-.788,2.508,2.508,0,0,1,2.63-.092l2.8,1.617,5.27-9.132-2.8-1.618a2.5,2.5,0,0,1-1.223-2.32c.012-.259.019-.519.019-.782s-.007-.519-.019-.776a2.508,2.508,0,0,1,1.227-2.327ZM80.785,219.33a8.637,8.637,0,1,1-8.633-8.64A8.631,8.631,0,0,1,80.785,219.33Z" transform="translate(-53.428 -10.825)" fill="#ebebeb"/>
      <path id="Trazado_213675" data-name="Trazado 213675" d="M453.186,97.857l-5.27-9.132-2.795,1.614a2.506,2.506,0,0,1-2.628-.089,14.762,14.762,0,0,0-1.365-.789,2.5,2.5,0,0,1-1.387-2.228V84.005H429.193v3.228a2.5,2.5,0,0,1-1.387,2.228,14.761,14.761,0,0,0-1.365.789,2.506,2.506,0,0,1-2.628.089l-2.8-1.614-5.269,9.132,2.808,1.617a2.51,2.51,0,0,1,1.227,2.326c-.012.257-.019.516-.019.776s.007.519.019.776a2.5,2.5,0,0,1-1.219,2.316l-2.815,1.628,5.269,9.132,2.8-1.617a2.508,2.508,0,0,1,2.63.092,14.369,14.369,0,0,0,1.359.787,2.507,2.507,0,0,1,1.385,2.228v3.228H439.74v-3.228a2.507,2.507,0,0,1,1.385-2.228,14.362,14.362,0,0,0,1.359-.787,2.506,2.506,0,0,1,2.628-.092l2.8,1.617,5.27-9.132-2.8-1.618a2.507,2.507,0,0,1-1.223-2.32c.013-.259.021-.519.021-.782s-.007-.519-.021-.776a2.512,2.512,0,0,1,1.228-2.327ZM443.1,102.576a8.637,8.637,0,1,1-8.633-8.64A8.631,8.631,0,0,1,443.1,102.576Z" transform="translate(24.312 -35.876)" fill="#ebebeb"/>
    </g>
    <ellipse id="Elipse_6346" data-name="Elipse 6346" cx="62.445" cy="12.021" rx="62.445" ry="12.021" transform="translate(55.135 480.624)" fill="#ebebeb"/>
    <g id="Grupo_99395" data-name="Grupo 99395" transform="translate(80.633 153.208)">
      <path id="Trazado_213676" data-name="Trazado 213676" d="M197.357,256.792H119.185V210.92H120.4v44.658h76.957Z" transform="translate(-65.24 -115.758)" fill="#ffc524"/>
      <g id="Grupo_99369" data-name="Grupo 99369" transform="translate(6.837 28.439)">
        <path id="Trazado_213677" data-name="Trazado 213677" d="M309.824,200.253H308.61V157.2H80.4v-1.215H309.824Z" transform="translate(-80.399 -155.984)" fill="#ffc524"/>
        <path id="Trazado_213678" data-name="Trazado 213678" d="M456.483,223.207H105.407a7.469,7.469,0,0,1-7.461-7.461V156.484h1.215v59.262a6.253,6.253,0,0,0,6.246,6.247H456.483Z" transform="translate(-76.635 -155.877)" fill="#ffc524"/>
        <path id="Trazado_213679" data-name="Trazado 213679" d="M143.882,178.388H107.651a7.494,7.494,0,0,1-7.485-7.485V165.54L87.6,157.077l.679-1.007,13.1,8.823v6.01a6.278,6.278,0,0,0,6.271,6.271h36.232a6.278,6.278,0,0,0,6.271-6.271v-6.8l10.941-8.023.719.98-10.445,7.659v6.18A7.494,7.494,0,0,1,143.882,178.388Z" transform="translate(-78.854 -155.966)" fill="#ffc524"/>
        <path id="Trazado_213680" data-name="Trazado 213680" d="M160.514,219.389l-8.464-8.464V180.906a6.253,6.253,0,0,0-6.246-6.247H128.6v-1.215h17.2a7.47,7.47,0,0,1,7.461,7.461v29.516l8.108,8.108Z" transform="translate(-70.058 -152.238)" fill="#ffc524"/>
        <path id="Trazado_213681" data-name="Trazado 213681" d="M307.99,215.825l-7.262-7.263v-9.169a6.253,6.253,0,0,0-6.246-6.245H239.49a6.253,6.253,0,0,0-6.246,6.245v9.169l-6.861,6.861-.859-.859,6.505-6.505v-8.666a7.469,7.469,0,0,1,7.461-7.46h54.992a7.469,7.469,0,0,1,7.461,7.46v8.666l6.906,6.906Z" transform="translate(-49.261 -148.271)" fill="#ffc524"/>
        <path id="Trazado_213682" data-name="Trazado 213682" d="M205.345,235.127h-45.77a7.47,7.47,0,0,1-7.461-7.461v-8l-8.242-8.243.859-.859,8.6,8.6v8.5a6.254,6.254,0,0,0,6.246,6.246h45.77a6.254,6.254,0,0,0,6.245-6.246v-8.1l8.6-8.6.859.86-8.243,8.242v7.6A7.469,7.469,0,0,1,205.345,235.127Z" transform="translate(-66.781 -144.273)" fill="#ffc524"/>
        <path id="Trazado_213683" data-name="Trazado 213683" d="M382.076,235.127H336.306a7.469,7.469,0,0,1-7.46-7.461v-8l-8.244-8.243.86-.859,8.6,8.6v8.5a6.253,6.253,0,0,0,6.245,6.246h45.769a6.254,6.254,0,0,0,6.246-6.246v-8.1l8.6-8.6.859.86-8.242,8.242v7.6A7.47,7.47,0,0,1,382.076,235.127Z" transform="translate(-28.861 -144.273)" fill="#ffc524"/>
      </g>
      <path id="Trazado_213684" data-name="Trazado 213684" d="M88.444,157.693a6.837,6.837,0,1,1-6.837-6.838A6.837,6.837,0,0,1,88.444,157.693Z" transform="translate(-74.77 -128.646)" fill="#ffc524"/>
      <circle id="Elipse_6347" data-name="Elipse 6347" cx="6.837" cy="6.837" r="6.837" transform="translate(107.572 22.21)" fill="#ffc524"/>
      <g id="Grupo_99370" data-name="Grupo 99370" transform="translate(106.965 88.252)">
        <circle id="Elipse_6348" data-name="Elipse 6348" cx="6.837" cy="6.837" r="6.837" transform="translate(0.607 0.607)" fill="#fff"/>
        <path id="Trazado_213685" data-name="Trazado 213685" d="M170.283,220.119a7.444,7.444,0,1,1,7.444-7.444A7.452,7.452,0,0,1,170.283,220.119Zm0-13.674a6.229,6.229,0,1,0,6.229,6.229A6.237,6.237,0,0,0,170.283,206.446Z" transform="translate(-162.839 -205.231)" fill="#ffc524"/>
      </g>
      <g id="Grupo_99371" data-name="Grupo 99371" transform="translate(165.507 88.252)">
        <path id="Trazado_213686" data-name="Trazado 213686" d="M225.213,212.568a6.837,6.837,0,1,1-6.837-6.837A6.837,6.837,0,0,1,225.213,212.568Z" transform="translate(-210.932 -205.124)" fill="#fff"/>
        <path id="Trazado_213687" data-name="Trazado 213687" d="M218.482,220.119a7.444,7.444,0,1,1,7.445-7.444A7.451,7.451,0,0,1,218.482,220.119Zm0-13.674a6.229,6.229,0,1,0,6.231,6.229A6.236,6.236,0,0,0,218.482,206.446Z" transform="translate(-211.039 -205.231)" fill="#ffc524"/>
      </g>
      <g id="Grupo_99372" data-name="Grupo 99372" transform="translate(107.572 111.849)">
        <path id="Trazado_213688" data-name="Trazado 213688" d="M177.013,231.5a6.837,6.837,0,1,1-6.837-6.837A6.836,6.836,0,0,1,177.013,231.5Z" transform="translate(-163.339 -224.659)" fill="#ffc524"/>
        <path id="Trazado_213689" data-name="Trazado 213689" d="M177.013,231.5a6.837,6.837,0,1,1-6.837-6.837A6.836,6.836,0,0,1,177.013,231.5Z" transform="translate(-163.339 -224.659)" opacity="0.2"/>
      </g>
      <g id="Grupo_99373" data-name="Grupo 99373" transform="translate(124.213 111.849)">
        <path id="Trazado_213690" data-name="Trazado 213690" d="M190.715,231.5a6.837,6.837,0,1,1-6.838-6.837A6.838,6.838,0,0,1,190.715,231.5Z" transform="translate(-177.04 -224.659)" fill="#ffc524"/>
        <path id="Trazado_213691" data-name="Trazado 213691" d="M190.715,231.5a6.837,6.837,0,1,1-6.838-6.837A6.838,6.838,0,0,1,190.715,231.5Z" transform="translate(-177.04 -224.659)" opacity="0.2"/>
      </g>
      <path id="Trazado_213692" data-name="Trazado 213692" d="M353.872,231.5a6.837,6.837,0,1,1-6.838-6.837A6.838,6.838,0,0,1,353.872,231.5Z" transform="translate(-17.82 -112.81)" fill="#ffc524"/>
      <path id="Trazado_213693" data-name="Trazado 213693" d="M367.517,231.5a6.837,6.837,0,1,1-6.837-6.837A6.836,6.836,0,0,1,367.517,231.5Z" transform="translate(-14.892 -112.81)" fill="#ffc524"/>
      <circle id="Elipse_6349" data-name="Elipse 6349" cx="6.837" cy="6.837" r="6.837" transform="translate(228.818 22.21)" fill="#ffc524"/>
      <circle id="Elipse_6350" data-name="Elipse 6350" cx="6.837" cy="6.837" r="6.837" transform="translate(47.715 44.04)" fill="#ffc524"/>
      <g id="Grupo_99374" data-name="Grupo 99374" transform="translate(47.108 87.718)">
        <circle id="Elipse_6351" data-name="Elipse 6351" cx="6.837" cy="6.837" r="6.837" transform="translate(0.607 0.607)" fill="#fff"/>
        <path id="Trazado_213694" data-name="Trazado 213694" d="M121,219.679a7.444,7.444,0,1,1,7.444-7.444A7.453,7.453,0,0,1,121,219.679Zm0-13.674a6.229,6.229,0,1,0,6.229,6.229A6.237,6.237,0,0,0,121,206.006Z" transform="translate(-113.556 -204.791)" fill="#ffc524"/>
      </g>
      <g id="Grupo_99375" data-name="Grupo 99375" transform="translate(47.715 133.59)">
        <circle id="Elipse_6352" data-name="Elipse 6352" cx="6.837" cy="6.837" r="6.837" fill="#ffc524"/>
        <circle id="Elipse_6353" data-name="Elipse 6353" cx="6.837" cy="6.837" r="6.837" opacity="0.2"/>
      </g>
      <g id="Grupo_99376" data-name="Grupo 99376" transform="translate(76.893 133.59)">
        <circle id="Elipse_6354" data-name="Elipse 6354" cx="6.837" cy="6.837" r="6.837" fill="#ffc524"/>
        <circle id="Elipse_6355" data-name="Elipse 6355" cx="6.837" cy="6.837" r="6.837" opacity="0.2"/>
      </g>
      <g id="Grupo_99377" data-name="Grupo 99377" transform="translate(124.213 133.59)">
        <circle id="Elipse_6356" data-name="Elipse 6356" cx="6.837" cy="6.837" r="6.837" transform="translate(0)" fill="#ffc524"/>
        <circle id="Elipse_6357" data-name="Elipse 6357" cx="6.837" cy="6.837" r="6.837" transform="translate(0)" opacity="0.2"/>
      </g>
      <g id="Grupo_99378" data-name="Grupo 99378" transform="translate(62.612 87.718)">
        <path id="Trazado_213695" data-name="Trazado 213695" d="M140.494,212.128a6.837,6.837,0,1,1-6.837-6.837A6.836,6.836,0,0,1,140.494,212.128Z" transform="translate(-126.214 -204.684)" fill="#fff"/>
        <path id="Trazado_213696" data-name="Trazado 213696" d="M133.765,219.679a7.444,7.444,0,1,1,7.445-7.444A7.453,7.453,0,0,1,133.765,219.679Zm0-13.674A6.229,6.229,0,1,0,140,212.235,6.237,6.237,0,0,0,133.765,206.006Z" transform="translate(-126.321 -204.791)" fill="#ffc524"/>
      </g>
      <g id="Grupo_99379" data-name="Grupo 99379" transform="translate(211.042 65.87)">
        <path id="Trazado_213697" data-name="Trazado 213697" d="M262.2,193.64a6.837,6.837,0,1,1-6.838-6.837A6.839,6.839,0,0,1,262.2,193.64Z" transform="translate(-248.53 -186.803)" fill="#ffc524"/>
        <path id="Trazado_213698" data-name="Trazado 213698" d="M262.2,193.64a6.837,6.837,0,1,1-6.838-6.837A6.839,6.839,0,0,1,262.2,193.64Z" transform="translate(-248.53 -186.803)" opacity="0.4"/>
      </g>
      <g id="Grupo_99380" data-name="Grupo 99380" transform="translate(279 87.718)">
        <circle id="Elipse_6358" data-name="Elipse 6358" cx="6.837" cy="6.837" r="6.837" transform="translate(0.607 0.607)" fill="#fff"/>
        <path id="Trazado_213699" data-name="Trazado 213699" d="M311.927,219.679a7.444,7.444,0,1,1,7.444-7.444A7.452,7.452,0,0,1,311.927,219.679Zm0-13.674a6.229,6.229,0,1,0,6.229,6.229A6.237,6.237,0,0,0,311.927,206.006Z" transform="translate(-304.483 -204.791)" fill="#ffc524"/>
      </g>
      <g id="Grupo_99381" data-name="Grupo 99381" transform="translate(321.77 87.718)">
        <circle id="Elipse_6359" data-name="Elipse 6359" cx="6.837" cy="6.837" r="6.837" transform="translate(0.608 0.607)" fill="#fff"/>
        <path id="Trazado_213700" data-name="Trazado 213700" d="M347.141,219.679a7.444,7.444,0,1,1,7.445-7.444A7.452,7.452,0,0,1,347.141,219.679Zm0-13.674a6.229,6.229,0,1,0,6.231,6.229A6.237,6.237,0,0,0,347.141,206.006Z" transform="translate(-339.697 -204.791)" fill="#ffc524"/>
      </g>
      <g id="Grupo_99382" data-name="Grupo 99382" transform="translate(338.344 87.718)">
        <circle id="Elipse_6360" data-name="Elipse 6360" cx="6.837" cy="6.837" r="6.837" transform="translate(0.607 0.607)" fill="#fff"/>
        <path id="Trazado_213701" data-name="Trazado 213701" d="M360.787,219.679a7.444,7.444,0,1,1,7.445-7.444A7.452,7.452,0,0,1,360.787,219.679Zm0-13.674a6.229,6.229,0,1,0,6.231,6.229A6.237,6.237,0,0,0,360.787,206.006Z" transform="translate(-353.343 -204.791)" fill="#ffc524"/>
      </g>
      <g id="Grupo_99383" data-name="Grupo 99383" transform="translate(379.243 87.718)">
        <circle id="Elipse_6361" data-name="Elipse 6361" cx="6.837" cy="6.837" r="6.837" transform="translate(0.606 0.607)" fill="#fff"/>
        <path id="Trazado_213702" data-name="Trazado 213702" d="M394.46,219.679a7.444,7.444,0,1,1,7.444-7.444A7.452,7.452,0,0,1,394.46,219.679Zm0-13.674a6.229,6.229,0,1,0,6.229,6.229A6.236,6.236,0,0,0,394.46,206.006Z" transform="translate(-387.017 -204.791)" fill="#ffc524"/>
      </g>
      <g id="Grupo_99384" data-name="Grupo 99384" transform="translate(228.818 65.87)">
        <path id="Trazado_213703" data-name="Trazado 213703" d="M276.84,193.64A6.837,6.837,0,1,1,270,186.8,6.838,6.838,0,0,1,276.84,193.64Z" transform="translate(-263.166 -186.803)" fill="#ffc524"/>
        <path id="Trazado_213704" data-name="Trazado 213704" d="M276.84,193.64A6.837,6.837,0,1,1,270,186.8,6.838,6.838,0,0,1,276.84,193.64Z" transform="translate(-263.166 -186.803)" opacity="0.4"/>
      </g>
      <g id="Grupo_99385" data-name="Grupo 99385" transform="translate(4.954 0.015)">
        <path id="Trazado_213705" data-name="Trazado 213705" d="M82.268,133.383v8.594a.812.812,0,0,1-.816.8.79.79,0,0,1-.8-.8V134.81l-.583.335a.725.725,0,0,1-.407.117.816.816,0,0,1-.423-1.5l1.791-1.064c.015-.015.044-.015.058-.029s.044-.029.073-.044.058-.015.087-.015a.088.088,0,0,1,.058-.015.248.248,0,0,1,.1-.015h.16a.086.086,0,0,0,.058.015.16.16,0,0,1,.087.029.083.083,0,0,1,.057.015c.045.029.06.044.089.044a.186.186,0,0,0,.058.044c.015.015.044.029.057.044.029.015.044.044.06.058a.2.2,0,0,1,.043.058l.058.058.015.029c0,.015.016.029.016.044s.029.044.029.073.013.058.028.073a.632.632,0,0,0,.015.073.12.12,0,0,0,.03.1Z" transform="translate(-78.849 -132.581)" fill="#382628"/>
      </g>
      <g id="Grupo_99386" data-name="Grupo 99386" transform="translate(110.842 0.015)">
        <path id="Trazado_213706" data-name="Trazado 213706" d="M172.829,141.977a.79.79,0,0,1-.8.8h-5.186a.785.785,0,0,1-.6-.262.806.806,0,0,1,.044-1.137l4.312-3.9a1.826,1.826,0,0,0,.612-1.4,1.887,1.887,0,0,0-.481-1.267,1.845,1.845,0,0,0-1.4-.611,1.913,1.913,0,0,0-1.268.48l-.452.408a.792.792,0,0,1-1.136-.058.8.8,0,0,1,.058-1.136l.452-.408a3.439,3.439,0,0,1,2.345-.9,3.509,3.509,0,0,1,2.593,1.151,3.434,3.434,0,0,1,.9,2.344,3.5,3.5,0,0,1-1.15,2.593l-2.753,2.491h3.1A.8.8,0,0,1,172.829,141.977Z" transform="translate(-166.031 -132.581)" fill="#382628"/>
      </g>
      <g id="Grupo_99387" data-name="Grupo 99387" transform="translate(232.325)">
        <path id="Trazado_213707" data-name="Trazado 213707" d="M271.407,136.589a3.562,3.562,0,0,1,1.064,2.549,3.617,3.617,0,0,1-6.177,2.564.824.824,0,0,1,1.166-1.166,1.938,1.938,0,0,0,1.385.568,2,2,0,0,0,1.4-.568,1.951,1.951,0,0,0,.582-1.4,1.9,1.9,0,0,0-.582-1.383,1.957,1.957,0,0,0-1.385-.583.719.719,0,0,1-.6-.262c-.015,0-.015,0-.015-.015a.827.827,0,0,1-.028-1.165l1.485-1.516h-2.36a.823.823,0,0,1,0-1.646h4.3a.818.818,0,0,1,.831.816.875.875,0,0,1-.1.394,1.026,1.026,0,0,1-.146.2l-1.836,1.895A3.258,3.258,0,0,1,271.407,136.589Z" transform="translate(-266.053 -132.569)" fill="#382628"/>
      </g>
      <path id="Trazado_213708" data-name="Trazado 213708" d="M78.182,144.314h5.385l-2.693,3.231Z" transform="translate(-74.038 -130.049)" fill="#382628"/>
      <path id="Trazado_213709" data-name="Trazado 213709" d="M166.751,144.314h5.385l-2.693,3.231Z" transform="translate(-55.034 -130.049)" fill="#382628"/>
      <path id="Trazado_213710" data-name="Trazado 213710" d="M266.578,144.314h5.385l-2.693,3.231Z" transform="translate(-33.615 -130.049)" fill="#382628"/>
      <rect id="Rectángulo_42897" data-name="Rectángulo 42897" width="19.986" height="11.564" transform="translate(164.622 140.427)" fill="#ffc524"/>
      <g id="Grupo_99388" data-name="Grupo 99388" transform="translate(229.973 139.82)">
        <rect id="Rectángulo_42898" data-name="Rectángulo 42898" width="19.986" height="11.564" transform="translate(0.608 0.606)" fill="#fff"/>
        <path id="Trazado_213711" data-name="Trazado 213711" d="M285.318,260.467h-21.2V247.689h21.2Zm-19.987-1.215H284.1V248.9H265.332Z" transform="translate(-264.117 -247.689)" fill="#ffc524"/>
      </g>
      <g id="Grupo_99389" data-name="Grupo 99389" transform="translate(296.541 140.427)">
        <rect id="Rectángulo_42899" data-name="Rectángulo 42899" width="19.986" height="11.564" fill="#ffc524"/>
        <rect id="Rectángulo_42900" data-name="Rectángulo 42900" width="19.986" height="11.564" opacity="0.4"/>
      </g>
      <g id="Grupo_99390" data-name="Grupo 99390" transform="translate(362.5 140.427)">
        <rect id="Rectángulo_42901" data-name="Rectángulo 42901" width="19.986" height="11.564" fill="#ffc524"/>
        <rect id="Rectángulo_42902" data-name="Rectángulo 42902" width="19.986" height="11.564" opacity="0.2"/>
      </g>
      <g id="Grupo_99391" data-name="Grupo 99391" transform="translate(190.692 141.087)">
        <rect id="Rectángulo_42903" data-name="Rectángulo 42903" width="21.911" height="1.215" fill="#c7c7c7"/>
        <rect id="Rectángulo_42904" data-name="Rectángulo 42904" width="14.068" height="1.215" transform="translate(0 3.904)" fill="#c7c7c7"/>
      </g>
      <g id="Grupo_99392" data-name="Grupo 99392" transform="translate(256.304 141.087)">
        <rect id="Rectángulo_42905" data-name="Rectángulo 42905" width="21.911" height="1.215" fill="#c7c7c7"/>
        <rect id="Rectángulo_42906" data-name="Rectángulo 42906" width="10.955" height="1.215" transform="translate(0 3.904)" fill="#c7c7c7"/>
      </g>
      <g id="Grupo_99393" data-name="Grupo 99393" transform="translate(321.915 141.087)">
        <rect id="Rectángulo_42907" data-name="Rectángulo 42907" width="10.955" height="1.215" fill="#c7c7c7"/>
        <rect id="Rectángulo_42908" data-name="Rectángulo 42908" width="17.341" height="1.215" transform="translate(0 3.904)" fill="#c7c7c7"/>
      </g>
      <g id="Grupo_99394" data-name="Grupo 99394" transform="translate(387.527 141.087)">
        <rect id="Rectángulo_42909" data-name="Rectángulo 42909" width="15.745" height="1.215" fill="#c7c7c7"/>
        <rect id="Rectángulo_42910" data-name="Rectángulo 42910" width="21.911" height="1.215" transform="translate(0 3.904)" fill="#c7c7c7"/>
      </g>
    </g>
    <g id="Grupo_99412" data-name="Grupo 99412" transform="translate(313.41 44.303)">
      <g id="Grupo_99402" data-name="Grupo 99402" transform="translate(0 0)">
        <g id="Grupo_99398" data-name="Grupo 99398">
          <g id="Grupo_99396" data-name="Grupo 99396">
            <rect id="Rectángulo_42911" data-name="Rectángulo 42911" width="113.72" height="93.393" transform="translate(0.43)" fill="#37484f"/>
            <path id="Trazado_213712" data-name="Trazado 213712" d="M381.007,136.727H266.425l.43-93.824H380.575Z" transform="translate(-266.425 -42.903)" fill="#382628"/>
          </g>
          <g id="Grupo_99397" data-name="Grupo 99397" transform="translate(0.43)">
            <rect id="Rectángulo_42912" data-name="Rectángulo 42912" width="113.72" height="8.226" fill="#ffc524"/>
          </g>
        </g>
        <g id="Grupo_99399" data-name="Grupo 99399" transform="translate(4.012 2.103)">
          <path id="Trazado_213713" data-name="Trazado 213713" d="M273.868,46.7a2.07,2.07,0,1,1-2.071-2.07A2.07,2.07,0,0,1,273.868,46.7Z" transform="translate(-269.728 -44.634)" fill="#a6a6a6"/>
          <path id="Trazado_213714" data-name="Trazado 213714" d="M280.828,46.7a2.07,2.07,0,1,1-2.07-2.07A2.07,2.07,0,0,1,280.828,46.7Z" transform="translate(-268.235 -44.634)" fill="#ebebeb"/>
          <path id="Trazado_213715" data-name="Trazado 213715" d="M287.789,46.7a2.07,2.07,0,1,1-2.071-2.07A2.07,2.07,0,0,1,287.789,46.7Z" transform="translate(-266.741 -44.634)" fill="#fff"/>
        </g>
        <g id="Grupo_99401" data-name="Grupo 99401" transform="translate(9.255 16.822)">
          <rect id="Rectángulo_42913" data-name="Rectángulo 42913" width="4.398" height="1.606" transform="translate(0 7.769)" fill="#ebebeb"/>
          <rect id="Rectángulo_42914" data-name="Rectángulo 42914" width="50.449" height="1.606" transform="translate(7.603 7.769)" fill="#ebebeb"/>
          <rect id="Rectángulo_42915" data-name="Rectángulo 42915" width="8.354" height="1.606" transform="translate(60.754 7.769)" fill="#fff"/>
          <rect id="Rectángulo_42916" data-name="Rectángulo 42916" width="8.354" height="1.606" transform="translate(79.861 29.266)" fill="#ebebeb"/>
          <rect id="Rectángulo_42917" data-name="Rectángulo 42917" width="14.441" height="1.606" transform="translate(70.924 7.769)" fill="#a6a6a6"/>
          <rect id="Rectángulo_42918" data-name="Rectángulo 42918" width="4.398" height="1.606" transform="translate(4.398 12.068)" fill="#ebebeb"/>
          <rect id="Rectángulo_42919" data-name="Rectángulo 42919" width="33.108" height="1.606" transform="translate(11.891 12.068)" fill="#a6a6a6"/>
          <rect id="Rectángulo_42920" data-name="Rectángulo 42920" width="19.385" height="1.606" transform="translate(58.492 29.266)" fill="#a6a6a6"/>
          <rect id="Rectángulo_42921" data-name="Rectángulo 42921" width="31.623" height="1.606" transform="translate(7.603 24.966)" fill="#a6a6a6"/>
          <rect id="Rectángulo_42922" data-name="Rectángulo 42922" width="22.185" height="1.606" transform="translate(11.891 16.367)" fill="#fff"/>
          <rect id="Rectángulo_42923" data-name="Rectángulo 42923" width="8.462" height="1.606" transform="translate(66.341 20.667)" fill="#a6a6a6"/>
          <rect id="Rectángulo_42924" data-name="Rectángulo 42924" width="35.427" height="1.606" transform="translate(36.537 16.367)" fill="#a6a6a6"/>
          <rect id="Rectángulo_42925" data-name="Rectángulo 42925" width="42.288" height="1.606" transform="translate(7.603 29.266)" fill="#fff"/>
          <rect id="Rectángulo_42926" data-name="Rectángulo 42926" width="22.918" height="1.606" transform="translate(69.993 12.068)" fill="#fff"/>
          <rect id="Rectángulo_42927" data-name="Rectángulo 42927" width="21.1" height="1.606" transform="translate(47.077 12.068)" fill="#ebebeb"/>
          <rect id="Rectángulo_42928" data-name="Rectángulo 42928" width="14.238" height="1.606" transform="translate(73.629 16.367)" fill="#ebebeb"/>
          <rect id="Rectángulo_42929" data-name="Rectángulo 42929" width="4.398" height="1.606" transform="translate(4.398 16.367)" fill="#ebebeb"/>
          <rect id="Rectángulo_42930" data-name="Rectángulo 42930" width="4.398" height="1.606" transform="translate(0 20.667)" fill="#a6a6a6"/>
          <rect id="Rectángulo_42931" data-name="Rectángulo 42931" width="25.992" height="1.606" transform="translate(7.603 20.667)" fill="#ebebeb"/>
          <rect id="Rectángulo_42932" data-name="Rectángulo 42932" width="25.992" height="1.606" transform="translate(11.891 33.565)" fill="#ebebeb"/>
          <rect id="Rectángulo_42933" data-name="Rectángulo 42933" width="19.761" height="1.606" transform="translate(60.357 37.864)" fill="#a6a6a6"/>
          <rect id="Rectángulo_42934" data-name="Rectángulo 42934" width="26.065" height="1.606" transform="translate(39.993 33.565)" fill="#fff"/>
          <rect id="Rectángulo_42935" data-name="Rectángulo 42935" width="22.689" height="1.606" transform="translate(35.396 37.864)" fill="#fff"/>
          <path id="Trazado_213716" data-name="Trazado 213716" d="M303.863,89.549l-12.214-.015V87.928l12.214.015Z" transform="translate(-270.268 -50.064)" fill="#ebebeb"/>
          <rect id="Rectángulo_42936" data-name="Rectángulo 42936" width="7.526" height="1.606" transform="translate(11.891 37.864)" fill="#a6a6a6"/>
          <rect id="Rectángulo_42937" data-name="Rectángulo 42937" width="28.093" height="1.606" transform="translate(41.015 24.966)" fill="#ebebeb"/>
          <rect id="Rectángulo_42938" data-name="Rectángulo 42938" width="17.875" height="1.606" transform="translate(70.924 24.966)" fill="#fff"/>
          <rect id="Rectángulo_42939" data-name="Rectángulo 42939" width="28.059" height="1.606" transform="translate(36.238 20.667)" fill="#fff"/>
          <rect id="Rectángulo_42940" data-name="Rectángulo 42940" width="4.398" height="1.606" transform="translate(0 24.966)" fill="#ebebeb"/>
          <rect id="Rectángulo_42941" data-name="Rectángulo 42941" width="4.398" height="1.606" transform="translate(0 29.266)" fill="#ebebeb"/>
          <rect id="Rectángulo_42942" data-name="Rectángulo 42942" width="4.398" height="1.606" transform="translate(4.398 33.565)" fill="#a6a6a6"/>
          <rect id="Rectángulo_42943" data-name="Rectángulo 42943" width="4.398" height="1.606" transform="translate(4.398 37.864)" fill="#ebebeb"/>
          <rect id="Rectángulo_42944" data-name="Rectángulo 42944" width="4.398" height="1.606" transform="translate(0 41.465)" fill="#ebebeb"/>
          <rect id="Rectángulo_42945" data-name="Rectángulo 42945" width="30.773" height="1.606" transform="translate(7.603 41.465)" fill="#ebebeb"/>
          <rect id="Rectángulo_42946" data-name="Rectángulo 42946" width="4.398" height="1.606" transform="translate(4.398 45.765)" fill="#ebebeb"/>
          <rect id="Rectángulo_42947" data-name="Rectángulo 42947" width="33.108" height="1.606" transform="translate(11.891 45.765)" fill="#a6a6a6"/>
          <rect id="Rectángulo_42948" data-name="Rectángulo 42948" width="31.623" height="1.606" transform="translate(7.603 58.663)" fill="#a6a6a6"/>
          <rect id="Rectángulo_42949" data-name="Rectángulo 42949" width="22.185" height="1.606" transform="translate(11.891 50.064)" fill="#fff"/>
          <rect id="Rectángulo_42950" data-name="Rectángulo 42950" width="35.427" height="1.606" transform="translate(36.537 50.064)" fill="#a6a6a6"/>
          <rect id="Rectángulo_42951" data-name="Rectángulo 42951" width="42.288" height="1.606" transform="translate(7.603 62.962)" fill="#fff"/>
          <rect id="Rectángulo_42952" data-name="Rectángulo 42952" width="22.918" height="1.606" transform="translate(69.993 45.765)" fill="#fff"/>
          <rect id="Rectángulo_42953" data-name="Rectángulo 42953" width="21.1" height="1.606" transform="translate(47.077 45.765)" fill="#ebebeb"/>
          <rect id="Rectángulo_42954" data-name="Rectángulo 42954" width="14.238" height="1.606" transform="translate(73.629 50.064)" fill="#ebebeb"/>
          <rect id="Rectángulo_42955" data-name="Rectángulo 42955" width="4.398" height="1.606" transform="translate(4.398 50.064)" fill="#ebebeb"/>
          <rect id="Rectángulo_42956" data-name="Rectángulo 42956" width="4.398" height="1.606" transform="translate(0 54.364)" fill="#a6a6a6"/>
          <rect id="Rectángulo_42957" data-name="Rectángulo 42957" width="25.992" height="1.606" transform="translate(7.603 54.364)" fill="#ebebeb"/>
          <rect id="Rectángulo_42958" data-name="Rectángulo 42958" width="28.093" height="1.606" transform="translate(41.015 58.663)" fill="#ebebeb"/>
          <rect id="Rectángulo_42959" data-name="Rectángulo 42959" width="28.059" height="1.606" transform="translate(36.238 54.364)" fill="#fff"/>
          <rect id="Rectángulo_42960" data-name="Rectángulo 42960" width="4.398" height="1.606" transform="translate(0 58.663)" fill="#ebebeb"/>
          <g id="Grupo_99400" data-name="Grupo 99400" transform="translate(0.362)">
            <path id="Trazado_213717" data-name="Trazado 213717" d="M276.7,60.291a.383.383,0,0,1,0,.543.389.389,0,0,1-.266.108.4.4,0,0,1-.277-.108l-1.7-1.721a.047.047,0,0,1-.03-.035.054.054,0,0,0-.018-.012.16.16,0,0,1-.018-.049.032.032,0,0,1-.018-.024c-.006-.012-.006-.03-.012-.036s-.012-.024-.012-.03v-.043c0-.012-.006-.017-.006-.035s.006-.024.006-.03v-.043c0-.012.012-.018.012-.024s.006-.03.012-.049.006-.006.006-.012a.418.418,0,0,1,.03-.053.012.012,0,0,1,.012-.012.114.114,0,0,1,.036-.043l1.7-1.721a.394.394,0,0,1,.543,0,.384.384,0,0,1,0,.544l-1.431,1.443Z" transform="translate(-274.343 -56.753)" fill="#fff"/>
            <path id="Trazado_213718" data-name="Trazado 213718" d="M277.553,60.482l1.478-3.52a.335.335,0,0,1,.441-.175.325.325,0,0,1,.169.429l-1.478,3.525a.334.334,0,0,1-.309.2.3.3,0,0,1-.12-.023A.326.326,0,0,1,277.553,60.482Z" transform="translate(-273.66 -56.751)" fill="#fff"/>
            <path id="Trazado_213719" data-name="Trazado 213719" d="M282.1,59.066s0,0-.006,0a.278.278,0,0,1-.043.043l-1.7,1.721a.395.395,0,0,1-.543,0,.383.383,0,0,1,0-.543l1.431-1.443-1.431-1.443a.384.384,0,0,1,0-.544.394.394,0,0,1,.543,0l1.7,1.721a.278.278,0,0,1,.043.043c.006,0,.006.012.006.012.012.024.023.035.03.053s.006.006.006.012a.379.379,0,0,0,.017.055c0,.006.006.006.006.018v.043c0,.006.007.023.007.03s-.007.023-.007.029v.049c0,.006-.006.006-.006.012-.011.024-.011.043-.017.055s-.006.006-.006.018S282.108,59.041,282.1,59.066Z" transform="translate(-273.195 -56.753)" fill="#fff"/>
          </g>
        </g>
      </g>
      <g id="Grupo_99409" data-name="Grupo 99409" transform="translate(79.894 71.39)">
        <g id="Grupo_99405" data-name="Grupo 99405">
          <g id="Grupo_99403" data-name="Grupo 99403">
            <rect id="Rectángulo_42961" data-name="Rectángulo 42961" width="138.012" height="93.393" transform="translate(0.431)" fill="#37484f"/>
            <path id="Trazado_213720" data-name="Trazado 213720" d="M471.079,195.5H332.2l.431-93.824H470.648Z" transform="translate(-332.205 -101.681)" fill="#37484f"/>
          </g>
          <g id="Grupo_99404" data-name="Grupo 99404" transform="translate(0.431)">
            <rect id="Rectángulo_42962" data-name="Rectángulo 42962" width="138.012" height="8.226" fill="#ffc524"/>
          </g>
        </g>
        <g id="Grupo_99406" data-name="Grupo 99406" transform="translate(4.012 2.102)">
          <path id="Trazado_213721" data-name="Trazado 213721" d="M339.65,105.482a2.071,2.071,0,1,1-2.071-2.07A2.071,2.071,0,0,1,339.65,105.482Z" transform="translate(-335.508 -103.412)" fill="#a6a6a6"/>
          <circle id="Elipse_6362" data-name="Elipse 6362" cx="2.07" cy="2.07" r="2.07" transform="translate(8.455)" fill="#ebebeb"/>
          <path id="Trazado_213722" data-name="Trazado 213722" d="M353.571,105.482a2.071,2.071,0,1,1-2.071-2.07A2.07,2.07,0,0,1,353.571,105.482Z" transform="translate(-332.521 -103.412)" fill="#fff"/>
        </g>
        <g id="Grupo_99408" data-name="Grupo 99408" transform="translate(9.256 16.822)">
          <rect id="Rectángulo_42963" data-name="Rectángulo 42963" width="4.398" height="1.606" transform="translate(0 7.768)" fill="#ebebeb"/>
          <rect id="Rectángulo_42964" data-name="Rectángulo 42964" width="26.158" height="1.606" transform="translate(7.603 7.768)" fill="#ebebeb"/>
          <rect id="Rectángulo_42965" data-name="Rectángulo 42965" width="10.81" height="1.606" transform="translate(97.981 7.768)" fill="#fff"/>
          <rect id="Rectángulo_42966" data-name="Rectángulo 42966" width="8.354" height="1.606" transform="translate(36.463 7.768)" fill="#fff"/>
          <rect id="Rectángulo_42967" data-name="Rectángulo 42967" width="32.255" height="1.606" transform="translate(63.61 7.768)" fill="#ebebeb"/>
          <rect id="Rectángulo_42968" data-name="Rectángulo 42968" width="25.524" height="1.606" transform="translate(79.862 29.266)" fill="#ebebeb"/>
          <rect id="Rectángulo_42969" data-name="Rectángulo 42969" width="14.441" height="1.606" transform="translate(46.633 7.768)" fill="#a6a6a6"/>
          <rect id="Rectángulo_42970" data-name="Rectángulo 42970" width="4.398" height="1.606" transform="translate(4.398 12.068)" fill="#ebebeb"/>
          <rect id="Rectángulo_42971" data-name="Rectángulo 42971" width="33.108" height="1.606" transform="translate(11.891 12.068)" fill="#a6a6a6"/>
          <rect id="Rectángulo_42972" data-name="Rectángulo 42972" width="19.385" height="1.606" transform="translate(58.492 29.266)" fill="#a6a6a6"/>
          <rect id="Rectángulo_42973" data-name="Rectángulo 42973" width="31.623" height="1.606" transform="translate(7.603 24.966)" fill="#a6a6a6"/>
          <rect id="Rectángulo_42974" data-name="Rectángulo 42974" width="22.185" height="1.606" transform="translate(11.891 16.367)" fill="#fff"/>
          <rect id="Rectángulo_42975" data-name="Rectángulo 42975" width="22.185" height="1.606" transform="translate(89.842 16.367)" fill="#fff"/>
          <rect id="Rectángulo_42976" data-name="Rectángulo 42976" width="8.462" height="1.606" transform="translate(66.341 20.667)" fill="#a6a6a6"/>
          <rect id="Rectángulo_42977" data-name="Rectángulo 42977" width="35.427" height="1.606" transform="translate(36.537 16.367)" fill="#a6a6a6"/>
          <rect id="Rectángulo_42978" data-name="Rectángulo 42978" width="42.288" height="1.606" transform="translate(7.603 29.266)" fill="#fff"/>
          <rect id="Rectángulo_42979" data-name="Rectángulo 42979" width="22.918" height="1.606" transform="translate(56.878 12.068)" fill="#fff"/>
          <rect id="Rectángulo_42980" data-name="Rectángulo 42980" width="7.985" height="1.606" transform="translate(47.077 12.068)" fill="#ebebeb"/>
          <rect id="Rectángulo_42981" data-name="Rectángulo 42981" width="33.34" height="1.606" transform="translate(82.418 12.068)" fill="#ebebeb"/>
          <rect id="Rectángulo_42982" data-name="Rectángulo 42982" width="14.238" height="1.606" transform="translate(73.629 16.367)" fill="#ebebeb"/>
          <rect id="Rectángulo_42983" data-name="Rectángulo 42983" width="4.398" height="1.606" transform="translate(4.398 16.367)" fill="#ebebeb"/>
          <rect id="Rectángulo_42984" data-name="Rectángulo 42984" width="4.398" height="1.606" transform="translate(0 20.667)" fill="#a6a6a6"/>
          <rect id="Rectángulo_42985" data-name="Rectángulo 42985" width="25.992" height="1.606" transform="translate(7.603 20.667)" fill="#ebebeb"/>
          <rect id="Rectángulo_42986" data-name="Rectángulo 42986" width="25.992" height="1.606" transform="translate(76.366 20.667)" fill="#ebebeb"/>
          <rect id="Rectángulo_42987" data-name="Rectángulo 42987" width="25.992" height="1.606" transform="translate(11.891 33.565)" fill="#ebebeb"/>
          <rect id="Rectángulo_42988" data-name="Rectángulo 42988" width="19.761" height="1.606" transform="translate(48.612 37.864)" fill="#fff"/>
          <rect id="Rectángulo_42989" data-name="Rectángulo 42989" width="26.065" height="1.606" transform="translate(39.993 33.565)" fill="#fff"/>
          <rect id="Rectángulo_42990" data-name="Rectángulo 42990" width="22.689" height="1.606" transform="translate(22.731 37.864)" fill="#ebebeb"/>
          <rect id="Rectángulo_42991" data-name="Rectángulo 42991" width="7.526" height="1.606" transform="translate(11.891 37.864)" fill="#a6a6a6"/>
          <rect id="Rectángulo_42992" data-name="Rectángulo 42992" width="18.399" height="1.606" transform="translate(70.4 37.864)" fill="#a6a6a6"/>
          <rect id="Rectángulo_42993" data-name="Rectángulo 42993" width="28.093" height="1.606" transform="translate(41.015 24.966)" fill="#ebebeb"/>
          <rect id="Rectángulo_42994" data-name="Rectángulo 42994" width="17.874" height="1.606" transform="translate(70.924 24.966)" fill="#fff"/>
          <rect id="Rectángulo_42995" data-name="Rectángulo 42995" width="28.059" height="1.606" transform="translate(36.238 20.667)" fill="#fff"/>
          <rect id="Rectángulo_42996" data-name="Rectángulo 42996" width="4.398" height="1.606" transform="translate(0 24.966)" fill="#ebebeb"/>
          <rect id="Rectángulo_42997" data-name="Rectángulo 42997" width="4.398" height="1.606" transform="translate(0 29.266)" fill="#ebebeb"/>
          <rect id="Rectángulo_42998" data-name="Rectángulo 42998" width="4.398" height="1.606" transform="translate(4.398 33.565)" fill="#a6a6a6"/>
          <rect id="Rectángulo_42999" data-name="Rectángulo 42999" width="26.548" height="1.606" transform="translate(68.201 33.565)" fill="#a6a6a6"/>
          <rect id="Rectángulo_43000" data-name="Rectángulo 43000" width="4.398" height="1.606" transform="translate(4.398 37.864)" fill="#ebebeb"/>
          <rect id="Rectángulo_43001" data-name="Rectángulo 43001" width="4.398" height="1.606" transform="translate(0 41.465)" fill="#ebebeb"/>
          <rect id="Rectángulo_43002" data-name="Rectángulo 43002" width="50.449" height="1.606" transform="translate(7.603 41.465)" fill="#ebebeb"/>
          <rect id="Rectángulo_43003" data-name="Rectángulo 43003" width="4.398" height="1.606" transform="translate(4.398 45.765)" fill="#ebebeb"/>
          <rect id="Rectángulo_43004" data-name="Rectángulo 43004" width="33.108" height="1.606" transform="translate(11.891 45.765)" fill="#a6a6a6"/>
          <rect id="Rectángulo_43005" data-name="Rectángulo 43005" width="31.623" height="1.606" transform="translate(7.603 58.663)" fill="#a6a6a6"/>
          <rect id="Rectángulo_43006" data-name="Rectángulo 43006" width="22.185" height="1.606" transform="translate(11.891 50.064)" fill="#fff"/>
          <rect id="Rectángulo_43007" data-name="Rectángulo 43007" width="35.427" height="1.606" transform="translate(36.537 50.064)" fill="#a6a6a6"/>
          <rect id="Rectángulo_43008" data-name="Rectángulo 43008" width="42.288" height="1.606" transform="translate(7.603 62.962)" fill="#fff"/>
          <rect id="Rectángulo_43009" data-name="Rectángulo 43009" width="22.918" height="1.606" transform="translate(69.993 45.765)" fill="#fff"/>
          <rect id="Rectángulo_43010" data-name="Rectángulo 43010" width="21.1" height="1.606" transform="translate(47.077 45.765)" fill="#ebebeb"/>
          <rect id="Rectángulo_43011" data-name="Rectángulo 43011" width="14.238" height="1.606" transform="translate(73.629 50.064)" fill="#ebebeb"/>
          <rect id="Rectángulo_43012" data-name="Rectángulo 43012" width="4.398" height="1.606" transform="translate(4.398 50.064)" fill="#ebebeb"/>
          <rect id="Rectángulo_43013" data-name="Rectángulo 43013" width="4.398" height="1.606" transform="translate(0 54.363)" fill="#a6a6a6"/>
          <rect id="Rectángulo_43014" data-name="Rectángulo 43014" width="17.132" height="1.606" transform="translate(66.174 54.363)" fill="#a6a6a6"/>
          <rect id="Rectángulo_43015" data-name="Rectángulo 43015" width="25.992" height="1.606" transform="translate(7.603 54.363)" fill="#ebebeb"/>
          <rect id="Rectángulo_43016" data-name="Rectángulo 43016" width="14.461" height="1.606" transform="translate(86.017 54.363)" fill="#ebebeb"/>
          <rect id="Rectángulo_43017" data-name="Rectángulo 43017" width="28.093" height="1.606" transform="translate(41.015 58.663)" fill="#ebebeb"/>
          <rect id="Rectángulo_43018" data-name="Rectángulo 43018" width="28.059" height="1.606" transform="translate(36.238 54.363)" fill="#fff"/>
          <rect id="Rectángulo_43019" data-name="Rectángulo 43019" width="4.398" height="1.606" transform="translate(0 58.663)" fill="#ebebeb"/>
          <g id="Grupo_99407" data-name="Grupo 99407" transform="translate(0.362)">
            <path id="Trazado_213723" data-name="Trazado 213723" d="M342.478,119.069a.38.38,0,0,1-.265.651.4.4,0,0,1-.278-.108l-1.7-1.72c-.018-.006-.024-.018-.03-.036a.088.088,0,0,0-.018-.012.16.16,0,0,1-.018-.049.033.033,0,0,1-.018-.024c-.006-.012-.006-.03-.012-.036s-.012-.024-.012-.03v-.041c0-.012-.006-.018-.006-.036s.006-.024.006-.03v-.043c0-.012.012-.018.012-.024s.006-.03.012-.049.006,0,.006-.011a.451.451,0,0,1,.03-.055.012.012,0,0,1,.012-.012.113.113,0,0,1,.036-.043l1.7-1.72a.392.392,0,0,1,.543,0,.381.381,0,0,1,0,.543l-1.43,1.443Z" transform="translate(-340.124 -115.531)" fill="#fff"/>
            <path id="Trazado_213724" data-name="Trazado 213724" d="M343.333,119.26l1.479-3.52a.335.335,0,0,1,.441-.175.326.326,0,0,1,.169.429l-1.479,3.525a.333.333,0,0,1-.307.2.279.279,0,0,1-.12-.023A.327.327,0,0,1,343.333,119.26Z" transform="translate(-339.441 -115.529)" fill="#fff"/>
            <path id="Trazado_213725" data-name="Trazado 213725" d="M347.877,117.844a.006.006,0,0,1-.006.006.461.461,0,0,1-.043.042l-1.7,1.72a.395.395,0,0,1-.543,0,.38.38,0,0,1,0-.543l1.431-1.443-1.431-1.443a.38.38,0,0,1,0-.543.392.392,0,0,1,.543,0l1.7,1.72a.276.276,0,0,1,.043.043c.006,0,.006.012.006.012.011.024.023.036.03.055s.006.006.006.011a.208.208,0,0,0,.017.055c0,.006.006.006.006.018v.043c0,.006.006.024.006.03s-.006.024-.006.029v.049c0,.006-.006.006-.006.012a.309.309,0,0,0-.017.055c0,.006-.006.006-.006.018A.473.473,0,0,0,347.877,117.844Z" transform="translate(-338.976 -115.531)" fill="#fff"/>
          </g>
        </g>
      </g>
      <g id="Grupo_99411" data-name="Grupo 99411" transform="translate(39.136 101.886)">
        <path id="Trazado_213726" data-name="Trazado 213726" d="M325.527,169.692H298.647v-42.9h1.215v41.688h25.665Z" transform="translate(-298.647 -126.79)" fill="#382628"/>
        <g id="Grupo_99410" data-name="Grupo 99410" transform="translate(25.816 38.662)">
          <path id="Trazado_213727" data-name="Trazado 213727" d="M319.9,165.889l6.292-3.633-6.292-3.634Z" transform="translate(-319.903 -158.622)" fill="#382628"/>
        </g>
      </g>
    </g>
    <g id="Grupo_99413" data-name="Grupo 99413" transform="translate(61.213 291.792)">
      <path id="Trazado_213728" data-name="Trazado 213728" d="M58.78,436.247H222.23L189.64,246.671H67.417Z" transform="translate(-58.78 -246.671)" fill="#dbdbdb"/>
      <path id="Trazado_213729" data-name="Trazado 213729" d="M58.78,436.247H73.112l8.043-189.576H67.417Z" transform="translate(-58.78 -246.671)" fill="#a6a6a6"/>
    </g>
    <g id="Grupo_99448" data-name="Grupo 99448" transform="translate(85.777 186.143)">
      <g id="Grupo_99447" data-name="Grupo 99447" transform="translate(0)">
        <g id="Grupo_99418" data-name="Grupo 99418" transform="translate(117.376 107.512)">
          <g id="Grupo_99416" data-name="Grupo 99416" transform="translate(0.105 1.085)">
            <path id="Trazado_213730" data-name="Trazado 213730" d="M177.273,271.111c10.681,46.508,32.794,102.256,42.229,111.3,11.934,11.444,90.918,32.429,94.857,32.855,9.758.985,29.3-69.24,18.912-70.74-15.815-2.285-73.311-5.412-76.758-8.951-3.576-3.7-27.841-34.3-52.8-68.879C186.494,242.807,170.647,242.254,177.273,271.111Z" transform="translate(-175.732 -249.098)" fill="#ad6259"/>
            <g id="Grupo_99415" data-name="Grupo 99415" transform="translate(130.796 94.406)">
              <path id="Trazado_213731" data-name="Trazado 213731" d="M283.422,394.806c1.162.589,17.666,8.889,27.87,11.847,7.613,2.207,29.7,7.971,32.96-.169,2.232-5.549-10.357-10.468-19.18-14.145-4.648-1.937-10.377-6.8-9.007-9.792,2.4-5.224,14.362.023,22.231,4.6,15.219,8.843,35.491,24.759,44.787,17.039,3.51-2.92-.57-8.234-6.539-13.445,9.686,6.074,20.017,11.055,24.045,7.968,2.313-1.759,2.421-4.172,1.133-6.929,2.99.973,5.633.782,7.476-1.166,3.149-3.3,1.614-8.158-1.83-13.143a3.758,3.758,0,0,0,2.859-1.879c6.668-10.166-26.7-39.351-38.242-42.082-33.954-8.072-69.732-6.569-69.732-6.569C288.915,337.594,283.4,394.783,283.422,394.806Z" transform="translate(-283.422 -326.826)" fill="#ad6259"/>
              <g id="Grupo_99414" data-name="Grupo 99414" transform="translate(49.845 9.717)">
                <path id="Trazado_213732" data-name="Trazado 213732" d="M324.545,357.063a57.633,57.633,0,0,1,22.647,8.717c8.608,5.682,14.319,12.332,21.54,19.027.189.176-.078.477-.268.3-3.442-3.183-17.7-15.15-21.385-17.871A54.879,54.879,0,0,0,324.514,357.2C324.426,357.185,324.456,357.049,324.545,357.063Z" transform="translate(-324.461 -330.056)" fill="#382628"/>
                <path id="Trazado_213733" data-name="Trazado 213733" d="M329.755,345.2c8.923,2.439,18.068,4.907,26.35,9.127,9.064,4.619,16.157,12.149,23.133,19.4q6.282,6.528,12.271,13.33c.166.191-.088.491-.268.3q-10.614-11.23-21.9-21.809a72.571,72.571,0,0,0-24.03-15.144c-5.107-1.947-10.353-3.5-15.59-5.043C329.624,345.33,329.656,345.174,329.755,345.2Z" transform="translate(-323.345 -332.601)" fill="#382628"/>
                <path id="Trazado_213734" data-name="Trazado 213734" d="M337.594,334.827c8.671,1.78,16.234,3.3,23.911,7.949,10.165,6.151,19.976,16.514,23.419,20.188,3.8,4.059,7.465,8.24,11.066,12.478.147.172-.151.431-.3.261a287.771,287.771,0,0,0-26.449-26.194,57.247,57.247,0,0,0-14.789-9.616c-5.4-2.325-11.175-3.641-16.868-5.008A.03.03,0,0,1,337.594,334.827Z" transform="translate(-321.651 -334.827)" fill="#382628"/>
              </g>
            </g>
          </g>
          <g id="Grupo_99417" data-name="Grupo 99417">
            <path id="Trazado_213735" data-name="Trazado 213735" d="M319.909,340.931,295.618,417.88s-65.761-18.772-77.779-31.735-34.2-79.884-40.721-112.319,9.878-31.634,24.951-11.184,52.6,70.017,54.7,71.094S319.909,340.931,319.909,340.931Z" transform="translate(-175.646 -248.204)" fill="#4dd0e1"/>
            <path id="Trazado_213736" data-name="Trazado 213736" d="M270.952,367.391c2.942-9.073,5.957-18.125,8.563-27.307,1.48-5.217,2.99-10.428,4.421-15.661.053-.2-.277-.317-.349-.121-3.313,8.988-6.616,18.011-9.517,27.15-2.886,9.093-5.849,18.163-8.619,27.295-1.574,5.192-2.988,10.413-4.245,15.7-.025.106.142.166.183.064C265.007,385.622,267.99,376.525,270.952,367.391Z" transform="translate(-157.289 -231.898)" fill="#382628"/>
            <path id="Trazado_213737" data-name="Trazado 213737" d="M262.455,407.3l-2.915-1.02c-7.312-2.611-14.805-5.465-21.461-8.368-.522-.219-1.02-.449-1.53-.668-2.879-1.287-5.587-2.575-8.04-3.862-.425-.219-.862-.449-1.275-.68a45.749,45.749,0,0,1-8.113-5.332c-.231-.206-.462-.413-.668-.619-.231-.206-.425-.413-.607-.607-12.024-12.959-34.2-79.882-40.724-112.323-.085-.425-.17-.887-.255-1.36-.437-2.478-.826-5.538-1.142-8.854-.607-10.7,2.551-15.461,7.482-15.4C204.192,289.694,249.52,381.892,262.455,407.3Z" transform="translate(-175.645 -248.205)" opacity="0.1"/>
          </g>
        </g>
        <g id="Grupo_99419" data-name="Grupo 99419" transform="translate(13.112 100.641)">
          <path id="Trazado_213738" data-name="Trazado 213738" d="M256.155,437.132H89.887c-1.832-3.361,25.418-149,81.492-190.012,12.441-9.1,34.511-3.248,40.65,5.6C242.884,297.185,256.155,437.132,256.155,437.132Z" transform="translate(-89.801 -242.547)" fill="#4dd0e1"/>
          <path id="Trazado_213739" data-name="Trazado 213739" d="M205.112,282.854q2.294,8.293,4.433,16.61c-.186-2.421-.449-4.836-.76-7.242-.018-.142.2-.2.23-.056a52.221,52.221,0,0,1,.994,9.073c1.705,6.69,3.323,13.4,4.81,20.15,2.849,12.935,5.381,25.962,7.479,39.032,1.183,7.371,2.1,14.791,3.361,22.146.023.137-.194.192-.219.052-1.156-6.523-2.691-13.014-4.114-19.489q-2.119-9.654-4.117-19.329c-2.688-12.969-5.531-25.908-8.2-38.879-1.5-7.308-2.906-14.636-4.416-21.941A.27.27,0,0,1,205.112,282.854Z" transform="translate(-65.173 -233.94)" fill="#382628"/>
        </g>
        <g id="Grupo_99431" data-name="Grupo 99431" transform="translate(0 106.729)">
          <g id="Grupo_99430" data-name="Grupo 99430">
            <g id="Grupo_99427" data-name="Grupo 99427" transform="translate(1.775 0.774)">
              <path id="Trazado_213740" data-name="Trazado 213740" d="M154.53,260.3c-26.845,28.754-90.706,136.654-70,156.55,20.853,20.038,135.611-6.885,167.886-22.262,9.6-4.574-26.884-64.434-38.168-65.832-9.395-1.164-57.427,20.808-58.816,18.045-1.569-3.123,9.339-23.165,20.894-64.894C189.649,233.787,166.389,247.595,154.53,260.3Z" transform="translate(-80.467 -248.197)" fill="#ad6259"/>
              <g id="Grupo_99426" data-name="Grupo 99426" transform="translate(119.496 42.941)">
                <g id="Grupo_99425" data-name="Grupo 99425">
                  <path id="Trazado_213741" data-name="Trazado 213741" d="M229.886,301.846c23.335-3.25,29.825-.5,48.063-13.7,11.967-8.662,22.633-4.738,15.806,9.027-11.168,22.513-40.393,33.029-51.575,33.758Z" transform="translate(-167.903 -283.552)" fill="#ad6259"/>
                  <g id="Grupo_99420" data-name="Grupo 99420" transform="translate(0 17.53)">
                    <path id="Trazado_213742" data-name="Trazado 213742" d="M178.853,321.213s26.22-14.56,50.744-20.484c16.959-4.1,54.85-8.894,91.1,28.491,8.6,8.868,14.563,27.6-4.742,18.218-13.712-6.664-20.394-15.034-29.075-17.458,0,0,4.757,24.73-4.462,33-4.12,3.695-15.6,13.517-25.632,19.888a48.124,48.124,0,0,1-4.151-4.463s-9.342,6.91-26.928,5.235Z" transform="translate(-178.853 -297.986)" fill="#ad6259"/>
                  </g>
                  <g id="Grupo_99424" data-name="Grupo 99424" transform="translate(63.124 18.95)">
                    <path id="Trazado_213743" data-name="Trazado 213743" d="M235.256,299.154c8.108,4.229,25.144,13.477,36.448,25.89,12.555,13.788,33.025,43.73,22.751,52.894-7.533,6.719-16.353-4.026-16.353-4.026s5.852,14.159-2.281,18.741c-7.41,4.174-13.735-4.547-13.735-4.547s2.073,9.2-5.84,11.847c-9.517,3.183-12.3-16.62-24.726-21.725C228.73,377.08,235.256,299.154,235.256,299.154Z" transform="translate(-230.826 -299.154)" fill="#ad6259"/>
                    <g id="Grupo_99423" data-name="Grupo 99423" transform="translate(10.395 36.708)">
                      <g id="Grupo_99421" data-name="Grupo 99421" transform="translate(13.553)">
                        <path id="Trazado_213744" data-name="Trazado 213744" d="M250.691,329.4c6.974,5.226,19.767,21.16,23.305,37.665.08.374-.159.635-.3.31a183.043,183.043,0,0,0-23.13-37.857C250.5,329.434,250.614,329.337,250.691,329.4Z" transform="translate(-250.543 -329.377)" fill="#382628"/>
                      </g>
                      <g id="Grupo_99422" data-name="Grupo 99422" transform="translate(0 13.074)">
                        <path id="Trazado_213745" data-name="Trazado 213745" d="M239.537,340.164c5.553,5.129,18,22.14,21.017,38.989.067.377-.192.622-.323.29-7.357-18.455-16.352-32.966-20.831-39.168C239.34,340.192,239.465,340.1,239.537,340.164Z" transform="translate(-239.384 -340.142)" fill="#382628"/>
                      </g>
                    </g>
                  </g>
                </g>
                <path id="Trazado_213746" data-name="Trazado 213746" d="M267.835,324.2c7.6,2.238,12.55,5.97,18.968,10.426a104.323,104.323,0,0,0,9.8,6.2c3.1,1.675,7.666,4.207,10.965,1.584,1.836-1.46,1.81-4.117,1.4-6.212-.458-2.353-2.784-6.7-4.179-8.653-.072-.1.1-.226.172-.128a43.577,43.577,0,0,1,4.57,7.705,10.126,10.126,0,0,1,.687,5.936c-1.119,4.194-6.063,4.744-9.565,3.591a33.2,33.2,0,0,1-5.985-2.9c-1.844-1.058-3.635-2.2-5.4-3.393-3.616-2.443-7.086-5.09-10.672-7.574a98.852,98.852,0,0,0-10.879-6.335C267.578,324.381,267.685,324.159,267.835,324.2Z" transform="translate(-159.8 -274.831)" fill="#382628"/>
                <path id="Trazado_213747" data-name="Trazado 213747" d="M283.759,350.958c-1.968-4.336-12.624-22.4-16.08-26.575a.108.108,0,0,1,.157-.149c5.927,5.62,15.453,20.543,17.673,25.325,2.194,4.725,4.721,10.763,4.721,16.031,0,7.946-5.269,9.451-7.218,9.839a10.3,10.3,0,0,1-6.762-1.106,20.743,20.743,0,0,1-6.129-5.759c-.082-.108.062-.256.157-.149,2.752,3.129,7.327,6.22,11.645,5.651a7.22,7.22,0,0,0,4.913-2.65c1.346-1.825,1.453-4.225,1.27-6.4C287.695,360.091,285.78,355.413,283.759,350.958Z" transform="translate(-159.8 -274.83)" fill="#382628"/>
              </g>
            </g>
            <g id="Grupo_99429" data-name="Grupo 99429">
              <path id="Trazado_213748" data-name="Trazado 213748" d="M200.276,332.033l36.777,77.37S93.195,441.714,80.781,416.672s43.458-123.052,68.634-151.593,36.484-20.195,29.753,10.5-23,72.078-23,72.078Z" transform="translate(-79.005 -247.56)" fill="#4dd0e1"/>
              <g id="Grupo_99428" data-name="Grupo 99428" transform="translate(14.609 53.601)">
                <path id="Trazado_213749" data-name="Trazado 213749" d="M106.544,351.386a168.308,168.308,0,0,1,20.978-12.324,163.421,163.421,0,0,1,22.314-8.953c4.351-1.438,8.755-2.66,13.16-3.915.135-.038.187.168.055.21a209.733,209.733,0,0,0-22.539,8.772q-10.98,4.892-21.764,10.177c-4.07,2-8.044,4.184-12.044,6.314A.162.162,0,0,1,106.544,351.386Z" transform="translate(-87.722 -284.291)" fill="#382628"/>
                <path id="Trazado_213750" data-name="Trazado 213750" d="M186.309,322.338c-.724.189-40.063,13.179-41.355,13.78.164-.593,7.221-21.512,8.277-24.575.106-.306.2-.613.3-.919.717-1.365,1.442-2.725,2.1-4.121.85-1.788,1.687-3.582,2.525-5.376a.047.047,0,0,0-.083-.045c-.919,1.748-1.841,3.5-2.75,5.251-.42.811-.814,1.636-1.2,2.461.693-2.163,1.358-4.334,2.022-6.512,1.059-3.475,2.005-6.97,2.942-10.48.03-.113-.137-.152-.175-.044-2.088,6.1-4.366,12.133-6.471,18.228s-10.2,28.548-10.137,28.53c.07.058,43.331-15.291,44.166-15.64A.281.281,0,0,0,186.309,322.338Z" transform="translate(-80.033 -291.692)" fill="#382628"/>
                <path id="Trazado_213751" data-name="Trazado 213751" d="M184.292,365.6c-4.048-8.636-8.029-17.306-12.4-25.792-2.483-4.821-4.941-9.658-7.468-14.456-.1-.182-.419-.044-.339.148,3.72,8.827,7.472,17.673,11.6,26.33,4.1,8.612,8.134,17.26,12.35,25.822q3.594,7.3,7.621,14.365c.053.094.217.024.179-.079C192.4,382.982,188.369,374.3,184.292,365.6Z" transform="translate(-75.362 -284.488)" fill="#382628"/>
                <path id="Trazado_213752" data-name="Trazado 213752" d="M236.328,383.316c-1.44-2.382-3.259-5.815-4.8-8.135-.407-.612-.879-.485-.554.159,1.1,2.162,2.005,4.593,3.09,6.813-2.02.4-4.048.76-6.066,1.183-2.332.489-4.661.989-7,1.471q-6.854,1.412-13.737,2.684-13.939,2.576-27.977,4.559a548.412,548.412,0,0,1-56.589,5.311c-5.3.193-10.6.285-15.9.211a153.148,153.148,0,0,1-15.648-.751c-.142-.017-.171.224-.028.253a87.173,87.173,0,0,0,13.61,1.766c4.8.236,9.6.339,14.4.284,9.562-.108,19.117-.726,28.638-1.6q28.32-2.6,56.363-7.586,7.847-1.386,15.661-2.956c2.628-.527,5.258-1.057,7.875-1.635S236.574,383.722,236.328,383.316Z" transform="translate(-91.034 -273.864)" fill="#382628"/>
              </g>
            </g>
          </g>
        </g>
        <g id="Grupo_99446" data-name="Grupo 99446" transform="translate(93.369)">
          <g id="Grupo_99444" data-name="Grupo 99444" transform="translate(6.272)">
            <g id="Grupo_99433" data-name="Grupo 99433" transform="translate(0 69.549)">
              <g id="Grupo_99432" data-name="Grupo 99432">
                <path id="Trazado_213753" data-name="Trazado 213753" d="M187.418,287.573c-10.027-.058-22.79-18.5-26.371-31.8-.24-.913,10.915-32.311,12.48-38.763.316-1.325,38.078,19.644,38.078,19.644s-7.258,12.559-9.917,23.821C201.476,261.419,197.112,287.623,187.418,287.573Z" transform="translate(-161.044 -216.948)" fill="#ad6259"/>
              </g>
              <path id="Trazado_213754" data-name="Trazado 213754" d="M194.648,262.8a22.788,22.788,0,0,0,4,.734c.166-.79.3-1.454.4-1.966a.151.151,0,0,1,.013-.069.848.848,0,0,1,.028-.181c.041-.193.069-.4.125-.61a.38.38,0,0,1,.028-.124l.041-.166a67.1,67.1,0,0,1,2.271-7.425,117.586,117.586,0,0,1,6.178-13.727c.193-.374.374-.706.539-1,.5-.928.817-1.5.887-1.635.028-.013.028-.027.028-.027h-.013c-.084-.056-.43-.25-1-.568-.361-.194-.8-.443-1.33-.734a.076.076,0,0,1-.056-.028c-.277-.153-.582-.319-.887-.485-.346-.194-.707-.389-1.094-.61-.318-.166-.664-.361-1.011-.554-.056-.028-.125-.069-.194-.112-.415-.221-.859-.457-1.315-.72-.1-.055-.209-.111-.3-.165-.43-.236-.873-.471-1.317-.721-.221-.124-.457-.249-.692-.373-.692-.374-1.4-.763-2.133-1.165-.54-.29-1.081-.581-1.635-.885-.457-.25-.928-.5-1.385-.748-1.552-.845-3.145-1.7-4.738-2.549-.513-.277-1.025-.554-1.523-.831-1.87-1-3.713-1.966-5.472-2.881-.4-.208-.789-.415-1.177-.61-.264-.138-.527-.277-.776-.4-.318-.165-.623-.318-.928-.485-.692-.36-1.358-.692-1.994-1.011L177,219.36c-.6-.3-1.15-.568-1.676-.817-.264-.138-.527-.249-.762-.361-.72-.346-1.344-.623-1.857-.831-.124-.055-.236-.1-.332-.138v.015C171.9,228.156,172.777,256.953,194.648,262.8Z" transform="translate(-158.63 -216.892)" fill="#382628"/>
            </g>
            <g id="Grupo_99443" data-name="Grupo 99443" transform="translate(4.5)">
              <g id="Grupo_99434" data-name="Grupo 99434" transform="translate(8.226 7.454)">
                <path id="Trazado_213755" data-name="Trazado 213755" d="M182.61,179.376c-8.942,12.58-15.03,55.5-8.076,67.845,10.083,17.889,33.308,27.02,50.205,13.365,16.378-13.238,23.323-69.316,14.929-81.223C227.3,161.828,195.818,160.792,182.61,179.376Z" transform="translate(-171.521 -165.823)" fill="#ad6259"/>
              </g>
              <g id="Grupo_99440" data-name="Grupo 99440" transform="translate(42.637 44.707)">
                <g id="Grupo_99435" data-name="Grupo 99435" transform="translate(2.051 10.712)">
                  <path id="Trazado_213756" data-name="Trazado 213756" d="M207.767,208.182c-.006-.113-.247.1-.26.222-.333,2.9-1.2,6.171-3.957,6.746-.085.018-.1.164,0,.165C206.806,215.334,207.918,210.985,207.767,208.182Z" transform="translate(-201.126 -204.705)" fill="#382628"/>
                  <path id="Trazado_213757" data-name="Trazado 213757" d="M206.046,205.394c-4.595-1.035-6.327,8.231-2.07,9.189C208.166,215.527,209.9,206.261,206.046,205.394Z" transform="translate(-201.542 -205.314)" fill="#382628"/>
                </g>
                <g id="Grupo_99436" data-name="Grupo 99436" transform="translate(23.708 15.051)">
                  <path id="Trazado_213758" data-name="Trazado 213758" d="M220.128,210.975c.043-.106.2.177.174.3-.627,2.853-.866,6.226,1.552,7.665.075.044.04.187-.053.155C218.716,218.052,219.078,213.578,220.128,210.975Z" transform="translate(-219.373 -208.443)" fill="#382628"/>
                  <path id="Trazado_213759" data-name="Trazado 213759" d="M223.212,208.9c4.682.511,3.313,9.838-1.025,9.363C217.919,217.8,219.287,208.469,223.212,208.9Z" transform="translate(-219.333 -208.886)" fill="#382628"/>
                </g>
                <path id="Trazado_213760" data-name="Trazado 213760" d="M203.295,202.365a36.522,36.522,0,0,0,3.825-.593c1.466-.244,2.657-.287,3.786-1.348a2,2,0,0,0,.129-2.43c-1.161-1.492-3.029-1.638-4.8-1.417a7.262,7.262,0,0,0-4.689,2.319C200.24,200.253,201.552,202.473,203.295,202.365Z" transform="translate(-199.605 -196.494)" fill="#382628"/>
                <path id="Trazado_213761" data-name="Trazado 213761" d="M227.463,206.855a36.5,36.5,0,0,1-3.5-1.643c-1.338-.646-2.469-1.021-3.254-2.357a1.993,1.993,0,0,1,.56-2.37c1.532-1.1,3.366-.72,5.008-.01a7.265,7.265,0,0,1,3.85,3.544C230.988,205.686,229.105,207.449,227.463,206.855Z" transform="translate(-195.42 -195.787)" fill="#382628"/>
                <path id="Trazado_213762" data-name="Trazado 213762" d="M200.154,229.566c.562.8,1.075,1.855,2.1,2.136a7.7,7.7,0,0,0,3.221-.146.1.1,0,0,1,.1.171,3.931,3.931,0,0,1-3.934.877,3.107,3.107,0,0,1-1.783-2.96C199.842,229.47,200.073,229.449,200.154,229.566Z" transform="translate(-199.854 -189.414)" fill="#382628"/>
                <g id="Grupo_99438" data-name="Grupo 99438" transform="translate(4.89 3.317)">
                  <g id="Grupo_99437" data-name="Grupo 99437">
                    <path id="Trazado_213763" data-name="Trazado 213763" d="M203.914,228.031a9.942,9.942,0,0,0,5.711,5.568,12.434,12.434,0,0,0,3.485.819,3.609,3.609,0,0,0,.686.049c.215.013.408.024.647.021a.726.726,0,0,0,.7-.534l0-.022a1.434,1.434,0,0,0,.028-.3l0-.021.041-.253c.474-2.2.888-5.6.888-5.6.731.556,4.5,3.177,4.653,2.01,1.217-9.664,2.569-20.412,1.738-30.286a.27.27,0,0,0-.537-.026c-1.536,9.243-1.438,18.693-2.834,28-1.221-.745-3.191-2.07-4.351-2.263-.332.032-.683,6.588-.975,7.558a.347.347,0,0,1-.038.1c-3.8-.22-6.391-1.864-9.529-5.032C204.048,227.619,203.784,227.771,203.914,228.031Z" transform="translate(-203.879 -199.225)" fill="#382628"/>
                  </g>
                </g>
                <g id="Grupo_99439" data-name="Grupo 99439" transform="translate(2.842 32.051)">
                  <path id="Trazado_213764" data-name="Trazado 213764" d="M212.377,227.977a11.8,11.8,0,0,1-5.315,2.73,5.316,5.316,0,0,1-3.205-.395c-2.18-1.031-1.844-3.146-1.086-4.867a12.657,12.657,0,0,1,1.542-2.563A15.273,15.273,0,0,0,212.377,227.977Z" transform="translate(-202.194 -222.883)" fill="#382628"/>
                  <path id="Trazado_213765" data-name="Trazado 213765" d="M207.062,230.254a5.316,5.316,0,0,1-3.205-.395c-2.18-1.031-1.844-3.146-1.086-4.867C205.181,225.7,207.3,227.827,207.062,230.254Z" transform="translate(-202.194 -222.43)" fill="#ff99bd"/>
                </g>
              </g>
              <g id="Grupo_99441" data-name="Grupo 99441" transform="translate(1.213 46.508)">
                <path id="Trazado_213766" data-name="Trazado 213766" d="M201.017,222.379a12.5,12.5,0,1,1,16.293-11.141h0a12.506,12.506,0,0,1-16.293,11.14Zm7.123-22.214a10.827,10.827,0,1,0,7.5,10.971A10.781,10.781,0,0,0,208.14,200.164Z" transform="translate(-160.044 -197.977)" fill="#ffc524"/>
                <path id="Trazado_213767" data-name="Trazado 213767" d="M223.787,226.807c-4.555-1.461-7.19-7.45-5.937-13.85a14.915,14.915,0,0,1,4.272-8.067,7.786,7.786,0,0,1,13.081,2.562,14.92,14.92,0,0,1,.91,9.082c-1.326,6.761-6.5,11.462-11.532,10.477A7.164,7.164,0,0,1,223.787,226.807Zm5.891-22.528a5.274,5.274,0,0,0-.613-.158,6.664,6.664,0,0,0-5.806,1.992,13.271,13.271,0,0,0-3.77,7.165c-1.145,5.859,1.266,11.285,5.412,12.092,4.131.81,8.423-3.3,9.573-9.157a13.265,13.265,0,0,0-.788-8.059A6.885,6.885,0,0,0,229.677,204.279Z" transform="translate(-154.636 -197.04)" fill="#ffc524"/>
                <path id="Trazado_213768" data-name="Trazado 213768" d="M212.473,210.469l-.809-1.464c2.167-1.2,6.88-2.455,9.246,1.337l-1.417.884C217.379,207.826,212.672,210.361,212.473,210.469Z" transform="translate(-155.896 -195.869)" fill="#ffc524"/>
                <path id="Trazado_213769" data-name="Trazado 213769" d="M167.057,205l-1.309-1.038c.486-.61,4.84-5.96,8.618-5.838,3.53.125,25.106,6.491,26.022,6.763l-.475,1.6c-6.183-1.832-22.874-6.6-25.6-6.692C171.817,199.71,168.231,203.522,167.057,205Z" transform="translate(-165.748 -197.947)" fill="#ffc524"/>
              </g>
              <path id="Trazado_213770" data-name="Trazado 213770" d="M241.555,200.453c-16.364,5.976-31.71-13.341-31.71-13.341-7.276,9.736-17.814,5.644-17.814,5.644s-8.779,22.863-14.973,21.227c-9.452-2.486-4.14-35.367.463-40.916s13.047-5.108,13.047-5.108,1.845-4.746,8.84-7.716c7.732-3.293,28.332,9.089,28.332,9.089a21.423,21.423,0,0,1,7.689-6.248,6.037,6.037,0,0,1,8.226,2.933,14.431,14.431,0,0,0-3.76,5.229c-2.885,6.611,2.753,8.049,4.307,1.779a10.059,10.059,0,0,0-.547-7.008c3.828-3.376,8.711-3.544,10.907-.647C258.544,170.628,255.165,195.491,241.555,200.453Z" transform="translate(-163.234 -159.685)" fill="#382628"/>
              <g id="Grupo_99442" data-name="Grupo 99442" transform="translate(0 42.164)">
                <path id="Trazado_213771" data-name="Trazado 213771" d="M181.721,209.1s-5.111-16.033-12.108-14.609-6.012,22.667.191,27.461a7.472,7.472,0,0,0,10.753-.861Z" transform="translate(-164.749 -194.401)" fill="#ad6259"/>
                <path id="Trazado_213772" data-name="Trazado 213772" d="M169.134,199.483c-.109-.045-.181.107-.095.177,4.3,3.522,5.469,8.889,5.81,14.182-.9-2.276-2.577-3.893-5.558-2.91-.157.051-.1.29.051.3a4.6,4.6,0,0,1,4.354,3.034,22.219,22.219,0,0,1,1.1,4.626c.094.511.961.523.951-.035,0-.041,0-.084,0-.126C177.816,212.5,175.671,202.21,169.134,199.483Z" transform="translate(-163.837 -193.313)" fill="#382628"/>
              </g>
            </g>
          </g>
          <g id="Grupo_99445" data-name="Grupo 99445" transform="translate(0 99.959)">
            <path id="Trazado_213773" data-name="Trazado 213773" d="M203.3,252.8l-6.65,19.291-32.311-30.1-8.455,9.658s28.817,48.144,29.01,45.976l12.7-20.8,11.377,14.639-.486-30.428Z" transform="translate(-155.88 -241.986)" fill="#ebebeb"/>
            <path id="Trazado_213774" data-name="Trazado 213774" d="M209.276,271.559c-.363-5.932-.057-6.383-.694-12.29-.023-.211-.351-.306-.4-.058-1.215,5.722-.211,22.865-.261,28.3-.021-.021-.044-.043-.063-.063-.589-.622-10.346-12.914-10.471-12.725-2.15,3.259-12.209,18.471-12.709,19.833-4.557-7.647-22.03-35.452-27.432-42.687a.205.205,0,0,0-.356.2c4.019,8.072,27.138,45.512,27.5,45.409.243.189,12.072-18.489,13.159-21.973,2.117,2.621,11.984,16.454,12.031,15.572A186.617,186.617,0,0,0,209.276,271.559Z" transform="translate(-155.67 -239.885)" fill="#382628"/>
          </g>
        </g>
      </g>
    </g>
    <path id="Trazado_213775" data-name="Trazado 213775" d="M47.443,402.864l61.5-.3,61.5-.107,123.009-.2,123.009.2,61.5.107,61.5.3-61.5.3-61.5.107-123.009.2-123.009-.2-61.5-.107Z" transform="translate(0 78.504)" fill="#382628"/>
    <g id="Grupo_99451" data-name="Grupo 99451" transform="translate(257.472 375.084)">
      <g id="Grupo_99449" data-name="Grupo 99449" transform="translate(0 103.106)">
        <rect id="Rectángulo_43020" data-name="Rectángulo 43020" width="167.085" height="7.494" fill="#455b64"/>
        <rect id="Rectángulo_43021" data-name="Rectángulo 43021" width="84.096" height="7.494" transform="translate(82.989)" fill="#382628"/>
      </g>
      <g id="Grupo_99450" data-name="Grupo 99450" transform="translate(92.037)">
        <path id="Trazado_213776" data-name="Trazado 213776" d="M296.147,425.843H458.984l21.29-110.594H317.438Z" transform="translate(-296.147 -315.249)" fill="#455b64"/>
        <path id="Trazado_213777" data-name="Trazado 213777" d="M363.793,362.528a8.937,8.937,0,0,0,9.045,9.912,11.035,11.035,0,0,0,10.779-9.912,8.938,8.938,0,0,0-9.046-9.912A11.035,11.035,0,0,0,363.793,362.528Z" transform="translate(-281.641 -307.231)" fill="#ebebeb"/>
        <path id="Trazado_213778" data-name="Trazado 213778" d="M460.17,373.6l-7.648,39.712H326.251Z" transform="translate(-289.688 -302.728)" fill="#382628"/>
      </g>
    </g>
    <g id="Grupo_99454" data-name="Grupo 99454" transform="translate(62.149 430.384)">
      <g id="Grupo_99452" data-name="Grupo 99452" transform="translate(41.489 57.618)">
        <rect id="Rectángulo_43022" data-name="Rectángulo 43022" width="30.539" height="4.766" fill="#455b64"/>
        <rect id="Rectángulo_43023" data-name="Rectángulo 43023" width="30.539" height="3.144" fill="#382628"/>
      </g>
      <g id="Grupo_99453" data-name="Grupo 99453" transform="translate(0 8.888)">
        <path id="Trazado_213779" data-name="Trazado 213779" d="M64.791,424.186c3.611,5.076,10,8.71,17.2,7.354a17.173,17.173,0,0,0,3.1-.889,21.856,21.856,0,0,0,4.318-2.27l-3.879-5.752a13.9,13.9,0,0,1-2.292,1.3c-7.273,3.3-11.877-2.436-12.782-3.746-4.185-5.883-5.684-19.32-1.443-24.489.279-.381,1.5-.989,6.424.058.907.2,1.937.434,3.1.754a12.346,12.346,0,0,0,2.792.6l.124-3.453.338-3.447c-.317-.057-.814-.2-1.459-.383a44.473,44.473,0,0,0-6.944-1.44c-3.618-.375-7.412.058-9.74,2.916C56.754,399.743,59.547,416.811,64.791,424.186Z" transform="translate(-59.551 -388.27)" fill="#455b64"/>
        <path id="Trazado_213780" data-name="Trazado 213780" d="M81.34,416.559a13.913,13.913,0,0,1-2.292,1.3l1.853,6.721a21.85,21.85,0,0,0,4.318-2.27Z" transform="translate(-55.368 -382.2)" fill="#382628"/>
        <path id="Trazado_213781" data-name="Trazado 213781" d="M70.94,388.365l2.047,7.367c.907.2,1.937.434,3.1.754a12.351,12.351,0,0,0,2.792.6L79,393.635l.338-3.447c-.317-.057-.814-.2-1.459-.383A44.472,44.472,0,0,0,70.94,388.365Z" transform="translate(-57.107 -388.25)" fill="#382628"/>
      </g>
      <path id="Trazado_213782" data-name="Trazado 213782" d="M154.081,380.952s-3.664,31.122-9.993,44.232c-6.328,13.087-15.159,14.554-20.646,14.554H103.477c-5.487,0-14.318-1.467-20.648-14.554-6.328-13.11-9.992-44.232-9.992-44.232Z" transform="translate(-56.7 -380.952)" fill="#455b64"/>
      <path id="Trazado_213783" data-name="Trazado 213783" d="M147.694,401.111a1.957,1.957,0,1,1,1.958-1.958A1.96,1.96,0,0,1,147.694,401.111Zm0-3.556a1.6,1.6,0,1,0,1.6,1.6A1.6,1.6,0,0,0,147.694,397.555Zm-57.893-6.5a1.957,1.957,0,1,1,1.957-1.958A1.96,1.96,0,0,1,89.8,391.052Zm0-3.555a1.6,1.6,0,1,0,1.6,1.6A1.6,1.6,0,0,0,89.8,387.5Zm2.888,32.232a1.957,1.957,0,1,1,1.958-1.957A1.959,1.959,0,0,1,92.689,419.729Zm0-3.555a1.6,1.6,0,1,0,1.6,1.6A1.6,1.6,0,0,0,92.689,416.174ZM76.74,385.926A1.957,1.957,0,1,1,78.7,383.97,1.959,1.959,0,0,1,76.74,385.926Zm0-3.554a1.6,1.6,0,1,0,1.6,1.6A1.6,1.6,0,0,0,76.74,382.372Zm27.245,15.735a1.956,1.956,0,1,1,1.957-1.955A1.959,1.959,0,0,1,103.985,398.107Zm0-3.554a1.6,1.6,0,1,0,1.6,1.6A1.6,1.6,0,0,0,103.985,394.553Zm21.265,24.358a1.957,1.957,0,1,1,1.958-1.955A1.958,1.958,0,0,1,125.249,418.911Zm0-3.555a1.6,1.6,0,1,0,1.6,1.6A1.6,1.6,0,0,0,125.249,415.356Zm-13-29.43a1.957,1.957,0,1,1,1.958-1.957A1.959,1.959,0,0,1,112.25,385.926Zm0-3.554a1.6,1.6,0,1,0,1.6,1.6A1.6,1.6,0,0,0,112.25,382.372Zm-2.424,28.7a1.957,1.957,0,1,1,1.957-1.958A1.96,1.96,0,0,1,109.826,411.076Zm0-3.555a1.6,1.6,0,1,0,1.6,1.6A1.6,1.6,0,0,0,109.826,407.521Zm-19.392,26.96a1.957,1.957,0,1,1,1.957-1.958A1.96,1.96,0,0,1,90.434,434.481Zm0-3.555a1.6,1.6,0,1,0,1.6,1.6A1.6,1.6,0,0,0,90.434,430.926Zm47.56-42.066a1.957,1.957,0,1,1,1.958-1.957A1.959,1.959,0,0,1,137.994,388.859Zm0-3.555a1.6,1.6,0,1,0,1.6,1.6A1.6,1.6,0,0,0,137.994,385.3ZM83.421,405.743a1.957,1.957,0,1,1,1.957-1.957A1.96,1.96,0,0,1,83.421,405.743Zm0-3.554a1.6,1.6,0,1,0,1.6,1.6A1.6,1.6,0,0,0,83.421,402.189Zm40.051-2.3a1.957,1.957,0,1,1,1.957-1.958A1.96,1.96,0,0,1,123.472,399.886Zm0-3.556a1.6,1.6,0,1,0,1.6,1.6A1.6,1.6,0,0,0,123.472,396.33Zm-13.647,35.2a1.957,1.957,0,1,1,1.957-1.957A1.959,1.959,0,0,1,109.826,431.533Zm0-3.556a1.6,1.6,0,1,0,1.6,1.6A1.6,1.6,0,0,0,109.826,427.977ZM126.286,438.6a1.957,1.957,0,1,1,1.957-1.957A1.96,1.96,0,0,1,126.286,438.6Zm0-3.555a1.6,1.6,0,1,0,1.6,1.6A1.6,1.6,0,0,0,126.286,435.043ZM137.994,409.3a1.957,1.957,0,1,1,1.958-1.957A1.959,1.959,0,0,1,137.994,409.3Zm0-3.555a1.6,1.6,0,1,0,1.6,1.6A1.6,1.6,0,0,0,137.994,405.743Zm1.778,21.2a1.957,1.957,0,1,1,1.957-1.957A1.96,1.96,0,0,1,139.772,426.942Zm0-3.555a1.6,1.6,0,1,0,1.6,1.6A1.6,1.6,0,0,0,139.772,423.387Z" transform="translate(-56.283 -380.724)" fill="#fff"/>
    </g>
  </g>
</svg>
