<?xml version="1.0" encoding="utf-8"?>
<!-- Generator: Adobe Illustrator 25.4.2, SVG Export Plug-In . SVG Version: 6.00 Build 0)  -->
<svg version="1.1" id="Capa_1" xmlns="http://www.w3.org/2000/svg" xmlns:xlink="http://www.w3.org/1999/xlink" x="0px" y="0px"
	 viewBox="0 0 610 439" style="enable-background:new 0 0 610 439;" xml:space="preserve">
<style type="text/css">
	.st0{opacity:0.25;fill:#039BE5;enable-background:new    ;}
	.st1{fill:#1565C0;}
	.st2{enable-background:new    ;}
	.st3{fill:#FFFFFF;}
	.st4{fill:#4DD0E1;}
	.st5{fill:#12263F;}
	.st6{clip-path:url(#SVGID_00000126302854346130091780000016159390267476178822_);}
	.st7{clip-path:url(#SVGID_00000064340190047424666160000005767932908610764933_);}
	.st8{fill:#455A64;}
	.st9{fill:#FFA726;}
	.st10{fill:#E0E0E0;}
	.st11{fill:#FFCA28;}
	.st12{fill:url(#Unión_33_00000039818477341869735760000005249229703566008980_);}
	.st13{fill:#FFD24A;}
	.st14{opacity:0.32;fill:#4DD0E1;enable-background:new    ;}
</style>
<g id="Grupo_106852" transform="translate(-725 -11160)">
	<rect id="Rectángulo_43040" x="725" y="11173" class="st0" width="190" height="426"/>
	<rect id="Rectángulo_43044" x="935" y="11173" class="st0" width="190" height="426"/>
	<rect id="Rectángulo_43048" x="1145" y="11170" class="st0" width="190" height="426"/>
	<rect id="Rectángulo_43041" x="725" y="11160" class="st1" width="190" height="48"/>
	<rect id="Rectángulo_43045" x="935" y="11160" class="st1" width="190" height="48"/>
	<rect id="Rectángulo_43049" x="1145" y="11160" class="st1" width="190" height="48"/>
	<g class="st2">
		<path class="st3" d="M766.1,11186.6c0,1.1-0.2,2.1-0.6,2.9c-0.4,0.8-1,1.5-1.7,2c-0.7,0.5-1.6,0.7-2.5,0.7c-0.9,0-1.8-0.2-2.5-0.7
			c-0.7-0.5-1.3-1.1-1.7-1.9s-0.6-1.8-0.6-2.9v-0.6c0-1.1,0.2-2.1,0.6-3c0.4-0.9,1-1.5,1.7-2c0.7-0.5,1.6-0.7,2.5-0.7
			c0.9,0,1.8,0.2,2.5,0.7c0.7,0.5,1.3,1.1,1.7,2c0.4,0.9,0.6,1.8,0.6,2.9V11186.6z M763.8,11186.1c0-1.2-0.2-2.1-0.6-2.7
			c-0.4-0.6-1-0.9-1.8-0.9c-0.8,0-1.4,0.3-1.8,0.9c-0.4,0.6-0.6,1.5-0.6,2.7v0.6c0,1.2,0.2,2.1,0.6,2.7c0.4,0.6,1,1,1.8,1
			c0.8,0,1.4-0.3,1.8-0.9s0.6-1.5,0.6-2.7V11186.1z"/>
		<path class="st3" d="M772.4,11185.7c-0.3,0-0.6-0.1-0.8-0.1c-0.9,0-1.4,0.3-1.7,0.9v5.5h-2.3v-8.5h2.1l0.1,1
			c0.5-0.8,1.1-1.2,1.9-1.2c0.2,0,0.5,0,0.7,0.1L772.4,11185.7z"/>
		<path class="st3" d="M773.2,11187.7c0-1.3,0.3-2.4,0.9-3.1c0.6-0.8,1.4-1.2,2.4-1.2c0.8,0,1.5,0.3,2,0.9v-4.3h2.3v12h-2l-0.1-0.9
			c-0.6,0.7-1.3,1.1-2.2,1.1c-1,0-1.8-0.4-2.4-1.2S773.2,11189.1,773.2,11187.7z M775.4,11187.9c0,0.8,0.1,1.4,0.4,1.8
			c0.3,0.4,0.7,0.6,1.2,0.6c0.7,0,1.2-0.3,1.5-0.9v-3.3c-0.3-0.6-0.8-0.9-1.5-0.9C776,11185.2,775.4,11186.1,775.4,11187.9z"/>
		<path class="st3" d="M786.4,11192.2c-1.2,0-2.2-0.4-3-1.1c-0.8-0.8-1.2-1.8-1.2-3v-0.2c0-0.8,0.2-1.6,0.5-2.3s0.8-1.2,1.4-1.5
			s1.3-0.5,2.1-0.5c1.2,0,2.1,0.4,2.7,1.1s1,1.8,1,3.1v0.9h-5.4c0.1,0.6,0.3,1,0.7,1.3s0.8,0.5,1.4,0.5c0.9,0,1.5-0.3,2-0.9l1.1,1.2
			c-0.3,0.5-0.8,0.9-1.4,1.1S787.1,11192.2,786.4,11192.2z M786.2,11185.2c-0.4,0-0.8,0.2-1.1,0.5c-0.3,0.3-0.5,0.7-0.5,1.3h3.1
			v-0.2c0-0.5-0.1-0.9-0.4-1.2C787,11185.3,786.6,11185.2,786.2,11185.2z"/>
		<path class="st3" d="M793.3,11183.5l0.1,1c0.6-0.8,1.4-1.1,2.4-1.1c0.9,0,1.6,0.3,2,0.8s0.7,1.3,0.7,2.4v5.5h-2.3v-5.4
			c0-0.5-0.1-0.8-0.3-1c-0.2-0.2-0.6-0.3-1-0.3c-0.6,0-1.1,0.3-1.4,0.8v6h-2.3v-8.5H793.3z"/>
		<path class="st3" d="M805,11192c-0.1-0.2-0.2-0.5-0.2-0.8c-0.5,0.6-1.3,0.9-2.1,0.9c-0.8,0-1.5-0.2-2.1-0.7
			c-0.5-0.5-0.8-1.1-0.8-1.8c0-0.9,0.3-1.6,1-2.1s1.6-0.7,2.9-0.7h1v-0.5c0-0.4-0.1-0.7-0.3-0.9c-0.2-0.2-0.5-0.4-0.9-0.4
			c-0.4,0-0.7,0.1-0.9,0.3c-0.2,0.2-0.3,0.4-0.3,0.8H800c0-0.5,0.2-0.9,0.5-1.4c0.3-0.4,0.7-0.7,1.3-1c0.6-0.2,1.2-0.4,1.9-0.4
			c1,0,1.9,0.3,2.5,0.8c0.6,0.5,0.9,1.3,0.9,2.2v3.7c0,0.8,0.1,1.4,0.3,1.8v0.1H805z M803.2,11190.4c0.3,0,0.6-0.1,0.9-0.2
			s0.5-0.3,0.6-0.6v-1.5h-0.8c-1.1,0-1.7,0.4-1.8,1.2l0,0.1c0,0.3,0.1,0.5,0.3,0.7C802.6,11190.3,802.8,11190.4,803.2,11190.4z"/>
		<path class="st3" d="M808.4,11187.7c0-1.3,0.3-2.4,0.9-3.1c0.6-0.8,1.4-1.2,2.4-1.2c0.8,0,1.5,0.3,2,0.9v-4.3h2.3v12h-2l-0.1-0.9
			c-0.6,0.7-1.3,1.1-2.2,1.1c-1,0-1.8-0.4-2.4-1.2S808.4,11189.1,808.4,11187.7z M810.6,11187.9c0,0.8,0.1,1.4,0.4,1.8
			c0.3,0.4,0.7,0.6,1.2,0.6c0.7,0,1.2-0.3,1.5-0.9v-3.3c-0.3-0.6-0.8-0.9-1.5-0.9C811.2,11185.2,810.6,11186.1,810.6,11187.9z"/>
		<path class="st3" d="M817.4,11187.7c0-0.8,0.2-1.6,0.5-2.2c0.3-0.7,0.8-1.2,1.4-1.5c0.6-0.4,1.3-0.5,2.1-0.5c1.1,0,2.1,0.3,2.8,1
			c0.7,0.7,1.1,1.6,1.2,2.8l0,0.6c0,1.3-0.4,2.3-1.1,3.1c-0.7,0.8-1.7,1.2-2.9,1.2s-2.2-0.4-2.9-1.2s-1.1-1.8-1.1-3.2V11187.7z
			 M819.6,11187.9c0,0.8,0.2,1.4,0.5,1.8c0.3,0.4,0.7,0.6,1.3,0.6c0.5,0,1-0.2,1.3-0.6c0.3-0.4,0.5-1.1,0.5-2c0-0.8-0.2-1.4-0.5-1.8
			c-0.3-0.4-0.7-0.6-1.3-0.6c-0.6,0-1,0.2-1.3,0.6C819.8,11186.3,819.6,11187,819.6,11187.9z"/>
		<path class="st3" d="M831.5,11185.7c-0.3,0-0.6-0.1-0.8-0.1c-0.9,0-1.4,0.3-1.7,0.9v5.5h-2.3v-8.5h2.1l0.1,1
			c0.5-0.8,1.1-1.2,1.9-1.2c0.2,0,0.5,0,0.7,0.1L831.5,11185.7z"/>
		<path class="st3" d="M840.1,11190.3c0.4,0,0.8-0.1,1-0.3c0.3-0.2,0.4-0.5,0.4-0.9h2.1c0,0.6-0.2,1.1-0.5,1.6
			c-0.3,0.5-0.7,0.8-1.3,1.1c-0.5,0.3-1.1,0.4-1.8,0.4c-1.2,0-2.2-0.4-2.9-1.2c-0.7-0.8-1-1.8-1-3.2v-0.1c0-1.3,0.3-2.3,1-3.1
			c0.7-0.8,1.6-1.2,2.9-1.2c1.1,0,1.9,0.3,2.5,0.9c0.6,0.6,1,1.4,1,2.4h-2.1c0-0.4-0.1-0.8-0.4-1.1c-0.3-0.3-0.6-0.4-1-0.4
			c-0.5,0-0.9,0.2-1.2,0.6c-0.3,0.4-0.4,1-0.4,1.9v0.2c0,0.9,0.1,1.5,0.4,1.9S839.6,11190.3,840.1,11190.3z"/>
		<path class="st3" d="M847.3,11192h-2.3v-12h2.3V11192z"/>
		<path class="st3" d="M849.2,11181.4c0-0.3,0.1-0.6,0.3-0.8s0.5-0.3,0.9-0.3c0.4,0,0.7,0.1,0.9,0.3c0.2,0.2,0.3,0.5,0.3,0.8
			c0,0.3-0.1,0.6-0.3,0.8c-0.2,0.2-0.5,0.3-0.9,0.3c-0.4,0-0.7-0.1-0.9-0.3C849.3,11182,849.2,11181.7,849.2,11181.4z M851.6,11192
			h-2.3v-8.5h2.3V11192z"/>
		<path class="st3" d="M857.3,11192.2c-1.2,0-2.2-0.4-3-1.1c-0.8-0.8-1.2-1.8-1.2-3v-0.2c0-0.8,0.2-1.6,0.5-2.3s0.8-1.2,1.4-1.5
			s1.3-0.5,2.1-0.5c1.2,0,2.1,0.4,2.7,1.1s1,1.8,1,3.1v0.9h-5.4c0.1,0.6,0.3,1,0.7,1.3s0.8,0.5,1.4,0.5c0.9,0,1.5-0.3,2-0.9l1.1,1.2
			c-0.3,0.5-0.8,0.9-1.4,1.1S858,11192.2,857.3,11192.2z M857.1,11185.2c-0.4,0-0.8,0.2-1.1,0.5c-0.3,0.3-0.5,0.7-0.5,1.3h3.1v-0.2
			c0-0.5-0.1-0.9-0.4-1.2C857.9,11185.3,857.5,11185.2,857.1,11185.2z"/>
		<path class="st3" d="M864.2,11183.5l0.1,1c0.6-0.8,1.4-1.1,2.4-1.1c0.9,0,1.6,0.3,2,0.8s0.7,1.3,0.7,2.4v5.5h-2.3v-5.4
			c0-0.5-0.1-0.8-0.3-1c-0.2-0.2-0.6-0.3-1-0.3c-0.6,0-1.1,0.3-1.4,0.8v6H862v-8.5H864.2z"/>
		<path class="st3" d="M873.7,11181.5v2.1h1.4v1.7h-1.4v4.2c0,0.3,0.1,0.5,0.2,0.7c0.1,0.1,0.3,0.2,0.7,0.2c0.2,0,0.5,0,0.7-0.1v1.7
			c-0.4,0.1-0.9,0.2-1.4,0.2c-1.6,0-2.4-0.8-2.4-2.4v-4.6h-1.2v-1.7h1.2v-2.1H873.7z"/>
		<path class="st3" d="M880.3,11192.2c-1.2,0-2.2-0.4-3-1.1c-0.8-0.8-1.2-1.8-1.2-3v-0.2c0-0.8,0.2-1.6,0.5-2.3s0.8-1.2,1.4-1.5
			s1.3-0.5,2.1-0.5c1.2,0,2.1,0.4,2.7,1.1s1,1.8,1,3.1v0.9h-5.4c0.1,0.6,0.3,1,0.7,1.3s0.8,0.5,1.4,0.5c0.9,0,1.5-0.3,2-0.9l1.1,1.2
			c-0.3,0.5-0.8,0.9-1.4,1.1S881,11192.2,880.3,11192.2z M880.1,11185.2c-0.4,0-0.8,0.2-1.1,0.5c-0.3,0.3-0.5,0.7-0.5,1.3h3.1v-0.2
			c0-0.5-0.1-0.9-0.4-1.2C880.9,11185.3,880.6,11185.2,880.1,11185.2z"/>
	</g>
	<g class="st2">
		<path class="st3" d="M995.7,11178c0-0.4-0.2-0.8-0.5-1s-0.9-0.5-1.7-0.8s-1.5-0.5-1.9-0.8c-1.3-0.7-1.9-1.6-1.9-2.8
			c0-0.6,0.2-1.2,0.5-1.6c0.3-0.5,0.8-0.9,1.5-1.1s1.4-0.4,2.2-0.4c0.8,0,1.5,0.1,2.2,0.4c0.6,0.3,1.1,0.7,1.5,1.2s0.5,1.1,0.5,1.8
			h-2.3c0-0.5-0.2-0.9-0.5-1.2s-0.8-0.4-1.4-0.4c-0.6,0-1,0.1-1.3,0.4c-0.3,0.2-0.5,0.6-0.5,1c0,0.4,0.2,0.7,0.6,0.9
			c0.4,0.2,0.9,0.5,1.6,0.7c1.3,0.4,2.3,0.9,2.9,1.5s0.9,1.3,0.9,2.2c0,1-0.4,1.8-1.1,2.3c-0.7,0.6-1.7,0.8-3,0.8
			c-0.9,0-1.7-0.2-2.4-0.5s-1.3-0.8-1.6-1.3c-0.4-0.6-0.6-1.2-0.6-1.9h2.4c0,1.3,0.8,1.9,2.2,1.9c0.6,0,1-0.1,1.3-0.3
			S995.7,11178.4,995.7,11178z"/>
		<path class="st3" d="M1003.4,11181.2c-1.2,0-2.2-0.4-3-1.1c-0.8-0.8-1.2-1.8-1.2-3v-0.2c0-0.8,0.2-1.6,0.5-2.3s0.8-1.2,1.4-1.5
			s1.3-0.5,2.1-0.5c1.2,0,2.1,0.4,2.7,1.1s1,1.8,1,3.1v0.9h-5.4c0.1,0.6,0.3,1,0.7,1.3s0.8,0.5,1.4,0.5c0.9,0,1.5-0.3,2-0.9l1.1,1.2
			c-0.3,0.5-0.8,0.9-1.4,1.1S1004.1,11181.2,1003.4,11181.2z M1003.2,11174.2c-0.4,0-0.8,0.2-1.1,0.5c-0.3,0.3-0.5,0.7-0.5,1.3h3.1
			v-0.2c0-0.5-0.1-0.9-0.4-1.2C1004,11174.3,1003.6,11174.2,1003.2,11174.2z"/>
		<path class="st3" d="M1012.9,11174.7c-0.3,0-0.6-0.1-0.8-0.1c-0.9,0-1.4,0.3-1.7,0.9v5.5h-2.3v-8.5h2.1l0.1,1
			c0.5-0.8,1.1-1.2,1.9-1.2c0.2,0,0.5,0,0.7,0.1L1012.9,11174.7z"/>
		<path class="st3" d="M1017.3,11178.2l1.6-5.7h2.4l-2.9,8.5h-2.2l-2.9-8.5h2.4L1017.3,11178.2z"/>
		<path class="st3" d="M1022.2,11170.4c0-0.3,0.1-0.6,0.3-0.8s0.5-0.3,0.9-0.3c0.4,0,0.7,0.1,0.9,0.3c0.2,0.2,0.3,0.5,0.3,0.8
			c0,0.3-0.1,0.6-0.3,0.8c-0.2,0.2-0.5,0.3-0.9,0.3c-0.4,0-0.7-0.1-0.9-0.3C1022.3,11171,1022.2,11170.7,1022.2,11170.4z
			 M1024.6,11181h-2.3v-8.5h2.3V11181z"/>
		<path class="st3" d="M1026.1,11176.7c0-1.3,0.3-2.4,0.9-3.1c0.6-0.8,1.4-1.2,2.4-1.2c0.8,0,1.5,0.3,2,0.9v-4.3h2.3v12h-2l-0.1-0.9
			c-0.6,0.7-1.3,1.1-2.2,1.1c-1,0-1.8-0.4-2.4-1.2S1026.1,11178.1,1026.1,11176.7z M1028.4,11176.9c0,0.8,0.1,1.4,0.4,1.8
			c0.3,0.4,0.7,0.6,1.2,0.6c0.7,0,1.2-0.3,1.5-0.9v-3.3c-0.3-0.6-0.8-0.9-1.5-0.9C1028.9,11174.2,1028.4,11175.1,1028.4,11176.9z"/>
		<path class="st3" d="M1035.2,11176.7c0-0.8,0.2-1.6,0.5-2.2c0.3-0.7,0.8-1.2,1.4-1.5c0.6-0.4,1.3-0.5,2.1-0.5c1.1,0,2.1,0.3,2.8,1
			c0.7,0.7,1.1,1.6,1.2,2.8l0,0.6c0,1.3-0.4,2.3-1.1,3.1c-0.7,0.8-1.7,1.2-2.9,1.2s-2.2-0.4-2.9-1.2s-1.1-1.8-1.1-3.2V11176.7z
			 M1037.4,11176.9c0,0.8,0.2,1.4,0.5,1.8c0.3,0.4,0.7,0.6,1.3,0.6c0.5,0,1-0.2,1.3-0.6c0.3-0.4,0.5-1.1,0.5-2
			c0-0.8-0.2-1.4-0.5-1.8c-0.3-0.4-0.7-0.6-1.3-0.6c-0.6,0-1,0.2-1.3,0.6C1037.6,11175.3,1037.4,11176,1037.4,11176.9z"/>
		<path class="st3" d="M1049.3,11174.7c-0.3,0-0.6-0.1-0.8-0.1c-0.9,0-1.4,0.3-1.7,0.9v5.5h-2.3v-8.5h2.1l0.1,1
			c0.5-0.8,1.1-1.2,1.9-1.2c0.2,0,0.5,0,0.7,0.1L1049.3,11174.7z"/>
		<path class="st3" d="M1054,11176.7c0-1.3,0.3-2.4,0.9-3.1c0.6-0.8,1.4-1.2,2.4-1.2c0.8,0,1.5,0.3,2,0.9v-4.3h2.3v12h-2l-0.1-0.9
			c-0.6,0.7-1.3,1.1-2.2,1.1c-1,0-1.8-0.4-2.4-1.2S1054,11178.1,1054,11176.7z M1056.3,11176.9c0,0.8,0.1,1.4,0.4,1.8
			c0.3,0.4,0.7,0.6,1.2,0.6c0.7,0,1.2-0.3,1.5-0.9v-3.3c-0.3-0.6-0.8-0.9-1.5-0.9C1056.8,11174.2,1056.3,11175.1,1056.3,11176.9z"/>
		<path class="st3" d="M1067.3,11181.2c-1.2,0-2.2-0.4-3-1.1c-0.8-0.8-1.2-1.8-1.2-3v-0.2c0-0.8,0.2-1.6,0.5-2.3s0.8-1.2,1.4-1.5
			s1.3-0.5,2.1-0.5c1.2,0,2.1,0.4,2.7,1.1s1,1.8,1,3.1v0.9h-5.4c0.1,0.6,0.3,1,0.7,1.3s0.8,0.5,1.4,0.5c0.9,0,1.5-0.3,2-0.9l1.1,1.2
			c-0.3,0.5-0.8,0.9-1.4,1.1S1068,11181.2,1067.3,11181.2z M1067,11174.2c-0.4,0-0.8,0.2-1.1,0.5c-0.3,0.3-0.5,0.7-0.5,1.3h3.1v-0.2
			c0-0.5-0.1-0.9-0.4-1.2C1067.9,11174.3,1067.5,11174.2,1067,11174.2z"/>
	</g>
	<g class="st2">
		<path class="st3" d="M975.1,11201c-0.1-0.2-0.2-0.5-0.2-0.8c-0.5,0.6-1.3,0.9-2.1,0.9c-0.8,0-1.5-0.2-2.1-0.7
			c-0.5-0.5-0.8-1.1-0.8-1.8c0-0.9,0.3-1.6,1-2.1s1.6-0.7,2.9-0.7h1v-0.5c0-0.4-0.1-0.7-0.3-0.9c-0.2-0.2-0.5-0.4-0.9-0.4
			c-0.4,0-0.7,0.1-0.9,0.3c-0.2,0.2-0.3,0.4-0.3,0.8H970c0-0.5,0.2-0.9,0.5-1.4c0.3-0.4,0.7-0.7,1.3-1c0.6-0.2,1.2-0.4,1.9-0.4
			c1,0,1.9,0.3,2.5,0.8c0.6,0.5,0.9,1.3,0.9,2.2v3.7c0,0.8,0.1,1.4,0.3,1.8v0.1H975.1z M973.2,11199.4c0.3,0,0.6-0.1,0.9-0.2
			s0.5-0.3,0.6-0.6v-1.5h-0.8c-1.1,0-1.7,0.4-1.8,1.2l0,0.1c0,0.3,0.1,0.5,0.3,0.7C972.6,11199.3,972.9,11199.4,973.2,11199.4z"/>
		<path class="st3" d="M986.4,11196.9c0,1.3-0.3,2.3-0.9,3.1c-0.6,0.8-1.4,1.2-2.4,1.2c-0.9,0-1.5-0.3-2.1-0.9v4h-2.3v-11.7h2.1
			l0.1,0.8c0.5-0.7,1.3-1,2.1-1c1,0,1.9,0.4,2.4,1.2s0.9,1.8,0.9,3.2V11196.9z M984.1,11196.7c0-0.8-0.1-1.4-0.4-1.8
			c-0.3-0.4-0.7-0.6-1.2-0.6c-0.7,0-1.2,0.3-1.5,0.8v3.5c0.3,0.6,0.8,0.8,1.5,0.8C983.6,11199.3,984.1,11198.5,984.1,11196.7z"/>
		<path class="st3" d="M990.1,11201h-2.3v-12h2.3V11201z"/>
		<path class="st3" d="M992,11190.4c0-0.3,0.1-0.6,0.3-0.8s0.5-0.3,0.9-0.3c0.4,0,0.7,0.1,0.9,0.3c0.2,0.2,0.3,0.5,0.3,0.8
			c0,0.3-0.1,0.6-0.3,0.8c-0.2,0.2-0.5,0.3-0.9,0.3c-0.4,0-0.7-0.1-0.9-0.3C992.1,11191,992,11190.7,992,11190.4z M994.4,11201h-2.3
			v-8.5h2.3V11201z"/>
		<path class="st3" d="M999.8,11199.3c0.4,0,0.8-0.1,1-0.3c0.3-0.2,0.4-0.5,0.4-0.9h2.1c0,0.6-0.2,1.1-0.5,1.6
			c-0.3,0.5-0.7,0.8-1.3,1.1c-0.5,0.3-1.1,0.4-1.8,0.4c-1.2,0-2.2-0.4-2.9-1.2c-0.7-0.8-1-1.8-1-3.2v-0.1c0-1.3,0.3-2.3,1-3.1
			c0.7-0.8,1.6-1.2,2.9-1.2c1.1,0,1.9,0.3,2.5,0.9c0.6,0.6,1,1.4,1,2.4h-2.1c0-0.4-0.1-0.8-0.4-1.1c-0.3-0.3-0.6-0.4-1-0.4
			c-0.5,0-0.9,0.2-1.2,0.6c-0.3,0.4-0.4,1-0.4,1.9v0.2c0,0.9,0.1,1.5,0.4,1.9S999.2,11199.3,999.8,11199.3z"/>
		<path class="st3" d="M1009.5,11201c-0.1-0.2-0.2-0.5-0.2-0.8c-0.5,0.6-1.3,0.9-2.1,0.9c-0.8,0-1.5-0.2-2.1-0.7
			c-0.5-0.5-0.8-1.1-0.8-1.8c0-0.9,0.3-1.6,1-2.1s1.6-0.7,2.9-0.7h1v-0.5c0-0.4-0.1-0.7-0.3-0.9c-0.2-0.2-0.5-0.4-0.9-0.4
			c-0.4,0-0.7,0.1-0.9,0.3c-0.2,0.2-0.3,0.4-0.3,0.8h-2.3c0-0.5,0.2-0.9,0.5-1.4c0.3-0.4,0.7-0.7,1.3-1c0.6-0.2,1.2-0.4,1.9-0.4
			c1,0,1.9,0.3,2.5,0.8c0.6,0.5,0.9,1.3,0.9,2.2v3.7c0,0.8,0.1,1.4,0.3,1.8v0.1H1009.5z M1007.6,11199.4c0.3,0,0.6-0.1,0.9-0.2
			s0.5-0.3,0.6-0.6v-1.5h-0.8c-1.1,0-1.7,0.4-1.8,1.2l0,0.1c0,0.3,0.1,0.5,0.3,0.7C1007,11199.3,1007.3,11199.4,1007.6,11199.4z"/>
		<path class="st3" d="M1016.7,11199.3c0.4,0,0.8-0.1,1-0.3c0.3-0.2,0.4-0.5,0.4-0.9h2.1c0,0.6-0.2,1.1-0.5,1.6
			c-0.3,0.5-0.7,0.8-1.3,1.1c-0.5,0.3-1.1,0.4-1.8,0.4c-1.2,0-2.2-0.4-2.9-1.2c-0.7-0.8-1-1.8-1-3.2v-0.1c0-1.3,0.3-2.3,1-3.1
			c0.7-0.8,1.6-1.2,2.9-1.2c1.1,0,1.9,0.3,2.5,0.9c0.6,0.6,1,1.4,1,2.4h-2.1c0-0.4-0.1-0.8-0.4-1.1c-0.3-0.3-0.6-0.4-1-0.4
			c-0.5,0-0.9,0.2-1.2,0.6c-0.3,0.4-0.4,1-0.4,1.9v0.2c0,0.9,0.1,1.5,0.4,1.9S1016.1,11199.3,1016.7,11199.3z"/>
		<path class="st3" d="M1021.5,11190.4c0-0.3,0.1-0.6,0.3-0.8s0.5-0.3,0.9-0.3c0.4,0,0.7,0.1,0.9,0.3c0.2,0.2,0.3,0.5,0.3,0.8
			c0,0.3-0.1,0.6-0.3,0.8c-0.2,0.2-0.5,0.3-0.9,0.3c-0.4,0-0.7-0.1-0.9-0.3C1021.6,11191,1021.5,11190.7,1021.5,11190.4z
			 M1023.9,11201h-2.3v-8.5h2.3V11201z"/>
		<path class="st3" d="M1025.4,11196.7c0-0.8,0.2-1.6,0.5-2.2c0.3-0.7,0.8-1.2,1.4-1.5c0.6-0.4,1.3-0.5,2.1-0.5c1.1,0,2.1,0.3,2.8,1
			c0.7,0.7,1.1,1.6,1.2,2.8l0,0.6c0,1.3-0.4,2.3-1.1,3.1c-0.7,0.8-1.7,1.2-2.9,1.2s-2.2-0.4-2.9-1.2s-1.1-1.8-1.1-3.2V11196.7z
			 M1027.7,11196.9c0,0.8,0.2,1.4,0.5,1.8c0.3,0.4,0.7,0.6,1.3,0.6c0.5,0,1-0.2,1.3-0.6c0.3-0.4,0.5-1.1,0.5-2
			c0-0.8-0.2-1.4-0.5-1.8c-0.3-0.4-0.7-0.6-1.3-0.6c-0.6,0-1,0.2-1.3,0.6C1027.8,11195.3,1027.7,11196,1027.7,11196.9z"/>
		<path class="st3" d="M1036.9,11192.5l0.1,1c0.6-0.8,1.4-1.1,2.4-1.1c0.9,0,1.6,0.3,2,0.8s0.7,1.3,0.7,2.4v5.5h-2.3v-5.4
			c0-0.5-0.1-0.8-0.3-1c-0.2-0.2-0.6-0.3-1-0.3c-0.6,0-1.1,0.3-1.4,0.8v6h-2.3v-8.5H1036.9z"/>
		<path class="st3" d="M1047.7,11201.2c-1.2,0-2.2-0.4-3-1.1c-0.8-0.8-1.2-1.8-1.2-3v-0.2c0-0.8,0.2-1.6,0.5-2.3s0.8-1.2,1.4-1.5
			s1.3-0.5,2.1-0.5c1.2,0,2.1,0.4,2.7,1.1s1,1.8,1,3.1v0.9h-5.4c0.1,0.6,0.3,1,0.7,1.3s0.8,0.5,1.4,0.5c0.9,0,1.5-0.3,2-0.9l1.1,1.2
			c-0.3,0.5-0.8,0.9-1.4,1.1S1048.4,11201.2,1047.7,11201.2z M1047.4,11194.2c-0.4,0-0.8,0.2-1.1,0.5c-0.3,0.3-0.5,0.7-0.5,1.3h3.1
			v-0.2c0-0.5-0.1-0.9-0.4-1.2C1048.2,11194.3,1047.9,11194.2,1047.4,11194.2z"/>
		<path class="st3" d="M1057,11198.7c0-0.3-0.1-0.5-0.4-0.7s-0.7-0.3-1.3-0.4c-2-0.4-3-1.3-3-2.6c0-0.8,0.3-1.4,0.9-1.9
			c0.6-0.5,1.4-0.8,2.4-0.8c1.1,0,1.9,0.3,2.6,0.8c0.6,0.5,1,1.2,1,2h-2.3c0-0.3-0.1-0.6-0.3-0.8c-0.2-0.2-0.5-0.3-1-0.3
			c-0.4,0-0.7,0.1-0.9,0.3c-0.2,0.2-0.3,0.4-0.3,0.7c0,0.2,0.1,0.5,0.4,0.6c0.2,0.2,0.6,0.3,1.2,0.4s1,0.2,1.4,0.4
			c1.2,0.4,1.8,1.2,1.8,2.3c0,0.8-0.3,1.4-1,1.9c-0.7,0.5-1.5,0.7-2.6,0.7c-0.7,0-1.3-0.1-1.9-0.4c-0.5-0.3-1-0.6-1.3-1
			s-0.5-0.9-0.5-1.4h2.1c0,0.4,0.2,0.7,0.4,0.9c0.3,0.2,0.6,0.3,1.1,0.3c0.4,0,0.8-0.1,1-0.2
			C1056.9,11199.1,1057,11198.9,1057,11198.7z"/>
		<path class="st3" d="M1069.4,11189.6h2.3v7.9c0,0.7-0.2,1.4-0.5,1.9s-0.8,1-1.4,1.3c-0.6,0.3-1.2,0.5-2,0.5
			c-1.2,0-2.1-0.3-2.8-0.9s-1-1.5-1-2.6h2.4c0,0.6,0.1,1,0.4,1.2s0.6,0.4,1.1,0.4c0.4,0,0.8-0.2,1.1-0.5s0.4-0.7,0.4-1.3V11189.6z"
			/>
		<path class="st3" d="M1080.6,11196.1h-4.5v3h5.3v1.9h-7.6v-11.4h7.6v1.9h-5.3v2.7h4.5V11196.1z"/>
		<path class="st3" d="M1089.6,11196.1h-4.5v3h5.3v1.9h-7.6v-11.4h7.6v1.9h-5.3v2.7h4.5V11196.1z"/>
	</g>
	<g class="st2">
		<path class="st3" d="M1173,11179.7c0-0.3-0.1-0.5-0.4-0.7s-0.7-0.3-1.3-0.4c-2-0.4-3-1.3-3-2.6c0-0.8,0.3-1.4,0.9-1.9
			s1.4-0.8,2.4-0.8c1.1,0,1.9,0.3,2.6,0.8s1,1.2,1,2h-2.3c0-0.3-0.1-0.6-0.3-0.8s-0.5-0.3-1-0.3c-0.4,0-0.7,0.1-0.9,0.3
			s-0.3,0.4-0.3,0.7c0,0.2,0.1,0.5,0.4,0.6s0.6,0.3,1.2,0.4s1,0.2,1.4,0.4c1.2,0.4,1.8,1.2,1.8,2.3c0,0.8-0.3,1.4-1,1.9
			s-1.5,0.7-2.6,0.7c-0.7,0-1.3-0.1-1.9-0.4s-1-0.6-1.3-1s-0.5-0.9-0.5-1.4h2.1c0,0.4,0.2,0.7,0.4,0.9s0.6,0.3,1.1,0.3
			c0.4,0,0.8-0.1,1-0.2S1173,11179.9,1173,11179.7z"/>
		<path class="st3" d="M1180.6,11182.2c-1.2,0-2.2-0.4-3-1.1s-1.2-1.8-1.2-3v-0.2c0-0.8,0.2-1.6,0.5-2.3s0.8-1.2,1.4-1.5
			s1.3-0.5,2.1-0.5c1.2,0,2.1,0.4,2.7,1.1s1,1.8,1,3.1v0.9h-5.4c0.1,0.6,0.3,1,0.7,1.3s0.8,0.5,1.4,0.5c0.9,0,1.5-0.3,2-0.9l1.1,1.2
			c-0.3,0.5-0.8,0.9-1.4,1.1S1181.3,11182.2,1180.6,11182.2z M1180.3,11175.2c-0.4,0-0.8,0.2-1.1,0.5s-0.5,0.7-0.5,1.3h3.1v-0.2
			c0-0.5-0.1-0.9-0.4-1.2S1180.8,11175.2,1180.3,11175.2z"/>
		<path class="st3" d="M1190.1,11175.7c-0.3,0-0.6-0.1-0.8-0.1c-0.9,0-1.4,0.3-1.7,0.9v5.5h-2.3v-8.5h2.1l0.1,1
			c0.5-0.8,1.1-1.2,1.9-1.2c0.2,0,0.5,0,0.7,0.1L1190.1,11175.7z"/>
		<path class="st3" d="M1194.5,11179.2l1.6-5.7h2.4l-2.9,8.5h-2.2l-2.9-8.5h2.4L1194.5,11179.2z"/>
		<path class="st3" d="M1199.4,11171.4c0-0.3,0.1-0.6,0.3-0.8s0.5-0.3,0.9-0.3c0.4,0,0.7,0.1,0.9,0.3s0.3,0.5,0.3,0.8
			c0,0.3-0.1,0.6-0.3,0.8s-0.5,0.3-0.9,0.3s-0.7-0.1-0.9-0.3S1199.4,11171.7,1199.4,11171.4z M1201.8,11182h-2.3v-8.5h2.3V11182z"/>
		<path class="st3" d="M1203.3,11177.7c0-1.3,0.3-2.4,0.9-3.1s1.4-1.2,2.4-1.2c0.8,0,1.5,0.3,2,0.9v-4.3h2.3v12h-2l-0.1-0.9
			c-0.6,0.7-1.3,1.1-2.2,1.1c-1,0-1.8-0.4-2.4-1.2S1203.3,11179.1,1203.3,11177.7z M1205.6,11177.9c0,0.8,0.1,1.4,0.4,1.8
			s0.7,0.6,1.2,0.6c0.7,0,1.2-0.3,1.5-0.9v-3.3c-0.3-0.6-0.8-0.9-1.5-0.9C1206.1,11175.2,1205.6,11176.1,1205.6,11177.9z"/>
		<path class="st3" d="M1212.3,11177.7c0-0.8,0.2-1.6,0.5-2.2s0.8-1.2,1.4-1.5s1.3-0.5,2.1-0.5c1.1,0,2.1,0.3,2.8,1s1.1,1.6,1.2,2.8
			l0,0.6c0,1.3-0.4,2.3-1.1,3.1s-1.7,1.2-2.9,1.2s-2.2-0.4-2.9-1.2s-1.1-1.8-1.1-3.2V11177.7z M1214.6,11177.9
			c0,0.8,0.2,1.4,0.5,1.8s0.7,0.6,1.3,0.6c0.5,0,1-0.2,1.3-0.6s0.5-1.1,0.5-2c0-0.8-0.2-1.4-0.5-1.8s-0.7-0.6-1.3-0.6
			c-0.6,0-1,0.2-1.3,0.6S1214.6,11177,1214.6,11177.9z"/>
		<path class="st3" d="M1226.5,11175.7c-0.3,0-0.6-0.1-0.8-0.1c-0.9,0-1.4,0.3-1.7,0.9v5.5h-2.3v-8.5h2.1l0.1,1
			c0.5-0.8,1.1-1.2,1.9-1.2c0.2,0,0.5,0,0.7,0.1L1226.5,11175.7z"/>
		<path class="st3" d="M1231.2,11177.7c0-1.3,0.3-2.4,0.9-3.1s1.4-1.2,2.4-1.2c0.8,0,1.5,0.3,2,0.9v-4.3h2.3v12h-2l-0.1-0.9
			c-0.6,0.7-1.3,1.1-2.2,1.1c-1,0-1.8-0.4-2.4-1.2S1231.2,11179.1,1231.2,11177.7z M1233.4,11177.9c0,0.8,0.1,1.4,0.4,1.8
			s0.7,0.6,1.2,0.6c0.7,0,1.2-0.3,1.5-0.9v-3.3c-0.3-0.6-0.8-0.9-1.5-0.9C1234,11175.2,1233.4,11176.1,1233.4,11177.9z"/>
		<path class="st3" d="M1244.4,11182.2c-1.2,0-2.2-0.4-3-1.1s-1.2-1.8-1.2-3v-0.2c0-0.8,0.2-1.6,0.5-2.3s0.8-1.2,1.4-1.5
			s1.3-0.5,2.1-0.5c1.2,0,2.1,0.4,2.7,1.1s1,1.8,1,3.1v0.9h-5.4c0.1,0.6,0.3,1,0.7,1.3s0.8,0.5,1.4,0.5c0.9,0,1.5-0.3,2-0.9l1.1,1.2
			c-0.3,0.5-0.8,0.9-1.4,1.1S1245.1,11182.2,1244.4,11182.2z M1244.2,11175.2c-0.4,0-0.8,0.2-1.1,0.5s-0.5,0.7-0.5,1.3h3.1v-0.2
			c0-0.5-0.1-0.9-0.4-1.2S1244.7,11175.2,1244.2,11175.2z"/>
		<path class="st3" d="M1260.8,11177.9c0,1.4-0.3,2.4-0.9,3.2s-1.4,1.1-2.4,1.1c-0.9,0-1.6-0.4-2.2-1.1l-0.1,0.9h-2v-12h2.3v4.3
			c0.5-0.6,1.2-0.9,2.1-0.9c1,0,1.8,0.4,2.4,1.1s0.9,1.8,0.9,3.2V11177.9z M1258.5,11177.7c0-0.9-0.1-1.5-0.4-1.9s-0.7-0.6-1.2-0.6
			c-0.7,0-1.2,0.3-1.5,0.9v3.3c0.3,0.6,0.8,0.9,1.5,0.9c0.7,0,1.2-0.4,1.4-1.1C1258.5,11178.9,1258.5,11178.4,1258.5,11177.7z"/>
		<path class="st3" d="M1267.1,11182c-0.1-0.2-0.2-0.5-0.2-0.8c-0.5,0.6-1.3,0.9-2.1,0.9c-0.8,0-1.5-0.2-2.1-0.7s-0.8-1.1-0.8-1.8
			c0-0.9,0.3-1.6,1-2.1s1.6-0.7,2.9-0.7h1v-0.5c0-0.4-0.1-0.7-0.3-0.9s-0.5-0.4-0.9-0.4c-0.4,0-0.7,0.1-0.9,0.3s-0.3,0.4-0.3,0.8
			h-2.3c0-0.5,0.2-0.9,0.5-1.4s0.7-0.7,1.3-1s1.2-0.4,1.9-0.4c1,0,1.9,0.3,2.5,0.8s0.9,1.3,0.9,2.2v3.7c0,0.8,0.1,1.4,0.3,1.8v0.1
			H1267.1z M1265.2,11180.4c0.3,0,0.6-0.1,0.9-0.2s0.5-0.3,0.6-0.6v-1.5h-0.8c-1.1,0-1.7,0.4-1.8,1.2l0,0.1c0,0.3,0.1,0.5,0.3,0.7
			S1264.9,11180.4,1265.2,11180.4z"/>
		<path class="st3" d="M1275.3,11179.7c0-0.3-0.1-0.5-0.4-0.7s-0.7-0.3-1.3-0.4c-2-0.4-3-1.3-3-2.6c0-0.8,0.3-1.4,0.9-1.9
			s1.4-0.8,2.4-0.8c1.1,0,1.9,0.3,2.6,0.8s1,1.2,1,2h-2.3c0-0.3-0.1-0.6-0.3-0.8s-0.5-0.3-1-0.3c-0.4,0-0.7,0.1-0.9,0.3
			s-0.3,0.4-0.3,0.7c0,0.2,0.1,0.5,0.4,0.6s0.6,0.3,1.2,0.4s1,0.2,1.4,0.4c1.2,0.4,1.8,1.2,1.8,2.3c0,0.8-0.3,1.4-1,1.9
			s-1.5,0.7-2.6,0.7c-0.7,0-1.3-0.1-1.9-0.4s-1-0.6-1.3-1s-0.5-0.9-0.5-1.4h2.1c0,0.4,0.2,0.7,0.4,0.9s0.6,0.3,1.1,0.3
			c0.4,0,0.8-0.1,1-0.2S1275.3,11179.9,1275.3,11179.7z"/>
		<path class="st3" d="M1282.9,11182.2c-1.2,0-2.2-0.4-3-1.1s-1.2-1.8-1.2-3v-0.2c0-0.8,0.2-1.6,0.5-2.3s0.8-1.2,1.4-1.5
			s1.3-0.5,2.1-0.5c1.2,0,2.1,0.4,2.7,1.1s1,1.8,1,3.1v0.9h-5.4c0.1,0.6,0.3,1,0.7,1.3s0.8,0.5,1.4,0.5c0.9,0,1.5-0.3,2-0.9l1.1,1.2
			c-0.3,0.5-0.8,0.9-1.4,1.1S1283.6,11182.2,1282.9,11182.2z M1282.6,11175.2c-0.4,0-0.8,0.2-1.1,0.5s-0.5,0.7-0.5,1.3h3.1v-0.2
			c0-0.5-0.1-0.9-0.4-1.2S1283.1,11175.2,1282.6,11175.2z"/>
		<path class="st3" d="M1291.3,11177.7c0-1.3,0.3-2.4,0.9-3.1s1.4-1.2,2.4-1.2c0.8,0,1.5,0.3,2,0.9v-4.3h2.3v12h-2l-0.1-0.9
			c-0.6,0.7-1.3,1.1-2.2,1.1c-1,0-1.8-0.4-2.4-1.2S1291.3,11179.1,1291.3,11177.7z M1293.5,11177.9c0,0.8,0.1,1.4,0.4,1.8
			s0.7,0.6,1.2,0.6c0.7,0,1.2-0.3,1.5-0.9v-3.3c-0.3-0.6-0.8-0.9-1.5-0.9C1294.1,11175.2,1293.5,11176.1,1293.5,11177.9z"/>
		<path class="st3" d="M1304.5,11182.2c-1.2,0-2.2-0.4-3-1.1s-1.2-1.8-1.2-3v-0.2c0-0.8,0.2-1.6,0.5-2.3s0.8-1.2,1.4-1.5
			s1.3-0.5,2.1-0.5c1.2,0,2.1,0.4,2.7,1.1s1,1.8,1,3.1v0.9h-5.4c0.1,0.6,0.3,1,0.7,1.3s0.8,0.5,1.4,0.5c0.9,0,1.5-0.3,2-0.9l1.1,1.2
			c-0.3,0.5-0.8,0.9-1.4,1.1S1305.2,11182.2,1304.5,11182.2z M1304.3,11175.2c-0.4,0-0.8,0.2-1.1,0.5s-0.5,0.7-0.5,1.3h3.1v-0.2
			c0-0.5-0.1-0.9-0.4-1.2S1304.7,11175.2,1304.3,11175.2z"/>
	</g>
	<g class="st2">
		<path class="st3" d="M1218.5,11197.7c0-1.3,0.3-2.4,0.9-3.1c0.6-0.8,1.4-1.2,2.4-1.2c0.8,0,1.5,0.3,2,0.9v-4.3h2.3v12h-2l-0.1-0.9
			c-0.6,0.7-1.3,1.1-2.2,1.1c-1,0-1.8-0.4-2.4-1.2S1218.5,11199.1,1218.5,11197.7z M1220.8,11197.9c0,0.8,0.1,1.4,0.4,1.8
			c0.3,0.4,0.7,0.6,1.2,0.6c0.7,0,1.2-0.3,1.5-0.9v-3.3c-0.3-0.6-0.8-0.9-1.5-0.9C1221.3,11195.2,1220.8,11196.1,1220.8,11197.9z"/>
		<path class="st3" d="M1232.8,11202c-0.1-0.2-0.2-0.5-0.2-0.8c-0.5,0.6-1.3,0.9-2.1,0.9c-0.8,0-1.5-0.2-2.1-0.7
			c-0.5-0.5-0.8-1.1-0.8-1.8c0-0.9,0.3-1.6,1-2.1s1.6-0.7,2.9-0.7h1v-0.5c0-0.4-0.1-0.7-0.3-0.9c-0.2-0.2-0.5-0.4-0.9-0.4
			c-0.4,0-0.7,0.1-0.9,0.3c-0.2,0.2-0.3,0.4-0.3,0.8h-2.3c0-0.5,0.2-0.9,0.5-1.4c0.3-0.4,0.7-0.7,1.3-1c0.6-0.2,1.2-0.4,1.9-0.4
			c1,0,1.9,0.3,2.5,0.8c0.6,0.5,0.9,1.3,0.9,2.2v3.7c0,0.8,0.1,1.4,0.3,1.8v0.1H1232.8z M1230.9,11200.4c0.3,0,0.6-0.1,0.9-0.2
			s0.5-0.3,0.6-0.6v-1.5h-0.8c-1.1,0-1.7,0.4-1.8,1.2l0,0.1c0,0.3,0.1,0.5,0.3,0.7C1230.3,11200.3,1230.6,11200.4,1230.9,11200.4z"
			/>
		<path class="st3" d="M1239.2,11191.5v2.1h1.4v1.7h-1.4v4.2c0,0.3,0.1,0.5,0.2,0.7c0.1,0.1,0.3,0.2,0.7,0.2c0.2,0,0.5,0,0.7-0.1
			v1.7c-0.4,0.1-0.9,0.2-1.4,0.2c-1.6,0-2.4-0.8-2.4-2.4v-4.6h-1.2v-1.7h1.2v-2.1H1239.2z"/>
		<path class="st3" d="M1241.3,11197.7c0-0.8,0.2-1.6,0.5-2.2c0.3-0.7,0.8-1.2,1.4-1.5c0.6-0.4,1.3-0.5,2.1-0.5c1.1,0,2.1,0.3,2.8,1
			c0.7,0.7,1.1,1.6,1.2,2.8l0,0.6c0,1.3-0.4,2.3-1.1,3.1c-0.7,0.8-1.7,1.2-2.9,1.2s-2.2-0.4-2.9-1.2s-1.1-1.8-1.1-3.2V11197.7z
			 M1243.5,11197.9c0,0.8,0.2,1.4,0.5,1.8c0.3,0.4,0.7,0.6,1.3,0.6c0.5,0,1-0.2,1.3-0.6c0.3-0.4,0.5-1.1,0.5-2
			c0-0.8-0.2-1.4-0.5-1.8c-0.3-0.4-0.7-0.6-1.3-0.6c-0.6,0-1,0.2-1.3,0.6C1243.7,11196.3,1243.5,11197,1243.5,11197.9z"/>
		<path class="st3" d="M1255.2,11199.7c0-0.3-0.1-0.5-0.4-0.7s-0.7-0.3-1.3-0.4c-2-0.4-3-1.3-3-2.6c0-0.8,0.3-1.4,0.9-1.9
			c0.6-0.5,1.4-0.8,2.4-0.8c1.1,0,1.9,0.3,2.6,0.8c0.6,0.5,1,1.2,1,2h-2.3c0-0.3-0.1-0.6-0.3-0.8c-0.2-0.2-0.5-0.3-1-0.3
			c-0.4,0-0.7,0.1-0.9,0.3c-0.2,0.2-0.3,0.4-0.3,0.7c0,0.2,0.1,0.5,0.4,0.6c0.2,0.2,0.6,0.3,1.2,0.4s1,0.2,1.4,0.4
			c1.2,0.4,1.8,1.2,1.8,2.3c0,0.8-0.3,1.4-1,1.9c-0.7,0.5-1.5,0.7-2.6,0.7c-0.7,0-1.3-0.1-1.9-0.4c-0.6-0.3-1-0.6-1.3-1
			s-0.5-0.9-0.5-1.4h2.1c0,0.4,0.2,0.7,0.4,0.9c0.3,0.2,0.6,0.3,1.1,0.3c0.4,0,0.8-0.1,1-0.2
			C1255.1,11200.1,1255.2,11199.9,1255.2,11199.7z"/>
	</g>
	<path id="Rectángulo_43042" class="st3" d="M750,11222h140c5.5,0,10,4.5,10,10v342c0,5.5-4.5,10-10,10H750c-5.5,0-10-4.5-10-10
		v-342C740,11226.5,744.5,11222,750,11222z"/>
	<path id="Rectángulo_43046" class="st3" d="M960,11222h140c5.5,0,10,4.5,10,10v147c0,5.5-4.5,10-10,10H960c-5.5,0-10-4.5-10-10
		v-147C950,11226.5,954.5,11222,960,11222z"/>
	<path id="Rectángulo_43055" class="st3" d="M960,11399h140c5.5,0,10,4.5,10,10v165c0,5.5-4.5,10-10,10H960c-5.5,0-10-4.5-10-10
		v-165C950,11403.5,954.5,11399,960,11399z"/>
	<path id="Rectángulo_43050" class="st3" d="M1170,11222h140c5.5,0,10,4.5,10,10v342c0,5.5-4.5,10-10,10h-140c-5.5,0-10-4.5-10-10
		v-342C1160,11226.5,1164.5,11222,1170,11222z"/>
	<path id="Rectángulo_43043" class="st4" d="M750,11222h140c5.5,0,10,4.5,10,10v25l0,0H740l0,0v-25
		C740,11226.5,744.5,11222,750,11222z"/>
	<path id="Rectángulo_43047" class="st4" d="M960,11222h140c5.5,0,10,4.5,10,10v25l0,0H950l0,0v-25
		C950,11226.5,954.5,11222,960,11222z"/>
	<path id="Rectángulo_43056" class="st4" d="M960,11399h140c5.5,0,10,4.5,10,10v25l0,0H950l0,0v-25
		C950,11403.5,954.5,11399,960,11399z"/>
	<path id="Rectángulo_43051" class="st4" d="M1170,11222h140c5.5,0,10,4.5,10,10v25l0,0h-160l0,0v-25
		C1160,11226.5,1164.5,11222,1170,11222z"/>
	<g class="st2">
		<path class="st5" d="M793.8,11243.4c-0.1,1.2-0.6,2.1-1.3,2.8c-0.7,0.7-1.7,1-3,1c-1.3,0-2.4-0.5-3.2-1.4c-0.8-1-1.2-2.3-1.2-3.9
			v-1.1c0-1.1,0.2-2,0.6-2.8c0.4-0.8,0.9-1.4,1.6-1.8c0.7-0.4,1.5-0.6,2.4-0.6c1.2,0,2.2,0.3,2.9,1c0.7,0.7,1.2,1.6,1.3,2.8h-1.5
			c-0.1-0.9-0.4-1.6-0.8-2c-0.4-0.4-1-0.6-1.8-0.6c-1,0-1.7,0.4-2.3,1.1c-0.5,0.7-0.8,1.7-0.8,3v1.1c0,1.2,0.3,2.2,0.8,2.9
			s1.2,1.1,2.2,1.1c0.8,0,1.5-0.2,1.9-0.6s0.7-1,0.9-2H793.8z"/>
		<path class="st5" d="M797.2,11247h-1.4v-12h1.4V11247z"/>
		<path class="st5" d="M799.6,11236.3c0-0.2,0.1-0.4,0.2-0.6c0.1-0.2,0.4-0.2,0.6-0.2s0.5,0.1,0.6,0.2c0.1,0.2,0.2,0.4,0.2,0.6
			s-0.1,0.4-0.2,0.6c-0.1,0.2-0.4,0.2-0.6,0.2s-0.5-0.1-0.6-0.2C799.6,11236.7,799.6,11236.5,799.6,11236.3z M801.1,11247h-1.4v-8.5
			h1.4V11247z"/>
		<path class="st5" d="M806.9,11247.2c-1.1,0-2.1-0.4-2.8-1.1s-1.1-1.8-1.1-3v-0.3c0-0.8,0.2-1.6,0.5-2.2s0.8-1.2,1.3-1.5
			c0.6-0.4,1.2-0.6,1.9-0.6c1.1,0,2,0.4,2.6,1.1s0.9,1.8,0.9,3.1v0.6h-5.7c0,0.8,0.3,1.5,0.7,2c0.5,0.5,1.1,0.8,1.8,0.8
			c0.5,0,0.9-0.1,1.3-0.3c0.4-0.2,0.7-0.5,0.9-0.8l0.9,0.7C809.4,11246.6,808.4,11247.2,806.9,11247.2z M806.8,11239.6
			c-0.6,0-1.1,0.2-1.5,0.6c-0.4,0.4-0.6,1-0.7,1.8h4.2v-0.1c0-0.7-0.2-1.3-0.6-1.7C807.8,11239.8,807.4,11239.6,806.8,11239.6z"/>
		<path class="st5" d="M813.3,11238.5l0,1.1c0.6-0.8,1.5-1.2,2.5-1.2c1.8,0,2.7,1,2.7,3v5.6h-1.4v-5.6c0-0.6-0.1-1.1-0.4-1.4
			s-0.7-0.4-1.3-0.4c-0.5,0-0.9,0.1-1.2,0.4c-0.4,0.2-0.6,0.6-0.8,1v6h-1.4v-8.5H813.3z"/>
		<path class="st5" d="M822.7,11236.5v2h1.6v1.1h-1.6v5.2c0,0.3,0.1,0.6,0.2,0.8c0.1,0.2,0.4,0.3,0.7,0.3c0.2,0,0.4,0,0.7-0.1v1.2
			c-0.4,0.1-0.8,0.2-1.1,0.2c-0.6,0-1.1-0.2-1.5-0.6s-0.5-0.9-0.5-1.7v-5.2h-1.5v-1.1h1.5v-2H822.7z"/>
		<path class="st5" d="M837.7,11236.9H834v10.1h-1.5v-10.1h-3.6v-1.2h8.8V11236.9z"/>
		<path class="st5" d="M839.2,11236.3c0-0.2,0.1-0.4,0.2-0.6c0.1-0.2,0.4-0.2,0.6-0.2s0.5,0.1,0.6,0.2c0.1,0.2,0.2,0.4,0.2,0.6
			s-0.1,0.4-0.2,0.6c-0.1,0.2-0.4,0.2-0.6,0.2s-0.5-0.1-0.6-0.2C839.2,11236.7,839.2,11236.5,839.2,11236.3z M840.7,11247h-1.4v-8.5
			h1.4V11247z"/>
		<path class="st5" d="M846.6,11247.2c-1.1,0-2.1-0.4-2.8-1.1s-1.1-1.8-1.1-3v-0.3c0-0.8,0.2-1.6,0.5-2.2s0.8-1.2,1.3-1.5
			c0.6-0.4,1.2-0.6,1.9-0.6c1.1,0,2,0.4,2.6,1.1s0.9,1.8,0.9,3.1v0.6h-5.7c0,0.8,0.3,1.5,0.7,2c0.5,0.5,1.1,0.8,1.8,0.8
			c0.5,0,0.9-0.1,1.3-0.3c0.4-0.2,0.7-0.5,0.9-0.8l0.9,0.7C849,11246.6,848,11247.2,846.6,11247.2z M846.4,11239.6
			c-0.6,0-1.1,0.2-1.5,0.6c-0.4,0.4-0.6,1-0.7,1.8h4.2v-0.1c0-0.7-0.2-1.3-0.6-1.7C847.5,11239.8,847,11239.6,846.4,11239.6z"/>
		<path class="st5" d="M855.6,11239.8c-0.2,0-0.5-0.1-0.7-0.1c-0.9,0-1.6,0.4-1.9,1.2v6h-1.4v-8.5h1.4l0,1c0.5-0.8,1.1-1.1,2-1.1
			c0.3,0,0.5,0,0.6,0.1V11239.8z"/>
	</g>
	<g class="st2">
		<path class="st5" d="M769.4,11386.4h-4.2l-0.9,2.6h-1.4l3.8-10h1.1l3.8,10h-1.3L769.4,11386.4z M765.6,11385.3h3.4l-1.7-4.7
			L765.6,11385.3z"/>
		<path class="st5" d="M779.1,11385.4c0,1.1-0.3,2-0.8,2.7s-1.2,1-2.1,1c-0.9,0-1.6-0.3-2.1-0.9v3.6h-1.3v-10.2h1.2l0.1,0.8
			c0.5-0.6,1.2-1,2.1-1c0.9,0,1.6,0.3,2.1,1s0.8,1.6,0.8,2.8V11385.4z M777.8,11385.2c0-0.8-0.2-1.5-0.5-2s-0.8-0.7-1.5-0.7
			c-0.8,0-1.3,0.3-1.7,1v3.5c0.4,0.7,1,1,1.7,1c0.6,0,1.1-0.2,1.4-0.7C777.6,11386.9,777.8,11386.2,777.8,11385.2z"/>
		<path class="st5" d="M782.1,11389h-1.3v-10.5h1.3V11389z"/>
		<path class="st5" d="M784.1,11379.6c0-0.2,0.1-0.4,0.2-0.5s0.3-0.2,0.6-0.2s0.4,0.1,0.6,0.2s0.2,0.3,0.2,0.5s-0.1,0.4-0.2,0.5
			s-0.3,0.2-0.6,0.2s-0.4-0.1-0.6-0.2S784.1,11379.8,784.1,11379.6z M785.5,11389h-1.3v-7.4h1.3V11389z"/>
		<path class="st5" d="M790.5,11388.1c0.5,0,0.8-0.1,1.2-0.4s0.5-0.6,0.6-1h1.2c0,0.4-0.2,0.8-0.4,1.2s-0.6,0.7-1.1,0.9
			s-0.9,0.3-1.4,0.3c-1,0-1.8-0.3-2.4-1c-0.6-0.7-0.9-1.6-0.9-2.8v-0.2c0-0.7,0.1-1.4,0.4-1.9s0.6-1,1.1-1.3s1.1-0.5,1.8-0.5
			c0.8,0,1.5,0.2,2.1,0.7s0.8,1.1,0.9,1.9h-1.2c0-0.5-0.2-0.9-0.5-1.2c-0.3-0.3-0.7-0.5-1.2-0.5c-0.6,0-1.1,0.2-1.5,0.7
			c-0.4,0.5-0.5,1.1-0.5,2v0.2c0,0.9,0.2,1.5,0.5,2S789.8,11388.1,790.5,11388.1z"/>
		<path class="st5" d="M799.4,11389c-0.1-0.1-0.1-0.4-0.2-0.8c-0.6,0.6-1.3,0.9-2.1,0.9c-0.7,0-1.3-0.2-1.8-0.6
			c-0.5-0.4-0.7-0.9-0.7-1.6c0-0.8,0.3-1.4,0.9-1.8c0.6-0.4,1.4-0.6,2.5-0.6h1.2v-0.6c0-0.4-0.1-0.8-0.4-1.1
			c-0.3-0.3-0.7-0.4-1.2-0.4c-0.5,0-0.8,0.1-1.1,0.3s-0.5,0.5-0.5,0.8h-1.3c0-0.4,0.1-0.7,0.4-1.1c0.3-0.3,0.6-0.6,1.1-0.8
			s0.9-0.3,1.5-0.3c0.9,0,1.5,0.2,2,0.6c0.5,0.4,0.7,1,0.8,1.8v3.4c0,0.7,0.1,1.2,0.3,1.6v0.1H799.4z M797.3,11388
			c0.4,0,0.8-0.1,1.1-0.3s0.6-0.5,0.8-0.8v-1.5h-1c-1.5,0-2.3,0.5-2.3,1.4c0,0.4,0.1,0.7,0.4,0.9S796.9,11388,797.3,11388z"/>
		<path class="st5" d="M805.4,11388.1c0.5,0,0.8-0.1,1.2-0.4s0.5-0.6,0.6-1h1.2c0,0.4-0.2,0.8-0.4,1.2s-0.6,0.7-1.1,0.9
			s-0.9,0.3-1.4,0.3c-1,0-1.8-0.3-2.4-1c-0.6-0.7-0.9-1.6-0.9-2.8v-0.2c0-0.7,0.1-1.4,0.4-1.9s0.6-1,1.1-1.3s1.1-0.5,1.8-0.5
			c0.8,0,1.5,0.2,2.1,0.7s0.8,1.1,0.9,1.9h-1.2c0-0.5-0.2-0.9-0.5-1.2c-0.3-0.3-0.7-0.5-1.2-0.5c-0.6,0-1.1,0.2-1.5,0.7
			c-0.4,0.5-0.5,1.1-0.5,2v0.2c0,0.9,0.2,1.5,0.5,2S804.7,11388.1,805.4,11388.1z"/>
		<path class="st5" d="M809.8,11379.6c0-0.2,0.1-0.4,0.2-0.5s0.3-0.2,0.6-0.2s0.4,0.1,0.6,0.2s0.2,0.3,0.2,0.5s-0.1,0.4-0.2,0.5
			s-0.3,0.2-0.6,0.2s-0.4-0.1-0.6-0.2S809.8,11379.8,809.8,11379.6z M811.1,11389h-1.3v-7.4h1.3V11389z"/>
		<path class="st5" d="M812.8,11385.2c0-0.7,0.1-1.4,0.4-2s0.7-1,1.2-1.3s1.1-0.5,1.7-0.5c1,0,1.8,0.3,2.4,1s0.9,1.6,0.9,2.8v0.1
			c0,0.7-0.1,1.4-0.4,1.9c-0.3,0.6-0.7,1-1.2,1.3s-1.1,0.5-1.8,0.5c-1,0-1.8-0.3-2.4-1S812.8,11386.5,812.8,11385.2L812.8,11385.2z
			 M814.1,11385.4c0,0.8,0.2,1.5,0.6,2s0.9,0.7,1.5,0.7c0.6,0,1.2-0.3,1.5-0.8c0.4-0.5,0.6-1.2,0.6-2.1c0-0.8-0.2-1.5-0.6-2
			c-0.4-0.5-0.9-0.8-1.5-0.8c-0.6,0-1.1,0.2-1.5,0.7S814.1,11384.5,814.1,11385.4z M816.7,11378.5h1.5l-1.8,2l-1,0L816.7,11378.5z"
			/>
		<path class="st5" d="M822.3,11381.6l0,0.9c0.6-0.7,1.3-1.1,2.2-1.1c1.6,0,2.4,0.9,2.4,2.6v4.9h-1.3v-4.9c0-0.5-0.1-0.9-0.4-1.2
			s-0.6-0.4-1.1-0.4c-0.4,0-0.8,0.1-1.1,0.3s-0.6,0.5-0.7,0.9v5.3h-1.3v-7.4H822.3z"/>
		<path class="st5" d="M836.7,11379h1.3v7c0,1-0.3,1.7-0.9,2.2s-1.3,0.8-2.3,0.8c-1,0-1.8-0.3-2.3-0.8s-0.8-1.2-0.8-2.1h1.3
			c0,0.6,0.2,1,0.5,1.3s0.8,0.5,1.4,0.5c0.5,0,1-0.2,1.3-0.5s0.5-0.8,0.5-1.4V11379z"/>
		<path class="st5" d="M845.9,11384.4h-4.3v3.5h5v1.1h-6.3v-10h6.3v1.1h-4.9v3.2h4.3V11384.4z"/>
		<path class="st5" d="M853.8,11384.4h-4.3v3.5h5v1.1h-6.3v-10h6.3v1.1h-4.9v3.2h4.3V11384.4z"/>
		<path class="st5" d="M859.1,11385.2c0-1.1,0.3-2,0.8-2.7c0.5-0.7,1.2-1,2.1-1c0.9,0,1.6,0.3,2.1,0.9v-3.9h1.3v10.5h-1.2l-0.1-0.8
			c-0.5,0.6-1.2,0.9-2.1,0.9c-0.9,0-1.6-0.4-2.1-1.1S859.1,11386.5,859.1,11385.2L859.1,11385.2z M860.4,11385.4
			c0,0.8,0.2,1.5,0.5,2s0.8,0.7,1.4,0.7c0.8,0,1.4-0.4,1.8-1.1v-3.4c-0.4-0.7-1-1-1.7-1c-0.6,0-1.1,0.2-1.4,0.7
			S860.4,11384.4,860.4,11385.4z"/>
		<path class="st5" d="M870.4,11389.1c-1,0-1.8-0.3-2.4-1c-0.6-0.7-0.9-1.5-0.9-2.6v-0.2c0-0.7,0.1-1.4,0.4-2c0.3-0.6,0.7-1,1.2-1.4
			c0.5-0.3,1-0.5,1.6-0.5c1,0,1.7,0.3,2.2,1s0.8,1.5,0.8,2.7v0.5h-5c0,0.7,0.2,1.3,0.6,1.8c0.4,0.4,0.9,0.7,1.6,0.7
			c0.4,0,0.8-0.1,1.1-0.3s0.6-0.4,0.8-0.7l0.8,0.6C872.6,11388.7,871.6,11389.1,870.4,11389.1z M870.2,11382.5
			c-0.5,0-0.9,0.2-1.3,0.6c-0.3,0.4-0.6,0.9-0.6,1.6h3.7v-0.1c0-0.6-0.2-1.1-0.5-1.5C871.2,11382.7,870.8,11382.5,870.2,11382.5z"/>
	</g>
	<g class="st2">
		<path class="st5" d="M770.7,11407.1c-1,0-1.8-0.3-2.4-1c-0.6-0.7-0.9-1.5-0.9-2.6v-0.2c0-0.7,0.1-1.4,0.4-2c0.3-0.6,0.7-1,1.2-1.4
			c0.5-0.3,1-0.5,1.6-0.5c1,0,1.7,0.3,2.2,1s0.8,1.5,0.8,2.7v0.5h-5c0,0.7,0.2,1.3,0.6,1.8c0.4,0.4,0.9,0.7,1.6,0.7
			c0.4,0,0.8-0.1,1.1-0.3s0.6-0.4,0.8-0.7l0.8,0.6C772.9,11406.7,771.9,11407.1,770.7,11407.1z M770.6,11400.5
			c-0.5,0-0.9,0.2-1.3,0.6c-0.3,0.4-0.6,0.9-0.6,1.6h3.7v-0.1c0-0.6-0.2-1.1-0.5-1.5C771.5,11400.7,771.1,11400.5,770.6,11400.5z"/>
		<path class="st5" d="M779.4,11405c0-0.3-0.1-0.6-0.4-0.8c-0.3-0.2-0.7-0.4-1.3-0.5s-1.1-0.3-1.5-0.5s-0.7-0.4-0.8-0.7
			s-0.3-0.6-0.3-0.9c0-0.6,0.3-1.1,0.8-1.5s1.2-0.6,2-0.6c0.8,0,1.5,0.2,2,0.6s0.8,1,0.8,1.7h-1.3c0-0.3-0.1-0.6-0.4-0.9
			s-0.7-0.4-1.1-0.4c-0.5,0-0.8,0.1-1.1,0.3s-0.4,0.5-0.4,0.8c0,0.3,0.1,0.5,0.4,0.7s0.7,0.3,1.3,0.4s1.1,0.3,1.5,0.5
			s0.7,0.4,0.9,0.7c0.2,0.3,0.3,0.6,0.3,1c0,0.7-0.3,1.2-0.8,1.6c-0.5,0.4-1.2,0.6-2.1,0.6c-0.6,0-1.1-0.1-1.6-0.3s-0.8-0.5-1.1-0.9
			c-0.3-0.4-0.4-0.8-0.4-1.2h1.3c0,0.4,0.2,0.8,0.5,1c0.3,0.2,0.7,0.4,1.3,0.4c0.5,0,0.9-0.1,1.2-0.3
			C779.2,11405.6,779.4,11405.4,779.4,11405z"/>
		<path class="st5" d="M785.2,11406.1c0.5,0,0.8-0.1,1.2-0.4s0.5-0.6,0.6-1h1.2c0,0.4-0.2,0.8-0.4,1.2s-0.6,0.7-1.1,0.9
			s-0.9,0.3-1.4,0.3c-1,0-1.8-0.3-2.4-1c-0.6-0.7-0.9-1.6-0.9-2.8v-0.2c0-0.7,0.1-1.4,0.4-1.9s0.6-1,1.1-1.3s1.1-0.5,1.8-0.5
			c0.8,0,1.5,0.2,2.1,0.7s0.8,1.1,0.9,1.9H787c0-0.5-0.2-0.9-0.5-1.2c-0.3-0.3-0.7-0.5-1.2-0.5c-0.6,0-1.1,0.2-1.5,0.7
			c-0.4,0.5-0.5,1.1-0.5,2v0.2c0,0.9,0.2,1.5,0.5,2S784.6,11406.1,785.2,11406.1z"/>
		<path class="st5" d="M793.2,11400.7c-0.2,0-0.4,0-0.6,0c-0.8,0-1.4,0.4-1.7,1.1v5.2h-1.3v-7.4h1.2l0,0.9c0.4-0.7,1-1,1.8-1
			c0.2,0,0.4,0,0.6,0.1V11400.7z"/>
		<path class="st5" d="M794.3,11397.6c0-0.2,0.1-0.4,0.2-0.5s0.3-0.2,0.6-0.2s0.4,0.1,0.6,0.2s0.2,0.3,0.2,0.5s-0.1,0.4-0.2,0.5
			s-0.3,0.2-0.6,0.2s-0.4-0.1-0.6-0.2S794.3,11397.8,794.3,11397.6z M795.7,11407h-1.3v-7.4h1.3V11407z"/>
		<path class="st5" d="M799.5,11397.8v1.8h1.4v1h-1.4v4.6c0,0.3,0.1,0.5,0.2,0.7s0.3,0.2,0.6,0.2c0.1,0,0.3,0,0.6-0.1v1
			c-0.3,0.1-0.7,0.1-1,0.1c-0.6,0-1-0.2-1.3-0.5s-0.4-0.8-0.4-1.5v-4.6h-1.3v-1h1.3v-1.8H799.5z"/>
		<path class="st5" d="M801.8,11403.2c0-0.7,0.1-1.4,0.4-2s0.7-1,1.2-1.3s1.1-0.5,1.7-0.5c1,0,1.8,0.3,2.4,1s0.9,1.6,0.9,2.8v0.1
			c0,0.7-0.1,1.4-0.4,1.9c-0.3,0.6-0.7,1-1.2,1.3s-1.1,0.5-1.8,0.5c-1,0-1.8-0.3-2.4-1S801.8,11404.5,801.8,11403.2L801.8,11403.2z
			 M803.1,11403.4c0,0.8,0.2,1.5,0.6,2s0.9,0.7,1.5,0.7c0.6,0,1.2-0.3,1.5-0.8c0.4-0.5,0.6-1.2,0.6-2.1c0-0.8-0.2-1.5-0.6-2
			c-0.4-0.5-0.9-0.8-1.5-0.8c-0.6,0-1.1,0.2-1.5,0.7S803.1,11402.5,803.1,11403.4z"/>
		<path class="st5" d="M813.7,11400.7c-0.2,0-0.4,0-0.6,0c-0.8,0-1.4,0.4-1.7,1.1v5.2h-1.3v-7.4h1.2l0,0.9c0.4-0.7,1-1,1.8-1
			c0.2,0,0.4,0,0.6,0.1V11400.7z"/>
		<path class="st5" d="M814.9,11397.6c0-0.2,0.1-0.4,0.2-0.5s0.3-0.2,0.6-0.2s0.4,0.1,0.6,0.2s0.2,0.3,0.2,0.5s-0.1,0.4-0.2,0.5
			s-0.3,0.2-0.6,0.2s-0.4-0.1-0.6-0.2S814.9,11397.8,814.9,11397.6z M816.3,11407H815v-7.4h1.3V11407z"/>
		<path class="st5" d="M818,11403.2c0-0.7,0.1-1.4,0.4-2s0.7-1,1.2-1.3s1.1-0.5,1.7-0.5c1,0,1.8,0.3,2.4,1s0.9,1.6,0.9,2.8v0.1
			c0,0.7-0.1,1.4-0.4,1.9c-0.3,0.6-0.7,1-1.2,1.3s-1.1,0.5-1.8,0.5c-1,0-1.8-0.3-2.4-1S818,11404.5,818,11403.2L818,11403.2z
			 M819.2,11403.4c0,0.8,0.2,1.5,0.6,2s0.9,0.7,1.5,0.7c0.6,0,1.2-0.3,1.5-0.8c0.4-0.5,0.6-1.2,0.6-2.1c0-0.8-0.2-1.5-0.6-2
			c-0.4-0.5-0.9-0.8-1.5-0.8c-0.6,0-1.1,0.2-1.5,0.7S819.2,11402.5,819.2,11403.4z"/>
		<path class="st5" d="M829.4,11403.2c0-0.7,0.1-1.4,0.4-2s0.7-1,1.2-1.3s1.1-0.5,1.7-0.5c1,0,1.8,0.3,2.4,1s0.9,1.6,0.9,2.8v0.1
			c0,0.7-0.1,1.4-0.4,1.9c-0.3,0.6-0.7,1-1.2,1.3s-1.1,0.5-1.8,0.5c-1,0-1.8-0.3-2.4-1S829.4,11404.5,829.4,11403.2L829.4,11403.2z
			 M830.7,11403.4c0,0.8,0.2,1.5,0.6,2s0.9,0.7,1.5,0.7c0.6,0,1.2-0.3,1.5-0.8c0.4-0.5,0.6-1.2,0.6-2.1c0-0.8-0.2-1.5-0.6-2
			c-0.4-0.5-0.9-0.8-1.5-0.8c-0.6,0-1.1,0.2-1.5,0.7S830.7,11402.5,830.7,11403.4z"/>
		<path class="st5" d="M842.6,11407h-1.3v-10.5h1.3V11407z"/>
		<path class="st5" d="M846,11396.5h1.5l-1.8,2l-1,0L846,11396.5z M846,11407h-1.3v-7.4h1.3V11407z"/>
		<path class="st5" d="M849.2,11399.6l0,0.9c0.6-0.7,1.3-1.1,2.2-1.1c1.6,0,2.4,0.9,2.4,2.6v4.9h-1.3v-4.9c0-0.5-0.1-0.9-0.4-1.2
			s-0.6-0.4-1.1-0.4c-0.4,0-0.8,0.1-1.1,0.3s-0.6,0.5-0.7,0.9v5.3h-1.3v-7.4H849.2z"/>
		<path class="st5" d="M858.8,11407.1c-1,0-1.8-0.3-2.4-1c-0.6-0.7-0.9-1.5-0.9-2.6v-0.2c0-0.7,0.1-1.4,0.4-2c0.3-0.6,0.7-1,1.2-1.4
			c0.5-0.3,1-0.5,1.6-0.5c1,0,1.7,0.3,2.2,1s0.8,1.5,0.8,2.7v0.5h-5c0,0.7,0.2,1.3,0.6,1.8c0.4,0.4,0.9,0.7,1.6,0.7
			c0.4,0,0.8-0.1,1.1-0.3s0.6-0.4,0.8-0.7l0.8,0.6C861,11406.7,860.1,11407.1,858.8,11407.1z M858.7,11400.5c-0.5,0-0.9,0.2-1.3,0.6
			c-0.3,0.4-0.6,0.9-0.6,1.6h3.7v-0.1c0-0.6-0.2-1.1-0.5-1.5C859.6,11400.7,859.2,11400.5,858.7,11400.5z"/>
		<path class="st5" d="M867.8,11407c-0.1-0.1-0.1-0.4-0.2-0.8c-0.6,0.6-1.3,0.9-2.1,0.9c-0.7,0-1.3-0.2-1.8-0.6
			c-0.5-0.4-0.7-0.9-0.7-1.6c0-0.8,0.3-1.4,0.9-1.8c0.6-0.4,1.4-0.6,2.5-0.6h1.2v-0.6c0-0.4-0.1-0.8-0.4-1.1
			c-0.3-0.3-0.7-0.4-1.2-0.4c-0.5,0-0.8,0.1-1.1,0.3s-0.5,0.5-0.5,0.8h-1.3c0-0.4,0.1-0.7,0.4-1.1c0.3-0.3,0.6-0.6,1.1-0.8
			s0.9-0.3,1.5-0.3c0.9,0,1.5,0.2,2,0.6c0.5,0.4,0.7,1,0.8,1.8v3.4c0,0.7,0.1,1.2,0.3,1.6v0.1H867.8z M865.7,11406
			c0.4,0,0.8-0.1,1.1-0.3s0.6-0.5,0.8-0.8v-1.5h-1c-1.5,0-2.3,0.5-2.3,1.4c0,0.4,0.1,0.7,0.4,0.9S865.2,11406,865.7,11406z"/>
	</g>
	<g class="st2">
		<path class="st5" d="M792.8,11424.1c0.5,0,0.8-0.1,1.2-0.4s0.5-0.6,0.6-1h1.2c0,0.4-0.2,0.8-0.4,1.2s-0.6,0.7-1.1,0.9
			s-0.9,0.3-1.4,0.3c-1,0-1.8-0.3-2.4-1c-0.6-0.7-0.9-1.6-0.9-2.8v-0.2c0-0.7,0.1-1.4,0.4-1.9s0.6-1,1.1-1.3s1.1-0.5,1.8-0.5
			c0.8,0,1.5,0.2,2.1,0.7s0.8,1.1,0.9,1.9h-1.2c0-0.5-0.2-0.9-0.5-1.2c-0.3-0.3-0.7-0.5-1.2-0.5c-0.6,0-1.1,0.2-1.5,0.7
			c-0.4,0.5-0.5,1.1-0.5,2v0.2c0,0.9,0.2,1.5,0.5,2S792.1,11424.1,792.8,11424.1z"/>
		<path class="st5" d="M796.8,11421.2c0-0.7,0.1-1.4,0.4-2s0.7-1,1.2-1.3s1.1-0.5,1.7-0.5c1,0,1.8,0.3,2.4,1s0.9,1.6,0.9,2.8v0.1
			c0,0.7-0.1,1.4-0.4,1.9c-0.3,0.6-0.7,1-1.2,1.3s-1.1,0.5-1.8,0.5c-1,0-1.8-0.3-2.4-1S796.8,11422.5,796.8,11421.2L796.8,11421.2z
			 M798.1,11421.4c0,0.8,0.2,1.5,0.6,2s0.9,0.7,1.5,0.7c0.6,0,1.2-0.3,1.5-0.8c0.4-0.5,0.6-1.2,0.6-2.1c0-0.8-0.2-1.5-0.6-2
			c-0.4-0.5-0.9-0.8-1.5-0.8c-0.6,0-1.1,0.2-1.5,0.7S798.1,11420.5,798.1,11421.4z"/>
		<path class="st5" d="M806.3,11417.6l0,0.8c0.5-0.6,1.3-1,2.2-1c1,0,1.7,0.4,2.1,1.2c0.2-0.4,0.6-0.6,1-0.9s0.9-0.3,1.4-0.3
			c1.6,0,2.4,0.9,2.5,2.6v5h-1.3v-4.9c0-0.5-0.1-0.9-0.4-1.2c-0.2-0.3-0.6-0.4-1.2-0.4c-0.5,0-0.9,0.1-1.2,0.4
			c-0.3,0.3-0.5,0.7-0.5,1.1v4.9h-1.3v-4.8c0-1.1-0.5-1.6-1.6-1.6c-0.8,0-1.4,0.4-1.7,1.1v5.4h-1.3v-7.4H806.3z"/>
		<path class="st5" d="M822,11425c-0.1-0.1-0.1-0.4-0.2-0.8c-0.6,0.6-1.3,0.9-2.1,0.9c-0.7,0-1.3-0.2-1.8-0.6
			c-0.5-0.4-0.7-0.9-0.7-1.6c0-0.8,0.3-1.4,0.9-1.8c0.6-0.4,1.4-0.6,2.5-0.6h1.2v-0.6c0-0.4-0.1-0.8-0.4-1.1
			c-0.3-0.3-0.7-0.4-1.2-0.4c-0.5,0-0.8,0.1-1.1,0.3s-0.5,0.5-0.5,0.8h-1.3c0-0.4,0.1-0.7,0.4-1.1c0.3-0.3,0.6-0.6,1.1-0.8
			s0.9-0.3,1.5-0.3c0.9,0,1.5,0.2,2,0.6c0.5,0.4,0.7,1,0.8,1.8v3.4c0,0.7,0.1,1.2,0.3,1.6v0.1H822z M819.9,11424
			c0.4,0,0.8-0.1,1.1-0.3s0.6-0.5,0.8-0.8v-1.5h-1c-1.5,0-2.3,0.5-2.3,1.4c0,0.4,0.1,0.7,0.4,0.9S819.5,11424,819.9,11424z"/>
		<path class="st5" d="M826.2,11417.6l0,0.9c0.6-0.7,1.3-1.1,2.2-1.1c1.6,0,2.4,0.9,2.4,2.6v4.9h-1.3v-4.9c0-0.5-0.1-0.9-0.4-1.2
			s-0.6-0.4-1.1-0.4c-0.4,0-0.8,0.1-1.1,0.3s-0.6,0.5-0.7,0.9v5.3H825v-7.4H826.2z"/>
		<path class="st5" d="M832.4,11421.2c0-1.1,0.3-2,0.8-2.7c0.5-0.7,1.2-1,2.1-1c0.9,0,1.6,0.3,2.1,0.9v-3.9h1.3v10.5h-1.2l-0.1-0.8
			c-0.5,0.6-1.2,0.9-2.1,0.9c-0.9,0-1.6-0.4-2.1-1.1S832.4,11422.5,832.4,11421.2L832.4,11421.2z M833.7,11421.4
			c0,0.8,0.2,1.5,0.5,2s0.8,0.7,1.4,0.7c0.8,0,1.4-0.4,1.8-1.1v-3.4c-0.4-0.7-1-1-1.7-1c-0.6,0-1.1,0.2-1.4,0.7
			S833.7,11420.4,833.7,11421.4z"/>
		<path class="st5" d="M840.3,11421.2c0-0.7,0.1-1.4,0.4-2s0.7-1,1.2-1.3s1.1-0.5,1.7-0.5c1,0,1.8,0.3,2.4,1s0.9,1.6,0.9,2.8v0.1
			c0,0.7-0.1,1.4-0.4,1.9c-0.3,0.6-0.7,1-1.2,1.3s-1.1,0.5-1.8,0.5c-1,0-1.8-0.3-2.4-1S840.3,11422.5,840.3,11421.2L840.3,11421.2z
			 M841.6,11421.4c0,0.8,0.2,1.5,0.6,2s0.9,0.7,1.5,0.7c0.6,0,1.2-0.3,1.5-0.8c0.4-0.5,0.6-1.2,0.6-2.1c0-0.8-0.2-1.5-0.6-2
			c-0.4-0.5-0.9-0.8-1.5-0.8c-0.6,0-1.1,0.2-1.5,0.7S841.6,11420.5,841.6,11421.4z"/>
	</g>
	<g class="st2">
		<path class="st5" d="M967.6,11352.1v3.9h-1.3v-10h3.7c1.1,0,1.9,0.3,2.6,0.8s0.9,1.3,0.9,2.2c0,1-0.3,1.7-0.9,2.2
			c-0.6,0.5-1.5,0.8-2.6,0.8H967.6z M967.6,11351h2.4c0.7,0,1.2-0.2,1.6-0.5s0.6-0.8,0.6-1.4c0-0.6-0.2-1.1-0.6-1.4
			s-0.9-0.5-1.5-0.6h-2.4V11351z"/>
		<path class="st5" d="M979.5,11356c-0.1-0.1-0.1-0.4-0.2-0.8c-0.6,0.6-1.3,0.9-2.1,0.9c-0.7,0-1.3-0.2-1.8-0.6
			c-0.5-0.4-0.7-0.9-0.7-1.6c0-0.8,0.3-1.4,0.9-1.8c0.6-0.4,1.4-0.6,2.5-0.6h1.2v-0.6c0-0.4-0.1-0.8-0.4-1.1
			c-0.3-0.3-0.7-0.4-1.2-0.4c-0.5,0-0.8,0.1-1.1,0.3s-0.5,0.5-0.5,0.8h-1.3c0-0.4,0.1-0.7,0.4-1.1c0.3-0.3,0.6-0.6,1.1-0.8
			s0.9-0.3,1.5-0.3c0.9,0,1.5,0.2,2,0.6c0.5,0.4,0.7,1,0.8,1.8v3.4c0,0.7,0.1,1.2,0.3,1.6v0.1H979.5z M977.4,11355
			c0.4,0,0.8-0.1,1.1-0.3s0.6-0.5,0.8-0.8v-1.5h-1c-1.5,0-2.3,0.5-2.3,1.4c0,0.4,0.1,0.7,0.4,0.9S977,11355,977.4,11355z
			 M978.6,11345.5h1.5l-1.8,2l-1,0L978.6,11345.5z"/>
		<path class="st5" d="M982.3,11352.2c0-1.2,0.3-2.1,0.8-2.8c0.5-0.7,1.2-1,2.1-1c0.9,0,1.6,0.3,2.1,1l0.1-0.8h1.2v7.2
			c0,1-0.3,1.7-0.9,2.3s-1.3,0.8-2.3,0.8c-0.5,0-1.1-0.1-1.6-0.3s-0.9-0.5-1.2-0.9l0.7-0.8c0.5,0.7,1.2,1,2,1c0.6,0,1.1-0.2,1.4-0.5
			s0.5-0.8,0.5-1.5v-0.6c-0.5,0.6-1.2,0.9-2.1,0.9c-0.9,0-1.6-0.3-2.1-1S982.3,11353.4,982.3,11352.2z M983.5,11352.4
			c0,0.8,0.2,1.5,0.5,2c0.3,0.5,0.8,0.7,1.4,0.7c0.8,0,1.4-0.4,1.8-1.1v-3.4c-0.4-0.7-1-1.1-1.7-1.1c-0.6,0-1.1,0.2-1.4,0.7
			S983.5,11351.4,983.5,11352.4z"/>
		<path class="st5" d="M990.4,11346.6c0-0.2,0.1-0.4,0.2-0.5s0.3-0.2,0.6-0.2s0.4,0.1,0.6,0.2s0.2,0.3,0.2,0.5s-0.1,0.4-0.2,0.5
			s-0.3,0.2-0.6,0.2s-0.4-0.1-0.6-0.2S990.4,11346.8,990.4,11346.6z M991.8,11356h-1.3v-7.4h1.3V11356z"/>
		<path class="st5" d="M995,11348.6l0,0.9c0.6-0.7,1.3-1.1,2.2-1.1c1.6,0,2.4,0.9,2.4,2.6v4.9h-1.3v-4.9c0-0.5-0.1-0.9-0.4-1.2
			s-0.6-0.4-1.1-0.4c-0.4,0-0.8,0.1-1.1,0.3s-0.6,0.5-0.7,0.9v5.3h-1.3v-7.4H995z"/>
		<path class="st5" d="M1006.1,11356c-0.1-0.1-0.1-0.4-0.2-0.8c-0.6,0.6-1.3,0.9-2.1,0.9c-0.7,0-1.3-0.2-1.8-0.6
			c-0.5-0.4-0.7-0.9-0.7-1.6c0-0.8,0.3-1.4,0.9-1.8c0.6-0.4,1.4-0.6,2.5-0.6h1.2v-0.6c0-0.4-0.1-0.8-0.4-1.1
			c-0.3-0.3-0.7-0.4-1.2-0.4c-0.5,0-0.8,0.1-1.1,0.3s-0.5,0.5-0.5,0.8h-1.3c0-0.4,0.1-0.7,0.4-1.1c0.3-0.3,0.6-0.6,1.1-0.8
			s0.9-0.3,1.5-0.3c0.9,0,1.5,0.2,2,0.6c0.5,0.4,0.7,1,0.8,1.8v3.4c0,0.7,0.1,1.2,0.3,1.6v0.1H1006.1z M1004,11355
			c0.4,0,0.8-0.1,1.1-0.3s0.6-0.5,0.8-0.8v-1.5h-1c-1.5,0-2.3,0.5-2.3,1.4c0,0.4,0.1,0.7,0.4,0.9S1003.6,11355,1004,11355z"/>
		<path class="st5" d="M1013.5,11354c0-0.3-0.1-0.6-0.4-0.8c-0.3-0.2-0.7-0.4-1.3-0.5s-1.1-0.3-1.5-0.5s-0.7-0.4-0.8-0.7
			s-0.3-0.6-0.3-0.9c0-0.6,0.3-1.1,0.8-1.5s1.2-0.6,2-0.6c0.8,0,1.5,0.2,2,0.6s0.8,1,0.8,1.7h-1.3c0-0.3-0.1-0.6-0.4-0.9
			s-0.7-0.4-1.1-0.4c-0.5,0-0.8,0.1-1.1,0.3s-0.4,0.5-0.4,0.8c0,0.3,0.1,0.5,0.4,0.7s0.7,0.3,1.3,0.4s1.1,0.3,1.5,0.5
			s0.7,0.4,0.9,0.7c0.2,0.3,0.3,0.6,0.3,1c0,0.7-0.3,1.2-0.8,1.6c-0.5,0.4-1.2,0.6-2.1,0.6c-0.6,0-1.1-0.1-1.6-0.3s-0.8-0.5-1.1-0.9
			c-0.3-0.4-0.4-0.8-0.4-1.2h1.3c0,0.4,0.2,0.8,0.5,1c0.3,0.2,0.7,0.4,1.3,0.4c0.5,0,0.9-0.1,1.2-0.3
			C1013.3,11354.6,1013.5,11354.4,1013.5,11354z"/>
		<path class="st5" d="M1024.2,11346h1.3v7c0,1-0.3,1.7-0.9,2.2s-1.3,0.8-2.3,0.8c-1,0-1.8-0.3-2.3-0.8s-0.8-1.2-0.8-2.1h1.3
			c0,0.6,0.2,1,0.5,1.3s0.8,0.5,1.4,0.5c0.5,0,1-0.2,1.3-0.5s0.5-0.8,0.5-1.4V11346z"/>
		<path class="st5" d="M1032.1,11356c-0.1-0.1-0.1-0.4-0.2-0.8c-0.6,0.6-1.3,0.9-2.1,0.9c-0.7,0-1.3-0.2-1.8-0.6
			c-0.5-0.4-0.7-0.9-0.7-1.6c0-0.8,0.3-1.4,0.9-1.8c0.6-0.4,1.4-0.6,2.5-0.6h1.2v-0.6c0-0.4-0.1-0.8-0.4-1.1
			c-0.3-0.3-0.7-0.4-1.2-0.4c-0.5,0-0.8,0.1-1.1,0.3s-0.5,0.5-0.5,0.8h-1.3c0-0.4,0.1-0.7,0.4-1.1c0.3-0.3,0.6-0.6,1.1-0.8
			s0.9-0.3,1.5-0.3c0.9,0,1.5,0.2,2,0.6c0.5,0.4,0.7,1,0.8,1.8v3.4c0,0.7,0.1,1.2,0.3,1.6v0.1H1032.1z M1030,11355
			c0.4,0,0.8-0.1,1.1-0.3s0.6-0.5,0.8-0.8v-1.5h-1c-1.5,0-2.3,0.5-2.3,1.4c0,0.4,0.1,0.7,0.4,0.9S1029.6,11355,1030,11355z"/>
		<path class="st5" d="M1037.5,11354.3l1.8-5.7h1.3l-2.7,7.4h-1l-2.7-7.4h1.3L1037.5,11354.3z"/>
		<path class="st5" d="M1046.3,11356c-0.1-0.1-0.1-0.4-0.2-0.8c-0.6,0.6-1.3,0.9-2.1,0.9c-0.7,0-1.3-0.2-1.8-0.6
			c-0.5-0.4-0.7-0.9-0.7-1.6c0-0.8,0.3-1.4,0.9-1.8c0.6-0.4,1.4-0.6,2.5-0.6h1.2v-0.6c0-0.4-0.1-0.8-0.4-1.1
			c-0.3-0.3-0.7-0.4-1.2-0.4c-0.5,0-0.8,0.1-1.1,0.3c-0.3,0.2-0.5,0.5-0.5,0.8h-1.3c0-0.4,0.1-0.7,0.4-1.1c0.3-0.3,0.6-0.6,1.1-0.8
			c0.4-0.2,0.9-0.3,1.5-0.3c0.9,0,1.5,0.2,2,0.6c0.5,0.4,0.7,1,0.8,1.8v3.4c0,0.7,0.1,1.2,0.3,1.6v0.1H1046.3z M1044.2,11355
			c0.4,0,0.8-0.1,1.1-0.3s0.6-0.5,0.8-0.8v-1.5h-1c-1.5,0-2.3,0.5-2.3,1.4c0,0.4,0.1,0.7,0.4,0.9
			C1043.5,11354.9,1043.8,11355,1044.2,11355z"/>
		<path class="st5" d="M1056,11351.6c-1.1-0.3-1.9-0.7-2.5-1.2c-0.5-0.5-0.8-1.1-0.8-1.7c0-0.8,0.3-1.4,0.9-1.9
			c0.6-0.5,1.4-0.8,2.4-0.8c0.7,0,1.3,0.1,1.8,0.4c0.5,0.3,1,0.6,1.2,1.1s0.4,1,0.4,1.5h-1.3c0-0.6-0.2-1.1-0.6-1.4
			c-0.4-0.3-0.9-0.5-1.6-0.5c-0.6,0-1.2,0.1-1.5,0.4c-0.4,0.3-0.5,0.7-0.5,1.2c0,0.4,0.2,0.8,0.5,1c0.3,0.3,0.9,0.5,1.8,0.8
			c0.8,0.2,1.5,0.5,1.9,0.8c0.5,0.3,0.8,0.6,1,1s0.3,0.8,0.3,1.3c0,0.8-0.3,1.5-0.9,1.9c-0.6,0.5-1.5,0.7-2.5,0.7
			c-0.7,0-1.3-0.1-1.9-0.4c-0.6-0.3-1-0.6-1.4-1.1s-0.5-1-0.5-1.6h1.3c0,0.6,0.2,1.1,0.7,1.4c0.4,0.3,1,0.5,1.8,0.5
			c0.7,0,1.2-0.1,1.6-0.4s0.6-0.7,0.6-1.2s-0.2-0.9-0.5-1.1C1057.5,11352.1,1056.9,11351.8,1056,11351.6z"/>
		<path class="st5" d="M1064.2,11356.1c-1,0-1.8-0.3-2.4-1c-0.6-0.7-0.9-1.5-0.9-2.6v-0.2c0-0.7,0.1-1.4,0.4-2
			c0.3-0.6,0.7-1,1.2-1.4c0.5-0.3,1-0.5,1.6-0.5c1,0,1.7,0.3,2.2,1s0.8,1.5,0.8,2.7v0.5h-5c0,0.7,0.2,1.3,0.6,1.8
			c0.4,0.4,0.9,0.7,1.6,0.7c0.4,0,0.8-0.1,1.1-0.3c0.3-0.2,0.6-0.4,0.8-0.7l0.8,0.6C1066.4,11355.7,1065.4,11356.1,1064.2,11356.1z
			 M1064,11349.5c-0.5,0-0.9,0.2-1.3,0.6c-0.3,0.4-0.6,0.9-0.6,1.6h3.7v-0.1c0-0.6-0.2-1.1-0.5-1.5
			C1065,11349.7,1064.6,11349.5,1064,11349.5z"/>
		<path class="st5" d="M1072.1,11349.7c-0.2,0-0.4,0-0.6,0c-0.8,0-1.4,0.4-1.7,1.1v5.2h-1.3v-7.4h1.2l0,0.9c0.4-0.7,1-1,1.8-1
			c0.2,0,0.4,0,0.6,0.1V11349.7z"/>
		<path class="st5" d="M1075.8,11354.3l1.8-5.7h1.3l-2.7,7.4h-1l-2.7-7.4h1.3L1075.8,11354.3z"/>
		<path class="st5" d="M1083.3,11356.1c-1,0-1.8-0.3-2.4-1c-0.6-0.7-0.9-1.5-0.9-2.6v-0.2c0-0.7,0.1-1.4,0.4-2
			c0.3-0.6,0.7-1,1.2-1.4c0.5-0.3,1-0.5,1.6-0.5c1,0,1.7,0.3,2.2,1s0.8,1.5,0.8,2.7v0.5h-5c0,0.7,0.2,1.3,0.6,1.8
			c0.4,0.4,0.9,0.7,1.6,0.7c0.4,0,0.8-0.1,1.1-0.3c0.3-0.2,0.6-0.4,0.8-0.7l0.8,0.6C1085.4,11355.7,1084.5,11356.1,1083.3,11356.1z
			 M1083.1,11349.5c-0.5,0-0.9,0.2-1.3,0.6c-0.3,0.4-0.6,0.9-0.6,1.6h3.7v-0.1c0-0.6-0.2-1.1-0.5-1.5
			C1084,11349.7,1083.6,11349.5,1083.1,11349.5z"/>
		<path class="st5" d="M1091.2,11349.7c-0.2,0-0.4,0-0.6,0c-0.8,0-1.4,0.4-1.7,1.1v5.2h-1.3v-7.4h1.2l0,0.9c0.4-0.7,1-1,1.8-1
			c0.2,0,0.4,0,0.6,0.1V11349.7z"/>
	</g>
	<g class="st2">
		<path class="st5" d="M997.9,11369.6h-4.2v4.4h-1.3v-10h6.2v1.1h-4.9v3.4h4.2V11369.6z"/>
		<path class="st5" d="M1004.3,11374c-0.1-0.1-0.1-0.4-0.2-0.8c-0.6,0.6-1.3,0.9-2.1,0.9c-0.7,0-1.3-0.2-1.8-0.6
			c-0.5-0.4-0.7-0.9-0.7-1.6c0-0.8,0.3-1.4,0.9-1.8c0.6-0.4,1.4-0.6,2.5-0.6h1.2v-0.6c0-0.4-0.1-0.8-0.4-1.1
			c-0.3-0.3-0.7-0.4-1.2-0.4c-0.5,0-0.8,0.1-1.1,0.3s-0.5,0.5-0.5,0.8h-1.3c0-0.4,0.1-0.7,0.4-1.1c0.3-0.3,0.6-0.6,1.1-0.8
			s0.9-0.3,1.5-0.3c0.9,0,1.5,0.2,2,0.6c0.5,0.4,0.7,1,0.8,1.8v3.4c0,0.7,0.1,1.2,0.3,1.6v0.1H1004.3z M1002.2,11373
			c0.4,0,0.8-0.1,1.1-0.3s0.6-0.5,0.8-0.8v-1.5h-1c-1.5,0-2.3,0.5-2.3,1.4c0,0.4,0.1,0.7,0.4,0.9S1001.8,11373,1002.2,11373z"/>
		<path class="st5" d="M1010.3,11373.1c0.5,0,0.8-0.1,1.2-0.4s0.5-0.6,0.6-1h1.2c0,0.4-0.2,0.8-0.4,1.2s-0.6,0.7-1.1,0.9
			s-0.9,0.3-1.4,0.3c-1,0-1.8-0.3-2.4-1c-0.6-0.7-0.9-1.6-0.9-2.8v-0.2c0-0.7,0.1-1.4,0.4-1.9s0.6-1,1.1-1.3s1.1-0.5,1.8-0.5
			c0.8,0,1.5,0.2,2.1,0.7s0.8,1.1,0.9,1.9h-1.2c0-0.5-0.2-0.9-0.5-1.2c-0.3-0.3-0.7-0.5-1.2-0.5c-0.6,0-1.1,0.2-1.5,0.7
			c-0.4,0.5-0.5,1.1-0.5,2v0.2c0,0.9,0.2,1.5,0.5,2S1009.7,11373.1,1010.3,11373.1z"/>
		<path class="st5" d="M1017.8,11374.1c-1,0-1.8-0.3-2.4-1c-0.6-0.7-0.9-1.5-0.9-2.6v-0.2c0-0.7,0.1-1.4,0.4-2
			c0.3-0.6,0.7-1,1.2-1.4c0.5-0.3,1-0.5,1.6-0.5c1,0,1.7,0.3,2.2,1s0.8,1.5,0.8,2.7v0.5h-5c0,0.7,0.2,1.3,0.6,1.8
			c0.4,0.4,0.9,0.7,1.6,0.7c0.4,0,0.8-0.1,1.1-0.3s0.6-0.4,0.8-0.7l0.8,0.6C1019.9,11373.7,1019,11374.1,1017.8,11374.1z
			 M1017.6,11367.5c-0.5,0-0.9,0.2-1.3,0.6c-0.3,0.4-0.6,0.9-0.6,1.6h3.7v-0.1c0-0.6-0.2-1.1-0.5-1.5
			C1018.5,11367.7,1018.1,11367.5,1017.6,11367.5z"/>
		<path class="st5" d="M1026.4,11372c0-0.3-0.1-0.6-0.4-0.8c-0.3-0.2-0.7-0.4-1.3-0.5s-1.1-0.3-1.5-0.5s-0.7-0.4-0.8-0.7
			s-0.3-0.6-0.3-0.9c0-0.6,0.3-1.1,0.8-1.5s1.2-0.6,2-0.6c0.8,0,1.5,0.2,2,0.6s0.8,1,0.8,1.7h-1.3c0-0.3-0.1-0.6-0.4-0.9
			s-0.7-0.4-1.1-0.4c-0.5,0-0.8,0.1-1.1,0.3s-0.4,0.5-0.4,0.8c0,0.3,0.1,0.5,0.4,0.7s0.7,0.3,1.3,0.4s1.1,0.3,1.5,0.5
			s0.7,0.4,0.9,0.7c0.2,0.3,0.3,0.6,0.3,1c0,0.7-0.3,1.2-0.8,1.6c-0.5,0.4-1.2,0.6-2.1,0.6c-0.6,0-1.1-0.1-1.6-0.3s-0.8-0.5-1.1-0.9
			c-0.3-0.4-0.4-0.8-0.4-1.2h1.3c0,0.4,0.2,0.8,0.5,1c0.3,0.2,0.7,0.4,1.3,0.4c0.5,0,0.9-0.1,1.2-0.3
			C1026.3,11372.6,1026.4,11372.4,1026.4,11372z"/>
		<path class="st5" d="M1032.7,11370c0-1,0.1-2,0.4-3c0.3-0.9,0.7-1.8,1.2-2.6s1.1-1.3,1.7-1.6l0.3,0.8c-0.7,0.5-1.2,1.3-1.6,2.3
			c-0.4,1-0.7,2.2-0.7,3.5l0,0.6c0,1.8,0.3,3.3,1,4.6c0.4,0.8,0.8,1.4,1.4,1.8l-0.3,0.8c-0.6-0.3-1.2-0.9-1.7-1.7
			C1033.3,11374,1032.7,11372.1,1032.7,11370z"/>
		<path class="st5" d="M1041.9,11364h1.3v7c0,1-0.3,1.7-0.9,2.2c-0.6,0.5-1.3,0.8-2.3,0.8c-1,0-1.8-0.3-2.3-0.8
			c-0.6-0.5-0.8-1.2-0.8-2.1h1.3c0,0.6,0.2,1,0.5,1.3c0.3,0.3,0.8,0.5,1.4,0.5c0.5,0,1-0.2,1.3-0.5s0.5-0.8,0.5-1.4V11364z"/>
		<path class="st5" d="M1048.4,11369.6c-1.1-0.3-1.9-0.7-2.5-1.2c-0.5-0.5-0.8-1.1-0.8-1.7c0-0.8,0.3-1.4,0.9-1.9
			c0.6-0.5,1.4-0.8,2.4-0.8c0.7,0,1.3,0.1,1.8,0.4c0.5,0.3,1,0.6,1.2,1.1s0.4,1,0.4,1.5h-1.3c0-0.6-0.2-1.1-0.6-1.4
			c-0.4-0.3-0.9-0.5-1.6-0.5c-0.6,0-1.2,0.1-1.5,0.4c-0.4,0.3-0.5,0.7-0.5,1.2c0,0.4,0.2,0.8,0.5,1c0.3,0.3,0.9,0.5,1.8,0.8
			c0.8,0.2,1.5,0.5,1.9,0.8c0.5,0.3,0.8,0.6,1,1s0.3,0.8,0.3,1.3c0,0.8-0.3,1.5-0.9,1.9c-0.6,0.5-1.5,0.7-2.5,0.7
			c-0.7,0-1.3-0.1-1.9-0.4c-0.6-0.3-1-0.6-1.4-1.1s-0.5-1-0.5-1.6h1.3c0,0.6,0.2,1.1,0.7,1.4c0.4,0.3,1,0.5,1.8,0.5
			c0.7,0,1.2-0.1,1.6-0.4s0.6-0.7,0.6-1.2s-0.2-0.9-0.5-1.1C1049.9,11370.1,1049.3,11369.8,1048.4,11369.6z"/>
		<path class="st5" d="M1059.3,11369.6h-4.2v4.4h-1.3v-10h6.2v1.1h-4.9v3.4h4.2V11369.6z"/>
		<path class="st5" d="M1064.3,11370c0,1-0.1,2-0.4,2.9c-0.3,0.9-0.7,1.8-1.2,2.6c-0.5,0.8-1.1,1.3-1.7,1.7l-0.3-0.8
			c0.7-0.5,1.3-1.4,1.7-2.5c0.4-1.1,0.6-2.4,0.7-3.8v-0.2c0-1-0.1-1.8-0.3-2.7c-0.2-0.8-0.5-1.6-0.8-2.2c-0.4-0.7-0.8-1.2-1.2-1.5
			l0.3-0.8c0.6,0.3,1.2,0.9,1.7,1.7c0.5,0.8,1,1.6,1.2,2.6C1064.1,11368,1064.3,11369,1064.3,11370z"/>
	</g>
	<g class="st2">
		<path class="st5" d="M1193.4,11384v-10h3.3c1.1,0,1.9,0.2,2.4,0.7c0.5,0.4,0.8,1.1,0.8,2c0,0.5-0.1,0.9-0.4,1.2
			c-0.3,0.4-0.6,0.6-1.1,0.8c0.5,0.2,1,0.4,1.3,0.9c0.3,0.4,0.5,0.9,0.5,1.5c0,0.9-0.3,1.6-0.9,2.1s-1.4,0.8-2.5,0.8H1193.4z
			 M1194.7,11378.3h2c0.6,0,1-0.1,1.4-0.4c0.3-0.3,0.5-0.7,0.5-1.2c0-0.5-0.2-0.9-0.5-1.2c-0.3-0.2-0.8-0.4-1.5-0.4h-1.9V11378.3z
			 M1194.7,11379.3v3.6h2.2c0.6,0,1.1-0.2,1.4-0.5c0.4-0.3,0.5-0.8,0.5-1.3c0-1.2-0.7-1.8-2-1.8H1194.7z"/>
		<path class="st5" d="M1206.4,11384c-0.1-0.1-0.1-0.4-0.2-0.8c-0.6,0.6-1.3,0.9-2.1,0.9c-0.7,0-1.3-0.2-1.8-0.6
			c-0.5-0.4-0.7-0.9-0.7-1.6c0-0.8,0.3-1.4,0.9-1.8c0.6-0.4,1.4-0.6,2.5-0.6h1.2v-0.6c0-0.4-0.1-0.8-0.4-1.1
			c-0.3-0.3-0.7-0.4-1.2-0.4c-0.5,0-0.8,0.1-1.1,0.3s-0.5,0.5-0.5,0.8h-1.3c0-0.4,0.1-0.7,0.4-1.1c0.3-0.3,0.6-0.6,1.1-0.8
			c0.4-0.2,0.9-0.3,1.5-0.3c0.9,0,1.5,0.2,2,0.6c0.5,0.4,0.7,1,0.8,1.8v3.4c0,0.7,0.1,1.2,0.3,1.6v0.1H1206.4z M1204.4,11383
			c0.4,0,0.8-0.1,1.1-0.3s0.6-0.5,0.8-0.8v-1.5h-1c-1.5,0-2.3,0.5-2.3,1.4c0,0.4,0.1,0.7,0.4,0.9S1203.9,11383,1204.4,11383z"/>
		<path class="st5" d="M1213.8,11382c0-0.3-0.1-0.6-0.4-0.8c-0.3-0.2-0.7-0.4-1.3-0.5c-0.6-0.1-1.1-0.3-1.5-0.5
			c-0.4-0.2-0.7-0.4-0.8-0.7c-0.2-0.3-0.3-0.6-0.3-0.9c0-0.6,0.3-1.1,0.8-1.5c0.5-0.4,1.2-0.6,2-0.6c0.8,0,1.5,0.2,2,0.6
			c0.5,0.4,0.8,1,0.8,1.7h-1.3c0-0.3-0.1-0.6-0.4-0.9c-0.3-0.3-0.7-0.4-1.1-0.4c-0.5,0-0.8,0.1-1.1,0.3s-0.4,0.5-0.4,0.8
			c0,0.3,0.1,0.5,0.4,0.7s0.7,0.3,1.3,0.4c0.6,0.1,1.1,0.3,1.5,0.5s0.7,0.4,0.9,0.7c0.2,0.3,0.3,0.6,0.3,1c0,0.7-0.3,1.2-0.8,1.6
			c-0.5,0.4-1.2,0.6-2.1,0.6c-0.6,0-1.1-0.1-1.6-0.3s-0.8-0.5-1.1-0.9c-0.3-0.4-0.4-0.8-0.4-1.2h1.3c0,0.4,0.2,0.8,0.5,1
			c0.3,0.2,0.7,0.4,1.3,0.4c0.5,0,0.9-0.1,1.2-0.3C1213.7,11382.6,1213.8,11382.4,1213.8,11382z"/>
		<path class="st5" d="M1219.8,11384.1c-1,0-1.8-0.3-2.4-1c-0.6-0.7-0.9-1.5-0.9-2.6v-0.2c0-0.7,0.1-1.4,0.4-2
			c0.3-0.6,0.7-1,1.2-1.4c0.5-0.3,1-0.5,1.6-0.5c1,0,1.7,0.3,2.2,1s0.8,1.5,0.8,2.7v0.5h-5c0,0.7,0.2,1.3,0.6,1.8
			c0.4,0.4,0.9,0.7,1.6,0.7c0.4,0,0.8-0.1,1.1-0.3s0.6-0.4,0.8-0.7l0.8,0.6C1222,11383.7,1221,11384.1,1219.8,11384.1z
			 M1219.6,11377.5c-0.5,0-0.9,0.2-1.3,0.6c-0.3,0.4-0.6,0.9-0.6,1.6h3.7v-0.1c0-0.6-0.2-1.1-0.5-1.5
			C1220.6,11377.7,1220.2,11377.5,1219.6,11377.5z"/>
		<path class="st5" d="M1228.4,11382c0-0.3-0.1-0.6-0.4-0.8c-0.3-0.2-0.7-0.4-1.3-0.5c-0.6-0.1-1.1-0.3-1.5-0.5
			c-0.4-0.2-0.7-0.4-0.8-0.7c-0.2-0.3-0.3-0.6-0.3-0.9c0-0.6,0.3-1.1,0.8-1.5c0.5-0.4,1.2-0.6,2-0.6c0.8,0,1.5,0.2,2,0.6
			c0.5,0.4,0.8,1,0.8,1.7h-1.3c0-0.3-0.1-0.6-0.4-0.9c-0.3-0.3-0.7-0.4-1.1-0.4c-0.5,0-0.8,0.1-1.1,0.3s-0.4,0.5-0.4,0.8
			c0,0.3,0.1,0.5,0.4,0.7s0.7,0.3,1.3,0.4c0.6,0.1,1.1,0.3,1.5,0.5s0.7,0.4,0.9,0.7c0.2,0.3,0.3,0.6,0.3,1c0,0.7-0.3,1.2-0.8,1.6
			c-0.5,0.4-1.2,0.6-2.1,0.6c-0.6,0-1.1-0.1-1.6-0.3s-0.8-0.5-1.1-0.9c-0.3-0.4-0.4-0.8-0.4-1.2h1.3c0,0.4,0.2,0.8,0.5,1
			c0.3,0.2,0.7,0.4,1.3,0.4c0.5,0,0.9-0.1,1.2-0.3C1228.3,11382.6,1228.4,11382.4,1228.4,11382z"/>
		<path class="st5" d="M1234.5,11380.2c0-1.1,0.3-2,0.8-2.7c0.5-0.7,1.2-1,2.1-1c0.9,0,1.6,0.3,2.1,0.9v-3.9h1.3v10.5h-1.2l-0.1-0.8
			c-0.5,0.6-1.2,0.9-2.1,0.9c-0.9,0-1.6-0.4-2.1-1.1C1234.8,11382.4,1234.5,11381.5,1234.5,11380.2L1234.5,11380.2z M1235.8,11380.4
			c0,0.8,0.2,1.5,0.5,2s0.8,0.7,1.4,0.7c0.8,0,1.4-0.4,1.8-1.1v-3.4c-0.4-0.7-1-1-1.7-1c-0.6,0-1.1,0.2-1.4,0.7
			S1235.8,11379.4,1235.8,11380.4z"/>
		<path class="st5" d="M1245.8,11384.1c-1,0-1.8-0.3-2.4-1c-0.6-0.7-0.9-1.5-0.9-2.6v-0.2c0-0.7,0.1-1.4,0.4-2
			c0.3-0.6,0.7-1,1.2-1.4c0.5-0.3,1-0.5,1.6-0.5c1,0,1.7,0.3,2.2,1s0.8,1.5,0.8,2.7v0.5h-5c0,0.7,0.2,1.3,0.6,1.8
			c0.4,0.4,0.9,0.7,1.6,0.7c0.4,0,0.8-0.1,1.1-0.3s0.6-0.4,0.8-0.7l0.8,0.6C1248,11383.7,1247,11384.1,1245.8,11384.1z
			 M1245.6,11377.5c-0.5,0-0.9,0.2-1.3,0.6c-0.3,0.4-0.6,0.9-0.6,1.6h3.7v-0.1c0-0.6-0.2-1.1-0.5-1.5
			C1246.6,11377.7,1246.2,11377.5,1245.6,11377.5z"/>
		<path class="st5" d="M1253.3,11380.2c0-1.1,0.3-2,0.8-2.7c0.5-0.7,1.2-1,2.1-1c0.9,0,1.6,0.3,2.1,0.9v-3.9h1.3v10.5h-1.2l-0.1-0.8
			c-0.5,0.6-1.2,0.9-2.1,0.9c-0.9,0-1.6-0.4-2.1-1.1C1253.6,11382.4,1253.3,11381.5,1253.3,11380.2L1253.3,11380.2z M1254.6,11380.4
			c0,0.8,0.2,1.5,0.5,2s0.8,0.7,1.4,0.7c0.8,0,1.4-0.4,1.8-1.1v-3.4c-0.4-0.7-1-1-1.7-1c-0.6,0-1.1,0.2-1.4,0.7
			S1254.6,11379.4,1254.6,11380.4z"/>
		<path class="st5" d="M1266.1,11384c-0.1-0.1-0.1-0.4-0.2-0.8c-0.6,0.6-1.3,0.9-2.1,0.9c-0.7,0-1.3-0.2-1.8-0.6
			c-0.5-0.4-0.7-0.9-0.7-1.6c0-0.8,0.3-1.4,0.9-1.8c0.6-0.4,1.4-0.6,2.5-0.6h1.2v-0.6c0-0.4-0.1-0.8-0.4-1.1
			c-0.3-0.3-0.7-0.4-1.2-0.4c-0.5,0-0.8,0.1-1.1,0.3s-0.5,0.5-0.5,0.8h-1.3c0-0.4,0.1-0.7,0.4-1.1c0.3-0.3,0.6-0.6,1.1-0.8
			c0.4-0.2,0.9-0.3,1.5-0.3c0.9,0,1.5,0.2,2,0.6c0.5,0.4,0.7,1,0.8,1.8v3.4c0,0.7,0.1,1.2,0.3,1.6v0.1H1266.1z M1264,11383
			c0.4,0,0.8-0.1,1.1-0.3s0.6-0.5,0.8-0.8v-1.5h-1c-1.5,0-2.3,0.5-2.3,1.4c0,0.4,0.1,0.7,0.4,0.9S1263.5,11383,1264,11383z"/>
		<path class="st5" d="M1270.8,11374.8v1.8h1.4v1h-1.4v4.6c0,0.3,0.1,0.5,0.2,0.7s0.3,0.2,0.6,0.2c0.1,0,0.3,0,0.6-0.1v1
			c-0.3,0.1-0.7,0.1-1,0.1c-0.6,0-1-0.2-1.3-0.5s-0.4-0.8-0.4-1.5v-4.6h-1.3v-1h1.3v-1.8H1270.8z"/>
		<path class="st5" d="M1273.2,11380.2c0-0.7,0.1-1.4,0.4-2c0.3-0.6,0.7-1,1.2-1.3c0.5-0.3,1.1-0.5,1.7-0.5c1,0,1.8,0.3,2.4,1
			c0.6,0.7,0.9,1.6,0.9,2.8v0.1c0,0.7-0.1,1.4-0.4,1.9c-0.3,0.6-0.7,1-1.2,1.3c-0.5,0.3-1.1,0.5-1.8,0.5c-1,0-1.8-0.3-2.4-1
			C1273.5,11382.4,1273.2,11381.5,1273.2,11380.2L1273.2,11380.2z M1274.5,11380.4c0,0.8,0.2,1.5,0.6,2c0.4,0.5,0.9,0.7,1.5,0.7
			c0.6,0,1.2-0.3,1.5-0.8c0.4-0.5,0.6-1.2,0.6-2.1c0-0.8-0.2-1.5-0.6-2c-0.4-0.5-0.9-0.8-1.5-0.8c-0.6,0-1.1,0.2-1.5,0.7
			S1274.5,11379.5,1274.5,11380.4z"/>
		<path class="st5" d="M1285.8,11382c0-0.3-0.1-0.6-0.4-0.8c-0.3-0.2-0.7-0.4-1.3-0.5c-0.6-0.1-1.1-0.3-1.5-0.5
			c-0.4-0.2-0.7-0.4-0.8-0.7c-0.2-0.3-0.3-0.6-0.3-0.9c0-0.6,0.3-1.1,0.8-1.5c0.5-0.4,1.2-0.6,2-0.6c0.8,0,1.5,0.2,2,0.6
			c0.5,0.4,0.8,1,0.8,1.7h-1.3c0-0.3-0.1-0.6-0.4-0.9c-0.3-0.3-0.7-0.4-1.1-0.4c-0.5,0-0.8,0.1-1.1,0.3s-0.4,0.5-0.4,0.8
			c0,0.3,0.1,0.5,0.4,0.7s0.7,0.3,1.3,0.4c0.6,0.1,1.1,0.3,1.5,0.5s0.7,0.4,0.9,0.7c0.2,0.3,0.3,0.6,0.3,1c0,0.7-0.3,1.2-0.8,1.6
			c-0.5,0.4-1.2,0.6-2.1,0.6c-0.6,0-1.1-0.1-1.6-0.3s-0.8-0.5-1.1-0.9c-0.3-0.4-0.4-0.8-0.4-1.2h1.3c0,0.4,0.2,0.8,0.5,1
			c0.3,0.2,0.7,0.4,1.3,0.4c0.5,0,0.9-0.1,1.2-0.3C1285.7,11382.6,1285.8,11382.4,1285.8,11382z"/>
	</g>
	<g class="st2">
		<path class="st5" d="M1193.4,11531v-10h3.3c1.1,0,1.9,0.2,2.4,0.7c0.5,0.4,0.8,1.1,0.8,2c0,0.5-0.1,0.9-0.4,1.2
			c-0.3,0.4-0.6,0.6-1.1,0.8c0.5,0.2,1,0.4,1.3,0.9c0.3,0.4,0.5,0.9,0.5,1.5c0,0.9-0.3,1.6-0.9,2.1s-1.4,0.8-2.5,0.8H1193.4z
			 M1194.7,11525.3h2c0.6,0,1-0.1,1.4-0.4c0.3-0.3,0.5-0.7,0.5-1.2c0-0.5-0.2-0.9-0.5-1.2c-0.3-0.2-0.8-0.4-1.5-0.4h-1.9V11525.3z
			 M1194.7,11526.3v3.6h2.2c0.6,0,1.1-0.2,1.4-0.5c0.4-0.3,0.5-0.8,0.5-1.3c0-1.2-0.7-1.8-2-1.8H1194.7z"/>
		<path class="st5" d="M1206.4,11531c-0.1-0.1-0.1-0.4-0.2-0.8c-0.6,0.6-1.3,0.9-2.1,0.9c-0.7,0-1.3-0.2-1.8-0.6
			c-0.5-0.4-0.7-0.9-0.7-1.6c0-0.8,0.3-1.4,0.9-1.8c0.6-0.4,1.4-0.6,2.5-0.6h1.2v-0.6c0-0.4-0.1-0.8-0.4-1.1
			c-0.3-0.3-0.7-0.4-1.2-0.4c-0.5,0-0.8,0.1-1.1,0.3s-0.5,0.5-0.5,0.8h-1.3c0-0.4,0.1-0.7,0.4-1.1c0.3-0.3,0.6-0.6,1.1-0.8
			c0.4-0.2,0.9-0.3,1.5-0.3c0.9,0,1.5,0.2,2,0.6c0.5,0.4,0.7,1,0.8,1.8v3.4c0,0.7,0.1,1.2,0.3,1.6v0.1H1206.4z M1204.4,11530
			c0.4,0,0.8-0.1,1.1-0.3s0.6-0.5,0.8-0.8v-1.5h-1c-1.5,0-2.3,0.5-2.3,1.4c0,0.4,0.1,0.7,0.4,0.9S1203.9,11530,1204.4,11530z"/>
		<path class="st5" d="M1213.8,11529c0-0.3-0.1-0.6-0.4-0.8c-0.3-0.2-0.7-0.4-1.3-0.5c-0.6-0.1-1.1-0.3-1.5-0.5
			c-0.4-0.2-0.7-0.4-0.8-0.7c-0.2-0.3-0.3-0.6-0.3-0.9c0-0.6,0.3-1.1,0.8-1.5c0.5-0.4,1.2-0.6,2-0.6c0.8,0,1.5,0.2,2,0.6
			c0.5,0.4,0.8,1,0.8,1.7h-1.3c0-0.3-0.1-0.6-0.4-0.9c-0.3-0.3-0.7-0.4-1.1-0.4c-0.5,0-0.8,0.1-1.1,0.3s-0.4,0.5-0.4,0.8
			c0,0.3,0.1,0.5,0.4,0.7s0.7,0.3,1.3,0.4c0.6,0.1,1.1,0.3,1.5,0.5s0.7,0.4,0.9,0.7c0.2,0.3,0.3,0.6,0.3,1c0,0.7-0.3,1.2-0.8,1.6
			c-0.5,0.4-1.2,0.6-2.1,0.6c-0.6,0-1.1-0.1-1.6-0.3s-0.8-0.5-1.1-0.9c-0.3-0.4-0.4-0.8-0.4-1.2h1.3c0,0.4,0.2,0.8,0.5,1
			c0.3,0.2,0.7,0.4,1.3,0.4c0.5,0,0.9-0.1,1.2-0.3C1213.7,11529.6,1213.8,11529.4,1213.8,11529z"/>
		<path class="st5" d="M1219.8,11531.1c-1,0-1.8-0.3-2.4-1c-0.6-0.7-0.9-1.5-0.9-2.6v-0.2c0-0.7,0.1-1.4,0.4-2
			c0.3-0.6,0.7-1,1.2-1.4c0.5-0.3,1-0.5,1.6-0.5c1,0,1.7,0.3,2.2,1s0.8,1.5,0.8,2.7v0.5h-5c0,0.7,0.2,1.3,0.6,1.8
			c0.4,0.4,0.9,0.7,1.6,0.7c0.4,0,0.8-0.1,1.1-0.3s0.6-0.4,0.8-0.7l0.8,0.6C1222,11530.7,1221,11531.1,1219.8,11531.1z
			 M1219.6,11524.5c-0.5,0-0.9,0.2-1.3,0.6c-0.3,0.4-0.6,0.9-0.6,1.6h3.7v-0.1c0-0.6-0.2-1.1-0.5-1.5
			C1220.6,11524.7,1220.2,11524.5,1219.6,11524.5z"/>
		<path class="st5" d="M1228.4,11529c0-0.3-0.1-0.6-0.4-0.8c-0.3-0.2-0.7-0.4-1.3-0.5c-0.6-0.1-1.1-0.3-1.5-0.5
			c-0.4-0.2-0.7-0.4-0.8-0.7c-0.2-0.3-0.3-0.6-0.3-0.9c0-0.6,0.3-1.1,0.8-1.5c0.5-0.4,1.2-0.6,2-0.6c0.8,0,1.5,0.2,2,0.6
			c0.5,0.4,0.8,1,0.8,1.7h-1.3c0-0.3-0.1-0.6-0.4-0.9c-0.3-0.3-0.7-0.4-1.1-0.4c-0.5,0-0.8,0.1-1.1,0.3s-0.4,0.5-0.4,0.8
			c0,0.3,0.1,0.5,0.4,0.7s0.7,0.3,1.3,0.4c0.6,0.1,1.1,0.3,1.5,0.5s0.7,0.4,0.9,0.7c0.2,0.3,0.3,0.6,0.3,1c0,0.7-0.3,1.2-0.8,1.6
			c-0.5,0.4-1.2,0.6-2.1,0.6c-0.6,0-1.1-0.1-1.6-0.3s-0.8-0.5-1.1-0.9c-0.3-0.4-0.4-0.8-0.4-1.2h1.3c0,0.4,0.2,0.8,0.5,1
			c0.3,0.2,0.7,0.4,1.3,0.4c0.5,0,0.9-0.1,1.2-0.3C1228.3,11529.6,1228.4,11529.4,1228.4,11529z"/>
		<path class="st5" d="M1234.5,11527.2c0-1.1,0.3-2,0.8-2.7c0.5-0.7,1.2-1,2.1-1c0.9,0,1.6,0.3,2.1,0.9v-3.9h1.3v10.5h-1.2l-0.1-0.8
			c-0.5,0.6-1.2,0.9-2.1,0.9c-0.9,0-1.6-0.4-2.1-1.1C1234.8,11529.4,1234.5,11528.5,1234.5,11527.2L1234.5,11527.2z M1235.8,11527.4
			c0,0.8,0.2,1.5,0.5,2s0.8,0.7,1.4,0.7c0.8,0,1.4-0.4,1.8-1.1v-3.4c-0.4-0.7-1-1-1.7-1c-0.6,0-1.1,0.2-1.4,0.7
			S1235.8,11526.4,1235.8,11527.4z"/>
		<path class="st5" d="M1245.8,11531.1c-1,0-1.8-0.3-2.4-1c-0.6-0.7-0.9-1.5-0.9-2.6v-0.2c0-0.7,0.1-1.4,0.4-2
			c0.3-0.6,0.7-1,1.2-1.4c0.5-0.3,1-0.5,1.6-0.5c1,0,1.7,0.3,2.2,1s0.8,1.5,0.8,2.7v0.5h-5c0,0.7,0.2,1.3,0.6,1.8
			c0.4,0.4,0.9,0.7,1.6,0.7c0.4,0,0.8-0.1,1.1-0.3s0.6-0.4,0.8-0.7l0.8,0.6C1248,11530.7,1247,11531.1,1245.8,11531.1z
			 M1245.6,11524.5c-0.5,0-0.9,0.2-1.3,0.6c-0.3,0.4-0.6,0.9-0.6,1.6h3.7v-0.1c0-0.6-0.2-1.1-0.5-1.5
			C1246.6,11524.7,1246.2,11524.5,1245.6,11524.5z"/>
		<path class="st5" d="M1253.3,11527.2c0-1.1,0.3-2,0.8-2.7c0.5-0.7,1.2-1,2.1-1c0.9,0,1.6,0.3,2.1,0.9v-3.9h1.3v10.5h-1.2l-0.1-0.8
			c-0.5,0.6-1.2,0.9-2.1,0.9c-0.9,0-1.6-0.4-2.1-1.1C1253.6,11529.4,1253.3,11528.5,1253.3,11527.2L1253.3,11527.2z M1254.6,11527.4
			c0,0.8,0.2,1.5,0.5,2s0.8,0.7,1.4,0.7c0.8,0,1.4-0.4,1.8-1.1v-3.4c-0.4-0.7-1-1-1.7-1c-0.6,0-1.1,0.2-1.4,0.7
			S1254.6,11526.4,1254.6,11527.4z"/>
		<path class="st5" d="M1266.1,11531c-0.1-0.1-0.1-0.4-0.2-0.8c-0.6,0.6-1.3,0.9-2.1,0.9c-0.7,0-1.3-0.2-1.8-0.6
			c-0.5-0.4-0.7-0.9-0.7-1.6c0-0.8,0.3-1.4,0.9-1.8c0.6-0.4,1.4-0.6,2.5-0.6h1.2v-0.6c0-0.4-0.1-0.8-0.4-1.1
			c-0.3-0.3-0.7-0.4-1.2-0.4c-0.5,0-0.8,0.1-1.1,0.3s-0.5,0.5-0.5,0.8h-1.3c0-0.4,0.1-0.7,0.4-1.1c0.3-0.3,0.6-0.6,1.1-0.8
			c0.4-0.2,0.9-0.3,1.5-0.3c0.9,0,1.5,0.2,2,0.6c0.5,0.4,0.7,1,0.8,1.8v3.4c0,0.7,0.1,1.2,0.3,1.6v0.1H1266.1z M1264,11530
			c0.4,0,0.8-0.1,1.1-0.3s0.6-0.5,0.8-0.8v-1.5h-1c-1.5,0-2.3,0.5-2.3,1.4c0,0.4,0.1,0.7,0.4,0.9S1263.5,11530,1264,11530z"/>
		<path class="st5" d="M1270.8,11521.8v1.8h1.4v1h-1.4v4.6c0,0.3,0.1,0.5,0.2,0.7s0.3,0.2,0.6,0.2c0.1,0,0.3,0,0.6-0.1v1
			c-0.3,0.1-0.7,0.1-1,0.1c-0.6,0-1-0.2-1.3-0.5s-0.4-0.8-0.4-1.5v-4.6h-1.3v-1h1.3v-1.8H1270.8z"/>
		<path class="st5" d="M1273.2,11527.2c0-0.7,0.1-1.4,0.4-2c0.3-0.6,0.7-1,1.2-1.3c0.5-0.3,1.1-0.5,1.7-0.5c1,0,1.8,0.3,2.4,1
			c0.6,0.7,0.9,1.6,0.9,2.8v0.1c0,0.7-0.1,1.4-0.4,1.9c-0.3,0.6-0.7,1-1.2,1.3c-0.5,0.3-1.1,0.5-1.8,0.5c-1,0-1.8-0.3-2.4-1
			C1273.5,11529.4,1273.2,11528.5,1273.2,11527.2L1273.2,11527.2z M1274.5,11527.4c0,0.8,0.2,1.5,0.6,2c0.4,0.5,0.9,0.7,1.5,0.7
			c0.6,0,1.2-0.3,1.5-0.8c0.4-0.5,0.6-1.2,0.6-2.1c0-0.8-0.2-1.5-0.6-2c-0.4-0.5-0.9-0.8-1.5-0.8c-0.6,0-1.1,0.2-1.5,0.7
			S1274.5,11526.5,1274.5,11527.4z"/>
		<path class="st5" d="M1285.8,11529c0-0.3-0.1-0.6-0.4-0.8c-0.3-0.2-0.7-0.4-1.3-0.5c-0.6-0.1-1.1-0.3-1.5-0.5
			c-0.4-0.2-0.7-0.4-0.8-0.7c-0.2-0.3-0.3-0.6-0.3-0.9c0-0.6,0.3-1.1,0.8-1.5c0.5-0.4,1.2-0.6,2-0.6c0.8,0,1.5,0.2,2,0.6
			c0.5,0.4,0.8,1,0.8,1.7h-1.3c0-0.3-0.1-0.6-0.4-0.9c-0.3-0.3-0.7-0.4-1.1-0.4c-0.5,0-0.8,0.1-1.1,0.3s-0.4,0.5-0.4,0.8
			c0,0.3,0.1,0.5,0.4,0.7s0.7,0.3,1.3,0.4c0.6,0.1,1.1,0.3,1.5,0.5s0.7,0.4,0.9,0.7c0.2,0.3,0.3,0.6,0.3,1c0,0.7-0.3,1.2-0.8,1.6
			c-0.5,0.4-1.2,0.6-2.1,0.6c-0.6,0-1.1-0.1-1.6-0.3s-0.8-0.5-1.1-0.9c-0.3-0.4-0.4-0.8-0.4-1.2h1.3c0,0.4,0.2,0.8,0.5,1
			c0.3,0.2,0.7,0.4,1.3,0.4c0.5,0,0.9-0.1,1.2-0.3C1285.7,11529.6,1285.8,11529.4,1285.8,11529z"/>
	</g>
	<g class="st2">
		<path class="st5" d="M984.6,11568.4h-4.3v3.5h5v1.1H979v-10h6.3v1.1h-4.9v3.2h4.3V11568.4z"/>
		<path class="st5" d="M987.9,11565.6l0,0.9c0.6-0.7,1.3-1.1,2.2-1.1c1.6,0,2.4,0.9,2.4,2.6v4.9h-1.3v-4.9c0-0.5-0.1-0.9-0.4-1.2
			s-0.6-0.4-1.1-0.4c-0.4,0-0.8,0.1-1.1,0.3s-0.6,0.5-0.7,0.9v5.3h-1.3v-7.4H987.9z"/>
		<path class="st5" d="M996.2,11563.8v1.8h1.4v1h-1.4v4.6c0,0.3,0.1,0.5,0.2,0.7s0.3,0.2,0.6,0.2c0.1,0,0.3,0,0.6-0.1v1
			c-0.3,0.1-0.7,0.1-1,0.1c-0.6,0-1-0.2-1.3-0.5s-0.4-0.8-0.4-1.5v-4.6h-1.3v-1h1.3v-1.8H996.2z"/>
		<path class="st5" d="M1002.1,11573.1c-1,0-1.8-0.3-2.4-1c-0.6-0.7-0.9-1.5-0.9-2.6v-0.2c0-0.7,0.1-1.4,0.4-2
			c0.3-0.6,0.7-1,1.2-1.4c0.5-0.3,1-0.5,1.6-0.5c1,0,1.7,0.3,2.2,1s0.8,1.5,0.8,2.7v0.5h-5c0,0.7,0.2,1.3,0.6,1.8
			c0.4,0.4,0.9,0.7,1.6,0.7c0.4,0,0.8-0.1,1.1-0.3s0.6-0.4,0.8-0.7l0.8,0.6C1004.3,11572.7,1003.4,11573.1,1002.1,11573.1z
			 M1002,11566.5c-0.5,0-0.9,0.2-1.3,0.6c-0.3,0.4-0.6,0.9-0.6,1.6h3.7v-0.1c0-0.6-0.2-1.1-0.5-1.5
			C1002.9,11566.7,1002.5,11566.5,1002,11566.5z"/>
		<path class="st5" d="M1010,11566.7c-0.2,0-0.4,0-0.6,0c-0.8,0-1.4,0.4-1.7,1.1v5.2h-1.3v-7.4h1.2l0,0.9c0.4-0.7,1-1,1.8-1
			c0.2,0,0.4,0,0.6,0.1V11566.7z"/>
		<path class="st5" d="M1017.4,11569.4c0,1.1-0.3,2-0.8,2.7s-1.2,1-2.1,1c-0.9,0-1.6-0.3-2.1-0.9v3.6h-1.3v-10.2h1.2l0.1,0.8
			c0.5-0.6,1.2-1,2.1-1c0.9,0,1.6,0.3,2.1,1s0.8,1.6,0.8,2.8V11569.4z M1016.2,11569.2c0-0.8-0.2-1.5-0.5-2s-0.8-0.7-1.5-0.7
			c-0.8,0-1.3,0.3-1.7,1v3.5c0.4,0.7,1,1,1.7,1c0.6,0,1.1-0.2,1.4-0.7C1016,11570.9,1016.2,11570.2,1016.2,11569.2z"/>
		<path class="st5" d="M1022.6,11566.7c-0.2,0-0.4,0-0.6,0c-0.8,0-1.4,0.4-1.7,1.1v5.2h-1.3v-7.4h1.2l0,0.9c0.4-0.7,1-1,1.8-1
			c0.2,0,0.4,0,0.6,0.1V11566.7z"/>
		<path class="st5" d="M1023.8,11563.6c0-0.2,0.1-0.4,0.2-0.5s0.3-0.2,0.6-0.2s0.4,0.1,0.6,0.2s0.2,0.3,0.2,0.5s-0.1,0.4-0.2,0.5
			s-0.3,0.2-0.6,0.2s-0.4-0.1-0.6-0.2S1023.8,11563.8,1023.8,11563.6z M1025.2,11573h-1.3v-7.4h1.3V11573z"/>
		<path class="st5" d="M1031.5,11571c0-0.3-0.1-0.6-0.4-0.8c-0.3-0.2-0.7-0.4-1.3-0.5s-1.1-0.3-1.5-0.5s-0.7-0.4-0.8-0.7
			s-0.3-0.6-0.3-0.9c0-0.6,0.3-1.1,0.8-1.5s1.2-0.6,2-0.6c0.8,0,1.5,0.2,2,0.6c0.5,0.4,0.8,1,0.8,1.7h-1.3c0-0.3-0.1-0.6-0.4-0.9
			c-0.3-0.3-0.7-0.4-1.1-0.4c-0.5,0-0.8,0.1-1.1,0.3s-0.4,0.5-0.4,0.8c0,0.3,0.1,0.5,0.4,0.7s0.7,0.3,1.3,0.4s1.1,0.3,1.5,0.5
			s0.7,0.4,0.9,0.7c0.2,0.3,0.3,0.6,0.3,1c0,0.7-0.3,1.2-0.8,1.6c-0.5,0.4-1.2,0.6-2.1,0.6c-0.6,0-1.1-0.1-1.6-0.3s-0.8-0.5-1.1-0.9
			c-0.3-0.4-0.4-0.8-0.4-1.2h1.3c0,0.4,0.2,0.8,0.5,1c0.3,0.2,0.7,0.4,1.3,0.4c0.5,0,0.9-0.1,1.2-0.3
			C1031.4,11571.6,1031.5,11571.4,1031.5,11571z"/>
		<path class="st5" d="M1037.5,11573.1c-1,0-1.8-0.3-2.4-1c-0.6-0.7-0.9-1.5-0.9-2.6v-0.2c0-0.7,0.1-1.4,0.4-2
			c0.3-0.6,0.7-1,1.2-1.4c0.5-0.3,1-0.5,1.6-0.5c1,0,1.7,0.3,2.2,1s0.8,1.5,0.8,2.7v0.5h-5c0,0.7,0.2,1.3,0.6,1.8
			c0.4,0.4,0.9,0.7,1.6,0.7c0.4,0,0.8-0.1,1.1-0.3s0.6-0.4,0.8-0.7l0.8,0.6C1039.6,11572.7,1038.7,11573.1,1037.5,11573.1z
			 M1037.3,11566.5c-0.5,0-0.9,0.2-1.3,0.6c-0.3,0.4-0.6,0.9-0.6,1.6h3.7v-0.1c0-0.6-0.2-1.1-0.5-1.5
			C1038.3,11566.7,1037.8,11566.5,1037.3,11566.5z"/>
		<path class="st5" d="M1051.6,11569.4c0,1.1-0.3,2-0.8,2.7c-0.5,0.7-1.2,1-2.1,1c-0.9,0-1.7-0.3-2.2-1l-0.1,0.9h-1.2v-10.5h1.3v3.9
			c0.5-0.6,1.2-1,2.1-1s1.6,0.3,2.1,1c0.5,0.7,0.8,1.6,0.8,2.8V11569.4z M1050.3,11569.2c0-0.9-0.2-1.5-0.5-2s-0.8-0.7-1.4-0.7
			c-0.8,0-1.4,0.4-1.8,1.2v3.2c0.4,0.8,1,1.2,1.8,1.2c0.6,0,1.1-0.2,1.4-0.7S1050.3,11570.2,1050.3,11569.2z"/>
		<path class="st5" d="M1056.2,11573.1c-1,0-1.8-0.3-2.4-1c-0.6-0.7-0.9-1.5-0.9-2.6v-0.2c0-0.7,0.1-1.4,0.4-2
			c0.3-0.6,0.7-1,1.2-1.4c0.5-0.3,1-0.5,1.6-0.5c1,0,1.7,0.3,2.2,1s0.8,1.5,0.8,2.7v0.5h-5c0,0.7,0.2,1.3,0.6,1.8
			c0.4,0.4,0.9,0.7,1.6,0.7c0.4,0,0.8-0.1,1.1-0.3s0.6-0.4,0.8-0.7l0.8,0.6C1058.4,11572.7,1057.5,11573.1,1056.2,11573.1z
			 M1056.1,11566.5c-0.5,0-0.9,0.2-1.3,0.6c-0.3,0.4-0.6,0.9-0.6,1.6h3.7v-0.1c0-0.6-0.2-1.1-0.5-1.5
			C1057,11566.7,1056.6,11566.5,1056.1,11566.5z"/>
		<path class="st5" d="M1065.1,11573c-0.1-0.1-0.1-0.4-0.2-0.8c-0.6,0.6-1.3,0.9-2.1,0.9c-0.7,0-1.3-0.2-1.8-0.6
			c-0.5-0.4-0.7-0.9-0.7-1.6c0-0.8,0.3-1.4,0.9-1.8c0.6-0.4,1.4-0.6,2.5-0.6h1.2v-0.6c0-0.4-0.1-0.8-0.4-1.1
			c-0.3-0.3-0.7-0.4-1.2-0.4c-0.5,0-0.8,0.1-1.1,0.3s-0.5,0.5-0.5,0.8h-1.3c0-0.4,0.1-0.7,0.4-1.1c0.3-0.3,0.6-0.6,1.1-0.8
			c0.4-0.2,0.9-0.3,1.5-0.3c0.9,0,1.5,0.2,2,0.6c0.5,0.4,0.7,1,0.8,1.8v3.4c0,0.7,0.1,1.2,0.3,1.6v0.1H1065.1z M1063,11572
			c0.4,0,0.8-0.1,1.1-0.3s0.6-0.5,0.8-0.8v-1.5h-1c-1.5,0-2.3,0.5-2.3,1.4c0,0.4,0.1,0.7,0.4,0.9S1062.6,11572,1063,11572z"/>
		<path class="st5" d="M1069.4,11565.6l0,0.9c0.6-0.7,1.3-1.1,2.2-1.1c1.6,0,2.4,0.9,2.4,2.6v4.9h-1.3v-4.9c0-0.5-0.1-0.9-0.4-1.2
			c-0.2-0.3-0.6-0.4-1.1-0.4c-0.4,0-0.8,0.1-1.1,0.3s-0.6,0.5-0.7,0.9v5.3h-1.3v-7.4H1069.4z"/>
		<path class="st5" d="M1080.2,11571c0-0.3-0.1-0.6-0.4-0.8c-0.3-0.2-0.7-0.4-1.3-0.5c-0.6-0.1-1.1-0.3-1.5-0.5
			c-0.4-0.2-0.7-0.4-0.8-0.7c-0.2-0.3-0.3-0.6-0.3-0.9c0-0.6,0.3-1.1,0.8-1.5c0.5-0.4,1.2-0.6,2-0.6c0.8,0,1.5,0.2,2,0.6
			c0.5,0.4,0.8,1,0.8,1.7h-1.3c0-0.3-0.1-0.6-0.4-0.9c-0.3-0.3-0.7-0.4-1.1-0.4c-0.5,0-0.8,0.1-1.1,0.3s-0.4,0.5-0.4,0.8
			c0,0.3,0.1,0.5,0.4,0.7s0.7,0.3,1.3,0.4c0.6,0.1,1.1,0.3,1.5,0.5s0.7,0.4,0.9,0.7c0.2,0.3,0.3,0.6,0.3,1c0,0.7-0.3,1.2-0.8,1.6
			c-0.5,0.4-1.2,0.6-2.1,0.6c-0.6,0-1.1-0.1-1.6-0.3s-0.8-0.5-1.1-0.9c-0.3-0.4-0.4-0.8-0.4-1.2h1.3c0,0.4,0.2,0.8,0.5,1
			c0.3,0.2,0.7,0.4,1.3,0.4c0.5,0,0.9-0.1,1.2-0.3C1080.1,11571.6,1080.2,11571.4,1080.2,11571z"/>
	</g>
	<g class="st2">
		<path class="st5" d="M769.4,11543.4h-4.2l-0.9,2.6h-1.4l3.8-10h1.1l3.8,10h-1.3L769.4,11543.4z M765.6,11542.3h3.4l-1.7-4.7
			L765.6,11542.3z"/>
		<path class="st5" d="M779.1,11542.4c0,1.1-0.3,2-0.8,2.7s-1.2,1-2.1,1c-0.9,0-1.6-0.3-2.1-0.9v3.6h-1.3v-10.2h1.2l0.1,0.8
			c0.5-0.6,1.2-1,2.1-1c0.9,0,1.6,0.3,2.1,1s0.8,1.6,0.8,2.8V11542.4z M777.8,11542.2c0-0.8-0.2-1.5-0.5-2s-0.8-0.7-1.5-0.7
			c-0.8,0-1.3,0.3-1.7,1v3.5c0.4,0.7,1,1,1.7,1c0.6,0,1.1-0.2,1.4-0.7C777.6,11543.9,777.8,11543.2,777.8,11542.2z"/>
		<path class="st5" d="M782.1,11546h-1.3v-10.5h1.3V11546z"/>
		<path class="st5" d="M784.1,11536.6c0-0.2,0.1-0.4,0.2-0.5s0.3-0.2,0.6-0.2s0.4,0.1,0.6,0.2s0.2,0.3,0.2,0.5s-0.1,0.4-0.2,0.5
			s-0.3,0.2-0.6,0.2s-0.4-0.1-0.6-0.2S784.1,11536.8,784.1,11536.6z M785.5,11546h-1.3v-7.4h1.3V11546z"/>
		<path class="st5" d="M790.5,11545.1c0.5,0,0.8-0.1,1.2-0.4s0.5-0.6,0.6-1h1.2c0,0.4-0.2,0.8-0.4,1.2s-0.6,0.7-1.1,0.9
			s-0.9,0.3-1.4,0.3c-1,0-1.8-0.3-2.4-1c-0.6-0.7-0.9-1.6-0.9-2.8v-0.2c0-0.7,0.1-1.4,0.4-1.9s0.6-1,1.1-1.3s1.1-0.5,1.8-0.5
			c0.8,0,1.5,0.2,2.1,0.7s0.8,1.1,0.9,1.9h-1.2c0-0.5-0.2-0.9-0.5-1.2c-0.3-0.3-0.7-0.5-1.2-0.5c-0.6,0-1.1,0.2-1.5,0.7
			c-0.4,0.5-0.5,1.1-0.5,2v0.2c0,0.9,0.2,1.5,0.5,2S789.8,11545.1,790.5,11545.1z"/>
		<path class="st5" d="M799.4,11546c-0.1-0.1-0.1-0.4-0.2-0.8c-0.6,0.6-1.3,0.9-2.1,0.9c-0.7,0-1.3-0.2-1.8-0.6
			c-0.5-0.4-0.7-0.9-0.7-1.6c0-0.8,0.3-1.4,0.9-1.8c0.6-0.4,1.4-0.6,2.5-0.6h1.2v-0.6c0-0.4-0.1-0.8-0.4-1.1
			c-0.3-0.3-0.7-0.4-1.2-0.4c-0.5,0-0.8,0.1-1.1,0.3s-0.5,0.5-0.5,0.8h-1.3c0-0.4,0.1-0.7,0.4-1.1c0.3-0.3,0.6-0.6,1.1-0.8
			s0.9-0.3,1.5-0.3c0.9,0,1.5,0.2,2,0.6c0.5,0.4,0.7,1,0.8,1.8v3.4c0,0.7,0.1,1.2,0.3,1.6v0.1H799.4z M797.3,11545
			c0.4,0,0.8-0.1,1.1-0.3s0.6-0.5,0.8-0.8v-1.5h-1c-1.5,0-2.3,0.5-2.3,1.4c0,0.4,0.1,0.7,0.4,0.9S796.9,11545,797.3,11545z"/>
		<path class="st5" d="M805.4,11545.1c0.5,0,0.8-0.1,1.2-0.4s0.5-0.6,0.6-1h1.2c0,0.4-0.2,0.8-0.4,1.2s-0.6,0.7-1.1,0.9
			s-0.9,0.3-1.4,0.3c-1,0-1.8-0.3-2.4-1c-0.6-0.7-0.9-1.6-0.9-2.8v-0.2c0-0.7,0.1-1.4,0.4-1.9s0.6-1,1.1-1.3s1.1-0.5,1.8-0.5
			c0.8,0,1.5,0.2,2.1,0.7s0.8,1.1,0.9,1.9h-1.2c0-0.5-0.2-0.9-0.5-1.2c-0.3-0.3-0.7-0.5-1.2-0.5c-0.6,0-1.1,0.2-1.5,0.7
			c-0.4,0.5-0.5,1.1-0.5,2v0.2c0,0.9,0.2,1.5,0.5,2S804.7,11545.1,805.4,11545.1z"/>
		<path class="st5" d="M809.8,11536.6c0-0.2,0.1-0.4,0.2-0.5s0.3-0.2,0.6-0.2s0.4,0.1,0.6,0.2s0.2,0.3,0.2,0.5s-0.1,0.4-0.2,0.5
			s-0.3,0.2-0.6,0.2s-0.4-0.1-0.6-0.2S809.8,11536.8,809.8,11536.6z M811.1,11546h-1.3v-7.4h1.3V11546z"/>
		<path class="st5" d="M812.8,11542.2c0-0.7,0.1-1.4,0.4-2s0.7-1,1.2-1.3s1.1-0.5,1.7-0.5c1,0,1.8,0.3,2.4,1s0.9,1.6,0.9,2.8v0.1
			c0,0.7-0.1,1.4-0.4,1.9c-0.3,0.6-0.7,1-1.2,1.3s-1.1,0.5-1.8,0.5c-1,0-1.8-0.3-2.4-1S812.8,11543.5,812.8,11542.2L812.8,11542.2z
			 M814.1,11542.4c0,0.8,0.2,1.5,0.6,2s0.9,0.7,1.5,0.7c0.6,0,1.2-0.3,1.5-0.8c0.4-0.5,0.6-1.2,0.6-2.1c0-0.8-0.2-1.5-0.6-2
			c-0.4-0.5-0.9-0.8-1.5-0.8c-0.6,0-1.1,0.2-1.5,0.7S814.1,11541.5,814.1,11542.4z M816.7,11535.5h1.5l-1.8,2l-1,0L816.7,11535.5z"
			/>
		<path class="st5" d="M822.3,11538.6l0,0.9c0.6-0.7,1.3-1.1,2.2-1.1c1.6,0,2.4,0.9,2.4,2.6v4.9h-1.3v-4.9c0-0.5-0.1-0.9-0.4-1.2
			s-0.6-0.4-1.1-0.4c-0.4,0-0.8,0.1-1.1,0.3s-0.6,0.5-0.7,0.9v5.3h-1.3v-7.4H822.3z"/>
		<path class="st5" d="M836.7,11536h1.3v7c0,1-0.3,1.7-0.9,2.2s-1.3,0.8-2.3,0.8c-1,0-1.8-0.3-2.3-0.8s-0.8-1.2-0.8-2.1h1.3
			c0,0.6,0.2,1,0.5,1.3s0.8,0.5,1.4,0.5c0.5,0,1-0.2,1.3-0.5s0.5-0.8,0.5-1.4V11536z"/>
		<path class="st5" d="M845.9,11541.4h-4.3v3.5h5v1.1h-6.3v-10h6.3v1.1h-4.9v3.2h4.3V11541.4z"/>
		<path class="st5" d="M853.8,11541.4h-4.3v3.5h5v1.1h-6.3v-10h6.3v1.1h-4.9v3.2h4.3V11541.4z"/>
		<path class="st5" d="M859.1,11542.2c0-1.1,0.3-2,0.8-2.7c0.5-0.7,1.2-1,2.1-1c0.9,0,1.6,0.3,2.1,0.9v-3.9h1.3v10.5h-1.2l-0.1-0.8
			c-0.5,0.6-1.2,0.9-2.1,0.9c-0.9,0-1.6-0.4-2.1-1.1S859.1,11543.5,859.1,11542.2L859.1,11542.2z M860.4,11542.4
			c0,0.8,0.2,1.5,0.5,2s0.8,0.7,1.4,0.7c0.8,0,1.4-0.4,1.8-1.1v-3.4c-0.4-0.7-1-1-1.7-1c-0.6,0-1.1,0.2-1.4,0.7
			S860.4,11541.4,860.4,11542.4z"/>
		<path class="st5" d="M870.4,11546.1c-1,0-1.8-0.3-2.4-1c-0.6-0.7-0.9-1.5-0.9-2.6v-0.2c0-0.7,0.1-1.4,0.4-2c0.3-0.6,0.7-1,1.2-1.4
			c0.5-0.3,1-0.5,1.6-0.5c1,0,1.7,0.3,2.2,1s0.8,1.5,0.8,2.7v0.5h-5c0,0.7,0.2,1.3,0.6,1.8c0.4,0.4,0.9,0.7,1.6,0.7
			c0.4,0,0.8-0.1,1.1-0.3s0.6-0.4,0.8-0.7l0.8,0.6C872.6,11545.7,871.6,11546.1,870.4,11546.1z M870.2,11539.5
			c-0.5,0-0.9,0.2-1.3,0.6c-0.3,0.4-0.6,0.9-0.6,1.6h3.7v-0.1c0-0.6-0.2-1.1-0.5-1.5C871.2,11539.7,870.8,11539.5,870.2,11539.5z"/>
	</g>
	<g class="st2">
		<path class="st5" d="M786.2,11560.4c0,1.1-0.3,2-0.8,2.7s-1.2,1-2.1,1c-0.9,0-1.6-0.3-2.1-0.9v3.6H780v-10.2h1.2l0.1,0.8
			c0.5-0.6,1.2-1,2.1-1c0.9,0,1.6,0.3,2.1,1s0.8,1.6,0.8,2.8V11560.4z M784.9,11560.2c0-0.8-0.2-1.5-0.5-2s-0.8-0.7-1.5-0.7
			c-0.8,0-1.3,0.3-1.7,1v3.5c0.4,0.7,1,1,1.7,1c0.6,0,1.1-0.2,1.4-0.7C784.8,11561.9,784.9,11561.2,784.9,11560.2z"/>
		<path class="st5" d="M792.4,11564c-0.1-0.1-0.1-0.4-0.2-0.8c-0.6,0.6-1.3,0.9-2.1,0.9c-0.7,0-1.3-0.2-1.8-0.6
			c-0.5-0.4-0.7-0.9-0.7-1.6c0-0.8,0.3-1.4,0.9-1.8c0.6-0.4,1.4-0.6,2.5-0.6h1.2v-0.6c0-0.4-0.1-0.8-0.4-1.1
			c-0.3-0.3-0.7-0.4-1.2-0.4c-0.5,0-0.8,0.1-1.1,0.3s-0.5,0.5-0.5,0.8h-1.3c0-0.4,0.1-0.7,0.4-1.1c0.3-0.3,0.6-0.6,1.1-0.8
			s0.9-0.3,1.5-0.3c0.9,0,1.5,0.2,2,0.6c0.5,0.4,0.7,1,0.8,1.8v3.4c0,0.7,0.1,1.2,0.3,1.6v0.1H792.4z M790.3,11563
			c0.4,0,0.8-0.1,1.1-0.3s0.6-0.5,0.8-0.8v-1.5h-1c-1.5,0-2.3,0.5-2.3,1.4c0,0.4,0.1,0.7,0.4,0.9S789.9,11563,790.3,11563z
			 M791.4,11553.5h1.5l-1.8,2l-1,0L791.4,11553.5z"/>
		<path class="st5" d="M795.1,11560.2c0-1.2,0.3-2.1,0.8-2.8c0.5-0.7,1.2-1,2.1-1c0.9,0,1.6,0.3,2.1,1l0.1-0.8h1.2v7.2
			c0,1-0.3,1.7-0.9,2.3s-1.3,0.8-2.3,0.8c-0.5,0-1.1-0.1-1.6-0.3s-0.9-0.5-1.2-0.9l0.7-0.8c0.5,0.7,1.2,1,2,1c0.6,0,1.1-0.2,1.4-0.5
			s0.5-0.8,0.5-1.5v-0.6c-0.5,0.6-1.2,0.9-2.1,0.9c-0.9,0-1.6-0.3-2.1-1S795.1,11561.4,795.1,11560.2z M796.4,11560.4
			c0,0.8,0.2,1.5,0.5,2c0.3,0.5,0.8,0.7,1.4,0.7c0.8,0,1.4-0.4,1.8-1.1v-3.4c-0.4-0.7-1-1.1-1.7-1.1c-0.6,0-1.1,0.2-1.4,0.7
			S796.4,11559.4,796.4,11560.4z"/>
		<path class="st5" d="M803.3,11554.6c0-0.2,0.1-0.4,0.2-0.5s0.3-0.2,0.6-0.2s0.4,0.1,0.6,0.2s0.2,0.3,0.2,0.5s-0.1,0.4-0.2,0.5
			s-0.3,0.2-0.6,0.2s-0.4-0.1-0.6-0.2S803.3,11554.8,803.3,11554.6z M804.7,11564h-1.3v-7.4h1.3V11564z"/>
		<path class="st5" d="M807.9,11556.6l0,0.9c0.6-0.7,1.3-1.1,2.2-1.1c1.6,0,2.4,0.9,2.4,2.6v4.9h-1.3v-4.9c0-0.5-0.1-0.9-0.4-1.2
			s-0.6-0.4-1.1-0.4c-0.4,0-0.8,0.1-1.1,0.3s-0.6,0.5-0.7,0.9v5.3h-1.3v-7.4H807.9z"/>
		<path class="st5" d="M819,11564c-0.1-0.1-0.1-0.4-0.2-0.8c-0.6,0.6-1.3,0.9-2.1,0.9c-0.7,0-1.3-0.2-1.8-0.6
			c-0.5-0.4-0.7-0.9-0.7-1.6c0-0.8,0.3-1.4,0.9-1.8c0.6-0.4,1.4-0.6,2.5-0.6h1.2v-0.6c0-0.4-0.1-0.8-0.4-1.1
			c-0.3-0.3-0.7-0.4-1.2-0.4c-0.5,0-0.8,0.1-1.1,0.3s-0.5,0.5-0.5,0.8h-1.3c0-0.4,0.1-0.7,0.4-1.1c0.3-0.3,0.6-0.6,1.1-0.8
			s0.9-0.3,1.5-0.3c0.9,0,1.5,0.2,2,0.6c0.5,0.4,0.7,1,0.8,1.8v3.4c0,0.7,0.1,1.2,0.3,1.6v0.1H819z M816.9,11563
			c0.4,0,0.8-0.1,1.1-0.3s0.6-0.5,0.8-0.8v-1.5h-1c-1.5,0-2.3,0.5-2.3,1.4c0,0.4,0.1,0.7,0.4,0.9S816.5,11563,816.9,11563z"/>
		<path class="st5" d="M826.3,11562c0-0.3-0.1-0.6-0.4-0.8c-0.3-0.2-0.7-0.4-1.3-0.5s-1.1-0.3-1.5-0.5s-0.7-0.4-0.8-0.7
			s-0.3-0.6-0.3-0.9c0-0.6,0.3-1.1,0.8-1.5s1.2-0.6,2-0.6c0.8,0,1.5,0.2,2,0.6s0.8,1,0.8,1.7h-1.3c0-0.3-0.1-0.6-0.4-0.9
			s-0.7-0.4-1.1-0.4c-0.5,0-0.8,0.1-1.1,0.3s-0.4,0.5-0.4,0.8c0,0.3,0.1,0.5,0.4,0.7s0.7,0.3,1.3,0.4s1.1,0.3,1.5,0.5
			s0.7,0.4,0.9,0.7c0.2,0.3,0.3,0.6,0.3,1c0,0.7-0.3,1.2-0.8,1.6c-0.5,0.4-1.2,0.6-2.1,0.6c-0.6,0-1.1-0.1-1.6-0.3s-0.8-0.5-1.1-0.9
			c-0.3-0.4-0.4-0.8-0.4-1.2h1.3c0,0.4,0.2,0.8,0.5,1c0.3,0.2,0.7,0.4,1.3,0.4c0.5,0,0.9-0.1,1.2-0.3
			C826.2,11562.6,826.3,11562.4,826.3,11562z"/>
		<path class="st5" d="M839.2,11562.3l1.4-5.7h1.3l-2.2,7.4h-1l-1.8-5.6l-1.8,5.6h-1l-2.1-7.4h1.3l1.5,5.5l1.7-5.5h1L839.2,11562.3z
			"/>
		<path class="st5" d="M846.3,11564.1c-1,0-1.8-0.3-2.4-1c-0.6-0.7-0.9-1.5-0.9-2.6v-0.2c0-0.7,0.1-1.4,0.4-2c0.3-0.6,0.7-1,1.2-1.4
			c0.5-0.3,1-0.5,1.6-0.5c1,0,1.7,0.3,2.2,1s0.8,1.5,0.8,2.7v0.5h-5c0,0.7,0.2,1.3,0.6,1.8c0.4,0.4,0.9,0.7,1.6,0.7
			c0.4,0,0.8-0.1,1.1-0.3s0.6-0.4,0.8-0.7l0.8,0.6C848.5,11563.7,847.5,11564.1,846.3,11564.1z M846.1,11557.5
			c-0.5,0-0.9,0.2-1.3,0.6c-0.3,0.4-0.6,0.9-0.6,1.6h3.7v-0.1c0-0.6-0.2-1.1-0.5-1.5C847.1,11557.7,846.7,11557.5,846.1,11557.5z"/>
		<path class="st5" d="M856.9,11560.4c0,1.1-0.3,2-0.8,2.7c-0.5,0.7-1.2,1-2.1,1c-0.9,0-1.7-0.3-2.2-1l-0.1,0.9h-1.2v-10.5h1.3v3.9
			c0.5-0.6,1.2-1,2.1-1s1.6,0.3,2.1,1s0.8,1.6,0.8,2.8V11560.4z M855.6,11560.2c0-0.9-0.2-1.5-0.5-2s-0.8-0.7-1.4-0.7
			c-0.8,0-1.4,0.4-1.8,1.2v3.2c0.4,0.8,1,1.2,1.8,1.2c0.6,0,1.1-0.2,1.4-0.7S855.6,11561.2,855.6,11560.2z"/>
	</g>
	<g class="st2">
		<path class="st5" d="M1002.5,11243.4l0.2,1.5l0.3-1.4l2.2-7.9h1.3l2.2,7.9l0.3,1.4l0.2-1.5l1.8-7.8h1.5l-2.8,11.4h-1.4l-2.3-8.3
			l-0.2-0.9l-0.2,0.9l-2.4,8.3h-1.4l-2.8-11.4h1.5L1002.5,11243.4z"/>
		<path class="st5" d="M1017.5,11247.2c-1.1,0-2.1-0.4-2.8-1.1s-1.1-1.8-1.1-3v-0.3c0-0.8,0.2-1.6,0.5-2.2s0.8-1.2,1.3-1.5
			c0.6-0.4,1.2-0.6,1.9-0.6c1.1,0,2,0.4,2.6,1.1s0.9,1.8,0.9,3.1v0.6h-5.7c0,0.8,0.3,1.5,0.7,2c0.5,0.5,1.1,0.8,1.8,0.8
			c0.5,0,0.9-0.1,1.3-0.3c0.4-0.2,0.7-0.5,0.9-0.8l0.9,0.7C1020,11246.6,1018.9,11247.2,1017.5,11247.2z M1017.3,11239.6
			c-0.6,0-1.1,0.2-1.5,0.6c-0.4,0.4-0.6,1-0.7,1.8h4.2v-0.1c0-0.7-0.2-1.3-0.6-1.7C1018.4,11239.8,1017.9,11239.6,1017.3,11239.6z"
			/>
		<path class="st5" d="M1029.6,11242.9c0,1.3-0.3,2.3-0.9,3.1s-1.4,1.2-2.4,1.2c-1.1,0-1.9-0.4-2.5-1.1l-0.1,1h-1.3v-12h1.4v4.5
			c0.6-0.7,1.4-1.1,2.4-1.1c1,0,1.8,0.4,2.4,1.2s0.9,1.8,0.9,3.2V11242.9z M1028.2,11242.7c0-1-0.2-1.7-0.6-2.3
			c-0.4-0.5-0.9-0.8-1.6-0.8c-1,0-1.6,0.4-2.1,1.3v3.7c0.4,0.9,1.1,1.3,2.1,1.3c0.7,0,1.2-0.3,1.6-0.8
			C1028,11244.6,1028.2,11243.8,1028.2,11242.7z"/>
		<path class="st5" d="M1043.2,11236.9h-3.7v10.1h-1.5v-10.1h-3.6v-1.2h8.8V11236.9z"/>
		<path class="st5" d="M1044.6,11236.3c0-0.2,0.1-0.4,0.2-0.6s0.4-0.2,0.6-0.2s0.5,0.1,0.6,0.2s0.2,0.4,0.2,0.6s-0.1,0.4-0.2,0.6
			s-0.4,0.2-0.6,0.2s-0.5-0.1-0.6-0.2S1044.6,11236.5,1044.6,11236.3z M1046.2,11247h-1.4v-8.5h1.4V11247z"/>
		<path class="st5" d="M1052,11247.2c-1.1,0-2.1-0.4-2.8-1.1s-1.1-1.8-1.1-3v-0.3c0-0.8,0.2-1.6,0.5-2.2s0.8-1.2,1.3-1.5
			s1.2-0.6,1.9-0.6c1.1,0,2,0.4,2.6,1.1s0.9,1.8,0.9,3.1v0.6h-5.7c0,0.8,0.3,1.5,0.7,2s1.1,0.8,1.8,0.8c0.5,0,0.9-0.1,1.3-0.3
			s0.7-0.5,0.9-0.8l0.9,0.7C1054.5,11246.6,1053.4,11247.2,1052,11247.2z M1051.8,11239.6c-0.6,0-1.1,0.2-1.5,0.6s-0.6,1-0.7,1.8
			h4.2v-0.1c0-0.7-0.2-1.3-0.6-1.7S1052.4,11239.6,1051.8,11239.6z"/>
		<path class="st5" d="M1061.1,11239.8c-0.2,0-0.5-0.1-0.7-0.1c-0.9,0-1.6,0.4-1.9,1.2v6h-1.4v-8.5h1.4l0,1c0.5-0.8,1.1-1.1,2-1.1
			c0.3,0,0.5,0,0.6,0.1V11239.8z"/>
	</g>
	<g class="st2">
		<path class="st5" d="M983.5,11424v-11.4h3.7c1.2,0,2.2,0.3,2.8,0.8c0.6,0.5,0.9,1.3,0.9,2.3c0,0.5-0.2,1-0.5,1.4
			c-0.3,0.4-0.7,0.7-1.2,0.9c0.6,0.2,1.1,0.5,1.5,1c0.4,0.5,0.5,1.1,0.5,1.7c0,1-0.3,1.8-1,2.4c-0.7,0.6-1.6,0.9-2.8,0.9H983.5z
			 M985,11417.5h2.3c0.7,0,1.2-0.2,1.6-0.5c0.4-0.3,0.6-0.8,0.6-1.3c0-0.6-0.2-1.1-0.5-1.4c-0.4-0.3-0.9-0.4-1.7-0.4H985V11417.5z
			 M985,11418.7v4.1h2.5c0.7,0,1.2-0.2,1.7-0.5c0.4-0.4,0.6-0.9,0.6-1.5c0-1.4-0.7-2.1-2.2-2.1H985z"/>
		<path class="st5" d="M998.4,11423.2c-0.6,0.7-1.4,1-2.5,1c-0.9,0-1.6-0.3-2.1-0.8c-0.5-0.5-0.7-1.3-0.7-2.3v-5.5h1.4v5.5
			c0,1.3,0.5,1.9,1.6,1.9c1.1,0,1.8-0.4,2.2-1.2v-6.1h1.4v8.5h-1.4L998.4,11423.2z"/>
		<path class="st5" d="M1007,11421.8c0-0.4-0.1-0.7-0.4-0.9c-0.3-0.2-0.8-0.4-1.5-0.6c-0.7-0.2-1.3-0.3-1.7-0.6s-0.7-0.5-1-0.8
			c-0.2-0.3-0.3-0.7-0.3-1.1c0-0.7,0.3-1.3,0.9-1.8s1.3-0.7,2.2-0.7c1,0,1.7,0.2,2.3,0.7c0.6,0.5,0.9,1.1,0.9,1.9h-1.5
			c0-0.4-0.2-0.7-0.5-1s-0.8-0.4-1.3-0.4c-0.5,0-0.9,0.1-1.2,0.3s-0.4,0.5-0.4,0.9c0,0.3,0.1,0.6,0.4,0.8c0.3,0.2,0.8,0.3,1.5,0.5
			c0.7,0.2,1.3,0.4,1.8,0.6c0.4,0.2,0.8,0.5,1,0.8c0.2,0.3,0.3,0.7,0.3,1.2c0,0.8-0.3,1.4-0.9,1.8c-0.6,0.5-1.4,0.7-2.4,0.7
			c-0.7,0-1.3-0.1-1.8-0.4c-0.5-0.2-0.9-0.6-1.2-1c-0.3-0.4-0.4-0.9-0.4-1.4h1.4c0,0.5,0.2,0.9,0.6,1.2c0.4,0.3,0.8,0.4,1.4,0.4
			c0.5,0,1-0.1,1.3-0.3C1006.8,11422.4,1007,11422.1,1007,11421.8z"/>
		<path class="st5" d="M1010.3,11413.3c0-0.2,0.1-0.4,0.2-0.6c0.1-0.2,0.4-0.2,0.6-0.2s0.5,0.1,0.6,0.2c0.1,0.2,0.2,0.4,0.2,0.6
			s-0.1,0.4-0.2,0.6c-0.1,0.2-0.4,0.2-0.6,0.2s-0.5-0.1-0.6-0.2C1010.4,11413.7,1010.3,11413.5,1010.3,11413.3z M1011.9,11424h-1.4
			v-8.5h1.4V11424z"/>
		<path class="st5" d="M1015.5,11415.5l0,1.1c0.6-0.8,1.5-1.2,2.5-1.2c1.8,0,2.7,1,2.7,3v5.6h-1.4v-5.6c0-0.6-0.1-1.1-0.4-1.4
			s-0.7-0.4-1.3-0.4c-0.5,0-0.9,0.1-1.2,0.4c-0.4,0.2-0.6,0.6-0.8,1v6h-1.4v-8.5H1015.5z"/>
		<path class="st5" d="M1026.5,11424.2c-1.1,0-2.1-0.4-2.8-1.1s-1.1-1.8-1.1-3v-0.3c0-0.8,0.2-1.6,0.5-2.2s0.8-1.2,1.3-1.5
			c0.6-0.4,1.2-0.6,1.9-0.6c1.1,0,2,0.4,2.6,1.1s0.9,1.8,0.9,3.1v0.6h-5.7c0,0.8,0.3,1.5,0.7,2c0.5,0.5,1.1,0.8,1.8,0.8
			c0.5,0,0.9-0.1,1.3-0.3c0.4-0.2,0.7-0.5,0.9-0.8l0.9,0.7C1029,11423.6,1027.9,11424.2,1026.5,11424.2z M1026.3,11416.6
			c-0.6,0-1.1,0.2-1.5,0.6c-0.4,0.4-0.6,1-0.7,1.8h4.2v-0.1c0-0.7-0.2-1.3-0.6-1.7C1027.4,11416.8,1026.9,11416.6,1026.3,11416.6z"
			/>
		<path class="st5" d="M1036.4,11421.8c0-0.4-0.1-0.7-0.4-0.9c-0.3-0.2-0.8-0.4-1.5-0.6c-0.7-0.2-1.3-0.3-1.7-0.6s-0.7-0.5-1-0.8
			c-0.2-0.3-0.3-0.7-0.3-1.1c0-0.7,0.3-1.3,0.9-1.8s1.3-0.7,2.2-0.7c1,0,1.7,0.2,2.3,0.7c0.6,0.5,0.9,1.1,0.9,1.9h-1.5
			c0-0.4-0.2-0.7-0.5-1s-0.8-0.4-1.3-0.4c-0.5,0-0.9,0.1-1.2,0.3s-0.4,0.5-0.4,0.9c0,0.3,0.1,0.6,0.4,0.8c0.3,0.2,0.8,0.3,1.5,0.5
			c0.7,0.2,1.3,0.4,1.8,0.6c0.4,0.2,0.8,0.5,1,0.8c0.2,0.3,0.3,0.7,0.3,1.2c0,0.8-0.3,1.4-0.9,1.8c-0.6,0.5-1.4,0.7-2.4,0.7
			c-0.7,0-1.3-0.1-1.8-0.4c-0.5-0.2-0.9-0.6-1.2-1c-0.3-0.4-0.4-0.9-0.4-1.4h1.4c0,0.5,0.2,0.9,0.6,1.2c0.4,0.3,0.8,0.4,1.4,0.4
			c0.5,0,1-0.1,1.3-0.3C1036.2,11422.4,1036.4,11422.1,1036.4,11421.8z"/>
		<path class="st5" d="M1044.6,11421.8c0-0.4-0.1-0.7-0.4-0.9c-0.3-0.2-0.8-0.4-1.5-0.6c-0.7-0.2-1.3-0.3-1.7-0.6s-0.7-0.5-1-0.8
			c-0.2-0.3-0.3-0.7-0.3-1.1c0-0.7,0.3-1.3,0.9-1.8s1.3-0.7,2.2-0.7c1,0,1.7,0.2,2.3,0.7c0.6,0.5,0.9,1.1,0.9,1.9h-1.5
			c0-0.4-0.2-0.7-0.5-1s-0.8-0.4-1.3-0.4c-0.5,0-0.9,0.1-1.2,0.3s-0.4,0.5-0.4,0.9c0,0.3,0.1,0.6,0.4,0.8c0.3,0.2,0.8,0.3,1.5,0.5
			c0.7,0.2,1.3,0.4,1.8,0.6c0.4,0.2,0.8,0.5,1,0.8c0.2,0.3,0.3,0.7,0.3,1.2c0,0.8-0.3,1.4-0.9,1.8c-0.6,0.5-1.4,0.7-2.4,0.7
			c-0.7,0-1.3-0.1-1.8-0.4c-0.5-0.2-0.9-0.6-1.2-1c-0.3-0.4-0.4-0.9-0.4-1.4h1.4c0,0.5,0.2,0.9,0.6,1.2c0.4,0.3,0.8,0.4,1.4,0.4
			c0.5,0,1-0.1,1.3-0.3C1044.5,11422.4,1044.6,11422.1,1044.6,11421.8z"/>
		<path class="st5" d="M1059.7,11413.9h-3.7v10.1h-1.5v-10.1h-3.6v-1.2h8.8V11413.9z"/>
		<path class="st5" d="M1061.2,11413.3c0-0.2,0.1-0.4,0.2-0.6c0.1-0.2,0.4-0.2,0.6-0.2s0.5,0.1,0.6,0.2c0.1,0.2,0.2,0.4,0.2,0.6
			s-0.1,0.4-0.2,0.6c-0.1,0.2-0.4,0.2-0.6,0.2s-0.5-0.1-0.6-0.2C1061.2,11413.7,1061.2,11413.5,1061.2,11413.3z M1062.7,11424h-1.4
			v-8.5h1.4V11424z"/>
		<path class="st5" d="M1068.6,11424.2c-1.1,0-2.1-0.4-2.8-1.1s-1.1-1.8-1.1-3v-0.3c0-0.8,0.2-1.6,0.5-2.2s0.8-1.2,1.3-1.5
			c0.6-0.4,1.2-0.6,1.9-0.6c1.1,0,2,0.4,2.6,1.1s0.9,1.8,0.9,3.1v0.6h-5.7c0,0.8,0.3,1.5,0.7,2c0.5,0.5,1.1,0.8,1.8,0.8
			c0.5,0,0.9-0.1,1.3-0.3c0.4-0.2,0.7-0.5,0.9-0.8l0.9,0.7C1071,11423.6,1070,11424.2,1068.6,11424.2z M1068.4,11416.6
			c-0.6,0-1.1,0.2-1.5,0.6c-0.4,0.4-0.6,1-0.7,1.8h4.2v-0.1c0-0.7-0.2-1.3-0.6-1.7C1069.5,11416.8,1069,11416.6,1068.4,11416.6z"/>
		<path class="st5" d="M1077.6,11416.8c-0.2,0-0.5-0.1-0.7-0.1c-0.9,0-1.6,0.4-1.9,1.2v6h-1.4v-8.5h1.4l0,1c0.5-0.8,1.1-1.1,2-1.1
			c0.3,0,0.5,0,0.6,0.1V11416.8z"/>
	</g>
	<g class="st2">
		<path class="st5" d="M1220.8,11241.7h-4.9v4h5.7v1.2h-7.2v-11.4h7.1v1.2h-5.6v3.7h4.9V11241.7z"/>
		<path class="st5" d="M1225.1,11247h-1.5v-11.4h1.5V11247z"/>
		<path class="st5" d="M1231.2,11241.9c-1.3-0.4-2.2-0.8-2.8-1.4s-0.9-1.2-0.9-2c0-0.9,0.4-1.6,1.1-2.2s1.6-0.9,2.8-0.9
			c0.8,0,1.5,0.2,2.1,0.5s1.1,0.7,1.4,1.2s0.5,1.1,0.5,1.7h-1.5c0-0.7-0.2-1.2-0.7-1.6s-1.1-0.6-1.9-0.6c-0.7,0-1.3,0.2-1.7,0.5
			s-0.6,0.8-0.6,1.4c0,0.5,0.2,0.9,0.6,1.2c0.4,0.3,1.1,0.6,2,0.9c0.9,0.3,1.7,0.6,2.2,0.9s0.9,0.7,1.2,1.1s0.4,0.9,0.4,1.5
			c0,0.9-0.4,1.7-1.1,2.2s-1.7,0.8-2.9,0.8c-0.8,0-1.5-0.1-2.2-0.4s-1.2-0.7-1.6-1.2s-0.6-1.1-0.6-1.8h1.5c0,0.7,0.3,1.2,0.8,1.6
			s1.2,0.6,2,0.6c0.8,0,1.4-0.2,1.8-0.5s0.6-0.8,0.6-1.3s-0.2-1-0.6-1.3S1232.2,11242.2,1231.2,11241.9z"/>
		<path class="st5" d="M1248.8,11236.9h-3.7v10.1h-1.5v-10.1h-3.6v-1.2h8.8V11236.9z"/>
		<path class="st5" d="M1250.3,11236.3c0-0.2,0.1-0.4,0.2-0.6s0.4-0.2,0.6-0.2s0.5,0.1,0.6,0.2s0.2,0.4,0.2,0.6s-0.1,0.4-0.2,0.6
			s-0.4,0.2-0.6,0.2s-0.5-0.1-0.6-0.2S1250.3,11236.5,1250.3,11236.3z M1251.8,11247h-1.4v-8.5h1.4V11247z"/>
		<path class="st5" d="M1257.7,11247.2c-1.1,0-2.1-0.4-2.8-1.1s-1.1-1.8-1.1-3v-0.3c0-0.8,0.2-1.6,0.5-2.2s0.8-1.2,1.3-1.5
			s1.2-0.6,1.9-0.6c1.1,0,2,0.4,2.6,1.1s0.9,1.8,0.9,3.1v0.6h-5.7c0,0.8,0.3,1.5,0.7,2s1.1,0.8,1.8,0.8c0.5,0,0.9-0.1,1.3-0.3
			s0.7-0.5,0.9-0.8l0.9,0.7C1260.1,11246.6,1259.1,11247.2,1257.7,11247.2z M1257.5,11239.6c-0.6,0-1.1,0.2-1.5,0.6s-0.6,1-0.7,1.8
			h4.2v-0.1c0-0.7-0.2-1.3-0.6-1.7S1258.1,11239.6,1257.5,11239.6z"/>
		<path class="st5" d="M1266.7,11239.8c-0.2,0-0.5-0.1-0.7-0.1c-0.9,0-1.6,0.4-1.9,1.2v6h-1.4v-8.5h1.4l0,1c0.5-0.8,1.1-1.1,2-1.1
			c0.3,0,0.5,0,0.6,0.1V11239.8z"/>
	</g>
	<g>
		<defs>
			<rect id="SVGID_1_" x="753" y="11269" width="134" height="101"/>
		</defs>
		<clipPath id="SVGID_00000047751389418870929690000013319875214252363434_">
			<use xlink:href="#SVGID_1_"  style="overflow:visible;"/>
		</clipPath>
		
			<g id="Enmascarar_grupo_79931" transform="translate(123 -1163)" style="clip-path:url(#SVGID_00000047751389418870929690000013319875214252363434_);">
			<g id="Imagen_37" transform="translate(580 12326)">
				
					<image style="overflow:visible;enable-background:new    ;" width="789" height="421" id="image" xlink:href="2970B5EC.png"  transform="matrix(1 0 0 1 578 12326)">
				</image>
			</g>
		</g>
	</g>
	<g>
		<defs>
			<rect id="SVGID_00000084519680135183721300000011898686367885570216_" x="753" y="11442" width="134" height="79"/>
		</defs>
		<clipPath id="SVGID_00000016071972663092454580000017759600141778752899_">
			<use xlink:href="#SVGID_00000084519680135183721300000011898686367885570216_"  style="overflow:visible;"/>
		</clipPath>
		
			<g id="Enmascarar_grupo_79932" transform="translate(121 -1001)" style="clip-path:url(#SVGID_00000016071972663092454580000017759600141778752899_);">
			<g id="Imagen_38" transform="translate(582 12174) scale(1.046 1.045)">
				
					<image style="overflow:visible;enable-background:new    ;" width="789" height="421" id="image_00000135674968539341009970000006116611573300918426_" xlink:href="2970B5ED.png"  transform="matrix(1.046 0 0 1.045 582 12174)">
				</image>
			</g>
		</g>
	</g>
	<g id="Grupo_99523" transform="translate(743.587 11210.574)">
		<g id="Grupo_99469" transform="translate(248.913 60.425)">
			<g id="Grupo_99467" transform="translate(0)">
				<path id="Rectángulo_43057" class="st8" d="M0,52.1V2c0-1.1,0.9-2,2-2h68c1.1,0,2,0.9,2,2v50.1c0,1.1-0.9,2-2,2H2
					C0.9,54.1,0,53.2,0,52.1z"/>
			</g>
			<g id="Grupo_99468" transform="translate(3.765 1.707)">
				<rect id="Rectángulo_43058" x="0" y="0" class="st3" width="64.9" height="50.7"/>
			</g>
		</g>
		<g id="Grupo_99522" transform="translate(255.394 65.234)">
			<g id="Grupo_99470" transform="translate(26.87 0.709)">
				<rect id="Rectángulo_43059" x="0" y="0" class="st8" width="20.6" height="1.4"/>
			</g>
			<g id="Grupo_99471" transform="translate(0 24.434)">
				<rect id="Rectángulo_43060" x="0" y="0" class="st8" width="20.6" height="1.4"/>
			</g>
			<g id="Grupo_99473" transform="translate(26.87 5.758)">
				<g id="Grupo_99472">
					<path id="Trazado_213800" class="st8" d="M25.7,0.1c0,0.1-5.7,0.1-12.8,0.1S0,0.1,0,0.1S5.7,0,12.8,0S25.7,0,25.7,0.1z"/>
				</g>
			</g>
			<g id="Grupo_99475" transform="translate(26.87 8.771)">
				<g id="Grupo_99474">
					<path id="Trazado_213801" class="st8" d="M25.7,0.1c0,0.1-5.7,0.1-12.8,0.1S0,0.1,0,0.1S5.7,0,12.8,0S25.7,0,25.7,0.1z"/>
				</g>
			</g>
			<g id="Grupo_99477" transform="translate(26.87 11.785)">
				<g id="Grupo_99476">
					<path id="Trazado_213802" class="st8" d="M25.7,0.1c0,0.1-5.7,0.1-12.8,0.1S0,0.1,0,0.1S5.7,0,12.8,0S25.7,0,25.7,0.1z"/>
				</g>
			</g>
			<g id="Grupo_99479" transform="translate(26.87 14.798)">
				<g id="Grupo_99478">
					<path id="Trazado_213803" class="st8" d="M25.7,0.1c0,0.1-5.7,0.1-12.8,0.1S0,0.1,0,0.1S5.7,0,12.8,0S25.7,0,25.7,0.1z"/>
				</g>
			</g>
			<g id="Grupo_99481" transform="translate(26.87 17.811)">
				<g id="Grupo_99480">
					<path id="Trazado_213804" class="st8" d="M25.7,0.1c0,0.1-5.7,0.1-12.8,0.1S0,0.1,0,0.1S5.7,0,12.8,0S25.7,0,25.7,0.1z"/>
				</g>
			</g>
			<g id="Grupo_99483" transform="translate(26.87 20.824)">
				<g id="Grupo_99482">
					<path id="Trazado_213805" class="st8" d="M20,0.1c0,0.1-4.5,0.1-10,0.1S0,0.1,0,0.1S4.5,0,10,0S20,0,20,0.1z"/>
				</g>
			</g>
			<g id="Grupo_99485" transform="translate(0.225 29.777)">
				<g id="Grupo_99484">
					<path id="Trazado_213806" class="st8" d="M33.7,0.1c0,0.1-7.5,0.1-16.8,0.1S0,0.1,0,0.1S7.5,0,16.8,0S33.7,0,33.7,0.1z"/>
				</g>
			</g>
			<g id="Grupo_99487" transform="translate(0.225 32.289)">
				<g id="Grupo_99486">
					<path id="Trazado_213807" class="st8" d="M33.7,0.1c0,0.1-7.5,0.1-16.8,0.1S0,0.1,0,0.1S7.5,0,16.8,0S33.7,0,33.7,0.1z"/>
				</g>
			</g>
			<g id="Grupo_99489" transform="translate(0.225 34.801)">
				<g id="Grupo_99488">
					<path id="Trazado_213808" class="st8" d="M33.7,0.1c0,0.1-7.5,0.1-16.8,0.1S0,0.1,0,0.1S7.5,0,16.8,0S33.7,0,33.7,0.1z"/>
				</g>
			</g>
			<g id="Grupo_99491" transform="translate(0.225 37.313)">
				<g id="Grupo_99490">
					<path id="Trazado_213809" class="st8" d="M33.7,0.1c0,0.1-7.5,0.1-16.8,0.1S0,0.1,0,0.1S7.5,0,16.8,0S33.7,0,33.7,0.1z"/>
				</g>
			</g>
			<g id="Grupo_99493" transform="translate(0.225 39.825)">
				<g id="Grupo_99492">
					<path id="Trazado_213810" class="st8" d="M33.7,0.1c0,0.1-7.5,0.1-16.8,0.1S0,0.1,0,0.1S7.5,0,16.8,0S33.7,0,33.7,0.1z"/>
				</g>
			</g>
			<g id="Grupo_99507" transform="translate(0.225 0)">
				<g id="Grupo_99496">
					<g id="Grupo_99495">
						<g id="Grupo_99494">
							<rect id="Rectángulo_43061" x="0" y="0" class="st9" width="20.7" height="20"/>
						</g>
					</g>
				</g>
				<g id="Grupo_99499" transform="translate(1.604 8)">
					<g id="Grupo_99498">
						<g id="Grupo_99497">
							<path id="Trazado_213811" class="st10" d="M0,10.3L5.7,0l4.7,6.6l2.8-3.5l4.2,7.2L0,10.3z"/>
						</g>
					</g>
				</g>
				<g id="Grupo_99502" transform="translate(11.02 4.509)">
					<g id="Grupo_99501">
						<g id="Grupo_99500">
							<path id="Trazado_213812" class="st10" d="M3,1.5C3,2.3,2.3,3,1.5,3C0.7,3,0,2.3,0,1.5C0,0.7,0.7,0,1.5,0S3,0.7,3,1.5
								C3,1.5,3,1.5,3,1.5z"/>
						</g>
					</g>
				</g>
				<g id="Grupo_99506" transform="translate(1.483 1.557)">
					<g id="Grupo_99505">
						<g id="Grupo_99504">
							<g id="Grupo_99503">
								<path id="Trazado_213813" class="st8" d="M17.6,16.8C17.6,16.8,17.6,16.7,17.6,16.8c0-0.1,0-0.2,0-0.3c0-0.2,0-0.5,0-0.9
									c0-0.8,0-1.9,0-3.4c0-2.9,0-7.1,0-12.1l0.1,0.1l-17.5,0c0,0,0.2-0.2,0.1-0.1v1.1c0,0.4,0,0.8,0,1.1c0,0.8,0,1.5,0,2.2
									c0,1.5,0,2.9,0,4.3c0,2.8,0,5.5,0,7.9l-0.1-0.1l12.6,0l3.6,0l0.9,0L17.6,16.8C17.6,16.8,17.6,16.8,17.6,16.8
									C17.6,16.8,17.6,16.8,17.6,16.8l-0.3,0l-0.9,0l-3.5,0l-12.7,0H0v-0.1c0-2.4,0-5.1,0-7.9c0-1.4,0-2.8,0-4.3
									c0-0.7,0-1.5,0-2.2V0.1C-0.1,0.2,0.1,0,0.1,0l17.5,0h0.1v0.1c0,5,0,9.2,0,12.1c0,1.4,0,2.6,0,3.4c0,0.4,0,0.7,0,0.9
									C17.6,16.6,17.6,16.7,17.6,16.8C17.6,16.7,17.6,16.8,17.6,16.8z"/>
							</g>
						</g>
					</g>
				</g>
			</g>
			<g id="Grupo_99521" transform="translate(38.521 27.089)">
				<g id="Grupo_99510">
					<g id="Grupo_99509">
						<g id="Grupo_99508">
							<rect id="Rectángulo_43062" x="0" y="0" class="st11" width="14.6" height="14.2"/>
						</g>
					</g>
				</g>
				<g id="Grupo_99513" transform="translate(1.135 5.662)">
					<g id="Grupo_99512">
						<g id="Grupo_99511">
							<path id="Trazado_213814" class="st10" d="M0,7.3L4,0l3.3,4.7l2-2.5l3,5.1L0,7.3z"/>
						</g>
					</g>
				</g>
				<g id="Grupo_99516" transform="translate(7.8 3.191)">
					<g id="Grupo_99515">
						<g id="Grupo_99514">
							<path id="Trazado_213815" class="st10" d="M2.1,1.1c0,0.6-0.5,1.1-1.1,1.1C0.5,2.1,0,1.6,0,1.1C0,0.5,0.5,0,1.1,0
								S2.1,0.5,2.1,1.1L2.1,1.1z"/>
						</g>
					</g>
				</g>
				<g id="Grupo_99520" transform="translate(1.05 1.102)">
					<g id="Grupo_99519">
						<g id="Grupo_99518">
							<g id="Grupo_99517">
								<path id="Trazado_213816" class="st8" d="M12.5,11.9C12.4,11.9,12.4,11.8,12.5,11.9c0-0.1,0-0.2,0-0.2c0-0.2,0-0.4,0-0.6
									c0-0.6,0-1.4,0-2.4c0-2.1,0-5,0-8.6l0.1,0.1l-12.4,0c0,0,0.1-0.1,0.1-0.1v0.8c0,0.3,0,0.5,0,0.8c0,0.5,0,1.1,0,1.6
									c0,1,0,2.1,0,3.1c0,2,0,3.9,0,5.6l-0.1-0.1l8.9,0l2.5,0l0.7,0L12.5,11.9L12.5,11.9C12.4,11.9,12.4,11.9,12.5,11.9l-0.2,0
									l-0.7,0l-2.5,0l-9,0H0v-0.1c0-1.7,0-3.6,0-5.6c0-1,0-2,0-3.1c0-0.5,0-1,0-1.6V0.1C-0.1,0.1,0.1,0,0.1,0l12.4,0h0.1v0.1
									c0,3.6,0,6.5,0,8.6c0,1,0,1.8,0,2.4c0,0.3,0,0.5,0,0.6C12.5,11.7,12.5,11.8,12.5,11.9C12.5,11.8,12.5,11.9,12.5,11.9z"/>
							</g>
						</g>
					</g>
				</g>
			</g>
		</g>
	</g>
	<g id="Grupo_99524" transform="translate(125 -352)">
		
			<linearGradient id="Unión_33_00000163765743500417569490000014998441796906340739_" gradientUnits="userSpaceOnUse" x1="-44.5411" y1="12266.1816" x2="-44.5411" y2="12265.1816" gradientTransform="matrix(73 0 0 -55 4368 686302)">
			<stop  offset="0" style="stop-color:#4DD0E1"/>
			<stop  offset="1" style="stop-color:#039BE5"/>
		</linearGradient>
		<path id="Unión_33" style="fill:url(#Unión_33_00000163765743500417569490000014998441796906340739_);" d="M1080,11701.9v-39.9
			h73v39.9c0,8.3-16.3,15.1-36.5,15.1S1080,11710.2,1080,11701.9z"/>
		<ellipse id="Elipse_6368" class="st13" cx="1116.5" cy="11662.5" rx="36.5" ry="15.5"/>
	</g>
	<g id="Grupo_99525" transform="translate(125 -205)">
		<path id="Unión_33-2" class="st1" d="M1080,11701.9v-39.9h73v39.9c0,8.3-16.3,15.1-36.5,15.1S1080,11710.2,1080,11701.9z"/>
		<ellipse id="Elipse_6368-2" class="st9" cx="1116.5" cy="11662.5" rx="36.5" ry="15.5"/>
	</g>
	<g id="Grupo_99526" transform="matrix(0.574, 0.819, -0.819, 0.574, 976.12, 11369)">
		<g id="Grupo_99295" transform="translate(0)">
			<path id="Polígono_36" class="st11" d="M6.6,0l6.6,11H0L6.6,0z"/>
			
				<rect id="Rectángulo_42834" x="-29.8" y="42.3" transform="matrix(2.532679e-06 1 -1 2.532679e-06 51.14 37.9399)" class="st11" width="72.7" height="4.4"/>
			
				<rect id="Rectángulo_42835" x="-17.7" y="97.8" transform="matrix(2.532679e-06 1 -1 2.532679e-06 106.645 93.4447)" class="st11" width="48.7" height="4.4"/>
		</g>
	</g>
	<g id="Grupo_99527" transform="translate(889.2 11325.457) rotate(-90)">
		<g id="Grupo_99295-2" transform="translate(0.334 -0.2)">
			<path id="Polígono_37" class="st11" d="M6.5,79L0,68h13L6.5,79z"/>
			
				<rect id="Rectángulo_42834-2" x="-2" y="11" transform="matrix(-2.535182e-06 -1 1 -2.535182e-06 -7 19)" class="st11" width="16" height="4"/>
			
				<rect id="Rectángulo_42835-2" x="-20.2" y="45.2" transform="matrix(-2.535182e-06 -1 1 -2.535182e-06 -41.25 53.2501)" class="st11" width="52.5" height="4"/>
		</g>
	</g>
	<g id="Grupo_99528" transform="translate(1100.833 11448.55) rotate(180)">
		<g id="Grupo_99295-3" transform="translate(0.334 -0.45)">
			<path id="Polígono_36-2" class="st11" d="M6.5,0.3l6.5,11H0L6.5,0.3z"/>
			<rect id="Rectángulo_42834-3" x="4" y="5.3" class="st11" width="4" height="16"/>
			<rect id="Rectángulo_42835-3" x="4" y="7.8" class="st11" width="4" height="62.7"/>
		</g>
	</g>
	<g id="Grupo_99529" transform="translate(1087.7 11512.834) rotate(-90)">
		<g id="Grupo_99295-4" transform="translate(0.334 -0.2)">
			<path id="Polígono_37-2" class="st11" d="M7.8,95.1L0,81.9h15.6L7.8,95.1z"/>
			
				<rect id="Rectángulo_42834-4" x="-2.4" y="13.2" transform="matrix(-2.535182e-06 -1 1 -2.535182e-06 -8.427 22.872)" class="st11" width="19.3" height="4.8"/>
			
				<rect id="Rectángulo_42835-4" x="-24.4" y="54.5" transform="matrix(-2.535182e-06 -1 1 -2.535182e-06 -49.657 64.1021)" class="st11" width="63.2" height="4.8"/>
		</g>
	</g>
	<circle id="Elipse_6566" class="st4" cx="997" cy="11475" r="11"/>
	<circle id="Elipse_6567" class="st4" cx="1063" cy="11475" r="11"/>
	<circle id="Elipse_6568" class="st4" cx="1063" cy="11540" r="11"/>
	<circle id="Elipse_6569" class="st4" cx="1033" cy="11504" r="11"/>
	<circle id="Elipse_6570" class="st4" cx="1027" cy="11541" r="11"/>
	<circle id="Elipse_6571" class="st4" cx="992" cy="11542" r="11"/>
	<rect id="Rectángulo_45091" x="1007" y="11471" class="st14" width="47" height="8"/>
	<rect id="Rectángulo_45093" x="1043" y="11500" class="st14" width="16" height="8"/>
	<rect id="Rectángulo_45094" x="1001" y="11538" class="st14" width="16" height="8"/>
	<rect id="Rectángulo_45095" x="1037" y="11537" class="st14" width="16" height="8"/>
	<rect id="Rectángulo_45092" x="1059" y="11484" class="st14" width="8" height="47"/>
</g>
</svg>
