<?xml version="1.0" encoding="utf-8"?>
<!-- Generator: Adobe Illustrator 25.4.2, SVG Export Plug-In . SVG Version: 6.00 Build 0)  -->
<svg version="1.1" id="Capa_1" xmlns="http://www.w3.org/2000/svg" xmlns:xlink="http://www.w3.org/1999/xlink" x="0px" y="0px"
	 viewBox="0 0 546 280" style="enable-background:new 0 0 546 280;" xml:space="preserve">
<style type="text/css">
	.st0{opacity:0.5;fill:#4DD0E1;enable-background:new    ;}
	.st1{enable-background:new    ;}
	.st2{fill:#12263F;}
	.st3{fill:#FFCA28;}
	.st4{fill:#FFFFFF;}
	.st5{fill:none;stroke:#4DD0E1;stroke-width:4;}
</style>
<path id="Rectángulo_43066" class="st0" d="M213,0h120c11,0,20,9,20,20v8c0,11-9,20-20,20H213c-11,0-20-9-20-20v-8
	C193,9,202,0,213,0z"/>
<path id="Rectángulo_43070" class="st0" d="M391,30h120c11,0,20,9,20,20v8c0,11-9,20-20,20H391c-11,0-20-9-20-20v-8
	C371,39,380,30,391,30z"/>
<path id="Rectángulo_43071" class="st0" d="M391,201h120c11,0,20,9,20,20v8c0,11-9,20-20,20H391c-11,0-20-9-20-20v-8
	C371,210,380,201,391,201z"/>
<path id="Rectángulo_43068" class="st0" d="M213,232h120c11,0,20,9,20,20v8c0,11-9,20-20,20H213c-11,0-20-9-20-20v-8
	C193,241,202,232,213,232z"/>
<path id="Rectángulo_43067" class="st0" d="M406,116h120c11,0,20,9,20,20v8c0,11-9,20-20,20H406c-11,0-20-9-20-20v-8
	C386,125,395,116,406,116z"/>
<path id="Rectángulo_43069" class="st0" d="M20,115h120c11,0,20,9,20,20v8c0,11-9,20-20,20H20c-11,0-20-9-20-20v-8
	C0,124,9,115,20,115z"/>
<g class="st1">
	<path class="st2" d="M254.6,28.2c-0.1,1.2-0.5,2.2-1.4,2.9c-0.8,0.7-1.9,1.1-3.2,1.1c-1.5,0-2.6-0.5-3.4-1.5s-1.3-2.3-1.3-4v-0.7
		c0-1.1,0.2-2.1,0.6-2.9c0.4-0.8,0.9-1.5,1.7-1.9c0.7-0.4,1.5-0.7,2.5-0.7c1.3,0,2.4,0.4,3.2,1.1c0.8,0.7,1.3,1.7,1.4,3h-2.3
		c-0.1-0.7-0.3-1.3-0.6-1.6s-0.9-0.5-1.6-0.5c-0.8,0-1.4,0.3-1.8,0.8c-0.4,0.6-0.6,1.4-0.6,2.6v0.9c0,1.2,0.2,2.1,0.6,2.7
		c0.4,0.6,1,0.9,1.8,0.9c0.7,0,1.3-0.2,1.6-0.5c0.4-0.3,0.6-0.8,0.6-1.5H254.6z"/>
	<path class="st2" d="M258.4,32h-2.3V20h2.3V32z"/>
	<path class="st2" d="M265.2,32c-0.1-0.2-0.2-0.5-0.2-0.8c-0.5,0.6-1.3,0.9-2.1,0.9c-0.8,0-1.5-0.2-2.1-0.7
		c-0.5-0.5-0.8-1.1-0.8-1.8c0-0.9,0.3-1.6,1-2.1s1.6-0.7,2.9-0.7h1v-0.5c0-0.4-0.1-0.7-0.3-0.9c-0.2-0.2-0.5-0.4-0.9-0.4
		c-0.4,0-0.7,0.1-0.9,0.3c-0.2,0.2-0.3,0.4-0.3,0.8h-2.3c0-0.5,0.2-0.9,0.5-1.4c0.3-0.4,0.7-0.7,1.3-1c0.6-0.2,1.2-0.4,1.9-0.4
		c1,0,1.9,0.3,2.5,0.8c0.6,0.5,0.9,1.3,0.9,2.2V30c0,0.8,0.1,1.4,0.3,1.8V32H265.2z M263.3,30.4c0.3,0,0.6-0.1,0.9-0.2
		s0.5-0.3,0.6-0.6v-1.5H264c-1.1,0-1.7,0.4-1.8,1.2l0,0.1c0,0.3,0.1,0.5,0.3,0.7C262.7,30.3,263,30.4,263.3,30.4z"/>
	<path class="st2" d="M273.4,29.7c0-0.3-0.1-0.5-0.4-0.7s-0.7-0.3-1.3-0.4c-2-0.4-3-1.3-3-2.6c0-0.8,0.3-1.4,0.9-1.9
		c0.6-0.5,1.4-0.8,2.4-0.8c1.1,0,1.9,0.3,2.6,0.8s1,1.2,1,2h-2.3c0-0.3-0.1-0.6-0.3-0.8c-0.2-0.2-0.5-0.3-1-0.3
		c-0.4,0-0.7,0.1-0.9,0.3c-0.2,0.2-0.3,0.4-0.3,0.7c0,0.2,0.1,0.5,0.4,0.6c0.2,0.2,0.6,0.3,1.2,0.4s1,0.2,1.4,0.4
		c1.2,0.4,1.8,1.2,1.8,2.3c0,0.8-0.3,1.4-1,1.9c-0.7,0.5-1.5,0.7-2.6,0.7c-0.7,0-1.3-0.1-1.9-0.4c-0.5-0.3-1-0.6-1.3-1
		s-0.5-0.9-0.5-1.4h2.1c0,0.4,0.2,0.7,0.4,0.9c0.3,0.2,0.6,0.3,1.1,0.3c0.4,0,0.8-0.1,1-0.2C273.3,30.1,273.4,29.9,273.4,29.7z"/>
	<path class="st2" d="M281.7,29.7c0-0.3-0.1-0.5-0.4-0.7s-0.7-0.3-1.3-0.4c-2-0.4-3-1.3-3-2.6c0-0.8,0.3-1.4,0.9-1.9
		s1.4-0.8,2.4-0.8c1.1,0,1.9,0.3,2.6,0.8s1,1.2,1,2h-2.3c0-0.3-0.1-0.6-0.3-0.8s-0.5-0.3-1-0.3c-0.4,0-0.7,0.1-0.9,0.3
		s-0.3,0.4-0.3,0.7c0,0.2,0.1,0.5,0.4,0.6s0.6,0.3,1.2,0.4s1,0.2,1.4,0.4c1.2,0.4,1.8,1.2,1.8,2.3c0,0.8-0.3,1.4-1,1.9
		s-1.5,0.7-2.6,0.7c-0.7,0-1.3-0.1-1.9-0.4s-1-0.6-1.3-1s-0.5-0.9-0.5-1.4h2.1c0,0.4,0.2,0.7,0.4,0.9s0.6,0.3,1.1,0.3
		c0.4,0,0.8-0.1,1-0.2S281.7,29.9,281.7,29.7z"/>
	<path class="st2" d="M289.2,32.2c-1.2,0-2.2-0.4-3-1.1s-1.2-1.8-1.2-3v-0.2c0-0.8,0.2-1.6,0.5-2.3s0.8-1.2,1.4-1.5s1.3-0.5,2.1-0.5
		c1.2,0,2.1,0.4,2.7,1.1s1,1.8,1,3.1v0.9h-5.4c0.1,0.6,0.3,1,0.7,1.3s0.8,0.5,1.4,0.5c0.9,0,1.5-0.3,2-0.9l1.1,1.2
		c-0.3,0.5-0.8,0.9-1.4,1.1S289.9,32.2,289.2,32.2z M288.9,25.2c-0.4,0-0.8,0.2-1.1,0.5s-0.5,0.7-0.5,1.3h3.1v-0.2
		c0-0.5-0.1-0.9-0.4-1.2S289.4,25.2,288.9,25.2z"/>
	<path class="st2" d="M298.5,29.7c0-0.3-0.1-0.5-0.4-0.7s-0.7-0.3-1.3-0.4c-2-0.4-3-1.3-3-2.6c0-0.8,0.3-1.4,0.9-1.9
		s1.4-0.8,2.4-0.8c1.1,0,1.9,0.3,2.6,0.8s1,1.2,1,2h-2.3c0-0.3-0.1-0.6-0.3-0.8s-0.5-0.3-1-0.3c-0.4,0-0.7,0.1-0.9,0.3
		s-0.3,0.4-0.3,0.7c0,0.2,0.1,0.5,0.4,0.6s0.6,0.3,1.2,0.4s1,0.2,1.4,0.4c1.2,0.4,1.8,1.2,1.8,2.3c0,0.8-0.3,1.4-1,1.9
		s-1.5,0.7-2.6,0.7c-0.7,0-1.3-0.1-1.9-0.4s-1-0.6-1.3-1s-0.5-0.9-0.5-1.4h2.1c0,0.4,0.2,0.7,0.4,0.9s0.6,0.3,1.1,0.3
		c0.4,0,0.8-0.1,1-0.2S298.5,29.9,298.5,29.7z"/>
</g>
<g class="st1">
	<path class="st2" d="M392.8,62V50.6h3.5c1,0,1.9,0.2,2.7,0.7s1.4,1.1,1.8,1.9c0.4,0.8,0.7,1.8,0.7,2.8v0.5c0,1.1-0.2,2-0.7,2.8
		c-0.4,0.8-1,1.5-1.8,1.9c-0.8,0.5-1.7,0.7-2.7,0.7H392.8z M395.2,52.5v7.6h1.1c0.9,0,1.6-0.3,2.1-0.9s0.7-1.5,0.7-2.6V56
		c0-1.2-0.2-2-0.7-2.6c-0.5-0.6-1.2-0.9-2.1-0.9H395.2z"/>
	<path class="st2" d="M408,62c-0.1-0.2-0.2-0.5-0.2-0.8c-0.5,0.6-1.3,0.9-2.1,0.9c-0.8,0-1.5-0.2-2.1-0.7c-0.5-0.5-0.8-1.1-0.8-1.8
		c0-0.9,0.3-1.6,1-2.1s1.6-0.7,2.9-0.7h1v-0.5c0-0.4-0.1-0.7-0.3-0.9c-0.2-0.2-0.5-0.4-0.9-0.4c-0.4,0-0.7,0.1-0.9,0.3
		c-0.2,0.2-0.3,0.4-0.3,0.8h-2.3c0-0.5,0.2-0.9,0.5-1.4c0.3-0.4,0.7-0.7,1.3-1c0.6-0.2,1.2-0.4,1.9-0.4c1,0,1.9,0.3,2.5,0.8
		c0.6,0.5,0.9,1.3,0.9,2.2V60c0,0.8,0.1,1.4,0.3,1.8V62H408z M406.1,60.4c0.3,0,0.6-0.1,0.9-0.2s0.5-0.3,0.6-0.6v-1.5h-0.8
		c-1.1,0-1.7,0.4-1.8,1.2l0,0.1c0,0.3,0.1,0.5,0.3,0.7C405.5,60.3,405.8,60.4,406.1,60.4z"/>
	<path class="st2" d="M414.4,51.5v2.1h1.4v1.7h-1.4v4.2c0,0.3,0.1,0.5,0.2,0.7c0.1,0.1,0.3,0.2,0.7,0.2c0.2,0,0.5,0,0.7-0.1V62
		c-0.4,0.1-0.9,0.2-1.4,0.2c-1.6,0-2.4-0.8-2.4-2.4v-4.6h-1.2v-1.7h1.2v-2.1H414.4z"/>
	<path class="st2" d="M422,62c-0.1-0.2-0.2-0.5-0.2-0.8c-0.5,0.6-1.3,0.9-2.1,0.9c-0.8,0-1.5-0.2-2.1-0.7c-0.5-0.5-0.8-1.1-0.8-1.8
		c0-0.9,0.3-1.6,1-2.1s1.6-0.7,2.9-0.7h1v-0.5c0-0.4-0.1-0.7-0.3-0.9c-0.2-0.2-0.5-0.4-0.9-0.4c-0.4,0-0.7,0.1-0.9,0.3
		c-0.2,0.2-0.3,0.4-0.3,0.8h-2.3c0-0.5,0.2-0.9,0.5-1.4c0.3-0.4,0.7-0.7,1.3-1c0.6-0.2,1.2-0.4,1.9-0.4c1,0,1.9,0.3,2.5,0.8
		c0.6,0.5,0.9,1.3,0.9,2.2V60c0,0.8,0.1,1.4,0.3,1.8V62H422z M420.1,60.4c0.3,0,0.6-0.1,0.9-0.2s0.5-0.3,0.6-0.6v-1.5h-0.8
		c-1.1,0-1.7,0.4-1.8,1.2l0,0.1c0,0.3,0.1,0.5,0.3,0.7C419.5,60.3,419.8,60.4,420.1,60.4z"/>
	<path class="st2" d="M434.5,62c-0.1-0.2-0.2-0.5-0.2-0.8c-0.5,0.6-1.3,0.9-2.1,0.9c-0.8,0-1.5-0.2-2.1-0.7
		c-0.5-0.5-0.8-1.1-0.8-1.8c0-0.9,0.3-1.6,1-2.1s1.6-0.7,2.9-0.7h1v-0.5c0-0.4-0.1-0.7-0.3-0.9c-0.2-0.2-0.5-0.4-0.9-0.4
		c-0.4,0-0.7,0.1-0.9,0.3c-0.2,0.2-0.3,0.4-0.3,0.8h-2.3c0-0.5,0.2-0.9,0.5-1.4c0.3-0.4,0.7-0.7,1.3-1c0.6-0.2,1.2-0.4,1.9-0.4
		c1,0,1.9,0.3,2.5,0.8c0.6,0.5,0.9,1.3,0.9,2.2V60c0,0.8,0.1,1.4,0.3,1.8V62H434.5z M432.7,60.4c0.3,0,0.6-0.1,0.9-0.2
		s0.5-0.3,0.6-0.6v-1.5h-0.8c-1.1,0-1.7,0.4-1.8,1.2l0,0.1c0,0.3,0.1,0.5,0.3,0.7C432.1,60.3,432.3,60.4,432.7,60.4z"/>
	<path class="st2" d="M445.8,57.9c0,1.4-0.3,2.4-0.9,3.2s-1.4,1.1-2.4,1.1c-0.9,0-1.6-0.4-2.2-1.1l-0.1,0.9h-2V50h2.3v4.3
		c0.5-0.6,1.2-0.9,2.1-0.9c1,0,1.8,0.4,2.4,1.1s0.9,1.8,0.9,3.2V57.9z M443.6,57.7c0-0.9-0.1-1.5-0.4-1.9c-0.3-0.4-0.7-0.6-1.2-0.6
		c-0.7,0-1.2,0.3-1.5,0.9v3.3c0.3,0.6,0.8,0.9,1.5,0.9c0.7,0,1.2-0.4,1.4-1.1C443.5,58.9,443.6,58.4,443.6,57.7z"/>
	<path class="st2" d="M451.8,59.7c0-0.3-0.1-0.5-0.4-0.7s-0.7-0.3-1.3-0.4c-2-0.4-3-1.3-3-2.6c0-0.8,0.3-1.4,0.9-1.9
		c0.6-0.5,1.4-0.8,2.4-0.8c1.1,0,1.9,0.3,2.6,0.8c0.6,0.5,1,1.2,1,2h-2.3c0-0.3-0.1-0.6-0.3-0.8c-0.2-0.2-0.5-0.3-1-0.3
		c-0.4,0-0.7,0.1-0.9,0.3c-0.2,0.2-0.3,0.4-0.3,0.7c0,0.2,0.1,0.5,0.4,0.6c0.2,0.2,0.6,0.3,1.2,0.4s1,0.2,1.4,0.4
		c1.2,0.4,1.8,1.2,1.8,2.3c0,0.8-0.3,1.4-1,1.9c-0.7,0.5-1.5,0.7-2.6,0.7c-0.7,0-1.3-0.1-1.9-0.4c-0.5-0.3-1-0.6-1.3-1
		s-0.5-0.9-0.5-1.4h2.1c0,0.4,0.2,0.7,0.4,0.9c0.3,0.2,0.6,0.3,1.1,0.3c0.4,0,0.8-0.1,1-0.2C451.7,60.1,451.8,59.9,451.8,59.7z"/>
	<path class="st2" d="M458.2,51.5v2.1h1.4v1.7h-1.4v4.2c0,0.3,0.1,0.5,0.2,0.7c0.1,0.1,0.3,0.2,0.7,0.2c0.2,0,0.5,0,0.7-0.1V62
		c-0.4,0.1-0.9,0.2-1.4,0.2c-1.6,0-2.4-0.8-2.4-2.4v-4.6h-1.2v-1.7h1.2v-2.1H458.2z"/>
	<path class="st2" d="M465.6,55.7c-0.3,0-0.6-0.1-0.8-0.1c-0.9,0-1.4,0.3-1.7,0.9V62h-2.3v-8.5h2.1l0.1,1c0.5-0.8,1.1-1.2,1.9-1.2
		c0.2,0,0.5,0,0.7,0.1L465.6,55.7z"/>
	<path class="st2" d="M471.4,62c-0.1-0.2-0.2-0.5-0.2-0.8c-0.5,0.6-1.3,0.9-2.1,0.9c-0.8,0-1.5-0.2-2.1-0.7
		c-0.5-0.5-0.8-1.1-0.8-1.8c0-0.9,0.3-1.6,1-2.1s1.6-0.7,2.9-0.7h1v-0.5c0-0.4-0.1-0.7-0.3-0.9c-0.2-0.2-0.5-0.4-0.9-0.4
		c-0.4,0-0.7,0.1-0.9,0.3c-0.2,0.2-0.3,0.4-0.3,0.8h-2.3c0-0.5,0.2-0.9,0.5-1.4c0.3-0.4,0.7-0.7,1.3-1c0.6-0.2,1.2-0.4,1.9-0.4
		c1,0,1.9,0.3,2.5,0.8c0.6,0.5,0.9,1.3,0.9,2.2V60c0,0.8,0.1,1.4,0.3,1.8V62H471.4z M469.5,60.4c0.3,0,0.6-0.1,0.9-0.2
		s0.5-0.3,0.6-0.6v-1.5h-0.8c-1.1,0-1.7,0.4-1.8,1.2l0,0.1c0,0.3,0.1,0.5,0.3,0.7C468.9,60.3,469.1,60.4,469.5,60.4z"/>
	<path class="st2" d="M478.6,60.3c0.4,0,0.8-0.1,1-0.3c0.3-0.2,0.4-0.5,0.4-0.9h2.1c0,0.6-0.2,1.1-0.5,1.6c-0.3,0.5-0.7,0.8-1.3,1.1
		c-0.5,0.3-1.1,0.4-1.8,0.4c-1.2,0-2.2-0.4-2.9-1.2c-0.7-0.8-1-1.8-1-3.2v-0.1c0-1.3,0.3-2.3,1-3.1c0.7-0.8,1.6-1.2,2.9-1.2
		c1.1,0,1.9,0.3,2.5,0.9c0.6,0.6,1,1.4,1,2.4H480c0-0.4-0.1-0.8-0.4-1.1c-0.3-0.3-0.6-0.4-1-0.4c-0.5,0-0.9,0.2-1.2,0.6
		c-0.3,0.4-0.4,1-0.4,1.9v0.2c0,0.9,0.1,1.5,0.4,1.9S478,60.3,478.6,60.3z"/>
	<path class="st2" d="M486.1,51.5v2.1h1.4v1.7h-1.4v4.2c0,0.3,0.1,0.5,0.2,0.7c0.1,0.1,0.3,0.2,0.7,0.2c0.2,0,0.5,0,0.7-0.1V62
		c-0.4,0.1-0.9,0.2-1.4,0.2c-1.6,0-2.4-0.8-2.4-2.4v-4.6h-1.2v-1.7h1.2v-2.1H486.1z"/>
	<path class="st2" d="M488.8,51.4c0-0.3,0.1-0.6,0.3-0.8s0.5-0.3,0.9-0.3c0.4,0,0.7,0.1,0.9,0.3c0.2,0.2,0.3,0.5,0.3,0.8
		c0,0.3-0.1,0.6-0.3,0.8c-0.2,0.2-0.5,0.3-0.9,0.3c-0.4,0-0.7-0.1-0.9-0.3C488.9,52,488.8,51.7,488.8,51.4z M491.2,62h-2.3v-8.5h2.3
		V62z"/>
	<path class="st2" d="M492.7,57.7c0-0.8,0.2-1.6,0.5-2.2c0.3-0.7,0.8-1.2,1.4-1.5c0.6-0.4,1.3-0.5,2.1-0.5c1.1,0,2.1,0.3,2.8,1
		c0.7,0.7,1.1,1.6,1.2,2.8l0,0.6c0,1.3-0.4,2.3-1.1,3.1c-0.7,0.8-1.7,1.2-2.9,1.2s-2.2-0.4-2.9-1.2s-1.1-1.8-1.1-3.2V57.7z
		 M494.9,57.9c0,0.8,0.2,1.4,0.5,1.8c0.3,0.4,0.7,0.6,1.3,0.6c0.5,0,1-0.2,1.3-0.6c0.3-0.4,0.5-1.1,0.5-2c0-0.8-0.2-1.4-0.5-1.8
		c-0.3-0.4-0.7-0.6-1.3-0.6c-0.6,0-1,0.2-1.3,0.6C495.1,56.3,494.9,57,494.9,57.9z"/>
	<path class="st2" d="M504.2,53.5l0.1,1c0.6-0.8,1.4-1.1,2.4-1.1c0.9,0,1.6,0.3,2,0.8s0.7,1.3,0.7,2.4V62h-2.3v-5.4
		c0-0.5-0.1-0.8-0.3-1c-0.2-0.2-0.6-0.3-1-0.3c-0.6,0-1.1,0.3-1.4,0.8v6H502v-8.5H504.2z"/>
</g>
<g class="st1">
	<path class="st2" d="M388.1,233h-2.3v-11.4h2.3V233z"/>
	<path class="st2" d="M392.2,224.5l0.1,1c0.6-0.8,1.4-1.1,2.4-1.1c0.9,0,1.6,0.3,2,0.8s0.7,1.3,0.7,2.4v5.5h-2.3v-5.4
		c0-0.5-0.1-0.8-0.3-1c-0.2-0.2-0.6-0.3-1-0.3c-0.6,0-1.1,0.3-1.4,0.8v6h-2.3v-8.5H392.2z"/>
	<path class="st2" d="M399.7,233v-6.8h-1.3v-1.7h1.3v-0.7c0-0.9,0.3-1.7,0.8-2.2c0.5-0.5,1.3-0.8,2.3-0.8c0.3,0,0.7,0.1,1.1,0.2
		l0,1.8c-0.2,0-0.4-0.1-0.7-0.1c-0.8,0-1.3,0.4-1.3,1.2v0.7h1.7v1.7h-1.7v6.8H399.7z"/>
	<path class="st2" d="M404.4,228.7c0-0.8,0.2-1.6,0.5-2.2c0.3-0.7,0.8-1.2,1.4-1.5c0.6-0.4,1.3-0.5,2.1-0.5c1.1,0,2.1,0.3,2.8,1
		c0.7,0.7,1.1,1.6,1.2,2.8l0,0.6c0,1.3-0.4,2.3-1.1,3.1c-0.7,0.8-1.7,1.2-2.9,1.2s-2.2-0.4-2.9-1.2s-1.1-1.8-1.1-3.2V228.7z
		 M406.7,228.9c0,0.8,0.2,1.4,0.5,1.8c0.3,0.4,0.7,0.6,1.3,0.6c0.5,0,1-0.2,1.3-0.6c0.3-0.4,0.5-1.1,0.5-2c0-0.8-0.2-1.4-0.5-1.8
		c-0.3-0.4-0.7-0.6-1.3-0.6c-0.6,0-1,0.2-1.3,0.6C406.9,227.3,406.7,228,406.7,228.9z"/>
	<path class="st2" d="M418.6,226.7c-0.3,0-0.6-0.1-0.8-0.1c-0.9,0-1.4,0.3-1.7,0.9v5.5h-2.3v-8.5h2.1l0.1,1c0.5-0.8,1.1-1.2,1.9-1.2
		c0.2,0,0.5,0,0.7,0.1L418.6,226.7z"/>
	<path class="st2" d="M421.8,224.5l0.1,0.9c0.6-0.7,1.4-1.1,2.4-1.1c1.1,0,1.8,0.4,2.2,1.3c0.6-0.9,1.4-1.3,2.5-1.3
		c0.9,0,1.6,0.3,2,0.8c0.4,0.5,0.7,1.3,0.7,2.4v5.4h-2.3v-5.4c0-0.5-0.1-0.8-0.3-1.1s-0.5-0.3-1-0.3c-0.7,0-1.1,0.3-1.4,1l0,5.8
		h-2.3v-5.4c0-0.5-0.1-0.8-0.3-1.1c-0.2-0.2-0.5-0.3-1-0.3c-0.6,0-1.1,0.3-1.4,0.8v6h-2.3v-8.5H421.8z"/>
	<path class="st2" d="M438.4,233c-0.1-0.2-0.2-0.5-0.2-0.8c-0.5,0.6-1.3,0.9-2.1,0.9c-0.8,0-1.5-0.2-2.1-0.7
		c-0.5-0.5-0.8-1.1-0.8-1.8c0-0.9,0.3-1.6,1-2.1s1.6-0.7,2.9-0.7h1v-0.5c0-0.4-0.1-0.7-0.3-0.9c-0.2-0.2-0.5-0.4-0.9-0.4
		c-0.4,0-0.7,0.1-0.9,0.3c-0.2,0.2-0.3,0.4-0.3,0.8h-2.3c0-0.5,0.2-0.9,0.5-1.4c0.3-0.4,0.7-0.7,1.3-1c0.6-0.2,1.2-0.4,1.9-0.4
		c1,0,1.9,0.3,2.5,0.8c0.6,0.5,0.9,1.3,0.9,2.2v3.7c0,0.8,0.1,1.4,0.3,1.8v0.1H438.4z M436.6,231.4c0.3,0,0.6-0.1,0.9-0.2
		s0.5-0.3,0.6-0.6v-1.5h-0.8c-1.1,0-1.7,0.4-1.8,1.2l0,0.1c0,0.3,0.1,0.5,0.3,0.7C435.9,231.3,436.2,231.4,436.6,231.4z"/>
	<path class="st2" d="M444.8,222.5v2.1h1.4v1.7h-1.4v4.2c0,0.3,0.1,0.5,0.2,0.7c0.1,0.1,0.3,0.2,0.7,0.2c0.2,0,0.5,0,0.7-0.1v1.7
		c-0.4,0.1-0.9,0.2-1.4,0.2c-1.6,0-2.4-0.8-2.4-2.4v-4.6h-1.2v-1.7h1.2v-2.1H444.8z"/>
	<path class="st2" d="M447.5,222.4c0-0.3,0.1-0.6,0.3-0.8s0.5-0.3,0.9-0.3c0.4,0,0.7,0.1,0.9,0.3c0.2,0.2,0.3,0.5,0.3,0.8
		c0,0.3-0.1,0.6-0.3,0.8c-0.2,0.2-0.5,0.3-0.9,0.3c-0.4,0-0.7-0.1-0.9-0.3C447.6,223,447.5,222.7,447.5,222.4z M449.9,233h-2.3v-8.5
		h2.3V233z"/>
	<path class="st2" d="M451.4,228.7c0-0.8,0.2-1.6,0.5-2.2c0.3-0.7,0.8-1.2,1.4-1.5c0.6-0.4,1.3-0.5,2.1-0.5c1.1,0,2.1,0.3,2.8,1
		c0.7,0.7,1.1,1.6,1.2,2.8l0,0.6c0,1.3-0.4,2.3-1.1,3.1c-0.7,0.8-1.7,1.2-2.9,1.2s-2.2-0.4-2.9-1.2s-1.1-1.8-1.1-3.2V228.7z
		 M453.7,228.9c0,0.8,0.2,1.4,0.5,1.8c0.3,0.4,0.7,0.6,1.3,0.6c0.5,0,1-0.2,1.3-0.6c0.3-0.4,0.5-1.1,0.5-2c0-0.8-0.2-1.4-0.5-1.8
		c-0.3-0.4-0.7-0.6-1.3-0.6c-0.6,0-1,0.2-1.3,0.6C453.8,227.3,453.7,228,453.7,228.9z"/>
	<path class="st2" d="M462.9,224.5l0.1,1c0.6-0.8,1.4-1.1,2.4-1.1c0.9,0,1.6,0.3,2,0.8s0.7,1.3,0.7,2.4v5.5h-2.3v-5.4
		c0-0.5-0.1-0.8-0.3-1c-0.2-0.2-0.6-0.3-1-0.3c-0.6,0-1.1,0.3-1.4,0.8v6h-2.3v-8.5H462.9z"/>
	<path class="st2" d="M476,225.5c0.6-0.7,1.4-1.1,2.3-1.1c1.8,0,2.8,1.1,2.8,3.2v5.4h-2.3v-5.4c0-0.5-0.1-0.8-0.3-1.1
		c-0.2-0.2-0.6-0.3-1-0.3c-0.7,0-1.1,0.3-1.4,0.8v6h-2.3v-12h2.3V225.5z"/>
	<path class="st2" d="M482.7,222.4c0-0.3,0.1-0.6,0.3-0.8s0.5-0.3,0.9-0.3c0.4,0,0.7,0.1,0.9,0.3c0.2,0.2,0.3,0.5,0.3,0.8
		c0,0.3-0.1,0.6-0.3,0.8c-0.2,0.2-0.5,0.3-0.9,0.3c-0.4,0-0.7-0.1-0.9-0.3C482.8,223,482.7,222.7,482.7,222.4z M485.1,233h-2.3v-8.5
		h2.3V233z"/>
	<path class="st2" d="M486.6,228.7c0-1.3,0.3-2.4,0.9-3.1c0.6-0.8,1.4-1.2,2.4-1.2c0.8,0,1.5,0.3,2,0.9V221h2.3v12h-2l-0.1-0.9
		c-0.6,0.7-1.3,1.1-2.2,1.1c-1,0-1.8-0.4-2.4-1.2S486.6,230.1,486.6,228.7z M488.9,228.9c0,0.8,0.1,1.4,0.4,1.8
		c0.3,0.4,0.7,0.6,1.2,0.6c0.7,0,1.2-0.3,1.5-0.9v-3.3c-0.3-0.6-0.8-0.9-1.5-0.9C489.4,226.2,488.9,227.1,488.9,228.9z"/>
	<path class="st2" d="M495.9,222.4c0-0.3,0.1-0.6,0.3-0.8s0.5-0.3,0.9-0.3c0.4,0,0.7,0.1,0.9,0.3c0.2,0.2,0.3,0.5,0.3,0.8
		c0,0.3-0.1,0.6-0.3,0.8c-0.2,0.2-0.5,0.3-0.9,0.3c-0.4,0-0.7-0.1-0.9-0.3C496.1,223,495.9,222.7,495.9,222.4z M498.3,233h-2.3v-8.5
		h2.3V233z"/>
	<path class="st2" d="M502.3,224.5l0.1,1c0.6-0.8,1.4-1.1,2.4-1.1c0.9,0,1.6,0.3,2,0.8s0.7,1.3,0.7,2.4v5.5h-2.3v-5.4
		c0-0.5-0.1-0.8-0.3-1c-0.2-0.2-0.6-0.3-1-0.3c-0.6,0-1.1,0.3-1.4,0.8v6h-2.3v-8.5H502.3z"/>
	<path class="st2" d="M508.8,228.7c0-1.3,0.3-2.3,0.9-3.1s1.4-1.2,2.5-1.2c0.9,0,1.6,0.3,2.2,1l0.1-0.8h2v8.2c0,0.7-0.2,1.4-0.5,1.9
		s-0.8,1-1.4,1.2s-1.3,0.4-2.1,0.4c-0.6,0-1.2-0.1-1.8-0.4c-0.6-0.2-1-0.6-1.3-1l1-1.4c0.6,0.6,1.2,0.9,2,0.9c0.6,0,1.1-0.2,1.4-0.5
		c0.3-0.3,0.5-0.8,0.5-1.4v-0.5c-0.5,0.6-1.2,0.9-2.1,0.9c-1,0-1.8-0.4-2.5-1.2C509.1,231.2,508.8,230.1,508.8,228.7L508.8,228.7z
		 M511.1,228.9c0,0.8,0.2,1.4,0.5,1.8c0.3,0.4,0.7,0.7,1.3,0.7c0.7,0,1.2-0.3,1.5-0.8V227c-0.3-0.5-0.8-0.8-1.5-0.8
		c-0.5,0-1,0.2-1.3,0.7C511.2,227.3,511.1,228,511.1,228.9z"/>
</g>
<g class="st1">
	<path class="st2" d="M235.9,264h-2.3v-11.4h2.3V264z"/>
	<path class="st2" d="M240,255.5l0.1,1c0.6-0.8,1.4-1.1,2.4-1.1c0.9,0,1.6,0.3,2,0.8s0.7,1.3,0.7,2.4v5.5h-2.3v-5.4
		c0-0.5-0.1-0.8-0.3-1c-0.2-0.2-0.6-0.3-1-0.3c-0.6,0-1.1,0.3-1.4,0.8v6h-2.3v-8.5H240z"/>
	<path class="st2" d="M249.1,256.5c0.6-0.7,1.4-1.1,2.3-1.1c1.8,0,2.8,1.1,2.8,3.2v5.4h-2.3v-5.4c0-0.5-0.1-0.8-0.3-1.1
		c-0.2-0.2-0.6-0.3-1-0.3c-0.7,0-1.1,0.3-1.4,0.8v6h-2.3v-12h2.3V256.5z"/>
	<path class="st2" d="M259.7,264.2c-1.2,0-2.2-0.4-3-1.1c-0.8-0.8-1.2-1.8-1.2-3v-0.2c0-0.8,0.2-1.6,0.5-2.3s0.8-1.2,1.4-1.5
		s1.3-0.5,2.1-0.5c1.2,0,2.1,0.4,2.7,1.1s1,1.8,1,3.1v0.9h-5.4c0.1,0.6,0.3,1,0.7,1.3s0.8,0.5,1.4,0.5c0.9,0,1.5-0.3,2-0.9l1.1,1.2
		c-0.3,0.5-0.8,0.9-1.4,1.1S260.4,264.2,259.7,264.2z M259.5,257.2c-0.4,0-0.8,0.2-1.1,0.5c-0.3,0.3-0.5,0.7-0.5,1.3h3.1v-0.2
		c0-0.5-0.1-0.9-0.4-1.2C260.3,257.3,259.9,257.2,259.5,257.2z"/>
	<path class="st2" d="M269.2,257.7c-0.3,0-0.6-0.1-0.8-0.1c-0.9,0-1.4,0.3-1.7,0.9v5.5h-2.3v-8.5h2.1l0.1,1c0.5-0.8,1.1-1.2,1.9-1.2
		c0.2,0,0.5,0,0.7,0.1L269.2,257.7z"/>
	<path class="st2" d="M270.3,253.4c0-0.3,0.1-0.6,0.3-0.8s0.5-0.3,0.9-0.3c0.4,0,0.7,0.1,0.9,0.3c0.2,0.2,0.3,0.5,0.3,0.8
		c0,0.3-0.1,0.6-0.3,0.8c-0.2,0.2-0.5,0.3-0.9,0.3c-0.4,0-0.7-0.1-0.9-0.3C270.4,254,270.3,253.7,270.3,253.4z M272.7,264h-2.3v-8.5
		h2.3V264z"/>
	<path class="st2" d="M277.3,253.5v2.1h1.4v1.7h-1.4v4.2c0,0.3,0.1,0.5,0.2,0.7s0.3,0.2,0.7,0.2c0.2,0,0.5,0,0.7-0.1v1.7
		c-0.4,0.1-0.9,0.2-1.4,0.2c-1.6,0-2.4-0.8-2.4-2.4v-4.6h-1.2v-1.7h1.2v-2.1H277.3z"/>
	<path class="st2" d="M284.9,264c-0.1-0.2-0.2-0.5-0.2-0.8c-0.5,0.6-1.3,0.9-2.1,0.9c-0.8,0-1.5-0.2-2.1-0.7s-0.8-1.1-0.8-1.8
		c0-0.9,0.3-1.6,1-2.1s1.6-0.7,2.9-0.7h1v-0.5c0-0.4-0.1-0.7-0.3-0.9s-0.5-0.4-0.9-0.4c-0.4,0-0.7,0.1-0.9,0.3s-0.3,0.4-0.3,0.8
		h-2.3c0-0.5,0.2-0.9,0.5-1.4s0.7-0.7,1.3-1s1.2-0.4,1.9-0.4c1,0,1.9,0.3,2.5,0.8s0.9,1.3,0.9,2.2v3.7c0,0.8,0.1,1.4,0.3,1.8v0.1
		H284.9z M283,262.4c0.3,0,0.6-0.1,0.9-0.2s0.5-0.3,0.6-0.6v-1.5h-0.8c-1.1,0-1.7,0.4-1.8,1.2l0,0.1c0,0.3,0.1,0.5,0.3,0.7
		S282.6,262.4,283,262.4z"/>
	<path class="st2" d="M290.6,255.5l0.1,1c0.6-0.8,1.4-1.1,2.4-1.1c0.9,0,1.6,0.3,2,0.8s0.7,1.3,0.7,2.4v5.5h-2.3v-5.4
		c0-0.5-0.1-0.8-0.3-1s-0.6-0.3-1-0.3c-0.6,0-1.1,0.3-1.4,0.8v6h-2.3v-8.5H290.6z"/>
	<path class="st2" d="M301,262.3c0.4,0,0.8-0.1,1-0.3s0.4-0.5,0.4-0.9h2.1c0,0.6-0.2,1.1-0.5,1.6s-0.7,0.8-1.3,1.1s-1.1,0.4-1.8,0.4
		c-1.2,0-2.2-0.4-2.9-1.2s-1-1.8-1-3.2v-0.1c0-1.3,0.3-2.3,1-3.1s1.6-1.2,2.9-1.2c1.1,0,1.9,0.3,2.5,0.9s1,1.4,1,2.4h-2.1
		c0-0.4-0.1-0.8-0.4-1.1c-0.3-0.3-0.6-0.4-1-0.4c-0.5,0-0.9,0.2-1.2,0.6s-0.4,1-0.4,1.9v0.2c0,0.9,0.1,1.5,0.4,1.9
		S300.5,262.3,301,262.3z"/>
	<path class="st2" d="M309.7,264.2c-1.2,0-2.2-0.4-3-1.1s-1.2-1.8-1.2-3v-0.2c0-0.8,0.2-1.6,0.5-2.3s0.8-1.2,1.4-1.5
		s1.3-0.5,2.1-0.5c1.2,0,2.1,0.4,2.7,1.1s1,1.8,1,3.1v0.9h-5.4c0.1,0.6,0.3,1,0.7,1.3s0.8,0.5,1.4,0.5c0.9,0,1.5-0.3,2-0.9l1.1,1.2
		c-0.3,0.5-0.8,0.9-1.4,1.1S310.4,264.2,309.7,264.2z M309.5,257.2c-0.4,0-0.8,0.2-1.1,0.5s-0.5,0.7-0.5,1.3h3.1v-0.2
		c0-0.5-0.1-0.9-0.4-1.2S310,257.2,309.5,257.2z"/>
</g>
<g class="st1">
	<path class="st2" d="M423.1,142.1h-4.5v3h5.3v1.9h-7.6v-11.4h7.6v1.9h-5.3v2.7h4.5V142.1z"/>
	<path class="st2" d="M427.2,138.5l0.1,1c0.6-0.8,1.4-1.1,2.4-1.1c0.9,0,1.6,0.3,2,0.8s0.7,1.3,0.7,2.4v5.5h-2.3v-5.4
		c0-0.5-0.1-0.8-0.3-1c-0.2-0.2-0.6-0.3-1-0.3c-0.6,0-1.1,0.3-1.4,0.8v6H425v-8.5H427.2z"/>
	<path class="st2" d="M437.6,145.3c0.4,0,0.8-0.1,1-0.3c0.3-0.2,0.4-0.5,0.4-0.9h2.1c0,0.6-0.2,1.1-0.5,1.6
		c-0.3,0.5-0.7,0.8-1.3,1.1c-0.5,0.3-1.1,0.4-1.8,0.4c-1.2,0-2.2-0.4-2.9-1.2c-0.7-0.8-1-1.8-1-3.2v-0.1c0-1.3,0.3-2.3,1-3.1
		c0.7-0.8,1.6-1.2,2.9-1.2c1.1,0,1.9,0.3,2.5,0.9c0.6,0.6,1,1.4,1,2.4H439c0-0.4-0.1-0.8-0.4-1.1c-0.3-0.3-0.6-0.4-1-0.4
		c-0.5,0-0.9,0.2-1.2,0.6c-0.3,0.4-0.4,1-0.4,1.9v0.2c0,0.9,0.1,1.5,0.4,1.9S437,145.3,437.6,145.3z"/>
	<path class="st2" d="M447.3,147c-0.1-0.2-0.2-0.5-0.2-0.8c-0.5,0.6-1.3,0.9-2.1,0.9c-0.8,0-1.5-0.2-2.1-0.7
		c-0.5-0.5-0.8-1.1-0.8-1.8c0-0.9,0.3-1.6,1-2.1s1.6-0.7,2.9-0.7h1v-0.5c0-0.4-0.1-0.7-0.3-0.9c-0.2-0.2-0.5-0.4-0.9-0.4
		c-0.4,0-0.7,0.1-0.9,0.3c-0.2,0.2-0.3,0.4-0.3,0.8h-2.3c0-0.5,0.2-0.9,0.5-1.4c0.3-0.4,0.7-0.7,1.3-1c0.6-0.2,1.2-0.4,1.9-0.4
		c1,0,1.9,0.3,2.5,0.8c0.6,0.5,0.9,1.3,0.9,2.2v3.7c0,0.8,0.1,1.4,0.3,1.8v0.1H447.3z M445.4,145.4c0.3,0,0.6-0.1,0.9-0.2
		s0.5-0.3,0.6-0.6v-1.5h-0.8c-1.1,0-1.7,0.4-1.8,1.2l0,0.1c0,0.3,0.1,0.5,0.3,0.7C444.8,145.3,445.1,145.4,445.4,145.4z"/>
	<path class="st2" d="M458.6,142.9c0,1.3-0.3,2.3-0.9,3.1c-0.6,0.8-1.4,1.2-2.4,1.2c-0.9,0-1.5-0.3-2.1-0.9v4H451v-11.7h2.1l0.1,0.8
		c0.5-0.7,1.3-1,2.1-1c1,0,1.9,0.4,2.4,1.2s0.9,1.8,0.9,3.2V142.9z M456.3,142.7c0-0.8-0.1-1.4-0.4-1.8c-0.3-0.4-0.7-0.6-1.2-0.6
		c-0.7,0-1.2,0.3-1.5,0.8v3.5c0.3,0.6,0.8,0.8,1.5,0.8C455.8,145.3,456.3,144.5,456.3,142.7z"/>
	<path class="st2" d="M464.6,144.7c0-0.3-0.1-0.5-0.4-0.7s-0.7-0.3-1.3-0.4c-2-0.4-3-1.3-3-2.6c0-0.8,0.3-1.4,0.9-1.9
		c0.6-0.5,1.4-0.8,2.4-0.8c1.1,0,1.9,0.3,2.6,0.8c0.6,0.5,1,1.2,1,2h-2.3c0-0.3-0.1-0.6-0.3-0.8c-0.2-0.2-0.5-0.3-1-0.3
		c-0.4,0-0.7,0.1-0.9,0.3c-0.2,0.2-0.3,0.4-0.3,0.7c0,0.2,0.1,0.5,0.4,0.6c0.2,0.2,0.6,0.3,1.2,0.4s1,0.2,1.4,0.4
		c1.2,0.4,1.8,1.2,1.8,2.3c0,0.8-0.3,1.4-1,1.9c-0.7,0.5-1.5,0.7-2.6,0.7c-0.7,0-1.3-0.1-1.9-0.4c-0.5-0.3-1-0.6-1.3-1
		s-0.5-0.9-0.5-1.4h2.1c0,0.4,0.2,0.7,0.4,0.9c0.3,0.2,0.6,0.3,1.1,0.3c0.4,0,0.8-0.1,1-0.2C464.5,145.1,464.6,144.9,464.6,144.7z"
		/>
	<path class="st2" d="M473.3,146.1c-0.6,0.7-1.3,1-2.3,1c-0.9,0-1.6-0.3-2.1-0.8s-0.7-1.3-0.7-2.3v-5.5h2.3v5.5
		c0,0.9,0.4,1.3,1.2,1.3c0.8,0,1.3-0.3,1.6-0.8v-6h2.3v8.5h-2.1L473.3,146.1z"/>
	<path class="st2" d="M479.5,147h-2.3v-12h2.3V147z"/>
	<path class="st2" d="M486.3,147c-0.1-0.2-0.2-0.5-0.2-0.8c-0.5,0.6-1.3,0.9-2.1,0.9c-0.8,0-1.5-0.2-2.1-0.7
		c-0.5-0.5-0.8-1.1-0.8-1.8c0-0.9,0.3-1.6,1-2.1s1.6-0.7,2.9-0.7h1v-0.5c0-0.4-0.1-0.7-0.3-0.9c-0.2-0.2-0.5-0.4-0.9-0.4
		c-0.4,0-0.7,0.1-0.9,0.3c-0.2,0.2-0.3,0.4-0.3,0.8h-2.3c0-0.5,0.2-0.9,0.5-1.4c0.3-0.4,0.7-0.7,1.3-1c0.6-0.2,1.2-0.4,1.9-0.4
		c1,0,1.9,0.3,2.5,0.8c0.6,0.5,0.9,1.3,0.9,2.2v3.7c0,0.8,0.1,1.4,0.3,1.8v0.1H486.3z M484.4,145.4c0.3,0,0.6-0.1,0.9-0.2
		s0.5-0.3,0.6-0.6v-1.5h-0.8c-1.1,0-1.7,0.4-1.8,1.2l0,0.1c0,0.3,0.1,0.5,0.3,0.7C483.8,145.3,484.1,145.4,484.4,145.4z"/>
	<path class="st2" d="M492.7,136.5v2.1h1.4v1.7h-1.4v4.2c0,0.3,0.1,0.5,0.2,0.7c0.1,0.1,0.3,0.2,0.7,0.2c0.2,0,0.5,0,0.7-0.1v1.7
		c-0.4,0.1-0.9,0.2-1.4,0.2c-1.6,0-2.4-0.8-2.4-2.4v-4.6h-1.2v-1.7h1.2v-2.1H492.7z"/>
	<path class="st2" d="M495.4,136.4c0-0.3,0.1-0.6,0.3-0.8s0.5-0.3,0.9-0.3c0.4,0,0.7,0.1,0.9,0.3c0.2,0.2,0.3,0.5,0.3,0.8
		c0,0.3-0.1,0.6-0.3,0.8c-0.2,0.2-0.5,0.3-0.9,0.3c-0.4,0-0.7-0.1-0.9-0.3C495.5,137,495.4,136.7,495.4,136.4z M497.8,147h-2.3v-8.5
		h2.3V147z"/>
	<path class="st2" d="M499.3,142.7c0-0.8,0.2-1.6,0.5-2.2c0.3-0.7,0.8-1.2,1.4-1.5c0.6-0.4,1.3-0.5,2.1-0.5c1.1,0,2.1,0.3,2.8,1
		c0.7,0.7,1.1,1.6,1.2,2.8l0,0.6c0,1.3-0.4,2.3-1.1,3.1c-0.7,0.8-1.7,1.2-2.9,1.2s-2.2-0.4-2.9-1.2s-1.1-1.8-1.1-3.2V142.7z
		 M501.5,142.9c0,0.8,0.2,1.4,0.5,1.8c0.3,0.4,0.7,0.6,1.3,0.6c0.5,0,1-0.2,1.3-0.6c0.3-0.4,0.5-1.1,0.5-2c0-0.8-0.2-1.4-0.5-1.8
		c-0.3-0.4-0.7-0.6-1.3-0.6c-0.6,0-1,0.2-1.3,0.6C501.7,141.3,501.5,142,501.5,142.9z"/>
	<path class="st2" d="M510.8,138.5l0.1,1c0.6-0.8,1.4-1.1,2.4-1.1c0.9,0,1.6,0.3,2,0.8s0.7,1.3,0.7,2.4v5.5h-2.3v-5.4
		c0-0.5-0.1-0.8-0.3-1c-0.2-0.2-0.6-0.3-1-0.3c-0.6,0-1.1,0.3-1.4,0.8v6h-2.3v-8.5H510.8z"/>
</g>
<g class="st1">
	<path class="st2" d="M31.1,143v4h-2.3v-11.4h4.4c0.9,0,1.6,0.2,2.3,0.5s1.1,0.8,1.5,1.3c0.3,0.6,0.5,1.2,0.5,2c0,1.1-0.4,2-1.1,2.6
		c-0.8,0.6-1.8,1-3.2,1H31.1z M31.1,141.1h2.1c0.6,0,1.1-0.1,1.4-0.4c0.3-0.3,0.5-0.7,0.5-1.2c0-0.6-0.2-1-0.5-1.4s-0.8-0.5-1.4-0.5
		h-2.1V141.1z"/>
	<path class="st2" d="M38.5,142.7c0-0.8,0.2-1.6,0.5-2.2c0.3-0.7,0.8-1.2,1.4-1.5c0.6-0.4,1.3-0.5,2.1-0.5c1.1,0,2.1,0.3,2.8,1
		c0.7,0.7,1.1,1.6,1.2,2.8l0,0.6c0,1.3-0.4,2.3-1.1,3.1c-0.7,0.8-1.7,1.2-2.9,1.2s-2.2-0.4-2.9-1.2s-1.1-1.8-1.1-3.2V142.7z
		 M40.7,142.9c0,0.8,0.2,1.4,0.5,1.8c0.3,0.4,0.7,0.6,1.3,0.6c0.5,0,1-0.2,1.3-0.6c0.3-0.4,0.5-1.1,0.5-2c0-0.8-0.2-1.4-0.5-1.8
		c-0.3-0.4-0.7-0.6-1.3-0.6c-0.6,0-1,0.2-1.3,0.6C40.9,141.3,40.7,142,40.7,142.9z"/>
	<path class="st2" d="M50.2,147H48v-12h2.3V147z"/>
	<path class="st2" d="M55.3,143.8l1.6-5.3h2.4l-3.4,9.8l-0.2,0.4c-0.5,1.1-1.3,1.7-2.5,1.7c-0.3,0-0.7,0-1-0.1v-1.7l0.3,0
		c0.4,0,0.7-0.1,1-0.2s0.4-0.3,0.5-0.6l0.3-0.7l-3-8.5h2.4L55.3,143.8z"/>
	<path class="st2" d="M62.2,138.5l0.1,0.9c0.6-0.7,1.4-1.1,2.4-1.1c1.1,0,1.8,0.4,2.2,1.3c0.6-0.9,1.4-1.3,2.5-1.3
		c0.9,0,1.6,0.3,2,0.8c0.4,0.5,0.7,1.3,0.7,2.4v5.4H70v-5.4c0-0.5-0.1-0.8-0.3-1.1s-0.5-0.3-1-0.3c-0.7,0-1.1,0.3-1.4,1l0,5.8h-2.3
		v-5.4c0-0.5-0.1-0.8-0.3-1.1c-0.2-0.2-0.5-0.3-1-0.3c-0.6,0-1.1,0.3-1.4,0.8v6h-2.3v-8.5H62.2z"/>
	<path class="st2" d="M73.6,142.7c0-0.8,0.2-1.6,0.5-2.2c0.3-0.7,0.8-1.2,1.4-1.5c0.6-0.4,1.3-0.5,2.1-0.5c1.1,0,2.1,0.3,2.8,1
		c0.7,0.7,1.1,1.6,1.2,2.8l0,0.6c0,1.3-0.4,2.3-1.1,3.1c-0.7,0.8-1.7,1.2-2.9,1.2s-2.2-0.4-2.9-1.2s-1.1-1.8-1.1-3.2V142.7z
		 M75.9,142.9c0,0.8,0.2,1.4,0.5,1.8c0.3,0.4,0.7,0.6,1.3,0.6c0.5,0,1-0.2,1.3-0.6c0.3-0.4,0.5-1.1,0.5-2c0-0.8-0.2-1.4-0.5-1.8
		c-0.3-0.4-0.7-0.6-1.3-0.6c-0.6,0-1,0.2-1.3,0.6C76,141.3,75.9,142,75.9,142.9z"/>
	<path class="st2" d="M87.8,140.7c-0.3,0-0.6-0.1-0.8-0.1c-0.9,0-1.4,0.3-1.7,0.9v5.5H83v-8.5h2.1l0.1,1c0.5-0.8,1.1-1.2,1.9-1.2
		c0.2,0,0.5,0,0.7,0.1L87.8,140.7z"/>
	<path class="st2" d="M96.5,142.9c0,1.3-0.3,2.3-0.9,3.1c-0.6,0.8-1.4,1.2-2.4,1.2c-0.9,0-1.5-0.3-2.1-0.9v4h-2.3v-11.7H91l0.1,0.8
		c0.5-0.7,1.3-1,2.1-1c1,0,1.9,0.4,2.4,1.2s0.9,1.8,0.9,3.2V142.9z M94.2,142.7c0-0.8-0.1-1.4-0.4-1.8c-0.3-0.4-0.7-0.6-1.2-0.6
		c-0.7,0-1.2,0.3-1.5,0.8v3.5c0.3,0.6,0.8,0.8,1.5,0.8C93.7,145.3,94.2,144.5,94.2,142.7z"/>
	<path class="st2" d="M100.1,139.5c0.6-0.7,1.4-1.1,2.3-1.1c1.8,0,2.8,1.1,2.8,3.2v5.4h-2.3v-5.4c0-0.5-0.1-0.8-0.3-1.1
		c-0.2-0.2-0.6-0.3-1-0.3c-0.7,0-1.1,0.3-1.4,0.8v6h-2.3v-12h2.3V139.5z"/>
	<path class="st2" d="M106.8,136.4c0-0.3,0.1-0.6,0.3-0.8s0.5-0.3,0.9-0.3c0.4,0,0.7,0.1,0.9,0.3c0.2,0.2,0.3,0.5,0.3,0.8
		c0,0.3-0.1,0.6-0.3,0.8c-0.2,0.2-0.5,0.3-0.9,0.3c-0.4,0-0.7-0.1-0.9-0.3C106.9,137,106.8,136.7,106.8,136.4z M109.2,147h-2.3v-8.5
		h2.3V147z"/>
	<path class="st2" d="M115.6,144.7c0-0.3-0.1-0.5-0.4-0.7s-0.7-0.3-1.3-0.4c-2-0.4-3-1.3-3-2.6c0-0.8,0.3-1.4,0.9-1.9
		c0.6-0.5,1.4-0.8,2.4-0.8c1.1,0,1.9,0.3,2.6,0.8c0.6,0.5,1,1.2,1,2h-2.3c0-0.3-0.1-0.6-0.3-0.8c-0.2-0.2-0.5-0.3-1-0.3
		c-0.4,0-0.7,0.1-0.9,0.3c-0.2,0.2-0.3,0.4-0.3,0.7c0,0.2,0.1,0.5,0.4,0.6c0.2,0.2,0.6,0.3,1.2,0.4s1,0.2,1.4,0.4
		c1.2,0.4,1.8,1.2,1.8,2.3c0,0.8-0.3,1.4-1,1.9c-0.7,0.5-1.5,0.7-2.6,0.7c-0.7,0-1.3-0.1-1.9-0.4c-0.5-0.3-1-0.6-1.3-1
		s-0.5-0.9-0.5-1.4h2.1c0,0.4,0.2,0.7,0.4,0.9c0.3,0.2,0.6,0.3,1.1,0.3c0.4,0,0.8-0.1,1-0.2C115.5,145.1,115.6,144.9,115.6,144.7z"
		/>
	<path class="st2" d="M121.4,138.5l0.1,0.9c0.6-0.7,1.4-1.1,2.4-1.1c1.1,0,1.8,0.4,2.2,1.3c0.6-0.9,1.4-1.3,2.5-1.3
		c0.9,0,1.6,0.3,2,0.8c0.4,0.5,0.7,1.3,0.7,2.4v5.4h-2.3v-5.4c0-0.5-0.1-0.8-0.3-1.1s-0.5-0.3-1-0.3c-0.7,0-1.1,0.3-1.4,1l0,5.8
		h-2.3v-5.4c0-0.5-0.1-0.8-0.3-1.1c-0.2-0.2-0.5-0.3-1-0.3c-0.6,0-1.1,0.3-1.4,0.8v6h-2.3v-8.5H121.4z"/>
</g>
<g id="Grupo_99531" transform="translate(1090.667 11817.2)">
	<g id="Grupo_99295" transform="translate(0.334 -12.2)">
		<path id="Polígono_36" class="st3" d="M-814.5-11756l6.5,11h-13L-814.5-11756z"/>
		<rect id="Rectángulo_42834" x="-817" y="-11747" class="st3" width="4" height="16"/>
		<rect id="Rectángulo_42835" x="-817" y="-11734.1" class="st3" width="4" height="24.6"/>
	</g>
	<g id="Grupo_99535" transform="translate(0.333 121.8)">
		<path id="Polígono_36-2" class="st3" d="M-814.5-11709.5l-6.5-11h13L-814.5-11709.5z"/>
		<rect id="Rectángulo_42834-2" x="-817" y="-11734.5" class="st3" width="4" height="16"/>
		<rect id="Rectángulo_42835-2" x="-817" y="-11756" class="st3" width="4" height="24.6"/>
	</g>
</g>
<g id="Grupo_99534" transform="translate(1196.196 11890.167) rotate(90)">
	<g id="Grupo_99295-2" transform="translate(0.334 -8.45)">
		<path id="Polígono_36-3" class="st3" d="M-11749.5,821.2l6.5,11h-13L-11749.5,821.2z"/>
		
			<rect id="Rectángulo_42834-3" x="-11758" y="832.2" transform="matrix(2.535182e-06 1 -1 2.535182e-06 -10915.7197 12584.248)" class="st3" width="16" height="4"/>
		
			<rect id="Rectángulo_42835-3" x="-11766.4" y="843.2" transform="matrix(2.535182e-06 1 -1 2.535182e-06 -10904.7695 12595.1982)" class="st3" width="32.7" height="4"/>
	</g>
</g>
<g id="Grupo_99536" transform="translate(1024 11890.501) rotate(90)">
	<g id="Grupo_99295-3" transform="translate(0 0)">
		<path id="Polígono_36-4" class="st3" d="M-11749.5,861.3l-6.5-11h13L-11749.5,861.3z"/>
		
			<rect id="Rectángulo_42834-4" x="-11758" y="846.3" transform="matrix(2.535182e-06 1 -1 2.535182e-06 -10901.6689 12598.2988)" class="st3" width="16" height="4"/>
		
			<rect id="Rectángulo_42835-4" x="-11766.4" y="835.4" transform="matrix(2.535182e-06 1 -1 2.535182e-06 -10912.6191 12587.3496)" class="st3" width="32.7" height="4"/>
	</g>
</g>
<g id="Grupo_99532" transform="translate(1194.306 11949.336) rotate(130)">
	<g id="Grupo_99295-4" transform="translate(0.334 -0.2)">
		<path id="Polígono_36-5" class="st3" d="M-8471.4,8185.5l6.5,11h-13L-8471.4,8185.5z"/>
		<rect id="Rectángulo_42834-5" x="-8473.9" y="8190.5" class="st3" width="4" height="16"/>
		<rect id="Rectángulo_42835-5" x="-8473.9" y="8193.1" class="st3" width="4" height="51.8"/>
	</g>
</g>
<g id="Grupo_99533" transform="translate(1152.703 11874.816) rotate(-130)">
	<g id="Grupo_99295-5" transform="translate(0 -6.405)">
		<path id="Polígono_36-6" class="st3" d="M9539.8,6988.3l-6.5-11h13L9539.8,6988.3z"/>
		
			<rect id="Rectángulo_42834-6" x="9531.3" y="6973.3" transform="matrix(-1.974358e-06 -1 1 -1.974358e-06 2564.0339 16514.6855)" class="st3" width="16" height="4"/>
		
			<rect id="Rectángulo_42835-6" x="9512.8" y="6952.2" transform="matrix(-1.974358e-06 -1 1 -1.974358e-06 2585.1504 16493.5703)" class="st3" width="53" height="4"/>
	</g>
</g>
<g id="Elipse_6369" transform="translate(1023 11850)">
	<ellipse class="st4" cx="-748" cy="-11710.5" rx="73" ry="45.5"/>
	<ellipse class="st5" cx="-748" cy="-11710.5" rx="71" ry="43.5"/>
</g>
<g class="st1">
	<path class="st2" d="M267.7,138.6c0,1.4-0.2,2.6-0.7,3.7c-0.5,1.1-1.2,1.9-2.1,2.4c-0.9,0.6-2,0.9-3.2,0.9c-1.2,0-2.2-0.3-3.2-0.8
		c-0.9-0.6-1.6-1.4-2.1-2.4s-0.8-2.3-0.8-3.6v-0.7c0-1.4,0.3-2.6,0.8-3.7c0.5-1.1,1.2-1.9,2.1-2.5c0.9-0.6,2-0.9,3.2-0.9
		c1.2,0,2.2,0.3,3.2,0.9c0.9,0.6,1.6,1.4,2.1,2.5c0.5,1.1,0.8,2.3,0.8,3.7V138.6z M264.7,137.9c0-1.5-0.3-2.6-0.8-3.4
		c-0.5-0.8-1.3-1.2-2.3-1.2c-1,0-1.7,0.4-2.3,1.1c-0.5,0.8-0.8,1.9-0.8,3.4v0.7c0,1.5,0.3,2.6,0.8,3.4c0.5,0.8,1.3,1.2,2.3,1.2
		c1,0,1.7-0.4,2.3-1.2s0.8-1.9,0.8-3.4V137.9z"/>
	<path class="st2" d="M281.5,138.6c0,1.4-0.2,2.6-0.7,3.7c-0.5,1.1-1.2,1.9-2.1,2.4c-0.9,0.6-2,0.9-3.2,0.9c-1.2,0-2.2-0.3-3.2-0.8
		c-0.9-0.6-1.6-1.4-2.1-2.4s-0.8-2.3-0.8-3.6v-0.7c0-1.4,0.3-2.6,0.8-3.7c0.5-1.1,1.2-1.9,2.1-2.5c0.9-0.6,2-0.9,3.2-0.9
		c1.2,0,2.2,0.3,3.2,0.9c0.9,0.6,1.6,1.4,2.1,2.5c0.5,1.1,0.8,2.3,0.8,3.7V138.6z M278.5,137.9c0-1.5-0.3-2.6-0.8-3.4
		c-0.5-0.8-1.3-1.2-2.3-1.2c-1,0-1.7,0.4-2.3,1.1c-0.5,0.8-0.8,1.9-0.8,3.4v0.7c0,1.5,0.3,2.6,0.8,3.4c0.5,0.8,1.3,1.2,2.3,1.2
		c1,0,1.7-0.4,2.3-1.2s0.8-1.9,0.8-3.4V137.9z"/>
	<path class="st2" d="M286.6,140.3v5h-2.9v-14.2h5.5c1.1,0,2,0.2,2.8,0.6s1.4,0.9,1.9,1.7c0.4,0.7,0.7,1.5,0.7,2.5
		c0,1.4-0.5,2.5-1.4,3.3c-1,0.8-2.3,1.2-4,1.2H286.6z M286.6,138h2.6c0.8,0,1.4-0.2,1.8-0.5c0.4-0.4,0.6-0.9,0.6-1.6
		c0-0.7-0.2-1.3-0.6-1.7s-1-0.7-1.7-0.7h-2.7V138z"/>
</g>
</svg>
