<?xml version="1.0" encoding="utf-8"?>
<!-- Generator: Adobe Illustrator 25.4.2, SVG Export Plug-In . SVG Version: 6.00 Build 0)  -->
<svg version="1.1" id="Capa_1" xmlns="http://www.w3.org/2000/svg" xmlns:xlink="http://www.w3.org/1999/xlink" x="0px" y="0px"
	 viewBox="0 0 802 212" style="enable-background:new 0 0 802 212;" xml:space="preserve">
<style type="text/css">
	.st0{opacity:0.25;fill:#FFA726;enable-background:new    ;}
	.st1{fill:#FFFFFF;}
	.st2{fill:none;stroke:#727997;}
	.st3{opacity:0.25;fill:#26A69A;enable-background:new    ;}
	.st4{opacity:0.25;fill:#FFCA28;enable-background:new    ;}
	.st5{opacity:0.25;fill:#4DD0E1;enable-background:new    ;}
	.st6{opacity:0.25;fill:#039BE5;enable-background:new    ;}
	.st7{enable-background:new    ;}
	.st8{fill:#12263F;}
	.st9{fill:#727997;}
	.st10{opacity:0.5;}
	.st11{fill:#4DD0E1;}
	.st12{fill:none;stroke:#707070;}
	.st13{fill:#FFCA28;}
	.st14{fill:#039BE5;}
	.st15{fill:none;stroke:#727997;stroke-width:2;}
</style>
<g id="Grupo_106854" transform="translate(-399 -12404)">
	<rect id="Rectángulo_43073" x="420" y="12440" class="st0" width="101" height="20"/>
	<g id="Rectángulo_43086" transform="translate(828 12433)">
		<rect class="st1" width="101" height="20"/>
		<rect x="0.5" y="0.5" class="st2" width="100" height="19"/>
	</g>
	<rect id="Rectángulo_43080" x="420" y="12528" class="st3" width="101" height="20"/>
	<g id="Rectángulo_43082" transform="translate(828 12521)">
		<rect class="st1" width="101" height="20"/>
		<rect x="0.5" y="0.5" class="st2" width="100" height="19"/>
	</g>
	<rect id="Rectángulo_43076" x="420" y="12484" class="st4" width="101" height="20"/>
	<g id="Rectángulo_43084" transform="translate(828 12477)">
		<rect class="st1" width="101" height="20"/>
		<rect x="0.5" y="0.5" class="st2" width="100" height="19"/>
	</g>
	<rect id="Rectángulo_43074" x="420" y="12462" class="st5" width="101" height="20"/>
	<g id="Rectángulo_43085" transform="translate(828 12455)">
		<rect class="st1" width="101" height="20"/>
		<rect x="0.5" y="0.5" class="st2" width="100" height="19"/>
	</g>
	<rect id="Rectángulo_43079" x="420" y="12550" class="st5" width="101" height="20"/>
	<g id="Rectángulo_43081" transform="translate(828 12543)">
		<rect class="st1" width="101" height="20"/>
		<rect x="0.5" y="0.5" class="st2" width="100" height="19"/>
	</g>
	<g id="Rectángulo_43087" transform="translate(828 12565)">
		<rect class="st1" width="101" height="20"/>
		<rect x="0.5" y="0.5" class="st2" width="100" height="19"/>
	</g>
	<rect id="Rectángulo_43075" x="420" y="12506" class="st6" width="101" height="20"/>
	<g id="Rectángulo_43083" transform="translate(828 12499)">
		<rect class="st1" width="101" height="20"/>
		<rect x="0.5" y="0.5" class="st2" width="100" height="19"/>
	</g>
	<g class="st7">
		<path class="st8" d="M431.9,12424.4c-0.1,1.2-0.6,2.1-1.3,2.8c-0.7,0.7-1.7,1-3,1c-1.3,0-2.4-0.5-3.2-1.4c-0.8-1-1.2-2.3-1.2-3.9
			v-1.1c0-1.1,0.2-2,0.6-2.8c0.4-0.8,0.9-1.4,1.6-1.8c0.7-0.4,1.5-0.6,2.4-0.6c1.2,0,2.2,0.3,2.9,1c0.7,0.7,1.2,1.6,1.3,2.8h-1.5
			c-0.1-0.9-0.4-1.6-0.8-2c-0.4-0.4-1-0.6-1.8-0.6c-1,0-1.7,0.4-2.3,1.1c-0.5,0.7-0.8,1.7-0.8,3v1.1c0,1.2,0.3,2.2,0.8,2.9
			s1.2,1.1,2.2,1.1c0.8,0,1.5-0.2,1.9-0.6s0.7-1,0.9-2H431.9z"/>
		<path class="st8" d="M433.3,12423.7c0-0.8,0.2-1.6,0.5-2.2c0.3-0.7,0.8-1.2,1.4-1.5c0.6-0.4,1.2-0.5,2-0.5c1.2,0,2.1,0.4,2.8,1.2
			s1.1,1.9,1.1,3.2v0.1c0,0.8-0.2,1.6-0.5,2.2c-0.3,0.7-0.8,1.2-1.4,1.5s-1.3,0.5-2,0.5c-1.1,0-2.1-0.4-2.8-1.2s-1.1-1.9-1.1-3.2
			V12423.7z M434.8,12423.9c0,0.9,0.2,1.7,0.7,2.3c0.4,0.6,1,0.9,1.7,0.9c0.7,0,1.3-0.3,1.8-0.9c0.4-0.6,0.6-1.4,0.6-2.4
			c0-0.9-0.2-1.7-0.7-2.3c-0.4-0.6-1-0.9-1.8-0.9c-0.7,0-1.3,0.3-1.7,0.9S434.8,12422.8,434.8,12423.9z M437.8,12416h1.8l-2.1,2.3
			l-1.2,0L437.8,12416z"/>
		<path class="st8" d="M442.5,12423.7c0-1.3,0.3-2.3,0.9-3.1c0.6-0.8,1.4-1.2,2.4-1.2c1,0,1.8,0.3,2.4,1v-4.4h1.4v12h-1.3l-0.1-0.9
			c-0.6,0.7-1.4,1.1-2.4,1.1c-1,0-1.8-0.4-2.4-1.2s-0.9-1.8-0.9-3.1V12423.7z M443.9,12423.9c0,1,0.2,1.7,0.6,2.2
			c0.4,0.5,0.9,0.8,1.6,0.8c0.9,0,1.6-0.4,2-1.2v-3.9c-0.4-0.8-1.1-1.2-2-1.2c-0.7,0-1.3,0.3-1.7,0.8
			C444.1,12422,443.9,12422.8,443.9,12423.9z"/>
		<path class="st8" d="M451.9,12417.3c0-0.2,0.1-0.4,0.2-0.6c0.1-0.2,0.4-0.2,0.6-0.2s0.5,0.1,0.6,0.2c0.1,0.2,0.2,0.4,0.2,0.6
			s-0.1,0.4-0.2,0.6c-0.1,0.2-0.4,0.2-0.6,0.2s-0.5-0.1-0.6-0.2C452,12417.7,451.9,12417.5,451.9,12417.3z M453.4,12428H452v-8.5
			h1.4V12428z"/>
		<path class="st8" d="M455.4,12423.7c0-1.3,0.3-2.4,0.9-3.1s1.4-1.2,2.4-1.2c1,0,1.8,0.4,2.4,1.1l0.1-0.9h1.3v8.2
			c0,1.1-0.3,2-1,2.6s-1.5,0.9-2.6,0.9c-0.6,0-1.2-0.1-1.8-0.4c-0.6-0.3-1-0.6-1.3-1.1l0.8-0.9c0.6,0.8,1.4,1.1,2.3,1.1
			c0.7,0,1.3-0.2,1.6-0.6c0.4-0.4,0.6-1,0.6-1.7v-0.7c-0.6,0.7-1.4,1-2.4,1c-1,0-1.8-0.4-2.4-1.2
			C455.7,12426.2,455.4,12425.1,455.4,12423.7z M456.9,12423.9c0,1,0.2,1.7,0.6,2.2s0.9,0.8,1.6,0.8c0.9,0,1.6-0.4,2-1.2v-3.9
			c-0.4-0.8-1.1-1.2-2-1.2c-0.7,0-1.3,0.3-1.6,0.8C457.1,12422,456.9,12422.8,456.9,12423.9z"/>
		<path class="st8" d="M464.4,12423.7c0-0.8,0.2-1.6,0.5-2.2c0.3-0.7,0.8-1.2,1.4-1.5c0.6-0.4,1.2-0.5,2-0.5c1.2,0,2.1,0.4,2.8,1.2
			s1.1,1.9,1.1,3.2v0.1c0,0.8-0.2,1.6-0.5,2.2c-0.3,0.7-0.8,1.2-1.4,1.5s-1.3,0.5-2,0.5c-1.1,0-2.1-0.4-2.8-1.2s-1.1-1.9-1.1-3.2
			V12423.7z M465.8,12423.9c0,0.9,0.2,1.7,0.7,2.3c0.4,0.6,1,0.9,1.7,0.9c0.7,0,1.3-0.3,1.8-0.9c0.4-0.6,0.6-1.4,0.6-2.4
			c0-0.9-0.2-1.7-0.7-2.3c-0.4-0.6-1-0.9-1.8-0.9c-0.7,0-1.3,0.3-1.7,0.9S465.8,12422.8,465.8,12423.9z"/>
		<path class="st8" d="M478.5,12428v-7.3h-1.3v-1.1h1.3v-0.9c0-0.9,0.2-1.6,0.7-2.1s1.2-0.7,2.1-0.7c0.3,0,0.7,0,1,0.1l-0.1,1.2
			c-0.2,0-0.5-0.1-0.8-0.1c-0.5,0-0.8,0.1-1.1,0.4c-0.3,0.3-0.4,0.7-0.4,1.2v0.9h1.8v1.1H480v7.3H478.5z"/>
		<path class="st8" d="M488.6,12427.2c-0.6,0.7-1.4,1-2.5,1c-0.9,0-1.6-0.3-2.1-0.8c-0.5-0.5-0.7-1.3-0.7-2.3v-5.5h1.4v5.5
			c0,1.3,0.5,1.9,1.6,1.9c1.1,0,1.8-0.4,2.2-1.2v-6.1h1.4v8.5h-1.4L488.6,12427.2z"/>
		<path class="st8" d="M495.7,12428.2c-1.1,0-2.1-0.4-2.8-1.1s-1.1-1.8-1.1-3v-0.3c0-0.8,0.2-1.6,0.5-2.2s0.8-1.2,1.3-1.5
			c0.6-0.4,1.2-0.6,1.9-0.6c1.1,0,2,0.4,2.6,1.1s0.9,1.8,0.9,3.1v0.6h-5.7c0,0.8,0.3,1.5,0.7,2c0.5,0.5,1.1,0.8,1.8,0.8
			c0.5,0,0.9-0.1,1.3-0.3c0.4-0.2,0.7-0.5,0.9-0.8l0.9,0.7C498.2,12427.6,497.1,12428.2,495.7,12428.2z M495.5,12420.6
			c-0.6,0-1.1,0.2-1.5,0.6c-0.4,0.4-0.6,1-0.7,1.8h4.2v-0.1c0-0.7-0.2-1.3-0.6-1.7C496.6,12420.8,496.1,12420.6,495.5,12420.6z"/>
		<path class="st8" d="M502,12419.5l0,1.1c0.6-0.8,1.5-1.2,2.5-1.2c1.8,0,2.7,1,2.7,3v5.6h-1.4v-5.6c0-0.6-0.1-1.1-0.4-1.4
			s-0.7-0.4-1.3-0.4c-0.5,0-0.9,0.1-1.2,0.4c-0.4,0.2-0.6,0.6-0.8,1v6h-1.4v-8.5H502z"/>
		<path class="st8" d="M511.5,12417.5v2h1.6v1.1h-1.6v5.2c0,0.3,0.1,0.6,0.2,0.8c0.1,0.2,0.4,0.3,0.7,0.3c0.2,0,0.4,0,0.7-0.1v1.2
			c-0.4,0.1-0.8,0.2-1.1,0.2c-0.6,0-1.1-0.2-1.5-0.6s-0.5-0.9-0.5-1.7v-5.2h-1.5v-1.1h1.5v-2H511.5z"/>
		<path class="st8" d="M518.2,12428.2c-1.1,0-2.1-0.4-2.8-1.1s-1.1-1.8-1.1-3v-0.3c0-0.8,0.2-1.6,0.5-2.2s0.8-1.2,1.3-1.5
			c0.6-0.4,1.2-0.6,1.9-0.6c1.1,0,2,0.4,2.6,1.1s0.9,1.8,0.9,3.1v0.6h-5.7c0,0.8,0.3,1.5,0.7,2c0.5,0.5,1.1,0.8,1.8,0.8
			c0.5,0,0.9-0.1,1.3-0.3c0.4-0.2,0.7-0.5,0.9-0.8l0.9,0.7C520.7,12427.6,519.7,12428.2,518.2,12428.2z M518.1,12420.6
			c-0.6,0-1.1,0.2-1.5,0.6c-0.4,0.4-0.6,1-0.7,1.8h4.2v-0.1c0-0.7-0.2-1.3-0.6-1.7C519.1,12420.8,518.7,12420.6,518.1,12420.6z"/>
	</g>
	<g class="st7">
		<path class="st8" d="M759.7,12417.4c-0.1,1.2-0.6,2.1-1.3,2.8c-0.7,0.7-1.7,1-3,1c-1.3,0-2.4-0.5-3.2-1.4c-0.8-1-1.2-2.3-1.2-3.9
			v-1.1c0-1.1,0.2-2,0.6-2.8c0.4-0.8,0.9-1.4,1.6-1.8c0.7-0.4,1.5-0.6,2.4-0.6c1.2,0,2.2,0.3,2.9,1c0.7,0.7,1.2,1.6,1.3,2.8h-1.5
			c-0.1-0.9-0.4-1.6-0.8-2c-0.4-0.4-1-0.6-1.8-0.6c-1,0-1.7,0.4-2.3,1.1c-0.5,0.7-0.8,1.7-0.8,3v1.1c0,1.2,0.3,2.2,0.8,2.9
			s1.2,1.1,2.2,1.1c0.8,0,1.5-0.2,1.9-0.6s0.7-1,0.9-2H759.7z"/>
		<path class="st8" d="M761.2,12416.7c0-0.8,0.2-1.6,0.5-2.2c0.3-0.7,0.8-1.2,1.4-1.5c0.6-0.4,1.2-0.5,2-0.5c1.2,0,2.1,0.4,2.8,1.2
			s1.1,1.9,1.1,3.2v0.1c0,0.8-0.2,1.6-0.5,2.2c-0.3,0.7-0.8,1.2-1.4,1.5s-1.3,0.5-2,0.5c-1.1,0-2.1-0.4-2.8-1.2s-1.1-1.9-1.1-3.2
			V12416.7z M762.6,12416.9c0,0.9,0.2,1.7,0.7,2.3c0.4,0.6,1,0.9,1.7,0.9c0.7,0,1.3-0.3,1.8-0.9c0.4-0.6,0.6-1.4,0.6-2.4
			c0-0.9-0.2-1.7-0.7-2.3c-0.4-0.6-1-0.9-1.8-0.9c-0.7,0-1.3,0.3-1.7,0.9S762.6,12415.8,762.6,12416.9z M765.7,12409h1.8l-2.1,2.3
			l-1.2,0L765.7,12409z"/>
		<path class="st8" d="M770.3,12416.7c0-1.3,0.3-2.3,0.9-3.1c0.6-0.8,1.4-1.2,2.4-1.2c1,0,1.8,0.3,2.4,1v-4.4h1.4v12h-1.3l-0.1-0.9
			c-0.6,0.7-1.4,1.1-2.4,1.1c-1,0-1.8-0.4-2.4-1.2s-0.9-1.8-0.9-3.1V12416.7z M771.8,12416.9c0,1,0.2,1.7,0.6,2.2
			c0.4,0.5,0.9,0.8,1.6,0.8c0.9,0,1.6-0.4,2-1.2v-3.9c-0.4-0.8-1.1-1.2-2-1.2c-0.7,0-1.3,0.3-1.7,0.8
			C772,12415,771.8,12415.8,771.8,12416.9z"/>
		<path class="st8" d="M779.7,12410.3c0-0.2,0.1-0.4,0.2-0.6c0.1-0.2,0.4-0.2,0.6-0.2s0.5,0.1,0.6,0.2c0.1,0.2,0.2,0.4,0.2,0.6
			s-0.1,0.4-0.2,0.6c-0.1,0.2-0.4,0.2-0.6,0.2s-0.5-0.1-0.6-0.2C779.8,12410.7,779.7,12410.5,779.7,12410.3z M781.3,12421h-1.4v-8.5
			h1.4V12421z"/>
		<path class="st8" d="M783.3,12416.7c0-1.3,0.3-2.4,0.9-3.1s1.4-1.2,2.4-1.2c1,0,1.8,0.4,2.4,1.1l0.1-0.9h1.3v8.2
			c0,1.1-0.3,2-1,2.6s-1.5,0.9-2.6,0.9c-0.6,0-1.2-0.1-1.8-0.4c-0.6-0.3-1-0.6-1.3-1.1l0.8-0.9c0.6,0.8,1.4,1.1,2.3,1.1
			c0.7,0,1.3-0.2,1.6-0.6c0.4-0.4,0.6-1,0.6-1.7v-0.7c-0.6,0.7-1.4,1-2.4,1c-1,0-1.8-0.4-2.4-1.2
			C783.6,12419.2,783.3,12418.1,783.3,12416.7z M784.7,12416.9c0,1,0.2,1.7,0.6,2.2s0.9,0.8,1.6,0.8c0.9,0,1.6-0.4,2-1.2v-3.9
			c-0.4-0.8-1.1-1.2-2-1.2c-0.7,0-1.3,0.3-1.6,0.8C784.9,12415,784.7,12415.8,784.7,12416.9z"/>
		<path class="st8" d="M792.2,12416.7c0-0.8,0.2-1.6,0.5-2.2c0.3-0.7,0.8-1.2,1.4-1.5c0.6-0.4,1.2-0.5,2-0.5c1.2,0,2.1,0.4,2.8,1.2
			s1.1,1.9,1.1,3.2v0.1c0,0.8-0.2,1.6-0.5,2.2c-0.3,0.7-0.8,1.2-1.4,1.5s-1.3,0.5-2,0.5c-1.1,0-2.1-0.4-2.8-1.2s-1.1-1.9-1.1-3.2
			V12416.7z M793.6,12416.9c0,0.9,0.2,1.7,0.7,2.3c0.4,0.6,1,0.9,1.7,0.9c0.7,0,1.3-0.3,1.8-0.9c0.4-0.6,0.6-1.4,0.6-2.4
			c0-0.9-0.2-1.7-0.7-2.3c-0.4-0.6-1-0.9-1.8-0.9c-0.7,0-1.3,0.3-1.7,0.9S793.6,12415.8,793.6,12416.9z"/>
		<path class="st8" d="M806.4,12421v-7.3H805v-1.1h1.3v-0.9c0-0.9,0.2-1.6,0.7-2.1s1.2-0.7,2.1-0.7c0.3,0,0.7,0,1,0.1l-0.1,1.2
			c-0.2,0-0.5-0.1-0.8-0.1c-0.5,0-0.8,0.1-1.1,0.4s-0.4,0.7-0.4,1.2v0.9h1.8v1.1h-1.8v7.3H806.4z"/>
		<path class="st8" d="M816.4,12420.2c-0.6,0.7-1.4,1-2.5,1c-0.9,0-1.6-0.3-2.1-0.8s-0.7-1.3-0.7-2.3v-5.5h1.4v5.5
			c0,1.3,0.5,1.9,1.6,1.9c1.1,0,1.8-0.4,2.2-1.2v-6.1h1.4v8.5h-1.4L816.4,12420.2z"/>
		<path class="st8" d="M823.5,12421.2c-1.1,0-2.1-0.4-2.8-1.1s-1.1-1.8-1.1-3v-0.3c0-0.8,0.2-1.6,0.5-2.2s0.8-1.2,1.3-1.5
			s1.2-0.6,1.9-0.6c1.1,0,2,0.4,2.6,1.1s0.9,1.8,0.9,3.1v0.6h-5.7c0,0.8,0.3,1.5,0.7,2s1.1,0.8,1.8,0.8c0.5,0,0.9-0.1,1.3-0.3
			s0.7-0.5,0.9-0.8l0.9,0.7C826,12420.6,825,12421.2,823.5,12421.2z M823.4,12413.6c-0.6,0-1.1,0.2-1.5,0.6s-0.6,1-0.7,1.8h4.2v-0.1
			c0-0.7-0.2-1.3-0.6-1.7S824,12413.6,823.4,12413.6z"/>
		<path class="st8" d="M829.9,12412.5l0,1.1c0.6-0.8,1.5-1.2,2.5-1.2c1.8,0,2.7,1,2.7,3v5.6h-1.4v-5.6c0-0.6-0.1-1.1-0.4-1.4
			s-0.7-0.4-1.3-0.4c-0.5,0-0.9,0.1-1.2,0.4s-0.6,0.6-0.8,1v6h-1.4v-8.5H829.9z"/>
		<path class="st8" d="M839.3,12410.5v2h1.6v1.1h-1.6v5.2c0,0.3,0.1,0.6,0.2,0.8c0.1,0.2,0.4,0.3,0.7,0.3c0.2,0,0.4,0,0.7-0.1v1.2
			c-0.4,0.1-0.8,0.2-1.1,0.2c-0.6,0-1.1-0.2-1.5-0.6s-0.5-0.9-0.5-1.7v-5.2h-1.5v-1.1h1.5v-2H839.3z"/>
		<path class="st8" d="M846.1,12421.2c-1.1,0-2.1-0.4-2.8-1.1s-1.1-1.8-1.1-3v-0.3c0-0.8,0.2-1.6,0.5-2.2s0.8-1.2,1.3-1.5
			s1.2-0.6,1.9-0.6c1.1,0,2,0.4,2.6,1.1s0.9,1.8,0.9,3.1v0.6h-5.7c0,0.8,0.3,1.5,0.7,2s1.1,0.8,1.8,0.8c0.5,0,0.9-0.1,1.3-0.3
			s0.7-0.5,0.9-0.8l0.9,0.7C848.5,12420.6,847.5,12421.2,846.1,12421.2z M845.9,12413.6c-0.6,0-1.1,0.2-1.5,0.6s-0.6,1-0.7,1.8h4.2
			v-0.1c0-0.7-0.2-1.3-0.6-1.7S846.5,12413.6,845.9,12413.6z"/>
	</g>
	<g class="st7">
		<path class="st8" d="M579.4,12454.7h-4.1l-0.8,2.3h-2.5l4.2-11.4h2.2l4.3,11.4h-2.5L579.4,12454.7z M576,12452.8h2.8l-1.4-4.3
			L576,12452.8z"/>
		<path class="st8" d="M587.1,12455.3c0.4,0,0.8-0.1,1-0.3c0.3-0.2,0.4-0.5,0.4-0.9h2.1c0,0.6-0.2,1.1-0.5,1.6
			c-0.3,0.5-0.7,0.8-1.3,1.1c-0.5,0.3-1.1,0.4-1.8,0.4c-1.2,0-2.2-0.4-2.9-1.2c-0.7-0.8-1-1.8-1-3.2v-0.1c0-1.3,0.3-2.3,1-3.1
			c0.7-0.8,1.6-1.2,2.9-1.2c1.1,0,1.9,0.3,2.5,0.9c0.6,0.6,1,1.4,1,2.4h-2.1c0-0.4-0.1-0.8-0.4-1.1c-0.3-0.3-0.6-0.4-1-0.4
			c-0.5,0-0.9,0.2-1.2,0.6c-0.3,0.4-0.4,1-0.4,1.9v0.2c0,0.9,0.1,1.5,0.4,1.9S586.6,12455.3,587.1,12455.3z"/>
		<path class="st8" d="M594.7,12446.5v2.1h1.4v1.7h-1.4v4.2c0,0.3,0.1,0.5,0.2,0.7c0.1,0.1,0.3,0.2,0.7,0.2c0.2,0,0.5,0,0.7-0.1v1.7
			c-0.4,0.1-0.9,0.2-1.4,0.2c-1.6,0-2.4-0.8-2.4-2.4v-4.6h-1.2v-1.7h1.2v-2.1H594.7z"/>
		<path class="st8" d="M602.4,12456.1c-0.6,0.7-1.3,1-2.3,1c-0.9,0-1.6-0.3-2.1-0.8s-0.7-1.3-0.7-2.3v-5.5h2.3v5.5
			c0,0.9,0.4,1.3,1.2,1.3c0.8,0,1.3-0.3,1.6-0.8v-6h2.3v8.5h-2.1L602.4,12456.1z"/>
		<path class="st8" d="M611.2,12457c-0.1-0.2-0.2-0.5-0.2-0.8c-0.5,0.6-1.3,0.9-2.1,0.9c-0.8,0-1.5-0.2-2.1-0.7
			c-0.5-0.5-0.8-1.1-0.8-1.8c0-0.9,0.3-1.6,1-2.1s1.6-0.7,2.9-0.7h1v-0.5c0-0.4-0.1-0.7-0.3-0.9c-0.2-0.2-0.5-0.4-0.9-0.4
			c-0.4,0-0.7,0.1-0.9,0.3c-0.2,0.2-0.3,0.4-0.3,0.8h-2.3c0-0.5,0.2-0.9,0.5-1.4c0.3-0.4,0.7-0.7,1.3-1c0.6-0.2,1.2-0.4,1.9-0.4
			c1,0,1.9,0.3,2.5,0.8c0.6,0.5,0.9,1.3,0.9,2.2v3.7c0,0.8,0.1,1.4,0.3,1.8v0.1H611.2z M609.4,12455.4c0.3,0,0.6-0.1,0.9-0.2
			s0.5-0.3,0.6-0.6v-1.5h-0.8c-1.1,0-1.7,0.4-1.8,1.2l0,0.1c0,0.3,0.1,0.5,0.3,0.7C608.8,12455.3,609,12455.4,609.4,12455.4z"/>
		<path class="st8" d="M617.3,12457H615v-12h2.3V12457z"/>
		<path class="st8" d="M619.1,12446.4c0-0.3,0.1-0.6,0.3-0.8s0.5-0.3,0.9-0.3c0.4,0,0.7,0.1,0.9,0.3c0.2,0.2,0.3,0.5,0.3,0.8
			c0,0.3-0.1,0.6-0.3,0.8c-0.2,0.2-0.5,0.3-0.9,0.3c-0.4,0-0.7-0.1-0.9-0.3C619.3,12447,619.1,12446.7,619.1,12446.4z M621.5,12457
			h-2.3v-8.5h2.3V12457z"/>
		<path class="st8" d="M626,12455.2h4.1v1.8h-7v-1.4l4-5.3h-3.9v-1.8h6.8v1.3L626,12455.2z"/>
		<path class="st8" d="M636.4,12457c-0.1-0.2-0.2-0.5-0.2-0.8c-0.5,0.6-1.3,0.9-2.1,0.9c-0.8,0-1.5-0.2-2.1-0.7
			c-0.5-0.5-0.8-1.1-0.8-1.8c0-0.9,0.3-1.6,1-2.1s1.6-0.7,2.9-0.7h1v-0.5c0-0.4-0.1-0.7-0.3-0.9c-0.2-0.2-0.5-0.4-0.9-0.4
			c-0.4,0-0.7,0.1-0.9,0.3c-0.2,0.2-0.3,0.4-0.3,0.8h-2.3c0-0.5,0.2-0.9,0.5-1.4c0.3-0.4,0.7-0.7,1.3-1c0.6-0.2,1.2-0.4,1.9-0.4
			c1,0,1.9,0.3,2.5,0.8c0.6,0.5,0.9,1.3,0.9,2.2v3.7c0,0.8,0.1,1.4,0.3,1.8v0.1H636.4z M634.6,12455.4c0.3,0,0.6-0.1,0.9-0.2
			s0.5-0.3,0.6-0.6v-1.5h-0.8c-1.1,0-1.7,0.4-1.8,1.2l0,0.1c0,0.3,0.1,0.5,0.3,0.7C634,12455.3,634.2,12455.4,634.6,12455.4z"/>
		<path class="st8" d="M644.9,12450.7c-0.3,0-0.6-0.1-0.8-0.1c-0.9,0-1.4,0.3-1.7,0.9v5.5h-2.3v-8.5h2.1l0.1,1
			c0.5-0.8,1.1-1.2,1.9-1.2c0.2,0,0.5,0,0.7,0.1L644.9,12450.7z"/>
		<path class="st8" d="M657.5,12452.9c0,1.3-0.3,2.3-0.9,3.1c-0.6,0.8-1.4,1.2-2.4,1.2c-0.9,0-1.5-0.3-2.1-0.9v4h-2.3v-11.7h2.1
			l0.1,0.8c0.5-0.7,1.3-1,2.1-1c1,0,1.9,0.4,2.4,1.2s0.9,1.8,0.9,3.2V12452.9z M655.3,12452.7c0-0.8-0.1-1.4-0.4-1.8
			c-0.3-0.4-0.7-0.6-1.2-0.6c-0.7,0-1.2,0.3-1.5,0.8v3.5c0.3,0.6,0.8,0.8,1.5,0.8C654.8,12455.3,655.3,12454.5,655.3,12452.7z"/>
		<path class="st8" d="M663.8,12457c-0.1-0.2-0.2-0.5-0.2-0.8c-0.5,0.6-1.3,0.9-2.1,0.9c-0.8,0-1.5-0.2-2.1-0.7
			c-0.5-0.5-0.8-1.1-0.8-1.8c0-0.9,0.3-1.6,1-2.1s1.6-0.7,2.9-0.7h1v-0.5c0-0.4-0.1-0.7-0.3-0.9c-0.2-0.2-0.5-0.4-0.9-0.4
			c-0.4,0-0.7,0.1-0.9,0.3c-0.2,0.2-0.3,0.4-0.3,0.8h-2.3c0-0.5,0.2-0.9,0.5-1.4c0.3-0.4,0.7-0.7,1.3-1c0.6-0.2,1.2-0.4,1.9-0.4
			c1,0,1.9,0.3,2.5,0.8c0.6,0.5,0.9,1.3,0.9,2.2v3.7c0,0.8,0.1,1.4,0.3,1.8v0.1H663.8z M662,12455.4c0.3,0,0.6-0.1,0.9-0.2
			s0.5-0.3,0.6-0.6v-1.5h-0.8c-1.1,0-1.7,0.4-1.8,1.2l0,0.1c0,0.3,0.1,0.5,0.3,0.7C661.4,12455.3,661.6,12455.4,662,12455.4z"/>
		<path class="st8" d="M669.6,12448.5l0.1,1c0.6-0.8,1.4-1.1,2.4-1.1c0.9,0,1.6,0.3,2,0.8s0.7,1.3,0.7,2.4v5.5h-2.3v-5.4
			c0-0.5-0.1-0.8-0.3-1c-0.2-0.2-0.6-0.3-1-0.3c-0.6,0-1.1,0.3-1.4,0.8v6h-2.3v-8.5H669.6z"/>
		<path class="st8" d="M679.2,12446.5v2.1h1.4v1.7h-1.4v4.2c0,0.3,0.1,0.5,0.2,0.7c0.1,0.1,0.3,0.2,0.7,0.2c0.2,0,0.5,0,0.7-0.1v1.7
			c-0.4,0.1-0.9,0.2-1.4,0.2c-1.6,0-2.4-0.8-2.4-2.4v-4.6h-1.2v-1.7h1.2v-2.1H679.2z"/>
		<path class="st8" d="M686.8,12457c-0.1-0.2-0.2-0.5-0.2-0.8c-0.5,0.6-1.3,0.9-2.1,0.9c-0.8,0-1.5-0.2-2.1-0.7
			c-0.5-0.5-0.8-1.1-0.8-1.8c0-0.9,0.3-1.6,1-2.1s1.6-0.7,2.9-0.7h1v-0.5c0-0.4-0.1-0.7-0.3-0.9c-0.2-0.2-0.5-0.4-0.9-0.4
			c-0.4,0-0.7,0.1-0.9,0.3c-0.2,0.2-0.3,0.4-0.3,0.8h-2.3c0-0.5,0.2-0.9,0.5-1.4c0.3-0.4,0.7-0.7,1.3-1c0.6-0.2,1.2-0.4,1.9-0.4
			c1,0,1.9,0.3,2.5,0.8c0.6,0.5,0.9,1.3,0.9,2.2v3.7c0,0.8,0.1,1.4,0.3,1.8v0.1H686.8z M684.9,12455.4c0.3,0,0.6-0.1,0.9-0.2
			s0.5-0.3,0.6-0.6v-1.5h-0.8c-1.1,0-1.7,0.4-1.8,1.2l0,0.1c0,0.3,0.1,0.5,0.3,0.7C684.3,12455.3,684.6,12455.4,684.9,12455.4z"/>
		<path class="st8" d="M692.9,12457h-2.3v-12h2.3V12457z"/>
		<path class="st8" d="M697.1,12457h-2.3v-12h2.3V12457z"/>
		<path class="st8" d="M703.9,12457c-0.1-0.2-0.2-0.5-0.2-0.8c-0.5,0.6-1.3,0.9-2.1,0.9c-0.8,0-1.5-0.2-2.1-0.7
			c-0.5-0.5-0.8-1.1-0.8-1.8c0-0.9,0.3-1.6,1-2.1s1.6-0.7,2.9-0.7h1v-0.5c0-0.4-0.1-0.7-0.3-0.9c-0.2-0.2-0.5-0.4-0.9-0.4
			c-0.4,0-0.7,0.1-0.9,0.3c-0.2,0.2-0.3,0.4-0.3,0.8h-2.3c0-0.5,0.2-0.9,0.5-1.4c0.3-0.4,0.7-0.7,1.3-1c0.6-0.2,1.2-0.4,1.9-0.4
			c1,0,1.9,0.3,2.5,0.8c0.6,0.5,0.9,1.3,0.9,2.2v3.7c0,0.8,0.1,1.4,0.3,1.8v0.1H703.9z M702,12455.4c0.3,0,0.6-0.1,0.9-0.2
			s0.5-0.3,0.6-0.6v-1.5h-0.8c-1.1,0-1.7,0.4-1.8,1.2l0,0.1c0,0.3,0.1,0.5,0.3,0.7C701.4,12455.3,701.6,12455.4,702,12455.4z"/>
	</g>
	<g class="st7">
		<path class="st8" d="M443.6,12607.3c0-0.6-0.2-1-0.6-1.3s-1.1-0.6-2.1-0.9s-1.8-0.7-2.4-1c-1.6-0.9-2.4-2-2.4-3.5
			c0-0.8,0.2-1.5,0.6-2.1s1.1-1.1,1.9-1.4s1.7-0.5,2.7-0.5c1,0,1.9,0.2,2.7,0.6s1.4,0.9,1.9,1.6s0.7,1.4,0.7,2.3h-2.9
			c0-0.7-0.2-1.2-0.6-1.5s-1-0.5-1.7-0.5c-0.7,0-1.3,0.2-1.7,0.5s-0.6,0.7-0.6,1.2c0,0.5,0.2,0.8,0.7,1.2s1.2,0.6,2.1,0.9
			c1.7,0.5,2.9,1.1,3.6,1.9s1.1,1.7,1.1,2.8c0,1.2-0.5,2.2-1.4,2.9s-2.2,1-3.8,1c-1.1,0-2.1-0.2-3-0.6s-1.6-0.9-2.1-1.6
			s-0.7-1.5-0.7-2.4h2.9c0,1.6,0.9,2.4,2.8,2.4c0.7,0,1.2-0.1,1.6-0.4S443.6,12607.8,443.6,12607.3z"/>
		<path class="st8" d="M448.4,12597.7c0-0.4,0.1-0.8,0.4-1s0.7-0.4,1.2-0.4c0.5,0,0.9,0.1,1.2,0.4s0.4,0.6,0.4,1
			c0,0.4-0.1,0.8-0.4,1.1s-0.7,0.4-1.1,0.4s-0.9-0.1-1.1-0.4S448.4,12598.1,448.4,12597.7z M451.4,12611h-2.8v-10.6h2.8V12611z"/>
		<path class="st8" d="M456.3,12600.4l0.1,1.2c0.8-0.9,1.8-1.4,3-1.4c1.1,0,2,0.3,2.5,1s0.8,1.6,0.8,2.9v6.8h-2.8v-6.8
			c0-0.6-0.1-1-0.4-1.3s-0.7-0.4-1.3-0.4c-0.8,0-1.4,0.3-1.8,1v7.5h-2.8v-10.6H456.3z"/>
		<path class="st8" d="M473,12606v5H470v-14.2h5.5c1.1,0,2,0.2,2.8,0.6s1.4,0.9,1.9,1.7s0.7,1.5,0.7,2.5c0,1.4-0.5,2.5-1.4,3.3
			s-2.3,1.2-4,1.2H473z M473,12603.6h2.6c0.8,0,1.4-0.2,1.8-0.5s0.6-0.9,0.6-1.6c0-0.7-0.2-1.3-0.6-1.7s-1-0.7-1.7-0.7H473V12603.6z
			"/>
		<path class="st8" d="M494.6,12604.2c0,1.4-0.2,2.6-0.7,3.7s-1.2,1.9-2.1,2.4s-2,0.9-3.2,0.9c-1.2,0-2.2-0.3-3.2-0.8
			s-1.6-1.4-2.1-2.4s-0.8-2.3-0.8-3.6v-0.7c0-1.4,0.3-2.6,0.8-3.7s1.2-1.9,2.1-2.5s2-0.9,3.2-0.9s2.2,0.3,3.2,0.9s1.6,1.4,2.1,2.5
			s0.8,2.3,0.8,3.7V12604.2z M491.7,12603.6c0-1.5-0.3-2.6-0.8-3.4s-1.3-1.2-2.3-1.2c-1,0-1.7,0.4-2.3,1.1s-0.8,1.9-0.8,3.4v0.7
			c0,1.5,0.3,2.6,0.8,3.4s1.3,1.2,2.3,1.2c1,0,1.7-0.4,2.3-1.2s0.8-1.9,0.8-3.4V12603.6z"/>
		<path class="st8" d="M504.6,12608.1h-5.1l-1,2.9h-3.1l5.3-14.2h2.7l5.3,14.2h-3.1L504.6,12608.1z M500.2,12605.7h3.6l-1.8-5.3
			L500.2,12605.7z"/>
	</g>
	<g class="st7">
		<path class="st8" d="M847.4,12606.3c-0.1,1.5-0.7,2.7-1.7,3.6s-2.4,1.3-4,1.3c-1.8,0-3.3-0.6-4.3-1.8s-1.6-2.9-1.6-5.1v-0.9
			c0-1.4,0.2-2.6,0.7-3.6s1.2-1.8,2.1-2.4s1.9-0.8,3.1-0.8c1.6,0,3,0.4,4,1.3s1.6,2.1,1.7,3.7h-2.9c-0.1-0.9-0.3-1.6-0.8-2
			s-1.1-0.6-2-0.6c-1,0-1.7,0.3-2.2,1s-0.7,1.8-0.7,3.3v1.1c0,1.5,0.2,2.7,0.7,3.4s1.2,1.1,2.2,1.1c0.9,0,1.6-0.2,2-0.6
			s0.7-1.1,0.8-1.9H847.4z"/>
		<path class="st8" d="M848.7,12605.6c0-1,0.2-2,0.6-2.8s1-1.5,1.7-1.9s1.6-0.7,2.6-0.7c1.4,0,2.6,0.4,3.5,1.3s1.4,2.1,1.5,3.6
			l0,0.7c0,1.6-0.5,2.9-1.4,3.9s-2.1,1.5-3.6,1.5s-2.7-0.5-3.6-1.5s-1.4-2.3-1.4-4V12605.6z M851.6,12605.8c0,1,0.2,1.8,0.6,2.3
			s0.9,0.8,1.6,0.8c0.7,0,1.2-0.3,1.6-0.8c0.4-0.5,0.6-1.4,0.6-2.5c0-1-0.2-1.7-0.6-2.3s-0.9-0.8-1.6-0.8c-0.7,0-1.2,0.3-1.6,0.8
			S851.6,12604.7,851.6,12605.8z"/>
		<path class="st8" d="M863.1,12600.4l0.1,1.2c0.8-0.9,1.8-1.4,3-1.4c1.1,0,2,0.3,2.5,1s0.8,1.6,0.8,2.9v6.8h-2.8v-6.8
			c0-0.6-0.1-1-0.4-1.3s-0.7-0.4-1.3-0.4c-0.8,0-1.4,0.3-1.8,1v7.5h-2.8v-10.6H863.1z"/>
		<path class="st8" d="M884.8,12606v5h-2.9v-14.2h5.5c1.1,0,2,0.2,2.8,0.6s1.4,0.9,1.9,1.7s0.7,1.5,0.7,2.5c0,1.4-0.5,2.5-1.4,3.3
			s-2.3,1.2-4,1.2H884.8z M884.8,12603.6h2.6c0.8,0,1.4-0.2,1.8-0.5s0.6-0.9,0.6-1.6c0-0.7-0.2-1.3-0.6-1.7s-1-0.7-1.7-0.7h-2.7
			V12603.6z"/>
		<path class="st8" d="M906.4,12604.2c0,1.4-0.2,2.6-0.7,3.7s-1.2,1.9-2.1,2.4s-2,0.9-3.2,0.9c-1.2,0-2.2-0.3-3.2-0.8
			s-1.6-1.4-2.1-2.4s-0.8-2.3-0.8-3.6v-0.7c0-1.4,0.3-2.6,0.8-3.7s1.2-1.9,2.1-2.5s2-0.9,3.2-0.9s2.2,0.3,3.2,0.9s1.6,1.4,2.1,2.5
			s0.8,2.3,0.8,3.7V12604.2z M903.4,12603.6c0-1.5-0.3-2.6-0.8-3.4s-1.3-1.2-2.3-1.2c-1,0-1.7,0.4-2.3,1.1s-0.8,1.9-0.8,3.4v0.7
			c0,1.5,0.3,2.6,0.8,3.4s1.3,1.2,2.3,1.2c1,0,1.7-0.4,2.3-1.2s0.8-1.9,0.8-3.4V12603.6z"/>
		<path class="st8" d="M916.4,12608.1h-5.1l-1,2.9h-3.1l5.3-14.2h2.7l5.3,14.2h-3.1L916.4,12608.1z M912,12605.7h3.6l-1.8-5.3
			L912,12605.7z"/>
	</g>
	<g class="st7">
		<path class="st8" d="M577.2,12501.8h-1.9v4.2H573v-11.4h4.2c1.3,0,2.4,0.3,3.1,0.9c0.7,0.6,1.1,1.4,1.1,2.5c0,0.8-0.2,1.4-0.5,1.9
			s-0.8,0.9-1.5,1.2l2.5,4.6v0.1h-2.5L577.2,12501.8z M575.4,12499.9h1.9c0.6,0,1-0.1,1.4-0.4c0.3-0.3,0.5-0.7,0.5-1.2
			c0-0.5-0.2-1-0.5-1.3s-0.8-0.5-1.4-0.5h-1.9V12499.9z"/>
		<path class="st8" d="M587,12506.2c-1.2,0-2.2-0.4-3-1.1c-0.8-0.8-1.2-1.8-1.2-3v-0.2c0-0.8,0.2-1.6,0.5-2.3s0.8-1.2,1.4-1.5
			s1.3-0.5,2.1-0.5c1.2,0,2.1,0.4,2.7,1.1s1,1.8,1,3.1v0.9h-5.4c0.1,0.6,0.3,1,0.7,1.3s0.8,0.5,1.4,0.5c0.9,0,1.5-0.3,2-0.9l1.1,1.2
			c-0.3,0.5-0.8,0.9-1.4,1.1S587.7,12506.2,587,12506.2z M586.7,12499.2c-0.4,0-0.8,0.2-1.1,0.5c-0.3,0.3-0.5,0.7-0.5,1.3h3.1v-0.2
			c0-0.5-0.1-0.9-0.4-1.2C587.6,12499.3,587.2,12499.2,586.7,12499.2z"/>
		<path class="st8" d="M596.3,12503.7c0-0.3-0.1-0.5-0.4-0.7s-0.7-0.3-1.3-0.4c-2-0.4-3-1.3-3-2.6c0-0.8,0.3-1.4,0.9-1.9
			c0.6-0.5,1.4-0.8,2.4-0.8c1.1,0,1.9,0.3,2.6,0.8c0.6,0.5,1,1.2,1,2h-2.3c0-0.3-0.1-0.6-0.3-0.8c-0.2-0.2-0.5-0.3-1-0.3
			c-0.4,0-0.7,0.1-0.9,0.3c-0.2,0.2-0.3,0.4-0.3,0.7c0,0.2,0.1,0.5,0.4,0.6c0.2,0.2,0.6,0.3,1.2,0.4s1,0.2,1.4,0.4
			c1.2,0.4,1.8,1.2,1.8,2.3c0,0.8-0.3,1.4-1,1.9c-0.7,0.5-1.5,0.7-2.6,0.7c-0.7,0-1.3-0.1-1.9-0.4c-0.5-0.3-1-0.6-1.3-1
			s-0.5-0.9-0.5-1.4h2.1c0,0.4,0.2,0.7,0.4,0.9c0.3,0.2,0.6,0.3,1.1,0.3c0.4,0,0.8-0.1,1-0.2
			C596.2,12504.1,596.3,12503.9,596.3,12503.7z"/>
		<path class="st8" d="M607.6,12501.9c0,1.3-0.3,2.3-0.9,3.1c-0.6,0.8-1.4,1.2-2.4,1.2c-0.9,0-1.5-0.3-2.1-0.9v4H600v-11.7h2.1
			l0.1,0.8c0.5-0.7,1.3-1,2.1-1c1,0,1.9,0.4,2.4,1.2s0.9,1.8,0.9,3.2V12501.9z M605.3,12501.7c0-0.8-0.1-1.4-0.4-1.8
			c-0.3-0.4-0.7-0.6-1.2-0.6c-0.7,0-1.2,0.3-1.5,0.8v3.5c0.3,0.6,0.8,0.8,1.5,0.8C604.8,12504.3,605.3,12503.5,605.3,12501.7z"/>
		<path class="st8" d="M613.9,12506c-0.1-0.2-0.2-0.5-0.2-0.8c-0.5,0.6-1.3,0.9-2.1,0.9c-0.8,0-1.5-0.2-2.1-0.7
			c-0.5-0.5-0.8-1.1-0.8-1.8c0-0.9,0.3-1.6,1-2.1s1.6-0.7,2.9-0.7h1v-0.5c0-0.4-0.1-0.7-0.3-0.9c-0.2-0.2-0.5-0.4-0.9-0.4
			c-0.4,0-0.7,0.1-0.9,0.3c-0.2,0.2-0.3,0.4-0.3,0.8h-2.3c0-0.5,0.2-0.9,0.5-1.4c0.3-0.4,0.7-0.7,1.3-1c0.6-0.2,1.2-0.4,1.9-0.4
			c1,0,1.9,0.3,2.5,0.8c0.6,0.5,0.9,1.3,0.9,2.2v3.7c0,0.8,0.1,1.4,0.3,1.8v0.1H613.9z M612,12504.4c0.3,0,0.6-0.1,0.9-0.2
			s0.5-0.3,0.6-0.6v-1.5h-0.8c-1.1,0-1.7,0.4-1.8,1.2l0,0.1c0,0.3,0.1,0.5,0.3,0.7C611.4,12504.3,611.6,12504.4,612,12504.4z"/>
		<path class="st8" d="M619.9,12506h-2.3v-12h2.3V12506z"/>
		<path class="st8" d="M621.4,12501.7c0-1.3,0.3-2.4,0.9-3.1c0.6-0.8,1.4-1.2,2.4-1.2c0.8,0,1.5,0.3,2,0.9v-4.3h2.3v12h-2l-0.1-0.9
			c-0.6,0.7-1.3,1.1-2.2,1.1c-1,0-1.8-0.4-2.4-1.2S621.4,12503.1,621.4,12501.7z M623.7,12501.9c0,0.8,0.1,1.4,0.4,1.8
			c0.3,0.4,0.7,0.6,1.2,0.6c0.7,0,1.2-0.3,1.5-0.9v-3.3c-0.3-0.6-0.8-0.9-1.5-0.9C624.2,12499.2,623.7,12500.1,623.7,12501.9z"/>
		<path class="st8" d="M630.4,12501.7c0-0.8,0.2-1.6,0.5-2.2c0.3-0.7,0.8-1.2,1.4-1.5c0.6-0.4,1.3-0.5,2.1-0.5c1.1,0,2.1,0.3,2.8,1
			c0.7,0.7,1.1,1.6,1.2,2.8l0,0.6c0,1.3-0.4,2.3-1.1,3.1c-0.7,0.8-1.7,1.2-2.9,1.2s-2.2-0.4-2.9-1.2s-1.1-1.8-1.1-3.2V12501.7z
			 M632.7,12501.9c0,0.8,0.2,1.4,0.5,1.8c0.3,0.4,0.7,0.6,1.3,0.6c0.5,0,1-0.2,1.3-0.6c0.3-0.4,0.5-1.1,0.5-2c0-0.8-0.2-1.4-0.5-1.8
			c-0.3-0.4-0.7-0.6-1.3-0.6c-0.6,0-1,0.2-1.3,0.6C632.9,12500.3,632.7,12501,632.7,12501.9z"/>
		<path class="st8" d="M644.4,12503.7c0-0.3-0.1-0.5-0.4-0.7s-0.7-0.3-1.3-0.4c-2-0.4-3-1.3-3-2.6c0-0.8,0.3-1.4,0.9-1.9
			c0.6-0.5,1.4-0.8,2.4-0.8c1.1,0,1.9,0.3,2.6,0.8c0.6,0.5,1,1.2,1,2h-2.3c0-0.3-0.1-0.6-0.3-0.8c-0.2-0.2-0.5-0.3-1-0.3
			c-0.4,0-0.7,0.1-0.9,0.3c-0.2,0.2-0.3,0.4-0.3,0.7c0,0.2,0.1,0.5,0.4,0.6c0.2,0.2,0.6,0.3,1.2,0.4s1,0.2,1.4,0.4
			c1.2,0.4,1.8,1.2,1.8,2.3c0,0.8-0.3,1.4-1,1.9c-0.7,0.5-1.5,0.7-2.6,0.7c-0.7,0-1.3-0.1-1.9-0.4c-0.5-0.3-1-0.6-1.3-1
			s-0.5-0.9-0.5-1.4h2.1c0,0.4,0.2,0.7,0.4,0.9c0.3,0.2,0.6,0.3,1.1,0.3c0.4,0,0.8-0.1,1-0.2
			C644.3,12504.1,644.4,12503.9,644.4,12503.7z"/>
	</g>
	<g class="st7">
		<path class="st8" d="M577.2,12562.2l2.6-8.6h2.6l-4,11.4H576l-3.9-11.4h2.6L577.2,12562.2z"/>
		<path class="st8" d="M587.2,12565.2c-1.2,0-2.2-0.4-3-1.1c-0.8-0.8-1.2-1.8-1.2-3v-0.2c0-0.8,0.2-1.6,0.5-2.3s0.8-1.2,1.4-1.5
			s1.3-0.5,2.1-0.5c1.2,0,2.1,0.4,2.7,1.1s1,1.8,1,3.1v0.9h-5.4c0.1,0.6,0.3,1,0.7,1.3s0.8,0.5,1.4,0.5c0.9,0,1.5-0.3,2-0.9l1.1,1.2
			c-0.3,0.5-0.8,0.9-1.4,1.1S587.9,12565.2,587.2,12565.2z M587,12558.2c-0.4,0-0.8,0.2-1.1,0.5c-0.3,0.3-0.5,0.7-0.5,1.3h3.1v-0.2
			c0-0.5-0.1-0.9-0.4-1.2C587.8,12558.3,587.4,12558.2,587,12558.2z"/>
		<path class="st8" d="M596.7,12558.7c-0.3,0-0.6-0.1-0.8-0.1c-0.9,0-1.4,0.3-1.7,0.9v5.5H592v-8.5h2.1l0.1,1
			c0.5-0.8,1.1-1.2,1.9-1.2c0.2,0,0.5,0,0.7,0.1L596.7,12558.7z"/>
		<path class="st8" d="M597.8,12554.4c0-0.3,0.1-0.6,0.3-0.8s0.5-0.3,0.9-0.3c0.4,0,0.7,0.1,0.9,0.3c0.2,0.2,0.3,0.5,0.3,0.8
			c0,0.3-0.1,0.6-0.3,0.8c-0.2,0.2-0.5,0.3-0.9,0.3c-0.4,0-0.7-0.1-0.9-0.3C597.9,12555,597.8,12554.7,597.8,12554.4z M600.2,12565
			h-2.3v-8.5h2.3V12565z"/>
		<path class="st8" d="M602.7,12565v-6.8h-1.3v-1.7h1.3v-0.7c0-0.9,0.3-1.7,0.8-2.2c0.5-0.5,1.3-0.8,2.3-0.8c0.3,0,0.7,0.1,1.1,0.2
			l0,1.8c-0.2,0-0.4-0.1-0.7-0.1c-0.8,0-1.3,0.4-1.3,1.2v0.7h1.7v1.7h-1.7v6.8H602.7z"/>
		<path class="st8" d="M607.8,12554.4c0-0.3,0.1-0.6,0.3-0.8s0.5-0.3,0.9-0.3c0.4,0,0.7,0.1,0.9,0.3c0.2,0.2,0.3,0.5,0.3,0.8
			c0,0.3-0.1,0.6-0.3,0.8c-0.2,0.2-0.5,0.3-0.9,0.3c-0.4,0-0.7-0.1-0.9-0.3C607.9,12555,607.8,12554.7,607.8,12554.4z M610.2,12565
			h-2.3v-8.5h2.3V12565z"/>
		<path class="st8" d="M615.5,12563.3c0.4,0,0.8-0.1,1-0.3c0.3-0.2,0.4-0.5,0.4-0.9h2.1c0,0.6-0.2,1.1-0.5,1.6
			c-0.3,0.5-0.7,0.8-1.3,1.1c-0.5,0.3-1.1,0.4-1.8,0.4c-1.2,0-2.2-0.4-2.9-1.2c-0.7-0.8-1-1.8-1-3.2v-0.1c0-1.3,0.3-2.3,1-3.1
			c0.7-0.8,1.6-1.2,2.9-1.2c1.1,0,1.9,0.3,2.5,0.9c0.6,0.6,1,1.4,1,2.4H617c0-0.4-0.1-0.8-0.4-1.1c-0.3-0.3-0.6-0.4-1-0.4
			c-0.5,0-0.9,0.2-1.2,0.6c-0.3,0.4-0.4,1-0.4,1.9v0.2c0,0.9,0.1,1.5,0.4,1.9S615,12563.3,615.5,12563.3z"/>
		<path class="st8" d="M625.3,12565c-0.1-0.2-0.2-0.5-0.2-0.8c-0.5,0.6-1.3,0.9-2.1,0.9c-0.8,0-1.5-0.2-2.1-0.7
			c-0.5-0.5-0.8-1.1-0.8-1.8c0-0.9,0.3-1.6,1-2.1s1.6-0.7,2.9-0.7h1v-0.5c0-0.4-0.1-0.7-0.3-0.9c-0.2-0.2-0.5-0.4-0.9-0.4
			c-0.4,0-0.7,0.1-0.9,0.3c-0.2,0.2-0.3,0.4-0.3,0.8h-2.3c0-0.5,0.2-0.9,0.5-1.4c0.3-0.4,0.7-0.7,1.3-1c0.6-0.2,1.2-0.4,1.9-0.4
			c1,0,1.9,0.3,2.5,0.8c0.6,0.5,0.9,1.3,0.9,2.2v3.7c0,0.8,0.1,1.4,0.3,1.8v0.1H625.3z M623.4,12563.4c0.3,0,0.6-0.1,0.9-0.2
			s0.5-0.3,0.6-0.6v-1.5h-0.8c-1.1,0-1.7,0.4-1.8,1.2l0,0.1c0,0.3,0.1,0.5,0.3,0.7C622.8,12563.3,623.1,12563.4,623.4,12563.4z"/>
		<path class="st8" d="M633.7,12558.7c-0.3,0-0.6-0.1-0.8-0.1c-0.9,0-1.4,0.3-1.7,0.9v5.5H629v-8.5h2.1l0.1,1
			c0.5-0.8,1.1-1.2,1.9-1.2c0.2,0,0.5,0,0.7,0.1L633.7,12558.7z"/>
		<path class="st8" d="M642.7,12565.2c-1.2,0-2.2-0.4-3-1.1c-0.8-0.8-1.2-1.8-1.2-3v-0.2c0-0.8,0.2-1.6,0.5-2.3s0.8-1.2,1.4-1.5
			s1.3-0.5,2.1-0.5c1.2,0,2.1,0.4,2.7,1.1s1,1.8,1,3.1v0.9h-5.4c0.1,0.6,0.3,1,0.7,1.3s0.8,0.5,1.4,0.5c0.9,0,1.5-0.3,2-0.9l1.1,1.2
			c-0.3,0.5-0.8,0.9-1.4,1.1S643.4,12565.2,642.7,12565.2z M642.4,12558.2c-0.4,0-0.8,0.2-1.1,0.5c-0.3,0.3-0.5,0.7-0.5,1.3h3.1
			v-0.2c0-0.5-0.1-0.9-0.4-1.2C643.3,12558.3,642.9,12558.2,642.4,12558.2z"/>
		<path class="st8" d="M652,12562.7c0-0.3-0.1-0.5-0.4-0.7s-0.7-0.3-1.3-0.4c-2-0.4-3-1.3-3-2.6c0-0.8,0.3-1.4,0.9-1.9
			c0.6-0.5,1.4-0.8,2.4-0.8c1.1,0,1.9,0.3,2.6,0.8c0.6,0.5,1,1.2,1,2h-2.3c0-0.3-0.1-0.6-0.3-0.8c-0.2-0.2-0.5-0.3-1-0.3
			c-0.4,0-0.7,0.1-0.9,0.3c-0.2,0.2-0.3,0.4-0.3,0.7c0,0.2,0.1,0.5,0.4,0.6c0.2,0.2,0.6,0.3,1.2,0.4s1,0.2,1.4,0.4
			c1.2,0.4,1.8,1.2,1.8,2.3c0,0.8-0.3,1.4-1,1.9c-0.7,0.5-1.5,0.7-2.6,0.7c-0.7,0-1.3-0.1-1.9-0.4c-0.5-0.3-1-0.6-1.3-1
			s-0.5-0.9-0.5-1.4h2.1c0,0.4,0.2,0.7,0.4,0.9c0.3,0.2,0.6,0.3,1.1,0.3c0.4,0,0.8-0.1,1-0.2C651.9,12563.1,652,12562.9,652,12562.7
			z"/>
		<path class="st8" d="M658.4,12554.5v2.1h1.4v1.7h-1.4v4.2c0,0.3,0.1,0.5,0.2,0.7c0.1,0.1,0.3,0.2,0.7,0.2c0.2,0,0.5,0,0.7-0.1v1.7
			c-0.4,0.1-0.9,0.2-1.4,0.2c-1.6,0-2.4-0.8-2.4-2.4v-4.6h-1.2v-1.7h1.2v-2.1H658.4z"/>
		<path class="st8" d="M666,12565c-0.1-0.2-0.2-0.5-0.2-0.8c-0.5,0.6-1.3,0.9-2.1,0.9c-0.8,0-1.5-0.2-2.1-0.7
			c-0.5-0.5-0.8-1.1-0.8-1.8c0-0.9,0.3-1.6,1-2.1s1.6-0.7,2.9-0.7h1v-0.5c0-0.4-0.1-0.7-0.3-0.9c-0.2-0.2-0.5-0.4-0.9-0.4
			c-0.4,0-0.7,0.1-0.9,0.3c-0.2,0.2-0.3,0.4-0.3,0.8h-2.3c0-0.5,0.2-0.9,0.5-1.4c0.3-0.4,0.7-0.7,1.3-1c0.6-0.2,1.2-0.4,1.9-0.4
			c1,0,1.9,0.3,2.5,0.8c0.6,0.5,0.9,1.3,0.9,2.2v3.7c0,0.8,0.1,1.4,0.3,1.8v0.1H666z M664.1,12563.4c0.3,0,0.6-0.1,0.9-0.2
			s0.5-0.3,0.6-0.6v-1.5h-0.8c-1.1,0-1.7,0.4-1.8,1.2l0,0.1c0,0.3,0.1,0.5,0.3,0.7C663.5,12563.3,663.7,12563.4,664.1,12563.4z"/>
		<path class="st8" d="M677.2,12560.9c0,1.4-0.3,2.4-0.9,3.2s-1.4,1.1-2.4,1.1c-0.9,0-1.6-0.4-2.2-1.1l-0.1,0.9h-2v-12h2.3v4.3
			c0.5-0.6,1.2-0.9,2.1-0.9c1,0,1.8,0.4,2.4,1.1s0.9,1.8,0.9,3.2V12560.9z M675,12560.7c0-0.9-0.1-1.5-0.4-1.9
			c-0.3-0.4-0.7-0.6-1.2-0.6c-0.7,0-1.2,0.3-1.5,0.9v3.3c0.3,0.6,0.8,0.9,1.5,0.9c0.7,0,1.2-0.4,1.4-1.1
			C674.9,12561.9,675,12561.4,675,12560.7z"/>
		<path class="st8" d="M678.6,12554.4c0-0.3,0.1-0.6,0.3-0.8s0.5-0.3,0.9-0.3c0.4,0,0.7,0.1,0.9,0.3c0.2,0.2,0.3,0.5,0.3,0.8
			c0,0.3-0.1,0.6-0.3,0.8c-0.2,0.2-0.5,0.3-0.9,0.3c-0.4,0-0.7-0.1-0.9-0.3C678.7,12555,678.6,12554.7,678.6,12554.4z M681,12565
			h-2.3v-8.5h2.3V12565z"/>
		<path class="st8" d="M685.3,12565H683v-12h2.3V12565z"/>
		<path class="st8" d="M687.1,12554.4c0-0.3,0.1-0.6,0.3-0.8s0.5-0.3,0.9-0.3c0.4,0,0.7,0.1,0.9,0.3c0.2,0.2,0.3,0.5,0.3,0.8
			c0,0.3-0.1,0.6-0.3,0.8c-0.2,0.2-0.5,0.3-0.9,0.3c-0.4,0-0.7-0.1-0.9-0.3C687.2,12555,687.1,12554.7,687.1,12554.4z M689.5,12565
			h-2.3v-8.5h2.3V12565z"/>
		<path class="st8" d="M691,12560.7c0-1.3,0.3-2.4,0.9-3.1c0.6-0.8,1.4-1.2,2.4-1.2c0.8,0,1.5,0.3,2,0.9v-4.3h2.3v12h-2l-0.1-0.9
			c-0.6,0.7-1.3,1.1-2.2,1.1c-1,0-1.8-0.4-2.4-1.2S691,12562.1,691,12560.7z M693.3,12560.9c0,0.8,0.1,1.4,0.4,1.8
			c0.3,0.4,0.7,0.6,1.2,0.6c0.7,0,1.2-0.3,1.5-0.9v-3.3c-0.3-0.6-0.8-0.9-1.5-0.9C693.8,12558.2,693.3,12559.1,693.3,12560.9z"/>
		<path class="st8" d="M705.3,12565c-0.1-0.2-0.2-0.5-0.2-0.8c-0.5,0.6-1.3,0.9-2.1,0.9c-0.8,0-1.5-0.2-2.1-0.7
			c-0.5-0.5-0.8-1.1-0.8-1.8c0-0.9,0.3-1.6,1-2.1s1.6-0.7,2.9-0.7h1v-0.5c0-0.4-0.1-0.7-0.3-0.9c-0.2-0.2-0.5-0.4-0.9-0.4
			c-0.4,0-0.7,0.1-0.9,0.3c-0.2,0.2-0.3,0.4-0.3,0.8h-2.3c0-0.5,0.2-0.9,0.5-1.4c0.3-0.4,0.7-0.7,1.3-1c0.6-0.2,1.2-0.4,1.9-0.4
			c1,0,1.9,0.3,2.5,0.8c0.6,0.5,0.9,1.3,0.9,2.2v3.7c0,0.8,0.1,1.4,0.3,1.8v0.1H705.3z M703.4,12563.4c0.3,0,0.6-0.1,0.9-0.2
			s0.5-0.3,0.6-0.6v-1.5h-0.8c-1.1,0-1.7,0.4-1.8,1.2l0,0.1c0,0.3,0.1,0.5,0.3,0.7C702.8,12563.3,703.1,12563.4,703.4,12563.4z"/>
		<path class="st8" d="M708.6,12560.7c0-1.3,0.3-2.4,0.9-3.1c0.6-0.8,1.4-1.2,2.4-1.2c0.8,0,1.5,0.3,2,0.9v-4.3h2.3v12h-2l-0.1-0.9
			c-0.6,0.7-1.3,1.1-2.2,1.1c-1,0-1.8-0.4-2.4-1.2S708.6,12562.1,708.6,12560.7z M710.9,12560.9c0,0.8,0.1,1.4,0.4,1.8
			c0.3,0.4,0.7,0.6,1.2,0.6c0.7,0,1.2-0.3,1.5-0.9v-3.3c-0.3-0.6-0.8-0.9-1.5-0.9C711.4,12558.2,710.9,12559.1,710.9,12560.9z"/>
	</g>
	<g class="st7">
		<path class="st9" d="M582.1,12606.7c0,1.1-0.2,2.1-0.6,2.9s-0.9,1.5-1.6,1.9s-1.5,0.7-2.4,0.7c-0.9,0-1.7-0.2-2.4-0.7
			c-0.7-0.4-1.2-1.1-1.6-1.9s-0.6-1.8-0.6-2.8v-0.8c0-1.1,0.2-2.1,0.6-2.9c0.4-0.8,0.9-1.5,1.6-1.9s1.5-0.7,2.4-0.7
			c0.9,0,1.7,0.2,2.4,0.7s1.2,1.1,1.6,1.9s0.6,1.8,0.6,2.9V12606.7z M580.6,12605.9c0-1.3-0.3-2.4-0.8-3.1c-0.5-0.7-1.3-1.1-2.3-1.1
			c-0.9,0-1.7,0.4-2.2,1.1c-0.5,0.7-0.8,1.7-0.8,3v0.8c0,1.3,0.3,2.3,0.8,3.1c0.5,0.7,1.3,1.1,2.3,1.1c1,0,1.7-0.4,2.2-1.1
			s0.8-1.7,0.8-3V12605.9z"/>
		<path class="st9" d="M591.2,12607.9c0,1.3-0.3,2.3-0.9,3.1s-1.4,1.2-2.4,1.2c-1.1,0-1.9-0.4-2.5-1.1l-0.1,1h-1.3v-12h1.4v4.5
			c0.6-0.7,1.4-1.1,2.4-1.1c1,0,1.8,0.4,2.4,1.2s0.9,1.8,0.9,3.2V12607.9z M589.8,12607.7c0-1-0.2-1.7-0.6-2.3
			c-0.4-0.5-0.9-0.8-1.6-0.8c-1,0-1.6,0.4-2.1,1.3v3.7c0.4,0.9,1.1,1.3,2.1,1.3c0.7,0,1.2-0.3,1.6-0.8
			C589.6,12609.6,589.8,12608.8,589.8,12607.7z"/>
		<path class="st9" d="M594.6,12612h-1.4v-12h1.4V12612z"/>
		<path class="st9" d="M597,12601.3c0-0.2,0.1-0.4,0.2-0.6c0.1-0.2,0.4-0.2,0.6-0.2s0.5,0.1,0.6,0.2c0.1,0.2,0.2,0.4,0.2,0.6
			s-0.1,0.4-0.2,0.6c-0.1,0.2-0.4,0.2-0.6,0.2s-0.5-0.1-0.6-0.2C597,12601.7,597,12601.5,597,12601.3z M598.5,12612h-1.4v-8.5h1.4
			V12612z"/>
		<path class="st9" d="M600.5,12607.7c0-1.3,0.3-2.4,0.9-3.1s1.4-1.2,2.4-1.2c1,0,1.8,0.4,2.4,1.1l0.1-0.9h1.3v8.2
			c0,1.1-0.3,2-1,2.6s-1.5,0.9-2.6,0.9c-0.6,0-1.2-0.1-1.8-0.4c-0.6-0.3-1-0.6-1.3-1.1l0.8-0.9c0.6,0.8,1.4,1.1,2.3,1.1
			c0.7,0,1.3-0.2,1.6-0.6c0.4-0.4,0.6-1,0.6-1.7v-0.7c-0.6,0.7-1.4,1-2.4,1c-1,0-1.8-0.4-2.4-1.2
			C600.8,12610.2,600.5,12609.1,600.5,12607.7z M601.9,12607.9c0,1,0.2,1.7,0.6,2.2s0.9,0.8,1.6,0.8c0.9,0,1.6-0.4,2-1.2v-3.9
			c-0.4-0.8-1.1-1.2-2-1.2c-0.7,0-1.3,0.3-1.6,0.8C602.1,12606,601.9,12606.8,601.9,12607.9z"/>
		<path class="st9" d="M615,12612c-0.1-0.2-0.2-0.5-0.2-0.9c-0.7,0.7-1.5,1-2.4,1c-0.8,0-1.5-0.2-2.1-0.7c-0.5-0.5-0.8-1.1-0.8-1.8
			c0-0.9,0.3-1.6,1-2.1c0.7-0.5,1.6-0.7,2.8-0.7h1.4v-0.7c0-0.5-0.2-0.9-0.5-1.2c-0.3-0.3-0.7-0.4-1.3-0.4c-0.5,0-0.9,0.1-1.3,0.4
			c-0.3,0.3-0.5,0.6-0.5,0.9h-1.5c0-0.4,0.1-0.8,0.4-1.2c0.3-0.4,0.7-0.7,1.2-0.9c0.5-0.2,1.1-0.3,1.7-0.3c1,0,1.7,0.2,2.3,0.7
			c0.6,0.5,0.8,1.2,0.9,2v3.9c0,0.8,0.1,1.4,0.3,1.9v0.1H615z M612.6,12610.9c0.5,0,0.9-0.1,1.3-0.4s0.7-0.5,0.9-0.9v-1.7h-1.1
			c-1.8,0-2.7,0.5-2.7,1.6c0,0.5,0.2,0.8,0.5,1.1C611.8,12610.8,612.2,12610.9,612.6,12610.9z"/>
		<path class="st9" d="M621.9,12611c0.5,0,1-0.2,1.4-0.5c0.4-0.3,0.6-0.7,0.6-1.2h1.4c0,0.5-0.2,0.9-0.5,1.4c-0.3,0.4-0.7,0.8-1.2,1
			c-0.5,0.3-1.1,0.4-1.6,0.4c-1.2,0-2.1-0.4-2.7-1.2s-1-1.8-1-3.2v-0.2c0-0.8,0.2-1.6,0.5-2.2c0.3-0.6,0.7-1.1,1.3-1.5
			c0.6-0.4,1.2-0.5,2-0.5c0.9,0,1.7,0.3,2.4,0.9c0.6,0.6,1,1.3,1,2.2h-1.4c0-0.5-0.2-1-0.6-1.3c-0.4-0.4-0.8-0.5-1.4-0.5
			c-0.7,0-1.3,0.3-1.7,0.8c-0.4,0.5-0.6,1.3-0.6,2.3v0.3c0,1,0.2,1.7,0.6,2.2C620.6,12610.7,621.2,12611,621.9,12611z"/>
		<path class="st9" d="M626.9,12601.3c0-0.2,0.1-0.4,0.2-0.6c0.1-0.2,0.4-0.2,0.6-0.2s0.5,0.1,0.6,0.2c0.1,0.2,0.2,0.4,0.2,0.6
			s-0.1,0.4-0.2,0.6c-0.1,0.2-0.4,0.2-0.6,0.2s-0.5-0.1-0.6-0.2C627,12601.7,626.9,12601.5,626.9,12601.3z M628.5,12612H627v-8.5
			h1.4V12612z"/>
		<path class="st9" d="M630.4,12607.7c0-0.8,0.2-1.6,0.5-2.2c0.3-0.7,0.8-1.2,1.4-1.5c0.6-0.4,1.2-0.5,2-0.5c1.2,0,2.1,0.4,2.8,1.2
			s1.1,1.9,1.1,3.2v0.1c0,0.8-0.2,1.6-0.5,2.2c-0.3,0.7-0.8,1.2-1.4,1.5s-1.3,0.5-2,0.5c-1.1,0-2.1-0.4-2.8-1.2s-1.1-1.9-1.1-3.2
			V12607.7z M631.8,12607.9c0,0.9,0.2,1.7,0.7,2.3c0.4,0.6,1,0.9,1.7,0.9c0.7,0,1.3-0.3,1.8-0.9c0.4-0.6,0.6-1.4,0.6-2.4
			c0-0.9-0.2-1.7-0.7-2.3c-0.4-0.6-1-0.9-1.8-0.9c-0.7,0-1.3,0.3-1.7,0.9S631.8,12606.8,631.8,12607.9z"/>
		<path class="st9" d="M641.3,12603.5l0,1.1c0.6-0.8,1.5-1.2,2.5-1.2c1.8,0,2.7,1,2.7,3v5.6h-1.4v-5.6c0-0.6-0.1-1.1-0.4-1.4
			s-0.7-0.4-1.3-0.4c-0.5,0-0.9,0.1-1.2,0.4c-0.4,0.2-0.6,0.6-0.8,1v6h-1.4v-8.5H641.3z"/>
		<path class="st9" d="M652.2,12612.2c-1.1,0-2.1-0.4-2.8-1.1s-1.1-1.8-1.1-3v-0.3c0-0.8,0.2-1.6,0.5-2.2s0.8-1.2,1.3-1.5
			c0.6-0.4,1.2-0.6,1.9-0.6c1.1,0,2,0.4,2.6,1.1s0.9,1.8,0.9,3.1v0.6h-5.7c0,0.8,0.3,1.5,0.7,2c0.5,0.5,1.1,0.8,1.8,0.8
			c0.5,0,0.9-0.1,1.3-0.3c0.4-0.2,0.7-0.5,0.9-0.8l0.9,0.7C654.7,12611.6,653.7,12612.2,652.2,12612.2z M652.1,12604.6
			c-0.6,0-1.1,0.2-1.5,0.6c-0.4,0.4-0.6,1-0.7,1.8h4.2v-0.1c0-0.7-0.2-1.3-0.6-1.7C653.1,12604.8,652.7,12604.6,652.1,12604.6z"/>
		<path class="st9" d="M662.1,12609.8c0-0.4-0.1-0.7-0.4-0.9c-0.3-0.2-0.8-0.4-1.5-0.6c-0.7-0.2-1.3-0.3-1.7-0.6s-0.7-0.5-1-0.8
			c-0.2-0.3-0.3-0.7-0.3-1.1c0-0.7,0.3-1.3,0.9-1.8s1.3-0.7,2.2-0.7c1,0,1.7,0.2,2.3,0.7c0.6,0.5,0.9,1.1,0.9,1.9H662
			c0-0.4-0.2-0.7-0.5-1s-0.8-0.4-1.3-0.4c-0.5,0-0.9,0.1-1.2,0.3s-0.4,0.5-0.4,0.9c0,0.3,0.1,0.6,0.4,0.8c0.3,0.2,0.8,0.3,1.5,0.5
			c0.7,0.2,1.3,0.4,1.8,0.6c0.4,0.2,0.8,0.5,1,0.8c0.2,0.3,0.3,0.7,0.3,1.2c0,0.8-0.3,1.4-0.9,1.8c-0.6,0.5-1.4,0.7-2.4,0.7
			c-0.7,0-1.3-0.1-1.8-0.4c-0.5-0.2-0.9-0.6-1.2-1c-0.3-0.4-0.4-0.9-0.4-1.4h1.4c0,0.5,0.2,0.9,0.6,1.2c0.4,0.3,0.8,0.4,1.4,0.4
			c0.5,0,1-0.1,1.3-0.3C662,12610.4,662.1,12610.1,662.1,12609.8z"/>
		<path class="st9" d="M671.4,12601.5v2h1.6v1.1h-1.6v5.2c0,0.3,0.1,0.6,0.2,0.8c0.1,0.2,0.4,0.3,0.7,0.3c0.2,0,0.4,0,0.7-0.1v1.2
			c-0.4,0.1-0.8,0.2-1.1,0.2c-0.6,0-1.1-0.2-1.5-0.6s-0.5-0.9-0.5-1.7v-5.2h-1.5v-1.1h1.5v-2H671.4z"/>
		<path class="st9" d="M678.7,12604.8c-0.2,0-0.5-0.1-0.7-0.1c-0.9,0-1.6,0.4-1.9,1.2v6h-1.4v-8.5h1.4l0,1c0.5-0.8,1.1-1.1,2-1.1
			c0.3,0,0.5,0,0.6,0.1V12604.8z"/>
		<path class="st9" d="M685,12612c-0.1-0.2-0.2-0.5-0.2-0.9c-0.7,0.7-1.5,1-2.4,1c-0.8,0-1.5-0.2-2.1-0.7c-0.5-0.5-0.8-1.1-0.8-1.8
			c0-0.9,0.3-1.6,1-2.1c0.7-0.5,1.6-0.7,2.8-0.7h1.4v-0.7c0-0.5-0.2-0.9-0.5-1.2c-0.3-0.3-0.7-0.4-1.3-0.4c-0.5,0-0.9,0.1-1.3,0.4
			c-0.3,0.3-0.5,0.6-0.5,0.9h-1.5c0-0.4,0.1-0.8,0.4-1.2c0.3-0.4,0.7-0.7,1.2-0.9c0.5-0.2,1.1-0.3,1.7-0.3c1,0,1.7,0.2,2.3,0.7
			c0.6,0.5,0.8,1.2,0.9,2v3.9c0,0.8,0.1,1.4,0.3,1.9v0.1H685z M682.6,12610.9c0.5,0,0.9-0.1,1.3-0.4s0.7-0.5,0.9-0.9v-1.7h-1.1
			c-1.8,0-2.7,0.5-2.7,1.6c0,0.5,0.2,0.8,0.5,1.1C681.7,12610.8,682.1,12610.9,682.6,12610.9z"/>
		<path class="st9" d="M689.8,12603.5l0,1.1c0.6-0.8,1.5-1.2,2.5-1.2c1.8,0,2.7,1,2.7,3v5.6h-1.4v-5.6c0-0.6-0.1-1.1-0.4-1.4
			s-0.7-0.4-1.3-0.4c-0.5,0-0.9,0.1-1.2,0.4c-0.4,0.2-0.6,0.6-0.8,1v6h-1.4v-8.5H689.8z"/>
		<path class="st9" d="M702.2,12609.8c0-0.4-0.1-0.7-0.4-0.9c-0.3-0.2-0.8-0.4-1.5-0.6c-0.7-0.2-1.3-0.3-1.7-0.6s-0.7-0.5-1-0.8
			c-0.2-0.3-0.3-0.7-0.3-1.1c0-0.7,0.3-1.3,0.9-1.8s1.3-0.7,2.2-0.7c1,0,1.7,0.2,2.3,0.7c0.6,0.5,0.9,1.1,0.9,1.9h-1.5
			c0-0.4-0.2-0.7-0.5-1s-0.8-0.4-1.3-0.4c-0.5,0-0.9,0.1-1.2,0.3s-0.4,0.5-0.4,0.9c0,0.3,0.1,0.6,0.4,0.8c0.3,0.2,0.8,0.3,1.5,0.5
			c0.7,0.2,1.3,0.4,1.8,0.6c0.4,0.2,0.8,0.5,1,0.8c0.2,0.3,0.3,0.7,0.3,1.2c0,0.8-0.3,1.4-0.9,1.8c-0.6,0.5-1.4,0.7-2.4,0.7
			c-0.7,0-1.3-0.1-1.8-0.4c-0.5-0.2-0.9-0.6-1.2-1c-0.3-0.4-0.4-0.9-0.4-1.4h1.4c0,0.5,0.2,0.9,0.6,1.2c0.4,0.3,0.8,0.4,1.4,0.4
			c0.5,0,1-0.1,1.3-0.3C702,12610.4,702.2,12610.1,702.2,12609.8z"/>
		<path class="st9" d="M708.3,12610l2.1-6.5h1.5l-3,8.5h-1.1l-3.1-8.5h1.5L708.3,12610z"/>
		<path class="st9" d="M716.8,12612.2c-1.1,0-2.1-0.4-2.8-1.1s-1.1-1.8-1.1-3v-0.3c0-0.8,0.2-1.6,0.5-2.2s0.8-1.2,1.3-1.5
			c0.6-0.4,1.2-0.6,1.9-0.6c1.1,0,2,0.4,2.6,1.1s0.9,1.8,0.9,3.1v0.6h-5.7c0,0.8,0.3,1.5,0.7,2c0.5,0.5,1.1,0.8,1.8,0.8
			c0.5,0,0.9-0.1,1.3-0.3c0.4-0.2,0.7-0.5,0.9-0.8l0.9,0.7C719.3,12611.6,718.2,12612.2,716.8,12612.2z M716.6,12604.6
			c-0.6,0-1.1,0.2-1.5,0.6c-0.4,0.4-0.6,1-0.7,1.8h4.2v-0.1c0-0.7-0.2-1.3-0.6-1.7C717.7,12604.8,717.2,12604.6,716.6,12604.6z"/>
		<path class="st9" d="M725.8,12604.8c-0.2,0-0.5-0.1-0.7-0.1c-0.9,0-1.6,0.4-1.9,1.2v6h-1.4v-8.5h1.4l0,1c0.5-0.8,1.1-1.1,2-1.1
			c0.3,0,0.5,0,0.6,0.1V12604.8z"/>
		<path class="st9" d="M732.1,12609.8c0-0.4-0.1-0.7-0.4-0.9c-0.3-0.2-0.8-0.4-1.5-0.6c-0.7-0.2-1.3-0.3-1.7-0.6s-0.7-0.5-1-0.8
			c-0.2-0.3-0.3-0.7-0.3-1.1c0-0.7,0.3-1.3,0.9-1.8s1.3-0.7,2.2-0.7c1,0,1.7,0.2,2.3,0.7c0.6,0.5,0.9,1.1,0.9,1.9H732
			c0-0.4-0.2-0.7-0.5-1s-0.8-0.4-1.3-0.4c-0.5,0-0.9,0.1-1.2,0.3s-0.4,0.5-0.4,0.9c0,0.3,0.1,0.6,0.4,0.8c0.3,0.2,0.8,0.3,1.5,0.5
			c0.7,0.2,1.3,0.4,1.8,0.6c0.4,0.2,0.8,0.5,1,0.8c0.2,0.3,0.3,0.7,0.3,1.2c0,0.8-0.3,1.4-0.9,1.8c-0.6,0.5-1.4,0.7-2.4,0.7
			c-0.7,0-1.3-0.1-1.8-0.4c-0.5-0.2-0.9-0.6-1.2-1c-0.3-0.4-0.4-0.9-0.4-1.4h1.4c0,0.5,0.2,0.9,0.6,1.2c0.4,0.3,0.8,0.4,1.4,0.4
			c0.5,0,1-0.1,1.3-0.3C731.9,12610.4,732.1,12610.1,732.1,12609.8z"/>
		<path class="st9" d="M740.6,12612c-0.1-0.2-0.2-0.5-0.2-0.9c-0.7,0.7-1.5,1-2.4,1c-0.8,0-1.5-0.2-2.1-0.7
			c-0.5-0.5-0.8-1.1-0.8-1.8c0-0.9,0.3-1.6,1-2.1c0.7-0.5,1.6-0.7,2.8-0.7h1.4v-0.7c0-0.5-0.2-0.9-0.5-1.2c-0.3-0.3-0.7-0.4-1.3-0.4
			c-0.5,0-0.9,0.1-1.3,0.4c-0.3,0.3-0.5,0.6-0.5,0.9h-1.5c0-0.4,0.1-0.8,0.4-1.2c0.3-0.4,0.7-0.7,1.2-0.9c0.5-0.2,1.1-0.3,1.7-0.3
			c1,0,1.7,0.2,2.3,0.7c0.6,0.5,0.8,1.2,0.9,2v3.9c0,0.8,0.1,1.4,0.3,1.9v0.1H740.6z M738.2,12610.9c0.5,0,0.9-0.1,1.3-0.4
			s0.7-0.5,0.9-0.9v-1.7h-1.1c-1.8,0-2.7,0.5-2.7,1.6c0,0.5,0.2,0.8,0.5,1.1C737.4,12610.8,737.8,12610.9,738.2,12610.9z"/>
		<path class="st9" d="M745.7,12612h-1.4v-12h1.4V12612z"/>
		<path class="st9" d="M751.5,12612.2c-1.1,0-2.1-0.4-2.8-1.1s-1.1-1.8-1.1-3v-0.3c0-0.8,0.2-1.6,0.5-2.2s0.8-1.2,1.3-1.5
			c0.6-0.4,1.2-0.6,1.9-0.6c1.1,0,2,0.4,2.6,1.1s0.9,1.8,0.9,3.1v0.6h-5.7c0,0.8,0.3,1.5,0.7,2c0.5,0.5,1.1,0.8,1.8,0.8
			c0.5,0,0.9-0.1,1.3-0.3c0.4-0.2,0.7-0.5,0.9-0.8l0.9,0.7C754,12611.6,752.9,12612.2,751.5,12612.2z M751.3,12604.6
			c-0.6,0-1.1,0.2-1.5,0.6c-0.4,0.4-0.6,1-0.7,1.8h4.2v-0.1c0-0.7-0.2-1.3-0.6-1.7C752.4,12604.8,751.9,12604.6,751.3,12604.6z"/>
		<path class="st9" d="M761.4,12609.8c0-0.4-0.1-0.7-0.4-0.9c-0.3-0.2-0.8-0.4-1.5-0.6c-0.7-0.2-1.3-0.3-1.7-0.6s-0.7-0.5-1-0.8
			c-0.2-0.3-0.3-0.7-0.3-1.1c0-0.7,0.3-1.3,0.9-1.8s1.3-0.7,2.2-0.7c1,0,1.7,0.2,2.3,0.7c0.6,0.5,0.9,1.1,0.9,1.9h-1.5
			c0-0.4-0.2-0.7-0.5-1s-0.8-0.4-1.3-0.4c-0.5,0-0.9,0.1-1.2,0.3s-0.4,0.5-0.4,0.9c0,0.3,0.1,0.6,0.4,0.8c0.3,0.2,0.8,0.3,1.5,0.5
			c0.7,0.2,1.3,0.4,1.8,0.6c0.4,0.2,0.8,0.5,1,0.8c0.2,0.3,0.3,0.7,0.3,1.2c0,0.8-0.3,1.4-0.9,1.8c-0.6,0.5-1.4,0.7-2.4,0.7
			c-0.7,0-1.3-0.1-1.8-0.4c-0.5-0.2-0.9-0.6-1.2-1c-0.3-0.4-0.4-0.9-0.4-1.4h1.4c0,0.5,0.2,0.9,0.6,1.2c0.4,0.3,0.8,0.4,1.4,0.4
			c0.5,0,1-0.1,1.3-0.3C761.2,12610.4,761.4,12610.1,761.4,12609.8z"/>
	</g>
	<g class="st7">
		<path class="st9" d="M1002.6,12609h-4.8l-1.1,3h-1.5l4.3-11.4h1.3l4.4,11.4h-1.5L1002.6,12609z M998.3,12607.8h3.9l-1.9-5.3
			L998.3,12607.8z"/>
		<path class="st9" d="M1011.5,12609.8c0-0.4-0.1-0.7-0.4-0.9c-0.3-0.2-0.8-0.4-1.5-0.6c-0.7-0.2-1.3-0.3-1.7-0.6s-0.7-0.5-1-0.8
			c-0.2-0.3-0.3-0.7-0.3-1.1c0-0.7,0.3-1.3,0.9-1.8s1.3-0.7,2.2-0.7c1,0,1.7,0.2,2.3,0.7c0.6,0.5,0.9,1.1,0.9,1.9h-1.5
			c0-0.4-0.2-0.7-0.5-1s-0.8-0.4-1.3-0.4c-0.5,0-0.9,0.1-1.2,0.3s-0.4,0.5-0.4,0.9c0,0.3,0.1,0.6,0.4,0.8c0.3,0.2,0.8,0.3,1.5,0.5
			c0.7,0.2,1.3,0.4,1.8,0.6c0.4,0.2,0.8,0.5,1,0.8c0.2,0.3,0.3,0.7,0.3,1.2c0,0.8-0.3,1.4-0.9,1.8c-0.6,0.5-1.4,0.7-2.4,0.7
			c-0.7,0-1.3-0.1-1.8-0.4c-0.5-0.2-0.9-0.6-1.2-1c-0.3-0.4-0.4-0.9-0.4-1.4h1.4c0,0.5,0.2,0.9,0.6,1.2c0.4,0.3,0.8,0.4,1.4,0.4
			c0.5,0,1-0.1,1.3-0.3C1011.3,12610.4,1011.5,12610.1,1011.5,12609.8z"/>
		<path class="st9" d="M1021.9,12607.9c0,1.3-0.3,2.3-0.9,3.1c-0.6,0.8-1.4,1.2-2.4,1.2c-1,0-1.8-0.3-2.4-1v4.1h-1.4v-11.7h1.3
			l0.1,0.9c0.6-0.7,1.4-1.1,2.5-1.1c1,0,1.8,0.4,2.4,1.1c0.6,0.8,0.9,1.8,0.9,3.2V12607.9z M1020.5,12607.7c0-1-0.2-1.7-0.6-2.3
			s-1-0.8-1.7-0.8c-0.9,0-1.5,0.4-2,1.2v4c0.4,0.8,1.1,1.2,2,1.2c0.7,0,1.2-0.3,1.7-0.8
			C1020.3,12609.6,1020.5,12608.8,1020.5,12607.7z"/>
		<path class="st9" d="M1027.3,12612.2c-1.1,0-2.1-0.4-2.8-1.1s-1.1-1.8-1.1-3v-0.3c0-0.8,0.2-1.6,0.5-2.2s0.8-1.2,1.3-1.5
			c0.6-0.4,1.2-0.6,1.9-0.6c1.1,0,2,0.4,2.6,1.1s0.9,1.8,0.9,3.1v0.6h-5.7c0,0.8,0.3,1.5,0.7,2c0.5,0.5,1.1,0.8,1.8,0.8
			c0.5,0,0.9-0.1,1.3-0.3c0.4-0.2,0.7-0.5,0.9-0.8l0.9,0.7C1029.7,12611.6,1028.7,12612.2,1027.3,12612.2z M1027.1,12604.6
			c-0.6,0-1.1,0.2-1.5,0.6c-0.4,0.4-0.6,1-0.7,1.8h4.2v-0.1c0-0.7-0.2-1.3-0.6-1.7C1028.2,12604.8,1027.7,12604.6,1027.1,12604.6z"
			/>
		<path class="st9" d="M1035.6,12611c0.5,0,1-0.2,1.4-0.5c0.4-0.3,0.6-0.7,0.6-1.2h1.4c0,0.5-0.2,0.9-0.5,1.4
			c-0.3,0.4-0.7,0.8-1.2,1c-0.5,0.3-1.1,0.4-1.6,0.4c-1.2,0-2.1-0.4-2.7-1.2s-1-1.8-1-3.2v-0.2c0-0.8,0.2-1.6,0.5-2.2
			c0.3-0.6,0.7-1.1,1.3-1.5c0.6-0.4,1.2-0.5,2-0.5c0.9,0,1.7,0.3,2.4,0.9c0.6,0.6,1,1.3,1,2.2h-1.4c0-0.5-0.2-1-0.6-1.3
			c-0.4-0.4-0.8-0.5-1.4-0.5c-0.7,0-1.3,0.3-1.7,0.8c-0.4,0.5-0.6,1.3-0.6,2.3v0.3c0,1,0.2,1.7,0.6,2.2
			C1034.3,12610.7,1034.9,12611,1035.6,12611z"/>
		<path class="st9" d="M1042.6,12601.5v2h1.6v1.1h-1.6v5.2c0,0.3,0.1,0.6,0.2,0.8c0.1,0.2,0.4,0.3,0.7,0.3c0.2,0,0.4,0,0.7-0.1v1.2
			c-0.4,0.1-0.8,0.2-1.1,0.2c-0.6,0-1.1-0.2-1.5-0.6s-0.5-0.9-0.5-1.7v-5.2h-1.5v-1.1h1.5v-2H1042.6z"/>
		<path class="st9" d="M1045.3,12607.7c0-0.8,0.2-1.6,0.5-2.2c0.3-0.7,0.8-1.2,1.4-1.5c0.6-0.4,1.2-0.5,2-0.5c1.2,0,2.1,0.4,2.8,1.2
			s1.1,1.9,1.1,3.2v0.1c0,0.8-0.2,1.6-0.5,2.2c-0.3,0.7-0.8,1.2-1.4,1.5s-1.3,0.5-2,0.5c-1.1,0-2.1-0.4-2.8-1.2s-1.1-1.9-1.1-3.2
			V12607.7z M1046.8,12607.9c0,0.9,0.2,1.7,0.7,2.3c0.4,0.6,1,0.9,1.7,0.9c0.7,0,1.3-0.3,1.8-0.9c0.4-0.6,0.6-1.4,0.6-2.4
			c0-0.9-0.2-1.7-0.7-2.3c-0.4-0.6-1-0.9-1.8-0.9c-0.7,0-1.3,0.3-1.7,0.9S1046.8,12606.8,1046.8,12607.9z"/>
		<path class="st9" d="M1059.7,12609.8c0-0.4-0.1-0.7-0.4-0.9c-0.3-0.2-0.8-0.4-1.5-0.6c-0.7-0.2-1.3-0.3-1.7-0.6s-0.7-0.5-1-0.8
			c-0.2-0.3-0.3-0.7-0.3-1.1c0-0.7,0.3-1.3,0.9-1.8s1.3-0.7,2.2-0.7c1,0,1.7,0.2,2.3,0.7c0.6,0.5,0.9,1.1,0.9,1.9h-1.5
			c0-0.4-0.2-0.7-0.5-1s-0.8-0.4-1.3-0.4c-0.5,0-0.9,0.1-1.2,0.3s-0.4,0.5-0.4,0.9c0,0.3,0.1,0.6,0.4,0.8c0.3,0.2,0.8,0.3,1.5,0.5
			c0.7,0.2,1.3,0.4,1.8,0.6c0.4,0.2,0.8,0.5,1,0.8c0.2,0.3,0.3,0.7,0.3,1.2c0,0.8-0.3,1.4-0.9,1.8c-0.6,0.5-1.4,0.7-2.4,0.7
			c-0.7,0-1.3-0.1-1.8-0.4c-0.5-0.2-0.9-0.6-1.2-1c-0.3-0.4-0.4-0.9-0.4-1.4h1.4c0,0.5,0.2,0.9,0.6,1.2c0.4,0.3,0.8,0.4,1.4,0.4
			c0.5,0,1-0.1,1.3-0.3C1059.6,12610.4,1059.7,12610.1,1059.7,12609.8z"/>
	</g>
	<g id="Grupo_99541" transform="translate(561.079 12448.286) rotate(66)">
		<g id="Grupo_99295" transform="translate(1.834 -6.2)">
			<path id="Polígono_36" class="st9" d="M4.5,0L9,7L0,7L4.5,0z"/>
			
				<rect id="Rectángulo_42835" x="-18.4" y="27.5" transform="matrix(2.033466e-06 1 -1 2.033466e-06 32.9905 23.9905)" class="st9" width="45.8" height="2"/>
		</g>
	</g>
	<g id="Grupo_99539" transform="translate(570.469 12478.55) rotate(131)">
		<g id="Grupo_99295-2" transform="translate(1.834 -6.2)">
			<path id="Polígono_36-2" class="st9" d="M4.5,0L9,7L0,7L4.5,0z"/>
			<rect id="Rectángulo_42835-2" x="3.5" y="5.6" class="st9" width="2" height="59.1"/>
		</g>
	</g>
	<g id="Grupo_99544" transform="matrix(-0.682, 0.731, -0.731, -0.682, 574.109, 12535.849)">
		<g id="Grupo_99295-3" transform="translate(1.834 -6.2)">
			<path id="Polígono_36-3" class="st9" d="M4.5,0L9,7H0L4.5,0z"/>
			<rect id="Rectángulo_42835-3" x="3.5" y="5.6" class="st9" width="2" height="68.3"/>
		</g>
	</g>
	<g id="Grupo_99542" transform="matrix(-0.588, -0.809, 0.809, -0.588, 524.943, 12548)">
		<g id="Grupo_99295-4" transform="translate(0 0)">
			<path id="Polígono_36-4" class="st9" d="M4.5,61.6l-4.5-7h9L4.5,61.6z"/>
			
				<rect id="Rectángulo_42835-4" x="-23.5" y="27" transform="matrix(-2.525826e-06 -1 1 -2.525826e-06 -23.491 32.4911)" class="st9" width="56" height="2"/>
		</g>
	</g>
	<g id="Grupo_99543" transform="matrix(-0.899, -0.438, 0.438, -0.899, 526.479, 12564.093)">
		<g id="Grupo_99295-5" transform="translate(0 0)">
			<path id="Polígono_36-5" class="st9" d="M4.5,113.5l-4.5-7h9L4.5,113.5z"/>
			
				<rect id="Rectángulo_42835-5" x="-49.5" y="53" transform="matrix(-2.536165e-06 -1 1 -2.536165e-06 -49.457 58.4571)" class="st9" width="107.9" height="2"/>
		</g>
	</g>
	<g id="Grupo_99540" transform="matrix(-0.719, 0.695, -0.695, -0.719, 587.023, 12530.871)">
		<g id="Grupo_99295-6" transform="translate(1.834 -6.2)">
			<path id="Polígono_36-6" class="st9" d="M4.5,0L9,7H0L4.5,0z"/>
			<rect id="Rectángulo_42835-6" x="3.5" y="5.6" class="st9" width="2" height="88.2"/>
		</g>
	</g>
	<g id="Rectángulo_43088" transform="translate(995 12437)" class="st10">
		<rect x="0" y="0" class="st11" width="167" height="26"/>
		<rect x="0.5" y="0.5" class="st12" width="166" height="25"/>
	</g>
	<g id="Rectángulo_43089" transform="translate(995 12496)" class="st10">
		<rect x="0" y="0" class="st13" width="167" height="26"/>
		<rect x="0.5" y="0.5" class="st12" width="166" height="25"/>
	</g>
	<g id="Rectángulo_43090" transform="translate(995 12543)" class="st10">
		<rect x="0" y="0" class="st14" width="167" height="26"/>
		<rect x="0.5" y="0.5" class="st12" width="166" height="25"/>
	</g>
	<g class="st7">
		<path class="st8" d="M1009.4,12454.7h-4.1l-0.8,2.3h-2.5l4.2-11.4h2.2l4.3,11.4h-2.5L1009.4,12454.7z M1006,12452.8h2.8l-1.4-4.3
			L1006,12452.8z"/>
		<path class="st8" d="M1017.1,12455.3c0.4,0,0.8-0.1,1-0.3c0.3-0.2,0.4-0.5,0.4-0.9h2.1c0,0.6-0.2,1.1-0.5,1.6
			c-0.3,0.5-0.7,0.8-1.3,1.1c-0.5,0.3-1.1,0.4-1.8,0.4c-1.2,0-2.2-0.4-2.9-1.2c-0.7-0.8-1-1.8-1-3.2v-0.1c0-1.3,0.3-2.3,1-3.1
			c0.7-0.8,1.6-1.2,2.9-1.2c1.1,0,1.9,0.3,2.5,0.9c0.6,0.6,1,1.4,1,2.4h-2.1c0-0.4-0.1-0.8-0.4-1.1c-0.3-0.3-0.6-0.4-1-0.4
			c-0.5,0-0.9,0.2-1.2,0.6c-0.3,0.4-0.4,1-0.4,1.9v0.2c0,0.9,0.1,1.5,0.4,1.9S1016.6,12455.3,1017.1,12455.3z"/>
		<path class="st8" d="M1024.7,12446.5v2.1h1.4v1.7h-1.4v4.2c0,0.3,0.1,0.5,0.2,0.7c0.1,0.1,0.3,0.2,0.7,0.2c0.2,0,0.5,0,0.7-0.1
			v1.7c-0.4,0.1-0.9,0.2-1.4,0.2c-1.6,0-2.4-0.8-2.4-2.4v-4.6h-1.2v-1.7h1.2v-2.1H1024.7z"/>
		<path class="st8" d="M1032.4,12456.1c-0.6,0.7-1.3,1-2.3,1c-0.9,0-1.6-0.3-2.1-0.8s-0.7-1.3-0.7-2.3v-5.5h2.3v5.5
			c0,0.9,0.4,1.3,1.2,1.3c0.8,0,1.3-0.3,1.6-0.8v-6h2.3v8.5h-2.1L1032.4,12456.1z"/>
		<path class="st8" d="M1041.2,12457c-0.1-0.2-0.2-0.5-0.2-0.8c-0.5,0.6-1.3,0.9-2.1,0.9c-0.8,0-1.5-0.2-2.1-0.7
			c-0.5-0.5-0.8-1.1-0.8-1.8c0-0.9,0.3-1.6,1-2.1s1.6-0.7,2.9-0.7h1v-0.5c0-0.4-0.1-0.7-0.3-0.9c-0.2-0.2-0.5-0.4-0.9-0.4
			c-0.4,0-0.7,0.1-0.9,0.3c-0.2,0.2-0.3,0.4-0.3,0.8h-2.3c0-0.5,0.2-0.9,0.5-1.4c0.3-0.4,0.7-0.7,1.3-1c0.6-0.2,1.2-0.4,1.9-0.4
			c1,0,1.9,0.3,2.5,0.8c0.6,0.5,0.9,1.3,0.9,2.2v3.7c0,0.8,0.1,1.4,0.3,1.8v0.1H1041.2z M1039.4,12455.4c0.3,0,0.6-0.1,0.9-0.2
			s0.5-0.3,0.6-0.6v-1.5h-0.8c-1.1,0-1.7,0.4-1.8,1.2l0,0.1c0,0.3,0.1,0.5,0.3,0.7C1038.8,12455.3,1039,12455.4,1039.4,12455.4z"/>
		<path class="st8" d="M1047.3,12457h-2.3v-12h2.3V12457z"/>
		<path class="st8" d="M1049.1,12446.4c0-0.3,0.1-0.6,0.3-0.8s0.5-0.3,0.9-0.3c0.4,0,0.7,0.1,0.9,0.3c0.2,0.2,0.3,0.5,0.3,0.8
			c0,0.3-0.1,0.6-0.3,0.8c-0.2,0.2-0.5,0.3-0.9,0.3c-0.4,0-0.7-0.1-0.9-0.3C1049.3,12447,1049.1,12446.7,1049.1,12446.4z
			 M1051.5,12457h-2.3v-8.5h2.3V12457z"/>
		<path class="st8" d="M1056,12455.2h4.1v1.8h-7v-1.4l4-5.3h-3.9v-1.8h6.8v1.3L1056,12455.2z"/>
		<path class="st8" d="M1066.4,12457c-0.1-0.2-0.2-0.5-0.2-0.8c-0.5,0.6-1.3,0.9-2.1,0.9c-0.8,0-1.5-0.2-2.1-0.7
			c-0.5-0.5-0.8-1.1-0.8-1.8c0-0.9,0.3-1.6,1-2.1s1.6-0.7,2.9-0.7h1v-0.5c0-0.4-0.1-0.7-0.3-0.9c-0.2-0.2-0.5-0.4-0.9-0.4
			c-0.4,0-0.7,0.1-0.9,0.3c-0.2,0.2-0.3,0.4-0.3,0.8h-2.3c0-0.5,0.2-0.9,0.5-1.4c0.3-0.4,0.7-0.7,1.3-1c0.6-0.2,1.2-0.4,1.9-0.4
			c1,0,1.9,0.3,2.5,0.8c0.6,0.5,0.9,1.3,0.9,2.2v3.7c0,0.8,0.1,1.4,0.3,1.8v0.1H1066.4z M1064.6,12455.4c0.3,0,0.6-0.1,0.9-0.2
			s0.5-0.3,0.6-0.6v-1.5h-0.8c-1.1,0-1.7,0.4-1.8,1.2l0,0.1c0,0.3,0.1,0.5,0.3,0.7C1064,12455.3,1064.2,12455.4,1064.6,12455.4z"/>
		<path class="st8" d="M1074.9,12450.7c-0.3,0-0.6-0.1-0.8-0.1c-0.9,0-1.4,0.3-1.7,0.9v5.5h-2.3v-8.5h2.1l0.1,1
			c0.5-0.8,1.1-1.2,1.9-1.2c0.2,0,0.5,0,0.7,0.1L1074.9,12450.7z"/>
		<path class="st8" d="M1087.5,12452.9c0,1.3-0.3,2.3-0.9,3.1c-0.6,0.8-1.4,1.2-2.4,1.2c-0.9,0-1.5-0.3-2.1-0.9v4h-2.3v-11.7h2.1
			l0.1,0.8c0.5-0.7,1.3-1,2.1-1c1,0,1.9,0.4,2.4,1.2s0.9,1.8,0.9,3.2V12452.9z M1085.3,12452.7c0-0.8-0.1-1.4-0.4-1.8
			c-0.3-0.4-0.7-0.6-1.2-0.6c-0.7,0-1.2,0.3-1.5,0.8v3.5c0.3,0.6,0.8,0.8,1.5,0.8C1084.8,12455.3,1085.3,12454.5,1085.3,12452.7z"/>
		<path class="st8" d="M1093.8,12457c-0.1-0.2-0.2-0.5-0.2-0.8c-0.5,0.6-1.3,0.9-2.1,0.9c-0.8,0-1.5-0.2-2.1-0.7
			c-0.5-0.5-0.8-1.1-0.8-1.8c0-0.9,0.3-1.6,1-2.1s1.6-0.7,2.9-0.7h1v-0.5c0-0.4-0.1-0.7-0.3-0.9c-0.2-0.2-0.5-0.4-0.9-0.4
			c-0.4,0-0.7,0.1-0.9,0.3c-0.2,0.2-0.3,0.4-0.3,0.8h-2.3c0-0.5,0.2-0.9,0.5-1.4c0.3-0.4,0.7-0.7,1.3-1c0.6-0.2,1.2-0.4,1.9-0.4
			c1,0,1.9,0.3,2.5,0.8c0.6,0.5,0.9,1.3,0.9,2.2v3.7c0,0.8,0.1,1.4,0.3,1.8v0.1H1093.8z M1092,12455.4c0.3,0,0.6-0.1,0.9-0.2
			s0.5-0.3,0.6-0.6v-1.5h-0.8c-1.1,0-1.7,0.4-1.8,1.2l0,0.1c0,0.3,0.1,0.5,0.3,0.7C1091.4,12455.3,1091.6,12455.4,1092,12455.4z"/>
		<path class="st8" d="M1099.6,12448.5l0.1,1c0.6-0.8,1.4-1.1,2.4-1.1c0.9,0,1.6,0.3,2,0.8s0.7,1.3,0.7,2.4v5.5h-2.3v-5.4
			c0-0.5-0.1-0.8-0.3-1c-0.2-0.2-0.6-0.3-1-0.3c-0.6,0-1.1,0.3-1.4,0.8v6h-2.3v-8.5H1099.6z"/>
		<path class="st8" d="M1109.2,12446.5v2.1h1.4v1.7h-1.4v4.2c0,0.3,0.1,0.5,0.2,0.7c0.1,0.1,0.3,0.2,0.7,0.2c0.2,0,0.5,0,0.7-0.1
			v1.7c-0.4,0.1-0.9,0.2-1.4,0.2c-1.6,0-2.4-0.8-2.4-2.4v-4.6h-1.2v-1.7h1.2v-2.1H1109.2z"/>
		<path class="st8" d="M1116.8,12457c-0.1-0.2-0.2-0.5-0.2-0.8c-0.5,0.6-1.3,0.9-2.1,0.9c-0.8,0-1.5-0.2-2.1-0.7
			c-0.5-0.5-0.8-1.1-0.8-1.8c0-0.9,0.3-1.6,1-2.1s1.6-0.7,2.9-0.7h1v-0.5c0-0.4-0.1-0.7-0.3-0.9c-0.2-0.2-0.5-0.4-0.9-0.4
			c-0.4,0-0.7,0.1-0.9,0.3c-0.2,0.2-0.3,0.4-0.3,0.8h-2.3c0-0.5,0.2-0.9,0.5-1.4c0.3-0.4,0.7-0.7,1.3-1c0.6-0.2,1.2-0.4,1.9-0.4
			c1,0,1.9,0.3,2.5,0.8c0.6,0.5,0.9,1.3,0.9,2.2v3.7c0,0.8,0.1,1.4,0.3,1.8v0.1H1116.8z M1114.9,12455.4c0.3,0,0.6-0.1,0.9-0.2
			s0.5-0.3,0.6-0.6v-1.5h-0.8c-1.1,0-1.7,0.4-1.8,1.2l0,0.1c0,0.3,0.1,0.5,0.3,0.7C1114.3,12455.3,1114.6,12455.4,1114.9,12455.4z"
			/>
		<path class="st8" d="M1122.9,12457h-2.3v-12h2.3V12457z"/>
		<path class="st8" d="M1127.1,12457h-2.3v-12h2.3V12457z"/>
		<path class="st8" d="M1133.9,12457c-0.1-0.2-0.2-0.5-0.2-0.8c-0.5,0.6-1.3,0.9-2.1,0.9c-0.8,0-1.5-0.2-2.1-0.7
			c-0.5-0.5-0.8-1.1-0.8-1.8c0-0.9,0.3-1.6,1-2.1s1.6-0.7,2.9-0.7h1v-0.5c0-0.4-0.1-0.7-0.3-0.9c-0.2-0.2-0.5-0.4-0.9-0.4
			c-0.4,0-0.7,0.1-0.9,0.3c-0.2,0.2-0.3,0.4-0.3,0.8h-2.3c0-0.5,0.2-0.9,0.5-1.4c0.3-0.4,0.7-0.7,1.3-1c0.6-0.2,1.2-0.4,1.9-0.4
			c1,0,1.9,0.3,2.5,0.8c0.6,0.5,0.9,1.3,0.9,2.2v3.7c0,0.8,0.1,1.4,0.3,1.8v0.1H1133.9z M1132,12455.4c0.3,0,0.6-0.1,0.9-0.2
			s0.5-0.3,0.6-0.6v-1.5h-0.8c-1.1,0-1.7,0.4-1.8,1.2l0,0.1c0,0.3,0.1,0.5,0.3,0.7C1131.4,12455.3,1131.6,12455.4,1132,12455.4z"/>
	</g>
	<g class="st7">
		<path class="st8" d="M1007.2,12511.8h-1.9v4.2h-2.3v-11.4h4.2c1.3,0,2.4,0.3,3.1,0.9c0.7,0.6,1.1,1.4,1.1,2.5
			c0,0.8-0.2,1.4-0.5,1.9s-0.8,0.9-1.5,1.2l2.5,4.6v0.1h-2.5L1007.2,12511.8z M1005.4,12509.9h1.9c0.6,0,1-0.1,1.4-0.4
			c0.3-0.3,0.5-0.7,0.5-1.2c0-0.5-0.2-1-0.5-1.3s-0.8-0.5-1.4-0.5h-1.9V12509.9z"/>
		<path class="st8" d="M1017,12516.2c-1.2,0-2.2-0.4-3-1.1c-0.8-0.8-1.2-1.8-1.2-3v-0.2c0-0.8,0.2-1.6,0.5-2.3s0.8-1.2,1.4-1.5
			s1.3-0.5,2.1-0.5c1.2,0,2.1,0.4,2.7,1.1s1,1.8,1,3.1v0.9h-5.4c0.1,0.6,0.3,1,0.7,1.3s0.8,0.5,1.4,0.5c0.9,0,1.5-0.3,2-0.9l1.1,1.2
			c-0.3,0.5-0.8,0.9-1.4,1.1S1017.7,12516.2,1017,12516.2z M1016.7,12509.2c-0.4,0-0.8,0.2-1.1,0.5c-0.3,0.3-0.5,0.7-0.5,1.3h3.1
			v-0.2c0-0.5-0.1-0.9-0.4-1.2C1017.6,12509.3,1017.2,12509.2,1016.7,12509.2z"/>
		<path class="st8" d="M1026.3,12513.7c0-0.3-0.1-0.5-0.4-0.7s-0.7-0.3-1.3-0.4c-2-0.4-3-1.3-3-2.6c0-0.8,0.3-1.4,0.9-1.9
			c0.6-0.5,1.4-0.8,2.4-0.8c1.1,0,1.9,0.3,2.6,0.8c0.6,0.5,1,1.2,1,2h-2.3c0-0.3-0.1-0.6-0.3-0.8c-0.2-0.2-0.5-0.3-1-0.3
			c-0.4,0-0.7,0.1-0.9,0.3c-0.2,0.2-0.3,0.4-0.3,0.7c0,0.2,0.1,0.5,0.4,0.6c0.2,0.2,0.6,0.3,1.2,0.4s1,0.2,1.4,0.4
			c1.2,0.4,1.8,1.2,1.8,2.3c0,0.8-0.3,1.4-1,1.9c-0.7,0.5-1.5,0.7-2.6,0.7c-0.7,0-1.3-0.1-1.9-0.4c-0.5-0.3-1-0.6-1.3-1
			s-0.5-0.9-0.5-1.4h2.1c0,0.4,0.2,0.7,0.4,0.9c0.3,0.2,0.6,0.3,1.1,0.3c0.4,0,0.8-0.1,1-0.2
			C1026.2,12514.1,1026.3,12513.9,1026.3,12513.7z"/>
		<path class="st8" d="M1037.6,12511.9c0,1.3-0.3,2.3-0.9,3.1c-0.6,0.8-1.4,1.2-2.4,1.2c-0.9,0-1.5-0.3-2.1-0.9v4h-2.3v-11.7h2.1
			l0.1,0.8c0.5-0.7,1.3-1,2.1-1c1,0,1.9,0.4,2.4,1.2s0.9,1.8,0.9,3.2V12511.9z M1035.3,12511.7c0-0.8-0.1-1.4-0.4-1.8
			c-0.3-0.4-0.7-0.6-1.2-0.6c-0.7,0-1.2,0.3-1.5,0.8v3.5c0.3,0.6,0.8,0.8,1.5,0.8C1034.8,12514.3,1035.3,12513.5,1035.3,12511.7z"/>
		<path class="st8" d="M1043.9,12516c-0.1-0.2-0.2-0.5-0.2-0.8c-0.5,0.6-1.3,0.9-2.1,0.9c-0.8,0-1.5-0.2-2.1-0.7
			c-0.5-0.5-0.8-1.1-0.8-1.8c0-0.9,0.3-1.6,1-2.1s1.6-0.7,2.9-0.7h1v-0.5c0-0.4-0.1-0.7-0.3-0.9c-0.2-0.2-0.5-0.4-0.9-0.4
			c-0.4,0-0.7,0.1-0.9,0.3c-0.2,0.2-0.3,0.4-0.3,0.8h-2.3c0-0.5,0.2-0.9,0.5-1.4c0.3-0.4,0.7-0.7,1.3-1c0.6-0.2,1.2-0.4,1.9-0.4
			c1,0,1.9,0.3,2.5,0.8c0.6,0.5,0.9,1.3,0.9,2.2v3.7c0,0.8,0.1,1.4,0.3,1.8v0.1H1043.9z M1042,12514.4c0.3,0,0.6-0.1,0.9-0.2
			s0.5-0.3,0.6-0.6v-1.5h-0.8c-1.1,0-1.7,0.4-1.8,1.2l0,0.1c0,0.3,0.1,0.5,0.3,0.7C1041.4,12514.3,1041.6,12514.4,1042,12514.4z"/>
		<path class="st8" d="M1049.9,12516h-2.3v-12h2.3V12516z"/>
		<path class="st8" d="M1051.4,12511.7c0-1.3,0.3-2.4,0.9-3.1c0.6-0.8,1.4-1.2,2.4-1.2c0.8,0,1.5,0.3,2,0.9v-4.3h2.3v12h-2l-0.1-0.9
			c-0.6,0.7-1.3,1.1-2.2,1.1c-1,0-1.8-0.4-2.4-1.2S1051.4,12513.1,1051.4,12511.7z M1053.7,12511.9c0,0.8,0.1,1.4,0.4,1.8
			c0.3,0.4,0.7,0.6,1.2,0.6c0.7,0,1.2-0.3,1.5-0.9v-3.3c-0.3-0.6-0.8-0.9-1.5-0.9C1054.2,12509.2,1053.7,12510.1,1053.7,12511.9z"/>
		<path class="st8" d="M1060.4,12511.7c0-0.8,0.2-1.6,0.5-2.2c0.3-0.7,0.8-1.2,1.4-1.5c0.6-0.4,1.3-0.5,2.1-0.5c1.1,0,2.1,0.3,2.8,1
			c0.7,0.7,1.1,1.6,1.2,2.8l0,0.6c0,1.3-0.4,2.3-1.1,3.1c-0.7,0.8-1.7,1.2-2.9,1.2s-2.2-0.4-2.9-1.2s-1.1-1.8-1.1-3.2V12511.7z
			 M1062.7,12511.9c0,0.8,0.2,1.4,0.5,1.8c0.3,0.4,0.7,0.6,1.3,0.6c0.5,0,1-0.2,1.3-0.6c0.3-0.4,0.5-1.1,0.5-2
			c0-0.8-0.2-1.4-0.5-1.8c-0.3-0.4-0.7-0.6-1.3-0.6c-0.6,0-1,0.2-1.3,0.6C1062.9,12510.3,1062.7,12511,1062.7,12511.9z"/>
		<path class="st8" d="M1074.4,12513.7c0-0.3-0.1-0.5-0.4-0.7s-0.7-0.3-1.3-0.4c-2-0.4-3-1.3-3-2.6c0-0.8,0.3-1.4,0.9-1.9
			c0.6-0.5,1.4-0.8,2.4-0.8c1.1,0,1.9,0.3,2.6,0.8c0.6,0.5,1,1.2,1,2h-2.3c0-0.3-0.1-0.6-0.3-0.8c-0.2-0.2-0.5-0.3-1-0.3
			c-0.4,0-0.7,0.1-0.9,0.3c-0.2,0.2-0.3,0.4-0.3,0.7c0,0.2,0.1,0.5,0.4,0.6c0.2,0.2,0.6,0.3,1.2,0.4s1,0.2,1.4,0.4
			c1.2,0.4,1.8,1.2,1.8,2.3c0,0.8-0.3,1.4-1,1.9c-0.7,0.5-1.5,0.7-2.6,0.7c-0.7,0-1.3-0.1-1.9-0.4c-0.5-0.3-1-0.6-1.3-1
			s-0.5-0.9-0.5-1.4h2.1c0,0.4,0.2,0.7,0.4,0.9c0.3,0.2,0.6,0.3,1.1,0.3c0.4,0,0.8-0.1,1-0.2
			C1074.3,12514.1,1074.4,12513.9,1074.4,12513.7z"/>
	</g>
	<g class="st7">
		<path class="st8" d="M1007.2,12562.2l2.6-8.6h2.6l-4,11.4h-2.4l-3.9-11.4h2.6L1007.2,12562.2z"/>
		<path class="st8" d="M1017.2,12565.2c-1.2,0-2.2-0.4-3-1.1c-0.8-0.8-1.2-1.8-1.2-3v-0.2c0-0.8,0.2-1.6,0.5-2.3s0.8-1.2,1.4-1.5
			s1.3-0.5,2.1-0.5c1.2,0,2.1,0.4,2.7,1.1s1,1.8,1,3.1v0.9h-5.4c0.1,0.6,0.3,1,0.7,1.3s0.8,0.5,1.4,0.5c0.9,0,1.5-0.3,2-0.9l1.1,1.2
			c-0.3,0.5-0.8,0.9-1.4,1.1S1017.9,12565.2,1017.2,12565.2z M1017,12558.2c-0.4,0-0.8,0.2-1.1,0.5c-0.3,0.3-0.5,0.7-0.5,1.3h3.1
			v-0.2c0-0.5-0.1-0.9-0.4-1.2C1017.8,12558.3,1017.4,12558.2,1017,12558.2z"/>
		<path class="st8" d="M1026.7,12558.7c-0.3,0-0.6-0.1-0.8-0.1c-0.9,0-1.4,0.3-1.7,0.9v5.5h-2.3v-8.5h2.1l0.1,1
			c0.5-0.8,1.1-1.2,1.9-1.2c0.2,0,0.5,0,0.7,0.1L1026.7,12558.7z"/>
		<path class="st8" d="M1027.8,12554.4c0-0.3,0.1-0.6,0.3-0.8s0.5-0.3,0.9-0.3c0.4,0,0.7,0.1,0.9,0.3c0.2,0.2,0.3,0.5,0.3,0.8
			c0,0.3-0.1,0.6-0.3,0.8c-0.2,0.2-0.5,0.3-0.9,0.3c-0.4,0-0.7-0.1-0.9-0.3C1027.9,12555,1027.8,12554.7,1027.8,12554.4z
			 M1030.2,12565h-2.3v-8.5h2.3V12565z"/>
		<path class="st8" d="M1032.7,12565v-6.8h-1.3v-1.7h1.3v-0.7c0-0.9,0.3-1.7,0.8-2.2c0.5-0.5,1.3-0.8,2.3-0.8c0.3,0,0.7,0.1,1.1,0.2
			l0,1.8c-0.2,0-0.4-0.1-0.7-0.1c-0.8,0-1.3,0.4-1.3,1.2v0.7h1.7v1.7h-1.7v6.8H1032.7z"/>
		<path class="st8" d="M1037.8,12554.4c0-0.3,0.1-0.6,0.3-0.8s0.5-0.3,0.9-0.3c0.4,0,0.7,0.1,0.9,0.3c0.2,0.2,0.3,0.5,0.3,0.8
			c0,0.3-0.1,0.6-0.3,0.8c-0.2,0.2-0.5,0.3-0.9,0.3c-0.4,0-0.7-0.1-0.9-0.3C1037.9,12555,1037.8,12554.7,1037.8,12554.4z
			 M1040.2,12565h-2.3v-8.5h2.3V12565z"/>
		<path class="st8" d="M1045.5,12563.3c0.4,0,0.8-0.1,1-0.3c0.3-0.2,0.4-0.5,0.4-0.9h2.1c0,0.6-0.2,1.1-0.5,1.6
			c-0.3,0.5-0.7,0.8-1.3,1.1c-0.5,0.3-1.1,0.4-1.8,0.4c-1.2,0-2.2-0.4-2.9-1.2c-0.7-0.8-1-1.8-1-3.2v-0.1c0-1.3,0.3-2.3,1-3.1
			c0.7-0.8,1.6-1.2,2.9-1.2c1.1,0,1.9,0.3,2.5,0.9c0.6,0.6,1,1.4,1,2.4h-2.1c0-0.4-0.1-0.8-0.4-1.1c-0.3-0.3-0.6-0.4-1-0.4
			c-0.5,0-0.9,0.2-1.2,0.6c-0.3,0.4-0.4,1-0.4,1.9v0.2c0,0.9,0.1,1.5,0.4,1.9S1045,12563.3,1045.5,12563.3z"/>
		<path class="st8" d="M1055.3,12565c-0.1-0.2-0.2-0.5-0.2-0.8c-0.5,0.6-1.3,0.9-2.1,0.9c-0.8,0-1.5-0.2-2.1-0.7
			c-0.5-0.5-0.8-1.1-0.8-1.8c0-0.9,0.3-1.6,1-2.1s1.6-0.7,2.9-0.7h1v-0.5c0-0.4-0.1-0.7-0.3-0.9c-0.2-0.2-0.5-0.4-0.9-0.4
			c-0.4,0-0.7,0.1-0.9,0.3c-0.2,0.2-0.3,0.4-0.3,0.8h-2.3c0-0.5,0.2-0.9,0.5-1.4c0.3-0.4,0.7-0.7,1.3-1c0.6-0.2,1.2-0.4,1.9-0.4
			c1,0,1.9,0.3,2.5,0.8c0.6,0.5,0.9,1.3,0.9,2.2v3.7c0,0.8,0.1,1.4,0.3,1.8v0.1H1055.3z M1053.4,12563.4c0.3,0,0.6-0.1,0.9-0.2
			s0.5-0.3,0.6-0.6v-1.5h-0.8c-1.1,0-1.7,0.4-1.8,1.2l0,0.1c0,0.3,0.1,0.5,0.3,0.7C1052.8,12563.3,1053.1,12563.4,1053.4,12563.4z"
			/>
		<path class="st8" d="M1063.7,12558.7c-0.3,0-0.6-0.1-0.8-0.1c-0.9,0-1.4,0.3-1.7,0.9v5.5h-2.3v-8.5h2.1l0.1,1
			c0.5-0.8,1.1-1.2,1.9-1.2c0.2,0,0.5,0,0.7,0.1L1063.7,12558.7z"/>
		<path class="st8" d="M1072.7,12565.2c-1.2,0-2.2-0.4-3-1.1c-0.8-0.8-1.2-1.8-1.2-3v-0.2c0-0.8,0.2-1.6,0.5-2.3s0.8-1.2,1.4-1.5
			s1.3-0.5,2.1-0.5c1.2,0,2.1,0.4,2.7,1.1s1,1.8,1,3.1v0.9h-5.4c0.1,0.6,0.3,1,0.7,1.3s0.8,0.5,1.4,0.5c0.9,0,1.5-0.3,2-0.9l1.1,1.2
			c-0.3,0.5-0.8,0.9-1.4,1.1S1073.4,12565.2,1072.7,12565.2z M1072.4,12558.2c-0.4,0-0.8,0.2-1.1,0.5c-0.3,0.3-0.5,0.7-0.5,1.3h3.1
			v-0.2c0-0.5-0.1-0.9-0.4-1.2C1073.3,12558.3,1072.9,12558.2,1072.4,12558.2z"/>
		<path class="st8" d="M1082,12562.7c0-0.3-0.1-0.5-0.4-0.7s-0.7-0.3-1.3-0.4c-2-0.4-3-1.3-3-2.6c0-0.8,0.3-1.4,0.9-1.9
			c0.6-0.5,1.4-0.8,2.4-0.8c1.1,0,1.9,0.3,2.6,0.8c0.6,0.5,1,1.2,1,2h-2.3c0-0.3-0.1-0.6-0.3-0.8c-0.2-0.2-0.5-0.3-1-0.3
			c-0.4,0-0.7,0.1-0.9,0.3c-0.2,0.2-0.3,0.4-0.3,0.7c0,0.2,0.1,0.5,0.4,0.6c0.2,0.2,0.6,0.3,1.2,0.4s1,0.2,1.4,0.4
			c1.2,0.4,1.8,1.2,1.8,2.3c0,0.8-0.3,1.4-1,1.9c-0.7,0.5-1.5,0.7-2.6,0.7c-0.7,0-1.3-0.1-1.9-0.4c-0.5-0.3-1-0.6-1.3-1
			s-0.5-0.9-0.5-1.4h2.1c0,0.4,0.2,0.7,0.4,0.9c0.3,0.2,0.6,0.3,1.1,0.3c0.4,0,0.8-0.1,1-0.2
			C1081.9,12563.1,1082,12562.9,1082,12562.7z"/>
		<path class="st8" d="M1088.4,12554.5v2.1h1.4v1.7h-1.4v4.2c0,0.3,0.1,0.5,0.2,0.7c0.1,0.1,0.3,0.2,0.7,0.2c0.2,0,0.5,0,0.7-0.1
			v1.7c-0.4,0.1-0.9,0.2-1.4,0.2c-1.6,0-2.4-0.8-2.4-2.4v-4.6h-1.2v-1.7h1.2v-2.1H1088.4z"/>
		<path class="st8" d="M1096,12565c-0.1-0.2-0.2-0.5-0.2-0.8c-0.5,0.6-1.3,0.9-2.1,0.9c-0.8,0-1.5-0.2-2.1-0.7
			c-0.5-0.5-0.8-1.1-0.8-1.8c0-0.9,0.3-1.6,1-2.1s1.6-0.7,2.9-0.7h1v-0.5c0-0.4-0.1-0.7-0.3-0.9c-0.2-0.2-0.5-0.4-0.9-0.4
			c-0.4,0-0.7,0.1-0.9,0.3c-0.2,0.2-0.3,0.4-0.3,0.8h-2.3c0-0.5,0.2-0.9,0.5-1.4c0.3-0.4,0.7-0.7,1.3-1c0.6-0.2,1.2-0.4,1.9-0.4
			c1,0,1.9,0.3,2.5,0.8c0.6,0.5,0.9,1.3,0.9,2.2v3.7c0,0.8,0.1,1.4,0.3,1.8v0.1H1096z M1094.1,12563.4c0.3,0,0.6-0.1,0.9-0.2
			s0.5-0.3,0.6-0.6v-1.5h-0.8c-1.1,0-1.7,0.4-1.8,1.2l0,0.1c0,0.3,0.1,0.5,0.3,0.7C1093.5,12563.3,1093.7,12563.4,1094.1,12563.4z"
			/>
		<path class="st8" d="M1107.2,12560.9c0,1.4-0.3,2.4-0.9,3.2s-1.4,1.1-2.4,1.1c-0.9,0-1.6-0.4-2.2-1.1l-0.1,0.9h-2v-12h2.3v4.3
			c0.5-0.6,1.2-0.9,2.1-0.9c1,0,1.8,0.4,2.4,1.1s0.9,1.8,0.9,3.2V12560.9z M1105,12560.7c0-0.9-0.1-1.5-0.4-1.9
			c-0.3-0.4-0.7-0.6-1.2-0.6c-0.7,0-1.2,0.3-1.5,0.9v3.3c0.3,0.6,0.8,0.9,1.5,0.9c0.7,0,1.2-0.4,1.4-1.1
			C1104.9,12561.9,1105,12561.4,1105,12560.7z"/>
		<path class="st8" d="M1108.6,12554.4c0-0.3,0.1-0.6,0.3-0.8s0.5-0.3,0.9-0.3c0.4,0,0.7,0.1,0.9,0.3c0.2,0.2,0.3,0.5,0.3,0.8
			c0,0.3-0.1,0.6-0.3,0.8c-0.2,0.2-0.5,0.3-0.9,0.3c-0.4,0-0.7-0.1-0.9-0.3C1108.7,12555,1108.6,12554.7,1108.6,12554.4z
			 M1111,12565h-2.3v-8.5h2.3V12565z"/>
		<path class="st8" d="M1115.3,12565h-2.3v-12h2.3V12565z"/>
		<path class="st8" d="M1117.1,12554.4c0-0.3,0.1-0.6,0.3-0.8s0.5-0.3,0.9-0.3c0.4,0,0.7,0.1,0.9,0.3c0.2,0.2,0.3,0.5,0.3,0.8
			c0,0.3-0.1,0.6-0.3,0.8c-0.2,0.2-0.5,0.3-0.9,0.3c-0.4,0-0.7-0.1-0.9-0.3C1117.2,12555,1117.1,12554.7,1117.1,12554.4z
			 M1119.5,12565h-2.3v-8.5h2.3V12565z"/>
		<path class="st8" d="M1121,12560.7c0-1.3,0.3-2.4,0.9-3.1c0.6-0.8,1.4-1.2,2.4-1.2c0.8,0,1.5,0.3,2,0.9v-4.3h2.3v12h-2l-0.1-0.9
			c-0.6,0.7-1.3,1.1-2.2,1.1c-1,0-1.8-0.4-2.4-1.2S1121,12562.1,1121,12560.7z M1123.3,12560.9c0,0.8,0.1,1.4,0.4,1.8
			c0.3,0.4,0.7,0.6,1.2,0.6c0.7,0,1.2-0.3,1.5-0.9v-3.3c-0.3-0.6-0.8-0.9-1.5-0.9C1123.8,12558.2,1123.3,12559.1,1123.3,12560.9z"/>
		<path class="st8" d="M1135.3,12565c-0.1-0.2-0.2-0.5-0.2-0.8c-0.5,0.6-1.3,0.9-2.1,0.9c-0.8,0-1.5-0.2-2.1-0.7
			c-0.5-0.5-0.8-1.1-0.8-1.8c0-0.9,0.3-1.6,1-2.1s1.6-0.7,2.9-0.7h1v-0.5c0-0.4-0.1-0.7-0.3-0.9c-0.2-0.2-0.5-0.4-0.9-0.4
			c-0.4,0-0.7,0.1-0.9,0.3c-0.2,0.2-0.3,0.4-0.3,0.8h-2.3c0-0.5,0.2-0.9,0.5-1.4c0.3-0.4,0.7-0.7,1.3-1c0.6-0.2,1.2-0.4,1.9-0.4
			c1,0,1.9,0.3,2.5,0.8c0.6,0.5,0.9,1.3,0.9,2.2v3.7c0,0.8,0.1,1.4,0.3,1.8v0.1H1135.3z M1133.4,12563.4c0.3,0,0.6-0.1,0.9-0.2
			s0.5-0.3,0.6-0.6v-1.5h-0.8c-1.1,0-1.7,0.4-1.8,1.2l0,0.1c0,0.3,0.1,0.5,0.3,0.7C1132.8,12563.3,1133.1,12563.4,1133.4,12563.4z"
			/>
		<path class="st8" d="M1138.6,12560.7c0-1.3,0.3-2.4,0.9-3.1c0.6-0.8,1.4-1.2,2.4-1.2c0.8,0,1.5,0.3,2,0.9v-4.3h2.3v12h-2l-0.1-0.9
			c-0.6,0.7-1.3,1.1-2.2,1.1c-1,0-1.8-0.4-2.4-1.2S1138.6,12562.1,1138.6,12560.7z M1140.9,12560.9c0,0.8,0.1,1.4,0.4,1.8
			c0.3,0.4,0.7,0.6,1.2,0.6c0.7,0,1.2-0.3,1.5-0.9v-3.3c-0.3-0.6-0.8-0.9-1.5-0.9C1141.4,12558.2,1140.9,12559.1,1140.9,12560.9z"/>
	</g>
	<path id="Trazado_213817" class="st15" d="M995,12449.5h-20.3v126.8h-41.6"/>
	<path id="Polígono_56" class="st9" d="M930.3,12576.3l7-4.5v9L930.3,12576.3z"/>
	<path id="Polígono_57" class="st9" d="M930.3,12532.2l7-4.5v9L930.3,12532.2z"/>
	<path id="Polígono_58" class="st9" d="M930.3,12508.5l7-4.5v9L930.3,12508.5z"/>
	<path id="Polígono_59" class="st9" d="M930.3,12489l7-4.5v9L930.3,12489z"/>
	<path id="Polígono_60" class="st9" d="M930.3,12465l7-4.5v9L930.3,12465z"/>
	<path id="Polígono_61" class="st9" d="M930.3,12443l7-4.5v9L930.3,12443z"/>
	<path id="Trazado_213818" class="st15" d="M933.8,12443h22.4v89.2h-22.4"/>
	<path id="Trazado_213819" class="st15" d="M933.1,12465h11.3v91.2h50.1"/>
	<path id="Trazado_213820" class="st15" d="M973.8,12489h-40"/>
	<path id="Trazado_213821" class="st15" d="M994.6,12509h-37.9"/>
	<path id="Trazado_213822" class="st15" d="M945,12509h-11.2"/>
</g>
</svg>
