<svg xmlns="http://www.w3.org/2000/svg" width="802" height="212" viewBox="0 0 802 212">
  <g id="Grupo_106854" data-name="Grupo 106854" transform="translate(-399 -12404)">
    <rect id="Rectángulo_43073" data-name="Rectángulo 43073" width="101" height="20" transform="translate(420 12440)" fill="#ffa726" opacity="0.25"/>
    <g id="Rectángulo_43086" data-name="Rectángulo 43086" transform="translate(828 12433)" fill="#fff" stroke="#727997" stroke-width="1">
      <rect width="101" height="20" stroke="none"/>
      <rect x="0.5" y="0.5" width="100" height="19" fill="none"/>
    </g>
    <rect id="Rectángulo_43080" data-name="Rectángulo 43080" width="101" height="20" transform="translate(420 12528)" fill="#26a69a" opacity="0.25"/>
    <g id="Rectángulo_43082" data-name="Rectángulo 43082" transform="translate(828 12521)" fill="#fff" stroke="#727997" stroke-width="1">
      <rect width="101" height="20" stroke="none"/>
      <rect x="0.5" y="0.5" width="100" height="19" fill="none"/>
    </g>
    <rect id="Rectángulo_43076" data-name="Rectángulo 43076" width="101" height="20" transform="translate(420 12484)" fill="#ffca28" opacity="0.25"/>
    <g id="Rectángulo_43084" data-name="Rectángulo 43084" transform="translate(828 12477)" fill="#fff" stroke="#727997" stroke-width="1">
      <rect width="101" height="20" stroke="none"/>
      <rect x="0.5" y="0.5" width="100" height="19" fill="none"/>
    </g>
    <rect id="Rectángulo_43074" data-name="Rectángulo 43074" width="101" height="20" transform="translate(420 12462)" fill="#4dd0e1" opacity="0.25"/>
    <g id="Rectángulo_43085" data-name="Rectángulo 43085" transform="translate(828 12455)" fill="#fff" stroke="#727997" stroke-width="1">
      <rect width="101" height="20" stroke="none"/>
      <rect x="0.5" y="0.5" width="100" height="19" fill="none"/>
    </g>
    <rect id="Rectángulo_43079" data-name="Rectángulo 43079" width="101" height="20" transform="translate(420 12550)" fill="#4dd0e1" opacity="0.25"/>
    <g id="Rectángulo_43081" data-name="Rectángulo 43081" transform="translate(828 12543)" fill="#fff" stroke="#727997" stroke-width="1">
      <rect width="101" height="20" stroke="none"/>
      <rect x="0.5" y="0.5" width="100" height="19" fill="none"/>
    </g>
    <g id="Rectángulo_43087" data-name="Rectángulo 43087" transform="translate(828 12565)" fill="#fff" stroke="#727997" stroke-width="1">
      <rect width="101" height="20" stroke="none"/>
      <rect x="0.5" y="0.5" width="100" height="19" fill="none"/>
    </g>
    <rect id="Rectángulo_43075" data-name="Rectángulo 43075" width="101" height="20" transform="translate(420 12506)" fill="#039be5" opacity="0.25"/>
    <g id="Rectángulo_43083" data-name="Rectángulo 43083" transform="translate(828 12499)" fill="#fff" stroke="#727997" stroke-width="1">
      <rect width="101" height="20" stroke="none"/>
      <rect x="0.5" y="0.5" width="100" height="19" fill="none"/>
    </g>
    <text id="Código_fuente" data-name="Código fuente" transform="translate(399 12411)" fill="#12263f" font-size="16" font-family="Roboto-Regular, Roboto"><tspan x="-49.945" y="17">Código fuente</tspan></text>
    <text id="Código_fuente-2" data-name="Código fuente" transform="translate(800 12404)" fill="#12263f" font-size="16" font-family="Roboto-Regular, Roboto"><tspan x="-49.945" y="17">Código fuente</tspan></text>
    <text id="Actualizar_pantalla" data-name="Actualizar pantalla" transform="translate(572 12440)" fill="#12263f" font-size="16" font-family="Roboto-Bold, Roboto" font-weight="700"><tspan x="0" y="17">Actualizar pantalla</tspan></text>
    <text id="Sin_POA" data-name="Sin POA" transform="translate(435 12590)" fill="#12263f" font-size="20" font-family="Roboto-Bold, Roboto" font-weight="700"><tspan x="0" y="21">Sin POA</tspan></text>
    <text id="Con_POA" data-name="Con  POA" transform="translate(835 12590)" fill="#12263f" font-size="20" font-family="Roboto-Bold, Roboto" font-weight="700"><tspan x="0" y="21" xml:space="preserve">Con  POA</tspan></text>
    <text id="Respaldos" transform="translate(572 12489)" fill="#12263f" font-size="16" font-family="Roboto-Bold, Roboto" font-weight="700"><tspan x="0" y="17">Respaldos</tspan></text>
    <text id="Verificar_estabilidad" data-name="Verificar estabilidad" transform="translate(572 12548)" fill="#12263f" font-size="16" font-family="Roboto-Bold, Roboto" font-weight="700"><tspan x="0" y="17">Verificar estabilidad</tspan></text>
    <text id="Obligaciones_transversales" data-name="Obligaciones transversales" transform="translate(572 12595)" fill="#727997" font-size="16" font-family="Roboto-Regular, Roboto"><tspan x="0" y="17">Obligaciones transversales</tspan></text>
    <text id="Aspectos" transform="translate(995 12595)" fill="#727997" font-size="16" font-family="Roboto-Regular, Roboto"><tspan x="0" y="17">Aspectos</tspan></text>
    <g id="Grupo_99541" data-name="Grupo 99541" transform="translate(561.079 12448.286) rotate(66)">
      <g id="Grupo_99295" data-name="Grupo 99295" transform="translate(1.834 -6.2)">
        <path id="Polígono_36" data-name="Polígono 36" d="M4.5,0,9,7H0Z" transform="translate(0 0)" fill="#727997"/>
        <rect id="Rectángulo_42835" data-name="Rectángulo 42835" width="2" height="45.783" transform="translate(3.5 5.599)" fill="#727997"/>
      </g>
    </g>
    <g id="Grupo_99539" data-name="Grupo 99539" transform="translate(570.469 12478.55) rotate(131)">
      <g id="Grupo_99295-2" data-name="Grupo 99295" transform="translate(1.834 -6.2)">
        <path id="Polígono_36-2" data-name="Polígono 36" d="M4.5,0,9,7H0Z" transform="translate(0 0)" fill="#727997"/>
        <rect id="Rectángulo_42835-2" data-name="Rectángulo 42835" width="2" height="59.082" transform="translate(3.5 5.599)" fill="#727997"/>
      </g>
    </g>
    <g id="Grupo_99544" data-name="Grupo 99544" transform="matrix(-0.682, 0.731, -0.731, -0.682, 574.109, 12535.849)">
      <g id="Grupo_99295-3" data-name="Grupo 99295" transform="translate(1.834 -6.2)">
        <path id="Polígono_36-3" data-name="Polígono 36" d="M4.5,0,9,7H0Z" transform="translate(0 0)" fill="#727997"/>
        <rect id="Rectángulo_42835-3" data-name="Rectángulo 42835" width="2" height="68.262" transform="translate(3.5 5.599)" fill="#727997"/>
      </g>
    </g>
    <g id="Grupo_99542" data-name="Grupo 99542" transform="matrix(-0.588, -0.809, 0.809, -0.588, 524.943, 12548)">
      <g id="Grupo_99295-4" data-name="Grupo 99295" transform="translate(0 0)">
        <path id="Polígono_36-4" data-name="Polígono 36" d="M4.5,0,9,7H0Z" transform="translate(9 61.581) rotate(180)" fill="#727997"/>
        <rect id="Rectángulo_42835-4" data-name="Rectángulo 42835" width="2" height="55.982" transform="translate(3.5)" fill="#727997"/>
      </g>
    </g>
    <g id="Grupo_99543" data-name="Grupo 99543" transform="matrix(-0.899, -0.438, 0.438, -0.899, 526.479, 12564.093)">
      <g id="Grupo_99295-5" data-name="Grupo 99295" transform="translate(0 0)">
        <path id="Polígono_36-5" data-name="Polígono 36" d="M4.5,0,9,7H0Z" transform="translate(9 113.513) rotate(180)" fill="#727997"/>
        <rect id="Rectángulo_42835-5" data-name="Rectángulo 42835" width="2" height="107.914" transform="translate(3.5)" fill="#727997"/>
      </g>
    </g>
    <g id="Grupo_99540" data-name="Grupo 99540" transform="matrix(-0.719, 0.695, -0.695, -0.719, 587.023, 12530.871)">
      <g id="Grupo_99295-6" data-name="Grupo 99295" transform="translate(1.834 -6.2)">
        <path id="Polígono_36-6" data-name="Polígono 36" d="M4.5,0,9,7H0Z" transform="translate(0 0)" fill="#727997"/>
        <rect id="Rectángulo_42835-6" data-name="Rectángulo 42835" width="2" height="88.184" transform="translate(3.5 5.599)" fill="#727997"/>
      </g>
    </g>
    <g id="Rectángulo_43088" data-name="Rectángulo 43088" transform="translate(995 12437)" fill="#4dd0e1" stroke="#707070" stroke-width="1" opacity="0.5">
      <rect width="167" height="26" stroke="none"/>
      <rect x="0.5" y="0.5" width="166" height="25" fill="none"/>
    </g>
    <g id="Rectángulo_43089" data-name="Rectángulo 43089" transform="translate(995 12496)" fill="#ffca28" stroke="#707070" stroke-width="1" opacity="0.5">
      <rect width="167" height="26" stroke="none"/>
      <rect x="0.5" y="0.5" width="166" height="25" fill="none"/>
    </g>
    <g id="Rectángulo_43090" data-name="Rectángulo 43090" transform="translate(995 12543)" fill="#039be5" stroke="#707070" stroke-width="1" opacity="0.5">
      <rect width="167" height="26" stroke="none"/>
      <rect x="0.5" y="0.5" width="166" height="25" fill="none"/>
    </g>
    <text id="Actualizar_pantalla-2" data-name="Actualizar pantalla" transform="translate(1002 12440)" fill="#12263f" font-size="16" font-family="Roboto-Bold, Roboto" font-weight="700"><tspan x="0" y="17">Actualizar pantalla</tspan></text>
    <text id="Respaldos-2" data-name="Respaldos" transform="translate(1002 12499)" fill="#12263f" font-size="16" font-family="Roboto-Bold, Roboto" font-weight="700"><tspan x="0" y="17">Respaldos</tspan></text>
    <text id="Verificar_estabilidad-2" data-name="Verificar estabilidad" transform="translate(1002 12548)" fill="#12263f" font-size="16" font-family="Roboto-Bold, Roboto" font-weight="700"><tspan x="0" y="17">Verificar estabilidad</tspan></text>
    <path id="Trazado_213817" data-name="Trazado 213817" d="M-4324,766.5h-20.267V893.333h-41.6" transform="translate(5319 11683)" fill="none" stroke="#727997" stroke-width="2"/>
    <path id="Polígono_56" data-name="Polígono 56" d="M4.5,0,9,7H0Z" transform="translate(930.302 12580.833) rotate(-90)" fill="#727997"/>
    <path id="Polígono_57" data-name="Polígono 57" d="M4.5,0,9,7H0Z" transform="translate(930.302 12536.666) rotate(-90)" fill="#727997"/>
    <path id="Polígono_58" data-name="Polígono 58" d="M4.5,0,9,7H0Z" transform="translate(930.302 12513) rotate(-90)" fill="#727997"/>
    <path id="Polígono_59" data-name="Polígono 59" d="M4.5,0,9,7H0Z" transform="translate(930.302 12493.5) rotate(-90)" fill="#727997"/>
    <path id="Polígono_60" data-name="Polígono 60" d="M4.5,0,9,7H0Z" transform="translate(930.302 12469.5) rotate(-90)" fill="#727997"/>
    <path id="Polígono_61" data-name="Polígono 61" d="M4.5,0,9,7H0Z" transform="translate(930.302 12447.5) rotate(-90)" fill="#727997"/>
    <path id="Trazado_213818" data-name="Trazado 213818" d="M-4385.2,760h22.4v89.2h-22.4" transform="translate(5319 11683)" fill="none" stroke="#727997" stroke-width="2"/>
    <path id="Trazado_213819" data-name="Trazado 213819" d="M-4385.867,782h11.333v91.2h50.133" transform="translate(5319 11683)" fill="none" stroke="#727997" stroke-width="2"/>
    <path id="Trazado_213820" data-name="Trazado 213820" d="M-4345.2,806h-40" transform="translate(5319 11683)" fill="none" stroke="#727997" stroke-width="2"/>
    <path id="Trazado_213821" data-name="Trazado 213821" d="M-4324.4,816h-37.867" transform="translate(5319 11693)" fill="none" stroke="#727997" stroke-width="2"/>
    <path id="Trazado_213822" data-name="Trazado 213822" d="M-4351.068,816h-11.2" transform="translate(5296.068 11693)" fill="none" stroke="#727997" stroke-width="2"/>
  </g>
</svg>
