<?xml version="1.0" encoding="utf-8"?>
<!-- Generator: Adobe Illustrator 25.4.2, SVG Export Plug-In . SVG Version: 6.00 Build 0)  -->
<svg version="1.1" id="Capa_1" xmlns="http://www.w3.org/2000/svg" xmlns:xlink="http://www.w3.org/1999/xlink" x="0px" y="0px"
	 viewBox="0 0 575 435" style="enable-background:new 0 0 575 435;" xml:space="preserve">
<style type="text/css">
	.st0{fill:#C1F6FD;}
	.st1{fill:#FFEDD2;}
	.st2{enable-background:new    ;}
	.st3{fill:#12263F;}
	.st4{clip-path:url(#SVGID_00000123438520716641426650000001494093465019754154_);}
	.st5{fill:#039BE5;}
	.st6{fill:#4DD0E1;}
	.st7{fill:#26A69A;}
	.st8{fill:#FFCA28;}
	.st9{fill:#FFFFFF;}
	.st10{opacity:0.6;fill:none;stroke:#12263F;stroke-width:2;enable-background:new    ;}
</style>
<path id="Rectángulo_45071" class="st0" d="M35,0h462c11,0,20,9,20,20v229l0,0H15l0,0V20C15,9,24,0,35,0z"/>
<path id="Rectángulo_45070" class="st1" d="M61,34h410c11,0,20,9,20,20v195l0,0H41l0,0V54C41,43,50,34,61,34z"/>
<g class="st2">
	<path class="st3" d="M214.1,20.4h-2.7V25H210V13.6h3.8c1.3,0,2.3,0.3,3,0.9c0.7,0.6,1,1.4,1,2.5c0,0.7-0.2,1.3-0.6,1.9
		s-0.9,0.9-1.6,1.2l2.7,4.8V25h-1.6L214.1,20.4z M211.5,19.2h2.3c0.7,0,1.3-0.2,1.8-0.6c0.4-0.4,0.7-0.9,0.7-1.5
		c0-0.7-0.2-1.2-0.6-1.6c-0.4-0.4-1-0.6-1.8-0.6h-2.3V19.2z"/>
	<path class="st3" d="M223.1,25.2c-1.1,0-2.1-0.4-2.8-1.1s-1.1-1.8-1.1-3v-0.3c0-0.8,0.2-1.6,0.5-2.2s0.8-1.2,1.3-1.5
		c0.6-0.4,1.2-0.6,1.9-0.6c1.1,0,2,0.4,2.6,1.1s0.9,1.8,0.9,3.1v0.6h-5.7c0,0.8,0.3,1.5,0.7,2c0.5,0.5,1.1,0.8,1.8,0.8
		c0.5,0,0.9-0.1,1.3-0.3c0.4-0.2,0.7-0.5,0.9-0.8l0.9,0.7C225.6,24.6,224.5,25.2,223.1,25.2z M222.9,17.6c-0.6,0-1.1,0.2-1.5,0.6
		c-0.4,0.4-0.6,1-0.7,1.8h4.2v-0.1c0-0.7-0.2-1.3-0.6-1.7C224,17.8,223.5,17.6,222.9,17.6z"/>
	<path class="st3" d="M227.7,20.7c0-1.3,0.3-2.3,0.9-3.1c0.6-0.8,1.4-1.2,2.4-1.2c1,0,1.8,0.3,2.4,1V13h1.4v12h-1.3l-0.1-0.9
		c-0.6,0.7-1.4,1.1-2.4,1.1c-1,0-1.8-0.4-2.4-1.2s-0.9-1.8-0.9-3.1V20.7z M229.2,20.9c0,1,0.2,1.7,0.6,2.2c0.4,0.5,0.9,0.8,1.6,0.8
		c0.9,0,1.6-0.4,2-1.2v-3.9c-0.4-0.8-1.1-1.2-2-1.2c-0.7,0-1.3,0.3-1.7,0.8C229.4,19,229.2,19.8,229.2,20.9z"/>
	<path class="st3" d="M241.1,14.3c0-0.2,0.1-0.4,0.2-0.6c0.1-0.2,0.4-0.2,0.6-0.2s0.5,0.1,0.6,0.2c0.1,0.2,0.2,0.4,0.2,0.6
		s-0.1,0.4-0.2,0.6c-0.1,0.2-0.4,0.2-0.6,0.2s-0.5-0.1-0.6-0.2C241.1,14.7,241.1,14.5,241.1,14.3z M242.6,25h-1.4v-8.5h1.4V25z"/>
	<path class="st3" d="M246.3,16.5l0,1.1c0.6-0.8,1.5-1.2,2.5-1.2c1.8,0,2.7,1,2.7,3V25h-1.4v-5.6c0-0.6-0.1-1.1-0.4-1.4
		s-0.7-0.4-1.3-0.4c-0.5,0-0.9,0.1-1.2,0.4c-0.4,0.2-0.6,0.6-0.8,1v6h-1.4v-8.5H246.3z"/>
	<path class="st3" d="M259,25c-0.1-0.2-0.2-0.5-0.2-0.9c-0.7,0.7-1.5,1-2.4,1c-0.8,0-1.5-0.2-2.1-0.7c-0.5-0.5-0.8-1.1-0.8-1.8
		c0-0.9,0.3-1.6,1-2.1c0.7-0.5,1.6-0.7,2.8-0.7h1.4v-0.7c0-0.5-0.2-0.9-0.5-1.2c-0.3-0.3-0.7-0.4-1.3-0.4c-0.5,0-0.9,0.1-1.3,0.4
		c-0.3,0.3-0.5,0.6-0.5,0.9h-1.5c0-0.4,0.1-0.8,0.4-1.2c0.3-0.4,0.7-0.7,1.2-0.9c0.5-0.2,1.1-0.3,1.7-0.3c1,0,1.7,0.2,2.3,0.7
		c0.6,0.5,0.8,1.2,0.9,2V23c0,0.8,0.1,1.4,0.3,1.9V25H259z M256.6,23.9c0.5,0,0.9-0.1,1.3-0.4s0.7-0.5,0.9-0.9v-1.7h-1.1
		c-1.8,0-2.7,0.5-2.7,1.6c0,0.5,0.2,0.8,0.5,1.1C255.7,23.8,256.1,23.9,256.6,23.9z"/>
	<path class="st3" d="M264,25h-1.4V13h1.4V25z"/>
	<path class="st3" d="M271.6,25c-0.1-0.2-0.2-0.5-0.2-0.9c-0.7,0.7-1.5,1-2.4,1c-0.8,0-1.5-0.2-2.1-0.7c-0.5-0.5-0.8-1.1-0.8-1.8
		c0-0.9,0.3-1.6,1-2.1c0.7-0.5,1.6-0.7,2.8-0.7h1.4v-0.7c0-0.5-0.2-0.9-0.5-1.2c-0.3-0.3-0.7-0.4-1.3-0.4c-0.5,0-0.9,0.1-1.3,0.4
		c-0.3,0.3-0.5,0.6-0.5,0.9h-1.5c0-0.4,0.1-0.8,0.4-1.2c0.3-0.4,0.7-0.7,1.2-0.9c0.5-0.2,1.1-0.3,1.7-0.3c1,0,1.7,0.2,2.3,0.7
		c0.6,0.5,0.8,1.2,0.9,2V23c0,0.8,0.1,1.4,0.3,1.9V25H271.6z M269.2,23.9c0.5,0,0.9-0.1,1.3-0.4s0.7-0.5,0.9-0.9v-1.7h-1.1
		c-1.8,0-2.7,0.5-2.7,1.6c0,0.5,0.2,0.8,0.5,1.1C268.3,23.8,268.7,23.9,269.2,23.9z M270.5,13h1.8l-2.1,2.3l-1.2,0L270.5,13z"/>
	<path class="st3" d="M276.4,16.5l0,0.9c0.6-0.7,1.5-1.1,2.5-1.1c1.2,0,2,0.5,2.4,1.4c0.3-0.4,0.6-0.7,1.1-1c0.5-0.2,1-0.4,1.6-0.4
		c1.9,0,2.8,1,2.8,2.9V25h-1.4v-5.6c0-0.6-0.1-1.1-0.4-1.4c-0.3-0.3-0.7-0.4-1.4-0.4c-0.5,0-1,0.2-1.3,0.5c-0.4,0.3-0.6,0.8-0.6,1.3
		V25h-1.5v-5.5c0-1.2-0.6-1.8-1.8-1.8c-0.9,0-1.6,0.4-1.9,1.2V25h-1.4v-8.5H276.4z"/>
	<path class="st3" d="M296.2,20.9c0,1.3-0.3,2.3-0.9,3.1s-1.4,1.2-2.4,1.2c-1.1,0-1.9-0.4-2.5-1.1l-0.1,1h-1.3V13h1.4v4.5
		c0.6-0.7,1.4-1.1,2.4-1.1c1,0,1.8,0.4,2.4,1.2s0.9,1.8,0.9,3.2V20.9z M294.8,20.7c0-1-0.2-1.7-0.6-2.3c-0.4-0.5-0.9-0.8-1.6-0.8
		c-1,0-1.6,0.4-2.1,1.3v3.7c0.4,0.9,1.1,1.3,2.1,1.3c0.7,0,1.2-0.3,1.6-0.8C294.6,22.6,294.8,21.8,294.8,20.7z"/>
	<path class="st3" d="M302.1,17.8c-0.2,0-0.5-0.1-0.7-0.1c-0.9,0-1.6,0.4-1.9,1.2v6h-1.4v-8.5h1.4l0,1c0.5-0.8,1.1-1.1,2-1.1
		c0.3,0,0.5,0,0.6,0.1V17.8z"/>
	<path class="st3" d="M303.5,14.3c0-0.2,0.1-0.4,0.2-0.6c0.1-0.2,0.4-0.2,0.6-0.2s0.5,0.1,0.6,0.2c0.1,0.2,0.2,0.4,0.2,0.6
		s-0.1,0.4-0.2,0.6c-0.1,0.2-0.4,0.2-0.6,0.2s-0.5-0.1-0.6-0.2C303.6,14.7,303.5,14.5,303.5,14.3z M305,25h-1.4v-8.5h1.4V25z"/>
	<path class="st3" d="M310.8,24c0.5,0,1-0.2,1.4-0.5c0.4-0.3,0.6-0.7,0.6-1.2h1.4c0,0.5-0.2,0.9-0.5,1.4c-0.3,0.4-0.7,0.8-1.2,1
		c-0.5,0.3-1.1,0.4-1.6,0.4c-1.2,0-2.1-0.4-2.7-1.2s-1-1.8-1-3.2v-0.2c0-0.8,0.2-1.6,0.5-2.2c0.3-0.6,0.7-1.1,1.3-1.5
		c0.6-0.4,1.2-0.5,2-0.5c0.9,0,1.7,0.3,2.4,0.9c0.6,0.6,1,1.3,1,2.2h-1.4c0-0.5-0.2-1-0.6-1.3c-0.4-0.4-0.8-0.5-1.4-0.5
		c-0.7,0-1.3,0.3-1.7,0.8c-0.4,0.5-0.6,1.3-0.6,2.3v0.3c0,1,0.2,1.7,0.6,2.2C309.4,23.7,310,24,310.8,24z"/>
	<path class="st3" d="M321,25c-0.1-0.2-0.2-0.5-0.2-0.9c-0.7,0.7-1.5,1-2.4,1c-0.8,0-1.5-0.2-2.1-0.7c-0.5-0.5-0.8-1.1-0.8-1.8
		c0-0.9,0.3-1.6,1-2.1c0.7-0.5,1.6-0.7,2.8-0.7h1.4v-0.7c0-0.5-0.2-0.9-0.5-1.2c-0.3-0.3-0.7-0.4-1.3-0.4c-0.5,0-0.9,0.1-1.3,0.4
		c-0.3,0.3-0.5,0.6-0.5,0.9h-1.5c0-0.4,0.1-0.8,0.4-1.2c0.3-0.4,0.7-0.7,1.2-0.9c0.5-0.2,1.1-0.3,1.7-0.3c1,0,1.7,0.2,2.3,0.7
		c0.6,0.5,0.8,1.2,0.9,2V23c0,0.8,0.1,1.4,0.3,1.9V25H321z M318.6,23.9c0.5,0,0.9-0.1,1.3-0.4s0.7-0.5,0.9-0.9v-1.7h-1.1
		c-1.8,0-2.7,0.5-2.7,1.6c0,0.5,0.2,0.8,0.5,1.1C317.7,23.8,318.1,23.9,318.6,23.9z"/>
</g>
<g class="st2">
	<path class="st3" d="M455.3,356v-11.4h3.7c1.2,0,2.2,0.3,2.8,0.8c0.6,0.5,0.9,1.3,0.9,2.3c0,0.5-0.2,1-0.5,1.4
		c-0.3,0.4-0.7,0.7-1.2,0.9c0.6,0.2,1.1,0.5,1.5,1c0.4,0.5,0.5,1.1,0.5,1.7c0,1-0.3,1.8-1,2.4c-0.7,0.6-1.6,0.9-2.8,0.9H455.3z
		 M456.8,349.5h2.3c0.7,0,1.2-0.2,1.6-0.5c0.4-0.3,0.6-0.8,0.6-1.3c0-0.6-0.2-1.1-0.5-1.4c-0.4-0.3-0.9-0.4-1.7-0.4h-2.2V349.5z
		 M456.8,350.7v4.1h2.5c0.7,0,1.2-0.2,1.7-0.5c0.4-0.4,0.6-0.9,0.6-1.5c0-1.4-0.7-2.1-2.2-2.1H456.8z"/>
	<path class="st3" d="M470.3,356c-0.1-0.2-0.2-0.5-0.2-0.9c-0.7,0.7-1.5,1-2.4,1c-0.8,0-1.5-0.2-2.1-0.7c-0.5-0.5-0.8-1.1-0.8-1.8
		c0-0.9,0.3-1.6,1-2.1c0.7-0.5,1.6-0.7,2.8-0.7h1.4v-0.7c0-0.5-0.2-0.9-0.5-1.2c-0.3-0.3-0.7-0.4-1.3-0.4c-0.5,0-0.9,0.1-1.3,0.4
		c-0.3,0.3-0.5,0.6-0.5,0.9H465c0-0.4,0.1-0.8,0.4-1.2c0.3-0.4,0.7-0.7,1.2-0.9c0.5-0.2,1.1-0.3,1.7-0.3c1,0,1.7,0.2,2.3,0.7
		c0.6,0.5,0.8,1.2,0.9,2v3.9c0,0.8,0.1,1.4,0.3,1.9v0.1H470.3z M467.9,354.9c0.5,0,0.9-0.1,1.3-0.4s0.7-0.5,0.9-0.9v-1.7h-1.1
		c-1.8,0-2.7,0.5-2.7,1.6c0,0.5,0.2,0.8,0.5,1.1C467,354.8,467.4,354.9,467.9,354.9z"/>
	<path class="st3" d="M478.7,353.8c0-0.4-0.1-0.7-0.4-0.9c-0.3-0.2-0.8-0.4-1.5-0.6c-0.7-0.2-1.3-0.3-1.7-0.6s-0.7-0.5-1-0.8
		c-0.2-0.3-0.3-0.7-0.3-1.1c0-0.7,0.3-1.3,0.9-1.8s1.3-0.7,2.2-0.7c1,0,1.7,0.2,2.3,0.7c0.6,0.5,0.9,1.1,0.9,1.9h-1.5
		c0-0.4-0.2-0.7-0.5-1s-0.8-0.4-1.3-0.4c-0.5,0-0.9,0.1-1.2,0.3s-0.4,0.5-0.4,0.9c0,0.3,0.1,0.6,0.4,0.8c0.3,0.2,0.8,0.3,1.5,0.5
		c0.7,0.2,1.3,0.4,1.8,0.6c0.4,0.2,0.8,0.5,1,0.8c0.2,0.3,0.3,0.7,0.3,1.2c0,0.8-0.3,1.4-0.9,1.8c-0.6,0.5-1.4,0.7-2.4,0.7
		c-0.7,0-1.3-0.1-1.8-0.4c-0.5-0.2-0.9-0.6-1.2-1c-0.3-0.4-0.4-0.9-0.4-1.4h1.4c0,0.5,0.2,0.9,0.6,1.2c0.4,0.3,0.8,0.4,1.4,0.4
		c0.5,0,1-0.1,1.3-0.3C478.5,354.4,478.7,354.1,478.7,353.8z"/>
	<path class="st3" d="M485.5,356.2c-1.1,0-2.1-0.4-2.8-1.1s-1.1-1.8-1.1-3v-0.3c0-0.8,0.2-1.6,0.5-2.2s0.8-1.2,1.3-1.5
		c0.6-0.4,1.2-0.6,1.9-0.6c1.1,0,2,0.4,2.6,1.1s0.9,1.8,0.9,3.1v0.6h-5.7c0,0.8,0.3,1.5,0.7,2c0.5,0.5,1.1,0.8,1.8,0.8
		c0.5,0,0.9-0.1,1.3-0.3c0.4-0.2,0.7-0.5,0.9-0.8l0.9,0.7C488,355.6,486.9,356.2,485.5,356.2z M485.3,348.6c-0.6,0-1.1,0.2-1.5,0.6
		c-0.4,0.4-0.6,1-0.7,1.8h4.2v-0.1c0-0.7-0.2-1.3-0.6-1.7C486.4,348.8,485.9,348.6,485.3,348.6z"/>
	<path class="st3" d="M495.4,353.8c0-0.4-0.1-0.7-0.4-0.9c-0.3-0.2-0.8-0.4-1.5-0.6c-0.7-0.2-1.3-0.3-1.7-0.6s-0.7-0.5-1-0.8
		c-0.2-0.3-0.3-0.7-0.3-1.1c0-0.7,0.3-1.3,0.9-1.8s1.3-0.7,2.2-0.7c1,0,1.7,0.2,2.3,0.7c0.6,0.5,0.9,1.1,0.9,1.9h-1.5
		c0-0.4-0.2-0.7-0.5-1s-0.8-0.4-1.3-0.4c-0.5,0-0.9,0.1-1.2,0.3s-0.4,0.5-0.4,0.9c0,0.3,0.1,0.6,0.4,0.8c0.3,0.2,0.8,0.3,1.5,0.5
		c0.7,0.2,1.3,0.4,1.8,0.6c0.4,0.2,0.8,0.5,1,0.8c0.2,0.3,0.3,0.7,0.3,1.2c0,0.8-0.3,1.4-0.9,1.8c-0.6,0.5-1.4,0.7-2.4,0.7
		c-0.7,0-1.3-0.1-1.8-0.4c-0.5-0.2-0.9-0.6-1.2-1c-0.3-0.4-0.4-0.9-0.4-1.4h1.4c0,0.5,0.2,0.9,0.6,1.2c0.4,0.3,0.8,0.4,1.4,0.4
		c0.5,0,1-0.1,1.3-0.3C495.2,354.4,495.4,354.1,495.4,353.8z"/>
	<path class="st3" d="M502.3,351.7c0-1.3,0.3-2.3,0.9-3.1c0.6-0.8,1.4-1.2,2.4-1.2c1,0,1.8,0.3,2.4,1V344h1.4v12h-1.3l-0.1-0.9
		c-0.6,0.7-1.4,1.1-2.4,1.1c-1,0-1.8-0.4-2.4-1.2s-0.9-1.8-0.9-3.1V351.7z M503.8,351.9c0,1,0.2,1.7,0.6,2.2
		c0.4,0.5,0.9,0.8,1.6,0.8c0.9,0,1.6-0.4,2-1.2v-3.9c-0.4-0.8-1.1-1.2-2-1.2c-0.7,0-1.3,0.3-1.7,0.8
		C504,350,503.8,350.8,503.8,351.9z"/>
	<path class="st3" d="M515.2,356.2c-1.1,0-2.1-0.4-2.8-1.1s-1.1-1.8-1.1-3v-0.3c0-0.8,0.2-1.6,0.5-2.2s0.8-1.2,1.3-1.5
		c0.6-0.4,1.2-0.6,1.9-0.6c1.1,0,2,0.4,2.6,1.1s0.9,1.8,0.9,3.1v0.6h-5.7c0,0.8,0.3,1.5,0.7,2c0.5,0.5,1.1,0.8,1.8,0.8
		c0.5,0,0.9-0.1,1.3-0.3c0.4-0.2,0.7-0.5,0.9-0.8l0.9,0.7C517.7,355.6,516.6,356.2,515.2,356.2z M515,348.6c-0.6,0-1.1,0.2-1.5,0.6
		c-0.4,0.4-0.6,1-0.7,1.8h4.2v-0.1c0-0.7-0.2-1.3-0.6-1.7C516.1,348.8,515.7,348.6,515,348.6z"/>
	<path class="st3" d="M523.8,351.7c0-1.3,0.3-2.3,0.9-3.1c0.6-0.8,1.4-1.2,2.4-1.2c1,0,1.8,0.3,2.4,1V344h1.4v12h-1.3l-0.1-0.9
		c-0.6,0.7-1.4,1.1-2.4,1.1c-1,0-1.8-0.4-2.4-1.2s-0.9-1.8-0.9-3.1V351.7z M525.2,351.9c0,1,0.2,1.7,0.6,2.2
		c0.4,0.5,0.9,0.8,1.6,0.8c0.9,0,1.6-0.4,2-1.2v-3.9c-0.4-0.8-1.1-1.2-2-1.2c-0.7,0-1.3,0.3-1.7,0.8
		C525.4,350,525.2,350.8,525.2,351.9z"/>
	<path class="st3" d="M538.4,356c-0.1-0.2-0.2-0.5-0.2-0.9c-0.7,0.7-1.5,1-2.4,1c-0.8,0-1.5-0.2-2.1-0.7c-0.5-0.5-0.8-1.1-0.8-1.8
		c0-0.9,0.3-1.6,1-2.1c0.7-0.5,1.6-0.7,2.8-0.7h1.4v-0.7c0-0.5-0.2-0.9-0.5-1.2c-0.3-0.3-0.7-0.4-1.3-0.4c-0.5,0-0.9,0.1-1.3,0.4
		c-0.3,0.3-0.5,0.6-0.5,0.9h-1.5c0-0.4,0.1-0.8,0.4-1.2c0.3-0.4,0.7-0.7,1.2-0.9c0.5-0.2,1.1-0.3,1.7-0.3c1,0,1.7,0.2,2.3,0.7
		c0.6,0.5,0.8,1.2,0.9,2v3.9c0,0.8,0.1,1.4,0.3,1.9v0.1H538.4z M536,354.9c0.5,0,0.9-0.1,1.3-0.4s0.7-0.5,0.9-0.9v-1.7H537
		c-1.8,0-2.7,0.5-2.7,1.6c0,0.5,0.2,0.8,0.5,1.1C535.1,354.8,535.5,354.9,536,354.9z"/>
	<path class="st3" d="M543.8,345.5v2h1.6v1.1h-1.6v5.2c0,0.3,0.1,0.6,0.2,0.8c0.1,0.2,0.4,0.3,0.7,0.3c0.2,0,0.4,0,0.7-0.1v1.2
		c-0.4,0.1-0.8,0.2-1.1,0.2c-0.6,0-1.1-0.2-1.5-0.6s-0.5-0.9-0.5-1.7v-5.2h-1.5v-1.1h1.5v-2H543.8z"/>
	<path class="st3" d="M546.6,351.7c0-0.8,0.2-1.6,0.5-2.2c0.3-0.7,0.8-1.2,1.4-1.5c0.6-0.4,1.2-0.5,2-0.5c1.2,0,2.1,0.4,2.8,1.2
		s1.1,1.9,1.1,3.2v0.1c0,0.8-0.2,1.6-0.5,2.2c-0.3,0.7-0.8,1.2-1.4,1.5s-1.3,0.5-2,0.5c-1.1,0-2.1-0.4-2.8-1.2s-1.1-1.9-1.1-3.2
		V351.7z M548,351.9c0,0.9,0.2,1.7,0.7,2.3c0.4,0.6,1,0.9,1.7,0.9c0.7,0,1.3-0.3,1.8-0.9c0.4-0.6,0.6-1.4,0.6-2.4
		c0-0.9-0.2-1.7-0.7-2.3c-0.4-0.6-1-0.9-1.8-0.9c-0.7,0-1.3,0.3-1.7,0.9S548,350.8,548,351.9z"/>
	<path class="st3" d="M561,353.8c0-0.4-0.1-0.7-0.4-0.9c-0.3-0.2-0.8-0.4-1.5-0.6c-0.7-0.2-1.3-0.3-1.7-0.6s-0.7-0.5-1-0.8
		c-0.2-0.3-0.3-0.7-0.3-1.1c0-0.7,0.3-1.3,0.9-1.8s1.3-0.7,2.2-0.7c1,0,1.7,0.2,2.3,0.7c0.6,0.5,0.9,1.1,0.9,1.9h-1.5
		c0-0.4-0.2-0.7-0.5-1s-0.8-0.4-1.3-0.4c-0.5,0-0.9,0.1-1.2,0.3s-0.4,0.5-0.4,0.9c0,0.3,0.1,0.6,0.4,0.8c0.3,0.2,0.8,0.3,1.5,0.5
		c0.7,0.2,1.3,0.4,1.8,0.6c0.4,0.2,0.8,0.5,1,0.8c0.2,0.3,0.3,0.7,0.3,1.2c0,0.8-0.3,1.4-0.9,1.8c-0.6,0.5-1.4,0.7-2.4,0.7
		c-0.7,0-1.3-0.1-1.8-0.4c-0.5-0.2-0.9-0.6-1.2-1c-0.3-0.4-0.4-0.9-0.4-1.4h1.4c0,0.5,0.2,0.9,0.6,1.2c0.4,0.3,0.8,0.4,1.4,0.4
		c0.5,0,1-0.1,1.3-0.3C560.8,354.4,561,354.1,561,353.8z"/>
</g>
<g class="st2">
	<path class="st3" d="M11.7,402.5v4.5h-1.5v-11.4h4.2c1.2,0,2.2,0.3,2.9,1s1.1,1.5,1.1,2.5c0,1.1-0.3,2-1,2.6s-1.7,0.9-3,0.9H11.7z
		 M11.7,401.3h2.7c0.8,0,1.4-0.2,1.8-0.6s0.6-0.9,0.6-1.6c0-0.7-0.2-1.2-0.6-1.6s-1-0.6-1.8-0.6h-2.8V401.3z"/>
	<path class="st3" d="M21.7,407h-1.4v-12h1.4V407z"/>
	<path class="st3" d="M29.2,407c-0.1-0.2-0.2-0.5-0.2-0.9c-0.7,0.7-1.5,1-2.4,1c-0.8,0-1.5-0.2-2.1-0.7s-0.8-1.1-0.8-1.8
		c0-0.9,0.3-1.6,1-2.1s1.6-0.7,2.8-0.7H29v-0.7c0-0.5-0.2-0.9-0.5-1.2s-0.7-0.4-1.3-0.4c-0.5,0-0.9,0.1-1.3,0.4s-0.5,0.6-0.5,0.9
		h-1.5c0-0.4,0.1-0.8,0.4-1.2s0.7-0.7,1.2-0.9s1.1-0.3,1.7-0.3c1,0,1.7,0.2,2.3,0.7s0.8,1.2,0.9,2v3.9c0,0.8,0.1,1.4,0.3,1.9v0.1
		H29.2z M26.8,405.9c0.5,0,0.9-0.1,1.3-0.4s0.7-0.5,0.9-0.9v-1.7h-1.1c-1.8,0-2.7,0.5-2.7,1.6c0,0.5,0.2,0.8,0.5,1.1
		S26.3,405.9,26.8,405.9z"/>
	<path class="st3" d="M34.6,396.5v2h1.6v1.1h-1.6v5.2c0,0.3,0.1,0.6,0.2,0.8c0.1,0.2,0.4,0.3,0.7,0.3c0.2,0,0.4,0,0.7-0.1v1.2
		c-0.4,0.1-0.8,0.2-1.1,0.2c-0.6,0-1.1-0.2-1.5-0.6s-0.5-0.9-0.5-1.7v-5.2h-1.5v-1.1h1.5v-2H34.6z"/>
	<path class="st3" d="M43.1,407c-0.1-0.2-0.2-0.5-0.2-0.9c-0.7,0.7-1.5,1-2.4,1c-0.8,0-1.5-0.2-2.1-0.7s-0.8-1.1-0.8-1.8
		c0-0.9,0.3-1.6,1-2.1s1.6-0.7,2.8-0.7h1.4v-0.7c0-0.5-0.2-0.9-0.5-1.2s-0.7-0.4-1.3-0.4c-0.5,0-0.9,0.1-1.3,0.4s-0.5,0.6-0.5,0.9
		h-1.5c0-0.4,0.1-0.8,0.4-1.2s0.7-0.7,1.2-0.9s1.1-0.3,1.7-0.3c1,0,1.7,0.2,2.3,0.7s0.8,1.2,0.9,2v3.9c0,0.8,0.1,1.4,0.3,1.9v0.1
		H43.1z M40.7,405.9c0.5,0,0.9-0.1,1.3-0.4s0.7-0.5,0.9-0.9v-1.7h-1.1c-1.8,0-2.7,0.5-2.7,1.6c0,0.5,0.2,0.8,0.5,1.1
		S40.2,405.9,40.7,405.9z"/>
	<path class="st3" d="M47.3,407v-7.3H46v-1.1h1.3v-0.9c0-0.9,0.2-1.6,0.7-2.1s1.2-0.7,2.1-0.7c0.3,0,0.7,0,1,0.1l-0.1,1.2
		c-0.2,0-0.5-0.1-0.8-0.1c-0.5,0-0.8,0.1-1.1,0.4s-0.4,0.7-0.4,1.2v0.9h1.8v1.1h-1.8v7.3H47.3z"/>
	<path class="st3" d="M51.8,402.7c0-0.8,0.2-1.6,0.5-2.2s0.8-1.2,1.4-1.5s1.2-0.5,2-0.5c1.2,0,2.1,0.4,2.8,1.2s1.1,1.9,1.1,3.2v0.1
		c0,0.8-0.2,1.6-0.5,2.2s-0.8,1.2-1.4,1.5s-1.3,0.5-2,0.5c-1.1,0-2.1-0.4-2.8-1.2s-1.1-1.9-1.1-3.2V402.7z M53.2,402.9
		c0,0.9,0.2,1.7,0.7,2.3s1,0.9,1.7,0.9c0.7,0,1.3-0.3,1.8-0.9s0.6-1.4,0.6-2.4c0-0.9-0.2-1.7-0.7-2.3s-1-0.9-1.8-0.9
		c-0.7,0-1.3,0.3-1.7,0.9S53.2,401.8,53.2,402.9z"/>
	<path class="st3" d="M65.4,399.8c-0.2,0-0.5-0.1-0.7-0.1c-0.9,0-1.6,0.4-1.9,1.2v6h-1.4v-8.5h1.4l0,1c0.5-0.8,1.1-1.1,2-1.1
		c0.3,0,0.5,0,0.6,0.1V399.8z"/>
	<path class="st3" d="M68.1,398.5l0,0.9c0.6-0.7,1.5-1.1,2.5-1.1c1.2,0,2,0.5,2.4,1.4c0.3-0.4,0.6-0.7,1.1-1s1-0.4,1.6-0.4
		c1.9,0,2.8,1,2.8,2.9v5.7h-1.4v-5.6c0-0.6-0.1-1.1-0.4-1.4s-0.7-0.4-1.4-0.4c-0.5,0-1,0.2-1.3,0.5s-0.6,0.8-0.6,1.3v5.6h-1.5v-5.5
		c0-1.2-0.6-1.8-1.8-1.8c-0.9,0-1.6,0.4-1.9,1.2v6.2h-1.4v-8.5H68.1z"/>
	<path class="st3" d="M85.9,407c-0.1-0.2-0.2-0.5-0.2-0.9c-0.7,0.7-1.5,1-2.4,1c-0.8,0-1.5-0.2-2.1-0.7s-0.8-1.1-0.8-1.8
		c0-0.9,0.3-1.6,1-2.1s1.6-0.7,2.8-0.7h1.4v-0.7c0-0.5-0.2-0.9-0.5-1.2s-0.7-0.4-1.3-0.4c-0.5,0-0.9,0.1-1.3,0.4s-0.5,0.6-0.5,0.9
		h-1.5c0-0.4,0.1-0.8,0.4-1.2s0.7-0.7,1.2-0.9s1.1-0.3,1.7-0.3c1,0,1.7,0.2,2.3,0.7s0.8,1.2,0.9,2v3.9c0,0.8,0.1,1.4,0.3,1.9v0.1
		H85.9z M83.5,405.9c0.5,0,0.9-0.1,1.3-0.4s0.7-0.5,0.9-0.9v-1.7h-1.1c-1.8,0-2.7,0.5-2.7,1.6c0,0.5,0.2,0.8,0.5,1.1
		S83.1,405.9,83.5,405.9z"/>
	<path class="st3" d="M94.3,404.8c0-0.4-0.1-0.7-0.4-0.9s-0.8-0.4-1.5-0.6s-1.3-0.3-1.7-0.6s-0.7-0.5-1-0.8s-0.3-0.7-0.3-1.1
		c0-0.7,0.3-1.3,0.9-1.8s1.3-0.7,2.2-0.7c1,0,1.7,0.2,2.3,0.7s0.9,1.1,0.9,1.9h-1.5c0-0.4-0.2-0.7-0.5-1s-0.8-0.4-1.3-0.4
		c-0.5,0-0.9,0.1-1.2,0.3s-0.4,0.5-0.4,0.9c0,0.3,0.1,0.6,0.4,0.8s0.8,0.3,1.5,0.5s1.3,0.4,1.8,0.6s0.8,0.5,1,0.8s0.3,0.7,0.3,1.2
		c0,0.8-0.3,1.4-0.9,1.8s-1.4,0.7-2.4,0.7c-0.7,0-1.3-0.1-1.8-0.4s-0.9-0.6-1.2-1s-0.4-0.9-0.4-1.4h1.4c0,0.5,0.2,0.9,0.6,1.2
		s0.8,0.4,1.4,0.4c0.5,0,1-0.1,1.3-0.3S94.3,405.1,94.3,404.8z"/>
	<path class="st3" d="M101.3,402.7c0-1.3,0.3-2.3,0.9-3.1s1.4-1.2,2.4-1.2c1,0,1.8,0.3,2.4,1V395h1.4v12h-1.3l-0.1-0.9
		c-0.6,0.7-1.4,1.1-2.4,1.1c-1,0-1.8-0.4-2.4-1.2s-0.9-1.8-0.9-3.1V402.7z M102.7,402.9c0,1,0.2,1.7,0.6,2.2s0.9,0.8,1.6,0.8
		c0.9,0,1.6-0.4,2-1.2v-3.9c-0.4-0.8-1.1-1.2-2-1.2c-0.7,0-1.3,0.3-1.7,0.8S102.7,401.8,102.7,402.9z"/>
	<path class="st3" d="M114.2,407.2c-1.1,0-2.1-0.4-2.8-1.1s-1.1-1.8-1.1-3v-0.3c0-0.8,0.2-1.6,0.5-2.2s0.8-1.2,1.3-1.5
		s1.2-0.6,1.9-0.6c1.1,0,2,0.4,2.6,1.1s0.9,1.8,0.9,3.1v0.6h-5.7c0,0.8,0.3,1.5,0.7,2s1.1,0.8,1.8,0.8c0.5,0,0.9-0.1,1.3-0.3
		s0.7-0.5,0.9-0.8l0.9,0.7C116.6,406.6,115.6,407.2,114.2,407.2z M114,399.6c-0.6,0-1.1,0.2-1.5,0.6s-0.6,1-0.7,1.8h4.2v-0.1
		c0-0.7-0.2-1.3-0.6-1.7S114.6,399.6,114,399.6z"/>
	<path class="st3" d="M122.7,402.7c0-1.3,0.3-2.3,0.9-3.1s1.4-1.2,2.4-1.2c1,0,1.8,0.3,2.4,1V395h1.4v12h-1.3l-0.1-0.9
		c-0.6,0.7-1.4,1.1-2.4,1.1c-1,0-1.8-0.4-2.4-1.2s-0.9-1.8-0.9-3.1V402.7z M124.2,402.9c0,1,0.2,1.7,0.6,2.2s0.9,0.8,1.6,0.8
		c0.9,0,1.6-0.4,2-1.2v-3.9c-0.4-0.8-1.1-1.2-2-1.2c-0.7,0-1.3,0.3-1.7,0.8S124.2,401.8,124.2,402.9z"/>
	<path class="st3" d="M135.6,407.2c-1.1,0-2.1-0.4-2.8-1.1s-1.1-1.8-1.1-3v-0.3c0-0.8,0.2-1.6,0.5-2.2s0.8-1.2,1.3-1.5
		s1.2-0.6,1.9-0.6c1.1,0,2,0.4,2.6,1.1s0.9,1.8,0.9,3.1v0.6h-5.7c0,0.8,0.3,1.5,0.7,2s1.1,0.8,1.8,0.8c0.5,0,0.9-0.1,1.3-0.3
		s0.7-0.5,0.9-0.8l0.9,0.7C138.1,406.6,137,407.2,135.6,407.2z M135.4,399.6c-0.6,0-1.1,0.2-1.5,0.6s-0.6,1-0.7,1.8h4.2v-0.1
		c0-0.7-0.2-1.3-0.6-1.7S136,399.6,135.4,399.6z"/>
	<path class="st3" d="M145.5,404.8c0-0.4-0.1-0.7-0.4-0.9s-0.8-0.4-1.5-0.6s-1.3-0.3-1.7-0.6s-0.7-0.5-1-0.8s-0.3-0.7-0.3-1.1
		c0-0.7,0.3-1.3,0.9-1.8s1.3-0.7,2.2-0.7c1,0,1.7,0.2,2.3,0.7s0.9,1.1,0.9,1.9h-1.5c0-0.4-0.2-0.7-0.5-1s-0.8-0.4-1.3-0.4
		c-0.5,0-0.9,0.1-1.2,0.3s-0.4,0.5-0.4,0.9c0,0.3,0.1,0.6,0.4,0.8s0.8,0.3,1.5,0.5s1.3,0.4,1.8,0.6s0.8,0.5,1,0.8s0.3,0.7,0.3,1.2
		c0,0.8-0.3,1.4-0.9,1.8s-1.4,0.7-2.4,0.7c-0.7,0-1.3-0.1-1.8-0.4s-0.9-0.6-1.2-1s-0.4-0.9-0.4-1.4h1.4c0,0.5,0.2,0.9,0.6,1.2
		s0.8,0.4,1.4,0.4c0.5,0,1-0.1,1.3-0.3S145.5,405.1,145.5,404.8z"/>
	<path class="st3" d="M154.1,407c-0.1-0.2-0.2-0.5-0.2-0.9c-0.7,0.7-1.5,1-2.4,1c-0.8,0-1.5-0.2-2.1-0.7s-0.8-1.1-0.8-1.8
		c0-0.9,0.3-1.6,1-2.1s1.6-0.7,2.8-0.7h1.4v-0.7c0-0.5-0.2-0.9-0.5-1.2s-0.7-0.4-1.3-0.4c-0.5,0-0.9,0.1-1.3,0.4s-0.5,0.6-0.5,0.9
		h-1.5c0-0.4,0.1-0.8,0.4-1.2s0.7-0.7,1.2-0.9s1.1-0.3,1.7-0.3c1,0,1.7,0.2,2.3,0.7s0.8,1.2,0.9,2v3.9c0,0.8,0.1,1.4,0.3,1.9v0.1
		H154.1z M151.7,405.9c0.5,0,0.9-0.1,1.3-0.4s0.7-0.5,0.9-0.9v-1.7h-1.1c-1.8,0-2.7,0.5-2.7,1.6c0,0.5,0.2,0.8,0.5,1.1
		S151.2,405.9,151.7,405.9z"/>
	<path class="st3" d="M161.6,399.8c-0.2,0-0.5-0.1-0.7-0.1c-0.9,0-1.6,0.4-1.9,1.2v6h-1.4v-8.5h1.4l0,1c0.5-0.8,1.1-1.1,2-1.1
		c0.3,0,0.5,0,0.6,0.1V399.8z"/>
	<path class="st3" d="M167,399.8c-0.2,0-0.5-0.1-0.7-0.1c-0.9,0-1.6,0.4-1.9,1.2v6H163v-8.5h1.4l0,1c0.5-0.8,1.1-1.1,2-1.1
		c0.3,0,0.5,0,0.6,0.1V399.8z"/>
	<path class="st3" d="M167.8,402.7c0-0.8,0.2-1.6,0.5-2.2s0.8-1.2,1.4-1.5s1.2-0.5,2-0.5c1.2,0,2.1,0.4,2.8,1.2s1.1,1.9,1.1,3.2v0.1
		c0,0.8-0.2,1.6-0.5,2.2s-0.8,1.2-1.4,1.5s-1.3,0.5-2,0.5c-1.1,0-2.1-0.4-2.8-1.2s-1.1-1.9-1.1-3.2V402.7z M169.3,402.9
		c0,0.9,0.2,1.7,0.7,2.3s1,0.9,1.7,0.9c0.7,0,1.3-0.3,1.8-0.9s0.6-1.4,0.6-2.4c0-0.9-0.2-1.7-0.7-2.3s-1-0.9-1.8-0.9
		c-0.7,0-1.3,0.3-1.7,0.9S169.3,401.8,169.3,402.9z"/>
	<path class="st3" d="M178.9,407h-1.4v-12h1.4V407z"/>
	<path class="st3" d="M182.8,407h-1.4v-12h1.4V407z"/>
	<path class="st3" d="M184.7,402.7c0-0.8,0.2-1.6,0.5-2.2s0.8-1.2,1.4-1.5s1.2-0.5,2-0.5c1.2,0,2.1,0.4,2.8,1.2s1.1,1.9,1.1,3.2v0.1
		c0,0.8-0.2,1.6-0.5,2.2s-0.8,1.2-1.4,1.5s-1.3,0.5-2,0.5c-1.1,0-2.1-0.4-2.8-1.2s-1.1-1.9-1.1-3.2V402.7z M186.2,402.9
		c0,0.9,0.2,1.7,0.7,2.3s1,0.9,1.7,0.9c0.7,0,1.3-0.3,1.8-0.9s0.6-1.4,0.6-2.4c0-0.9-0.2-1.7-0.7-2.3s-1-0.9-1.8-0.9
		c-0.7,0-1.3,0.3-1.7,0.9S186.2,401.8,186.2,402.9z"/>
</g>
<g class="st2">
	<path class="st3" d="M35.9,426.7c0-1.3,0.3-2.3,0.9-3.1c0.6-0.8,1.4-1.2,2.4-1.2c1,0,1.8,0.3,2.4,1V419H43v12h-1.3l-0.1-0.9
		c-0.6,0.7-1.4,1.1-2.4,1.1c-1,0-1.8-0.4-2.4-1.2s-0.9-1.8-0.9-3.1V426.7z M37.3,426.9c0,1,0.2,1.7,0.6,2.2c0.4,0.5,0.9,0.8,1.6,0.8
		c0.9,0,1.6-0.4,2-1.2v-3.9c-0.4-0.8-1.1-1.2-2-1.2c-0.7,0-1.3,0.3-1.7,0.8C37.5,425,37.3,425.8,37.3,426.9z"/>
	<path class="st3" d="M48.8,431.2c-1.1,0-2.1-0.4-2.8-1.1s-1.1-1.8-1.1-3v-0.3c0-0.8,0.2-1.6,0.5-2.2s0.8-1.2,1.3-1.5
		c0.6-0.4,1.2-0.6,1.9-0.6c1.1,0,2,0.4,2.6,1.1s0.9,1.8,0.9,3.1v0.6h-5.7c0,0.8,0.3,1.5,0.7,2c0.5,0.5,1.1,0.8,1.8,0.8
		c0.5,0,0.9-0.1,1.3-0.3c0.4-0.2,0.7-0.5,0.9-0.8l0.9,0.7C51.2,430.6,50.2,431.2,48.8,431.2z M48.6,423.6c-0.6,0-1.1,0.2-1.5,0.6
		c-0.4,0.4-0.6,1-0.7,1.8h4.2v-0.1c0-0.7-0.2-1.3-0.6-1.7C49.7,423.8,49.2,423.6,48.6,423.6z"/>
	<path class="st3" d="M59.3,431h-1.4v-12h1.4V431z"/>
	<path class="st3" d="M66.8,431c-0.1-0.2-0.2-0.5-0.2-0.9c-0.7,0.7-1.5,1-2.4,1c-0.8,0-1.5-0.2-2.1-0.7c-0.5-0.5-0.8-1.1-0.8-1.8
		c0-0.9,0.3-1.6,1-2.1c0.7-0.5,1.6-0.7,2.8-0.7h1.4v-0.7c0-0.5-0.2-0.9-0.5-1.2c-0.3-0.3-0.7-0.4-1.3-0.4c-0.5,0-0.9,0.1-1.3,0.4
		c-0.3,0.3-0.5,0.6-0.5,0.9h-1.5c0-0.4,0.1-0.8,0.4-1.2c0.3-0.4,0.7-0.7,1.2-0.9c0.5-0.2,1.1-0.3,1.7-0.3c1,0,1.7,0.2,2.3,0.7
		c0.6,0.5,0.8,1.2,0.9,2v3.9c0,0.8,0.1,1.4,0.3,1.9v0.1H66.8z M64.4,429.9c0.5,0,0.9-0.1,1.3-0.4s0.7-0.5,0.9-0.9v-1.7h-1.1
		c-1.8,0-2.7,0.5-2.7,1.6c0,0.5,0.2,0.8,0.5,1.1C63.5,429.8,63.9,429.9,64.4,429.9z"/>
	<path class="st3" d="M75.2,428.8c0-0.4-0.1-0.7-0.4-0.9c-0.3-0.2-0.8-0.4-1.5-0.6c-0.7-0.2-1.3-0.3-1.7-0.6s-0.7-0.5-1-0.8
		c-0.2-0.3-0.3-0.7-0.3-1.1c0-0.7,0.3-1.3,0.9-1.8s1.3-0.7,2.2-0.7c1,0,1.7,0.2,2.3,0.7c0.6,0.5,0.9,1.1,0.9,1.9h-1.5
		c0-0.4-0.2-0.7-0.5-1s-0.8-0.4-1.3-0.4c-0.5,0-0.9,0.1-1.2,0.3s-0.4,0.5-0.4,0.9c0,0.3,0.1,0.6,0.4,0.8c0.3,0.2,0.8,0.3,1.5,0.5
		c0.7,0.2,1.3,0.4,1.8,0.6c0.4,0.2,0.8,0.5,1,0.8c0.2,0.3,0.3,0.7,0.3,1.2c0,0.8-0.3,1.4-0.9,1.8c-0.6,0.5-1.4,0.7-2.4,0.7
		c-0.7,0-1.3-0.1-1.8-0.4c-0.5-0.2-0.9-0.6-1.2-1c-0.3-0.4-0.4-0.9-0.4-1.4h1.4c0,0.5,0.2,0.9,0.6,1.2c0.4,0.3,0.8,0.4,1.4,0.4
		c0.5,0,1-0.1,1.3-0.3C75,429.4,75.2,429.1,75.2,428.8z"/>
	<path class="st3" d="M87.7,431c-0.1-0.2-0.2-0.5-0.2-0.9c-0.7,0.7-1.5,1-2.4,1c-0.8,0-1.5-0.2-2.1-0.7c-0.5-0.5-0.8-1.1-0.8-1.8
		c0-0.9,0.3-1.6,1-2.1c0.7-0.5,1.6-0.7,2.8-0.7h1.4v-0.7c0-0.5-0.2-0.9-0.5-1.2c-0.3-0.3-0.7-0.4-1.3-0.4c-0.5,0-0.9,0.1-1.3,0.4
		c-0.3,0.3-0.5,0.6-0.5,0.9h-1.5c0-0.4,0.1-0.8,0.4-1.2c0.3-0.4,0.7-0.7,1.2-0.9c0.5-0.2,1.1-0.3,1.7-0.3c1,0,1.7,0.2,2.3,0.7
		c0.6,0.5,0.8,1.2,0.9,2v3.9c0,0.8,0.1,1.4,0.3,1.9v0.1H87.7z M85.3,429.9c0.5,0,0.9-0.1,1.3-0.4s0.7-0.5,0.9-0.9v-1.7h-1.1
		c-1.8,0-2.7,0.5-2.7,1.6c0,0.5,0.2,0.8,0.5,1.1C84.5,429.8,84.8,429.9,85.3,429.9z"/>
	<path class="st3" d="M98.3,426.9c0,1.3-0.3,2.3-0.9,3.1c-0.6,0.8-1.4,1.2-2.4,1.2c-1,0-1.8-0.3-2.4-1v4.1h-1.4v-11.7h1.3l0.1,0.9
		c0.6-0.7,1.4-1.1,2.5-1.1c1,0,1.8,0.4,2.4,1.1c0.6,0.8,0.9,1.8,0.9,3.2V426.9z M96.9,426.7c0-1-0.2-1.7-0.6-2.3s-1-0.8-1.7-0.8
		c-0.9,0-1.5,0.4-2,1.2v4c0.4,0.8,1.1,1.2,2,1.2c0.7,0,1.2-0.3,1.7-0.8C96.7,428.6,96.9,427.8,96.9,426.7z"/>
	<path class="st3" d="M101.7,431h-1.4v-12h1.4V431z"/>
	<path class="st3" d="M104.1,420.3c0-0.2,0.1-0.4,0.2-0.6c0.1-0.2,0.4-0.2,0.6-0.2s0.5,0.1,0.6,0.2c0.1,0.2,0.2,0.4,0.2,0.6
		s-0.1,0.4-0.2,0.6c-0.1,0.2-0.4,0.2-0.6,0.2s-0.5-0.1-0.6-0.2C104.1,420.7,104.1,420.5,104.1,420.3z M105.6,431h-1.4v-8.5h1.4V431z
		"/>
	<path class="st3" d="M111.3,430c0.5,0,1-0.2,1.4-0.5c0.4-0.3,0.6-0.7,0.6-1.2h1.4c0,0.5-0.2,0.9-0.5,1.4c-0.3,0.4-0.7,0.8-1.2,1
		c-0.5,0.3-1.1,0.4-1.6,0.4c-1.2,0-2.1-0.4-2.7-1.2s-1-1.8-1-3.2v-0.2c0-0.8,0.2-1.6,0.5-2.2c0.3-0.6,0.7-1.1,1.3-1.5
		c0.6-0.4,1.2-0.5,2-0.5c0.9,0,1.7,0.3,2.4,0.9c0.6,0.6,1,1.3,1,2.2h-1.4c0-0.5-0.2-1-0.6-1.3c-0.4-0.4-0.8-0.5-1.4-0.5
		c-0.7,0-1.3,0.3-1.7,0.8c-0.4,0.5-0.6,1.3-0.6,2.3v0.3c0,1,0.2,1.7,0.6,2.2C110,429.7,110.6,430,111.3,430z"/>
	<path class="st3" d="M121.5,431c-0.1-0.2-0.2-0.5-0.2-0.9c-0.7,0.7-1.5,1-2.4,1c-0.8,0-1.5-0.2-2.1-0.7c-0.5-0.5-0.8-1.1-0.8-1.8
		c0-0.9,0.3-1.6,1-2.1c0.7-0.5,1.6-0.7,2.8-0.7h1.4v-0.7c0-0.5-0.2-0.9-0.5-1.2c-0.3-0.3-0.7-0.4-1.3-0.4c-0.5,0-0.9,0.1-1.3,0.4
		c-0.3,0.3-0.5,0.6-0.5,0.9h-1.5c0-0.4,0.1-0.8,0.4-1.2c0.3-0.4,0.7-0.7,1.2-0.9c0.5-0.2,1.1-0.3,1.7-0.3c1,0,1.7,0.2,2.3,0.7
		c0.6,0.5,0.8,1.2,0.9,2v3.9c0,0.8,0.1,1.4,0.3,1.9v0.1H121.5z M119.1,429.9c0.5,0,0.9-0.1,1.3-0.4s0.7-0.5,0.9-0.9v-1.7h-1.1
		c-1.8,0-2.7,0.5-2.7,1.6c0,0.5,0.2,0.8,0.5,1.1C118.3,429.8,118.7,429.9,119.1,429.9z"/>
	<path class="st3" d="M128.4,430c0.5,0,1-0.2,1.4-0.5c0.4-0.3,0.6-0.7,0.6-1.2h1.4c0,0.5-0.2,0.9-0.5,1.4c-0.3,0.4-0.7,0.8-1.2,1
		c-0.5,0.3-1.1,0.4-1.6,0.4c-1.2,0-2.1-0.4-2.7-1.2s-1-1.8-1-3.2v-0.2c0-0.8,0.2-1.6,0.5-2.2c0.3-0.6,0.7-1.1,1.3-1.5
		c0.6-0.4,1.2-0.5,2-0.5c0.9,0,1.7,0.3,2.4,0.9c0.6,0.6,1,1.3,1,2.2h-1.4c0-0.5-0.2-1-0.6-1.3c-0.4-0.4-0.8-0.5-1.4-0.5
		c-0.7,0-1.3,0.3-1.7,0.8c-0.4,0.5-0.6,1.3-0.6,2.3v0.3c0,1,0.2,1.7,0.6,2.2C127.1,429.7,127.7,430,128.4,430z"/>
	<path class="st3" d="M133.4,420.3c0-0.2,0.1-0.4,0.2-0.6c0.1-0.2,0.4-0.2,0.6-0.2s0.5,0.1,0.6,0.2c0.1,0.2,0.2,0.4,0.2,0.6
		s-0.1,0.4-0.2,0.6c-0.1,0.2-0.4,0.2-0.6,0.2s-0.5-0.1-0.6-0.2C133.5,420.7,133.4,420.5,133.4,420.3z M135,431h-1.4v-8.5h1.4V431z"
		/>
	<path class="st3" d="M136.9,426.7c0-0.8,0.2-1.6,0.5-2.2c0.3-0.7,0.8-1.2,1.4-1.5c0.6-0.4,1.2-0.5,2-0.5c1.2,0,2.1,0.4,2.8,1.2
		s1.1,1.9,1.1,3.2v0.1c0,0.8-0.2,1.6-0.5,2.2c-0.3,0.7-0.8,1.2-1.4,1.5s-1.3,0.5-2,0.5c-1.1,0-2.1-0.4-2.8-1.2s-1.1-1.9-1.1-3.2
		V426.7z M138.3,426.9c0,0.9,0.2,1.7,0.7,2.3c0.4,0.6,1,0.9,1.7,0.9c0.7,0,1.3-0.3,1.8-0.9c0.4-0.6,0.6-1.4,0.6-2.4
		c0-0.9-0.2-1.7-0.7-2.3c-0.4-0.6-1-0.9-1.8-0.9c-0.7,0-1.3,0.3-1.7,0.9S138.3,425.8,138.3,426.9z"/>
	<path class="st3" d="M147.8,422.5l0,1.1c0.6-0.8,1.5-1.2,2.5-1.2c1.8,0,2.7,1,2.7,3v5.6h-1.4v-5.6c0-0.6-0.1-1.1-0.4-1.4
		s-0.7-0.4-1.3-0.4c-0.5,0-0.9,0.1-1.2,0.4c-0.4,0.2-0.6,0.6-0.8,1v6h-1.4v-8.5H147.8z"/>
	<path class="st3" d="M158.7,431.2c-1.1,0-2.1-0.4-2.8-1.1s-1.1-1.8-1.1-3v-0.3c0-0.8,0.2-1.6,0.5-2.2s0.8-1.2,1.3-1.5
		c0.6-0.4,1.2-0.6,1.9-0.6c1.1,0,2,0.4,2.6,1.1s0.9,1.8,0.9,3.1v0.6h-5.7c0,0.8,0.3,1.5,0.7,2c0.5,0.5,1.1,0.8,1.8,0.8
		c0.5,0,0.9-0.1,1.3-0.3c0.4-0.2,0.7-0.5,0.9-0.8l0.9,0.7C161.2,430.6,160.2,431.2,158.7,431.2z M158.6,423.6
		c-0.6,0-1.1,0.2-1.5,0.6c-0.4,0.4-0.6,1-0.7,1.8h4.2v-0.1c0-0.7-0.2-1.3-0.6-1.7C159.6,423.8,159.2,423.6,158.6,423.6z"/>
	<path class="st3" d="M168.6,428.8c0-0.4-0.1-0.7-0.4-0.9c-0.3-0.2-0.8-0.4-1.5-0.6c-0.7-0.2-1.3-0.3-1.7-0.6s-0.7-0.5-1-0.8
		c-0.2-0.3-0.3-0.7-0.3-1.1c0-0.7,0.3-1.3,0.9-1.8s1.3-0.7,2.2-0.7c1,0,1.7,0.2,2.3,0.7c0.6,0.5,0.9,1.1,0.9,1.9h-1.5
		c0-0.4-0.2-0.7-0.5-1s-0.8-0.4-1.3-0.4c-0.5,0-0.9,0.1-1.2,0.3s-0.4,0.5-0.4,0.9c0,0.3,0.1,0.6,0.4,0.8c0.3,0.2,0.8,0.3,1.5,0.5
		c0.7,0.2,1.3,0.4,1.8,0.6c0.4,0.2,0.8,0.5,1,0.8c0.2,0.3,0.3,0.7,0.3,1.2c0,0.8-0.3,1.4-0.9,1.8c-0.6,0.5-1.4,0.7-2.4,0.7
		c-0.7,0-1.3-0.1-1.8-0.4c-0.5-0.2-0.9-0.6-1.2-1c-0.3-0.4-0.4-0.9-0.4-1.4h1.4c0,0.5,0.2,0.9,0.6,1.2c0.4,0.3,0.8,0.4,1.4,0.4
		c0.5,0,1-0.1,1.3-0.3C168.5,429.4,168.6,429.1,168.6,428.8z"/>
</g>
<g class="st2">
	<path class="st3" d="M37.8,325h-1.5v-11.4h1.5V325z"/>
	<path class="st3" d="M41.7,316.5l0,1.1c0.6-0.8,1.5-1.2,2.5-1.2c1.8,0,2.7,1,2.7,3v5.6h-1.4v-5.6c0-0.6-0.1-1.1-0.4-1.4
		s-0.7-0.4-1.3-0.4c-0.5,0-0.9,0.1-1.2,0.4c-0.4,0.2-0.6,0.6-0.8,1v6h-1.4v-8.5H41.7z"/>
	<path class="st3" d="M51.1,314.5v2h1.6v1.1h-1.6v5.2c0,0.3,0.1,0.6,0.2,0.8c0.1,0.2,0.4,0.3,0.7,0.3c0.2,0,0.4,0,0.7-0.1v1.2
		c-0.4,0.1-0.8,0.2-1.1,0.2c-0.6,0-1.1-0.2-1.5-0.6s-0.5-0.9-0.5-1.7v-5.2h-1.5v-1.1h1.5v-2H51.1z"/>
	<path class="st3" d="M57.9,325.2c-1.1,0-2.1-0.4-2.8-1.1s-1.1-1.8-1.1-3v-0.3c0-0.8,0.2-1.6,0.5-2.2s0.8-1.2,1.3-1.5
		c0.6-0.4,1.2-0.6,1.9-0.6c1.1,0,2,0.4,2.6,1.1s0.9,1.8,0.9,3.1v0.6h-5.7c0,0.8,0.3,1.5,0.7,2c0.5,0.5,1.1,0.8,1.8,0.8
		c0.5,0,0.9-0.1,1.3-0.3c0.4-0.2,0.7-0.5,0.9-0.8l0.9,0.7C60.4,324.6,59.3,325.2,57.9,325.2z M57.7,317.6c-0.6,0-1.1,0.2-1.5,0.6
		c-0.4,0.4-0.6,1-0.7,1.8h4.2v-0.1c0-0.7-0.2-1.3-0.6-1.7C58.8,317.8,58.3,317.6,57.7,317.6z"/>
	<path class="st3" d="M67,317.8c-0.2,0-0.5-0.1-0.7-0.1c-0.9,0-1.6,0.4-1.9,1.2v6h-1.4v-8.5h1.4l0,1c0.5-0.8,1.1-1.1,2-1.1
		c0.3,0,0.5,0,0.6,0.1V317.8z"/>
	<path class="st3" d="M69.1,325v-7.3h-1.3v-1.1h1.3v-0.9c0-0.9,0.2-1.6,0.7-2.1s1.2-0.7,2.1-0.7c0.3,0,0.7,0,1,0.1l-0.1,1.2
		c-0.2,0-0.5-0.1-0.8-0.1c-0.5,0-0.8,0.1-1.1,0.4c-0.3,0.3-0.4,0.7-0.4,1.2v0.9h1.8v1.1h-1.8v7.3H69.1z"/>
	<path class="st3" d="M79.2,325c-0.1-0.2-0.2-0.5-0.2-0.9c-0.7,0.7-1.5,1-2.4,1c-0.8,0-1.5-0.2-2.1-0.7c-0.5-0.5-0.8-1.1-0.8-1.8
		c0-0.9,0.3-1.6,1-2.1c0.7-0.5,1.6-0.7,2.8-0.7h1.4v-0.7c0-0.5-0.2-0.9-0.5-1.2c-0.3-0.3-0.7-0.4-1.3-0.4c-0.5,0-0.9,0.1-1.3,0.4
		c-0.3,0.3-0.5,0.6-0.5,0.9h-1.5c0-0.4,0.1-0.8,0.4-1.2c0.3-0.4,0.7-0.7,1.2-0.9c0.5-0.2,1.1-0.3,1.7-0.3c1,0,1.7,0.2,2.3,0.7
		c0.6,0.5,0.8,1.2,0.9,2v3.9c0,0.8,0.1,1.4,0.3,1.9v0.1H79.2z M76.8,323.9c0.5,0,0.9-0.1,1.3-0.4s0.7-0.5,0.9-0.9v-1.7h-1.1
		c-1.8,0-2.7,0.5-2.7,1.6c0,0.5,0.2,0.8,0.5,1.1C75.9,323.8,76.3,323.9,76.8,323.9z"/>
	<path class="st3" d="M84,323.8H89v1.2h-6.7v-1.1l4.7-6.2h-4.6v-1.2h6.4v1L84,323.8z"/>
	<path class="st3" d="M94.2,320.7c0-1.3,0.3-2.3,0.9-3.1c0.6-0.8,1.4-1.2,2.4-1.2c1,0,1.8,0.3,2.4,1V313h1.4v12H100l-0.1-0.9
		c-0.6,0.7-1.4,1.1-2.4,1.1c-1,0-1.8-0.4-2.4-1.2s-0.9-1.8-0.9-3.1V320.7z M95.6,320.9c0,1,0.2,1.7,0.6,2.2c0.4,0.5,0.9,0.8,1.6,0.8
		c0.9,0,1.6-0.4,2-1.2v-3.9c-0.4-0.8-1.1-1.2-2-1.2c-0.7,0-1.3,0.3-1.7,0.8C95.8,319,95.6,319.8,95.6,320.9z"/>
	<path class="st3" d="M107.1,325.2c-1.1,0-2.1-0.4-2.8-1.1s-1.1-1.8-1.1-3v-0.3c0-0.8,0.2-1.6,0.5-2.2s0.8-1.2,1.3-1.5
		c0.6-0.4,1.2-0.6,1.9-0.6c1.1,0,2,0.4,2.6,1.1s0.9,1.8,0.9,3.1v0.6h-5.7c0,0.8,0.3,1.5,0.7,2c0.5,0.5,1.1,0.8,1.8,0.8
		c0.5,0,0.9-0.1,1.3-0.3c0.4-0.2,0.7-0.5,0.9-0.8l0.9,0.7C109.6,324.6,108.5,325.2,107.1,325.2z M106.9,317.6
		c-0.6,0-1.1,0.2-1.5,0.6c-0.4,0.4-0.6,1-0.7,1.8h4.2v-0.1c0-0.7-0.2-1.3-0.6-1.7C108,317.8,107.5,317.6,106.9,317.6z"/>
</g>
<g class="st2">
	<path class="st3" d="M28.3,349c-0.1-0.2-0.2-0.5-0.2-0.9c-0.7,0.7-1.5,1-2.4,1c-0.8,0-1.5-0.2-2.1-0.7c-0.5-0.5-0.8-1.1-0.8-1.8
		c0-0.9,0.3-1.6,1-2.1c0.7-0.5,1.6-0.7,2.8-0.7h1.4v-0.7c0-0.5-0.2-0.9-0.5-1.2c-0.3-0.3-0.7-0.4-1.3-0.4c-0.5,0-0.9,0.1-1.3,0.4
		c-0.3,0.3-0.5,0.6-0.5,0.9H23c0-0.4,0.1-0.8,0.4-1.2c0.3-0.4,0.7-0.7,1.2-0.9c0.5-0.2,1.1-0.3,1.7-0.3c1,0,1.7,0.2,2.3,0.7
		c0.6,0.5,0.8,1.2,0.9,2v3.9c0,0.8,0.1,1.4,0.3,1.9v0.1H28.3z M25.9,347.9c0.5,0,0.9-0.1,1.3-0.4s0.7-0.5,0.9-0.9v-1.7h-1.1
		c-1.8,0-2.7,0.5-2.7,1.6c0,0.5,0.2,0.8,0.5,1.1C25,347.8,25.4,347.9,25.9,347.9z"/>
	<path class="st3" d="M31.4,344.7c0-1.3,0.3-2.3,0.9-3.1c0.6-0.8,1.4-1.2,2.4-1.2c1,0,1.8,0.3,2.4,1V337h1.4v12h-1.3l-0.1-0.9
		c-0.6,0.7-1.4,1.1-2.4,1.1c-1,0-1.8-0.4-2.4-1.2s-0.9-1.8-0.9-3.1V344.7z M32.9,344.9c0,1,0.2,1.7,0.6,2.2c0.4,0.5,0.9,0.8,1.6,0.8
		c0.9,0,1.6-0.4,2-1.2v-3.9c-0.4-0.8-1.1-1.2-2-1.2c-0.7,0-1.3,0.3-1.7,0.8C33.1,343,32.9,343.8,32.9,344.9z"/>
	<path class="st3" d="M42.2,340.5l0,0.9c0.6-0.7,1.5-1.1,2.5-1.1c1.2,0,2,0.5,2.4,1.4c0.3-0.4,0.6-0.7,1.1-1c0.5-0.2,1-0.4,1.6-0.4
		c1.9,0,2.8,1,2.8,2.9v5.7h-1.4v-5.6c0-0.6-0.1-1.1-0.4-1.4c-0.3-0.3-0.7-0.4-1.4-0.4c-0.5,0-1,0.2-1.3,0.5
		c-0.4,0.3-0.6,0.8-0.6,1.3v5.6H46v-5.5c0-1.2-0.6-1.8-1.8-1.8c-0.9,0-1.6,0.4-1.9,1.2v6.2h-1.4v-8.5H42.2z"/>
	<path class="st3" d="M54.8,338.3c0-0.2,0.1-0.4,0.2-0.6c0.1-0.2,0.4-0.2,0.6-0.2s0.5,0.1,0.6,0.2c0.1,0.2,0.2,0.4,0.2,0.6
		s-0.1,0.4-0.2,0.6c-0.1,0.2-0.4,0.2-0.6,0.2s-0.5-0.1-0.6-0.2C54.9,338.7,54.8,338.5,54.8,338.3z M56.4,349H55v-8.5h1.4V349z"/>
	<path class="st3" d="M60.1,340.5l0,1.1c0.6-0.8,1.5-1.2,2.5-1.2c1.8,0,2.7,1,2.7,3v5.6h-1.4v-5.6c0-0.6-0.1-1.1-0.4-1.4
		s-0.7-0.4-1.3-0.4c-0.5,0-0.9,0.1-1.2,0.4c-0.4,0.2-0.6,0.6-0.8,1v6h-1.4v-8.5H60.1z"/>
	<path class="st3" d="M67.5,338.3c0-0.2,0.1-0.4,0.2-0.6c0.1-0.2,0.4-0.2,0.6-0.2s0.5,0.1,0.6,0.2c0.1,0.2,0.2,0.4,0.2,0.6
		s-0.1,0.4-0.2,0.6c-0.1,0.2-0.4,0.2-0.6,0.2s-0.5-0.1-0.6-0.2C67.6,338.7,67.5,338.5,67.5,338.3z M69.1,349h-1.4v-8.5h1.4V349z"/>
	<path class="st3" d="M76.3,346.8c0-0.4-0.1-0.7-0.4-0.9c-0.3-0.2-0.8-0.4-1.5-0.6c-0.7-0.2-1.3-0.3-1.7-0.6s-0.7-0.5-1-0.8
		c-0.2-0.3-0.3-0.7-0.3-1.1c0-0.7,0.3-1.3,0.9-1.8s1.3-0.7,2.2-0.7c1,0,1.7,0.2,2.3,0.7c0.6,0.5,0.9,1.1,0.9,1.9h-1.5
		c0-0.4-0.2-0.7-0.5-1s-0.8-0.4-1.3-0.4c-0.5,0-0.9,0.1-1.2,0.3s-0.4,0.5-0.4,0.9c0,0.3,0.1,0.6,0.4,0.8c0.3,0.2,0.8,0.3,1.5,0.5
		c0.7,0.2,1.3,0.4,1.8,0.6c0.4,0.2,0.8,0.5,1,0.8c0.2,0.3,0.3,0.7,0.3,1.2c0,0.8-0.3,1.4-0.9,1.8c-0.6,0.5-1.4,0.7-2.4,0.7
		c-0.7,0-1.3-0.1-1.8-0.4c-0.5-0.2-0.9-0.6-1.2-1c-0.3-0.4-0.4-0.9-0.4-1.4h1.4c0,0.5,0.2,0.9,0.6,1.2c0.4,0.3,0.8,0.4,1.4,0.4
		c0.5,0,1-0.1,1.3-0.3C76.2,347.4,76.3,347.1,76.3,346.8z"/>
	<path class="st3" d="M81.6,338.5v2h1.6v1.1h-1.6v5.2c0,0.3,0.1,0.6,0.2,0.8c0.1,0.2,0.4,0.3,0.7,0.3c0.2,0,0.4,0,0.7-0.1v1.2
		c-0.4,0.1-0.8,0.2-1.1,0.2c-0.6,0-1.1-0.2-1.5-0.6s-0.5-0.9-0.5-1.7v-5.2h-1.5v-1.1h1.5v-2H81.6z"/>
	<path class="st3" d="M89,341.8c-0.2,0-0.5-0.1-0.7-0.1c-0.9,0-1.6,0.4-1.9,1.2v6h-1.4v-8.5h1.4l0,1c0.5-0.8,1.1-1.1,2-1.1
		c0.3,0,0.5,0,0.6,0.1V341.8z"/>
	<path class="st3" d="M95.2,349c-0.1-0.2-0.2-0.5-0.2-0.9c-0.7,0.7-1.5,1-2.4,1c-0.8,0-1.5-0.2-2.1-0.7c-0.5-0.5-0.8-1.1-0.8-1.8
		c0-0.9,0.3-1.6,1-2.1c0.7-0.5,1.6-0.7,2.8-0.7H95v-0.7c0-0.5-0.2-0.9-0.5-1.2c-0.3-0.3-0.7-0.4-1.3-0.4c-0.5,0-0.9,0.1-1.3,0.4
		c-0.3,0.3-0.5,0.6-0.5,0.9h-1.5c0-0.4,0.1-0.8,0.4-1.2c0.3-0.4,0.7-0.7,1.2-0.9c0.5-0.2,1.1-0.3,1.7-0.3c1,0,1.7,0.2,2.3,0.7
		c0.6,0.5,0.8,1.2,0.9,2v3.9c0,0.8,0.1,1.4,0.3,1.9v0.1H95.2z M92.8,347.9c0.5,0,0.9-0.1,1.3-0.4s0.7-0.5,0.9-0.9v-1.7h-1.1
		c-1.8,0-2.7,0.5-2.7,1.6c0,0.5,0.2,0.8,0.5,1.1C92,347.8,92.3,347.9,92.8,347.9z"/>
	<path class="st3" d="M102.1,348c0.5,0,1-0.2,1.4-0.5c0.4-0.3,0.6-0.7,0.6-1.2h1.4c0,0.5-0.2,0.9-0.5,1.4c-0.3,0.4-0.7,0.8-1.2,1
		c-0.5,0.3-1.1,0.4-1.6,0.4c-1.2,0-2.1-0.4-2.7-1.2s-1-1.8-1-3.2v-0.2c0-0.8,0.2-1.6,0.5-2.2c0.3-0.6,0.7-1.1,1.3-1.5
		c0.6-0.4,1.2-0.5,2-0.5c0.9,0,1.7,0.3,2.4,0.9c0.6,0.6,1,1.3,1,2.2h-1.4c0-0.5-0.2-1-0.6-1.3c-0.4-0.4-0.8-0.5-1.4-0.5
		c-0.7,0-1.3,0.3-1.7,0.8c-0.4,0.5-0.6,1.3-0.6,2.3v0.3c0,1,0.2,1.7,0.6,2.2C100.8,347.7,101.3,348,102.1,348z"/>
	<path class="st3" d="M107.1,338.3c0-0.2,0.1-0.4,0.2-0.6c0.1-0.2,0.4-0.2,0.6-0.2s0.5,0.1,0.6,0.2c0.1,0.2,0.2,0.4,0.2,0.6
		s-0.1,0.4-0.2,0.6c-0.1,0.2-0.4,0.2-0.6,0.2s-0.5-0.1-0.6-0.2C107.2,338.7,107.1,338.5,107.1,338.3z M108.6,349h-1.4v-8.5h1.4V349z
		"/>
	<path class="st3" d="M110.6,344.7c0-0.8,0.2-1.6,0.5-2.2c0.3-0.7,0.8-1.2,1.4-1.5c0.6-0.4,1.2-0.5,2-0.5c1.2,0,2.1,0.4,2.8,1.2
		s1.1,1.9,1.1,3.2v0.1c0,0.8-0.2,1.6-0.5,2.2c-0.3,0.7-0.8,1.2-1.4,1.5s-1.3,0.5-2,0.5c-1.1,0-2.1-0.4-2.8-1.2s-1.1-1.9-1.1-3.2
		V344.7z M112,344.9c0,0.9,0.2,1.7,0.7,2.3c0.4,0.6,1,0.9,1.7,0.9c0.7,0,1.3-0.3,1.8-0.9c0.4-0.6,0.6-1.4,0.6-2.4
		c0-0.9-0.2-1.7-0.7-2.3c-0.4-0.6-1-0.9-1.8-0.9c-0.7,0-1.3,0.3-1.7,0.9S112,343.8,112,344.9z M115.1,337h1.8l-2.1,2.3l-1.2,0
		L115.1,337z"/>
	<path class="st3" d="M121.5,340.5l0,1.1c0.6-0.8,1.5-1.2,2.5-1.2c1.8,0,2.7,1,2.7,3v5.6h-1.4v-5.6c0-0.6-0.1-1.1-0.4-1.4
		s-0.7-0.4-1.3-0.4c-0.5,0-0.9,0.1-1.2,0.4c-0.4,0.2-0.6,0.6-0.8,1v6h-1.4v-8.5H121.5z"/>
</g>
<g class="st2">
	<path class="st3" d="M76.8,47.6l3.7,9.3l3.7-9.3h1.9V59h-1.5v-4.4l0.1-4.8L81.1,59H80l-3.7-9.2l0.1,4.8V59h-1.5V47.6H76.8z"/>
	<path class="st3" d="M93.9,59c-0.1-0.2-0.2-0.5-0.2-0.9c-0.7,0.7-1.5,1-2.4,1c-0.8,0-1.5-0.2-2.1-0.7s-0.8-1.1-0.8-1.8
		c0-0.9,0.3-1.6,1-2.1s1.6-0.7,2.8-0.7h1.4v-0.7c0-0.5-0.2-0.9-0.5-1.2s-0.7-0.4-1.3-0.4c-0.5,0-0.9,0.1-1.3,0.4S90,52.5,90,52.9
		h-1.5c0-0.4,0.1-0.8,0.4-1.2s0.7-0.7,1.2-0.9s1.1-0.3,1.7-0.3c1,0,1.7,0.2,2.3,0.7s0.8,1.2,0.9,2V57c0,0.8,0.1,1.4,0.3,1.9V59H93.9
		z M91.5,57.9c0.5,0,0.9-0.1,1.3-0.4s0.7-0.5,0.9-0.9v-1.7h-1.1c-1.8,0-2.7,0.5-2.7,1.6c0,0.5,0.2,0.8,0.5,1.1S91,57.9,91.5,57.9z"
		/>
	<path class="st3" d="M98.7,50.5l0,1.1c0.6-0.8,1.5-1.2,2.5-1.2c1.8,0,2.7,1,2.7,3V59h-1.4v-5.6c0-0.6-0.1-1.1-0.4-1.4
		s-0.7-0.4-1.3-0.4c-0.5,0-0.9,0.1-1.2,0.4s-0.6,0.6-0.8,1v6h-1.4v-8.5H98.7z"/>
	<path class="st3" d="M109.7,59.2c-1.1,0-2.1-0.4-2.8-1.1s-1.1-1.8-1.1-3v-0.3c0-0.8,0.2-1.6,0.5-2.2s0.8-1.2,1.3-1.5
		s1.2-0.6,1.9-0.6c1.1,0,2,0.4,2.6,1.1s0.9,1.8,0.9,3.1v0.6h-5.7c0,0.8,0.3,1.5,0.7,2s1.1,0.8,1.8,0.8c0.5,0,0.9-0.1,1.3-0.3
		s0.7-0.5,0.9-0.8l0.9,0.7C112.2,58.6,111.1,59.2,109.7,59.2z M109.5,51.6c-0.6,0-1.1,0.2-1.5,0.6s-0.6,1-0.7,1.8h4.2v-0.1
		c0-0.7-0.2-1.3-0.6-1.7S110.1,51.6,109.5,51.6z"/>
	<path class="st3" d="M116.1,50.5V60c0,1.6-0.7,2.4-2.2,2.4c-0.3,0-0.6,0-0.9-0.1v-1.1c0.2,0,0.4,0.1,0.7,0.1c0.3,0,0.6-0.1,0.7-0.3
		c0.2-0.2,0.3-0.5,0.3-0.9v-9.5H116.1z M114.6,48.3c0-0.2,0.1-0.4,0.2-0.6s0.4-0.2,0.6-0.2c0.3,0,0.5,0.1,0.6,0.2s0.2,0.4,0.2,0.6
		s-0.1,0.4-0.2,0.6s-0.4,0.2-0.6,0.2s-0.5-0.1-0.6-0.2S114.6,48.5,114.6,48.3z"/>
	<path class="st3" d="M118.1,54.7c0-0.8,0.2-1.6,0.5-2.2s0.8-1.2,1.4-1.5s1.2-0.5,2-0.5c1.2,0,2.1,0.4,2.8,1.2s1.1,1.9,1.1,3.2v0.1
		c0,0.8-0.2,1.6-0.5,2.2s-0.8,1.2-1.4,1.5s-1.3,0.5-2,0.5c-1.1,0-2.1-0.4-2.8-1.2s-1.1-1.9-1.1-3.2V54.7z M119.5,54.9
		c0,0.9,0.2,1.7,0.7,2.3s1,0.9,1.7,0.9c0.7,0,1.3-0.3,1.8-0.9s0.6-1.4,0.6-2.4c0-0.9-0.2-1.7-0.7-2.3s-1-0.9-1.8-0.9
		c-0.7,0-1.3,0.3-1.7,0.9S119.5,53.8,119.5,54.9z"/>
	<path class="st3" d="M131.2,54.7c0-1.3,0.3-2.3,0.9-3.1s1.4-1.2,2.4-1.2c1,0,1.8,0.3,2.4,1V47h1.4v12H137l-0.1-0.9
		c-0.6,0.7-1.4,1.1-2.4,1.1c-1,0-1.8-0.4-2.4-1.2s-0.9-1.8-0.9-3.1V54.7z M132.7,54.9c0,1,0.2,1.7,0.6,2.2s0.9,0.8,1.6,0.8
		c0.9,0,1.6-0.4,2-1.2v-3.9c-0.4-0.8-1.1-1.2-2-1.2c-0.7,0-1.3,0.3-1.7,0.8S132.7,53.8,132.7,54.9z"/>
	<path class="st3" d="M144.1,59.2c-1.1,0-2.1-0.4-2.8-1.1s-1.1-1.8-1.1-3v-0.3c0-0.8,0.2-1.6,0.5-2.2s0.8-1.2,1.3-1.5
		s1.2-0.6,1.9-0.6c1.1,0,2,0.4,2.6,1.1s0.9,1.8,0.9,3.1v0.6h-5.7c0,0.8,0.3,1.5,0.7,2s1.1,0.8,1.8,0.8c0.5,0,0.9-0.1,1.3-0.3
		s0.7-0.5,0.9-0.8l0.9,0.7C146.6,58.6,145.5,59.2,144.1,59.2z M143.9,51.6c-0.6,0-1.1,0.2-1.5,0.6s-0.6,1-0.7,1.8h4.2v-0.1
		c0-0.7-0.2-1.3-0.6-1.7S144.5,51.6,143.9,51.6z"/>
	<path class="st3" d="M154.6,59h-1.4V47h1.4V59z"/>
	<path class="st3" d="M162.1,59c-0.1-0.2-0.2-0.5-0.2-0.9c-0.7,0.7-1.5,1-2.4,1c-0.8,0-1.5-0.2-2.1-0.7s-0.8-1.1-0.8-1.8
		c0-0.9,0.3-1.6,1-2.1s1.6-0.7,2.8-0.7h1.4v-0.7c0-0.5-0.2-0.9-0.5-1.2s-0.7-0.4-1.3-0.4c-0.5,0-0.9,0.1-1.3,0.4s-0.5,0.6-0.5,0.9
		h-1.5c0-0.4,0.1-0.8,0.4-1.2s0.7-0.7,1.2-0.9s1.1-0.3,1.7-0.3c1,0,1.7,0.2,2.3,0.7s0.8,1.2,0.9,2V57c0,0.8,0.1,1.4,0.3,1.9V59
		H162.1z M159.7,57.9c0.5,0,0.9-0.1,1.3-0.4s0.7-0.5,0.9-0.9v-1.7h-1.1c-1.8,0-2.7,0.5-2.7,1.6c0,0.5,0.2,0.8,0.5,1.1
		S159.2,57.9,159.7,57.9z"/>
</g>
<g class="st2">
	<path class="st3" d="M114.4,76h-4.8l-1.1,3h-1.5l4.3-11.4h1.3l4.4,11.4h-1.5L114.4,76z M110.1,74.8h3.9l-1.9-5.3L110.1,74.8z"/>
	<path class="st3" d="M125.5,74.9c0,1.3-0.3,2.3-0.9,3.1c-0.6,0.8-1.4,1.2-2.4,1.2c-1,0-1.8-0.3-2.4-1v4.1h-1.4V70.5h1.3l0.1,0.9
		c0.6-0.7,1.4-1.1,2.5-1.1c1,0,1.8,0.4,2.4,1.1c0.6,0.8,0.9,1.8,0.9,3.2V74.9z M124.1,74.7c0-1-0.2-1.7-0.6-2.3s-1-0.8-1.7-0.8
		c-0.9,0-1.5,0.4-2,1.2v4c0.4,0.8,1.1,1.2,2,1.2c0.7,0,1.2-0.3,1.7-0.8C123.9,76.6,124.1,75.8,124.1,74.7z"/>
	<path class="st3" d="M134.5,74.9c0,1.3-0.3,2.3-0.9,3.1c-0.6,0.8-1.4,1.2-2.4,1.2c-1,0-1.8-0.3-2.4-1v4.1h-1.4V70.5h1.3l0.1,0.9
		c0.6-0.7,1.4-1.1,2.5-1.1c1,0,1.8,0.4,2.4,1.1c0.6,0.8,0.9,1.8,0.9,3.2V74.9z M133,74.7c0-1-0.2-1.7-0.6-2.3s-1-0.8-1.7-0.8
		c-0.9,0-1.5,0.4-2,1.2v4c0.4,0.8,1.1,1.2,2,1.2c0.7,0,1.2-0.3,1.7-0.8C132.8,76.6,133,75.8,133,74.7z"/>
</g>
<g>
	<defs>
		<path id="SVGID_1_" d="M61,34h410c11,0,20,9,20,20v195l0,0H41l0,0V54C41,43,50,34,61,34z"/>
	</defs>
	<clipPath id="SVGID_00000005984607643199666890000012334213786412510909_">
		<use xlink:href="#SVGID_1_"  style="overflow:visible;"/>
	</clipPath>
	<g id="Enmascarar_grupo_79934" style="clip-path:url(#SVGID_00000005984607643199666890000012334213786412510909_);">
		<circle id="Elipse_6562" class="st5" cx="266.5" cy="248.5" r="187.5"/>
	</g>
</g>
<g class="st2">
	<path class="st3" d="M189.5,98.4c-0.1,1.2-0.6,2.1-1.3,2.8c-0.7,0.7-1.7,1-3,1c-1.3,0-2.4-0.5-3.2-1.4c-0.8-1-1.2-2.3-1.2-3.9v-1.1
		c0-1.1,0.2-2,0.6-2.8c0.4-0.8,0.9-1.4,1.6-1.8c0.7-0.4,1.5-0.6,2.4-0.6c1.2,0,2.2,0.3,2.9,1c0.7,0.7,1.2,1.6,1.3,2.8H188
		c-0.1-0.9-0.4-1.6-0.8-2c-0.4-0.4-1-0.6-1.8-0.6c-1,0-1.7,0.4-2.3,1.1c-0.5,0.7-0.8,1.7-0.8,3v1.1c0,1.2,0.3,2.2,0.8,2.9
		s1.2,1.1,2.2,1.1c0.8,0,1.5-0.2,1.9-0.6s0.7-1,0.9-2H189.5z"/>
	<path class="st3" d="M196.6,102c-0.1-0.2-0.2-0.5-0.2-0.9c-0.7,0.7-1.5,1-2.4,1c-0.8,0-1.5-0.2-2.1-0.7c-0.5-0.5-0.8-1.1-0.8-1.8
		c0-0.9,0.3-1.6,1-2.1c0.7-0.5,1.6-0.7,2.8-0.7h1.4v-0.7c0-0.5-0.2-0.9-0.5-1.2c-0.3-0.3-0.7-0.4-1.3-0.4c-0.5,0-0.9,0.1-1.3,0.4
		c-0.3,0.3-0.5,0.6-0.5,0.9h-1.5c0-0.4,0.1-0.8,0.4-1.2c0.3-0.4,0.7-0.7,1.2-0.9c0.5-0.2,1.1-0.3,1.7-0.3c1,0,1.7,0.2,2.3,0.7
		c0.6,0.5,0.8,1.2,0.9,2v3.9c0,0.8,0.1,1.4,0.3,1.9v0.1H196.6z M194.2,100.9c0.5,0,0.9-0.1,1.3-0.4s0.7-0.5,0.9-0.9v-1.7h-1.1
		c-1.8,0-2.7,0.5-2.7,1.6c0,0.5,0.2,0.8,0.5,1.1C193.3,100.8,193.7,100.9,194.2,100.9z"/>
	<path class="st3" d="M207.2,97.9c0,1.3-0.3,2.3-0.9,3.1c-0.6,0.8-1.4,1.2-2.4,1.2c-1,0-1.8-0.3-2.4-1v4.1H200V93.5h1.3l0.1,0.9
		c0.6-0.7,1.4-1.1,2.5-1.1c1,0,1.8,0.4,2.4,1.1c0.6,0.8,0.9,1.8,0.9,3.2V97.9z M205.7,97.7c0-1-0.2-1.7-0.6-2.3s-1-0.8-1.7-0.8
		c-0.9,0-1.5,0.4-2,1.2v4c0.4,0.8,1.1,1.2,2,1.2c0.7,0,1.2-0.3,1.7-0.8C205.5,99.6,205.7,98.8,205.7,97.7z"/>
	<path class="st3" d="M214.2,102c-0.1-0.2-0.2-0.5-0.2-0.9c-0.7,0.7-1.5,1-2.4,1c-0.8,0-1.5-0.2-2.1-0.7c-0.5-0.5-0.8-1.1-0.8-1.8
		c0-0.9,0.3-1.6,1-2.1c0.7-0.5,1.6-0.7,2.8-0.7h1.4v-0.7c0-0.5-0.2-0.9-0.5-1.2c-0.3-0.3-0.7-0.4-1.3-0.4c-0.5,0-0.9,0.1-1.3,0.4
		c-0.3,0.3-0.5,0.6-0.5,0.9H209c0-0.4,0.1-0.8,0.4-1.2c0.3-0.4,0.7-0.7,1.2-0.9c0.5-0.2,1.1-0.3,1.7-0.3c1,0,1.7,0.2,2.3,0.7
		c0.6,0.5,0.8,1.2,0.9,2v3.9c0,0.8,0.1,1.4,0.3,1.9v0.1H214.2z M211.8,100.9c0.5,0,0.9-0.1,1.3-0.4s0.7-0.5,0.9-0.9v-1.7h-1.1
		c-1.8,0-2.7,0.5-2.7,1.6c0,0.5,0.2,0.8,0.5,1.1C211,100.8,211.4,100.9,211.8,100.9z"/>
	<path class="st3" d="M221.7,91.3c0-0.2,0.1-0.4,0.2-0.6c0.1-0.2,0.4-0.2,0.6-0.2s0.5,0.1,0.6,0.2c0.1,0.2,0.2,0.4,0.2,0.6
		s-0.1,0.4-0.2,0.6c-0.1,0.2-0.4,0.2-0.6,0.2s-0.5-0.1-0.6-0.2C221.8,91.7,221.7,91.5,221.7,91.3z M223.3,102h-1.4v-8.5h1.4V102z"/>
	<path class="st3" d="M226.9,93.5l0,1.1c0.6-0.8,1.5-1.2,2.5-1.2c1.8,0,2.7,1,2.7,3v5.6h-1.4v-5.6c0-0.6-0.1-1.1-0.4-1.4
		s-0.7-0.4-1.3-0.4c-0.5,0-0.9,0.1-1.2,0.4c-0.4,0.2-0.6,0.6-0.8,1v6h-1.4v-8.5H226.9z"/>
	<path class="st3" d="M236.4,91.5v2h1.6v1.1h-1.6v5.2c0,0.3,0.1,0.6,0.2,0.8c0.1,0.2,0.4,0.3,0.7,0.3c0.2,0,0.4,0,0.7-0.1v1.2
		c-0.4,0.1-0.8,0.2-1.1,0.2c-0.6,0-1.1-0.2-1.5-0.6s-0.5-0.9-0.5-1.7v-5.2h-1.5v-1.1h1.5v-2H236.4z"/>
	<path class="st3" d="M243.1,102.2c-1.1,0-2.1-0.4-2.8-1.1s-1.1-1.8-1.1-3v-0.3c0-0.8,0.2-1.6,0.5-2.2s0.8-1.2,1.3-1.5
		c0.6-0.4,1.2-0.6,1.9-0.6c1.1,0,2,0.4,2.6,1.1s0.9,1.8,0.9,3.1v0.6h-5.7c0,0.8,0.3,1.5,0.7,2c0.5,0.5,1.1,0.8,1.8,0.8
		c0.5,0,0.9-0.1,1.3-0.3c0.4-0.2,0.7-0.5,0.9-0.8l0.9,0.7C245.6,101.6,244.5,102.2,243.1,102.2z M243,94.6c-0.6,0-1.1,0.2-1.5,0.6
		c-0.4,0.4-0.6,1-0.7,1.8h4.2v-0.1c0-0.7-0.2-1.3-0.6-1.7C244,94.8,243.6,94.6,243,94.6z"/>
	<path class="st3" d="M252.2,94.8c-0.2,0-0.5-0.1-0.7-0.1c-0.9,0-1.6,0.4-1.9,1.2v6h-1.4v-8.5h1.4l0,1c0.5-0.8,1.1-1.1,2-1.1
		c0.3,0,0.5,0,0.6,0.1V94.8z"/>
	<path class="st3" d="M254.3,102v-7.3H253v-1.1h1.3v-0.9c0-0.9,0.2-1.6,0.7-2.1s1.2-0.7,2.1-0.7c0.3,0,0.7,0,1,0.1l-0.1,1.2
		c-0.2,0-0.5-0.1-0.8-0.1c-0.5,0-0.8,0.1-1.1,0.4c-0.3,0.3-0.4,0.7-0.4,1.2v0.9h1.8v1.1h-1.8v7.3H254.3z"/>
	<path class="st3" d="M264.4,102c-0.1-0.2-0.2-0.5-0.2-0.9c-0.7,0.7-1.5,1-2.4,1c-0.8,0-1.5-0.2-2.1-0.7c-0.5-0.5-0.8-1.1-0.8-1.8
		c0-0.9,0.3-1.6,1-2.1c0.7-0.5,1.6-0.7,2.8-0.7h1.4v-0.7c0-0.5-0.2-0.9-0.5-1.2c-0.3-0.3-0.7-0.4-1.3-0.4c-0.5,0-0.9,0.1-1.3,0.4
		c-0.3,0.3-0.5,0.6-0.5,0.9h-1.5c0-0.4,0.1-0.8,0.4-1.2c0.3-0.4,0.7-0.7,1.2-0.9c0.5-0.2,1.1-0.3,1.7-0.3c1,0,1.7,0.2,2.3,0.7
		c0.6,0.5,0.8,1.2,0.9,2v3.9c0,0.8,0.1,1.4,0.3,1.9v0.1H264.4z M262,100.9c0.5,0,0.9-0.1,1.3-0.4s0.7-0.5,0.9-0.9v-1.7H263
		c-1.8,0-2.7,0.5-2.7,1.6c0,0.5,0.2,0.8,0.5,1.1C261.1,100.8,261.5,100.9,262,100.9z"/>
	<path class="st3" d="M269.2,100.8h4.9v1.2h-6.7v-1.1l4.7-6.2h-4.6v-1.2h6.4v1L269.2,100.8z"/>
	<path class="st3" d="M279.4,97.7c0-1.3,0.3-2.3,0.9-3.1c0.6-0.8,1.4-1.2,2.4-1.2c1,0,1.8,0.3,2.4,1V90h1.4v12h-1.3l-0.1-0.9
		c-0.6,0.7-1.4,1.1-2.4,1.1c-1,0-1.8-0.4-2.4-1.2s-0.9-1.8-0.9-3.1V97.7z M280.9,97.9c0,1,0.2,1.7,0.6,2.2c0.4,0.5,0.9,0.8,1.6,0.8
		c0.9,0,1.6-0.4,2-1.2v-3.9c-0.4-0.8-1.1-1.2-2-1.2c-0.7,0-1.3,0.3-1.7,0.8C281.1,96,280.9,96.8,280.9,97.9z"/>
	<path class="st3" d="M292.3,102.2c-1.1,0-2.1-0.4-2.8-1.1s-1.1-1.8-1.1-3v-0.3c0-0.8,0.2-1.6,0.5-2.2s0.8-1.2,1.3-1.5
		s1.2-0.6,1.9-0.6c1.1,0,2,0.4,2.6,1.1s0.9,1.8,0.9,3.1v0.6h-5.7c0,0.8,0.3,1.5,0.7,2s1.1,0.8,1.8,0.8c0.5,0,0.9-0.1,1.3-0.3
		s0.7-0.5,0.9-0.8l0.9,0.7C294.8,101.6,293.7,102.2,292.3,102.2z M292.1,94.6c-0.6,0-1.1,0.2-1.5,0.6s-0.6,1-0.7,1.8h4.2v-0.1
		c0-0.7-0.2-1.3-0.6-1.7S292.7,94.6,292.1,94.6z"/>
	<path class="st3" d="M306.5,101.2c-0.6,0.7-1.4,1-2.5,1c-0.9,0-1.6-0.3-2.1-0.8s-0.7-1.3-0.7-2.3v-5.5h1.4V99
		c0,1.3,0.5,1.9,1.6,1.9c1.1,0,1.8-0.4,2.2-1.2v-6.1h1.4v8.5h-1.4L306.5,101.2z"/>
	<path class="st3" d="M315,99.8c0-0.4-0.1-0.7-0.4-0.9s-0.8-0.4-1.5-0.6s-1.3-0.3-1.7-0.6s-0.7-0.5-1-0.8s-0.3-0.7-0.3-1.1
		c0-0.7,0.3-1.3,0.9-1.8s1.3-0.7,2.2-0.7c1,0,1.7,0.2,2.3,0.7s0.9,1.1,0.9,1.9h-1.5c0-0.4-0.2-0.7-0.5-1s-0.8-0.4-1.3-0.4
		c-0.5,0-0.9,0.1-1.2,0.3s-0.4,0.5-0.4,0.9c0,0.3,0.1,0.6,0.4,0.8s0.8,0.3,1.5,0.5s1.3,0.4,1.8,0.6s0.8,0.5,1,0.8s0.3,0.7,0.3,1.2
		c0,0.8-0.3,1.4-0.9,1.8s-1.4,0.7-2.4,0.7c-0.7,0-1.3-0.1-1.8-0.4s-0.9-0.6-1.2-1s-0.4-0.9-0.4-1.4h1.4c0,0.5,0.2,0.9,0.6,1.2
		s0.8,0.4,1.4,0.4c0.5,0,1-0.1,1.3-0.3S315,100.1,315,99.8z"/>
	<path class="st3" d="M323.5,101.2c-0.6,0.7-1.4,1-2.5,1c-0.9,0-1.6-0.3-2.1-0.8s-0.7-1.3-0.7-2.3v-5.5h1.4V99
		c0,1.3,0.5,1.9,1.6,1.9c1.1,0,1.8-0.4,2.2-1.2v-6.1h1.4v8.5h-1.4L323.5,101.2z"/>
	<path class="st3" d="M332.4,102c-0.1-0.2-0.2-0.5-0.2-0.9c-0.7,0.7-1.5,1-2.4,1c-0.8,0-1.5-0.2-2.1-0.7s-0.8-1.1-0.8-1.8
		c0-0.9,0.3-1.6,1-2.1s1.6-0.7,2.8-0.7h1.4v-0.7c0-0.5-0.2-0.9-0.5-1.2s-0.7-0.4-1.3-0.4c-0.5,0-0.9,0.1-1.3,0.4s-0.5,0.6-0.5,0.9
		h-1.5c0-0.4,0.1-0.8,0.4-1.2s0.7-0.7,1.2-0.9s1.1-0.3,1.7-0.3c1,0,1.7,0.2,2.3,0.7s0.8,1.2,0.9,2v3.9c0,0.8,0.1,1.4,0.3,1.9v0.1
		H332.4z M330,100.9c0.5,0,0.9-0.1,1.3-0.4s0.7-0.5,0.9-0.9v-1.7H331c-1.8,0-2.7,0.5-2.7,1.6c0,0.5,0.2,0.8,0.5,1.1
		S329.5,100.9,330,100.9z"/>
	<path class="st3" d="M339.9,94.8c-0.2,0-0.5-0.1-0.7-0.1c-0.9,0-1.6,0.4-1.9,1.2v6h-1.4v-8.5h1.4l0,1c0.5-0.8,1.1-1.1,2-1.1
		c0.3,0,0.5,0,0.6,0.1V94.8z"/>
	<path class="st3" d="M341.3,91.3c0-0.2,0.1-0.4,0.2-0.6s0.4-0.2,0.6-0.2s0.5,0.1,0.6,0.2s0.2,0.4,0.2,0.6s-0.1,0.4-0.2,0.6
		s-0.4,0.2-0.6,0.2s-0.5-0.1-0.6-0.2S341.3,91.5,341.3,91.3z M342.8,102h-1.4v-8.5h1.4V102z"/>
	<path class="st3" d="M344.8,97.7c0-0.8,0.2-1.6,0.5-2.2s0.8-1.2,1.4-1.5s1.2-0.5,2-0.5c1.2,0,2.1,0.4,2.8,1.2s1.1,1.9,1.1,3.2v0.1
		c0,0.8-0.2,1.6-0.5,2.2s-0.8,1.2-1.4,1.5s-1.3,0.5-2,0.5c-1.1,0-2.1-0.4-2.8-1.2s-1.1-1.9-1.1-3.2V97.7z M346.2,97.9
		c0,0.9,0.2,1.7,0.7,2.3s1,0.9,1.7,0.9c0.7,0,1.3-0.3,1.8-0.9s0.6-1.4,0.6-2.4c0-0.9-0.2-1.7-0.7-2.3s-1-0.9-1.8-0.9
		c-0.7,0-1.3,0.3-1.7,0.9S346.2,96.8,346.2,97.9z"/>
</g>
<g class="st2">
	<path class="st3" d="M220.1,63.5V68h-1.5V56.6h4.2c1.2,0,2.2,0.3,2.9,1c0.7,0.6,1.1,1.5,1.1,2.5c0,1.1-0.3,2-1,2.6
		c-0.7,0.6-1.7,0.9-3,0.9H220.1z M220.1,62.3h2.7c0.8,0,1.4-0.2,1.8-0.6c0.4-0.4,0.6-0.9,0.6-1.6c0-0.7-0.2-1.2-0.6-1.6
		c-0.4-0.4-1-0.6-1.8-0.6h-2.8V62.3z"/>
	<path class="st3" d="M228,63.7c0-0.8,0.2-1.6,0.5-2.2c0.3-0.7,0.8-1.2,1.4-1.5c0.6-0.4,1.2-0.5,2-0.5c1.2,0,2.1,0.4,2.8,1.2
		s1.1,1.9,1.1,3.2v0.1c0,0.8-0.2,1.6-0.5,2.2c-0.3,0.7-0.8,1.2-1.4,1.5s-1.3,0.5-2,0.5c-1.1,0-2.1-0.4-2.8-1.2s-1.1-1.9-1.1-3.2
		V63.7z M229.4,63.9c0,0.9,0.2,1.7,0.7,2.3c0.4,0.6,1,0.9,1.7,0.9c0.7,0,1.3-0.3,1.8-0.9c0.4-0.6,0.6-1.4,0.6-2.4
		c0-0.9-0.2-1.7-0.7-2.3c-0.4-0.6-1-0.9-1.8-0.9c-0.7,0-1.3,0.3-1.7,0.9S229.4,62.8,229.4,63.9z"/>
	<path class="st3" d="M241.6,60.8c-0.2,0-0.5-0.1-0.7-0.1c-0.9,0-1.6,0.4-1.9,1.2v6h-1.4v-8.5h1.4l0,1c0.5-0.8,1.1-1.1,2-1.1
		c0.3,0,0.5,0,0.6,0.1V60.8z"/>
	<path class="st3" d="M245.2,57.5v2h1.6v1.1h-1.6v5.2c0,0.3,0.1,0.6,0.2,0.8c0.1,0.2,0.4,0.3,0.7,0.3c0.2,0,0.4,0,0.7-0.1V68
		c-0.4,0.1-0.8,0.2-1.1,0.2c-0.6,0-1.1-0.2-1.5-0.6s-0.5-0.9-0.5-1.7v-5.2h-1.5v-1.1h1.5v-2H245.2z"/>
	<path class="st3" d="M253.7,68c-0.1-0.2-0.2-0.5-0.2-0.9c-0.7,0.7-1.5,1-2.4,1c-0.8,0-1.5-0.2-2.1-0.7c-0.5-0.5-0.8-1.1-0.8-1.8
		c0-0.9,0.3-1.6,1-2.1c0.7-0.5,1.6-0.7,2.8-0.7h1.4v-0.7c0-0.5-0.2-0.9-0.5-1.2c-0.3-0.3-0.7-0.4-1.3-0.4c-0.5,0-0.9,0.1-1.3,0.4
		c-0.3,0.3-0.5,0.6-0.5,0.9h-1.5c0-0.4,0.1-0.8,0.4-1.2c0.3-0.4,0.7-0.7,1.2-0.9c0.5-0.2,1.1-0.3,1.7-0.3c1,0,1.7,0.2,2.3,0.7
		c0.6,0.5,0.8,1.2,0.9,2V66c0,0.8,0.1,1.4,0.3,1.9V68H253.7z M251.3,66.9c0.5,0,0.9-0.1,1.3-0.4s0.7-0.5,0.9-0.9v-1.7h-1.1
		c-1.8,0-2.7,0.5-2.7,1.6c0,0.5,0.2,0.8,0.5,1.1C250.5,66.8,250.9,66.9,251.3,66.9z"/>
	<path class="st3" d="M258.8,68h-1.4V56h1.4V68z"/>
	<path class="st3" d="M268.4,67c0.5,0,1-0.2,1.4-0.5c0.4-0.3,0.6-0.7,0.6-1.2h1.4c0,0.5-0.2,0.9-0.5,1.4c-0.3,0.4-0.7,0.8-1.2,1
		c-0.5,0.3-1.1,0.4-1.6,0.4c-1.2,0-2.1-0.4-2.7-1.2s-1-1.8-1-3.2v-0.2c0-0.8,0.2-1.6,0.5-2.2c0.3-0.6,0.7-1.1,1.3-1.5
		c0.6-0.4,1.2-0.5,2-0.5c0.9,0,1.7,0.3,2.4,0.9c0.6,0.6,1,1.3,1,2.2h-1.4c0-0.5-0.2-1-0.6-1.3c-0.4-0.4-0.8-0.5-1.4-0.5
		c-0.7,0-1.3,0.3-1.7,0.8c-0.4,0.5-0.6,1.3-0.6,2.3v0.3c0,1,0.2,1.7,0.6,2.2C267.1,66.7,267.7,67,268.4,67z"/>
	<path class="st3" d="M278.7,68c-0.1-0.2-0.2-0.5-0.2-0.9c-0.7,0.7-1.5,1-2.4,1c-0.8,0-1.5-0.2-2.1-0.7c-0.5-0.5-0.8-1.1-0.8-1.8
		c0-0.9,0.3-1.6,1-2.1c0.7-0.5,1.6-0.7,2.8-0.7h1.4v-0.7c0-0.5-0.2-0.9-0.5-1.2c-0.3-0.3-0.7-0.4-1.3-0.4c-0.5,0-0.9,0.1-1.3,0.4
		c-0.3,0.3-0.5,0.6-0.5,0.9h-1.5c0-0.4,0.1-0.8,0.4-1.2c0.3-0.4,0.7-0.7,1.2-0.9c0.5-0.2,1.1-0.3,1.7-0.3c1,0,1.7,0.2,2.3,0.7
		c0.6,0.5,0.8,1.2,0.9,2V66c0,0.8,0.1,1.4,0.3,1.9V68H278.7z M276.3,66.9c0.5,0,0.9-0.1,1.3-0.4s0.7-0.5,0.9-0.9v-1.7h-1.1
		c-1.8,0-2.7,0.5-2.7,1.6c0,0.5,0.2,0.8,0.5,1.1C275.4,66.8,275.8,66.9,276.3,66.9z"/>
	<path class="st3" d="M287.4,67.2c-0.6,0.7-1.4,1-2.5,1c-0.9,0-1.6-0.3-2.1-0.8c-0.5-0.5-0.7-1.3-0.7-2.3v-5.5h1.4V65
		c0,1.3,0.5,1.9,1.6,1.9c1.1,0,1.8-0.4,2.2-1.2v-6.1h1.4V68h-1.4L287.4,67.2z"/>
	<path class="st3" d="M292.9,57.5v2h1.6v1.1h-1.6v5.2c0,0.3,0.1,0.6,0.2,0.8c0.1,0.2,0.4,0.3,0.7,0.3c0.2,0,0.4,0,0.7-0.1V68
		c-0.4,0.1-0.8,0.2-1.1,0.2c-0.6,0-1.1-0.2-1.5-0.6s-0.5-0.9-0.5-1.7v-5.2h-1.5v-1.1h1.5v-2H292.9z"/>
	<path class="st3" d="M296.2,57.3c0-0.2,0.1-0.4,0.2-0.6c0.1-0.2,0.4-0.2,0.6-0.2s0.5,0.1,0.6,0.2c0.1,0.2,0.2,0.4,0.2,0.6
		s-0.1,0.4-0.2,0.6c-0.1,0.2-0.4,0.2-0.6,0.2s-0.5-0.1-0.6-0.2C296.3,57.7,296.2,57.5,296.2,57.3z M297.8,68h-1.4v-8.5h1.4V68z"/>
	<path class="st3" d="M302.9,66l2.1-6.5h1.5l-3,8.5h-1.1l-3.1-8.5h1.5L302.9,66z"/>
	<path class="st3" d="M307.3,63.7c0-0.8,0.2-1.6,0.5-2.2c0.3-0.7,0.8-1.2,1.4-1.5c0.6-0.4,1.2-0.5,2-0.5c1.2,0,2.1,0.4,2.8,1.2
		s1.1,1.9,1.1,3.2v0.1c0,0.8-0.2,1.6-0.5,2.2c-0.3,0.7-0.8,1.2-1.4,1.5s-1.3,0.5-2,0.5c-1.1,0-2.1-0.4-2.8-1.2s-1.1-1.9-1.1-3.2
		V63.7z M308.8,63.9c0,0.9,0.2,1.7,0.7,2.3c0.4,0.6,1,0.9,1.7,0.9c0.7,0,1.3-0.3,1.8-0.9c0.4-0.6,0.6-1.4,0.6-2.4
		c0-0.9-0.2-1.7-0.7-2.3c-0.4-0.6-1-0.9-1.8-0.9c-0.7,0-1.3,0.3-1.7,0.9S308.8,62.8,308.8,63.9z"/>
</g>
<circle id="Elipse_6563" class="st6" cx="266.5" cy="248.5" r="141.5"/>
<circle id="Elipse_6564" class="st7" cx="266.5" cy="248.5" r="99.5"/>
<circle id="Elipse_6565" class="st8" cx="266.5" cy="248.5" r="58.5"/>
<g class="st2">
	<path class="st3" d="M231.5,252.4c-0.1,1.2-0.6,2.1-1.3,2.8c-0.7,0.7-1.7,1-3,1c-1.3,0-2.4-0.5-3.2-1.4c-0.8-1-1.2-2.3-1.2-3.9
		v-1.1c0-1.1,0.2-2,0.6-2.8c0.4-0.8,0.9-1.4,1.6-1.8c0.7-0.4,1.5-0.6,2.4-0.6c1.2,0,2.2,0.3,2.9,1c0.7,0.7,1.2,1.6,1.3,2.8H230
		c-0.1-0.9-0.4-1.6-0.8-2c-0.4-0.4-1-0.6-1.8-0.6c-1,0-1.7,0.4-2.3,1.1c-0.5,0.7-0.8,1.7-0.8,3v1.1c0,1.2,0.3,2.2,0.8,2.9
		s1.2,1.1,2.2,1.1c0.8,0,1.5-0.2,1.9-0.6s0.7-1,0.9-2H231.5z"/>
	<path class="st3" d="M238.6,256c-0.1-0.2-0.2-0.5-0.2-0.9c-0.7,0.7-1.5,1-2.4,1c-0.8,0-1.5-0.2-2.1-0.7c-0.5-0.5-0.8-1.1-0.8-1.8
		c0-0.9,0.3-1.6,1-2.1c0.7-0.5,1.6-0.7,2.8-0.7h1.4v-0.7c0-0.5-0.2-0.9-0.5-1.2c-0.3-0.3-0.7-0.4-1.3-0.4c-0.5,0-0.9,0.1-1.3,0.4
		c-0.3,0.3-0.5,0.6-0.5,0.9h-1.5c0-0.4,0.1-0.8,0.4-1.2c0.3-0.4,0.7-0.7,1.2-0.9c0.5-0.2,1.1-0.3,1.7-0.3c1,0,1.7,0.2,2.3,0.7
		c0.6,0.5,0.8,1.2,0.9,2v3.9c0,0.8,0.1,1.4,0.3,1.9v0.1H238.6z M236.2,254.9c0.5,0,0.9-0.1,1.3-0.4s0.7-0.5,0.9-0.9v-1.7h-1.1
		c-1.8,0-2.7,0.5-2.7,1.6c0,0.5,0.2,0.8,0.5,1.1C235.3,254.8,235.7,254.9,236.2,254.9z"/>
	<path class="st3" d="M249.2,251.9c0,1.3-0.3,2.3-0.9,3.1c-0.6,0.8-1.4,1.2-2.4,1.2c-1,0-1.8-0.3-2.4-1v4.1H242v-11.7h1.3l0.1,0.9
		c0.6-0.7,1.4-1.1,2.5-1.1c1,0,1.8,0.4,2.4,1.1c0.6,0.8,0.9,1.8,0.9,3.2V251.9z M247.7,251.7c0-1-0.2-1.7-0.6-2.3s-1-0.8-1.7-0.8
		c-0.9,0-1.5,0.4-2,1.2v4c0.4,0.8,1.1,1.2,2,1.2c0.7,0,1.2-0.3,1.7-0.8C247.5,253.6,247.7,252.8,247.7,251.7z"/>
	<path class="st3" d="M256.2,256c-0.1-0.2-0.2-0.5-0.2-0.9c-0.7,0.7-1.5,1-2.4,1c-0.8,0-1.5-0.2-2.1-0.7c-0.5-0.5-0.8-1.1-0.8-1.8
		c0-0.9,0.3-1.6,1-2.1c0.7-0.5,1.6-0.7,2.8-0.7h1.4v-0.7c0-0.5-0.2-0.9-0.5-1.2c-0.3-0.3-0.7-0.4-1.3-0.4c-0.5,0-0.9,0.1-1.3,0.4
		c-0.3,0.3-0.5,0.6-0.5,0.9h-1.5c0-0.4,0.1-0.8,0.4-1.2c0.3-0.4,0.7-0.7,1.2-0.9c0.5-0.2,1.1-0.3,1.7-0.3c1,0,1.7,0.2,2.3,0.7
		c0.6,0.5,0.8,1.2,0.9,2v3.9c0,0.8,0.1,1.4,0.3,1.9v0.1H256.2z M253.8,254.9c0.5,0,0.9-0.1,1.3-0.4s0.7-0.5,0.9-0.9v-1.7h-1.1
		c-1.8,0-2.7,0.5-2.7,1.6c0,0.5,0.2,0.8,0.5,1.1C253,254.8,253.4,254.9,253.8,254.9z"/>
	<path class="st3" d="M267.1,255c0.5,0,1-0.2,1.4-0.5c0.4-0.3,0.6-0.7,0.6-1.2h1.4c0,0.5-0.2,0.9-0.5,1.4c-0.3,0.4-0.7,0.8-1.2,1
		c-0.5,0.3-1.1,0.4-1.6,0.4c-1.2,0-2.1-0.4-2.7-1.2s-1-1.8-1-3.2v-0.2c0-0.8,0.2-1.6,0.5-2.2c0.3-0.6,0.7-1.1,1.3-1.5
		c0.6-0.4,1.2-0.5,2-0.5c0.9,0,1.7,0.3,2.4,0.9c0.6,0.6,1,1.3,1,2.2h-1.4c0-0.5-0.2-1-0.6-1.3c-0.4-0.4-0.8-0.5-1.4-0.5
		c-0.7,0-1.3,0.3-1.7,0.8c-0.4,0.5-0.6,1.3-0.6,2.3v0.3c0,1,0.2,1.7,0.6,2.2C265.7,254.7,266.3,255,267.1,255z"/>
	<path class="st3" d="M275.6,256.2c-1.1,0-2.1-0.4-2.8-1.1s-1.1-1.8-1.1-3v-0.3c0-0.8,0.2-1.6,0.5-2.2s0.8-1.2,1.3-1.5
		c0.6-0.4,1.2-0.6,1.9-0.6c1.1,0,2,0.4,2.6,1.1s0.9,1.8,0.9,3.1v0.6h-5.7c0,0.8,0.3,1.5,0.7,2c0.5,0.5,1.1,0.8,1.8,0.8
		c0.5,0,0.9-0.1,1.3-0.3c0.4-0.2,0.7-0.5,0.9-0.8l0.9,0.7C278,255.6,277,256.2,275.6,256.2z M275.4,248.6c-0.6,0-1.1,0.2-1.5,0.6
		c-0.4,0.4-0.6,1-0.7,1.8h4.2v-0.1c0-0.7-0.2-1.3-0.6-1.7C276.5,248.8,276,248.6,275.4,248.6z"/>
	<path class="st3" d="M281.9,247.5l0,1.1c0.6-0.8,1.5-1.2,2.5-1.2c1.8,0,2.7,1,2.7,3v5.6h-1.4v-5.6c0-0.6-0.1-1.1-0.4-1.4
		s-0.7-0.4-1.3-0.4c-0.5,0-0.9,0.1-1.2,0.4c-0.4,0.2-0.6,0.6-0.8,1v6h-1.4v-8.5H281.9z"/>
	<path class="st3" d="M291.3,245.5v2h1.6v1.1h-1.6v5.2c0,0.3,0.1,0.6,0.2,0.8c0.1,0.2,0.4,0.3,0.7,0.3c0.2,0,0.4,0,0.7-0.1v1.2
		c-0.4,0.1-0.8,0.2-1.1,0.2c-0.6,0-1.1-0.2-1.5-0.6s-0.5-0.9-0.5-1.7v-5.2h-1.5v-1.1h1.5v-2H291.3z"/>
	<path class="st3" d="M298.7,248.8c-0.2,0-0.5-0.1-0.7-0.1c-0.9,0-1.6,0.4-1.9,1.2v6h-1.4v-8.5h1.4l0,1c0.5-0.8,1.1-1.1,2-1.1
		c0.3,0,0.5,0,0.6,0.1V248.8z"/>
	<path class="st3" d="M304.9,256c-0.1-0.2-0.2-0.5-0.2-0.9c-0.7,0.7-1.5,1-2.4,1c-0.8,0-1.5-0.2-2.1-0.7c-0.5-0.5-0.8-1.1-0.8-1.8
		c0-0.9,0.3-1.6,1-2.1c0.7-0.5,1.6-0.7,2.8-0.7h1.4v-0.7c0-0.5-0.2-0.9-0.5-1.2c-0.3-0.3-0.7-0.4-1.3-0.4c-0.5,0-0.9,0.1-1.3,0.4
		c-0.3,0.3-0.5,0.6-0.5,0.9h-1.5c0-0.4,0.1-0.8,0.4-1.2c0.3-0.4,0.7-0.7,1.2-0.9c0.5-0.2,1.1-0.3,1.7-0.3c1,0,1.7,0.2,2.3,0.7
		c0.6,0.5,0.8,1.2,0.9,2v3.9c0,0.8,0.1,1.4,0.3,1.9v0.1H304.9z M302.5,254.9c0.5,0,0.9-0.1,1.3-0.4s0.7-0.5,0.9-0.9v-1.7h-1.1
		c-1.8,0-2.7,0.5-2.7,1.6c0,0.5,0.2,0.8,0.5,1.1C301.6,254.8,302,254.9,302.5,254.9z"/>
	<path class="st3" d="M310,256h-1.4v-12h1.4V256z"/>
</g>
<g class="st2">
	<path class="st3" d="M219.4,136.4c-0.1,1.2-0.6,2.1-1.3,2.8c-0.7,0.7-1.7,1-3,1c-1.3,0-2.4-0.5-3.2-1.4c-0.8-1-1.2-2.3-1.2-3.9
		v-1.1c0-1.1,0.2-2,0.6-2.8c0.4-0.8,0.9-1.4,1.6-1.8c0.7-0.4,1.5-0.6,2.4-0.6c1.2,0,2.2,0.3,2.9,1c0.7,0.7,1.2,1.6,1.3,2.8h-1.5
		c-0.1-0.9-0.4-1.6-0.8-2c-0.4-0.4-1-0.6-1.8-0.6c-1,0-1.7,0.4-2.3,1.1c-0.5,0.7-0.8,1.7-0.8,3v1.1c0,1.2,0.3,2.2,0.8,2.9
		s1.2,1.1,2.2,1.1c0.8,0,1.5-0.2,1.9-0.6s0.7-1,0.9-2H219.4z"/>
	<path class="st3" d="M226.5,140c-0.1-0.2-0.2-0.5-0.2-0.9c-0.7,0.7-1.5,1-2.4,1c-0.8,0-1.5-0.2-2.1-0.7c-0.5-0.5-0.8-1.1-0.8-1.8
		c0-0.9,0.3-1.6,1-2.1c0.7-0.5,1.6-0.7,2.8-0.7h1.4v-0.7c0-0.5-0.2-0.9-0.5-1.2c-0.3-0.3-0.7-0.4-1.3-0.4c-0.5,0-0.9,0.1-1.3,0.4
		c-0.3,0.3-0.5,0.6-0.5,0.9h-1.5c0-0.4,0.1-0.8,0.4-1.2c0.3-0.4,0.7-0.7,1.2-0.9c0.5-0.2,1.1-0.3,1.7-0.3c1,0,1.7,0.2,2.3,0.7
		c0.6,0.5,0.8,1.2,0.9,2v3.9c0,0.8,0.1,1.4,0.3,1.9v0.1H226.5z M224.1,138.9c0.5,0,0.9-0.1,1.3-0.4s0.7-0.5,0.9-0.9v-1.7h-1.1
		c-1.8,0-2.7,0.5-2.7,1.6c0,0.5,0.2,0.8,0.5,1.1C223.2,138.8,223.6,138.9,224.1,138.9z"/>
	<path class="st3" d="M237.1,135.9c0,1.3-0.3,2.3-0.9,3.1c-0.6,0.8-1.4,1.2-2.4,1.2c-1,0-1.8-0.3-2.4-1v4.1H230v-11.7h1.3l0.1,0.9
		c0.6-0.7,1.4-1.1,2.5-1.1c1,0,1.8,0.4,2.4,1.1c0.6,0.8,0.9,1.8,0.9,3.2V135.9z M235.7,135.7c0-1-0.2-1.7-0.6-2.3s-1-0.8-1.7-0.8
		c-0.9,0-1.5,0.4-2,1.2v4c0.4,0.8,1.1,1.2,2,1.2c0.7,0,1.2-0.3,1.7-0.8C235.5,137.6,235.7,136.8,235.7,135.7z"/>
	<path class="st3" d="M244.2,140c-0.1-0.2-0.2-0.5-0.2-0.9c-0.7,0.7-1.5,1-2.4,1c-0.8,0-1.5-0.2-2.1-0.7c-0.5-0.5-0.8-1.1-0.8-1.8
		c0-0.9,0.3-1.6,1-2.1c0.7-0.5,1.6-0.7,2.8-0.7h1.4v-0.7c0-0.5-0.2-0.9-0.5-1.2c-0.3-0.3-0.7-0.4-1.3-0.4c-0.5,0-0.9,0.1-1.3,0.4
		c-0.3,0.3-0.5,0.6-0.5,0.9h-1.5c0-0.4,0.1-0.8,0.4-1.2c0.3-0.4,0.7-0.7,1.2-0.9c0.5-0.2,1.1-0.3,1.7-0.3c1,0,1.7,0.2,2.3,0.7
		c0.6,0.5,0.8,1.2,0.9,2v3.9c0,0.8,0.1,1.4,0.3,1.9v0.1H244.2z M241.8,138.9c0.5,0,0.9-0.1,1.3-0.4s0.7-0.5,0.9-0.9v-1.7h-1.1
		c-1.8,0-2.7,0.5-2.7,1.6c0,0.5,0.2,0.8,0.5,1.1C240.9,138.8,241.3,138.9,241.8,138.9z"/>
	<path class="st3" d="M256.8,140c-0.1-0.2-0.2-0.5-0.2-0.9c-0.7,0.7-1.5,1-2.4,1c-0.8,0-1.5-0.2-2.1-0.7c-0.5-0.5-0.8-1.1-0.8-1.8
		c0-0.9,0.3-1.6,1-2.1c0.7-0.5,1.6-0.7,2.8-0.7h1.4v-0.7c0-0.5-0.2-0.9-0.5-1.2c-0.3-0.3-0.7-0.4-1.3-0.4c-0.5,0-0.9,0.1-1.3,0.4
		c-0.3,0.3-0.5,0.6-0.5,0.9h-1.5c0-0.4,0.1-0.8,0.4-1.2c0.3-0.4,0.7-0.7,1.2-0.9c0.5-0.2,1.1-0.3,1.7-0.3c1,0,1.7,0.2,2.3,0.7
		c0.6,0.5,0.8,1.2,0.9,2v3.9c0,0.8,0.1,1.4,0.3,1.9v0.1H256.8z M254.4,138.9c0.5,0,0.9-0.1,1.3-0.4s0.7-0.5,0.9-0.9v-1.7h-1.1
		c-1.8,0-2.7,0.5-2.7,1.6c0,0.5,0.2,0.8,0.5,1.1C253.6,138.8,254,138.9,254.4,138.9z"/>
	<path class="st3" d="M267.4,135.9c0,1.3-0.3,2.3-0.9,3.1c-0.6,0.8-1.4,1.2-2.4,1.2c-1,0-1.8-0.3-2.4-1v4.1h-1.4v-11.7h1.3l0.1,0.9
		c0.6-0.7,1.4-1.1,2.5-1.1c1,0,1.8,0.4,2.4,1.1c0.6,0.8,0.9,1.8,0.9,3.2V135.9z M266,135.7c0-1-0.2-1.7-0.6-2.3s-1-0.8-1.7-0.8
		c-0.9,0-1.5,0.4-2,1.2v4c0.4,0.8,1.1,1.2,2,1.2c0.7,0,1.2-0.3,1.7-0.8C265.8,137.6,266,136.8,266,135.7z"/>
	<path class="st3" d="M270.9,140h-1.4v-12h1.4V140z"/>
	<path class="st3" d="M273.2,129.3c0-0.2,0.1-0.4,0.2-0.6c0.1-0.2,0.4-0.2,0.6-0.2s0.5,0.1,0.6,0.2c0.1,0.2,0.2,0.4,0.2,0.6
		s-0.1,0.4-0.2,0.6c-0.1,0.2-0.4,0.2-0.6,0.2s-0.5-0.1-0.6-0.2C273.2,129.7,273.2,129.5,273.2,129.3z M274.7,140h-1.4v-8.5h1.4V140z
		"/>
	<path class="st3" d="M280.4,139c0.5,0,1-0.2,1.4-0.5c0.4-0.3,0.6-0.7,0.6-1.2h1.4c0,0.5-0.2,0.9-0.5,1.4c-0.3,0.4-0.7,0.8-1.2,1
		c-0.5,0.3-1.1,0.4-1.6,0.4c-1.2,0-2.1-0.4-2.7-1.2s-1-1.8-1-3.2v-0.2c0-0.8,0.2-1.6,0.5-2.2c0.3-0.6,0.7-1.1,1.3-1.5
		c0.6-0.4,1.2-0.5,2-0.5c0.9,0,1.7,0.3,2.4,0.9c0.6,0.6,1,1.3,1,2.2h-1.4c0-0.5-0.2-1-0.6-1.3c-0.4-0.4-0.8-0.5-1.4-0.5
		c-0.7,0-1.3,0.3-1.7,0.8c-0.4,0.5-0.6,1.3-0.6,2.3v0.3c0,1,0.2,1.7,0.6,2.2C279.1,138.7,279.7,139,280.4,139z"/>
	<path class="st3" d="M290.6,140c-0.1-0.2-0.2-0.5-0.2-0.9c-0.7,0.7-1.5,1-2.4,1c-0.8,0-1.5-0.2-2.1-0.7c-0.5-0.5-0.8-1.1-0.8-1.8
		c0-0.9,0.3-1.6,1-2.1c0.7-0.5,1.6-0.7,2.8-0.7h1.4v-0.7c0-0.5-0.2-0.9-0.5-1.2s-0.7-0.4-1.3-0.4c-0.5,0-0.9,0.1-1.3,0.4
		c-0.3,0.3-0.5,0.6-0.5,0.9h-1.5c0-0.4,0.1-0.8,0.4-1.2c0.3-0.4,0.7-0.7,1.2-0.9c0.5-0.2,1.1-0.3,1.7-0.3c1,0,1.7,0.2,2.3,0.7
		s0.8,1.2,0.9,2v3.9c0,0.8,0.1,1.4,0.3,1.9v0.1H290.6z M288.2,138.9c0.5,0,0.9-0.1,1.3-0.4s0.7-0.5,0.9-0.9v-1.7h-1.1
		c-1.8,0-2.7,0.5-2.7,1.6c0,0.5,0.2,0.8,0.5,1.1C287.4,138.8,287.8,138.9,288.2,138.9z"/>
	<path class="st3" d="M297.5,139c0.5,0,1-0.2,1.4-0.5s0.6-0.7,0.6-1.2h1.4c0,0.5-0.2,0.9-0.5,1.4s-0.7,0.8-1.2,1s-1.1,0.4-1.6,0.4
		c-1.2,0-2.1-0.4-2.7-1.2s-1-1.8-1-3.2v-0.2c0-0.8,0.2-1.6,0.5-2.2s0.7-1.1,1.3-1.5s1.2-0.5,2-0.5c0.9,0,1.7,0.3,2.4,0.9
		s1,1.3,1,2.2h-1.4c0-0.5-0.2-1-0.6-1.3s-0.8-0.5-1.4-0.5c-0.7,0-1.3,0.3-1.7,0.8s-0.6,1.3-0.6,2.3v0.3c0,1,0.2,1.7,0.6,2.2
		S296.8,139,297.5,139z"/>
	<path class="st3" d="M302.5,129.3c0-0.2,0.1-0.4,0.2-0.6s0.4-0.2,0.6-0.2s0.5,0.1,0.6,0.2s0.2,0.4,0.2,0.6s-0.1,0.4-0.2,0.6
		s-0.4,0.2-0.6,0.2s-0.5-0.1-0.6-0.2S302.5,129.5,302.5,129.3z M304.1,140h-1.4v-8.5h1.4V140z"/>
	<path class="st3" d="M306,135.7c0-0.8,0.2-1.6,0.5-2.2s0.8-1.2,1.4-1.5s1.2-0.5,2-0.5c1.2,0,2.1,0.4,2.8,1.2s1.1,1.9,1.1,3.2v0.1
		c0,0.8-0.2,1.6-0.5,2.2s-0.8,1.2-1.4,1.5s-1.3,0.5-2,0.5c-1.1,0-2.1-0.4-2.8-1.2s-1.1-1.9-1.1-3.2V135.7z M307.5,135.9
		c0,0.9,0.2,1.7,0.7,2.3s1,0.9,1.7,0.9c0.7,0,1.3-0.3,1.8-0.9s0.6-1.4,0.6-2.4c0-0.9-0.2-1.7-0.7-2.3s-1-0.9-1.8-0.9
		c-0.7,0-1.3,0.3-1.7,0.9S307.5,134.8,307.5,135.9z M310.5,128h1.8l-2.1,2.3l-1.2,0L310.5,128z"/>
	<path class="st3" d="M316.9,131.5l0,1.1c0.6-0.8,1.5-1.2,2.5-1.2c1.8,0,2.7,1,2.7,3v5.6h-1.4v-5.6c0-0.6-0.1-1.1-0.4-1.4
		s-0.7-0.4-1.3-0.4c-0.5,0-0.9,0.1-1.2,0.4s-0.6,0.6-0.8,1v6h-1.4v-8.5H316.9z"/>
</g>
<g class="st2">
	<path class="st3" d="M229.6,176.4c-0.1,1.2-0.6,2.1-1.3,2.8c-0.7,0.7-1.7,1-3,1c-1.3,0-2.4-0.5-3.2-1.4c-0.8-1-1.2-2.3-1.2-3.9
		v-1.1c0-1.1,0.2-2,0.6-2.8c0.4-0.8,0.9-1.4,1.6-1.8c0.7-0.4,1.5-0.6,2.4-0.6c1.2,0,2.2,0.3,2.9,1c0.7,0.7,1.2,1.6,1.3,2.8h-1.5
		c-0.1-0.9-0.4-1.6-0.8-2c-0.4-0.4-1-0.6-1.8-0.6c-1,0-1.7,0.4-2.3,1.1c-0.5,0.7-0.8,1.7-0.8,3v1.1c0,1.2,0.3,2.2,0.8,2.9
		s1.2,1.1,2.2,1.1c0.8,0,1.5-0.2,1.9-0.6s0.7-1,0.9-2H229.6z"/>
	<path class="st3" d="M236.6,180c-0.1-0.2-0.2-0.5-0.2-0.9c-0.7,0.7-1.5,1-2.4,1c-0.8,0-1.5-0.2-2.1-0.7c-0.5-0.5-0.8-1.1-0.8-1.8
		c0-0.9,0.3-1.6,1-2.1c0.7-0.5,1.6-0.7,2.8-0.7h1.4v-0.7c0-0.5-0.2-0.9-0.5-1.2c-0.3-0.3-0.7-0.4-1.3-0.4c-0.5,0-0.9,0.1-1.3,0.4
		c-0.3,0.3-0.5,0.6-0.5,0.9h-1.5c0-0.4,0.1-0.8,0.4-1.2c0.3-0.4,0.7-0.7,1.2-0.9c0.5-0.2,1.1-0.3,1.7-0.3c1,0,1.7,0.2,2.3,0.7
		c0.6,0.5,0.8,1.2,0.9,2v3.9c0,0.8,0.1,1.4,0.3,1.9v0.1H236.6z M234.2,178.9c0.5,0,0.9-0.1,1.3-0.4s0.7-0.5,0.9-0.9v-1.7h-1.1
		c-1.8,0-2.7,0.5-2.7,1.6c0,0.5,0.2,0.8,0.5,1.1C233.4,178.8,233.8,178.9,234.2,178.9z"/>
	<path class="st3" d="M247.2,175.9c0,1.3-0.3,2.3-0.9,3.1c-0.6,0.8-1.4,1.2-2.4,1.2c-1,0-1.8-0.3-2.4-1v4.1h-1.4v-11.7h1.3l0.1,0.9
		c0.6-0.7,1.4-1.1,2.5-1.1c1,0,1.8,0.4,2.4,1.1c0.6,0.8,0.9,1.8,0.9,3.2V175.9z M245.8,175.7c0-1-0.2-1.7-0.6-2.3s-1-0.8-1.7-0.8
		c-0.9,0-1.5,0.4-2,1.2v4c0.4,0.8,1.1,1.2,2,1.2c0.7,0,1.2-0.3,1.7-0.8C245.6,177.6,245.8,176.8,245.8,175.7z"/>
	<path class="st3" d="M254.3,180c-0.1-0.2-0.2-0.5-0.2-0.9c-0.7,0.7-1.5,1-2.4,1c-0.8,0-1.5-0.2-2.1-0.7c-0.5-0.5-0.8-1.1-0.8-1.8
		c0-0.9,0.3-1.6,1-2.1c0.7-0.5,1.6-0.7,2.8-0.7h1.4v-0.7c0-0.5-0.2-0.9-0.5-1.2c-0.3-0.3-0.7-0.4-1.3-0.4c-0.5,0-0.9,0.1-1.3,0.4
		c-0.3,0.3-0.5,0.6-0.5,0.9H249c0-0.4,0.1-0.8,0.4-1.2c0.3-0.4,0.7-0.7,1.2-0.9c0.5-0.2,1.1-0.3,1.7-0.3c1,0,1.7,0.2,2.3,0.7
		c0.6,0.5,0.8,1.2,0.9,2v3.9c0,0.8,0.1,1.4,0.3,1.9v0.1H254.3z M251.9,178.9c0.5,0,0.9-0.1,1.3-0.4s0.7-0.5,0.9-0.9v-1.7h-1.1
		c-1.8,0-2.7,0.5-2.7,1.6c0,0.5,0.2,0.8,0.5,1.1C251,178.8,251.4,178.9,251.9,178.9z"/>
	<path class="st3" d="M267,179.2c-0.6,0.7-1.4,1-2.5,1c-0.9,0-1.6-0.3-2.1-0.8c-0.5-0.5-0.7-1.3-0.7-2.3v-5.5h1.4v5.5
		c0,1.3,0.5,1.9,1.6,1.9c1.1,0,1.8-0.4,2.2-1.2v-6.1h1.4v8.5H267L267,179.2z"/>
	<path class="st3" d="M272.5,169.5v2h1.6v1.1h-1.6v5.2c0,0.3,0.1,0.6,0.2,0.8c0.1,0.2,0.4,0.3,0.7,0.3c0.2,0,0.4,0,0.7-0.1v1.2
		c-0.4,0.1-0.8,0.2-1.1,0.2c-0.6,0-1.1-0.2-1.5-0.6s-0.5-0.9-0.5-1.7v-5.2h-1.5v-1.1h1.5v-2H272.5z"/>
	<path class="st3" d="M275.8,169.3c0-0.2,0.1-0.4,0.2-0.6c0.1-0.2,0.4-0.2,0.6-0.2s0.5,0.1,0.6,0.2c0.1,0.2,0.2,0.4,0.2,0.6
		s-0.1,0.4-0.2,0.6c-0.1,0.2-0.4,0.2-0.6,0.2s-0.5-0.1-0.6-0.2C275.9,169.7,275.8,169.5,275.8,169.3z M277.4,180h-1.4v-8.5h1.4V180z
		"/>
	<path class="st3" d="M281.2,180h-1.4v-12h1.4V180z"/>
	<path class="st3" d="M283.6,169.3c0-0.2,0.1-0.4,0.2-0.6c0.1-0.2,0.4-0.2,0.6-0.2s0.5,0.1,0.6,0.2c0.1,0.2,0.2,0.4,0.2,0.6
		s-0.1,0.4-0.2,0.6c-0.1,0.2-0.4,0.2-0.6,0.2s-0.5-0.1-0.6-0.2C283.6,169.7,283.6,169.5,283.6,169.3z M285.1,180h-1.4v-8.5h1.4V180z
		"/>
	<path class="st3" d="M287.1,175.7c0-1.3,0.3-2.3,0.9-3.1c0.6-0.8,1.4-1.2,2.4-1.2c1,0,1.8,0.3,2.4,1V168h1.4v12h-1.3l-0.1-0.9
		c-0.6,0.7-1.4,1.1-2.4,1.1c-1,0-1.8-0.4-2.4-1.2s-0.9-1.8-0.9-3.1V175.7z M288.5,175.9c0,1,0.2,1.7,0.6,2.2s0.9,0.8,1.6,0.8
		c0.9,0,1.6-0.4,2-1.2v-3.9c-0.4-0.8-1.1-1.2-2-1.2c-0.7,0-1.3,0.3-1.7,0.8S288.5,174.8,288.5,175.9z"/>
	<path class="st3" d="M301.7,180c-0.1-0.2-0.2-0.5-0.2-0.9c-0.7,0.7-1.5,1-2.4,1c-0.8,0-1.5-0.2-2.1-0.7s-0.8-1.1-0.8-1.8
		c0-0.9,0.3-1.6,1-2.1s1.6-0.7,2.8-0.7h1.4v-0.7c0-0.5-0.2-0.9-0.5-1.2s-0.7-0.4-1.3-0.4c-0.5,0-0.9,0.1-1.3,0.4s-0.5,0.6-0.5,0.9
		h-1.5c0-0.4,0.1-0.8,0.4-1.2s0.7-0.7,1.2-0.9s1.1-0.3,1.7-0.3c1,0,1.7,0.2,2.3,0.7s0.8,1.2,0.9,2v3.9c0,0.8,0.1,1.4,0.3,1.9v0.1
		H301.7z M299.3,178.9c0.5,0,0.9-0.1,1.3-0.4s0.7-0.5,0.9-0.9v-1.7h-1.1c-1.8,0-2.7,0.5-2.7,1.6c0,0.5,0.2,0.8,0.5,1.1
		S298.8,178.9,299.3,178.9z"/>
	<path class="st3" d="M304.8,175.7c0-1.3,0.3-2.3,0.9-3.1s1.4-1.2,2.4-1.2c1,0,1.8,0.3,2.4,1V168h1.4v12h-1.3l-0.1-0.9
		c-0.6,0.7-1.4,1.1-2.4,1.1c-1,0-1.8-0.4-2.4-1.2s-0.9-1.8-0.9-3.1V175.7z M306.3,175.9c0,1,0.2,1.7,0.6,2.2s0.9,0.8,1.6,0.8
		c0.9,0,1.6-0.4,2-1.2v-3.9c-0.4-0.8-1.1-1.2-2-1.2c-0.7,0-1.3,0.3-1.7,0.8S306.3,174.8,306.3,175.9z"/>
</g>
<path id="Rectángulo_45072" class="st9" d="M261,282h8c1.7,0,3,1.3,3,3v8c0,1.7-1.3,3-3,3h-8c-1.7,0-3-1.3-3-3v-8
	C258,283.3,259.3,282,261,282z"/>
<path id="Rectángulo_45076" class="st9" d="M221,308h8c1.7,0,3,1.3,3,3v8c0,1.7-1.3,3-3,3h-8c-1.7,0-3-1.3-3-3v-8
	C218,309.3,219.3,308,221,308z"/>
<path id="Rectángulo_45081" class="st9" d="M160,307h8c1.7,0,3,1.3,3,3v8c0,1.7-1.3,3-3,3h-8c-1.7,0-3-1.3-3-3v-8
	C157,308.3,158.3,307,160,307z"/>
<path id="Rectángulo_45082" class="st9" d="M147,278h8c1.7,0,3,1.3,3,3v8c0,1.7-1.3,3-3,3h-8c-1.7,0-3-1.3-3-3v-8
	C144,279.3,145.3,278,147,278z"/>
<path id="Rectángulo_45083" class="st9" d="M142,244h8c1.7,0,3,1.3,3,3v8c0,1.7-1.3,3-3,3h-8c-1.7,0-3-1.3-3-3v-8
	C139,245.3,140.3,244,142,244z"/>
<path id="Rectángulo_45084" class="st9" d="M147,209h8c1.7,0,3,1.3,3,3v8c0,1.7-1.3,3-3,3h-8c-1.7,0-3-1.3-3-3v-8
	C144,210.3,145.3,209,147,209z"/>
<path id="Rectángulo_45085" class="st9" d="M160,180h8c1.7,0,3,1.3,3,3v8c0,1.7-1.3,3-3,3h-8c-1.7,0-3-1.3-3-3v-8
	C157,181.3,158.3,180,160,180z"/>
<path id="Rectángulo_45086" class="st9" d="M99,205h8c1.7,0,3,1.3,3,3v8c0,1.7-1.3,3-3,3h-8c-1.7,0-3-1.3-3-3v-8
	C96,206.3,97.3,205,99,205z"/>
<path id="Rectángulo_45087" class="st9" d="M108,176h8c1.7,0,3,1.3,3,3v8c0,1.7-1.3,3-3,3h-8c-1.7,0-3-1.3-3-3v-8
	C105,177.3,106.3,176,108,176z"/>
<path id="Rectángulo_45088" class="st9" d="M122,149h8c1.7,0,3,1.3,3,3v8c0,1.7-1.3,3-3,3h-8c-1.7,0-3-1.3-3-3v-8
	C119,150.3,120.3,149,122,149z"/>
<path id="Rectángulo_45089" class="st9" d="M139,128h8c1.7,0,3,1.3,3,3v8c0,1.7-1.3,3-3,3h-8c-1.7,0-3-1.3-3-3v-8
	C136,129.3,137.3,128,139,128z"/>
<path id="Rectángulo_45090" class="st9" d="M160,109h8c1.7,0,3,1.3,3,3v8c0,1.7-1.3,3-3,3h-8c-1.7,0-3-1.3-3-3v-8
	C157,110.3,158.3,109,160,109z"/>
<path id="Rectángulo_45078" class="st9" d="M189,271h8c1.7,0,3,1.3,3,3v8c0,1.7-1.3,3-3,3h-8c-1.7,0-3-1.3-3-3v-8
	C186,272.3,187.3,271,189,271z"/>
<path id="Rectángulo_45077" class="st9" d="M202,292h8c1.7,0,3,1.3,3,3v8c0,1.7-1.3,3-3,3h-8c-1.7,0-3-1.3-3-3v-8
	C199,293.3,200.3,292,202,292z"/>
<path id="Rectángulo_45079" class="st9" d="M183,245h8c1.7,0,3,1.3,3,3v8c0,1.7-1.3,3-3,3h-8c-1.7,0-3-1.3-3-3v-8
	C180,246.3,181.3,245,183,245z"/>
<path id="Rectángulo_45075" class="st9" d="M286,273h8c1.7,0,3,1.3,3,3v8c0,1.7-1.3,3-3,3h-8c-1.7,0-3-1.3-3-3v-8
	C283,274.3,284.3,273,286,273z"/>
<path id="Rectángulo_45074" class="st9" d="M238,273h8c1.7,0,3,1.3,3,3v8c0,1.7-1.3,3-3,3h-8c-1.7,0-3-1.3-3-3v-8
	C235,274.3,236.3,273,238,273z"/>
<path id="Trazado_215446" class="st10" d="M276.2,297l168,51.6l-148-65.6"/>
<path id="Trazado_215447" class="st10" d="M198,306l-20.2,78l39.2-60.8"/>
<path id="Trazado_215448" class="st10" d="M153,314l-33.8,8.2"/>
<path id="Trazado_215449" class="st10" d="M157,109l-21-27.7"/>
<path id="Trazado_215450" class="st10" d="M136,128l-5.2-42.8"/>
<path id="Trazado_215451" class="st10" d="M119,149l4.1-63.8"/>
</svg>
