<svg xmlns="http://www.w3.org/2000/svg" width="710.464" height="406.197" viewBox="0 0 710.464 406.197">
  <g id="Grupo_106860" data-name="Grupo 106860" transform="translate(-704.5 -1966.7)">
    <g id="Grupo_104328" data-name="Grupo 104328" transform="translate(662.144 1925.145)">
      <g id="Background_Complete" data-name="Background Complete">
        <g id="Grupo_104237" data-name="Grupo 104237">
          <rect id="Rectángulo_45137" data-name="Rectángulo 45137" width="26.481" height="11.19" transform="translate(665.891 293.034)" fill="none" stroke="#ebebeb" stroke-miterlimit="10" stroke-width="1"/>
          <rect id="Rectángulo_45138" data-name="Rectángulo 45138" width="26.481" height="11.19" transform="translate(651.12 307.144)" fill="none" stroke="#ebebeb" stroke-miterlimit="10" stroke-width="1"/>
          <rect id="Rectángulo_45139" data-name="Rectángulo 45139" width="26.48" height="11.19" transform="translate(680.663 307.144)" fill="none" stroke="#ebebeb" stroke-miterlimit="10" stroke-width="1"/>
          <rect id="Rectángulo_45140" data-name="Rectángulo 45140" width="26.481" height="11.19" transform="translate(288.312 159.877)" fill="none" stroke="#ebebeb" stroke-miterlimit="10" stroke-width="1"/>
          <rect id="Rectángulo_45141" data-name="Rectángulo 45141" width="26.481" height="11.19" transform="translate(273.54 173.987)" fill="none" stroke="#ebebeb" stroke-miterlimit="10" stroke-width="1"/>
          <rect id="Rectángulo_45142" data-name="Rectángulo 45142" width="26.481" height="11.19" transform="translate(303.083 173.987)" fill="none" stroke="#ebebeb" stroke-miterlimit="10" stroke-width="1"/>
          <rect id="Rectángulo_45143" data-name="Rectángulo 45143" width="26.48" height="11.19" transform="translate(72.4 233.917)" fill="none" stroke="#ebebeb" stroke-miterlimit="10" stroke-width="1"/>
          <rect id="Rectángulo_45144" data-name="Rectángulo 45144" width="26.481" height="11.19" transform="translate(511.381 159.869)" fill="none" stroke="#ebebeb" stroke-miterlimit="10" stroke-width="1"/>
          <rect id="Rectángulo_45145" data-name="Rectángulo 45145" width="26.481" height="11.19" transform="translate(664.36 51.19)" fill="none" stroke="#ebebeb" stroke-miterlimit="10" stroke-width="1"/>
          <rect id="Rectángulo_45146" data-name="Rectángulo 45146" width="26.481" height="11.19" transform="translate(679.132 65.299)" fill="none" stroke="#ebebeb" stroke-miterlimit="10" stroke-width="1"/>
          <rect id="Rectángulo_45147" data-name="Rectángulo 45147" width="26.481" height="11.19" transform="translate(42.856 51.202)" fill="none" stroke="#ebebeb" stroke-miterlimit="10" stroke-width="1"/>
        </g>
        <g id="Grupo_104242" data-name="Grupo 104242" transform="translate(55 1)">
          <path id="Trazado_215781" data-name="Trazado 215781" d="M61.288,145.654a2.661,2.661,0,0,1,2.787.019q.351.211.714.407c.245.131.492.256.74.373a2.651,2.651,0,0,1,1.553,2.3l.106,3.427,11.163-.347-.106-3.426a2.659,2.659,0,0,1,1.4-2.408,15.528,15.528,0,0,0,1.416-.874,2.654,2.654,0,0,1,2.771-.178l3.014,1.617,5.28-9.846L89.114,135.1a2.654,2.654,0,0,1-1.385-2.407,15.627,15.627,0,0,0-.055-1.663,2.656,2.656,0,0,1,1.23-2.5l2.912-1.807-5.887-9.491L83,119.051a2.649,2.649,0,0,1-2.773-.021q-.351-.211-.715-.407c-.243-.13-.487-.253-.734-.37a2.657,2.657,0,0,1-1.557-2.31l-.1-3.43-11.163.347.108,3.417a2.655,2.655,0,0,1-1.4,2.409,15.783,15.783,0,0,0-1.42.879,2.653,2.653,0,0,1-2.774.179l-3.012-1.615-5.281,9.845,3.013,1.616A2.652,2.652,0,0,1,56.578,132a15.235,15.235,0,0,0,.053,1.67,2.657,2.657,0,0,1-1.233,2.5l-2.906,1.8,5.887,9.49Zm2.8-17.628A9.148,9.148,0,1,1,67.83,140.41,9.156,9.156,0,0,1,64.086,128.026Z" fill="#ebebeb"/>
          <path id="Trazado_215782" data-name="Trazado 215782" d="M594.871,355.887a1.866,1.866,0,0,1,.91,1.727c-.01.191-.014.383-.014.576s0,.389.014.581a1.86,1.86,0,0,1-.907,1.721l-2.081,1.2,3.91,6.777,2.08-1.2a1.859,1.859,0,0,1,1.951.069,10.831,10.831,0,0,0,1.008.584,1.859,1.859,0,0,1,1.028,1.653v2.395H610.6v-2.395a1.86,1.86,0,0,1,1.027-1.653,10.848,10.848,0,0,0,1.009-.584,1.859,1.859,0,0,1,1.951-.069l2.08,1.2,3.91-6.777-2.089-1.207a1.855,1.855,0,0,1-.906-1.719q.015-.286.015-.576t-.015-.576a1.864,1.864,0,0,1,.911-1.726l2.084-1.2-3.91-6.777-2.075,1.2a1.857,1.857,0,0,1-1.95-.066,10.686,10.686,0,0,0-1.013-.585,1.86,1.86,0,0,1-1.029-1.653v-2.4H602.77v2.4a1.86,1.86,0,0,1-1.029,1.653,10.834,10.834,0,0,0-1.014.585,1.857,1.857,0,0,1-1.95.066l-2.074-1.2-3.91,6.777Zm11.809-4.109a6.409,6.409,0,1,1-6.406,6.412A6.415,6.415,0,0,1,606.68,351.778Z" fill="#ebebeb"/>
          <g id="Grupo_104239" data-name="Grupo 104239">
            <g id="Grupo_104238" data-name="Grupo 104238">
              <path id="Trazado_215783" data-name="Trazado 215783" d="M629.63,308.5A30.471,30.471,0,1,0,660.1,278.025,30.476,30.476,0,0,0,629.63,308.5Zm16.237,0A14.234,14.234,0,1,1,660.1,322.723,14.234,14.234,0,0,1,645.867,308.5Z" fill="#ebebeb"/>
              <path id="Trazado_215784" data-name="Trazado 215784" d="M654.243,279.288h11.718l-.648-8.295H654.891Z" fill="#ebebeb"/>
              <path id="Trazado_215785" data-name="Trazado 215785" d="M676.546,283.236l8.286,8.286,5.407-6.323-7.37-7.37Z" fill="#ebebeb"/>
              <path id="Trazado_215786" data-name="Trazado 215786" d="M689.526,301.8v11.718l8.295-.648V302.447Z" fill="#ebebeb"/>
              <path id="Trazado_215787" data-name="Trazado 215787" d="M685.578,324.1l-8.286,8.286,6.323,5.407,7.37-7.37Z" fill="#ebebeb"/>
              <path id="Trazado_215788" data-name="Trazado 215788" d="M667.015,337.082H655.3l.648,8.295h10.422Z" fill="#ebebeb"/>
              <path id="Trazado_215789" data-name="Trazado 215789" d="M644.711,333.134l-8.286-8.286-5.407,6.323,7.37,7.37Z" fill="#ebebeb"/>
              <path id="Trazado_215790" data-name="Trazado 215790" d="M631.732,314.571V302.853l-8.295.648v10.422Z" fill="#ebebeb"/>
              <path id="Trazado_215791" data-name="Trazado 215791" d="M635.68,292.267l8.286-8.286-6.323-5.407-7.37,7.37Z" fill="#ebebeb"/>
            </g>
          </g>
          <g id="Grupo_104240" data-name="Grupo 104240">
            <path id="Trazado_215792" data-name="Trazado 215792" d="M639.81,110.96c-2.581.582-4.58-1-4.58-3.416a3.5,3.5,0,0,1,2.332-3.414c8.076-2.5,9.243-5.08,9.243-10.742,0-1.666-.167-4.413-.167-6.162,0-6.495,3.081-9.576,8.661-11.407-5.5-1.75-8.661-4.914-8.661-11.409,0-1.749.167-4.5.167-6.163,0-5.662-1.167-8.244-9.243-10.742a3.5,3.5,0,0,1-2.332-3.414c0-2.414,2-4,4.58-3.414,12.907,2.831,16.321,7.994,16.321,16.072,0,1.249-.167,4.58-.167,5.995,0,6.162,2.165,8.828,7.828,9.077,2.665.166,4.246,1.748,4.246,4s-1.581,3.829-4.246,4c-5.663.166-7.828,2.915-7.828,8.994,0,1.415.167,4.746.167,5.994C656.131,102.965,652.717,108.128,639.81,110.96Z" fill="#ebebeb"/>
            <path id="Trazado_215793" data-name="Trazado 215793" d="M623.655,40.677c2.581-.583,4.58,1,4.58,3.414a3.459,3.459,0,0,1-2.415,3.414c-7.995,2.5-9.16,5.08-9.16,10.742,0,1.666.166,4.414.166,6.163,0,6.495-3.08,9.576-8.66,11.409,5.5,1.747,8.66,4.912,8.66,11.407,0,1.749-.166,4.5-.166,6.162,0,5.662,1.165,8.245,9.16,10.742a3.46,3.46,0,0,1,2.415,3.414c0,2.416-2,4-4.58,3.416-12.907-2.832-16.321-8-16.321-16.157,0-1.248.167-4.579.167-5.994,0-6.079-2.249-8.828-7.912-8.994-2.581-.167-4.164-1.748-4.164-4s1.583-3.832,4.164-4c5.663-.249,7.912-2.915,7.912-9.077,0-1.415-.167-4.746-.167-5.995C607.334,48.671,610.748,43.508,623.655,40.677Z" fill="#ebebeb"/>
          </g>
          <g id="Grupo_104241" data-name="Grupo 104241">
            <path id="Trazado_215794" data-name="Trazado 215794" d="M95.294,231.338a3.393,3.393,0,0,1-2.366,5.816,3.6,3.6,0,0,1-2.478-.969l-15.132-15.35c-.166-.052-.218-.161-.271-.322a.654.654,0,0,0-.164-.11,1.423,1.423,0,0,1-.159-.431.282.282,0,0,1-.164-.215c-.054-.107-.054-.269-.106-.323,0-.16-.113-.214-.113-.269v-.377c0-.108-.052-.16-.052-.321,0-.057.052-.219.052-.271v-.375c0-.11.113-.162.113-.218.052-.162.052-.267.106-.433,0-.051.052-.051.052-.1a4.723,4.723,0,0,1,.271-.484.107.107,0,0,1,.112-.108.928.928,0,0,1,.323-.377L90.45,200.747a3.505,3.505,0,0,1,4.844,0,3.4,3.4,0,0,1,0,4.847l-12.76,12.873Z" fill="#ebebeb"/>
            <path id="Trazado_215795" data-name="Trazado 215795" d="M109.013,233.061l13.195-31.4a2.981,2.981,0,0,1,3.927-1.558,2.9,2.9,0,0,1,1.51,3.823l-13.194,31.454a2.991,2.991,0,0,1-2.749,1.776,2.557,2.557,0,0,1-1.074-.214A2.911,2.911,0,0,1,109.013,233.061Z" fill="#ebebeb"/>
            <path id="Trazado_215796" data-name="Trazado 215796" d="M153.7,220.4a.052.052,0,0,1-.054.053,2.548,2.548,0,0,1-.383.379l-15.131,15.35a3.511,3.511,0,0,1-4.844,0,3.4,3.4,0,0,1,0-4.847l12.759-12.871-12.759-12.873a3.4,3.4,0,0,1,0-4.847,3.505,3.505,0,0,1,4.844,0L153.267,216.1a2.365,2.365,0,0,1,.383.377c.054,0,.054.108.054.108.1.214.21.323.27.484,0,.054.052.054.052.1a2.609,2.609,0,0,0,.158.489c0,.052.053.052.053.162v.375c0,.052.06.214.06.271s-.06.213-.06.266v.432c0,.055-.053.055-.053.109-.105.214-.105.376-.158.483,0,.053-.052.053-.052.162C153.914,220.028,153.808,220.19,153.7,220.4Z" fill="#ebebeb"/>
          </g>
        </g>
      </g>
      <g id="Floor">
        <path id="Trazado_215797" data-name="Trazado 215797" d="M50.72,447.254l81.07-.243,81.07-.088L375,446.755l162.14.167,81.07.088,81.07.245-81.07.245-81.07.088L375,447.753l-162.14-.168-81.07-.088Z" fill="#263238"/>
      </g>
      <g id="Device">
        <g id="Grupo_104249" data-name="Grupo 104249">
          <rect id="Rectángulo_45148" data-name="Rectángulo 45148" width="607.034" height="22.11" transform="translate(71.483 425.144)" fill="#c7c7c7"/>
          <rect id="Rectángulo_45149" data-name="Rectángulo 45149" width="481.586" height="322.146" transform="translate(134.207 102.998)" fill="#dbdbdb"/>
          <rect id="Rectángulo_45150" data-name="Rectángulo 45150" width="536.586" height="314.287" transform="translate(137.707 106.928)" fill="#37474f"/>
          <g id="Grupo_104248" data-name="Grupo 104248">
            <rect id="Rectángulo_45151" data-name="Rectángulo 45151" width="492.777" height="273.882" transform="translate(166.171 127.13)" fill="#263238"/>
            <g id="Grupo_104244" data-name="Grupo 104244" transform="translate(166.171 127.13)">
              <rect id="Rectángulo_45152" data-name="Rectángulo 45152" width="52.055" height="10.539" fill="#ffc727"/>
              <g id="Grupo_104243" data-name="Grupo 104243" transform="translate(0.714 3.275)">
                <path id="Trazado_215798" data-name="Trazado 215798" d="M167.365,132.4a4.343,4.343,0,0,1-.24,1.994,8.407,8.407,0,0,1,0-3.989A4.346,4.346,0,0,1,167.365,132.4Z" transform="translate(-166.885 -130.405)" fill="#c7c7c7"/>
                <path id="Trazado_215799" data-name="Trazado 215799" d="M168.345,132.4a4.343,4.343,0,0,1-.24,1.994,8.408,8.408,0,0,1,0-3.989A4.346,4.346,0,0,1,168.345,132.4Z" transform="translate(-166.885 -130.405)" fill="#fff"/>
                <path id="Trazado_215800" data-name="Trazado 215800" d="M169.325,132.4a4.343,4.343,0,0,1-.24,1.994,8.407,8.407,0,0,1,0-3.989A4.346,4.346,0,0,1,169.325,132.4Z" transform="translate(-166.885 -130.405)" fill="#455a64"/>
              </g>
            </g>
            <g id="Grupo_104247" data-name="Grupo 104247" transform="translate(184.411 160.732)">
              <g id="Grupo_104245" data-name="Grupo 104245" transform="translate(0 23.76)">
                <rect id="Rectángulo_45153" data-name="Rectángulo 45153" width="1.196" height="1.945" fill="#ebebeb"/>
                <rect id="Rectángulo_45154" data-name="Rectángulo 45154" width="26.512" height="1.945" transform="translate(2.607)" fill="#ebebeb"/>
                <rect id="Rectángulo_45155" data-name="Rectángulo 45155" width="2.272" height="1.945" transform="translate(29.854)" fill="#ffc727"/>
                <rect id="Rectángulo_45156" data-name="Rectángulo 45156" width="7.668" height="1.945" transform="translate(33.49 45.957)" fill="#ebebeb"/>
                <rect id="Rectángulo_45157" data-name="Rectángulo 45157" width="11.256" height="1.945" transform="translate(32.62)" fill="#a6a6a6"/>
                <rect id="Rectángulo_45158" data-name="Rectángulo 45158" width="1.196" height="1.945" transform="translate(0 9.191)" fill="#ebebeb"/>
                <rect id="Rectángulo_45159" data-name="Rectángulo 45159" width="9.003" height="1.945" transform="translate(3.773 9.191)" fill="#a6a6a6"/>
                <rect id="Rectángulo_45160" data-name="Rectángulo 45160" width="3.406" height="1.945" transform="translate(29.544 45.957)" fill="#a6a6a6"/>
                <rect id="Rectángulo_45161" data-name="Rectángulo 45161" width="8.6" height="1.945" transform="translate(2.607 36.766)" fill="#a6a6a6"/>
                <rect id="Rectángulo_45162" data-name="Rectángulo 45162" width="6.033" height="1.945" transform="translate(3.773 18.383)" fill="#ffc727"/>
                <rect id="Rectángulo_45163" data-name="Rectángulo 45163" width="11.429" height="1.945" transform="translate(31.373 27.574)" fill="#a6a6a6"/>
                <rect id="Rectángulo_45164" data-name="Rectángulo 45164" width="11.429" height="1.945" transform="translate(17.69 72.685)" fill="#a6a6a6"/>
                <rect id="Rectángulo_45165" data-name="Rectángulo 45165" width="22.427" height="1.945" transform="translate(10.476 18.383)" fill="#a6a6a6"/>
                <rect id="Rectángulo_45166" data-name="Rectángulo 45166" width="26.159" height="1.945" transform="translate(2.607 45.957)" fill="#ffc727"/>
                <rect id="Rectángulo_45167" data-name="Rectángulo 45167" width="18.53" height="1.945" transform="translate(13.342 9.191)" fill="#ebebeb"/>
                <rect id="Rectángulo_45168" data-name="Rectángulo 45168" width="3.879" height="1.945" transform="translate(33.861 18.383)" fill="#ebebeb"/>
                <rect id="Rectángulo_45169" data-name="Rectángulo 45169" width="1.196" height="1.945" transform="translate(0 18.383)" fill="#ebebeb"/>
                <rect id="Rectángulo_45170" data-name="Rectángulo 45170" width="1.196" height="1.945" transform="translate(0 27.574)" fill="#a6a6a6"/>
                <rect id="Rectángulo_45171" data-name="Rectángulo 45171" width="7.068" height="1.945" transform="translate(2.607 27.574)" fill="#ebebeb"/>
                <rect id="Rectángulo_45172" data-name="Rectángulo 45172" width="7.068" height="1.945" transform="translate(3.773 55.148)" fill="#ebebeb"/>
                <rect id="Rectángulo_45173" data-name="Rectángulo 45173" width="9.868" height="1.945" transform="translate(29.746 64.339)" fill="#ffc727"/>
                <rect id="Rectángulo_45174" data-name="Rectángulo 45174" width="18.963" height="1.945" transform="translate(10.165 64.339)" fill="#ebebeb"/>
                <rect id="Rectángulo_45175" data-name="Rectángulo 45175" width="5.313" height="1.945" transform="translate(3.773 64.339)" fill="#a6a6a6"/>
                <rect id="Rectángulo_45176" data-name="Rectángulo 45176" width="20.432" height="1.945" transform="translate(11.694 36.766)" fill="#ebebeb"/>
                <rect id="Rectángulo_45177" data-name="Rectángulo 45177" width="12.19" height="1.945" transform="translate(32.62 36.766)" fill="#ffc727"/>
                <rect id="Rectángulo_45178" data-name="Rectángulo 45178" width="20.423" height="1.945" transform="translate(10.394 27.574)" fill="#ffc727"/>
                <rect id="Rectángulo_45179" data-name="Rectángulo 45179" width="1.196" height="1.945" transform="translate(0 36.766)" fill="#ebebeb"/>
                <rect id="Rectángulo_45180" data-name="Rectángulo 45180" width="1.196" height="1.945" transform="translate(0 45.957)" fill="#ebebeb"/>
                <rect id="Rectángulo_45181" data-name="Rectángulo 45181" width="1.196" height="1.945" transform="translate(0 55.148)" fill="#a6a6a6"/>
                <rect id="Rectángulo_45182" data-name="Rectángulo 45182" width="1.196" height="1.945" transform="translate(0 64.339)" fill="#ebebeb"/>
                <rect id="Rectángulo_45183" data-name="Rectángulo 45183" width="1.196" height="1.945" transform="translate(0 72.685)" fill="#ebebeb"/>
                <rect id="Rectángulo_45184" data-name="Rectángulo 45184" width="14.024" height="1.945" transform="translate(2.607 72.685)" fill="#ebebeb"/>
                <rect id="Rectángulo_45185" data-name="Rectángulo 45185" width="1.196" height="1.945" transform="translate(0 81.876)" fill="#ebebeb"/>
                <rect id="Rectángulo_45186" data-name="Rectángulo 45186" width="9.003" height="1.945" transform="translate(3.773 81.876)" fill="#a6a6a6"/>
                <rect id="Rectángulo_45187" data-name="Rectángulo 45187" width="8.6" height="1.945" transform="translate(2.607 109.45)" fill="#a6a6a6"/>
                <rect id="Rectángulo_45188" data-name="Rectángulo 45188" width="6.033" height="1.945" transform="translate(3.773 91.067)" fill="#ffc727"/>
                <rect id="Rectángulo_45189" data-name="Rectángulo 45189" width="6.033" height="1.945" transform="translate(17.589 127.833)" fill="#ffc727"/>
                <rect id="Rectángulo_45190" data-name="Rectángulo 45190" width="6.033" height="1.945" transform="translate(3.773 146.216)" fill="#ffc727"/>
                <rect id="Rectángulo_45191" data-name="Rectángulo 45191" width="22.427" height="1.945" transform="translate(10.476 91.067)" fill="#a6a6a6"/>
                <rect id="Rectángulo_45192" data-name="Rectángulo 45192" width="26.159" height="1.945" transform="translate(2.607 118.642)" fill="#ffc727"/>
                <rect id="Rectángulo_45193" data-name="Rectángulo 45193" width="18.53" height="1.945" transform="translate(13.342 81.876)" fill="#ebebeb"/>
                <rect id="Rectángulo_45194" data-name="Rectángulo 45194" width="3.872" height="1.945" transform="translate(31.925 100.259)" fill="#ebebeb"/>
                <rect id="Rectángulo_45195" data-name="Rectángulo 45195" width="1.196" height="1.945" transform="translate(0 91.067)" fill="#ebebeb"/>
                <rect id="Rectángulo_45196" data-name="Rectángulo 45196" width="1.196" height="1.945" transform="translate(0 100.259)" fill="#a6a6a6"/>
                <rect id="Rectángulo_45197" data-name="Rectángulo 45197" width="7.068" height="1.945" transform="translate(2.607 100.259)" fill="#ebebeb"/>
                <rect id="Rectángulo_45198" data-name="Rectángulo 45198" width="20.432" height="1.945" transform="translate(11.694 109.45)" fill="#ebebeb"/>
                <rect id="Rectángulo_45199" data-name="Rectángulo 45199" width="20.423" height="1.945" transform="translate(10.394 100.259)" fill="#ffc727"/>
                <rect id="Rectángulo_45200" data-name="Rectángulo 45200" width="1.196" height="1.945" transform="translate(0 109.45)" fill="#ebebeb"/>
                <rect id="Rectángulo_45201" data-name="Rectángulo 45201" width="1.196" height="1.945" transform="translate(0 127.833)" fill="#ebebeb"/>
                <rect id="Rectángulo_45202" data-name="Rectángulo 45202" width="14.024" height="1.945" transform="translate(2.607 127.833)" fill="#ebebeb"/>
                <rect id="Rectángulo_45203" data-name="Rectángulo 45203" width="1.196" height="1.945" transform="translate(0 137.024)" fill="#ebebeb"/>
                <rect id="Rectángulo_45204" data-name="Rectángulo 45204" width="9.003" height="1.945" transform="translate(3.773 137.024)" fill="#a6a6a6"/>
                <rect id="Rectángulo_45205" data-name="Rectángulo 45205" width="8.6" height="1.945" transform="translate(2.607 164.598)" fill="#a6a6a6"/>
                <rect id="Rectángulo_45206" data-name="Rectángulo 45206" width="22.427" height="1.945" transform="translate(10.476 146.216)" fill="#a6a6a6"/>
                <rect id="Rectángulo_45207" data-name="Rectángulo 45207" width="3.872" height="1.945" transform="translate(31.925 155.407)" fill="#ebebeb"/>
                <rect id="Rectángulo_45208" data-name="Rectángulo 45208" width="1.196" height="1.945" transform="translate(0 146.216)" fill="#ebebeb"/>
                <rect id="Rectángulo_45209" data-name="Rectángulo 45209" width="1.196" height="1.945" transform="translate(0 155.407)" fill="#a6a6a6"/>
                <rect id="Rectángulo_45210" data-name="Rectángulo 45210" width="7.068" height="1.945" transform="translate(2.607 155.407)" fill="#ebebeb"/>
                <rect id="Rectángulo_45211" data-name="Rectángulo 45211" width="20.432" height="1.945" transform="translate(11.694 164.598)" fill="#ebebeb"/>
                <rect id="Rectángulo_45212" data-name="Rectángulo 45212" width="20.423" height="1.945" transform="translate(10.394 155.407)" fill="#ffc727"/>
                <rect id="Rectángulo_45213" data-name="Rectángulo 45213" width="1.196" height="1.945" transform="translate(0 164.598)" fill="#ebebeb"/>
              </g>
              <g id="Grupo_104246" data-name="Grupo 104246" transform="translate(0.077)">
                <path id="Trazado_215801" data-name="Trazado 215801" d="M184.991,167.01a4.852,4.852,0,0,1,0,.964c-.017.128-.036.193-.057.193s-.043-.065-.059-.193l-.362-3.053a.242.242,0,0,1-.007-.064l0-.022c0-.032,0-.054,0-.086a.3.3,0,0,1,0-.042c0-.022,0-.054,0-.065,0-.032,0-.042,0-.053v-.075c0-.022,0-.032,0-.064v-.129c0-.021,0-.032,0-.043,0-.032,0-.053,0-.086l0-.021c0-.032,0-.075.006-.1l0-.022a.6.6,0,0,1,.008-.074l.362-3.053c.032-.258.085-.258.116,0a4.852,4.852,0,0,1,0,.964l-.306,2.56Z" transform="translate(-184.488 -160.732)" fill="#ffc727"/>
                <path id="Trazado_215802" data-name="Trazado 215802" d="M185.319,167.352l.316-6.245c.015-.3.056-.439.094-.31a3.245,3.245,0,0,1,.036.76l-.316,6.256c-.012.225-.038.354-.066.354-.007,0-.018-.011-.025-.043A3.119,3.119,0,0,1,185.319,167.352Z" transform="translate(-184.488 -160.732)" fill="#ffc727"/>
                <path id="Trazado_215803" data-name="Trazado 215803" d="M186.389,164.835l0,.011c0,.021,0,.053-.009.075l-.362,3.053c-.015.128-.037.193-.058.193s-.041-.065-.058-.193a4.852,4.852,0,0,1,0-.964l.306-2.56-.306-2.56a4.852,4.852,0,0,1,0-.964c.031-.258.084-.258.116,0l.362,3.053c0,.02.007.053.009.074l0,.022c0,.042,0,.064.006.1v.021c0,.033,0,.054,0,.1,0,.011,0,.011,0,.032v.075l0,.054,0,.053v.107c0,.043,0,.075,0,.1s0,.01,0,.032S186.391,164.793,186.389,164.835Z" transform="translate(-184.488 -160.732)" fill="#ffc727"/>
              </g>
            </g>
          </g>
        </g>
      </g>
      <g id="Windows">
        <g id="Grupo_104258" data-name="Grupo 104258">
          <g id="Grupo_104255" data-name="Grupo 104255">
            <g id="Grupo_104252" data-name="Grupo 104252">
              <g id="Grupo_104250" data-name="Grupo 104250">
                <rect id="Rectángulo_45214" data-name="Rectángulo 45214" width="103.096" height="65.766" transform="translate(537.66 117.313)" fill="#fff"/>
                <path id="Trazado_215804" data-name="Trazado 215804" d="M641.408,183.73h-104.4V116.661h104.4Zm-103.1-1.3H640.1V117.964H538.311Z" fill="#ebebeb"/>
              </g>
              <g id="Grupo_104251" data-name="Grupo 104251">
                <rect id="Rectángulo_45215" data-name="Rectángulo 45215" width="103.096" height="12.437" transform="translate(537.66 117.313)" fill="#ffc727"/>
                <path id="Trazado_215805" data-name="Trazado 215805" d="M641.408,130.4h-104.4V116.661h104.4Zm-103.1-1.3H640.1V117.964H538.311Z" fill="#ebebeb"/>
              </g>
            </g>
            <g id="Grupo_104253" data-name="Grupo 104253">
              <path id="Trazado_215806" data-name="Trazado 215806" d="M555.453,154.341a12.719,12.719,0,0,1,12.713-12.47,12.961,12.961,0,0,1,8,2.7,1.989,1.989,0,0,1-2.425,3.153,8.628,8.628,0,0,0-5.577-1.906,9.169,9.169,0,0,0-6.235,2.494,8.544,8.544,0,0,0-2.529,6.027,8.425,8.425,0,0,0,2.529,6.028,9.169,9.169,0,0,0,6.235,2.494,8.7,8.7,0,0,0,5.577-1.905,2.1,2.1,0,0,1,2.771.381,2.044,2.044,0,0,1-.346,2.771,12.961,12.961,0,0,1-8,2.7A12.673,12.673,0,0,1,555.453,154.341Z" fill="#ebebeb"/>
              <path id="Trazado_215807" data-name="Trazado 215807" d="M582.471,160.784a1.806,1.806,0,0,1,2.529-.242,11.289,11.289,0,0,0,6.615,2.667,7.463,7.463,0,0,0,4.331-1.282,3.117,3.117,0,0,0,1.489-2.493,1.968,1.968,0,0,0-.312-1.109,3.248,3.248,0,0,0-1.038-1.039,13.86,13.86,0,0,0-4.746-1.628h-.07a18.771,18.771,0,0,1-4.468-1.351,7.45,7.45,0,0,1-3.221-2.7,5.305,5.305,0,0,1-.8-2.84,6.4,6.4,0,0,1,2.77-5.058,10.243,10.243,0,0,1,5.993-1.836c3.326,0,5.786,1.629,7.552,2.771a1.784,1.784,0,0,1,.485,2.46,1.75,1.75,0,0,1-2.46.52c-1.766-1.178-3.464-2.217-5.577-2.217a6.623,6.623,0,0,0-3.88,1.177,2.759,2.759,0,0,0-1.316,2.183,1.68,1.68,0,0,0,.243.969,3.306,3.306,0,0,0,.936.9,11.9,11.9,0,0,0,4.329,1.524h.069a20.377,20.377,0,0,1,4.781,1.455,8.091,8.091,0,0,1,3.463,2.875,5.612,5.612,0,0,1,.832,2.945,6.7,6.7,0,0,1-2.979,5.369,10.842,10.842,0,0,1-6.409,1.974,14.939,14.939,0,0,1-8.868-3.464A1.844,1.844,0,0,1,582.471,160.784Z" fill="#ebebeb"/>
              <path id="Trazado_215808" data-name="Trazado 215808" d="M605.228,160.784a1.806,1.806,0,0,1,2.529-.242,11.292,11.292,0,0,0,6.615,2.667,7.463,7.463,0,0,0,4.331-1.282,3.117,3.117,0,0,0,1.489-2.493,1.968,1.968,0,0,0-.312-1.109,3.249,3.249,0,0,0-1.038-1.039,13.859,13.859,0,0,0-4.746-1.628h-.07a18.773,18.773,0,0,1-4.468-1.351,7.451,7.451,0,0,1-3.221-2.7,5.305,5.305,0,0,1-.8-2.84,6.4,6.4,0,0,1,2.771-5.058,10.238,10.238,0,0,1,5.993-1.836c3.325,0,5.785,1.629,7.551,2.771a1.784,1.784,0,0,1,.485,2.46,1.75,1.75,0,0,1-2.46.52c-1.766-1.178-3.464-2.217-5.576-2.217a6.628,6.628,0,0,0-3.881,1.177,2.76,2.76,0,0,0-1.316,2.183,1.68,1.68,0,0,0,.243.969,3.307,3.307,0,0,0,.936.9,11.911,11.911,0,0,0,4.329,1.524h.069a20.363,20.363,0,0,1,4.781,1.455,8.085,8.085,0,0,1,3.463,2.875,5.6,5.6,0,0,1,.832,2.945,6.7,6.7,0,0,1-2.979,5.369,10.842,10.842,0,0,1-6.409,1.974,14.935,14.935,0,0,1-8.867-3.464A1.844,1.844,0,0,1,605.228,160.784Z" fill="#ebebeb"/>
            </g>
            <g id="Grupo_104254" data-name="Grupo 104254">
              <path id="Trazado_215809" data-name="Trazado 215809" d="M547.062,123.622a1.994,1.994,0,1,1-1.994-2A1.994,1.994,0,0,1,547.062,123.622Z" fill="#c7c7c7"/>
              <path id="Trazado_215810" data-name="Trazado 215810" d="M555.205,123.622a1.994,1.994,0,1,1-1.994-2A1.994,1.994,0,0,1,555.205,123.622Z" fill="#fff"/>
              <path id="Trazado_215811" data-name="Trazado 215811" d="M563.348,123.622a1.994,1.994,0,1,1-1.994-2A1.994,1.994,0,0,1,563.348,123.622Z" fill="#455a64"/>
            </g>
          </g>
          <g id="Grupo_104257" data-name="Grupo 104257">
            <rect id="Rectángulo_45216" data-name="Rectángulo 45216" width="70.234" height="26.002" transform="translate(483.065 71.417)" fill="#455a64"/>
            <g id="Grupo_104256" data-name="Grupo 104256">
              <path id="Trazado_215812" data-name="Trazado 215812" d="M493.2,89.813V78.281a1.06,1.06,0,0,1,1.076-1.075,1.076,1.076,0,0,1,1.094,1.075v4.691h5.063V78.281a1.06,1.06,0,0,1,1.075-1.075,1.076,1.076,0,0,1,1.094,1.075V89.813a1.077,1.077,0,0,1-1.094,1.076,1.06,1.06,0,0,1-1.075-1.076V85.122h-5.063v4.691a1.077,1.077,0,0,1-1.094,1.076A1.061,1.061,0,0,1,493.2,89.813Z" fill="#fff"/>
              <path id="Trazado_215813" data-name="Trazado 215813" d="M515.424,79.376h-3.107V89.813a1.061,1.061,0,0,1-1.076,1.076,1.072,1.072,0,0,1-1.074-1.076V79.376h-3.088a1.09,1.09,0,0,1-1.076-1.1,1.06,1.06,0,0,1,1.076-1.075h8.345a1.072,1.072,0,0,1,1.076,1.075A1.1,1.1,0,0,1,515.424,79.376Z" fill="#fff"/>
              <path id="Trazado_215814" data-name="Trazado 215814" d="M531.493,78.281V89.813a1.1,1.1,0,0,1-1.095,1.076,1.072,1.072,0,0,1-1.075-1.076V81.584l-2.815,3.91a1.07,1.07,0,0,1-.88.449h-.039a1.107,1.107,0,0,1-.9-.449l-2.8-3.91v8.229a1.085,1.085,0,0,1-2.169,0V78.281a1.084,1.084,0,0,1,1.075-1.075h.059a1.058,1.058,0,0,1,.86.449l3.89,5.4,3.89-5.4a1.066,1.066,0,0,1,.879-.449h.02A1.115,1.115,0,0,1,531.493,78.281Z" fill="#fff"/>
              <path id="Trazado_215815" data-name="Trazado 215815" d="M536.223,89.813V78.281a1.072,1.072,0,0,1,1.075-1.075,1.089,1.089,0,0,1,1.1,1.075V88.719h5.3a1.085,1.085,0,0,1,0,2.17H537.3A1.073,1.073,0,0,1,536.223,89.813Z" fill="#fff"/>
            </g>
          </g>
        </g>
      </g>
      <g id="Character">
        <g id="Grupo_104313" data-name="Grupo 104313">
          <g id="Grupo_104269" data-name="Grupo 104269">
            <g id="Grupo_104264" data-name="Grupo 104264">
              <g id="Grupo_104259" data-name="Grupo 104259">
                <path id="Trazado_215816" data-name="Trazado 215816" d="M387.46,425.3c-2.825,1.086-84.891,2.577-88.1.742-.35-.2-.254-3.828-1.461-13.2-.06-.447-1.932-2.185-4.854-4.636-10.975-9.2-36.764-28.591-36.764-28.591l40.954-35.582,39.687,39.011,10.323,10.142s33.529,18.105,36.849,20.5C387.388,416.091,390.285,424.217,387.46,425.3Z" fill="#dd6a57"/>
                <path id="Trazado_215817" data-name="Trazado 215817" d="M387.459,425.3c-2.829,1.094-84.894,2.579-88.1.748-.347-.206-.249-3.826-1.463-13.2-.054-.444-1.929-2.179-4.855-4.639-3.815-3.2-5.627-4.657-11.306-9.079L333.8,379.986l3.122,3.068L347.239,393.2s33.533,18.1,36.849,20.494C387.383,416.087,390.287,424.216,387.459,425.3Z" fill="#ebebeb"/>
              </g>
              <g id="Grupo_104263" data-name="Grupo 104263">
                <path id="Trazado_215818" data-name="Trazado 215818" d="M393.115,426.435c-2.851.991-90.289,1.948-93.437.01-.739-.455-1.418-5.533-1.96-12.49-.068-.872-8.924-7.952-10.137-9.263l53.58-18.046,6.766,6.367s39.432,18.347,42.655,20.843C393.789,416.353,395.965,425.444,393.115,426.435Z" fill="#ffc727"/>
                <g id="Grupo_104262" data-name="Grupo 104262">
                  <path id="Trazado_215819" data-name="Trazado 215819" d="M391.9,423.171c-13.737-.176-74.672.407-88.265,1.277-.11.007-.109.082,0,.086,13.612.472,74.54-.56,88.266-1.138C392.193,423.385,392.191,423.175,391.9,423.171Z" fill="#263238"/>
                  <g id="Grupo_104261" data-name="Grupo 104261">
                    <path id="Trazado_215820" data-name="Trazado 215820" d="M352.3,393.591c-5.416-.946-12.016-.039-16.1,3.859-.158.152.059.374.233.317a75.957,75.957,0,0,1,15.854-3.493A.346.346,0,0,0,352.3,393.591Z" fill="#263238"/>
                    <path id="Trazado_215821" data-name="Trazado 215821" d="M356.226,395.9c-5.416-.946-12.016-.039-16.1,3.86-.159.151.058.374.233.317a75.871,75.871,0,0,1,15.853-3.494A.346.346,0,0,0,356.226,395.9Z" fill="#263238"/>
                    <path id="Trazado_215822" data-name="Trazado 215822" d="M360.154,398.2c-5.416-.945-12.016-.038-16.1,3.86-.159.151.059.374.233.317a75.994,75.994,0,0,1,15.854-3.494A.346.346,0,0,0,360.154,398.2Z" fill="#263238"/>
                    <path id="Trazado_215823" data-name="Trazado 215823" d="M364.083,400.507c-5.417-.946-12.016-.039-16.1,3.859-.158.152.059.374.233.317a75.956,75.956,0,0,1,15.854-3.493A.346.346,0,0,0,364.083,400.507Z" fill="#263238"/>
                    <g id="Grupo_104260" data-name="Grupo 104260">
                      <path id="Trazado_215824" data-name="Trazado 215824" d="M362.133,380.976c-2.158-2.9-6.1-1.538-8.33.385a28.837,28.837,0,0,0-8.179,12.476.144.144,0,0,0,.129.193.671.671,0,0,0,.856.665c4.443-1.7,9.4-2.976,13.192-5.993C362.012,386.94,364.174,383.719,362.133,380.976Zm-9.316,9.757c-2.166.892-4.361,1.671-6.492,2.643a86.5,86.5,0,0,1,4.937-7.182,30.921,30.921,0,0,1,2.828-3.128c1.59-1.482,7.919-4.669,7.036,1.271C360.639,387.612,355.4,389.67,352.817,390.733Z" fill="#263238"/>
                      <path id="Trazado_215825" data-name="Trazado 215825" d="M331.872,392.586c4.476,1.847,9.6,1.691,14.338,2.094a.671.671,0,0,0,.637-.876.145.145,0,0,0,.07-.222,28.829,28.829,0,0,0-11.321-9.714c-2.68-1.226-6.842-1.44-8.11,1.945C326.287,389.015,329.258,391.508,331.872,392.586Zm-2.485-3.824c-2.5-5.462,4.467-4.158,6.407-3.175a30.747,30.747,0,0,1,3.585,2.219,86.435,86.435,0,0,1,6.737,5.528c-2.317-.341-4.643-.481-6.97-.736C336.372,392.294,330.765,391.772,329.387,388.762Z" fill="#263238"/>
                    </g>
                  </g>
                </g>
              </g>
            </g>
            <g id="Grupo_104268" data-name="Grupo 104268">
              <path id="Trazado_215826" data-name="Trazado 215826" d="M337.484,380.874,286.86,407.106s-52.737-47.74-57.568-48.091c-4.691-.342-75.783,47.786-111.5,47.936-37,.155-38.867-38.6-38.867-38.6l53.966-12.393c38.9-19.173,79.423-53.608,105.926-50.4C267.6,309.046,337.484,380.874,337.484,380.874Z" fill="#455a64"/>
              <g id="Grupo_104267" data-name="Grupo 104267">
                <g id="Grupo_104266" data-name="Grupo 104266">
                  <g id="Grupo_104265" data-name="Grupo 104265">
                    <path id="Trazado_215827" data-name="Trazado 215827" d="M325.118,374.194c-8.545,4.223-6.149,2.9-14.649,7.211-4.16,2.111-25.093,12.674-28.646,15.289a.1.1,0,0,0,.085.163c4.184-1.4,24.883-12.412,29-14.6,8.419-4.468,5.956-3.273,14.328-7.83A.132.132,0,1,0,325.118,374.194Z" fill="#263238"/>
                  </g>
                </g>
                <path id="Trazado_215828" data-name="Trazado 215828" d="M277.895,395.012c-9.9-8.727-42.324-37.136-43.64-38.192a17.932,17.932,0,0,0-3.376-2.532,3.573,3.573,0,0,0-3.123.253c-1.5.7-2.968,1.467-4.454,2.192l-8.775,4.284c-11.341,5.536-22.618,11.216-34.047,16.569-10.99,5.148-18.837,9.994-30.316,13.953a172.4,172.4,0,0,1-35.213,8.395q-2.218.27-4.446.474c-.107.01-.1.175,0,.169a141.556,141.556,0,0,0,34.657-6.446c11.372-3.5,19.089-8.035,29.889-13,11.193-5.151,22.225-10.662,33.259-16.144,5.825-2.895,11.637-5.818,17.479-8.679,1.324-.649,3.21-2.055,4.723-1.359a8.393,8.393,0,0,1,1.747,1.286l1.943,1.616c2.5,2.084,42.251,36.32,43.555,37.307C277.858,395.227,277.991,395.1,277.895,395.012Z" fill="#263238"/>
              </g>
            </g>
          </g>
          <g id="Grupo_104272" data-name="Grupo 104272">
            <g id="Grupo_104271" data-name="Grupo 104271">
              <path id="Trazado_215829" data-name="Trazado 215829" d="M78.819,368.346s-6.053,35,11.449,48.75,145.713,12.092,165.167,5.8,20.062-37.679-1.205-44.954c-20.226-6.918-106.281-10.281-108.4-11.128-.532-.212,7.631-5.106,7.6-5.4L133.84,355.43Z" fill="#455a64"/>
              <g id="Grupo_104270" data-name="Grupo 104270">
                <path id="Trazado_215830" data-name="Trazado 215830" d="M105.384,367.463c-.025-.149-.257-.1-.257.042a17.276,17.276,0,0,1-4.046,11.117c-2.979,3.44-7.372,5.365-11.352,7.379-.383.193-.093.792.3.673a35.094,35.094,0,0,0,7.029-3.028,17.035,17.035,0,0,0,5.287-4.395A15.121,15.121,0,0,0,105.384,367.463Z" fill="#263238"/>
                <path id="Trazado_215831" data-name="Trazado 215831" d="M144.416,363.127c-.888-1.135-1.856-2.214-2.783-3.317-2.192-2.608-4.394-5.227-6.691-7.743-.217-.238-.643.1-.443.36,1.547,2.022,3.185,3.98,4.8,5.952q1.239,1.517,2.489,3.022a19.031,19.031,0,0,1,2.322,2.947c.6,1.121-.189,2.08-1.351,2.2a4.032,4.032,0,0,1-2.8-1.031,37.235,37.235,0,0,1-4.747-5.074c-.923-1.039-1.846-2.076-2.783-3.1-1-1.091-2.059-2.125-3.052-3.214-.064-.07-.187.028-.13.106.869,1.19,1.67,2.436,2.54,3.629s1.751,2.372,2.649,3.544q1.275,1.663,2.634,3.258a10.875,10.875,0,0,0,2.672,2.391c1.665.979,4.554,1.19,5.44-.96A3.031,3.031,0,0,0,144.416,363.127Z" fill="#263238"/>
                <path id="Trazado_215832" data-name="Trazado 215832" d="M252.773,423.017c-6.7.125-13.391.515-20.09.658q-9.966.213-19.936.116-20.019-.189-40.006-1.555c-13.456-.93-27.969-2.271-41.335-4.122-6.4-.886-12.88-1.624-19.2-2.983a30.3,30.3,0,0,1-15.144-7.737C88.4,399,85.039,386.653,83.656,374.859c-.185-1.582-.337-3.168-.465-4.756-.009-.108-.172-.105-.164,0,.781,12.094,2.661,24.7,10.268,34.424a30.215,30.215,0,0,0,12.39,9.621c5.986,2.4,12.631,2.961,18.95,3.818,13.421,1.82,27.991,3.226,41.489,4.273q20.375,1.581,40.819,1.911c13.619.2,27.252.009,40.858-.66,1.661-.082,3.318-.179,4.976-.324A.077.077,0,0,0,252.773,423.017Z" fill="#263238"/>
                <path id="Trazado_215833" data-name="Trazado 215833" d="M210.543,371.568c-4.216-.617-8.424-1.223-12.664-1.664-4.281-.446-8.568-.829-12.857-1.193-8.482-.718-16.986-1.363-25.49-1.762-4.832-.227-9.661-.25-14.5-.189-.156,0-.142.224.006.237,8.5.77,17.011,1.306,25.529,1.872,8.5.565,16.987,1.311,25.467,2.12,4.809.459,9.622.812,14.437,1.2C210.827,372.223,210.9,371.62,210.543,371.568Z" fill="#263238"/>
                <path id="Trazado_215834" data-name="Trazado 215834" d="M154.421,360.986a65.718,65.718,0,0,0-9.759,5.225,78.372,78.372,0,0,0-9.036,6.321c-.08.068.027.167.106.131,3.312-1.533,6.5-3.451,9.65-5.287a90.752,90.752,0,0,0,9.243-5.939C154.832,361.281,154.7,360.869,154.421,360.986Z" fill="#263238"/>
              </g>
            </g>
          </g>
          <g id="Grupo_104312" data-name="Grupo 104312">
            <g id="Grupo_104273" data-name="Grupo 104273">
              <path id="Trazado_215835" data-name="Trazado 215835" d="M138.348,325.973c-.666-.11-3.785-.612-8.348-1.335a25.943,25.943,0,0,1,.164-15.755c.362-1.174-3.748,5.2-4.4,15.08-8.815-1.408-20.805-3.331-31.261-5.109.55-4.109.874-7.944.874-7.944a45.983,45.983,0,0,1-3.149,7.566c-1.432-.233-2.831-.487-4.174-.718,1.472-6.266,2.427-17.479,2.427-17.479a56.559,56.559,0,0,1-8.365,16.435c-6.626-1.2-10.963-2.108-10.625-2.37,12.137-9.637,6.022-17.6,10.736-27.2,5.654-11.49,16.459-11.487,17.829-20.647,1.133-7.45,2.69-21.059,12.577-22.205a18.33,18.33,0,0,1,20.254-.137c13.742,8.391,3.675,30.154,3.827,34.986.21,6.9,2.939,9.824,3.9,17.828.994,8.1-3.433,12.546-4.787,17.667C134.489,319.763,140.013,326.264,138.348,325.973Z" fill="#263238"/>
              <path id="Trazado_215836" data-name="Trazado 215836" d="M71.493,312.649a26.334,26.334,0,0,0,4.411-5.891c1.174-2.119,1.272-4.491,1.256-6.961a73.237,73.237,0,0,1,.132-7.543,19.649,19.649,0,0,1,2.137-7.491,17.233,17.233,0,0,1,5.2-5.836,45.834,45.834,0,0,1,6.578-3.781,28.026,28.026,0,0,0,6.16-3.9,13.533,13.533,0,0,0,3.876-6.132,12.662,12.662,0,0,1-3.234,6.775,25.445,25.445,0,0,1-6.091,4.552,57.658,57.658,0,0,0-6.192,3.936,16.4,16.4,0,0,0-4.556,5.313,19.281,19.281,0,0,0-1.968,6.773c-.3,2.395-.3,4.859-.433,7.377a25.06,25.06,0,0,1-.457,3.817,11.072,11.072,0,0,1-1.532,3.609A21.362,21.362,0,0,1,71.493,312.649Z" fill="#263238"/>
              <path id="Trazado_215837" data-name="Trazado 215837" d="M139.677,254.2a37.786,37.786,0,0,1,.381,9.209c-.179,3.075-.506,6.132-.864,9.172l-.505,4.544a22.733,22.733,0,0,0-.114,4.411,24.422,24.422,0,0,0,2.627,8.4,35.122,35.122,0,0,1,1.685,4.4,21.409,21.409,0,0,1,.83,4.728,31.658,31.658,0,0,1-.2,4.74,19.612,19.612,0,0,1-1.119,4.632c-.554,1.494-1.259,2.874-1.887,4.238a23.3,23.3,0,0,0-1.494,4.218,9.4,9.4,0,0,0,2.224,8.315,9.548,9.548,0,0,1-3.16-8.493,23.016,23.016,0,0,1,1.236-4.533c.542-1.464,1.188-2.84,1.617-4.248a24.369,24.369,0,0,0,.9-8.748,21.209,21.209,0,0,0-.815-4.287,33.183,33.183,0,0,0-1.643-4.151,46.259,46.259,0,0,1-1.749-4.348,19.124,19.124,0,0,1-.938-4.723,24.577,24.577,0,0,1,.262-4.749c.2-1.537.447-3.05.7-4.56.491-3.023,1.025-6.029,1.433-9.051A44.5,44.5,0,0,0,139.677,254.2Z" fill="#263238"/>
            </g>
            <g id="Grupo_104279" data-name="Grupo 104279">
              <path id="Trazado_215838" data-name="Trazado 215838" d="M115.467,300.823c4.936,13.4,27.256,48.371,37.6,53.493,7.647,3.788,30.481,8.421,33.424,7.7,4.244-1.047,13.735-29.839,9.854-30.121-18.658-1.352-30.539-3.772-34.942-5.512-3.708-1.465-19.169-15.749-39.235-33.19C115.182,287.119,112.514,292.8,115.467,300.823Z" fill="#d3766a"/>
              <g id="Grupo_104276" data-name="Grupo 104276">
                <g id="Grupo_104274" data-name="Grupo 104274">
                  <path id="Trazado_215839" data-name="Trazado 215839" d="M126.931,330.124,139.745,305.7s-10.379-9.188-16.839-13.462c-8.55-5.655-12.654-3.806-9.328,8.312C115.8,308.663,126.931,330.124,126.931,330.124Z" fill="#4dd0e1"/>
                  <path id="Trazado_215840" data-name="Trazado 215840" d="M127.99,295.94a.41.41,0,0,1-.11.01,1.854,1.854,0,0,1-1.81-1.47C126.7,294.95,127.34,295.43,127.99,295.94Zm-.11,28.64a1.85,1.85,0,0,0,0,3.7h.02l1.51-2.89A1.836,1.836,0,0,0,127.88,324.58Zm-10.24-16.02a1.717,1.717,0,0,0-.94.27c.48,1.09.97,2.21,1.49,3.34a1.833,1.833,0,0,0,1.3-1.76A1.852,1.852,0,0,0,117.64,308.56Zm20.48,0a1.852,1.852,0,0,0-1.85,1.85,1.816,1.816,0,0,0,.4,1.14l1.57-2.98A.486.486,0,0,0,138.12,308.56Z" fill="#fff"/>
                </g>
                <g id="Grupo_104275" data-name="Grupo 104275">
                  <path id="Trazado_215841" data-name="Trazado 215841" d="M125.916,326.431c1.619-3.683,3.287-7.333,5.12-10.915q1.371-2.68,2.822-5.317c.967-1.756,2.118-3.418,3.057-5.184.052-.1.205-.008.148.087-1.031,1.712-1.838,3.584-2.773,5.351s-1.87,3.553-2.789,5.337c-1.837,3.563-3.682,7.125-5.437,10.728C126.015,326.619,125.873,326.53,125.916,326.431Z" fill="#263238"/>
                </g>
                <path id="Trazado_215842" data-name="Trazado 215842" d="M137.729,309.549l-10.8,20.58s-11.122-21.467-13.358-29.573c-1.024-3.743-1.343-6.51-1.044-8.372Z" opacity="0.1"/>
              </g>
              <g id="Grupo_104278" data-name="Grupo 104278">
                <path id="Trazado_215843" data-name="Trazado 215843" d="M186.488,362.012a105.478,105.478,0,0,0,12.482,5.816c3.43,1.168,13.391,4.267,15.052.62,1.137-2.487-4.507-5-8.458-6.864-2.081-.982-4.594-3.325-3.9-4.661,1.2-2.334,6.557.314,10.053,2.568,6.761,4.36,15.68,12.055,20.088,8.727,1.664-1.259-.086-3.772-2.7-6.277,4.294,2.978,8.9,5.471,10.809,4.146,1.093-.754,1.193-1.854.664-3.139a3.1,3.1,0,0,0,3.438-.375c1.507-1.437.909-3.69-.558-6.039a1.715,1.715,0,0,0,1.345-.8c3.259-4.5-11.359-18.53-16.57-20.021-15.332-4.4-31.885-3.824-31.885-3.824C190.028,336.475,186.476,362,186.488,362.012Z" fill="#d3766a"/>
                <g id="Grupo_104277" data-name="Grupo 104277">
                  <path id="Trazado_215844" data-name="Trazado 215844" d="M209.953,348.615a25.3,25.3,0,0,1,10.155,4.459c3.5,2.652,6.221,6.179,9.432,9.143.087.08-.045.216-.129.131-1.5-1.526-3.172-2.906-4.738-4.371-1.528-1.43-3.023-2.92-4.647-4.24a25.078,25.078,0,0,0-10.09-5.06C209.9,348.668,209.912,348.607,209.953,348.615Z" fill="#263238"/>
                  <path id="Trazado_215845" data-name="Trazado 215845" d="M213.146,342.171a62.678,62.678,0,0,1,11.838,4.725c4.04,2.3,7.12,5.888,10.15,9.344q2.731,3.114,5.321,6.346c.072.09-.05.222-.128.131q-4.609-5.351-9.537-10.42a33.188,33.188,0,0,0-10.651-7.423c-2.291-1-4.653-1.815-7.012-2.632C213.083,342.227,213.1,342.156,213.146,342.171Z" fill="#263238"/>
                  <path id="Trazado_215846" data-name="Trazado 215846" d="M217.765,336.62c3.921,1,7.342,1.852,10.749,4.135,4.51,3.023,8.771,7.962,10.265,9.713,1.65,1.933,3.234,3.919,4.789,5.931.063.081-.078.194-.144.112A131.472,131.472,0,0,0,231.9,343.993a26.174,26.174,0,0,0-6.548-4.7,47.066,47.066,0,0,0-7.6-2.643A.014.014,0,0,1,217.765,336.62Z" fill="#263238"/>
                </g>
              </g>
            </g>
            <g id="Grupo_104281" data-name="Grupo 104281">
              <path id="Trazado_215847" data-name="Trazado 215847" d="M74.068,375.89c2.377.766,69.989-18.8,69.989-18.8l-7.984-23.475s3.942-7.549,2.111-14.811c-2.445-9.7-20.4-25.65-21.812-26.587-5.665-3.755-10.976-3.691-15.669-1.2C81.154,301.409,74.068,375.89,74.068,375.89Z" fill="#4dd0e1"/>
              <path id="Trazado_215848" data-name="Trazado 215848" d="M109.252,294.1a1.85,1.85,0,1,1-1.85-1.85A1.851,1.851,0,0,1,109.252,294.1ZM86.92,324.578a1.85,1.85,0,1,0,1.85,1.85A1.85,1.85,0,0,0,86.92,324.578Zm20.482,0a1.85,1.85,0,1,0,1.85,1.85A1.85,1.85,0,0,0,107.4,324.578Zm20.481,0a1.85,1.85,0,1,0,1.85,1.85A1.849,1.849,0,0,0,127.883,324.578ZM97.161,308.565a1.85,1.85,0,1,0,1.85,1.85A1.85,1.85,0,0,0,97.161,308.565Zm20.482,0a1.85,1.85,0,1,0,1.849,1.85A1.85,1.85,0,0,0,117.643,308.565ZM86.92,356.906a1.85,1.85,0,1,0,1.85,1.85A1.85,1.85,0,0,0,86.92,356.906Zm20.482,0a1.85,1.85,0,1,0,1.85,1.85A1.85,1.85,0,0,0,107.4,356.906Zm20.481,0a1.85,1.85,0,1,0,1.85,1.85A1.849,1.849,0,0,0,127.883,356.906ZM97.161,340.893a1.85,1.85,0,1,0,1.85,1.85A1.85,1.85,0,0,0,97.161,340.893Zm20.482,0a1.85,1.85,0,1,0,1.849,1.85A1.85,1.85,0,0,0,117.643,340.893Zm20.927.057a1.631,1.631,0,0,0-.45-.06,1.85,1.85,0,1,0,0,3.7,1.8,1.8,0,0,0,1.44-.7ZM76.68,373.22a1.852,1.852,0,0,0-1.85,1.85,1.649,1.649,0,0,0,.18.77c.77-.11,1.97-.36,3.51-.71a.127.127,0,0,0,.01-.06A1.852,1.852,0,0,0,76.68,373.22Z" fill="#fff"/>
              <g id="Grupo_104280" data-name="Grupo 104280">
                <path id="Trazado_215849" data-name="Trazado 215849" d="M114.382,331.928a59.927,59.927,0,0,1,8.808-.975c1.47-.033,2.931,0,4.4.068.732.033,1.461.042,2.193.047a9.452,9.452,0,0,0,2.283-.2.053.053,0,0,1,.027.1,15.962,15.962,0,0,1-2.1.547,15.48,15.48,0,0,1-2.1.182c-1.491.048-2.983.026-4.473.059-3.008.065-6.014.131-9.011.413C114.275,332.185,114.245,331.952,114.382,331.928Z" fill="#263238"/>
                <path id="Trazado_215850" data-name="Trazado 215850" d="M108.078,336.4a64.61,64.61,0,0,1,6.938-2.31c1.18-.315,2.369-.56,3.571-.775q.861-.153,1.726-.279c.634-.094,1.282-.1,1.915-.2.066-.011.094.089.026.1-.593.114-1.171.328-1.757.478s-1.179.3-1.768.445c-1.179.3-2.355.612-3.537.9-2.367.578-4.718,1.177-7.063,1.836C108,336.634,107.961,336.451,108.078,336.4Z" fill="#263238"/>
              </g>
            </g>
            <g id="Grupo_104294" data-name="Grupo 104294">
              <g id="Grupo_104282" data-name="Grupo 104282">
                <path id="Trazado_215851" data-name="Trazado 215851" d="M104.937,289.806c.035,1.255,4.157,10.2,9.683,11.065,1.8.279,3.76-9.479,3.76-9.479l.309-.687,4.323-9.624-11.795-11.388S104.93,289.275,104.937,289.806Z" fill="#d3766a"/>
                <path id="Trazado_215852" data-name="Trazado 215852" d="M123.013,281.077l-4.325,9.625a21.2,21.2,0,0,1-9.6-14.316c1.073-3.4,1.978-6.221,2.105-6.636a.192.192,0,0,0,.022-.055l1.513,1.357Z" fill="#263238"/>
              </g>
              <g id="Grupo_104293" data-name="Grupo 104293">
                <path id="Trazado_215853" data-name="Trazado 215853" d="M139.317,267.645c-1.631,18.444-12.862,19.549-16.839,19.193-3.61-.323-15.861-1.883-16.144-20.4s8.808-23.586,17.1-23.283S140.949,249.2,139.317,267.645Z" fill="#d3766a"/>
                <g id="Grupo_104289" data-name="Grupo 104289">
                  <path id="Trazado_215854" data-name="Trazado 215854" d="M136.8,264.4a12.042,12.042,0,0,1-1.194-.458,2.063,2.063,0,0,1-1.129-.7.659.659,0,0,1,.128-.794,1.632,1.632,0,0,1,1.65-.123,2.4,2.4,0,0,1,1.354,1.075A.7.7,0,0,1,136.8,264.4Z" fill="#263238"/>
                  <path id="Trazado_215855" data-name="Trazado 215855" d="M124.165,263.961a12.09,12.09,0,0,0,1.277-.064,2.062,2.062,0,0,0,1.29-.313.658.658,0,0,0,.125-.794,1.632,1.632,0,0,0-1.529-.631,2.4,2.4,0,0,0-1.621.6A.7.7,0,0,0,124.165,263.961Z" fill="#263238"/>
                  <g id="Grupo_104284" data-name="Grupo 104284">
                    <g id="Grupo_104283" data-name="Grupo 104283">
                      <path id="Trazado_215856" data-name="Trazado 215856" d="M126.353,267.687c0-.049-.1.046-.111.1-.13,1.255-.489,2.67-1.676,2.931-.037.008-.042.072,0,.071C125.973,270.779,126.431,268.9,126.353,267.687Z" fill="#263238"/>
                      <path id="Trazado_215857" data-name="Trazado 215857" d="M125.415,266.231c-1.989-.425-2.693,3.583-.85,3.977C126.378,270.6,127.081,266.587,125.415,266.231Z" fill="#263238"/>
                    </g>
                    <path id="Trazado_215858" data-name="Trazado 215858" d="M124.59,266.3c-.39.166-.8.506-1.232.473-.5-.037-.792-.522-1.041-.981-.025-.048-.066-.019-.076.034a1.487,1.487,0,0,0,.814,1.865c.733.236,1.391-.349,1.719-1.087C124.834,266.471,124.747,266.238,124.59,266.3Z" fill="#263238"/>
                  </g>
                  <g id="Grupo_104286" data-name="Grupo 104286">
                    <g id="Grupo_104285" data-name="Grupo 104285">
                      <path id="Trazado_215859" data-name="Trazado 215859" d="M133.582,267.963c.018-.046.086.076.075.127-.267,1.233-.365,2.689.681,3.307.032.019.018.081-.023.067C132.981,271.02,133.131,269.088,133.582,267.963Z" fill="#263238"/>
                      <path id="Trazado_215860" data-name="Trazado 215860" d="M134.927,266.871c2.022.215,1.444,4.243-.43,4.045C132.654,270.72,133.232,266.691,134.927,266.871Z" fill="#263238"/>
                    </g>
                    <path id="Trazado_215861" data-name="Trazado 215861" d="M135.729,267.257c.287.259.547.692.923.772.437.092.825-.3,1.167-.675.035-.038.062,0,.056.053-.089.773-.459,1.539-1.22,1.58-.694.038-1.1-.694-1.168-1.487C135.473,267.353,135.613,267.152,135.729,267.257Z" fill="#263238"/>
                  </g>
                  <path id="Trazado_215862" data-name="Trazado 215862" d="M124.228,278.077c.22.36.413.828.847.977a3.326,3.326,0,0,0,1.391.024.044.044,0,0,1,.038.076,1.7,1.7,0,0,1-1.72.272,1.341,1.341,0,0,1-.688-1.323C124.1,278.027,124.2,278.024,124.228,278.077Z" fill="#263238"/>
                  <g id="Grupo_104287" data-name="Grupo 104287">
                    <path id="Trazado_215863" data-name="Trazado 215863" d="M130.434,274.227s-.1,1.9-.269,2.771c-.016.081-.234.079-.534.04-.015,0-.024.006-.034-.006a4.22,4.22,0,0,1-3.728-2.323.092.092,0,0,1,.153-.1,6.357,6.357,0,0,0,3.577,1.813c.108-.229.063-3.256.2-3.24a7.739,7.739,0,0,1,1.894.83c.324-3.948.012-7.916.394-11.842a.121.121,0,0,1,.238-.012,64.1,64.1,0,0,1,.118,12.772C132.423,275.444,130.754,274.443,130.434,274.227Z" fill="#263238"/>
                  </g>
                  <g id="Grupo_104288" data-name="Grupo 104288">
                    <path id="Trazado_215864" data-name="Trazado 215864" d="M129.656,276.683a5.165,5.165,0,0,1-2.209,1.406,2.331,2.331,0,0,1-1.414-.042c-.993-.362-.932-1.3-.671-2.08a5.565,5.565,0,0,1,.569-1.181A6.694,6.694,0,0,0,129.656,276.683Z" fill="#263238"/>
                    <path id="Trazado_215865" data-name="Trazado 215865" d="M127.447,278.089a2.331,2.331,0,0,1-1.414-.042c-.993-.362-.932-1.3-.671-2.08A2.4,2.4,0,0,1,127.447,278.089Z" fill="#ff9cbd"/>
                  </g>
                </g>
                <path id="Trazado_215866" data-name="Trazado 215866" d="M107.1,268.136c2.035.033,7.733-5.139,8.639-14.909,0,0-1.42,8.717-2.178,9.954s3.187-2.912,4.028-10.782a32.03,32.03,0,0,0,7.775,4.814c3.646,1.327,5.928,1.465,6.215,1.216s-5.064-2.393-6.417-4.215c0,0,9.56,5.361,14.1,6.057.525.08,1.769-9.688-4.942-14.837s-18.064-2.07-21.293.607c0,0-3.571.234-7.807,5.166S104.91,268.1,107.1,268.136Z" fill="#263238"/>
                <g id="Grupo_104290" data-name="Grupo 104290">
                  <path id="Trazado_215867" data-name="Trazado 215867" d="M121.866,274.2a6.014,6.014,0,1,1,7.165-6.234h0a6.017,6.017,0,0,1-7.165,6.233Zm2.165-11.014a5.21,5.21,0,1,0,4.2,4.825A5.215,5.215,0,0,0,124.031,263.188Z" fill="#ffc727"/>
                  <path id="Trazado_215868" data-name="Trazado 215868" d="M135.632,275.2c-2.258-.444-3.852-3.16-3.61-6.288a7.18,7.18,0,0,1,1.591-4.094,3.746,3.746,0,0,1,6.395.5,7.182,7.182,0,0,1,.942,4.289c-.257,3.306-2.467,5.841-4.927,5.651A3.569,3.569,0,0,1,135.632,275.2Zm1.559-11.1a2.788,2.788,0,0,0-.3-.041,3.2,3.2,0,0,0-2.663,1.276,6.388,6.388,0,0,0-1.4,3.634c-.221,2.865,1.234,5.323,3.261,5.478s3.842-2.047,4.064-4.91a6.38,6.38,0,0,0-.826-3.808A3.313,3.313,0,0,0,137.191,264.1Z" fill="#ffc727"/>
                  <path id="Trazado_215869" data-name="Trazado 215869" d="M128.776,268.647l-.468-.654c.969-.693,3.151-1.557,4.494.123l-.628.5C130.973,267.111,128.865,268.585,128.776,268.647Z" fill="#ffc727"/>
                  <path id="Trazado_215870" data-name="Trazado 215870" d="M101.941,268.122l-.684-.423c.2-.319,1.981-3.119,3.793-3.271,1.695-.138,12.362,1.7,12.814,1.78l-.137.792c-3.058-.531-11.3-1.881-12.609-1.771C103.921,265.329,102.419,267.351,101.941,268.122Z" fill="#ffc727"/>
                </g>
                <g id="Grupo_104292" data-name="Grupo 104292">
                  <g id="Grupo_104291" data-name="Grupo 104291">
                    <path id="Trazado_215871" data-name="Trazado 215871" d="M109.14,268.118s-2.974-6.4-5.807-5.432-1.3,9.742,1.535,11.406a3.131,3.131,0,0,0,4.424-.928Z" fill="#d3766a"/>
                    <path id="Trazado_215872" data-name="Trazado 215872" d="M103.835,265.192c-.048-.013-.069.054-.03.078,1.974,1.237,2.745,3.4,3.168,5.588a1.729,1.729,0,0,0-2.465-.915c-.062.029-.025.125.037.123a1.928,1.928,0,0,1,1.971,1.031,9.263,9.263,0,0,1,.7,1.865c.066.207.427.166.394-.065,0-.017-.007-.035-.009-.053C108.134,270.143,106.7,265.978,103.835,265.192Z" fill="#263238"/>
                  </g>
                </g>
              </g>
            </g>
            <g id="Grupo_104306" data-name="Grupo 104306">
              <g id="Grupo_104301" data-name="Grupo 104301">
                <path id="Trazado_215873" data-name="Trazado 215873" d="M90.6,303.424c-14.163,27.928-15.847,51.557-11.666,55.817,11.256,11.467,48.194,6.361,58.237,6.168,4.061-.078-4.2-33.449-8.5-32.851-10.131,1.406-24.7,4.6-25.183,4.391-.97-.408.148-8.293,1.658-31.81C106.371,286.114,96.394,292.005,90.6,303.424Z" fill="#d3766a"/>
                <g id="Grupo_104300" data-name="Grupo 104300">
                  <path id="Trazado_215874" data-name="Trazado 215874" d="M142.231,328.456c10.075-1.4,12.877-.217,20.752-5.917,5.167-3.74,9.773-2.046,6.825,3.9-4.822,9.721-17.441,14.262-22.269,14.576Z" fill="#d3766a"/>
                  <g id="Grupo_104295" data-name="Grupo 104295">
                    <path id="Trazado_215875" data-name="Trazado 215875" d="M115.467,338.156s11.322-6.287,21.911-8.845c7.323-1.768,22.742-2.871,39.337,12.3,4.383,4.008,5.269,12.07-2.577,7.6-5.721-3.257-8.276-6.228-12.025-7.275,0,0,2.054,10.678-1.927,14.248a98.348,98.348,0,0,1-11.067,8.587,20.721,20.721,0,0,1-1.793-1.927s-4.033,2.983-11.627,2.26Z" fill="#d3766a"/>
                  </g>
                  <g id="Grupo_104299" data-name="Grupo 104299">
                    <path id="Trazado_215876" data-name="Trazado 215876" d="M144.636,328.739c3.5,1.826,10.857,5.819,15.737,11.179,5.422,5.953,14.26,18.882,9.824,22.839-3.252,2.9-7.061-1.738-7.061-1.738s2.527,6.113-.984,8.092c-3.2,1.8-5.931-1.964-5.931-1.964s.9,3.973-2.522,5.115c-4.109,1.375-5.311-7.176-10.676-9.381C141.818,362.387,144.636,328.739,144.636,328.739Z" fill="#d3766a"/>
                    <g id="Grupo_104298" data-name="Grupo 104298">
                      <g id="Grupo_104296" data-name="Grupo 104296">
                        <path id="Trazado_215877" data-name="Trazado 215877" d="M153.128,344.6c3.011,2.257,8.535,9.137,10.063,16.263.034.162-.069.275-.132.134a79.068,79.068,0,0,0-9.987-16.346C153.044,344.614,153.094,344.572,153.128,344.6Z" fill="#263238"/>
                      </g>
                      <g id="Grupo_104297" data-name="Grupo 104297">
                        <path id="Trazado_215878" data-name="Trazado 215878" d="M147.277,350.244c2.4,2.215,7.775,9.56,9.075,16.834.029.163-.082.269-.139.126a84.724,84.724,0,0,0-8.995-16.912C147.193,350.256,147.247,350.216,147.277,350.244Z" fill="#263238"/>
                      </g>
                    </g>
                  </g>
                </g>
                <path id="Trazado_215879" data-name="Trazado 215879" d="M126.768,332.835a71.711,71.711,0,0,1,23.586-5.273A23,23,0,0,0,162.33,323c3.344-2.555,9.085-3.627,8.4,1.133s-5.658,8.538-5.658,8.538,10.587,6.76,13.589,11.249c3.229,4.828,1.093,7.877-3.289,5.881s-10.433-7.211-13.261-7.863c0,0,7.84,9.241,9.174,16.366" fill="none" stroke="#263238" stroke-miterlimit="10" stroke-width="0.75"/>
              </g>
              <g id="Grupo_104305" data-name="Grupo 104305">
                <g id="Grupo_104302" data-name="Grupo 104302">
                  <path id="Trazado_215880" data-name="Trazado 215880" d="M77.793,327.562l27.177-4.683s.979-13.827.441-21.554c-.712-10.227-4.676-12.36-12.271-2.348C88.059,305.675,77.793,327.562,77.793,327.562Z" fill="#4dd0e1"/>
                  <path id="Trazado_215881" data-name="Trazado 215881" d="M88.61,325.7l-3.53.6a1.84,1.84,0,0,1,3.53-.6Zm8.551-17.135a1.85,1.85,0,1,0,1.85,1.85A1.85,1.85,0,0,0,97.161,308.565Z" fill="#fff"/>
                </g>
                <g id="Grupo_104304" data-name="Grupo 104304">
                  <path id="Trazado_215882" data-name="Trazado 215882" d="M80.107,324.51c3.908-.955,7.82-1.852,11.778-2.576q2.962-.541,5.937-.994c1.982-.3,4-.4,5.974-.727a.086.086,0,0,1,.021.17c-1.986.224-3.963.722-5.934,1.054s-3.957.678-5.933,1.033c-3.944.71-7.894,1.411-11.822,2.211C80.018,324.7,80,324.536,80.107,324.51Z" fill="#263238"/>
                  <g id="Grupo_104303" data-name="Grupo 104303">
                    <path id="Trazado_215883" data-name="Trazado 215883" d="M101.657,323.458c.283-.1,3.058-.676,3.269-.66.074-1.629.127-3.259.22-4.887.046-.814.106-1.629.178-2.44.079-.9.122-1.917.193-2.709a.085.085,0,1,1,.17,0c.012,1.038-.014,1.812-.009,2.71,0,.8-.012,1.609-.044,2.41-.069,1.7-.068,3.508-.22,5.2a27.728,27.728,0,0,1-3.745.473C101.617,323.556,101.612,323.475,101.657,323.458Z" fill="#263238"/>
                    <path id="Trazado_215884" data-name="Trazado 215884" d="M106.518,314.227l-.857,2.821" fill="none" stroke="#263238" stroke-miterlimit="10" stroke-width="0.25"/>
                  </g>
                </g>
              </g>
            </g>
            <g id="Grupo_104311" data-name="Grupo 104311">
              <g id="Grupo_104310" data-name="Grupo 104310">
                <g id="Grupo_104307" data-name="Grupo 104307">
                  <rect id="Rectángulo_45217" data-name="Rectángulo 45217" width="71.739" height="3.218" transform="translate(138.086 370.555)" fill="#c7c7c7"/>
                </g>
                <g id="Grupo_104308" data-name="Grupo 104308">
                  <path id="Trazado_215885" data-name="Trazado 215885" d="M168.975,370.555l-2.456,3.218h58.845v-3.218Z" fill="#a6a6a6"/>
                </g>
                <g id="Grupo_104309" data-name="Grupo 104309">
                  <path id="Trazado_215886" data-name="Trazado 215886" d="M172.067,373.77h69.915l14.193-47.484H186.26Z" fill="#a6a6a6"/>
                  <path id="Trazado_215887" data-name="Trazado 215887" d="M174.486,373.77H244.4l14.193-47.484H188.679Z" fill="#c7c7c7"/>
                  <path id="Trazado_215888" data-name="Trazado 215888" d="M213.625,350.028a3.408,3.408,0,0,0,3.431,4.255,5.417,5.417,0,0,0,5.081-4.255,3.407,3.407,0,0,0-3.431-4.256A5.417,5.417,0,0,0,213.625,350.028Z" fill="#fff"/>
                </g>
              </g>
            </g>
          </g>
        </g>
      </g>
      <g id="Speech_Bubble" data-name="Speech Bubble">
        <g id="Grupo_104315" data-name="Grupo 104315">
          <path id="Trazado_215889" data-name="Trazado 215889" d="M196.23,265.7v43.376h6.089V319.6l10.522-10.522h57.741V265.7Z" fill="#fff" stroke="#263238" stroke-miterlimit="10" stroke-width="1"/>
          <g id="Grupo_104314" data-name="Grupo 104314">
            <path id="Trazado_215890" data-name="Trazado 215890" d="M223.422,294.332a1.783,1.783,0,0,1-1.244,3.056,1.89,1.89,0,0,1-1.3-.509l-7.951-8.066c-.087-.028-.115-.085-.143-.17a.356.356,0,0,0-.086-.057.719.719,0,0,1-.083-.227.148.148,0,0,1-.087-.113c-.028-.056-.028-.141-.055-.169,0-.085-.06-.113-.06-.142v-.2c0-.057-.027-.084-.027-.169,0-.03.027-.115.027-.142v-.2c0-.058.06-.085.06-.115.027-.085.027-.14.055-.227,0-.027.028-.027.028-.055a2.464,2.464,0,0,1,.142-.255.056.056,0,0,1,.059-.056.482.482,0,0,1,.17-.2l7.951-8.066a1.842,1.842,0,0,1,2.546,0,1.791,1.791,0,0,1,0,2.547l-6.705,6.764Z" fill="#ffc727"/>
            <path id="Trazado_215891" data-name="Trazado 215891" d="M230.631,295.237l6.934-16.5a1.567,1.567,0,0,1,2.064-.819,1.527,1.527,0,0,1,.793,2.009l-6.933,16.529a1.572,1.572,0,0,1-1.445.933,1.337,1.337,0,0,1-.564-.112A1.53,1.53,0,0,1,230.631,295.237Z" fill="#ffc727"/>
            <path id="Trazado_215892" data-name="Trazado 215892" d="M254.116,288.586a.027.027,0,0,1-.028.028,1.363,1.363,0,0,1-.2.2l-7.951,8.066a1.845,1.845,0,0,1-2.545,0,1.787,1.787,0,0,1,0-2.547l6.7-6.764-6.7-6.764a1.787,1.787,0,0,1,0-2.547,1.84,1.84,0,0,1,2.545,0l7.951,8.066a1.228,1.228,0,0,1,.2.2c.028,0,.028.056.028.056.054.113.11.17.142.255,0,.028.027.028.027.055a1.414,1.414,0,0,0,.083.257c0,.027.028.027.028.085v.2c0,.027.031.112.031.142s-.031.112-.031.14v.227c0,.029-.028.029-.028.057-.055.113-.055.2-.083.254,0,.028-.027.028-.027.086C254.226,288.389,254.17,288.474,254.116,288.586Z" fill="#ffc727"/>
          </g>
        </g>
      </g>
      <g id="Plant" transform="translate(28)">
        <g id="Grupo_104327" data-name="Grupo 104327">
          <g id="Grupo_104324" data-name="Grupo 104324">
            <g id="Grupo_104317" data-name="Grupo 104317">
              <path id="Trazado_215893" data-name="Trazado 215893" d="M697.631,350.209c-13.264,17.964-27.094,38.811-30.461,61.338-.041.341.505.452.584.113a134,134,0,0,1,5.866-18.036c8.72-2.4,17.279-4.371,21.858-13.026,4.671-8.9,4.077-20.5,3.189-30.189C698.6,349.89,697.9,349.864,697.631,350.209Z" fill="#ffc727"/>
              <g id="Grupo_104316" data-name="Grupo 104316">
                <path id="Trazado_215894" data-name="Trazado 215894" d="M673.751,393.455c5.959-13.371,13.608-26.8,23.331-37.792.065-.074.167.033.107.107-6.366,7.831-11.2,16.359-15.927,25.036,4.392-4.458,9.2-8.452,13.365-13.18.081-.092.21.042.133.134-4.131,4.956-8.643,10.343-14.023,14.012q-2.168,3.993-4.375,8c.361-.2.735-.382,1.106-.565.065-.033.122.064.057.1-.411.207-.816.426-1.24.606-.7,1.263-1.391,2.528-2.109,3.789C674.015,393.984,673.625,393.737,673.751,393.455Z" fill="#263238"/>
                <path id="Trazado_215895" data-name="Trazado 215895" d="M678.184,388.79a78.186,78.186,0,0,0,10.181-6.8c.087-.07.213.051.125.125a53.836,53.836,0,0,1-10.16,6.922C678.165,389.125,678.021,388.883,678.184,388.79Z" fill="#263238"/>
              </g>
            </g>
            <g id="Grupo_104319" data-name="Grupo 104319">
              <path id="Trazado_215896" data-name="Trazado 215896" d="M665.635,408.2c.027.273.491.268.485-.022.069-7.418.007-14.871.118-22.323,1.9-3.835,5.98-5.958,8.816-9.032a39.476,39.476,0,0,0,5.291-7.367,52.908,52.908,0,0,0,6.138-20.464c.783-7.935-2.228-34.12-5.573-33.21-1.735.471-7.348,13.44-8.837,17.728a123.525,123.525,0,0,0-5.279,21.738C664.082,372.7,664.308,390.63,665.635,408.2Z" fill="#ffc727"/>
              <g id="Grupo_104318" data-name="Grupo 104318">
                <path id="Trazado_215897" data-name="Trazado 215897" d="M665.582,376.2l.033-.029c.407-9.387,2.522-18.866,4.5-27.97,2.133-9.807,4.626-19.042,9.672-27.79a.145.145,0,0,1,.251.146,103.181,103.181,0,0,0-7.77,21.332c.338-.53.749-1.031,1.1-1.53.139-.2.463-.013.327.191a13.9,13.9,0,0,1-1.577,2.227.145.145,0,0,1-.066.03c-1.737,7.009-2.985,14.18-4.052,21.333.08-.091.157-.188.238-.276.054-.059.146.016.109.084-.132.237-.28.473-.426.709-.537,3.631-1.036,7.254-1.537,10.846,6.464-5.526,11.985-12.038,15.1-20.063.014-.037.075-.021.061.017-3.051,8.324-7.86,15.723-15.263,20.773q-.2,1.452-.408,2.9c-.028.2-.347.147-.346-.047,0-.855.044-1.712.077-2.569A.2.2,0,0,1,665.582,376.2Z" fill="#263238"/>
                <path id="Trazado_215898" data-name="Trazado 215898" d="M668.627,362.6c4.94-7.372,9.554-14.532,13.169-22.682.04-.09.2-.025.161.068-3.046,8.1-7.312,16.3-13.082,22.805C668.757,362.919,668.527,362.745,668.627,362.6Z" fill="#263238"/>
                <path id="Trazado_215899" data-name="Trazado 215899" d="M675.192,338.092c2.047-3.621,4.2-7.145,6.13-10.837.054-.1.2-.012.153.089a56.4,56.4,0,0,1-5.967,10.932C675.372,338.463,675.074,338.3,675.192,338.092Z" fill="#263238"/>
                <path id="Trazado_215900" data-name="Trazado 215900" d="M674.393,339.667a.032.032,0,0,1,0,.063A.032.032,0,0,1,674.393,339.667Z" fill="#263238"/>
              </g>
            </g>
            <g id="Grupo_104321" data-name="Grupo 104321">
              <path id="Trazado_215901" data-name="Trazado 215901" d="M660.614,386.744a75.486,75.486,0,0,1-1.733,14.616c.076.528.152,1.056.229,1.6a69.642,69.642,0,0,0,2.615-16.291.5.5,0,0,0,.023-.505l0-.015a107.966,107.966,0,0,0-1.637-22.074c-2.3-13.634-7.316-26.718-16.825-36.936a.678.678,0,0,0-1.05.216c-3.836,9.756-2.5,21.4.77,31.13a56.969,56.969,0,0,0,7.54,14.785C653.806,377.856,657.965,381.736,660.614,386.744Z" fill="#ffc727"/>
              <g id="Grupo_104320" data-name="Grupo 104320">
                <path id="Trazado_215902" data-name="Trazado 215902" d="M644.409,331.7c9.011,14.624,15.281,31.964,16.048,49.239.013.306-.5.387-.545.074-.213-1.552-.45-3.09-.7-4.622-.005-.005-.011,0-.016-.006-3.728-3.571-7.555-7.338-10.224-11.8-.047-.078.066-.171.128-.1a123.977,123.977,0,0,0,9.932,10.809q-.968-5.73-2.315-11.282c-.242-.276-.476-.56-.713-.837-.156-.184.1-.451.267-.268l.217.24a130.212,130.212,0,0,0-4.712-14.959c-2.294-2.736-4.858-5.1-6.529-8.4a.07.07,0,0,1,.12-.07c1.343,1.885,2.643,3.782,4.167,5.531.607.7,1.274,1.348,1.9,2.028a115.394,115.394,0,0,0-7.377-15.378A.2.2,0,0,1,644.409,331.7Z" fill="#263238"/>
                <path id="Trazado_215903" data-name="Trazado 215903" d="M646.231,349.745c2.913,3.92,6.232,7.66,8.939,11.712.078.116-.092.235-.188.145-3.479-3.264-6.423-7.721-8.947-11.742C645.955,349.733,646.146,349.631,646.231,349.745Z" fill="#263238"/>
                <path id="Trazado_215904" data-name="Trazado 215904" d="M655.578,362.364l.124.124a.094.094,0,0,1-.133.134l-.125-.124A.1.1,0,0,1,655.578,362.364Z" fill="#263238"/>
              </g>
            </g>
            <g id="Grupo_104323" data-name="Grupo 104323">
              <path id="Trazado_215905" data-name="Trazado 215905" d="M630.291,359.819c.724,7.524,4.682,16.512,9.509,22.309a23.667,23.667,0,0,0,7.711,6.018c3.339,1.652,6.836,3.555,10.291,4.911A67.618,67.618,0,0,1,661.446,406c.111-.377.222-.769.333-1.146-2.217-19.05-14.544-35.332-30.312-45.785A.766.766,0,0,0,630.291,359.819Z" fill="#ffc727"/>
              <g id="Grupo_104322" data-name="Grupo 104322">
                <path id="Trazado_215906" data-name="Trazado 215906" d="M635.739,365.447c-.111-.1.039-.3.16-.208A64.5,64.5,0,0,1,655.99,390c.115.26-.243.489-.391.228-.733-1.284-1.48-2.533-2.24-3.76-.005,0-.007,0-.011,0-3.6-.678-7.007-3.211-9.679-5.615-.072-.065.034-.171.107-.107a22.163,22.163,0,0,0,4.554,3.2c1.467.745,3.046,1.214,4.573,1.811-1.334-2.117-2.724-4.147-4.175-6.117a41.954,41.954,0,0,1-10.816-6.08c-.1-.075-.013-.243.1-.174a108.136,108.136,0,0,0,10.053,5.374,90.025,90.025,0,0,0-7.1-8.275c-1.224-.646-2.464-1.3-3.65-1.986-.1-.056-.033-.221.078-.184a13.112,13.112,0,0,1,2.8,1.375C638.774,368.253,637.308,366.833,635.739,365.447Z" fill="#263238"/>
                <path id="Trazado_215907" data-name="Trazado 215907" d="M636.074,372.025a4.642,4.642,0,0,1,.607.433c.058.051-.016.125-.077.1a4.584,4.584,0,0,1-.632-.358C635.863,372.129,635.964,371.955,636.074,372.025Z" fill="#263238"/>
              </g>
            </g>
          </g>
          <g id="Grupo_104326" data-name="Grupo 104326">
            <g id="Grupo_104325" data-name="Grupo 104325">
              <path id="Trazado_215908" data-name="Trazado 215908" d="M686.387,447.254H643.18l3.488-39.347.766-8.678h34.7l.766,8.678Z" fill="#455a64"/>
              <path id="Trazado_215909" data-name="Trazado 215909" d="M682.9,407.906H646.668l.766-8.678h34.7Z" fill="#263238"/>
            </g>
            <rect id="Rectángulo_45218" data-name="Rectángulo 45218" width="38.834" height="8.588" transform="translate(645.367 393.162)" fill="#455a64"/>
          </g>
        </g>
      </g>
    </g>
    <g id="Elipse_6593" data-name="Elipse 6593" transform="translate(897.5 2071.5)" fill="none" stroke="#707070" stroke-width="2" stroke-dasharray="2">
      <circle cx="23" cy="23" r="23" stroke="none"/>
      <circle cx="23" cy="23" r="22" fill="none"/>
    </g>
    <g id="Elipse_6596" data-name="Elipse 6596" transform="translate(920.5 2123.299)" fill="none" stroke="#707070" stroke-width="2" stroke-dasharray="2">
      <circle cx="23" cy="23" r="23" stroke="none"/>
      <circle cx="23" cy="23" r="22" fill="none"/>
    </g>
    <g id="Elipse_6597" data-name="Elipse 6597" transform="translate(951.5 2175.098)" fill="none" stroke="#707070" stroke-width="2" stroke-dasharray="2">
      <circle cx="23" cy="23" r="23" stroke="none"/>
      <circle cx="23" cy="23" r="22" fill="none"/>
    </g>
    <g id="Elipse_6599" data-name="Elipse 6599" transform="translate(985 2226.896)" fill="none" stroke="#707070" stroke-width="2" stroke-dasharray="2">
      <circle cx="23" cy="23" r="23" stroke="none"/>
      <circle cx="23" cy="23" r="22" fill="none"/>
    </g>
    <g id="Elipse_6601" data-name="Elipse 6601" transform="translate(1018 2278.695)" fill="none" stroke="#707070" stroke-width="2" stroke-dasharray="2">
      <circle cx="23" cy="23" r="23" stroke="none"/>
      <circle cx="23" cy="23" r="22" fill="none"/>
    </g>
    <g id="Elipse_6603" data-name="Elipse 6603" transform="translate(1160 2278.695)" fill="none" stroke="#707070" stroke-width="2" stroke-dasharray="2">
      <circle cx="23" cy="23" r="23" stroke="none"/>
      <circle cx="23" cy="23" r="22" fill="none"/>
    </g>
  </g>
</svg>
