<svg xmlns="http://www.w3.org/2000/svg" xmlns:xlink="http://www.w3.org/1999/xlink" width="523" height="422" viewBox="0 0 523 422">
  <defs>
    <clipPath id="clip-path">
      <rect id="Rectángulo_34434" data-name="Rectángulo 34434" width="523" height="422" transform="translate(879.333 155)" fill="#fff" stroke="#707070" stroke-width="1"/>
    </clipPath>
    <linearGradient id="linear-gradient" x1="1.667" y1="-2.633" x2="1.667" y2="-3.674" gradientUnits="objectBoundingBox">
      <stop offset="0" stop-color="#dbccff"/>
      <stop offset="1" stop-color="#d1bbff"/>
    </linearGradient>
    <linearGradient id="linear-gradient-2" x1="1.639" y1="-2.629" x2="1.639" y2="-3.671" gradientUnits="objectBoundingBox">
      <stop offset="0" stop-color="#b5a6e7"/>
      <stop offset="1" stop-color="#7760bf"/>
    </linearGradient>
    <linearGradient id="linear-gradient-3" x1="3.031" y1="-7.673" x2="3.031" y2="-8.716" xlink:href="#linear-gradient-2"/>
    <linearGradient id="linear-gradient-4" x1="6.665" y1="-68.792" x2="7.769" y2="-68.792" gradientUnits="objectBoundingBox">
      <stop offset="0" stop-color="#8b8be0"/>
      <stop offset="1" stop-color="#a177b7"/>
    </linearGradient>
    <linearGradient id="linear-gradient-5" x1="4.428" y1="-24.542" x2="4.428" y2="-25.061" gradientUnits="objectBoundingBox">
      <stop offset="0" stop-color="#fff"/>
      <stop offset="1" stop-color="#a177b7"/>
    </linearGradient>
    <linearGradient id="linear-gradient-6" x1="3.727" y1="-7.086" x2="3.727" y2="-8.167" gradientUnits="objectBoundingBox">
      <stop offset="0"/>
      <stop offset="1" stop-color="#fff"/>
    </linearGradient>
    <linearGradient id="linear-gradient-7" x1="0.5" y1="1" x2="0.5" gradientUnits="objectBoundingBox">
      <stop offset="0" stop-color="#6456c0"/>
      <stop offset="1" stop-color="#5f2c95"/>
    </linearGradient>
    <linearGradient id="linear-gradient-8" y1="0.5" x2="1" y2="0.5" gradientUnits="objectBoundingBox">
      <stop offset="0" stop-color="#9e8cef"/>
      <stop offset="1" stop-color="#caafee"/>
    </linearGradient>
    <linearGradient id="linear-gradient-9" x1="58.784" y1="0.5" x2="59.784" y2="0.5" xlink:href="#linear-gradient-8"/>
    <linearGradient id="linear-gradient-10" x1="0.5" y1="1" x2="0.5" gradientUnits="objectBoundingBox">
      <stop offset="0" stop-color="#ccf"/>
      <stop offset="1" stop-color="#755cbb"/>
    </linearGradient>
    <linearGradient id="linear-gradient-13" x1="0.5" y1="1" x2="0.5" gradientUnits="objectBoundingBox">
      <stop offset="0" stop-color="#d5cdf8"/>
      <stop offset="1" stop-color="#f3edfb"/>
    </linearGradient>
    <linearGradient id="linear-gradient-14" x1="0" y1="0.5" x2="1" y2="0.5" xlink:href="#linear-gradient-10"/>
    <linearGradient id="linear-gradient-16" x1="0.5" y1="1" x2="0.5" gradientUnits="objectBoundingBox">
      <stop offset="0.016" stop-color="#ffc2a9"/>
      <stop offset="1" stop-color="#ff9595"/>
    </linearGradient>
    <linearGradient id="linear-gradient-17" x1="0.5" y1="1" x2="0.5" gradientUnits="objectBoundingBox">
      <stop offset="0" stop-color="#ffeadb"/>
      <stop offset="0.994" stop-color="#c27cb6"/>
    </linearGradient>
    <linearGradient id="linear-gradient-19" y1="0.5" x2="1" y2="0.5" gradientUnits="objectBoundingBox">
      <stop offset="0.016" stop-color="#d1a1d6"/>
      <stop offset="0.994" stop-color="#bd89c4"/>
    </linearGradient>
    <linearGradient id="linear-gradient-22" x1="0.5" y1="1" x2="0.5" gradientUnits="objectBoundingBox">
      <stop offset="0" stop-color="#ffb0b0"/>
      <stop offset="0.984" stop-color="#ffc2a9"/>
    </linearGradient>
    <linearGradient id="linear-gradient-27" y1="0.5" x2="1" y2="0.5" gradientUnits="objectBoundingBox">
      <stop offset="0" stop-color="#ccedff"/>
      <stop offset="1" stop-color="#755cbb"/>
    </linearGradient>
    <linearGradient id="linear-gradient-30" x1="0.5" y1="1" x2="0.5" y2="0" xlink:href="#linear-gradient-27"/>
    <linearGradient id="linear-gradient-37" x1="0.5" y1="1" x2="0.5" y2="0" xlink:href="#linear-gradient-27"/>
    <linearGradient id="linear-gradient-41" y1="0.5" x2="1" y2="0.5" gradientUnits="objectBoundingBox">
      <stop offset="0" stop-color="#8642a0"/>
      <stop offset="1" stop-color="#6456c0"/>
    </linearGradient>
    <linearGradient id="linear-gradient-49" x1="0.47" y1="0.933" x2="0.517" y2="0.115" gradientUnits="objectBoundingBox">
      <stop offset="0" stop-color="#e1616a"/>
      <stop offset="1" stop-color="#ff8883"/>
    </linearGradient>
    <linearGradient id="linear-gradient-51" x1="0.5" y1="1" x2="0.5" gradientUnits="objectBoundingBox">
      <stop offset="0" stop-color="#cf6074"/>
      <stop offset="1" stop-color="#f37270"/>
    </linearGradient>
    <linearGradient id="linear-gradient-52" x1="0.5" y1="1" x2="0.5" gradientUnits="objectBoundingBox">
      <stop offset="0" stop-color="#cf6074"/>
      <stop offset="1" stop-color="#ff817f"/>
    </linearGradient>
    <linearGradient id="linear-gradient-54" x1="0.5" y1="1" x2="0.5" gradientUnits="objectBoundingBox">
      <stop offset="0" stop-color="#2e33a0"/>
      <stop offset="1" stop-color="#0665a5"/>
    </linearGradient>
    <linearGradient id="linear-gradient-55" x1="0.5" y1="1" x2="0.5" gradientUnits="objectBoundingBox">
      <stop offset="0" stop-color="#ffeadb"/>
      <stop offset="0.994" stop-color="#8860c7"/>
    </linearGradient>
    <linearGradient id="linear-gradient-56" x1="0.5" y1="1" x2="0.5" gradientUnits="objectBoundingBox">
      <stop offset="0" stop-color="#ccc2db"/>
      <stop offset="0.994" stop-color="#8860c7"/>
    </linearGradient>
    <linearGradient id="linear-gradient-57" x1="0.5" y1="1" x2="0.5" gradientUnits="objectBoundingBox">
      <stop offset="0" stop-color="#776d7e"/>
      <stop offset="1" stop-color="#9d68c2"/>
    </linearGradient>
    <linearGradient id="linear-gradient-58" x1="0.5" y1="1" x2="0.5" gradientUnits="objectBoundingBox">
      <stop offset="0" stop-color="#1f77d1"/>
      <stop offset="1" stop-color="#0686c9"/>
    </linearGradient>
    <linearGradient id="linear-gradient-59" x1="0.5" y1="1" x2="0.5" y2="0" xlink:href="#linear-gradient-58"/>
    <linearGradient id="linear-gradient-60" x1="0.5" y1="1" x2="0.5" y2="0" xlink:href="#linear-gradient-58"/>
    <linearGradient id="linear-gradient-61" x1="0.805" y1="0.799" x2="-0.137" y2="0.078" gradientUnits="objectBoundingBox">
      <stop offset="0" stop-color="#ffeadb"/>
      <stop offset="0.994" stop-color="#b060f4"/>
    </linearGradient>
    <linearGradient id="linear-gradient-62" x1="0.961" y1="0.812" x2="-0.003" y2="0.231" xlink:href="#linear-gradient-61"/>
    <linearGradient id="linear-gradient-63" x1="0" y1="0.5" x2="1" y2="0.5" xlink:href="#linear-gradient-58"/>
    <linearGradient id="linear-gradient-64" x1="0" y1="0.5" x2="1" y2="0.5" xlink:href="#linear-gradient-58"/>
    <linearGradient id="linear-gradient-65" x1="0" y1="0.5" x2="1" y2="0.5" xlink:href="#linear-gradient-58"/>
    <linearGradient id="linear-gradient-66" y1="0.5" x2="1" y2="0.5" gradientUnits="objectBoundingBox">
      <stop offset="0" stop-color="#9d68c2"/>
      <stop offset="1" stop-color="#aec2ff"/>
    </linearGradient>
    <linearGradient id="linear-gradient-67" x1="0.5" y1="1" x2="0.5" gradientUnits="objectBoundingBox">
      <stop offset="0" stop-color="#ccedff"/>
      <stop offset="1" stop-color="#9d68c2"/>
    </linearGradient>
    <linearGradient id="linear-gradient-71" x1="0.434" y1="1.055" x2="0.548" y2="-0.06" gradientUnits="objectBoundingBox">
      <stop offset="0" stop-color="#067eff"/>
      <stop offset="1" stop-color="#3e37a0"/>
    </linearGradient>
    <linearGradient id="linear-gradient-72" x1="0.5" y1="1" x2="0.5" gradientUnits="objectBoundingBox">
      <stop offset="0" stop-color="#459fff"/>
      <stop offset="1" stop-color="#a96dff"/>
    </linearGradient>
    <linearGradient id="linear-gradient-73" x1="0.5" y1="1" x2="0.5" y2="0" xlink:href="#linear-gradient-41"/>
    <linearGradient id="linear-gradient-75" x1="1.893" y1="4.096" x2="1.726" y2="3.082" gradientUnits="objectBoundingBox">
      <stop offset="0" stop-color="#1852a0"/>
      <stop offset="1" stop-color="#067ed3"/>
    </linearGradient>
    <linearGradient id="linear-gradient-76" x1="1.628" y1="3.908" x2="1.628" y2="2.934" xlink:href="#linear-gradient-75"/>
    <linearGradient id="linear-gradient-77" x1="1.209" y1="3.68" x2="1.101" y2="3.03" gradientUnits="objectBoundingBox">
      <stop offset="0" stop-color="#188dc1"/>
      <stop offset="1" stop-color="#06bfe7"/>
    </linearGradient>
    <linearGradient id="linear-gradient-78" x1="0.353" y1="1.113" x2="0.61" y2="-0.137" xlink:href="#linear-gradient-77"/>
    <linearGradient id="linear-gradient-79" x1="-0.938" y1="0.969" x2="2.115" y2="0.036" xlink:href="#linear-gradient-75"/>
    <linearGradient id="linear-gradient-80" x1="45.712" y1="1.113" x2="45.969" y2="-0.137" xlink:href="#linear-gradient-77"/>
    <linearGradient id="linear-gradient-81" x1="705.556" y1="0.969" x2="708.609" y2="0.036" xlink:href="#linear-gradient-75"/>
  </defs>
  <g id="Enmascarar_grupo_79924" data-name="Enmascarar grupo 79924" transform="translate(-879.333 -155)" clip-path="url(#clip-path)">
    <g id="Grupo_79939" data-name="Grupo 79939" transform="translate(1481.205 142.341)">
      <path id="Trazado_116626" data-name="Trazado 116626" d="M-510.129,197.017c.008-.264.136-.394.383-.386l7.235.219a5.4,5.4,0,0,1,1.821.328,3.039,3.039,0,0,1,1.2.806,2.988,2.988,0,0,1,.639,1.225,5.566,5.566,0,0,1,.164,1.59l-.061,1.988a5.513,5.513,0,0,1-.259,1.577,2.989,2.989,0,0,1-.712,1.185,3.053,3.053,0,0,1-1.244.732,5.442,5.442,0,0,1-1.836.216l-3.9-.119-.807-2.278-.1,0-.069,2.251-2.73-.083Zm2.525,6.827,4.625.141a1.494,1.494,0,0,0,1.123-.311,1.747,1.747,0,0,0,.368-1.209l.05-1.617a1.718,1.718,0,0,0-.293-1.236,1.565,1.565,0,0,0-1.1-.358l-4.427-.135a.187.187,0,0,0-.147.056.2.2,0,0,0-.057.137Z" transform="translate(7.714 17.249)" fill="#f1f1f4"/>
      <path id="Trazado_116627" data-name="Trazado 116627" d="M-495.7,201.129l-.092,0-.088,2.889a.164.164,0,0,0,.18.191l8.136.247-.075,2.5-10.667-.322a.346.346,0,0,1-.372-.409l.269-8.853a.345.345,0,0,1,.4-.385l10.362.315a.352.352,0,0,1,.386.409l-.077,2.5-2.56.864-.107,0,.039-1.285c0-.1-.039-.148-.127-.15l-5.472-.166a.144.144,0,0,0-.141.055.248.248,0,0,0-.037.125l-.037,1.2,4.505.137-.06,1.962-3.777-.114Z" transform="translate(8.636 17.277)" fill="#f1f1f4"/>
      <path id="Trazado_116628" data-name="Trazado 116628" d="M-478.5,200.918l-.107,0,.032-1.06a.14.14,0,0,0-.153-.164l-5.089-.155a.5.5,0,0,0-.388.108.5.5,0,0,0-.117.341l-.008.238a.48.48,0,0,0,.081.361.766.766,0,0,0,.356.13l5.963,1.016a3.965,3.965,0,0,1,.961.275,1.839,1.839,0,0,1,.636.457,1.545,1.545,0,0,1,.337.681,3.638,3.638,0,0,1,.079.944l-.024.767a3.444,3.444,0,0,1-.178,1.049,1.781,1.781,0,0,1-.5.754,2.084,2.084,0,0,1-.889.443,4.865,4.865,0,0,1-1.343.12l-8.587-.261.077-2.5,7.7.234a.622.622,0,0,0,.463-.112.677.677,0,0,0,.125-.441l.008-.264a.545.545,0,0,0-.074-.354.53.53,0,0,0-.334-.137l-5.755-.9a4.583,4.583,0,0,1-.993-.269,1.929,1.929,0,0,1-.67-.444,1.532,1.532,0,0,1-.363-.661,3.085,3.085,0,0,1-.091-.918l.021-.676a2.237,2.237,0,0,1,.6-1.606,2.507,2.507,0,0,1,1.874-.52l8.573.26a.37.37,0,0,1,.4.437l-.06,1.988Z" transform="translate(9.52 17.308)" fill="#f1f1f4"/>
      <path id="Trazado_116629" data-name="Trazado 116629" d="M-475.79,207.317l.293-9.646,2.73.083-.292,9.646Z" transform="translate(10.435 17.331)" fill="#f1f1f4"/>
      <path id="Trazado_116630" data-name="Trazado 116630" d="M-463.218,203.553c0-.141,0-.289-.008-.445s-.018-.289-.033-.406l0-.119,2.7.082-.143,4.731q-.011.371-.342.361l-7.261-.22a5.454,5.454,0,0,1-1.821-.328,3.035,3.035,0,0,1-1.2-.806,2.967,2.967,0,0,1-.64-1.226,5.551,5.551,0,0,1-.164-1.589l.06-1.989a5.555,5.555,0,0,1,.26-1.577,3,3,0,0,1,.712-1.185,3.046,3.046,0,0,1,1.244-.73,5.42,5.42,0,0,1,1.837-.217l7.22.219a.346.346,0,0,1,.373.409l-.064,2.081-2.56.851-.106,0,.028-.928c0-.088-.035-.134-.114-.136l-4.611-.14a2.64,2.64,0,0,0-.671.053.936.936,0,0,0-.453.238,1.066,1.066,0,0,0-.265.469,2.918,2.918,0,0,0-.1.732l-.051,1.7a1.76,1.76,0,0,0,.294,1.23,1.5,1.5,0,0,0,1.1.378l4.572.139c.1,0,.146-.049.149-.154Z" transform="translate(10.723 17.348)" fill="#f1f1f4"/>
      <path id="Trazado_116631" data-name="Trazado 116631" d="M-455.7,198.271a.763.763,0,0,1,.428.106.859.859,0,0,1,.222.3l3.447,7.041a.28.28,0,0,0,.247.166l.146.005a.188.188,0,0,0,.219-.206l.22-7.261,2.478.076-.282,9.262q-.011.385-.382.372l-3.924-.119a.851.851,0,0,1-.413-.092.733.733,0,0,1-.25-.313l-3.58-7.033a.265.265,0,0,0-.246-.166l-.133,0a.187.187,0,0,0-.218.206l-.221,7.248-2.478-.076.28-9.249c.009-.264.135-.394.383-.386Z" transform="translate(11.643 17.369)" fill="#f1f1f4"/>
      <circle id="Elipse_4805" data-name="Elipse 4805" cx="167.204" cy="167.204" r="167.204" transform="translate(-608.539 213.655) rotate(-45)" fill="#e0f3ff"/>
      <path id="Trazado_116632" data-name="Trazado 116632" d="M-501.333,187.229a25.662,25.662,0,0,0-11.383-9.991l-2.536,1.184,5.71,10.359a11.1,11.1,0,0,1-3.494,6.17l-.009-.016a11.107,11.107,0,0,1-6.973-1.279l-4.282-11.027-2.535,1.184a25.668,25.668,0,0,0,.359,15.143s1.082,2.5,1.268,2.714c1,1.172,3.624,2.525,8.688,2.212l17.479,33.342a9.1,9.1,0,0,0-.387,8.449,9.135,9.135,0,0,0,12.149,4.413,9.136,9.136,0,0,0,4.413-12.15,9.107,9.107,0,0,0-6.727-5.123l-14.352-34.784c3.416-3.6,4.138-6.444,3.879-8.083C-500.12,189.6-501.333,187.229-501.333,187.229Zm14.376,57.5-4.63,2.163-4.187-2.926.442-5.09,4.629-2.164,4.188,2.927Z" transform="translate(6.346 15.725)" fill="url(#linear-gradient)"/>
      <path id="Trazado_116633" data-name="Trazado 116633" d="M-500.157,189.746a25.674,25.674,0,0,0-11.384-9.992l-2.535,1.184,5.709,10.36a11.1,11.1,0,0,1-3.494,6.169l-.008-.016a11.106,11.106,0,0,1-6.973-1.279l-4.282-11.027-2.536,1.184a25.674,25.674,0,0,0,.36,15.143s3.952,5.3,9.957,4.926l17.478,33.342a9.111,9.111,0,0,0-.387,8.449A9.136,9.136,0,0,0-486.1,252.6a9.136,9.136,0,0,0,4.411-12.151,9.105,9.105,0,0,0-6.727-5.123l-14.351-34.783C-498.63,196.177-500.157,189.746-500.157,189.746Zm14.375,57.5-4.629,2.163-4.188-2.926.442-5.09,4.63-2.163,4.187,2.926Z" transform="translate(6.438 15.923)" fill="url(#linear-gradient-2)"/>
      <rect id="Rectángulo_34386" data-name="Rectángulo 34386" width="2.798" height="2.996" transform="translate(-520.488 199.538) rotate(-25.043)" fill="#e5e2ff"/>
      <rect id="Rectángulo_34387" data-name="Rectángulo 34387" width="2.798" height="2.995" transform="translate(-508.906 194.147) rotate(-25.043)" fill="#e5e2ff"/>
      <rect id="Rectángulo_34388" data-name="Rectángulo 34388" width="5.11" height="2.996" transform="matrix(0.906, -0.423, 0.423, 0.906, -485.242, 262.618)" fill="#e5e2ff"/>
      <path id="Trazado_116634" data-name="Trazado 116634" d="M-512.7,207.036l14.116,27.128a6.907,6.907,0,0,0,5.7-2.662l-11.491-28.354A10.836,10.836,0,0,0-512.7,207.036Zm18.725,24.687a8.029,8.029,0,0,1-1.827,1.2,6.8,6.8,0,0,1-1.948.581l-14.137-26.569a14.592,14.592,0,0,1,3.4-2.232,11.9,11.9,0,0,1,3.5-1.03Z" transform="translate(7.534 17.761)" fill="url(#linear-gradient-3)"/>
      <path id="Trazado_116635" data-name="Trazado 116635" d="M-495,229.656l1.089-.221a6.108,6.108,0,0,1-5.7,2.662l.834-.663A7.684,7.684,0,0,0-495,229.656Z" transform="translate(8.563 19.828)" fill="#e5e2ff"/>
      <path id="Trazado_116636" data-name="Trazado 116636" d="M-512.7,207.038l.812-.1a13.162,13.162,0,0,1,6.893-3.262l.617-.522a8.473,8.473,0,0,0-4.6,1A8.476,8.476,0,0,0-512.7,207.038Z" transform="translate(7.534 17.759)" opacity="0.62" fill="url(#linear-gradient-4)" style="mix-blend-mode: multiply;isolation: isolate"/>
      <path id="Trazado_116637" data-name="Trazado 116637" d="M-516.165,204.883a31.164,31.164,0,0,0,12.574-5.854l1.836,4.448s-2.082-2.06-6.651-.2c-5.343,2.178-5.051,6.476-5.051,6.476Z" transform="translate(7.261 17.438)" opacity="0.62" fill="url(#linear-gradient-5)" style="mix-blend-mode: multiply;isolation: isolate"/>
      <path id="Trazado_116638" data-name="Trazado 116638" d="M-502.6,203.223a5.493,5.493,0,0,0-2.794-.964l13.662,33,1.647-1.7Z" transform="translate(8.108 17.692)" opacity="0.5" fill="url(#linear-gradient-6)" style="mix-blend-mode: screen;isolation: isolate"/>
      <path id="Trazado_116639" data-name="Trazado 116639" d="M-502.787,203.153s-1.433,4.409,2.681,6.5Z" transform="translate(8.294 17.762)" fill="#fff"/>
      <path id="Trazado_116640" data-name="Trazado 116640" d="M-301.763,407.9h-50.7c-5.307-29.468-17.646-67.812-17.646-67.812-3-1.78-8.855.41-8.855.41l-18.53,67.4h-46.315c-2.459-41.591,20.3-88.8,20.3-88.8l-.011-.011a5.1,5.1,0,0,1-.6-2.578,6.129,6.129,0,0,1,1.726-2.006c1.251-1.143,2.74-2.287,2.74-2.287l86.407-.539s.874.442,1.985,1.111h.011c1.888,1.143,4.444,2.912,4.444,4.207a5.9,5.9,0,0,1-.874,3.193l-.043.054C-309.2,355.212-301.763,407.9-301.763,407.9Z" transform="translate(12.935 26.293)" fill="url(#linear-gradient-7)"/>
      <g id="Grupo_79937" data-name="Grupo 79937" transform="translate(-391.085 366.593)">
        <path id="Trazado_116641" data-name="Trazado 116641" d="M-406.4,405.864l-.533-.091c5.9-34.73,20.858-63.858,21.008-64.148l.063-.079,3.812-3.333.355.407-3.773,3.3C-386.141,343.233-400.629,371.857-406.4,405.864Z" transform="translate(406.933 -338.214)" fill="url(#linear-gradient-8)"/>
      </g>
      <g id="Grupo_79938" data-name="Grupo 79938" transform="translate(-357.351 366.595)">
        <path id="Trazado_116642" data-name="Trazado 116642" d="M-350.948,405.864c-5.778-34.031-20.665-62.932-21.335-64.218l-3.374-3.028.36-.4,3.469,3.137c.154.292,15.515,29.69,21.41,64.421Z" transform="translate(375.657 -338.216)" fill="url(#linear-gradient-9)"/>
      </g>
      <path id="Trazado_116643" data-name="Trazado 116643" d="M-328.142,317a5.9,5.9,0,0,1-.874,3.193l-.043.054c-17.991,4.066-31.679,20.86-31.679,20.86,9.8,18.811,26.156,66.8,26.156,66.8h-19.21c-5.307-29.468-17.646-67.812-17.646-67.812-3-1.78-8.855.41-8.855.41l-18.53,67.4h-11.994c4.293-28.238,16.966-62.71,16.966-62.71-12.458-14.507-30.988-26.092-30.988-26.092l-.011-.011-2.2-1.381,1.6-1.2c8.014,7.69,33.857,17.732,34.656,18.045l-32.93-20.051c1.251-1.143,2.74-2.287,2.74-2.287l86.407-.539s.874.442,1.985,1.111l-23.6,12.986Z" transform="translate(14.266 26.293)" opacity="0.76" fill="url(#linear-gradient-10)" style="mix-blend-mode: multiply;isolation: isolate"/>
      <path id="Trazado_116644" data-name="Trazado 116644" d="M-375.49,338.5l10.086-6.544-2.4,6.544-1.756,19.7Z" transform="translate(18.319 27.887)" opacity="0.76" fill="url(#linear-gradient-10)" style="mix-blend-mode: multiply;isolation: isolate"/>
      <path id="Trazado_116645" data-name="Trazado 116645" d="M-381.3,339.574l-10.506-5.943L-414.293,323.5l28.642,18.928,1.706,6.784Z" transform="translate(15.269 27.222)" opacity="0.76" fill="url(#linear-gradient-10)" style="mix-blend-mode: multiply;isolation: isolate"/>
      <path id="Trazado_116646" data-name="Trazado 116646" d="M-354.036,152.75c.065.464.119.712.119.712a61.767,61.767,0,0,1-1.79,6.1,49.621,49.621,0,0,1-6.72,13.073,25.727,25.727,0,0,1-2.934,3.43c-15.737-4.94-23.492-20.332-26.469-27.99a.388.388,0,0,1-.043-.119c-.572-1.445-.949-2.61-1.186-3.365v-.011c-.183-.6-.27-.938-.27-.938.065-.129.129-.27.194-.4l.032-.054c.259-.539.518-1.089.755-1.618a76.753,76.753,0,0,0,4.314-12.048c.766-2.826,1.176-5,1.37-6.159.1-.593.14-.917.14-.917l7.335,3.872,25.272,13.375a41.576,41.576,0,0,0-.539,6.407c-.022,1.348.022,2.556.1,3.581.076,1.251.2,2.243.3,2.891v.011A.733.733,0,0,0-354.036,152.75Z" transform="translate(16.917 11.418)" fill="#fe9083"/>
      <path id="Trazado_116647" data-name="Trazado 116647" d="M-361.061,176.247a21.679,21.679,0,0,1-5.22,3.818.806.806,0,0,1-.129.076s-.054-.032-.151-.086l-.011-.011c-.55-.334-2.427-1.488-4.951-3.387-6.6-4.972-17.624-15.025-20.774-28.572-.011-.022-.011-.032-.022-.054a33.589,33.589,0,0,1-.755-4.951v-.011c-.032-.442-.065-.884-.076-1.337a69.5,69.5,0,0,0,5.986,10.7C-382.7,158.968-376,166.1-368,166.141c6.925.043,10.473-4.692,12.275-9.06a24.719,24.719,0,0,0,1.456-4.962.033.033,0,0,0,.011-.022c.076-.388.129-.733.183-1.025v-.011c.022-.151.043-.28.054-.4.065-.485.086-.766.086-.766S-351.278,166.464-361.061,176.247Z" transform="translate(16.931 12.934)" fill="url(#linear-gradient-13)"/>
      <path id="Trazado_116648" data-name="Trazado 116648" d="M-361.061,176.247a21.679,21.679,0,0,1-5.22,3.818h-.129l-.151-.011-.011-.011c-.55-.334-2.427-1.488-4.951-3.387-6.6-4.972-17.624-15.025-20.774-28.572-.011-.022-.011-.032-.022-.054a33.589,33.589,0,0,1-.755-4.951v-.011c-.032-.442-.065-.884-.076-1.337a69.5,69.5,0,0,0,5.986,10.7s4.358,11.973,13.785,17.9c4.724,2.966,8.305,2.535,10.937.787s4.336-4.767,5.339-7.054a16.586,16.586,0,0,0,1.381-6.019q.016-.534,0-.971a24.719,24.719,0,0,0,1.456-4.962.033.033,0,0,0,.011-.022c.076-.388.129-.733.183-1.025v-.011c.022-.151.043-.28.054-.4.065-.485.086-.766.086-.766S-351.278,166.464-361.061,176.247Z" transform="translate(16.931 12.934)" opacity="0.5" fill="url(#linear-gradient-14)" style="mix-blend-mode: multiply;isolation: isolate"/>
      <path id="Trazado_116649" data-name="Trazado 116649" d="M-294.415,274.188a1.913,1.913,0,0,0-.173.086c-.884.108-3.635-.5-7.237-3.613l-.011-.011q0-.016-.032-.032c-.011-.011-.022-.032-.043-.043-3.02-2.643-6.644-7.054-10.258-14.281-7.227-14.443-9.3-24.085-9.632-25.768l-.043-.259-4.217,6.687c-2.858,8.6-8.273,44.169-8.176,45.7s4.8,9,4.7,9.912a.033.033,0,0,1-.011.022c-.129.928-2.244,2.966-2.848,5.188-.41,1.478,2.459,6.137,4.476,9.621v.011a14.168,14.168,0,0,1,1.855,3.861c0,1.629-5.113,9.6-5.113,9.6v4.293l-.076.076-.237.216-.194.162c-1.941,1.532-10.171,6.547-35.885,7.928-30.471,1.629-50.77-8.176-50.77-8.176l1.532-4.2s-1.424-1.219-1.532-1.834,1.122-2.049,1.122-2.049-3.063-1.629-3.063-3.678,6.137-8.37,5.932-13.8-4.908-10.214-5.522-13.278,7.971-10.624,7.971-10.624c-7.356-23.3-8.791-54.567-8.791-54.567l-1.424-1.639s-8.791,20.03-16.762,29.834c-.949,1.165-1.952,2.319-2.988,3.43a87.34,87.34,0,0,1-6.86,6.633c-5.522,4.811-10.538,7.971-11.811,7.723-2.049-.41-10.225-16.557-9.848-33.113.173-7.874,4.918-16.686,9.848-23.751.529-.755,1.057-1.5,1.6-2.222a113.127,113.127,0,0,1,8.456-10.193c.626-.669.982-1.025.982-1.025s-1.122-3.613-1.888-6.752a1.721,1.721,0,0,0-.054-.227.383.383,0,0,0-.022-.108.339.339,0,0,0-.022-.076c-.453-1.931-.733-3.6-.475-4.012.68-1.089,4.638-2.319,5.318-3.128s3.538-14.583,5.717-16.082c2.092-1.435,5.771-2.481,18.034-7.3.6-.237,1.219-.475,1.866-.733,13.752-5.447,27.246-12.059,27.246-12.059l5.177-6.364h2.308l-.755,1.618-.032.054c.367,1.639.787,3.214,1.262,4.714a.388.388,0,0,0,.043.119c7.119,22.457,25.434,29.694,25.434,29.694,12.728-9.395,12.479-24.312,12.479-24.312v-2.049l2.384.712,1.629,3.883s2.761,4.293,13.7,9.1a65.061,65.061,0,0,1,6.008,3.074c10.01,5.684,21.141,14.475,21.993,16.341a6.04,6.04,0,0,1,.291.928v.011c1.176,4.616,3.592,21.907,5.835,28.076a14.127,14.127,0,0,0,5.242,7.076c.011.011.011.011.022.011a8.206,8.206,0,0,0,2.093,1.089q.259,1.424.485,2.815C-283.489,252.713-292.409,272.786-294.415,274.188Z" transform="translate(10.859 12.812)" fill="#ffca28"/>
      <path id="Trazado_116650" data-name="Trazado 116650" d="M-412.635,216.431l-8.888,2.988-1.424-1.639s-8.791,20.03-16.762,29.834c-.949,1.165-1.952,2.319-2.988,3.43a87.342,87.342,0,0,1-6.86,6.633l-6.774-29.2-3.441-22.165a113.128,113.128,0,0,1,8.456-10.193c.626-.669.982-1.025.982-1.025s-1.122-3.613-1.888-6.752a1.721,1.721,0,0,0-.054-.227.383.383,0,0,0-.022-.108.339.339,0,0,0-.022-.076c-.453-1.931-.733-3.6-.475-4.012.68-1.089,4.638-2.319,5.318-3.128s3.538-14.583,5.717-16.082c0,0-1.424,13.213,6.137,29.974l3.678,5.177,10.765,8.65S-417.09,213.94-412.635,216.431Z" transform="translate(11.694 14.74)" opacity="0.5" fill="url(#linear-gradient-14)" style="mix-blend-mode: multiply;isolation: isolate"/>
      <path id="Trazado_116651" data-name="Trazado 116651" d="M-436.548,239.591c-1.909,14.162-23.017,25.067-23.017,25.067-4.7,0-9.956-8.176-14.723-18.261s-5.059-39.056-5.307-40.847-2.912-5.371-3.074-6.9,4.293-4.7,4.293-4.7l-.032-.075-.032-.076c-.464-.992-3.074-6.59-2.891-7.615.2-1.122,5.2-3.57,5.2-3.57l.313,5.512s11.627-2.2,15.564-11.207l.69-2.761,1.941,1.294V187.3s.4,1.844,1.014,1.844,5.145-2.265,6.094-1.952,1.9,6.655,3.171,7.464,4.638,3.171,5.145,4.293a20.549,20.549,0,0,1,.27,4.476,45.731,45.731,0,0,0,.442,7.486C-440.766,214.071-434.639,225.418-436.548,239.591Z" transform="translate(9.894 15.482)" fill="#ffca28"/>
      <path id="Trazado_116652" data-name="Trazado 116652" d="M-256.525,225.169c-.949,1.5-5.717,4.638-6.946,5.868s0,5.253,0,5.253a165.4,165.4,0,0,1-43.015,32.941,1.908,1.908,0,0,0-.173.086c-12.577-8.456-11.5-22.381-7.324-34.116a88.552,88.552,0,0,1,11.131-20.9l.011-.011.011-.011a26.326,26.326,0,0,1,6.385-1.769,3.878,3.878,0,0,1,2.362.733c1.532.949,2.826,2.448,4.077,1.823,1.844-.928,5.965-10.667,8.758-10.937,1.952-.183,4.66,1.8,6.461,2.934.787.5,1.4.831,1.7.744,1.025-.27,4.5-4.433,4.778-4.541s1.855,1.046,1.855,1.046l-1.111,1.381a37.737,37.737,0,0,0,7.291,16.416l3.743-5.479S-255.565,223.67-256.525,225.169Z" transform="translate(22.93 17.77)" fill="#ffca28"/>
      <path id="Trazado_116653" data-name="Trazado 116653" d="M-354.368,152.263c-.022.14-.043.28-.054.421a8.343,8.343,0,0,1-.2.863.033.033,0,0,1-.011.022c-1.284,4.757-6.472,9.621-13.019,7.281-7.151-2.556-20.763-31.387-20.763-31.387l1.37-6.159,32.3,26.318.356,2.492Z" transform="translate(17.303 11.485)" fill="#cb4d7a"/>
      <path id="Trazado_116654" data-name="Trazado 116654" d="M-454.344,147.919s-1.975-10.9-1.089-18.938a87.061,87.061,0,0,0-.229-17.167,4.381,4.381,0,0,0-3.382,0c-1.43.818-4.769,9.128-3.269,15.8s.34,22.684.34,22.684h-2.248l-4.9-6.743-2.385-.682s-13.726,12.943-13.523,20.641l1.794,6.846,16.906-.578,11.036-12.6Z" transform="translate(9.708 10.554)" fill="#ee8183"/>
      <path id="Trazado_116655" data-name="Trazado 116655" d="M-471.24,140.587a87.9,87.9,0,0,0,2.281,15.941,3.814,3.814,0,0,1-3.847,3.219l-.869-.971s-.613,3.424-3.729,3.679l-2.964-2.963.767,2.452a4.2,4.2,0,0,1-3.883,2.5s-4.7-3.678-5.007-8.481l4.647-3.934v-3.015l5.52-3.883.1-2.2A12.968,12.968,0,0,1-471.24,140.587Z" transform="translate(9.437 12.844)" fill="url(#linear-gradient-16)"/>
      <path id="Trazado_116656" data-name="Trazado 116656" d="M-456.124,125.564a7.688,7.688,0,0,1-2,2.92c-1.176.818-4.58,1.443-4.58,1.443l-.155,19.266h-2.248l-4.9-6.743s2.486,3.848,2.639,6.743l-1.942.955L-471,144.374l-.8,4.155.795,5.171a13.567,13.567,0,0,1,8.17-2.6l.792,1.437s-9.52,7.886-11.717,12.535c0,0,4.7-5.978,15.43-12.568l1.023-3.168,1.356-7.563S-457.237,130.87-456.124,125.564Z" transform="translate(10.595 11.663)" opacity="0.6" fill="url(#linear-gradient-17)" style="mix-blend-mode: multiply;isolation: isolate"/>
      <path id="Trazado_116657" data-name="Trazado 116657" d="M-447.38,158.74c-.884,2.653-10.15,13.688-11.174,16.082a32.389,32.389,0,0,0-1.639,5.512c-4.552,9.848-15.564,11.207-15.564,11.207l-.507-8.888s-5.922-3.408-6.925-5.274l-.011-.032-.119-.313a74.2,74.2,0,0,1-.043-8.176l10.365-4.2c4.5-5.824,15.435-12.566,15.435-12.566l.507-3.052c-7.852-3.861-6.536-15.543-5.21-16.977a5.819,5.819,0,0,1,3.775-1.424s2.869,9.395,4.7,13.8S-446.5,156.086-447.38,158.74Z" transform="translate(9.832 12.062)" fill="url(#linear-gradient-16)"/>
      <path id="Trazado_116658" data-name="Trazado 116658" d="M-478.963,142.766s1.157,10.73,4.546,15.838a25,25,0,0,1-4.649-13.641Z" transform="translate(10.178 13.015)" fill="#e28183"/>
      <path id="Trazado_116659" data-name="Trazado 116659" d="M-484.183,148.4s1.126,8.634,6.44,13.437c0,0-4.706-2.35-6.44-10.423Z" transform="translate(9.775 13.458)" fill="#e28183"/>
      <path id="Trazado_116660" data-name="Trazado 116660" d="M-457.643,169.481s-11.686,11.347-19.147,10.118l.507,8.888a19.716,19.716,0,0,0,16.249-13.972A33.472,33.472,0,0,1-457.643,169.481Z" transform="translate(10.356 15.115)" opacity="0.91" fill="url(#linear-gradient-19)" style="mix-blend-mode: multiply;isolation: isolate"/>
      <path id="Trazado_116661" data-name="Trazado 116661" d="M-225.384,186.753s-10.732,19.62-23.3,25.649h-4.293l-9.912,15.025s-6.407-4.023-6.882-17.236a12.053,12.053,0,0,0,2.794-4.983s-3.538-2.783-4.5-4.821-1.294-8.176-1.974-10.7-6.472-7.766-7.766-8.445-7.151-1.025-7.151-1.025-.82-2.114,0-3.128,9.945-4.573,14.917-1.165a22.4,22.4,0,0,0,.884,3.958c.55,1.359,4.908,6.191,5.587,6.191s3.613-2.448,4.908-4.358c1.24-1.834,7.831-16.039,9.427-20.839a.534.534,0,0,1,.043-.14c.022-.076.054-.151.065-.216a1,1,0,0,0,.043-.14c.011-.022.022-.032.022-.054,1.23-4.153,8.381-12.124,12.2-14.3a2.249,2.249,0,0,1,2.513,1.629s-3.063,8.726-6.267,13.9c-.539.874-1.122,1.9-1.726,3h-.011c-2.729,5.016-5.8,11.584-6.245,12.544l-.054.119,1.7.874,4.606-4.368,4.724-4.476,10.84,11.444-1.068,1.359-3.387,4.347,1.715.313,3.991-4.412Z" transform="translate(25.139 13.269)" fill="url(#linear-gradient-16)"/>
      <path id="Trazado_116662" data-name="Trazado 116662" d="M-229.48,189.839l-3.429,5.039s-18.825-14.517-22.913-15.747-5.587-.41-5.587-.41l-4.217,5.382s7.766,6.882,8.445,16.147c0,0-2.589-11.714-11.379-15.262.68,0,3.613-2.448,4.908-4.358,1.24-1.834,7.831-16.039,9.427-20.839a5.352,5.352,0,0,0,.173,3.678c.928,1.715,6.385.1,6.709,0h.011l-6.256,12.544-.054.119,1.7.874,4.606-4.368L-249.641,178l16.8,2.966-3.387,4.347,1.715.313Z" transform="translate(26.725 14.354)" opacity="0.6" fill="url(#linear-gradient-17)" style="mix-blend-mode: multiply;isolation: isolate"/>
      <path id="Trazado_116663" data-name="Trazado 116663" d="M-243.911,167.557s3.27-.477,5.382,3.746l-.477,1.362s3.186.625,6.267,5.791a17.466,17.466,0,0,1-9.469,7.221s-3.133-.886-3.678-3.543l.613-1.7-2.453,1.84s-2.928.886-4.223-3.474Z" transform="translate(28.03 14.963)" fill="url(#linear-gradient-22)"/>
      <path id="Trazado_116664" data-name="Trazado 116664" d="M-228.421,182.9a5.055,5.055,0,0,0-2.657-5.177l-6.472,7.153a3.341,3.341,0,0,0,3,2.793S-230.124,186.172-228.421,182.9Z" transform="translate(29.162 15.763)" fill="url(#linear-gradient-22)"/>
      <path id="Trazado_116665" data-name="Trazado 116665" d="M-272.73,196.422a47.99,47.99,0,0,0,18.5,12.016l-4.74,7.187-9.894-12.564.634-1.817S-272.187,198.27-272.73,196.422Z" transform="translate(26.397 17.233)" opacity="0.91" fill="url(#linear-gradient-19)" style="mix-blend-mode: multiply;isolation: isolate"/>
      <path id="Trazado_116666" data-name="Trazado 116666" d="M-239.448,172.292s-3.134,5.177-6.268,7.766l-.613,1.7s6.082-4.1,8.32-8.848A3.9,3.9,0,0,0-239.448,172.292Z" transform="translate(28.472 15.336)" fill="#e28183"/>
      <path id="Trazado_116667" data-name="Trazado 116667" d="M-255.28,227c-.949,1.5-5.717,4.638-6.946,5.868s0,5.253,0,5.253a165.4,165.4,0,0,1-43.015,32.941,1.908,1.908,0,0,0-.173.086c-1.639.2-9.61-2.039-17.581-17.98-7.227-14.443-9.3-24.085-9.632-25.768l-.043-.259,1.758-2.384,2.61-29.424,1.834,5.922C-319.522,192.87-312.975,180-312.975,180l.291.928v.011c1.176,4.616,3.592,21.907,5.835,28.076a14.127,14.127,0,0,0,5.242,7.076l.011.022-.011.011c-6.4,5.835-9.567,14.227-11.131,20.9a57.9,57.9,0,0,0-1.532,10.818,72.734,72.734,0,0,1,7.356-18.293,39.371,39.371,0,0,1,7.906-9.546,63.476,63.476,0,0,1,6.17-4.94c1.532.949,2.826,2.448,4.077,1.823-8.413,12.63-8.208,37.633-.3,32.865s9.7-14.886,9.7-14.886c-1.866-12.328-1.309-26.233.19-28.875,1.82.06,7.03,3.723,7.332,3.637a42.716,42.716,0,0,0,6.342,24.193l4.5-6.957a43.157,43.157,0,0,1-6.062-21.777c.27-.119,1.855,1.046,1.855,1.046l-1.111,1.381a37.737,37.737,0,0,0,7.291,16.416l3.743-5.479S-254.32,225.5-255.28,227Z" transform="translate(21.685 15.942)" opacity="0.5" fill="url(#linear-gradient-10)" style="mix-blend-mode: multiply;isolation: isolate"/>
      <path id="Trazado_116668" data-name="Trazado 116668" d="M-330.209,318.106V322.4l-.076.076-.237.216-.194.162c-1.941,1.532-10.171,6.547-35.885,7.928-30.471,1.629-50.77-8.176-50.77-8.176l1.532-4.2s-1.424-1.219-1.532-1.834,1.122-2.049,1.122-2.049-3.063-1.629-3.063-3.678c0-1.844,5-7.184,5.814-12.2a7.289,7.289,0,0,0,.119-1.6c-.2-5.393-4.865-10.171-5.512-13.235a.17.17,0,0,1-.011-.043c-.615-3.063,7.971-10.624,7.971-10.624-7.356-23.3-8.791-54.567-8.791-54.567l-1.424-1.639s-8.791,20.03-16.762,29.834-19.62,18.2-21.658,17.786c-4.7,0-9.956-8.176-14.723-18.261s-5.059-39.056-5.307-40.847-2.912-5.371-3.074-6.9c5.113,8.791,13.256,6.2,13.256,6.2-5.9.129-8.963-10.9-8.963-10.9l-.032-.075-.032-.076-2.88-7.6c.324.367,7.065,7.906,13.58,3.257,6.677-4.767,10.117-14,10.117-14v11.854s.4,1.844,1.014,1.844a144.7,144.7,0,0,1-2.955,18.649c-3.031,14.162-7.184,27.839-7.184,27.839s11.261-6.126,15.219-21.658a65.511,65.511,0,0,0,2.017-18.6,46.612,46.612,0,0,0-.906-7.777,1.721,1.721,0,0,0-.054-.227.383.383,0,0,0-.022-.108.468.468,0,0,0-.011-.054l1.089,2.308,2.071,5.134c2.405,19.933-2.556,49.972-2.556,49.972,7.227-9,8.726-28.885,8.413-33.717-.14-2.308-.324-5.156-.442-7.486-.162-2.546-.27-4.476-.27-4.476l14.788,8.823-2.729-8.65,10.765,8.65s9.675,11.649,19.62,13.008,46.456.55,46.456.55-31.743,2.039-41.009,4.767-11.034,5.857-11.034,5.857c6.7,34.073,43.77,45.56,44.924,45.906-33.631-5.048-49.282-33.642-49.282-33.642s-.55,16.082,2.039,22.209,17.851,21.119,37.471,24.247a45.186,45.186,0,0,0,4.886.5c16.546.777,30.244-7.68,31.646-8.586a1,1,0,0,1,.119-.076.567.567,0,0,1-.032.054c-.529.809-7.313,10.344-34.71,11.39-1.661.065-3.279.054-4.854-.011h-.022c-25.39-1.068-38.323-17.98-38.323-17.98s-9.395,5.048-3.4,12.533c.065.076.129.162.194.237,1.769,2.039,5.663,4.53,10.268,7.1.129.076.259.151.378.216,5.566,3.074,12.091,6.245,17.139,8.866a.532.532,0,0,1,.076.032,63.9,63.9,0,0,1,7.033,4.023.011.011,0,0,1,.011.011c1.424,1.035,1.715,1.7.324,1.866-7.086.82-33.922-5.037-35.012-3.408s1.327,5.857,1.327,5.857c24.635,12.21,77.347,6.191,79.008,6.008C-378.25,330.5-414.34,316.2-414.34,316.2l1.2,4.228a157.829,157.829,0,0,0,42.81,7.356c23.168.539,37.611-5.382,37.611-5.382Z" transform="translate(9.894 15.577)" opacity="0.5" fill="url(#linear-gradient-14)" style="mix-blend-mode: multiply;isolation: isolate"/>
      <path id="Trazado_116669" data-name="Trazado 116669" d="M-358.055,217.766s17.547.953,29.142,4.019l-5.98,9.071A79.547,79.547,0,0,0-358.055,217.766Z" transform="translate(19.69 18.911)" opacity="0.5" fill="url(#linear-gradient-27)" style="mix-blend-mode: multiply;isolation: isolate"/>
      <path id="Trazado_116670" data-name="Trazado 116670" d="M-339.733,262.605s-10.946,9.132-21.709,13.355a72.668,72.668,0,0,1-21.118,4.633s6.188,1.839,21.414-.613,20.435-10.7,20.435-10.7Z" transform="translate(17.764 22.435)" opacity="0.5" fill="url(#linear-gradient-27)" style="mix-blend-mode: multiply;isolation: isolate"/>
      <path id="Trazado_116671" data-name="Trazado 116671" d="M-334.965,296.291v.011c-20.256,5.231-45.97-2.276-45.755-3.193s7.043.41,22.877-2.761c15.349-3.074,20.914-8.532,21.249-8.866-.129.928-2.243,2.966-2.848,5.188C-339.851,288.148-336.982,292.807-334.965,296.291Z" transform="translate(17.908 23.919)" opacity="0.5" fill="url(#linear-gradient-27)" style="mix-blend-mode: multiply;isolation: isolate"/>
      <path id="Trazado_116672" data-name="Trazado 116672" d="M-384.921,222.133c-17.3,1.758-21.96,6.58-21.96,6.58-4.865.615-15.791-11.843-15.791-11.843l-1.424-1.639s-8.791,20.03-16.762,29.834c-.949,1.165-1.952,2.319-2.988,3.43l1.133-2.546s1.855-.884,2.395-10.624-4.088-24.247-4.12-26.221-.712-11.962-.712-11.962l14.788,8.823-2.729-8.65,10.765,8.65s4.217,6.342,14.863,11.627C-397.422,222.586-386.161,222.187-384.921,222.133Z" transform="translate(12.844 17.29)" opacity="0.5" fill="url(#linear-gradient-30)" style="mix-blend-mode: multiply;isolation: isolate"/>
      <path id="Trazado_116673" data-name="Trazado 116673" d="M-425.63,214.01l10.307-1.345a77.545,77.545,0,0,0,12.39,6.1l-6.9,10.167s2.735,14.5,10.588,22.665c0,0-20.84-11.576-23.769-21.308Z" transform="translate(14.378 18.51)" opacity="0.5" fill="url(#linear-gradient-30)" style="mix-blend-mode: multiply;isolation: isolate"/>
      <path id="Trazado_116674" data-name="Trazado 116674" d="M-481.42,186.095l2.945,7.755s3,10.467,8.963,10.9,11.789-17.549,11.789-17.549V175.352s-6.34,13.595-13.187,15.127S-481.42,186.095-481.42,186.095Z" transform="translate(9.992 15.577)" opacity="0.5" fill="url(#linear-gradient-30)" style="mix-blend-mode: multiply;isolation: isolate"/>
      <path id="Trazado_116675" data-name="Trazado 116675" d="M-448.37,180.794s5.313,10.623,11.853,13.894c0,0-7.776-18.872-6.136-29.976C-442.653,164.712-445.512,166.492-448.37,180.794Z" transform="translate(12.59 14.74)" opacity="0.5" fill="url(#linear-gradient-27)" style="mix-blend-mode: multiply;isolation: isolate"/>
      <path id="Trazado_116676" data-name="Trazado 116676" d="M-328.3,194.212l1.834,5.922,1.861,48.591a117.175,117.175,0,0,1-8.019-22.446l1.718-2.643S-328.029,205.321-328.3,194.212Z" transform="translate(21.688 17.059)" opacity="0.76" fill="url(#linear-gradient-10)" style="mix-blend-mode: multiply;isolation: isolate"/>
      <path id="Trazado_116677" data-name="Trazado 116677" d="M-276.226,207.472s-1.038,23.871,9.107,25.934l.5,2.552S-279.74,235.472-276.226,207.472Z" transform="translate(26.075 18.102)" opacity="0.5" fill="url(#linear-gradient-10)" style="mix-blend-mode: multiply;isolation: isolate"/>
      <path id="Trazado_116678" data-name="Trazado 116678" d="M-290.375,214.335s-.388.856-4.077-1.823c0,0-12.76,9.038-17.676,21.777,0,0,7.865-11.7,12.05-12.97s5.2,3.405,5.2,3.405S-293.227,218.143-290.375,214.335Z" transform="translate(23.3 18.498)" opacity="0.3" fill="url(#linear-gradient-10)" style="mix-blend-mode: multiply;isolation: isolate"/>
      <path id="Trazado_116679" data-name="Trazado 116679" d="M-482.668,196.862s4.91,9.05,14.107,6.211c0,0-5.512,3.715-11.033.692C-479.594,203.765-483.021,197.885-482.668,196.862Z" transform="translate(9.892 17.268)" opacity="0.5" fill="url(#linear-gradient-37)" style="mix-blend-mode: multiply;isolation: isolate"/>
      <path id="Trazado_116680" data-name="Trazado 116680" d="M-452.069,186.242s6.75,25.238-10.859,44.2A29.249,29.249,0,0,0-448.9,210.98,41.791,41.791,0,0,0-452.069,186.242Z" transform="translate(11.446 16.433)" opacity="0.5" fill="url(#linear-gradient-10)" style="mix-blend-mode: multiply;isolation: isolate"/>
      <path id="Trazado_116681" data-name="Trazado 116681" d="M-339.079,167.541s-.76,11.392-6.22,19.567S-361.591,200.8-361.591,200.8s13.59-5.007,19.824-12.058S-339.079,167.541-339.079,167.541Z" transform="translate(19.412 14.963)" opacity="0.5" fill="url(#linear-gradient-30)" style="mix-blend-mode: multiply;isolation: isolate"/>
      <path id="Trazado_116682" data-name="Trazado 116682" d="M-405,151.649a72.04,72.04,0,0,0,3.065,19.234c3.065,9.709,29.674,26.671,29.674,26.671S-399.685,186.161-405,175.917-405,151.649-405,151.649Z" transform="translate(15.814 13.713)" opacity="0.5" fill="url(#linear-gradient-30)" style="mix-blend-mode: multiply;isolation: isolate"/>
      <path id="Trazado_116683" data-name="Trazado 116683" d="M-405.459,193.709v15.515s35.713-.288,75.758,2.364l.915-13.964A698.193,698.193,0,0,0-405.459,193.709Z" transform="translate(15.964 17.019)" fill="url(#linear-gradient-41)"/>
      <path id="Trazado_116684" data-name="Trazado 116684" d="M-399.3,197.017c.009-.264.136-.394.383-.386l7.235.219a5.4,5.4,0,0,1,1.821.328,3.031,3.031,0,0,1,1.2.806,2.987,2.987,0,0,1,.639,1.225,5.527,5.527,0,0,1,.164,1.59l-.06,1.988a5.55,5.55,0,0,1-.26,1.577,2.977,2.977,0,0,1-.712,1.185,3.054,3.054,0,0,1-1.244.732,5.442,5.442,0,0,1-1.836.216l-3.9-.119-.807-2.278-.1,0-.069,2.251-2.73-.083Zm2.525,6.827,4.625.141a1.5,1.5,0,0,0,1.124-.311,1.754,1.754,0,0,0,.367-1.209l.05-1.617a1.718,1.718,0,0,0-.293-1.236,1.565,1.565,0,0,0-1.1-.358l-4.427-.135a.186.186,0,0,0-.147.056.2.2,0,0,0-.057.137Z" transform="translate(16.426 17.249)" fill="#ebefff"/>
      <path id="Trazado_116685" data-name="Trazado 116685" d="M-384.868,201.129l-.093,0-.087,2.889a.163.163,0,0,0,.179.191l8.136.247-.076,2.5-10.667-.322a.346.346,0,0,1-.372-.409l.269-8.853a.345.345,0,0,1,.4-.385l10.361.315a.352.352,0,0,1,.386.409l-.077,2.5-2.56.864-.107,0,.04-1.285c0-.1-.04-.148-.128-.15l-5.472-.166a.144.144,0,0,0-.141.055.26.26,0,0,0-.037.125l-.037,1.2,4.505.137-.059,1.962-3.777-.114Z" transform="translate(17.348 17.277)" fill="#ebefff"/>
      <path id="Trazado_116686" data-name="Trazado 116686" d="M-367.669,200.918l-.106,0,.031-1.06a.14.14,0,0,0-.153-.164l-5.089-.155a.505.505,0,0,0-.388.108.5.5,0,0,0-.116.341l-.008.238c-.005.187.021.306.082.361a.756.756,0,0,0,.355.13l5.963,1.016a3.951,3.951,0,0,1,.961.275,1.829,1.829,0,0,1,.636.457,1.545,1.545,0,0,1,.337.681,3.64,3.64,0,0,1,.079.944l-.024.767a3.444,3.444,0,0,1-.178,1.049,1.771,1.771,0,0,1-.5.754,2.084,2.084,0,0,1-.889.443,4.865,4.865,0,0,1-1.343.12l-8.586-.261.076-2.5,7.7.234a.619.619,0,0,0,.462-.112.671.671,0,0,0,.125-.441l.008-.264a.545.545,0,0,0-.074-.354.53.53,0,0,0-.334-.137l-5.755-.9a4.583,4.583,0,0,1-.993-.269,1.93,1.93,0,0,1-.67-.444,1.544,1.544,0,0,1-.363-.661,3.086,3.086,0,0,1-.091-.918l.02-.676a2.237,2.237,0,0,1,.6-1.606,2.507,2.507,0,0,1,1.874-.52l8.573.26a.37.37,0,0,1,.4.437l-.06,1.988Z" transform="translate(18.232 17.308)" fill="#ebefff"/>
      <path id="Trazado_116687" data-name="Trazado 116687" d="M-364.96,207.317l.292-9.646,2.73.083-.292,9.646Z" transform="translate(19.147 17.331)" fill="#ebefff"/>
      <path id="Trazado_116688" data-name="Trazado 116688" d="M-352.389,203.553c0-.141,0-.289-.007-.445s-.019-.289-.034-.406l0-.119,2.7.082-.143,4.731q-.011.371-.342.361l-7.261-.22a5.454,5.454,0,0,1-1.821-.328,3.035,3.035,0,0,1-1.2-.806,2.967,2.967,0,0,1-.64-1.226,5.553,5.553,0,0,1-.164-1.589l.06-1.989a5.556,5.556,0,0,1,.26-1.577,3.009,3.009,0,0,1,.712-1.185,3.046,3.046,0,0,1,1.244-.73,5.423,5.423,0,0,1,1.837-.217l7.22.219a.346.346,0,0,1,.373.409l-.064,2.081-2.56.851-.106,0,.028-.928c0-.088-.035-.134-.114-.136l-4.611-.14a2.64,2.64,0,0,0-.671.053.941.941,0,0,0-.453.238,1.067,1.067,0,0,0-.265.469,2.917,2.917,0,0,0-.1.732l-.05,1.7a1.754,1.754,0,0,0,.293,1.23,1.5,1.5,0,0,0,1.1.378l4.572.139c.1,0,.146-.049.149-.154Z" transform="translate(19.435 17.348)" fill="#ebefff"/>
      <path id="Trazado_116689" data-name="Trazado 116689" d="M-344.872,198.271a.764.764,0,0,1,.428.106.859.859,0,0,1,.222.3l3.448,7.041a.277.277,0,0,0,.246.166l.146.005a.188.188,0,0,0,.219-.206l.22-7.261,2.478.076-.282,9.262q-.011.385-.382.372l-3.924-.119a.851.851,0,0,1-.413-.092.733.733,0,0,1-.25-.313l-3.58-7.033a.264.264,0,0,0-.246-.166l-.133,0a.187.187,0,0,0-.218.206l-.22,7.248-2.479-.076.28-9.249c.009-.264.135-.394.383-.386Z" transform="translate(20.355 17.369)" fill="#ebefff"/>
      <path id="Trazado_116690" data-name="Trazado 116690" d="M-349.434,154.614c-.841,10.031-3.894,17.02-7.151,21.734-4.487,6.472-9.341,8.683-9.341,8.683a56.041,56.041,0,0,1-12.684-7.647,64.68,64.68,0,0,1-20.72-30.74c6.493,15.683,16.028,25.185,23.255,30.535a46.677,46.677,0,0,0,10.15,5.954v-5.016a33.321,33.321,0,0,1-3.344-1.467c-12.728-6.418-19.415-19.792-22.543-28.443-.011-.022-.011-.032-.022-.054a61.442,61.442,0,0,1-2.351-7.971h2.308l-.755,1.618-.032.054c.367,1.639.787,3.214,1.262,4.714a.388.388,0,0,0,.043.119c7.119,22.457,25.434,29.694,25.434,29.694,12.728-9.395,12.479-24.312,12.479-24.312v-2.049l2.384.712Z" transform="translate(16.445 12.812)" opacity="0.5" fill="url(#linear-gradient-14)" style="mix-blend-mode: multiply;isolation: isolate"/>
      <path id="Trazado_116691" data-name="Trazado 116691" d="M-282.952,204.1s-3.46,11.3-.19,28.875c0,0,1.635-22.275,2.862-24.217s4.661-1.021,4.661-1.021A79.942,79.942,0,0,0-282.952,204.1Z" transform="translate(25.468 17.836)" opacity="0.3" fill="url(#linear-gradient-10)" style="mix-blend-mode: multiply;isolation: isolate"/>
      <path id="Trazado_116692" data-name="Trazado 116692" d="M-312.741,267.445c-3.02-2.643-6.644-7.054-10.258-14.281-7.227-14.443-9.3-24.085-9.632-25.768l1.715-2.643,2.3-22.219,2.146-1.284A90.9,90.9,0,0,0-312.978,180a6.044,6.044,0,0,1,.291.928v.011c1.176,4.616,3.592,21.907,5.835,28.076a14.127,14.127,0,0,0,5.242,7.076s-13.278,19.7-13.925,33.75C-316.106,262.634-313.258,266.8-312.741,267.445Z" transform="translate(21.688 15.942)" opacity="0.5" fill="url(#linear-gradient-10)" style="mix-blend-mode: multiply;isolation: isolate"/>
      <path id="Trazado_116693" data-name="Trazado 116693" d="M-384.43,300.979s-23.934-3.926-33.706-10.225a.011.011,0,0,1-.011-.011,7.289,7.289,0,0,0,.119-1.6c-.2-5.393-4.865-10.171-5.512-13.235.108.291.809,1.909,4.207,4.821a72.2,72.2,0,0,0,10.268,7.1c.129.076.259.151.378.216,6.9,4.077,12.846,6.838,17.139,8.866a.532.532,0,0,1,.076.032c3.861,1.812,6.364,3.009,7.033,4.023A.011.011,0,0,1-384.43,300.979Z" transform="translate(14.542 23.481)" opacity="0.5" fill="url(#linear-gradient-10)" style="mix-blend-mode: multiply;isolation: isolate"/>
      <path id="Trazado_116694" data-name="Trazado 116694" d="M-336.594,281.482c-.129.928-2.243,2.966-2.848,5.188,0,0-8.78,9.3-41.278,6.439.216-.917,7.043.41,22.877-2.761C-342.494,287.274-336.929,281.816-336.594,281.482Z" transform="translate(17.908 23.919)" opacity="0.5" fill="url(#linear-gradient-10)" style="mix-blend-mode: multiply;isolation: isolate"/>
      <path id="Trazado_116695" data-name="Trazado 116695" d="M-327.6,168.185l-20.774,6.73-6.083,2.826-.032.011-3.958.011-5.35.011-3.344.27-1.769.129-5.037.4-2.535.2L-401.4,169.76l-4.455-1.607-20.494-7.421c.6-.237,1.219-.475,1.866-.733,13.752-5.447,27.246-12.059,27.246-12.059l5.177-6.364h2.308a76.753,76.753,0,0,0,4.314-12.048l1.37-6.159c.1-.593.14-.917.14-.917l7.335,3.872,24.732,19.782c-.022,1.348.022,2.556.1,3.581l.356,2.492c.065-.485.086-.766.086-.766l2.384.712,1.629,3.883s2.761,4.293,13.7,9.1A65.065,65.065,0,0,1-327.6,168.185Z" transform="translate(14.321 11.418)" fill="#7a4ac0" opacity="0.5" style="mix-blend-mode: multiply;isolation: isolate"/>
      <path id="Trazado_116696" data-name="Trazado 116696" d="M-346.508,153.318a33.835,33.835,0,0,1-20.375-3c-10.689-5.177-19.674-20.44-20.224-24.247s4.088-13.763,4.088-21.529-3.807-21.119,2.589-28.346,35.831-8.305,45.377.96c0,0,2.955,7.421,2.955,11.617a30.562,30.562,0,0,1-.453,4.217c-.086.636-.2,1.316-.313,2.017-.852,5.08-2.028,11.282-1.478,14a13.634,13.634,0,0,0,.852,2.653v.011c1.176,2.718,2.923,4.886,3.236,7.237C-329.844,121.984-333.964,143.783-346.508,153.318Z" transform="translate(17.403 7.334)" fill="url(#linear-gradient-16)"/>
      <path id="Trazado_116697" data-name="Trazado 116697" d="M-382.389,100.52s-2.644-6.63-9.286-6.733c0,0-3.883,1.533-4.5,4.5,0,0,1.43,10.729,3.065,15.736s7.63,4.283,7.63,4.283A25.418,25.418,0,0,0-382.389,100.52Z" transform="translate(16.694 9.165)" fill="url(#linear-gradient-16)"/>
      <path id="Trazado_116698" data-name="Trazado 116698" d="M-359.726,120.346s2.211-.173,3.166.543,4.428,4.088,8.822,5.007,7.341-2.822,8.276-3.014,1.965,1.133,1.965,1.133a3.686,3.686,0,0,0-2.691-2.225s-.928,3.524-7.3,2.318-9.076-4.036-9.076-4.036l-.324-.579A16.909,16.909,0,0,0-359.726,120.346Z" transform="translate(19.558 11.186)" fill="url(#linear-gradient-49)"/>
      <path id="Trazado_116699" data-name="Trazado 116699" d="M-367.3,91.112l.086-.681s6.353-11.148,18.922-11.455,15.408,7.57,15.408,7.57l2.328-3.535-5.3-10.78-36.927-.613-8.992,7.255-1.136,17.76,4,23.448,9.728,5.184,2.746-2.436c-1.014-7.851-6.853-15.025-6.853-15.025l4.257-2.955s10.934,5.293,17.252,3.708c0,0,4.751-13.869,4.479-24.144C-347.312,84.415-363.508,86.811-367.3,91.112Z" transform="translate(17.735 7.423)" opacity="0.6" fill="url(#linear-gradient-17)" style="mix-blend-mode: multiply;isolation: isolate"/>
      <path id="Trazado_116700" data-name="Trazado 116700" d="M-368.961,91.106s.613-4.016,7.392-5.623c7.549-1.788,13.683-3.3,13.683-3.3s-1.336,4.4-3.853,6.055c0,0-7.989-.29-12.032.629S-368.961,91.106-368.961,91.106Z" transform="translate(18.833 8.253)" fill="#38368e"/>
      <path id="Trazado_116701" data-name="Trazado 116701" d="M-336.063,85.458s-3.833,2.955-6.439,10.006c0,0,2.5-3.27,4.8-3.22a1.313,1.313,0,0,1,1.322,1.592A14.73,14.73,0,0,0-336.063,85.458Z" transform="translate(20.912 8.51)" fill="#38368e"/>
      <path id="Trazado_116702" data-name="Trazado 116702" d="M-366.612,101.761s.408-8.481,8.685-10.626a17.338,17.338,0,0,1,3.27,8.175S-359.051,98.492-366.612,101.761Z" transform="translate(19.017 8.957)" fill="url(#linear-gradient-51)"/>
      <path id="Trazado_116703" data-name="Trazado 116703" d="M-344.634,104.788s.67-6.752,4.547-9.248c0,0,2.644,1.98,2.37,7.632C-337.717,103.172-340.035,102.335-344.634,104.788Z" transform="translate(20.745 9.303)" fill="url(#linear-gradient-52)"/>
      <path id="Trazado_116704" data-name="Trazado 116704" d="M-366.612,101.174s2.69,3.3,10.218,3.951c0,0,1.435-2.182,1.3-6.455C-355.1,98.669-362.014,98.006-366.612,101.174Z" transform="translate(19.017 9.544)" fill="#ffebed"/>
      <path id="Trazado_116705" data-name="Trazado 116705" d="M-344.634,104.241v.987s1.158,2.418,5.314,2.827a11.582,11.582,0,0,0,1.452-5.471S-340.512,101.924-344.634,104.241Z" transform="translate(20.745 9.85)" fill="#ffebed"/>
      <path id="Trazado_116706" data-name="Trazado 116706" d="M-359.025,98.509a9.335,9.335,0,0,0-1.738,5.983,28.467,28.467,0,0,0,3.909.648,10.159,10.159,0,0,0,1.3-6.455A10.413,10.413,0,0,0-359.025,98.509Z" transform="translate(19.476 9.529)" fill="#7f9ec9"/>
      <path id="Trazado_116707" data-name="Trazado 116707" d="M-340.883,102.705s-1.083,1.156-1.288,4.708a8.161,8.161,0,0,0,2.658.646,9.855,9.855,0,0,0,1.452-5.471A4.756,4.756,0,0,0-340.883,102.705Z" transform="translate(20.938 9.845)" fill="#7f9ec9"/>
      <path id="Trazado_116708" data-name="Trazado 116708" d="M-359.72,104.747s-.684-4.582,1.939-6.335l2.148.273a9.235,9.235,0,0,1-1.3,6.455S-359.063,104.9-359.72,104.747Z" transform="translate(19.553 9.529)" fill="#38368e"/>
      <path id="Trazado_116709" data-name="Trazado 116709" d="M-339.993,102.5a19.636,19.636,0,0,0-1.425,5.21,5.933,5.933,0,0,0,1.845.347,8.95,8.95,0,0,0,1.452-5.471A4.415,4.415,0,0,0-339.993,102.5Z" transform="translate(20.998 9.844)" fill="#38368e"/>
      <path id="Trazado_116710" data-name="Trazado 116710" d="M-366.612,101.2s5.007-2.912,13.539-1.251l-1.583-1.2A14.267,14.267,0,0,0-366.612,101.2Z" transform="translate(19.017 9.523)" fill="#131163"/>
      <path id="Trazado_116711" data-name="Trazado 116711" d="M-344.634,104.293a13.517,13.517,0,0,1,8.7-1l-1.929-1.428S-341.006,101.381-344.634,104.293Z" transform="translate(20.745 9.797)" fill="#131163"/>
      <path id="Trazado_116712" data-name="Trazado 116712" d="M-361.591,100.989a2.961,2.961,0,0,1,2.589.941A2.359,2.359,0,0,1-361.591,100.989Z" transform="translate(19.412 9.729)" fill="#fff"/>
      <path id="Trazado_116713" data-name="Trazado 116713" d="M-342.928,104.656s2.135-.415,2.872.559C-340.056,105.215-341.2,106-342.928,104.656Z" transform="translate(20.879 10.013)" fill="#fff"/>
      <path id="Trazado_116714" data-name="Trazado 116714" d="M-366.145,101.446a19.609,19.609,0,0,0,10.123,4.767l.161-2.269-.57.958S-362.423,104.547-366.145,101.446Z" transform="translate(19.054 9.767)" fill="#c6659c"/>
      <path id="Trazado_116715" data-name="Trazado 116715" d="M-344.634,105.029s.692,2.487,5.762,3.611l-.163-1.218-.285.434S-342.922,107.4-344.634,105.029Z" transform="translate(20.745 10.049)" fill="#c6659c"/>
      <path id="Trazado_116716" data-name="Trazado 116716" d="M-354.06,114.263a18.058,18.058,0,0,1,5.365,0c3.474.409,7.381,1.363,9.514,0,0,0-2.836,2.839-5.291,3.27s-6.2-1.726-6.2-1.726l-1.635.028A4.446,4.446,0,0,1-354.06,114.263Z" transform="translate(20.004 10.76)" fill="#cb5f7d"/>
      <path id="Trazado_116717" data-name="Trazado 116717" d="M-352.212,115.735a2.606,2.606,0,0,1,1.566-.41c.715.136,1.443,1.178,1.443,1.178A7.119,7.119,0,0,0-352.212,115.735Z" transform="translate(20.149 10.856)" fill="#9f4a8b"/>
      <path id="Trazado_116718" data-name="Trazado 116718" d="M-339.507,114.948c.908-.886-3.792-9.258-6.04-9.567s-4.36,9.386-4.36,9.386,3.127.438,6.159.845S-339.507,114.948-339.507,114.948Z" transform="translate(20.33 10.076)" fill="#ffbcaf"/>
      <path id="Trazado_116719" data-name="Trazado 116719" d="M-336.557,89.812c-1.273-.162-5.771,5.307-5.771,5.307s-2.858,8.855-2.3,11.476,7.507,4.023,7.507,4.023l.291-.464v-.011a13.634,13.634,0,0,1-.852-2.653c-.55-2.718.626-8.92,1.478-14a10.425,10.425,0,0,0,.313-2.017C-335.856,90.654-335.974,89.877-336.557,89.812Z" transform="translate(20.74 8.852)" opacity="0.6" fill="url(#linear-gradient-17)" style="mix-blend-mode: multiply;isolation: isolate"/>
      <path id="Trazado_116720" data-name="Trazado 116720" d="M-333.325,128.506c-1.435-3-.55-4.563-13.008-6.191-17.635-2.319-19.145,3.063-22.144,2.243a2.887,2.887,0,0,1-.356-.129c-3.247-1.262-10.894-8.78-11.088-18.908-.2-10.527,6.849-17.991,6.849-17.991-2.556-2.146-3.581-8.37-.82-11.034s7.464-2.039,19.005-.82,11.552.518,11.552.518c3.667.938,5.771,4.379,6.364,5.479.119.216.173.345.173.345l1.435-1.327a18.785,18.785,0,0,1,3.171,11.746s6.331-12.879,5.609-14.7c-1.316-3.365-4.972-8.273-5.2-8.586l-.011-.011s-1.025-9.8-4.088-9.8-16.147,2.955-16.147,2.955a18.579,18.579,0,0,0,1.23-7.248l-.054.054c-4.271,3.829-8.446,4.25-14.356,6.989a14.959,14.959,0,0,0-5.533,4.012l-.4.475-.421.507c-.41.518-.831,1.046-1.337,1.586a.355.355,0,0,1-.065.065l-.032.032a16.91,16.91,0,0,1-1.715,1.607c-3.883,3.16-12.426,5.274-13.45,8.618s1.294,7.9,2.524,12.6a25.6,25.6,0,0,1,.658,8.855,17.393,17.393,0,0,1,2.718,12.911c-1.2,6.871-3.818,7.992-3.818,7.992a11.766,11.766,0,0,0-.971,7.324c3.775,15.014,19.393,23.956,19.393,23.956,13.892,5.177,23.028,2.923,23.028,2.923l.011-.011c10.107-6.59,13.569-28.4,13.72-29.414C-331.071,126.392-332.948,129.3-333.325,128.506Zm-6.234,13.9c-2.448-.41-2.966-6.612-3.775-7.432s-5.253-.475-5.253-.475-4.088,4.638-5.717,4.767-10.355-3.408-8.467-8.715,8.467-6,8.467-6a15.967,15.967,0,0,0,8.51,3.193c5.113.334,6.957-.6,7.561-.874s3.9,1.219,3.818,5.857C-334.468,135.959-337.1,142.819-339.559,142.409Z" transform="translate(17.303 6.119)" fill="url(#linear-gradient-54)"/>
      <path id="Trazado_116721" data-name="Trazado 116721" d="M-343.594,107.106s4.4,5.469,3.984,7.524c-.459,2.251-5.56,3.452-5.56,3.452s4.09-1.411,4.927-3.452A27.148,27.148,0,0,0-343.594,107.106Z" transform="translate(20.703 10.212)" fill="#d2726c"/>
      <path id="Trazado_116722" data-name="Trazado 116722" d="M-336.059,91.41a18.785,18.785,0,0,0-3.171-11.746,31.38,31.38,0,0,0,3.57-11.552l.011.011a39.594,39.594,0,0,1,1.661,7.658l3.538.928C-329.727,78.531-336.059,91.41-336.059,91.41Z" transform="translate(21.17 7.147)" opacity="0.6" fill="url(#linear-gradient-55)" style="mix-blend-mode: multiply;isolation: isolate"/>
      <path id="Trazado_116723" data-name="Trazado 116723" d="M-336.971,81.673c-.593-1.1-2.7-4.541-6.364-5.479,0,0,0,.712-11.552-.518s-16.244-1.834-19.005.82-1.737,8.888.82,11.034c0,0-7.054,7.464-6.849,17.991.194,10.128,7.841,17.646,11.088,18.908l-.151,1.122s.572,23.19,6.213,25.034,17.322.884,18.412,1.974c1.035,1.035-.151,2.815-.259,2.977l-.011.011s-9.136,2.254-23.028-2.923c0,0-15.618-8.942-19.393-23.956a11.766,11.766,0,0,1,.971-7.324s2.621-1.122,3.818-7.992a17.393,17.393,0,0,0-2.718-12.911,25.6,25.6,0,0,0-.658-8.855c-1.23-4.7-3.549-9.265-2.524-12.6A14.709,14.709,0,0,0-377.332,76.6s1.143-1.586,6.2-2.405,25.39,1.23,25.39,1.23a17.469,17.469,0,0,0-6.331-2.815c-4.056-1.068-17.9.173-19.393.291,1.586-.28,17.29-2.977,19.081-2.438,1.9.561,8.694,3.678,8.694,3.678-.615-3.117-6.7-10.624-6.7-10.624a95.432,95.432,0,0,0-14.205,1.327,18.376,18.376,0,0,0-8.305,3.818l1.337-1.586.421-.507.4-.475,1.963-.334,9.858-3.98c3.311-1.769,7.55-6.148,8.068-6.687l.054-.054a18.579,18.579,0,0,1-1.23,7.248c8.327-1.025,11.142-.507,11.142-.507C-337.1,67.144-336.971,81.673-336.971,81.673Z" transform="translate(17.303 6.119)" opacity="0.6" fill="url(#linear-gradient-56)" style="mix-blend-mode: multiply;isolation: isolate"/>
      <path id="Trazado_116724" data-name="Trazado 116724" d="M-369.17,145.581a51.993,51.993,0,0,1,12.808-.9c7.7.311,12.131.342,10.22,3.824C-346.142,148.5-355.817,150.69-369.17,145.581Z" transform="translate(18.816 13.162)" opacity="0.5" fill="url(#linear-gradient-57)" style="mix-blend-mode: multiply;isolation: isolate"/>
      <path id="Trazado_116725" data-name="Trazado 116725" d="M-343.538,61.49s4.684-1.826,6.532-1.526a3.615,3.615,0,0,0-1.5-1.181c-.766-.2-16.175,3.214-16.175,3.214S-345.071,60.877-343.538,61.49Z" transform="translate(19.955 6.413)" fill="url(#linear-gradient-58)"/>
      <path id="Trazado_116726" data-name="Trazado 116726" d="M-351.216,62.913s-.368,5.1-2,6.946L-372.292,72.3l-5.6-.987a14.072,14.072,0,0,0,4.549-3.705C-370.962,64.826-358.522,62.1-351.216,62.913Z" transform="translate(18.13 6.727)" fill="url(#linear-gradient-59)"/>
      <path id="Trazado_116727" data-name="Trazado 116727" d="M-335.92,68.112a42.973,42.973,0,0,1,1.672,7.669l3.538.928A25.433,25.433,0,0,0-335.92,68.112Z" transform="translate(21.43 7.147)" fill="url(#linear-gradient-60)"/>
      <path id="Trazado_116728" data-name="Trazado 116728" d="M-383.273,109.247s-1.342-6.437-4.63-9.622a7.733,7.733,0,0,0-7.036-2.164s1.023,11.939,2.095,14.851,2.708,3.678,2.708,3.678a9.186,9.186,0,0,1-2.606-5.963c-.306-3.949-.409-9.519.46-10.182s4.379,1.925,4.379,1.925a11.67,11.67,0,0,0-1.773,4.876c-.664,3.518,1.788,6.074,2.708,6.022s-.052-4.07.1-5.228S-384.67,106.539-383.273,109.247Z" transform="translate(16.79 9.442)" opacity="0.8" fill="url(#linear-gradient-61)" style="mix-blend-mode: multiply;isolation: isolate"/>
      <path id="Trazado_116729" data-name="Trazado 116729" d="M-386.929,100.958a8.042,8.042,0,0,0-3.2,7.2c.387,4.84,3.153,4.627,3.163,3.612s-.526-3.632-.246-5.11,2.668-.81,2.668-.81A35.513,35.513,0,0,0-386.929,100.958Z" transform="translate(17.166 9.729)" opacity="0.8" fill="url(#linear-gradient-62)" style="mix-blend-mode: multiply;isolation: isolate"/>
      <path id="Trazado_116730" data-name="Trazado 116730" d="M-334.089,120.942s-4.462,20.358-13.731,29.424C-347.82,150.366-337.25,146.213-334.089,120.942Z" transform="translate(20.494 11.3)" fill="#34c7ff"/>
      <path id="Trazado_116731" data-name="Trazado 116731" d="M-339.684,58.782s2.355,1.829,2.8,8.192S-339.194,80.4-339.194,80.4s3.539-5.283,3.879-11.073S-337.819,59.514-339.684,58.782Z" transform="translate(21.134 6.413)" fill="#34c7ff"/>
      <path id="Trazado_116732" data-name="Trazado 116732" d="M-366.117,71.155A55.021,55.021,0,0,0-354.7,73.54c5.974.527,7.2.646,7.2.646s-2.4-2.33-7.516-3.031A51.841,51.841,0,0,0-366.117,71.155Z" transform="translate(19.056 7.362)" fill="url(#linear-gradient-63)"/>
      <path id="Trazado_116733" data-name="Trazado 116733" d="M-341.711,121.527s2.606,0,3.632,3.269a27.2,27.2,0,0,1,1.043,4.854l.923-3.584s-1.2-4.539-2.456-5.561c-.9-.735-2.454-1.483-3.193-1.3Z" transform="translate(20.971 11.161)" fill="url(#linear-gradient-64)"/>
      <path id="Trazado_116734" data-name="Trazado 116734" d="M-348.228,118.325l.44,3.883a13.861,13.861,0,0,0,5.277-.613l.375-2.35A29.367,29.367,0,0,0-348.228,118.325Z" transform="translate(20.462 11.093)" fill="url(#linear-gradient-65)"/>
      <path id="Trazado_116735" data-name="Trazado 116735" d="M-334.8,164.852s18.58,13.572,20.993,18.239,3.387,19.311,6.649,25.645c0,0-2.228-10.362-3.792-18.489s-1.189-8.241-2.058-10.234S-327.756,168.392-334.8,164.852Z" transform="translate(21.518 14.751)" fill="#34c7ff"/>
      <path id="Trazado_116736" data-name="Trazado 116736" d="M-337.262,234.9s-8.957,38.336-8.549,40.927,6.2,7.873,6.474,9.321c0,0-4.431,5.936-4.226,7.248s7.765,9.625,7.561,12.195c-.058.746-4.964,8.838-4.964,8.838s5.543-7.954,5.816-9.222-6.791-11.892-7-12.972c-.536-2.794,3.525-4.849,3.661-6.688s-5.5-6.334-5.541-9.332S-337.262,234.9-337.262,234.9Z" transform="translate(20.651 20.257)" fill="#34c7ff"/>
      <path id="Trazado_116737" data-name="Trazado 116737" d="M-336.2,319.622s19.361,43.829,25.964,87.658C-310.236,407.28-311.338,364.508-336.2,319.622Z" transform="translate(21.408 26.917)" fill="#34c7ff"/>
      <path id="Trazado_116738" data-name="Trazado 116738" d="M-449.409,157.868s-5.01-1.07-7.088-5.439-.722-10.7-.722-10.7a110.192,110.192,0,0,0,5.876,10.094C-449.389,154.394-448.865,157.323-449.409,157.868Z" transform="translate(11.861 12.934)" fill="#ffbcaf"/>
      <path id="Trazado_116739" data-name="Trazado 116739" d="M-306.7,136.142l3.473,99.012a7.3,7.3,0,0,0,7.291,7.04h170.562a7.3,7.3,0,0,0,7.294-7.122l2.387-100.169a7.3,7.3,0,0,0-7.342-7.469l-176.421,1.157A7.3,7.3,0,0,0-306.7,136.142Z" transform="translate(23.726 11.81)" fill="#36d1f7" opacity="0.6"/>
      <path id="Trazado_116740" data-name="Trazado 116740" d="M-125.355,242.483H-295.918a7.539,7.539,0,0,1-7.561-7.3l-3.473-99.011a7.507,7.507,0,0,1,2.1-5.5,7.508,7.508,0,0,1,5.409-2.329l176.423-1.158a7.622,7.622,0,0,1,5.446,2.263,7.506,7.506,0,0,1,2.167,5.484L-117.792,235.1A7.52,7.52,0,0,1-125.355,242.483Zm2.389-114.762h-.047l-176.423,1.158a6.971,6.971,0,0,0-5.024,2.163,6.969,6.969,0,0,0-1.951,5.109l3.473,99.012a7,7,0,0,0,7.022,6.78h170.562a7.07,7.07,0,0,0,7.024-6.859l2.387-100.169a6.968,6.968,0,0,0-2.013-5.092A6.968,6.968,0,0,0-122.966,127.721Z" transform="translate(23.707 11.79)" fill="#744ca2"/>
      <path id="Trazado_116741" data-name="Trazado 116741" d="M-306.458,141.179h190.551l.306-5.22a8,8,0,0,0-8.045-8.464L-300,128.889a6.616,6.616,0,0,0-6.562,6.74Z" transform="translate(23.737 11.815)" opacity="0.6" fill="url(#linear-gradient-66)" style="mix-blend-mode: multiply;isolation: isolate"/>
      <path id="Trazado_116742" data-name="Trazado 116742" d="M-297.584,147.61v57.3h58.327v-57.6Z" transform="translate(24.443 13.372)" opacity="0.3" fill="url(#linear-gradient-67)" style="mix-blend-mode: multiply;isolation: isolate"/>
      <rect id="Rectángulo_34389" data-name="Rectángulo 34389" width="25.372" height="25.372" transform="translate(-158.446 164.828)" opacity="0.3" fill="url(#linear-gradient-67)" style="mix-blend-mode: multiply;isolation: isolate"/>
      <rect id="Rectángulo_34390" data-name="Rectángulo 34390" width="25.372" height="25.372" transform="translate(-128.511 164.828)" opacity="0.3" fill="url(#linear-gradient-67)" style="mix-blend-mode: multiply;isolation: isolate"/>
      <rect id="Rectángulo_34391" data-name="Rectángulo 34391" width="25.372" height="25.372" transform="translate(-188.882 164.828)" opacity="0.3" fill="url(#linear-gradient-67)" style="mix-blend-mode: multiply;isolation: isolate"/>
      <rect id="Rectángulo_34392" data-name="Rectángulo 34392" width="64.882" height="6.078" transform="translate(-168.022 204.992)" fill="#d1d4fb" style="mix-blend-mode: multiply;isolation: isolate"/>
      <rect id="Rectángulo_34393" data-name="Rectángulo 34393" width="81.109" height="1.881" transform="translate(-184.249 214.241)" fill="#d1d4fb" style="mix-blend-mode: multiply;isolation: isolate"/>
      <rect id="Rectángulo_34394" data-name="Rectángulo 34394" width="15.517" height="1.881" transform="translate(-183.485 193.435)" fill="#d1d4fb" style="mix-blend-mode: multiply;isolation: isolate"/>
      <rect id="Rectángulo_34395" data-name="Rectángulo 34395" width="15.517" height="1.881" transform="translate(-153.519 193.435)" fill="#d1d4fb" style="mix-blend-mode: multiply;isolation: isolate"/>
      <rect id="Rectángulo_34396" data-name="Rectángulo 34396" width="15.517" height="1.881" transform="translate(-123.584 193.435)" fill="#d1d4fb" style="mix-blend-mode: multiply;isolation: isolate"/>
      <rect id="Rectángulo_34397" data-name="Rectángulo 34397" width="26.091" height="1.881" transform="translate(-188.882 217.298)" fill="#d1d4fb" style="mix-blend-mode: multiply;isolation: isolate"/>
      <rect id="Rectángulo_34398" data-name="Rectángulo 34398" width="81.109" height="1.881" transform="translate(-184.249 220.319)" fill="#d1d4fb" style="mix-blend-mode: multiply;isolation: isolate"/>
      <rect id="Rectángulo_34399" data-name="Rectángulo 34399" width="85.742" height="1.881" transform="translate(-188.882 223.34)" fill="#d1d4fb" style="mix-blend-mode: multiply;isolation: isolate"/>
      <rect id="Rectángulo_34400" data-name="Rectángulo 34400" width="85.742" height="1.881" transform="translate(-188.882 226.361)" fill="#d1d4fb" style="mix-blend-mode: multiply;isolation: isolate"/>
      <rect id="Rectángulo_34401" data-name="Rectángulo 34401" width="81.109" height="1.881" transform="translate(-184.249 238.575)" fill="#d1d4fb" style="mix-blend-mode: multiply;isolation: isolate"/>
      <rect id="Rectángulo_34402" data-name="Rectángulo 34402" width="85.742" height="1.881" transform="translate(-188.882 241.596)" fill="#d1d4fb" style="mix-blend-mode: multiply;isolation: isolate"/>
      <rect id="Rectángulo_34403" data-name="Rectángulo 34403" width="85.742" height="1.881" transform="translate(-188.882 244.617)" fill="#d1d4fb" style="mix-blend-mode: multiply;isolation: isolate"/>
      <rect id="Rectángulo_34404" data-name="Rectángulo 34404" width="82.293" height="1.881" transform="translate(-188.882 229.382)" fill="#d1d4fb" style="mix-blend-mode: multiply;isolation: isolate"/>
      <rect id="Rectángulo_34405" data-name="Rectángulo 34405" width="81.109" height="1.881" transform="translate(-184.249 232.403)" fill="#d1d4fb" style="mix-blend-mode: multiply;isolation: isolate"/>
      <rect id="Rectángulo_34406" data-name="Rectángulo 34406" width="69.468" height="1.881" transform="translate(-188.882 235.424)" fill="#d1d4fb" style="mix-blend-mode: multiply;isolation: isolate"/>
      <path id="Trazado_116743" data-name="Trazado 116743" d="M-281.224,192.478a16.611,16.611,0,0,1-16.593-16.592,16.612,16.612,0,0,1,16.593-16.593,16.612,16.612,0,0,1,16.592,16.593A16.611,16.611,0,0,1-281.224,192.478Zm0-32.107a15.532,15.532,0,0,0-15.515,15.515A15.531,15.531,0,0,0-281.224,191.4a15.531,15.531,0,0,0,15.514-15.514A15.532,15.532,0,0,0-281.224,160.371Z" transform="translate(24.425 14.314)" fill="#e0ffff"/>
      <circle id="Elipse_4806" data-name="Elipse 4806" cx="9.017" cy="9.017" r="9.017" transform="translate(-265.817 181.182)" fill="#fff"/>
      <path id="Trazado_116744" data-name="Trazado 116744" d="M-242.3,165.111a16.611,16.611,0,0,1-16.593-16.592A16.612,16.612,0,0,1-242.3,131.926a16.612,16.612,0,0,1,16.592,16.593A16.611,16.611,0,0,1-242.3,165.111Zm0-32.107a15.532,15.532,0,0,0-15.515,15.515A15.531,15.531,0,0,0-242.3,164.033a15.532,15.532,0,0,0,15.514-15.514A15.533,15.533,0,0,0-242.3,133Z" transform="translate(27.485 12.163)" fill="#e0ffff"/>
      <circle id="Elipse_4807" data-name="Elipse 4807" cx="8.485" cy="8.485" r="8.485" transform="translate(-224.515 167.745) rotate(-81.057)" fill="#fff"/>
      <path id="Trazado_116745" data-name="Trazado 116745" d="M-300.276,133.107l1.213-1.838,6.556,5.747-1.006,1.4Z" transform="translate(24.232 12.111)" fill="#fff"/>
      <path id="Trazado_116746" data-name="Trazado 116746" d="M-292.352,133.107l-1.213-1.838-6.556,5.747,1.006,1.4Z" transform="translate(24.244 12.111)" fill="#fff"/>
      <rect id="Rectángulo_34407" data-name="Rectángulo 34407" width="58.722" height="2.944" transform="translate(-155.501 144.629)" fill="#fff"/>
      <path id="Trazado_116747" data-name="Trazado 116747" d="M-475.01,93.075v25.48l30.477.26.411-26.557Z" transform="translate(10.496 9.045)" fill="#ffa726"/>
      <path id="Trazado_116748" data-name="Trazado 116748" d="M-446.343,92.258l1.989,3.348-.994,23.186-1.406.024Z" transform="translate(12.717 9.045)" fill="#db8910"/>
      <path id="Trazado_116749" data-name="Trazado 116749" d="M-469.965,101.286l2.815-4.085,15.219,12.773-2.335,3.114Z" transform="translate(10.893 9.433)" fill="#fff"/>
      <path id="Trazado_116750" data-name="Trazado 116750" d="M-451.568,101.286l-2.815-4.085L-469.6,109.974l2.334,3.114Z" transform="translate(10.921 9.433)" fill="#fff"/>
      <path id="Trazado_116751" data-name="Trazado 116751" d="M-400.725,378.552H-505.015a8.541,8.541,0,0,1-8.539-8.346l-1.947-85.54a8.541,8.541,0,0,1,8.539-8.736h108.582a8.54,8.54,0,0,1,8.537,8.776l-2.346,85.54A8.54,8.54,0,0,1-400.725,378.552Z" transform="translate(7.313 23.483)" opacity="0.81" fill="url(#linear-gradient-71)"/>
      <path id="Trazado_116752" data-name="Trazado 116752" d="M-400.706,378.841H-504.995a8.862,8.862,0,0,1-8.809-8.609l-1.947-85.54a8.747,8.747,0,0,1,2.508-6.361,8.747,8.747,0,0,1,6.3-2.651h108.581a8.737,8.737,0,0,1,6.315,2.666,8.738,8.738,0,0,1,2.494,6.385l-2.347,85.541A8.764,8.764,0,0,1-400.706,378.841ZM-506.942,276.219a8.208,8.208,0,0,0-5.915,2.488,8.213,8.213,0,0,0-2.355,5.971l1.947,85.54a8.319,8.319,0,0,0,8.27,8.083h104.289a8.228,8.228,0,0,0,8.268-8.044l2.347-85.541a8.208,8.208,0,0,0-2.341-5.994,8.206,8.206,0,0,0-5.929-2.5Z" transform="translate(7.294 23.463)" fill="#473da2"/>
      <rect id="Rectángulo_34408" data-name="Rectángulo 34408" width="54.847" height="2.348" transform="translate(-480.075 316.909)" fill="#fff"/>
      <rect id="Rectángulo_34409" data-name="Rectángulo 34409" width="27.424" height="2.348" transform="translate(-480.075 322.621)" fill="#fff"/>
      <rect id="Rectángulo_34410" data-name="Rectángulo 34410" width="27.424" height="2.348" transform="translate(-480.075 327.389)" fill="#fff"/>
      <rect id="Rectángulo_34411" data-name="Rectángulo 34411" width="21.818" height="2.348" transform="translate(-449.575 327.389)" fill="#fff"/>
      <rect id="Rectángulo_34412" data-name="Rectángulo 34412" width="44.212" height="2.348" transform="translate(-480.075 332.158)" fill="#fff"/>
      <rect id="Rectángulo_34413" data-name="Rectángulo 34413" width="15.736" height="2.348" transform="translate(-480.075 336.926)" fill="#fff"/>
      <rect id="Rectángulo_34414" data-name="Rectángulo 34414" width="27.215" height="2.348" transform="translate(-461.103 351.232)" fill="#fff"/>
      <rect id="Rectángulo_34415" data-name="Rectángulo 34415" width="49.321" height="2.348" transform="translate(-480.075 341.695)" fill="#fff"/>
      <rect id="Rectángulo_34416" data-name="Rectángulo 34416" width="37.944" height="2.348" transform="translate(-480.075 346.464)" fill="#fff"/>
      <rect id="Rectángulo_34417" data-name="Rectángulo 34417" width="17.848" height="2.348" transform="translate(-480.075 351.232)" fill="#fff"/>
      <rect id="Rectángulo_34418" data-name="Rectángulo 34418" width="27.424" height="2.348" transform="translate(-480.075 356.001)" fill="#fff"/>
      <rect id="Rectángulo_34419" data-name="Rectángulo 34419" width="7.868" height="2.348" transform="translate(-480.075 360.769)" fill="#fff"/>
      <rect id="Rectángulo_34420" data-name="Rectángulo 34420" width="28.543" height="2.348" transform="translate(-468.971 360.769)" fill="#fff"/>
      <rect id="Rectángulo_34421" data-name="Rectángulo 34421" width="27.215" height="2.348" transform="translate(-461.103 365.397)" fill="#fff"/>
      <rect id="Rectángulo_34422" data-name="Rectángulo 34422" width="17.848" height="2.348" transform="translate(-480.075 365.397)" fill="#fff"/>
      <rect id="Rectángulo_34423" data-name="Rectángulo 34423" width="27.424" height="2.348" transform="translate(-480.075 370.166)" fill="#fff"/>
      <rect id="Rectángulo_34424" data-name="Rectángulo 34424" width="7.868" height="2.348" transform="translate(-480.075 374.934)" fill="#fff"/>
      <rect id="Rectángulo_34425" data-name="Rectángulo 34425" width="28.543" height="2.348" transform="translate(-468.971 374.934)" fill="#fff"/>
      <path id="Trazado_116753" data-name="Trazado 116753" d="M-148.939,110.083a4.821,4.821,0,0,1-4.82,4.82,4.82,4.82,0,0,1-4.819-4.82,4.819,4.819,0,0,1,4.819-4.819A4.82,4.82,0,0,1-148.939,110.083Z" transform="translate(35.37 10.067)" fill="#fff"/>
      <path id="Trazado_116754" data-name="Trazado 116754" d="M-567.668,213.806a6,6,0,0,1-6,6,6,6,0,0,1-6-6,6,6,0,0,1,6-6A6,6,0,0,1-567.668,213.806Z" transform="translate(2.27 18.128)" fill="url(#linear-gradient-72)"/>
      <circle id="Elipse_4808" data-name="Elipse 4808" cx="4.82" cy="4.82" r="4.82" transform="translate(-109.053 115.331)" fill="#ffa726"/>
      <circle id="Elipse_4809" data-name="Elipse 4809" cx="3.408" cy="3.408" r="3.408" transform="translate(-418.464 149.884)" fill="#ffa726"/>
      <circle id="Elipse_4810" data-name="Elipse 4810" cx="3.408" cy="3.408" r="3.408" transform="translate(-190.17 300.282)" fill="url(#linear-gradient-73)"/>
      <circle id="Elipse_4811" data-name="Elipse 4811" cx="3.047" cy="3.047" r="3.047" transform="translate(-544.154 334.625)" fill="url(#linear-gradient-73)"/>
      <path id="Trazado_116755" data-name="Trazado 116755" d="M-493.372,287.332h-52.635a7.855,7.855,0,0,1-7.851-7.591l-1.169-34.619A7.856,7.856,0,0,1-547.177,237h54.862a7.855,7.855,0,0,1,7.852,8.1l-1.058,34.619A7.856,7.856,0,0,1-493.372,287.332Z" transform="translate(4.206 20.423)" fill="#26a69a" opacity="0.73"/>
      <path id="Trazado_116756" data-name="Trazado 116756" d="M-493.353,287.621h-52.635a8.093,8.093,0,0,1-8.121-7.851l-1.169-34.619a8.058,8.058,0,0,1,2.28-5.923,8.054,8.054,0,0,1,5.841-2.478h54.862a8.056,8.056,0,0,1,5.832,2.468,8.06,8.06,0,0,1,2.29,5.906l-1.058,34.619A8.088,8.088,0,0,1-493.353,287.621Zm-53.8-50.331a7.529,7.529,0,0,0-5.453,2.313,7.525,7.525,0,0,0-2.128,5.529l1.169,34.619a7.556,7.556,0,0,0,7.582,7.331h52.635a7.551,7.551,0,0,0,7.583-7.354l1.058-34.62a7.522,7.522,0,0,0-2.137-5.513,7.527,7.527,0,0,0-5.446-2.3Z" transform="translate(4.186 20.403)" fill="#953da2"/>
      <path id="Trazado_116757" data-name="Trazado 116757" d="M-532.709,248.533l-12.977,15.043,13.216,11.219V269l-7.645-6.619,7.1-8.028Z" transform="translate(4.941 21.329)" fill="#fff"/>
      <path id="Trazado_116758" data-name="Trazado 116758" d="M-512.425,249.159l12.977,15.043-13.216,11.219v-5.79l7.645-6.619-8.508-9Z" transform="translate(7.469 21.378)" fill="#fff"/>
      <path id="Trazado_116759" data-name="Trazado 116759" d="M-531.034,274.7l11.308-24.91h5.314l-12.807,24.91Z" transform="translate(6.092 21.428)" fill="#fff"/>
      <path id="Trazado_116760" data-name="Trazado 116760" d="M-163.916,354.3h-65.846a9.828,9.828,0,0,1-9.822-9.5l-1.463-43.308a9.828,9.828,0,0,1,9.822-10.158h68.632a9.827,9.827,0,0,1,9.823,10.127l-1.323,43.308A9.829,9.829,0,0,1-163.916,354.3Z" transform="translate(28.887 24.694)" fill="#039be5" opacity="0.73"/>
      <path id="Trazado_116761" data-name="Trazado 116761" d="M-163.9,354.592h-65.845a10.057,10.057,0,0,1-10.091-9.756l-1.462-43.308a10.016,10.016,0,0,1,2.832-7.359,10.011,10.011,0,0,1,7.258-3.078h68.632a10.016,10.016,0,0,1,7.247,3.065,10.019,10.019,0,0,1,2.845,7.34L-153.8,344.8A10.051,10.051,0,0,1-163.9,354.592Zm-67.307-62.963a9.481,9.481,0,0,0-6.871,2.914,9.475,9.475,0,0,0-2.68,6.966l1.462,43.307a9.518,9.518,0,0,0,9.552,9.236H-163.9a9.515,9.515,0,0,0,9.554-9.266l1.323-43.307a9.48,9.48,0,0,0-2.693-6.947,9.481,9.481,0,0,0-6.86-2.9Z" transform="translate(28.867 24.674)" fill="#953da2"/>
      <rect id="Rectángulo_34426" data-name="Rectángulo 34426" width="60.306" height="35.816" transform="translate(-198.965 323.006)" fill="#d1d4fb" style="mix-blend-mode: multiply;isolation: isolate"/>
      <path id="Trazado_116762" data-name="Trazado 116762" d="M-205.809,306.043v18.042l15.41-9.846Z" transform="translate(31.657 25.85)" fill="#fff"/>
      <rect id="Rectángulo_34427" data-name="Rectángulo 34427" width="60.306" height="3.275" transform="translate(-198.965 365.423)" fill="#d1d4fb" style="mix-blend-mode: multiply;isolation: isolate"/>
      <rect id="Rectángulo_34428" data-name="Rectángulo 34428" width="15.612" height="3.275" transform="translate(-198.965 365.423)" fill="#fff"/>
      <path id="Trazado_116763" data-name="Trazado 116763" d="M-268.374,288.295l-3.146,9C-269.783,292.322-267.282,289.093-268.374,288.295Zm-3.146,9-3.154,9C-273.88,306.065-273.265,302.273-271.52,297.3Zm3.146-9-3.146,9C-269.783,292.322-267.282,289.093-268.374,288.295Zm-3.146,9-3.154,9C-273.88,306.065-273.265,302.273-271.52,297.3Zm9.086,7.8,3.057,1.734,3.3-9.009-3.537-.592c.064-.334.126-.669.17-1a23.238,23.238,0,0,0,.3-4.489l3.7-2.321-1.686-7.935-3.544,3.39a10.284,10.284,0,0,0-1.812-2.643,7.124,7.124,0,0,0-.615-.6l2.168-5-5.768-1.878h0l-1.385,5.045a9.6,9.6,0,0,0-3.906.914l-.635-4.769-6.351,4.806,1.467,4.226a24.041,24.041,0,0,0-3.1,4.511l-3.06-1.725-3.3,9.009,3.536.591a24.476,24.476,0,0,0-.468,5.49l-3.7,2.321,1.685,7.934,3.545-3.39a9.971,9.971,0,0,0,2.428,3.233l-2.17,5.012,5.678,2.214.879-3.2.6-2.182a9.639,9.639,0,0,0,3.914-.911l.628,4.766,6.351-4.807-1.467-4.226a23.61,23.61,0,0,0,2.5-3.455C-262.825,305.815-262.631,305.462-262.434,305.1Zm-9.086-7.8c-1.745,4.975,0,10.105-3.154,9s-4.314-6.038-2.571-11,5.716-8.106,8.872-7S-269.783,292.322-271.52,297.3Zm3.146-9-3.146,9C-269.783,292.322-267.282,289.093-268.374,288.295Zm-3.146,9-3.154,9C-273.88,306.065-273.265,302.273-271.52,297.3Z" transform="translate(25.228 23.39)" fill-rule="evenodd" fill="url(#linear-gradient-75)"/>
      <path id="Trazado_116764" data-name="Trazado 116764" d="M-258.906,307.052l3.3-9.009-3.366-1.592-.545-.255.354-4.962,3.736-1.824-1.234-7.706-8.139-2.65,1.5,3.576,2.837-5.78-5.768-1.878-2.369-.773-5.686-2.215-1.062,3.878-4.947-2.35-6.351,4.807,1.926,5.2-5.939,16.464-2.933,10.694,5.639.617-1.836,4.238,5.686,2.215,8.137,2.651-1.306-2.615-.823-1.564,3.008.98,5.138,1.673,6.351-4.807-3.928-4.627,4.961-3.054Zm-17.868-11.536c1.745-4.975,5.716-8.106,8.872-7l-3.146,9-3.154,9C-277.364,305.407-278.517,300.482-276.774,295.516Z" transform="translate(24.757 23.173)" fill-rule="evenodd" fill="url(#linear-gradient-76)"/>
      <path id="Trazado_116765" data-name="Trazado 116765" d="M-266.921,304.4l3.3-9.009-3.539-.591a24.663,24.663,0,0,0,.471-5.484l3.7-2.32-1.687-7.936-3.546,3.388a9.885,9.885,0,0,0-2.426-3.236l2.17-5.008-5.683-2.215-1.472,5.378a9.681,9.681,0,0,0-3.908.911l-.63-4.762-6.351,4.8,1.463,4.225a24.353,24.353,0,0,0-3.1,4.517l-3.061-1.727-3.3,9.008,3.539.591a24.648,24.648,0,0,0-.471,5.483l-3.7,2.321,1.687,7.936,3.545-3.388a9.9,9.9,0,0,0,2.427,3.236l-2.17,5.008,5.683,2.215,1.472-5.379a9.661,9.661,0,0,0,3.908-.91l.63,4.762,6.351-4.8-1.463-4.225a24.388,24.388,0,0,0,3.1-4.517Zm-15.3-.531c-3.159-1.107-4.309-6.034-2.567-11.005s5.714-8.1,8.874-7,4.309,6.034,2.567,11.005S-279.065,304.971-282.224,303.864Z" transform="translate(24.635 23.173)" fill-rule="evenodd" fill="url(#linear-gradient-77)"/>
      <path id="Trazado_116766" data-name="Trazado 116766" d="M-256.927,288.547l-8.138-2.649-3.7,2.321,8.138,2.649Z" transform="translate(26.709 24.266)" fill="#601734" fill-rule="evenodd" opacity="0.5" style="mix-blend-mode: multiply;isolation: isolate"/>
      <path id="Trazado_116767" data-name="Trazado 116767" d="M-265.083,311.5l-8.143-2.652-1.462-4.225,8.139,2.652Z" transform="translate(26.243 25.738)" fill="#b3d9ff" fill-rule="evenodd" style="mix-blend-mode: soft-light;isolation: isolate"/>
      <path id="Trazado_116768" data-name="Trazado 116768" d="M-272.435,279.046l4.463,1.291,1.51-1.443,2.963.965,1.373-3.17-8.138-2.651Z" transform="translate(26.42 23.334)" fill="#601734" fill-rule="evenodd" opacity="0.5" style="mix-blend-mode: multiply;isolation: isolate"/>
      <path id="Trazado_116769" data-name="Trazado 116769" d="M-283.428,309.486l4.264,1.774-.356-2.685S-281.813,309.786-283.428,309.486Z" transform="translate(25.556 26.049)" fill="#601734" fill-rule="evenodd" opacity="0.5" style="mix-blend-mode: multiply;isolation: isolate"/>
      <path id="Trazado_116770" data-name="Trazado 116770" d="M-282.818,286.963l7.177,3.8a11.152,11.152,0,0,1,1.847-1.955S-275.666,280.889-282.818,286.963Z" transform="translate(25.604 24.17)" fill="#601734" fill-rule="evenodd" opacity="0.5" style="mix-blend-mode: multiply;isolation: isolate"/>
      <path id="Trazado_116771" data-name="Trazado 116771" d="M-435.268,37.855l6.919,13.86-4.623,2.1-6.47-12.731Z" transform="translate(13.292 4.768)" fill="#ffa726"/>
      <path id="Trazado_116772" data-name="Trazado 116772" d="M-580.021,337.381l6.4,7.027,2.514-2.9-6.045-6.655Z" transform="translate(2.242 28.115)" fill="#6877ff"/>
      <path id="Trazado_116773" data-name="Trazado 116773" d="M-277.587,116.632l-6.451,3.914-2.584-4.9,7.051-4.118Z" transform="translate(25.305 10.56)" fill="#4f31e0"/>
      <path id="Trazado_116774" data-name="Trazado 116774" d="M-247.94,346.237l-9.244,6.564-2.584-4.9,8.974-5.241Z" transform="translate(27.416 28.728)" fill="#4f31e0"/>
      <path id="Trazado_116775" data-name="Trazado 116775" d="M-260.009,87.835l-1.562-36.3h47.535l-1.954,36.2Z" transform="translate(27.274 5.844)" fill-rule="evenodd" fill="url(#linear-gradient-78)"/>
      <path id="Trazado_116776" data-name="Trazado 116776" d="M-261.467,51.532l-1.423,2.141,1.423,34.162h1.562Z" transform="translate(27.17 5.844)" fill-rule="evenodd" fill="url(#linear-gradient-79)"/>
      <path id="Trazado_116777" data-name="Trazado 116777" d="M-246.393,58.31l-7.459-.8,1.022,24.877,6.438-.632V79.18l-3.73.089-.426-19.183,4.156.118Z" transform="translate(27.881 6.314)" fill="#fff"/>
      <path id="Trazado_116778" data-name="Trazado 116778" d="M-232.774,58.31l7.459-.8-1.022,24.877-6.438-.632V79.18l3.73.089.426-19.183-4.156.118Z" transform="translate(29.538 6.314)" fill="#fff"/>
      <path id="Trazado_116779" data-name="Trazado 116779" d="M-561.723,160.676l1.065-24.749h-32.405l1.332,24.679Z" transform="translate(1.216 12.478)" fill-rule="evenodd" fill="url(#linear-gradient-80)"/>
      <path id="Trazado_116780" data-name="Trazado 116780" d="M-562.942,135.927l.97,1.46-.97,23.289h-1.065Z" transform="translate(3.501 12.478)" fill-rule="evenodd" fill="url(#linear-gradient-81)"/>
      <path id="Trazado_116781" data-name="Trazado 116781" d="M-574.568,140.546a21.765,21.765,0,0,1,4.18.152c.627.289-.163,6.078-.163,6.078l1.416,1.3-1.323,1.284s.07,5.869-.766,6.356-3.692,0-3.692,0v-1.464s2.333.147,2.717-.167.348-5.44.348-5.44l.627-.685-.627-.743s.115-3.654.045-4.657c-.045-.668-2.762-.7-2.762-.7Z" transform="translate(2.643 12.838)" fill="#fff"/>
      <path id="Trazado_116782" data-name="Trazado 116782" d="M-581.743,140.546a21.765,21.765,0,0,0-4.18.152c-.627.289.163,6.078.163,6.078l-1.416,1.3,1.323,1.284s-.07,5.869.766,6.356,3.692,0,3.692,0v-1.464s-2.334.147-2.717-.167-.348-5.44-.348-5.44l-.627-.685.627-.743s-.115-3.654-.046-4.657c.046-.668,2.763-.7,2.763-.7Z" transform="translate(1.679 12.838)" fill="#fff"/>
      <path id="Trazado_116783" data-name="Trazado 116783" d="M-309.922,89.738l-7.942-20.783,20.594,4.3Zm-7.086-20.052,7.246,18.959,11.542-15.035Z" transform="translate(22.849 7.213)" fill="#744ca2"/>
      <rect id="Rectángulo_34429" data-name="Rectángulo 34429" width="11.798" height="0.538" transform="matrix(0.591, -0.807, 0.807, 0.591, -230.591, 391.296)" fill="#744ca2"/>
      <path id="Trazado_116784" data-name="Trazado 116784" d="M-317.9,280.756l-7.491-9.324.421-.337,7.491,9.324Z" transform="translate(22.257 23.103)" fill="#744ca2"/>
      <path id="Trazado_116785" data-name="Trazado 116785" d="M-531.685,341.595l-14.956-10.849.317-.436,14.956,10.849Z" transform="translate(4.866 27.757)" fill="#744ca2"/>
      <rect id="Rectángulo_34430" data-name="Rectángulo 34430" width="18.476" height="0.539" transform="translate(-539.951 370.896) rotate(-52.701)" fill="#744ca2"/>
      <rect id="Rectángulo_34431" data-name="Rectángulo 34431" width="0.539" height="10.936" transform="translate(-560.632 205.162) rotate(-62.281)" fill="#744ca2"/>
      <path id="Trazado_116786" data-name="Trazado 116786" d="M-210.28,73.218l-.4-.356L-199.5,60.1l.4.356Z" transform="translate(31.274 6.517)" fill="#744ca2"/>
      <rect id="Rectángulo_34432" data-name="Rectángulo 34432" width="0.539" height="11.224" transform="translate(-396.786 110.838) rotate(-26.449)" fill="#744ca2"/>
      <rect id="Rectángulo_34433" data-name="Rectángulo 34433" width="16.765" height="0.538" transform="translate(-475.917 290.504) rotate(-39.913)" fill="#744ca2"/>
    </g>
  </g>
</svg>
