<svg xmlns="http://www.w3.org/2000/svg" width="351.352" height="256.081" viewBox="0 0 351.352 256.081">
  <g id="Grupo_106844" data-name="Grupo 106844" transform="translate(-963.648 -8142.877)">
    <g id="Grupo_98619" data-name="Grupo 98619" transform="translate(963.648 8394.681)">
      <path id="Trazado_213527" data-name="Trazado 213527" d="M3623.275,1510.369a2.117,2.117,0,0,1-.635,1.512,2.169,2.169,0,0,1-1.53.627H3279.164a2.152,2.152,0,0,1-2.164-2.139,2.111,2.111,0,0,1,.634-1.512,2.17,2.17,0,0,1,1.53-.627H3621.11A2.151,2.151,0,0,1,3623.275,1510.369Z" transform="translate(-3277 -1508.23)" fill="#052064"/>
    </g>
    <g id="Grupo_98651" data-name="Grupo 98651" transform="translate(982.022 8146.694)">
      <g id="Grupo_98647" data-name="Grupo 98647">
        <g id="Grupo_98642" data-name="Grupo 98642">
          <path id="Trazado_213540" data-name="Trazado 213540" d="M3676.926,361V520.077h-314.02V361a12.225,12.225,0,0,1,12.224-12.224H3664.7A12.225,12.225,0,0,1,3676.926,361Z" transform="translate(-3362.906 -348.777)" fill="#052064"/>
        </g>
        <g id="Grupo_98643" data-name="Grupo 98643" transform="translate(20.143 20.143)">
          <rect id="Rectángulo_42605" data-name="Rectángulo 42605" width="273.731" height="151.157" fill="#fff"/>
        </g>
        <g id="Grupo_98644" data-name="Grupo 98644" transform="translate(10.988 10.988)">
          <path id="Trazado_213541" data-name="Trazado 213541" d="M3414.279,400.149V549.474H3706.32V400.149Z" transform="translate(-3414.279 -400.149)" fill="#fff"/>
        </g>
        <g id="Grupo_98645" data-name="Grupo 98645" transform="translate(86.685 213.425)">
          <path id="Trazado_213542" data-name="Trazado 213542" d="M3908.848,1381.2l-16.093-18.662h0v-15.9H3784.292v15.9L3768.2,1381.2Z" transform="translate(-3768.2 -1346.638)" fill="#e5e7eb"/>
        </g>
        <g id="Grupo_98646" data-name="Grupo 98646" transform="translate(86.685 213.425)" opacity="0.1">
          <path id="Trazado_213543" data-name="Trazado 213543" d="M3908.848,1381.2l-16.093-18.662h0v-15.9H3784.292v15.9L3768.2,1381.2Z" transform="translate(-3768.2 -1346.638)" fill="#052064"/>
        </g>
      </g>
      <g id="Grupo_98648" data-name="Grupo 98648" transform="translate(0 171.3)">
        <path id="Trazado_213544" data-name="Trazado 213544" d="M3676.926,1149.685v29.9a12.223,12.223,0,0,1-12.224,12.224H3375.131a12.224,12.224,0,0,1-12.224-12.224v-29.9Z" transform="translate(-3362.906 -1149.685)" fill="#e5e7eb"/>
      </g>
      <g id="Grupo_98649" data-name="Grupo 98649" transform="translate(0 160.312)">
        <rect id="Rectángulo_42606" data-name="Rectángulo 42606" width="10.988" height="314.019" transform="translate(314.019 0) rotate(90)" fill="#052064"/>
      </g>
      <g id="Grupo_98650" data-name="Grupo 98650" transform="translate(145.235 180.588)">
        <circle id="Elipse_6314" data-name="Elipse 6314" cx="9.012" cy="9.012" r="9.012" transform="translate(0 6.897) rotate(-22.5)" fill="#052064"/>
      </g>
    </g>
    <g id="Grupo_99213" data-name="Grupo 99213" transform="translate(1007.533 8142.877)">
      <g id="Grupo_99212" data-name="Grupo 99212">
        <path id="Trazado_213608" data-name="Trazado 213608" d="M3745.18,443.506a57.23,57.23,0,0,1-25.423,47.631H3520.171A53.576,53.576,0,0,1,3535.805,386.3c.511,0,1.1.073,1.607.073a82.718,82.718,0,0,1,156.264.219A57.185,57.185,0,0,1,3745.18,443.506Z" transform="translate(-3482.183 -330.928)" fill="#e5e7eb"/>
      </g>
    </g>
    <g id="Grupo_99254" data-name="Grupo 99254" transform="translate(1029.248 8226.375)">
      <g id="Grupo_99214" data-name="Grupo 99214" transform="translate(49.524 81.331)">
        <path id="Trazado_213609" data-name="Trazado 213609" d="M3935.778,1136.374h-120.52v-34.787h4.278V1132.1H3931.5v-30.509h4.277Z" transform="translate(-3815.258 -1101.587)" fill="#052064"/>
      </g>
      <g id="Grupo_99215" data-name="Grupo 99215" transform="translate(107.645 113.98)">
        <rect id="Rectángulo_42808" data-name="Rectángulo 42808" width="4.278" height="32.605" fill="#052064"/>
      </g>
      <g id="Grupo_99216" data-name="Grupo 99216" transform="translate(101.849 144.446)">
        <path id="Trazado_213610" data-name="Trazado 213610" d="M4067.838,1412.545a7.934,7.934,0,1,1,7.935-7.934A7.943,7.943,0,0,1,4067.838,1412.545Zm0-11.591a3.657,3.657,0,1,0,3.657,3.656A3.661,3.661,0,0,0,4067.838,1400.955Z" transform="translate(-4059.904 -1396.677)" fill="#052064"/>
      </g>
      <g id="Grupo_99253" data-name="Grupo 99253">
        <g id="Grupo_99234" data-name="Grupo 99234">
          <g id="Grupo_99217" data-name="Grupo 99217" transform="translate(10.888 20.067)">
            <rect id="Rectángulo_42809" data-name="Rectángulo 42809" width="81.55" height="67.879" fill="#052064"/>
          </g>
          <g id="Grupo_99218" data-name="Grupo 99218" transform="translate(10.888 22.976)">
            <rect id="Rectángulo_42810" data-name="Rectángulo 42810" width="17.292" height="58.355" fill="#052064"/>
          </g>
          <g id="Grupo_99223" data-name="Grupo 99223">
            <g id="Grupo_99219" data-name="Grupo 99219">
              <rect id="Rectángulo_42811" data-name="Rectángulo 42811" width="103.326" height="28.18" rx="14.09" fill="#039be5"/>
            </g>
            <g id="Grupo_99221" data-name="Grupo 99221" transform="translate(56.781 3.841)">
              <g id="Grupo_99220" data-name="Grupo 99220">
                <path id="Trazado_213611" data-name="Trazado 213611" d="M3891.89,752.51h-2.562V741.843h-40.138v-2.562h42.7Z" transform="translate(-3849.191 -739.281)" fill="#fff"/>
              </g>
            </g>
            <g id="Grupo_99222" data-name="Grupo 99222" transform="translate(5.123 5.204)">
              <rect id="Rectángulo_42812" data-name="Rectángulo 42812" width="16.653" height="17.772" fill="#ffa800"/>
            </g>
          </g>
          <g id="Grupo_99228" data-name="Grupo 99228" transform="translate(0 35.438)">
            <g id="Grupo_99224" data-name="Grupo 99224">
              <rect id="Rectángulo_42813" data-name="Rectángulo 42813" width="103.326" height="28.18" rx="14.09" fill="#039be5"/>
            </g>
            <g id="Grupo_99226" data-name="Grupo 99226" transform="translate(56.781 3.841)">
              <g id="Grupo_99225" data-name="Grupo 99225">
                <path id="Trazado_213612" data-name="Trazado 213612" d="M3891.89,918.2h-2.562V907.533h-40.138v-2.562h42.7Z" transform="translate(-3849.191 -904.971)" fill="#fff"/>
              </g>
            </g>
            <g id="Grupo_99227" data-name="Grupo 99227" transform="translate(5.123 5.204)">
              <rect id="Rectángulo_42814" data-name="Rectángulo 42814" width="16.653" height="17.772" fill="#ffa800"/>
            </g>
          </g>
          <g id="Grupo_99233" data-name="Grupo 99233" transform="translate(0 70.876)">
            <g id="Grupo_99229" data-name="Grupo 99229">
              <rect id="Rectángulo_42815" data-name="Rectángulo 42815" width="103.326" height="28.18" rx="14.09" fill="#039be5"/>
            </g>
            <g id="Grupo_99231" data-name="Grupo 99231" transform="translate(56.781 3.841)">
              <g id="Grupo_99230" data-name="Grupo 99230">
                <path id="Trazado_213613" data-name="Trazado 213613" d="M3891.89,1083.89h-2.562v-10.667h-40.138v-2.562h42.7Z" transform="translate(-3849.191 -1070.66)" fill="#fff"/>
              </g>
            </g>
            <g id="Grupo_99232" data-name="Grupo 99232" transform="translate(5.123 5.204)">
              <rect id="Rectángulo_42816" data-name="Rectángulo 42816" width="16.653" height="17.772" fill="#ffa800"/>
            </g>
          </g>
        </g>
        <g id="Grupo_99252" data-name="Grupo 99252" transform="translate(116.241)">
          <g id="Grupo_99235" data-name="Grupo 99235" transform="translate(10.888 20.067)">
            <rect id="Rectángulo_42817" data-name="Rectángulo 42817" width="81.55" height="67.879" fill="#052064"/>
          </g>
          <g id="Grupo_99236" data-name="Grupo 99236" transform="translate(10.888 22.976)">
            <rect id="Rectángulo_42818" data-name="Rectángulo 42818" width="17.292" height="58.355" fill="#052064"/>
          </g>
          <g id="Grupo_99241" data-name="Grupo 99241">
            <g id="Grupo_99237" data-name="Grupo 99237">
              <rect id="Rectángulo_42819" data-name="Rectángulo 42819" width="103.326" height="28.18" rx="14.09" fill="#039be5"/>
            </g>
            <g id="Grupo_99239" data-name="Grupo 99239" transform="translate(56.782 3.841)">
              <g id="Grupo_99238" data-name="Grupo 99238">
                <path id="Trazado_213614" data-name="Trazado 213614" d="M4435.374,752.51h-2.561V741.843h-40.138v-2.562h42.7Z" transform="translate(-4392.675 -739.281)" fill="#fff"/>
              </g>
            </g>
            <g id="Grupo_99240" data-name="Grupo 99240" transform="translate(5.123 5.204)">
              <rect id="Rectángulo_42820" data-name="Rectángulo 42820" width="16.653" height="17.772" fill="#ffa800"/>
            </g>
          </g>
          <g id="Grupo_99246" data-name="Grupo 99246" transform="translate(0 35.438)">
            <g id="Grupo_99242" data-name="Grupo 99242">
              <rect id="Rectángulo_42821" data-name="Rectángulo 42821" width="103.326" height="28.18" rx="14.09" fill="#039be5"/>
            </g>
            <g id="Grupo_99244" data-name="Grupo 99244" transform="translate(56.782 3.841)">
              <g id="Grupo_99243" data-name="Grupo 99243">
                <path id="Trazado_213615" data-name="Trazado 213615" d="M4435.374,918.2h-2.561V907.533h-40.138v-2.562h42.7Z" transform="translate(-4392.675 -904.971)" fill="#fff"/>
              </g>
            </g>
            <g id="Grupo_99245" data-name="Grupo 99245" transform="translate(5.123 5.204)">
              <rect id="Rectángulo_42822" data-name="Rectángulo 42822" width="16.653" height="17.772" fill="#ffa800"/>
            </g>
          </g>
          <g id="Grupo_99251" data-name="Grupo 99251" transform="translate(0 70.876)">
            <g id="Grupo_99247" data-name="Grupo 99247">
              <rect id="Rectángulo_42823" data-name="Rectángulo 42823" width="103.326" height="28.18" rx="14.09" fill="#039be5"/>
            </g>
            <g id="Grupo_99249" data-name="Grupo 99249" transform="translate(56.782 3.841)">
              <g id="Grupo_99248" data-name="Grupo 99248">
                <path id="Trazado_213616" data-name="Trazado 213616" d="M4435.374,1083.89h-2.561v-10.667h-40.138v-2.562h42.7Z" transform="translate(-4392.675 -1070.66)" fill="#fff"/>
              </g>
            </g>
            <g id="Grupo_99250" data-name="Grupo 99250" transform="translate(5.123 5.204)">
              <rect id="Rectángulo_42824" data-name="Rectángulo 42824" width="16.653" height="17.772" fill="#ffa800"/>
            </g>
          </g>
        </g>
      </g>
    </g>
    <g id="Grupo_99291" data-name="Grupo 99291" transform="translate(1215.3 8184.913)">
      <g id="Grupo_99258" data-name="Grupo 99258" transform="translate(19.15 29.371)">
        <g id="Grupo_99256" data-name="Grupo 99256" transform="translate(0 0.503)">
          <g id="Grupo_99255" data-name="Grupo 99255">
            <path id="Trazado_213617" data-name="Trazado 213617" d="M4543.551,700.314a1.979,1.979,0,0,0,.223,2.7c2.285,1.9,4.612,3.78,7.079,5.548a51.105,51.105,0,0,0,8,4.852,23.687,23.687,0,0,0,4.829,1.707,15.375,15.375,0,0,0,5.77.274,14.168,14.168,0,0,0,5.726-2.251,20.41,20.41,0,0,0,4.185-3.791,35.139,35.139,0,0,0,3.007-4.133c.878-1.391,1.664-2.786,2.4-4.179,1.466-2.786,2.745-5.567,3.962-8.335,2.423-5.539,4.609-11.037,6.812-16.494,1.31-3.492-.841-7.436-4.726-8.694s-7.944.721-8.906,4.325c-1.388,5.708-2.744,11.393-4.254,16.9-.759,2.752-1.56,5.46-2.468,8.036-.456,1.285-.939,2.536-1.464,3.721a26.283,26.283,0,0,1-1.7,3.286,12.141,12.141,0,0,1-1.952,2.469,5.959,5.959,0,0,1-2.213,1.363c-1.649.58-4.091.359-6.586-.411a45.179,45.179,0,0,1-7.6-3.229c-2.528-1.305-5.024-2.776-7.5-4.295A1.994,1.994,0,0,0,4543.551,700.314Z" transform="translate(-4543.124 -667.141)" fill="#ea80b3"/>
          </g>
        </g>
        <g id="Grupo_99257" data-name="Grupo 99257" transform="translate(32.057)">
          <path id="Trazado_213618" data-name="Trazado 213618" d="M4707.552,692.07l5.559-15.7c1.681-4.748.114-9.787-3.9-11.209h0c-4.018-1.423-8.963,1.31-10.645,6.058l-5.559,15.7Z" transform="translate(-4693.004 -664.787)" fill="#fff"/>
        </g>
      </g>
      <g id="Grupo_99259" data-name="Grupo 99259" transform="translate(62.232)">
        <path id="Trazado_213619" data-name="Trazado 213619" d="M4759.206,564.969s2.977,11.432,12.842,10.073c7.475-1.03,14.432-10.733,6.384-19.679,0,0,2.586-7.119-1.333-9.7a10.6,10.6,0,0,0-4.443-11.7c-6.71-4.489-6.954-7.2-15.913-6.328s-13.5,6.428-11.856,11.5c2.832,8.757,4.687,6.628,1.4,11.045-1.936,2.6.227,7.72,2.421,9.74,3.558,3.274,5.018.6,3.879,4.172s.449,6.387,3.968,5.114S4754.1,562.022,4759.206,564.969Z" transform="translate(-4744.555 -527.466)" fill="#052064"/>
      </g>
      <g id="Grupo_99262" data-name="Grupo 99262" transform="translate(64.666 196.761)">
        <g id="Grupo_99260" data-name="Grupo 99260" transform="translate(3.206)">
          <path id="Trazado_213620" data-name="Trazado 213620" d="M4774.688,1449.022a16.909,16.909,0,0,1-3.766,6.8l9.933-4.1-.084-1.127a12.416,12.416,0,0,1-1.79-3.174Z" transform="translate(-4770.922 -1447.414)" fill="#f5bdd7"/>
        </g>
        <g id="Grupo_99261" data-name="Grupo 99261" transform="translate(0 2.739)">
          <path id="Trazado_213621" data-name="Trazado 213621" d="M4769.449,1463.514l-12.854,4.816a.486.486,0,0,1-.538-.774l3.532-4.068a.6.6,0,0,1,.93.27.671.671,0,0,0,.821.295l5.148-1.912a4.07,4.07,0,0,0,1.678-1.172l.555-.65a.288.288,0,0,1,.488.086l.747,1.993A.866.866,0,0,1,4769.449,1463.514Z" transform="translate(-4755.935 -1460.219)" fill="#052064"/>
        </g>
      </g>
      <g id="Grupo_99263" data-name="Grupo 99263" transform="translate(49.236 74.854)">
        <path id="Trazado_213622" data-name="Trazado 213622" d="M4684,931.074h0l.014-.053c.058-.245.127-.487.206-.725l12.867-45.423c1.644-5.809,6.858-8.423,12.747-7.089a10.932,10.932,0,0,1,8.248,13.076v0h0c-2.683,18.567-7.866,34-17.2,44.222l9.667,64.287-4.613,1.694L4684.3,935.79h0l-.021-.059c-.089-.25-.167-.5-.231-.751l0-.012A8.283,8.283,0,0,1,4684,931.074Z" transform="translate(-4683.792 -877.442)" fill="#039be5"/>
      </g>
      <g id="Grupo_99266" data-name="Grupo 99266" transform="translate(67.462 203.327)">
        <g id="Grupo_99264" data-name="Grupo 99264" transform="translate(3.73)">
          <path id="Trazado_213623" data-name="Trazado 213623" d="M4792.355,1478.116a16.913,16.913,0,0,1-5.912,5.04l10.741-.353.316-1.085a12.438,12.438,0,0,1-.561-3.6Z" transform="translate(-4786.443 -1478.116)" fill="#f5bdd7"/>
        </g>
        <g id="Grupo_99265" data-name="Grupo 99265" transform="translate(0 2.931)">
          <path id="Trazado_213624" data-name="Trazado 213624" d="M4783.219,1495.328l-13.727,0a.486.486,0,0,1-.232-.913l4.736-2.568c.461-.114.716.182.774.579a.673.673,0,0,0,.666.564l5.492.018a4.069,4.069,0,0,0,1.983-.508l.747-.414a.288.288,0,0,1,.427.252v2.128A.867.867,0,0,1,4783.219,1495.328Z" transform="translate(-4769.005 -1491.818)" fill="#052064"/>
        </g>
      </g>
      <g id="Grupo_99267" data-name="Grupo 99267" transform="translate(72.082 74.895)">
        <path id="Trazado_213625" data-name="Trazado 213625" d="M4800.823,877.69c6.024-.4,10.653,1.311,11.049,7.335.465,2.385.52,2.676.658,3.574,2.965,19.272,2,35.4-4.735,48.028h0l-7.766,69.436-4.894.449-4.5-117.183v-.013A10.931,10.931,0,0,1,4800.823,877.69Z" transform="translate(-4790.608 -877.636)" fill="#039be5"/>
      </g>
      <g id="Grupo_99268" data-name="Grupo 99268" transform="translate(71.675 89.256)">
        <path id="Trazado_213626" data-name="Trazado 213626" d="M4804.8,1002.7l.536.124,1.5-13.228c5.536-10.4,7.385-24.157,5.614-41.9l-.516.311c.413,4.188.628,8.241.623,12.139-.018,11.209-1.885,21.127-6.251,29.288Zm-16.092-57.925,1.783,44.092.542-.124c-.005-.158-1.778-43.824-1.778-43.824Zm3.006,74.248,1.327,39.017.551.01-1.335-39.072Zm6.708,39.834-4.1.369v.547l4.589-.415,2.014-17.659-.533-.127Z" transform="translate(-4788.706 -944.778)" fill="#84cdff"/>
      </g>
      <g id="Grupo_99269" data-name="Grupo 99269" transform="translate(57.49 26.172)">
        <path id="Trazado_213627" data-name="Trazado 213627" d="M4742.693,649.832h0a20.306,20.306,0,0,0-20.081,23.326l4.812,32.786c8.882,3.32,20.533,2.868,30.815,0l1.2-37.99A16.8,16.8,0,0,0,4742.693,649.832Z" transform="translate(-4722.383 -649.832)" fill="#fff"/>
      </g>
      <g id="Grupo_99270" data-name="Grupo 99270" transform="translate(56.948 27.728)">
        <path id="Trazado_213628" data-name="Trazado 213628" d="M4720.084,678.957l.91,6.209.46-.6-.836-5.686a20.642,20.642,0,0,1-.228-3.056,20.333,20.333,0,0,1,11.321-18.178l-.139-.538a20.875,20.875,0,0,0-11.488,21.849Zm37.365-5.283-.937,29.6.55-.069L4758,673.69a17.354,17.354,0,0,0-3.137-11.353l-.361.426A16.706,16.706,0,0,1,4757.449,673.674Zm-33.9,28.887,1.391,9.5.3.112a41.415,41.415,0,0,0,14.493,2.359,60.158,60.158,0,0,0,8.947-.693l-.027-.546c-8.129,1.24-16.477.891-23.224-1.631l-1.337-9.1Z" transform="translate(-4719.85 -657.108)" fill="#039be5"/>
      </g>
      <g id="Grupo_99277" data-name="Grupo 99277" transform="translate(66.374 5.215)">
        <g id="Grupo_99271" data-name="Grupo 99271" transform="translate(5.295 17.51)">
          <path id="Trazado_213629" data-name="Trazado 213629" d="M4788.676,634.767l1.615,12.353a6.906,6.906,0,0,0,8.047-1.052l-1.614-12.353Z" transform="translate(-4788.676 -633.715)" fill="#f5bdd7"/>
        </g>
        <g id="Grupo_99272" data-name="Grupo 99272" transform="translate(5.44 18.63)">
          <path id="Trazado_213630" data-name="Trazado 213630" d="M4789.355,640l.4,3.064a8.854,8.854,0,0,0,4.249.7c.085-.008.169-.016.252-.027a5.4,5.4,0,0,0,3.518-1.96l-.37-2.826Z" transform="translate(-4789.355 -638.948)" fill="#ea80b3"/>
        </g>
        <g id="Grupo_99273" data-name="Grupo 99273" transform="translate(0.438 4.068)">
          <path id="Trazado_213631" data-name="Trazado 213631" d="M4765.97,574.169l1.36,8.762a7.717,7.717,0,0,0,8.25,6.438h0a4.346,4.346,0,0,0,3.127-1.723,17.13,17.13,0,0,0,2.684-10.514l-.748-2.643-12.691-3.621Z" transform="translate(-4765.97 -570.868)" fill="#f5bdd7"/>
        </g>
        <g id="Grupo_99274" data-name="Grupo 99274" transform="translate(9.557 3.543)">
          <path id="Trazado_213632" data-name="Trazado 213632" d="M4813.883,576.32s-2.047-5.254-5.279-6.518c0,0,1.98-3.554,5.464.711,1.694,2.074,3.451,6.084,2.688,7.386S4814.233,579.693,4813.883,576.32Z" transform="translate(-4808.604 -568.413)" fill="#052064"/>
        </g>
        <g id="Grupo_99275" data-name="Grupo 99275">
          <path id="Trazado_213633" data-name="Trazado 213633" d="M4764.336,567.124q.048.072.1.143a7.346,7.346,0,0,1,5.2-6.468,11.956,11.956,0,0,1,2.132-.482c4.911-.676,4.835-3.106,4.835-3.106l1.043-3.9c-13.4-5.445-14.077,5.586-13.633,11.193C4764.107,565.689,4764.25,566.629,4764.336,567.124Z" transform="translate(-4763.921 -551.846)" fill="#052064"/>
        </g>
        <g id="Grupo_99276" data-name="Grupo 99276" transform="translate(13.255 8.78)">
          <path id="Trazado_213634" data-name="Trazado 213634" d="M4825.922,596.234a2.953,2.953,0,1,0,2.546-3.311A2.953,2.953,0,0,0,4825.922,596.234Z" transform="translate(-4825.897 -592.898)" fill="#f5bdd7"/>
        </g>
      </g>
      <g id="Grupo_99290" data-name="Grupo 99290" transform="translate(0 36.963)">
        <g id="Grupo_99281" data-name="Grupo 99281" transform="translate(16.561)">
          <g id="Grupo_99278" data-name="Grupo 99278" transform="translate(0 1.406)">
            <path id="Trazado_213635" data-name="Trazado 213635" d="M4533.132,751.515c1.392,0,2.8-.048,4.166-.09l1-.03c.555-.019,1.107-.048,1.66-.078.3-.016.607-.032.91-.047l1.28-.066,1.278-.1c.3-.025.6-.047.907-.069.54-.039,1.1-.079,1.641-.141l2.531-.264,2.51-.341c.533-.071,1.069-.166,1.588-.257.3-.053.594-.106.889-.153a54.705,54.705,0,0,0,9.488-2.542,36.941,36.941,0,0,0,8.345-4.353c4.555-3.216,8.543-7.693,12.551-14.088,1.566-2.5,3.175-5.333,4.917-8.671,1.379-2.672,2.808-5.58,4.5-9.151a7.54,7.54,0,0,1,4.362-3.873,6.315,6.315,0,0,1,4.938.356,6.192,6.192,0,0,1,3.082,3.856,7.586,7.586,0,0,1-.832,5.91c-2.167,3.52-3.992,6.386-5.744,9.021-2.312,3.445-4.345,6.255-6.4,8.843a72.239,72.239,0,0,1-7.588,8.28,47.989,47.989,0,0,1-9.3,6.783,44.818,44.818,0,0,1-10.641,4.143,61.667,61.667,0,0,1-10.912,1.677c-.312.016-.624.037-.936.057-.58.037-1.18.076-1.769.09l-2.692.067-2.673-.016h-.04c-.567,0-1.139-.022-1.691-.043-.312-.012-.624-.023-.936-.032l-1.332-.045-1.324-.077q-.464-.029-.929-.055c-.572-.033-1.144-.065-1.715-.109l-.974-.078c-1.407-.112-2.861-.227-4.284-.379a2.045,2.045,0,0,1-1.935-2.058A2.072,2.072,0,0,1,4533.132,751.515Z" transform="translate(-4531.023 -706.861)" fill="#f4bcd6"/>
          </g>
          <g id="Grupo_99279" data-name="Grupo 99279" transform="translate(49.314 0.551)">
            <path id="Trazado_213636" data-name="Trazado 213636" d="M4778.092,732.449l8.973-15.068c2.714-4.557,1.613-10.394-2.943-13.108l-.4-.059a9.6,9.6,0,0,0-13.167,3.339l-8.973,15.068Z" transform="translate(-4761.587 -702.861)" fill="#fff"/>
          </g>
          <g id="Grupo_99280" data-name="Grupo 99280" transform="translate(48.557)">
            <path id="Trazado_213637" data-name="Trazado 213637" d="M4764.938,709.222l.488.259,2.354-3.954a9.6,9.6,0,0,1,10.58-4.4l.234-.51a10.063,10.063,0,0,0-2.555-.328,10.21,10.21,0,0,0-8.735,4.961Zm-6.889,11.565,10.517,6.263.267-.483L4758.8,720.6l1.879-3.153-.488-.259Zm26.235-5.429-7.116,11.949.527.19,7.062-11.858a10.581,10.581,0,0,0,1.319-7.642,9.431,9.431,0,0,0-3.567-5.622l-.27.485A9.493,9.493,0,0,1,4784.284,715.358Z" transform="translate(-4758.049 -700.286)" fill="#039be5"/>
          </g>
        </g>
        <g id="Grupo_99288" data-name="Grupo 99288" transform="translate(0 16.898)">
          <g id="Grupo_99283" data-name="Grupo 99283" transform="translate(14.123 21.352)">
            <g id="Grupo_99282" data-name="Grupo 99282" transform="translate(0 0)">
              <rect id="Rectángulo_42825" data-name="Rectángulo 42825" width="52.086" height="1.749" transform="matrix(0.987, -0.161, 0.161, 0.987, 0, 8.38)" fill="#052064"/>
            </g>
          </g>
          <g id="Grupo_99285" data-name="Grupo 99285">
            <g id="Grupo_99284" data-name="Grupo 99284">
              <path id="Trazado_213638" data-name="Trazado 213638" d="M4467.713,809.025l31.929-5.2-14.123-24.527-31.929,5.2Z" transform="translate(-4453.59 -779.293)" fill="#84cdff"/>
            </g>
          </g>
          <g id="Grupo_99287" data-name="Grupo 99287" transform="translate(19.633 11.318)">
            <g id="Grupo_99286" data-name="Grupo 99286" transform="translate(0 0)">
              <ellipse id="Elipse_6327" data-name="Elipse 6327" cx="1.874" cy="5.059" rx="1.874" ry="5.059" transform="translate(0 1.457) rotate(-22.879)" fill="#fff"/>
            </g>
          </g>
        </g>
        <g id="Grupo_99289" data-name="Grupo 99289" transform="translate(38.013 29.844)">
          <path id="Trazado_213639" data-name="Trazado 213639" d="M4665.753,846.255c-.6.6-1.2,1.177-1.8,1.733a47.906,47.906,0,0,1-9.3,6.784,44.751,44.751,0,0,1-10.641,4.142,61.161,61.161,0,0,1-10.651,1.659l-2.04-5.995c.045-.006.087-.016.129-.023.3-.052.6-.1.889-.152a54.9,54.9,0,0,0,9.487-2.545,36.869,36.869,0,0,0,8.345-4.352,39.682,39.682,0,0,0,8.032-7.686c.372.521.756,1.028,1.147,1.536a18.221,18.221,0,0,0,1.795,2.092,9.447,9.447,0,0,0,1.8,1.6l1.245.711A6.654,6.654,0,0,0,4665.753,846.255Z" transform="translate(-4631.319 -839.821)" fill="#f4bcd6"/>
        </g>
      </g>
    </g>
  </g>
</svg>
