<?xml version="1.0" encoding="utf-8"?>
<!-- Generator: Adobe Illustrator 25.4.2, SVG Export Plug-In . SVG Version: 6.00 Build 0)  -->
<svg version="1.1" id="Capa_1" xmlns="http://www.w3.org/2000/svg" xmlns:xlink="http://www.w3.org/1999/xlink" x="0px" y="0px"
	 viewBox="0 0 610 197" style="enable-background:new 0 0 610 197;" xml:space="preserve">
<style type="text/css">
	.st0{fill:#F3F9FF;}
	.st1{fill:#4DD0E1;}
	.st2{fill:#727997;}
	.st3{fill:#FFFFFF;}
	.st4{fill:#12263F;}
	.st5{opacity:0.6;}
	.st6{fill:#FFA726;}
	.st7{fill:none;stroke:#FFA726;stroke-width:2;}
</style>
<g id="Grupo_106866" transform="translate(-810 -1164)">
	<path id="Trazado_218557" class="st0" d="M810,1164h610v197H810V1164z"/>
	<g id="Trazado_218565" transform="translate(834 1239)">
		<path class="st1" d="M165,38H1V9c0-4.4,3.6-8,8-8h148c4.4,0,8,3.6,8,8V38z"/>
		<path class="st2" d="M9,2C5.1,2,2,5.1,2,9v28h162V9c0-3.9-3.1-7-7-7H9 M9,0h148c5,0,9,4,9,9v30H0V9C0,4,4,0,9,0z"/>
	</g>
	<g id="Trazado_218562" transform="translate(1100 1239)">
		<path class="st1" d="M263,38H1V9c0-4.4,3.6-8,8-8h246c4.4,0,8,3.6,8,8V38z"/>
		<path class="st2" d="M9,2C5.1,2,2,5.1,2,9v28h260V9c0-3.9-3.1-7-7-7H9 M9,0h246c5,0,9,4,9,9v30H0V9C0,4,4,0,9,0z"/>
	</g>
	<g id="Trazado_218566" transform="translate(834 1275)">
		<path class="st3" d="M165,30H1V1h164V30z"/>
		<path class="st2" d="M2,2v27h162V2H2 M0,0h166v31H0V0z"/>
	</g>
	<g id="Trazado_218558" transform="translate(1100 1275)">
		<path class="st3" d="M263,30H1V1h262V30z"/>
		<path class="st2" d="M2,2v27h260V2H2 M0,0h264v31H0V0z"/>
	</g>
	<g id="Trazado_218567" transform="translate(834 1302)">
		<path class="st3" d="M157,33H9c-4.4,0-8-3.6-8-8V1h164v24C165,29.4,161.4,33,157,33z"/>
		<path class="st2" d="M2,2v23c0,3.9,3.1,7,7,7h148c3.9,0,7-3.1,7-7V2H2 M0,0h166v25c0,5-4,9-9,9H9c-5,0-9-4-9-9V0z"/>
	</g>
	<g id="Trazado_218559" transform="translate(1100 1302)">
		<path class="st3" d="M255,33H9c-4.4,0-8-3.6-8-8V1h262v24C263,29.4,259.4,33,255,33z"/>
		<path class="st2" d="M2,2v23c0,3.9,3.1,7,7,7h246c3.9,0,7-3.1,7-7V2H2 M0,0h264v25c0,5-4,9-9,9H9c-5,0-9-4-9-9V0z"/>
	</g>
	<path id="Trazado_218568" class="st4" d="M906.5,1262.2c0,1.1-0.5,2.2-1.4,2.9c-0.9,0.7-2.1,1.1-3.2,1.1c-1.3,0.1-2.6-0.5-3.4-1.5
		c-0.9-1.2-1.3-2.6-1.3-4v-0.7c0-1,0.2-2,0.6-2.9c0.3-0.8,0.9-1.5,1.7-1.9c1.8-1,4-0.9,5.7,0.4c0.8,0.8,1.3,1.8,1.4,3h-2.3
		c0-0.6-0.2-1.2-0.6-1.6c-0.5-0.4-1-0.5-1.6-0.5c-0.7,0-1.4,0.3-1.8,0.8c-0.4,0.8-0.7,1.7-0.6,2.6v0.9c-0.1,0.9,0.1,1.9,0.6,2.7
		c0.4,0.6,1.1,0.9,1.8,0.9c0.6,0,1.2-0.1,1.6-0.5c0.4-0.4,0.6-1,0.6-1.5L906.5,1262.2z M910.2,1266H908v-12h2.3L910.2,1266z
		 M914.5,1266h-2.3v-8.5h2.3L914.5,1266z M912.1,1255.4c0-0.3,0.1-0.6,0.3-0.8c0.5-0.4,1.3-0.4,1.8,0c0.2,0.2,0.4,0.5,0.3,0.8
		c0,0.3-0.1,0.6-0.3,0.8c-0.5,0.4-1.3,0.4-1.8,0C912.2,1256,912.1,1255.7,912.1,1255.4L912.1,1255.4z M920.2,1266.2
		c-1.1,0-2.2-0.4-3-1.1c-0.8-0.8-1.2-1.9-1.2-3v-0.2c0-0.8,0.2-1.6,0.5-2.3c0.3-0.6,0.8-1.2,1.4-1.5c0.6-0.4,1.3-0.6,2.1-0.5
		c1-0.1,2,0.3,2.7,1.1c0.7,0.9,1.1,2,1,3.1v0.9h-5.4c0.1,0.5,0.3,1,0.7,1.3c0.4,0.3,0.9,0.5,1.4,0.5c0.8,0,1.6-0.3,2-0.9l1.1,1.2
		c-0.4,0.5-0.8,0.9-1.4,1.1C921.5,1266,920.9,1266.2,920.2,1266.2L920.2,1266.2z M920,1259.2c-0.4,0-0.8,0.2-1.1,0.5
		c-0.3,0.4-0.5,0.8-0.5,1.3h3.1v-0.2c0-0.4-0.1-0.8-0.4-1.2C920.8,1259.3,920.4,1259.2,920,1259.2L920,1259.2z M927.1,1257.6l0.1,1
		c0.6-0.7,1.5-1.2,2.4-1.1c0.8-0.1,1.5,0.2,2,0.8c0.5,0.7,0.7,1.5,0.7,2.4v5.5H930v-5.4c0-0.4-0.1-0.7-0.3-1c-0.3-0.2-0.7-0.4-1-0.3
		c-0.6,0-1.1,0.3-1.4,0.8v6h-2.3v-8.5L927.1,1257.6z M936.6,1255.5v2.1h1.4v1.7h-1.4v4.2c0,0.2,0,0.5,0.2,0.7
		c0.2,0.2,0.4,0.2,0.7,0.2c0.2,0,0.4,0,0.7-0.1v1.7c-0.4,0.1-0.9,0.2-1.4,0.2c-1.2,0.2-2.3-0.7-2.4-1.9c0-0.2,0-0.4,0-0.5v-4.5h-1.2
		v-1.7h1.2v-2.1L936.6,1255.5z"/>
	<path id="Trazado_218563" class="st4" d="M1207.3,1263c0-0.4-0.2-0.8-0.5-1c-0.5-0.3-1.1-0.6-1.7-0.8c-0.7-0.2-1.3-0.5-1.9-0.8
		c-1.1-0.5-1.9-1.6-1.9-2.8c0-0.6,0.2-1.2,0.5-1.7c0.4-0.5,0.9-0.9,1.5-1.1c0.7-0.3,1.4-0.4,2.2-0.4c0.7,0,1.5,0.1,2.2,0.4
		c0.6,0.3,1.1,0.7,1.5,1.2c0.4,0.5,0.5,1.2,0.5,1.8h-2.3c0-0.5-0.2-0.9-0.5-1.2c-0.4-0.3-0.9-0.5-1.4-0.4c-0.5,0-0.9,0.1-1.3,0.4
		c-0.3,0.2-0.5,0.6-0.5,1c0,0.4,0.2,0.7,0.6,0.9c0.5,0.3,1.1,0.5,1.6,0.7c1.1,0.3,2.1,0.8,2.9,1.5c0.6,0.6,0.9,1.4,0.9,2.2
		c0,0.9-0.4,1.8-1.1,2.3c-0.9,0.6-1.9,0.9-3,0.8c-0.8,0-1.6-0.2-2.4-0.5c-0.7-0.3-1.2-0.7-1.6-1.3c-0.4-0.6-0.6-1.2-0.6-1.9h2.4
		c0,1.3,0.8,1.9,2.2,1.9c0.5,0,0.9-0.1,1.3-0.3C1207.1,1263.8,1207.3,1263.4,1207.3,1263z M1213.5,1266h-2.3v-8.5h2.3L1213.5,1266z
		 M1211.1,1255.4c0-0.3,0.1-0.6,0.3-0.8c0.5-0.4,1.3-0.4,1.8,0c0.2,0.2,0.4,0.5,0.3,0.8c0,0.3-0.1,0.6-0.3,0.8
		c-0.5,0.4-1.3,0.4-1.8,0C1211.2,1256,1211.1,1255.7,1211.1,1255.4L1211.1,1255.4z M1217.4,1257.5l0.1,1c0.6-0.7,1.5-1.2,2.4-1.1
		c0.8-0.1,1.5,0.2,2,0.8c0.5,0.7,0.7,1.5,0.7,2.4v5.5h-2.3v-5.4c0-0.4-0.1-0.7-0.3-1c-0.3-0.2-0.7-0.4-1-0.3c-0.6,0-1.1,0.3-1.4,0.8
		v6h-2.3v-8.5H1217.4z M1224,1261.7c-0.1-1.1,0.3-2.2,0.9-3.1c0.6-0.8,1.5-1.2,2.5-1.2c0.8,0,1.6,0.3,2.2,1l0.1-0.8h2v8.2
		c0,0.7-0.2,1.3-0.5,1.9c-0.3,0.5-0.8,1-1.4,1.2c-0.7,0.3-1.4,0.4-2.1,0.4c-0.6,0-1.2-0.1-1.8-0.4c-0.5-0.2-1-0.5-1.3-1l1-1.4
		c0.5,0.6,1.3,1,2,0.9c0.5,0,1-0.1,1.4-0.5c0.4-0.4,0.5-0.9,0.5-1.4v-0.5c-0.5,0.6-1.3,0.9-2.1,0.9c-1,0-1.9-0.4-2.5-1.2
		C1224.2,1264.1,1223.9,1262.9,1224,1261.7L1224,1261.7z M1226.2,1261.9c0,0.6,0.1,1.3,0.5,1.8c0.3,0.4,0.8,0.7,1.3,0.7
		c0.6,0,1.2-0.3,1.5-0.8v-3.6c-0.3-0.5-0.9-0.8-1.5-0.8c-0.5,0-1,0.2-1.3,0.7C1226.3,1260.5,1226.2,1261.2,1226.2,1261.9
		L1226.2,1261.9z M1235.8,1266h-2.3v-12h2.3V1266z M1241.6,1266.2c-1.1,0-2.2-0.4-3-1.1c-0.8-0.8-1.2-1.9-1.2-3v-0.2
		c0-0.8,0.2-1.6,0.5-2.3c0.3-0.6,0.8-1.2,1.4-1.5c0.6-0.4,1.3-0.6,2.1-0.5c1-0.1,2,0.3,2.7,1.1c0.7,0.9,1.1,2,1,3.1v0.9h-5.4
		c0.1,0.5,0.3,1,0.7,1.3c0.4,0.3,0.9,0.5,1.4,0.5c0.8,0,1.6-0.3,2-0.9l1.1,1.2c-0.4,0.5-0.8,0.9-1.4,1.1
		C1242.9,1266,1242.2,1266.2,1241.6,1266.2L1241.6,1266.2z M1241.3,1259.2c-0.4,0-0.8,0.2-1.1,0.5c-0.3,0.4-0.5,0.8-0.5,1.3h3.1
		v-0.2c0-0.4-0.1-0.8-0.4-1.2C1242.1,1259.3,1241.7,1259.2,1241.3,1259.2L1241.3,1259.2z M1249,1255.5v2.1h1.4v1.7h-1.4v4.2
		c0,0.2,0,0.5,0.2,0.7c0.2,0.2,0.4,0.2,0.7,0.2c0.2,0,0.4,0,0.7-0.1v1.7c-0.4,0.1-0.9,0.2-1.4,0.2c-1.2,0.2-2.3-0.7-2.4-1.9
		c0-0.2,0-0.4,0-0.5v-4.5h-1.2v-1.7h1.2v-2.1H1249z M1251.1,1261.7c0-0.8,0.2-1.5,0.5-2.2c0.3-0.6,0.8-1.2,1.4-1.5
		c0.6-0.4,1.4-0.6,2.1-0.5c1,0,2,0.3,2.8,1c0.7,0.8,1.2,1.8,1.2,2.8l0,0.6c0.1,1.1-0.3,2.3-1.1,3.1c-1.6,1.6-4.2,1.6-5.8,0
		C1251.5,1264.1,1251.1,1263,1251.1,1261.7L1251.1,1261.7z M1253.4,1261.9c0,0.6,0.1,1.3,0.5,1.8c0.5,0.7,1.6,0.8,2.3,0.3
		c0.1-0.1,0.2-0.2,0.3-0.3c0.4-0.6,0.5-1.3,0.5-2c0-0.6-0.1-1.3-0.5-1.8c-0.3-0.4-0.8-0.7-1.3-0.6c-0.5,0-1,0.2-1.3,0.6
		C1253.5,1260.5,1253.3,1261.2,1253.4,1261.9L1253.4,1261.9z M1262.6,1257.5l0.1,1c0.6-0.7,1.5-1.2,2.4-1.1c0.8-0.1,1.5,0.2,2,0.8
		c0.5,0.7,0.7,1.5,0.7,2.4v5.5h-2.3v-5.4c0-0.4-0.1-0.7-0.3-1c-0.3-0.2-0.7-0.4-1-0.3c-0.6,0-1.1,0.3-1.4,0.8v6h-2.3v-8.5H1262.6z"
		/>
	<path id="Trazado_218560" class="st4" d="M1116.1,1293.8h-3.8v-1.2h3.8V1293.8z M1126.4,1295.8c0-0.4-0.2-0.7-0.4-0.9
		c-0.5-0.3-1-0.5-1.5-0.6c-0.6-0.1-1.2-0.3-1.7-0.6c-0.4-0.2-0.7-0.4-1-0.8c-0.2-0.3-0.3-0.7-0.3-1.1c0-0.7,0.3-1.3,0.9-1.8
		c0.6-0.5,1.4-0.8,2.2-0.7c0.8,0,1.7,0.2,2.3,0.7c0.6,0.5,0.9,1.2,0.9,1.9h-1.5c0-0.4-0.2-0.8-0.5-1c-0.4-0.3-0.8-0.4-1.3-0.4
		c-0.4,0-0.9,0.1-1.2,0.3c-0.3,0.2-0.5,0.5-0.4,0.9c0,0.3,0.1,0.6,0.4,0.8c0.5,0.2,1,0.4,1.5,0.5c0.6,0.1,1.2,0.3,1.8,0.6
		c0.4,0.2,0.7,0.5,1,0.8c0.2,0.3,0.3,0.7,0.3,1.2c0,0.7-0.3,1.4-0.9,1.8c-0.7,0.5-1.5,0.7-2.4,0.7c-0.6,0-1.2-0.1-1.8-0.4
		c-0.5-0.2-0.9-0.6-1.2-1c-0.3-0.4-0.4-0.9-0.4-1.4h1.4c0,0.5,0.2,0.9,0.6,1.2c0.4,0.3,0.9,0.5,1.4,0.4c0.5,0,0.9-0.1,1.3-0.3
		C1126.2,1296.5,1126.4,1296.1,1126.4,1295.8L1126.4,1295.8z M1131.3,1298h-1.4v-8.5h1.4V1298z M1129.7,1287.3
		c0-0.2,0.1-0.4,0.2-0.6c0.2-0.2,0.4-0.3,0.6-0.2c0.2,0,0.5,0.1,0.6,0.2c0.1,0.2,0.2,0.4,0.2,0.6c0,0.2-0.1,0.4-0.2,0.6
		c-0.2,0.2-0.4,0.3-0.6,0.2c-0.2,0-0.5-0.1-0.6-0.2C1129.8,1287.7,1129.7,1287.5,1129.7,1287.3z M1135,1289.5l0,1.1
		c0.6-0.8,1.5-1.2,2.5-1.2c1.8,0,2.7,1,2.7,3v5.6h-1.4v-5.6c0-0.5-0.1-1-0.4-1.4c-0.3-0.3-0.8-0.5-1.3-0.4c-0.4,0-0.9,0.1-1.2,0.4
		c-0.4,0.3-0.6,0.6-0.8,1v6h-1.4v-8.5L1135,1289.5z M1142.1,1293.7c-0.1-1.1,0.3-2.2,0.9-3.1c1.1-1.4,3.1-1.6,4.4-0.5
		c0.1,0.1,0.3,0.2,0.4,0.4l0.1-0.9h1.3v8.3c0.1,1-0.3,1.9-1,2.6c-0.7,0.7-1.7,1-2.6,0.9c-0.6,0-1.2-0.1-1.8-0.4
		c-0.5-0.2-1-0.6-1.3-1.1l0.8-0.9c0.5,0.7,1.4,1.1,2.3,1.1c0.6,0,1.2-0.2,1.6-0.6c0.4-0.5,0.6-1.1,0.6-1.7v-0.7
		c-0.6,0.7-1.5,1-2.4,1c-0.9,0-1.8-0.4-2.4-1.2C1142.3,1296,1142,1294.9,1142.1,1293.7z M1143.5,1293.9c0,0.8,0.2,1.6,0.6,2.2
		c0.4,0.5,1,0.8,1.6,0.8c0.9,0,1.7-0.5,2-1.2v-3.9c-0.4-0.8-1.1-1.2-2-1.2c-0.7,0-1.3,0.3-1.6,0.8
		C1143.7,1292.2,1143.5,1293,1143.5,1293.9L1143.5,1293.9z M1153,1298h-1.4v-12h1.4L1153,1298z M1158.8,1298.2
		c-1.1,0-2.1-0.4-2.8-1.1c-0.7-0.8-1.1-1.9-1.1-3v-0.3c0-0.8,0.1-1.5,0.5-2.2c0.3-0.6,0.8-1.2,1.3-1.5c0.6-0.4,1.2-0.6,1.9-0.6
		c1-0.1,1.9,0.3,2.6,1.1c0.7,0.9,1,2,0.9,3.1v0.6h-5.7c0,0.7,0.2,1.5,0.7,2c0.5,0.5,1.1,0.8,1.8,0.8c0.5,0,0.9-0.1,1.3-0.3
		c0.4-0.2,0.7-0.5,0.9-0.8l0.9,0.7C1161.3,1297.6,1160.1,1298.2,1158.8,1298.2L1158.8,1298.2z M1158.6,1290.6
		c-0.6,0-1.1,0.2-1.5,0.6c-0.4,0.5-0.7,1.1-0.7,1.8h4.2v-0.1c0-0.6-0.2-1.2-0.6-1.7C1159.7,1290.8,1159.2,1290.6,1158.6,1290.6z
		 M1165.7,1287.5v2h1.6v1.1h-1.6v5.2c0,0.3,0.1,0.5,0.2,0.8c0.2,0.2,0.5,0.3,0.7,0.3c0.2,0,0.5,0,0.7-0.1v1.2
		c-0.4,0.1-0.7,0.2-1.1,0.2c-0.6,0-1.1-0.2-1.5-0.6c-0.4-0.5-0.5-1.1-0.5-1.7v-5.2h-1.5v-1.1h1.5v-2H1165.7z M1168.5,1293.7
		c0-0.8,0.2-1.5,0.5-2.2c0.3-0.6,0.8-1.2,1.4-1.5c0.6-0.4,1.3-0.6,2-0.5c1.1,0,2.1,0.4,2.8,1.2c0.7,0.9,1.1,2,1.1,3.2v0.1
		c0,0.8-0.1,1.5-0.5,2.2c-0.3,0.6-0.8,1.2-1.4,1.5c-0.6,0.4-1.3,0.6-2,0.5c-1.1,0-2.1-0.4-2.8-1.2c-0.7-0.9-1.1-2-1.1-3.2
		L1168.5,1293.7z M1169.9,1293.9c0,0.8,0.2,1.6,0.7,2.3c0.7,1,2.1,1.1,3.1,0.4c0.1-0.1,0.3-0.3,0.4-0.4c0.5-0.7,0.7-1.6,0.6-2.4
		c0-0.8-0.2-1.6-0.7-2.3c-0.4-0.6-1.1-0.9-1.8-0.9c-0.7,0-1.3,0.3-1.7,0.9C1170.1,1292.2,1169.9,1293,1169.9,1293.9L1169.9,1293.9z
		 M1179.3,1289.6l0,1.1c0.6-0.8,1.5-1.2,2.5-1.2c1.8,0,2.7,1,2.7,3v5.6h-1.4v-5.6c0-0.5-0.1-1-0.4-1.4c-0.3-0.3-0.8-0.5-1.3-0.4
		c-0.4,0-0.9,0.1-1.2,0.4c-0.4,0.3-0.6,0.6-0.8,1v6h-1.4v-8.5L1179.3,1289.6z M1188.6,1298h-1.5v-11.4h1.5V1298z M1192.5,1289.5
		l0,1.1c0.6-0.8,1.5-1.2,2.5-1.2c1.8,0,2.7,1,2.7,3v5.6h-1.4v-5.6c0-0.5-0.1-1-0.4-1.4c-0.3-0.3-0.8-0.5-1.3-0.4
		c-0.4,0-0.9,0.1-1.2,0.4c-0.4,0.3-0.6,0.6-0.8,1v6h-1.4v-8.5H1192.5z M1204.9,1295.8c0-0.4-0.2-0.7-0.4-0.9c-0.5-0.3-1-0.5-1.5-0.6
		c-0.6-0.1-1.2-0.3-1.7-0.6c-0.4-0.2-0.7-0.4-1-0.8c-0.2-0.3-0.3-0.7-0.3-1.1c0-0.7,0.3-1.3,0.9-1.8c0.6-0.5,1.4-0.8,2.2-0.7
		c0.8,0,1.7,0.2,2.3,0.7c0.6,0.5,0.9,1.2,0.9,1.9h-1.5c0-0.4-0.2-0.8-0.5-1c-0.4-0.3-0.8-0.4-1.3-0.4c-0.4,0-0.9,0.1-1.2,0.3
		c-0.3,0.2-0.5,0.5-0.4,0.9c0,0.3,0.1,0.6,0.4,0.8c0.5,0.2,1,0.4,1.5,0.5c0.6,0.1,1.2,0.3,1.8,0.6c0.4,0.2,0.7,0.5,1,0.8
		c0.2,0.3,0.3,0.7,0.3,1.2c0,0.7-0.3,1.4-0.9,1.8c-0.7,0.5-1.5,0.7-2.4,0.7c-0.6,0-1.2-0.1-1.8-0.4c-0.5-0.2-0.9-0.6-1.2-1
		c-0.3-0.4-0.4-0.9-0.4-1.4h1.4c0,0.5,0.2,0.9,0.6,1.2c0.4,0.3,0.9,0.5,1.4,0.4c0.5,0,0.9-0.1,1.3-0.3
		C1204.7,1296.5,1204.9,1296.1,1204.9,1295.8z M1210.2,1287.5v2h1.6v1.1h-1.6v5.2c0,0.3,0.1,0.5,0.2,0.8c0.2,0.2,0.5,0.3,0.7,0.3
		c0.2,0,0.5,0,0.7-0.1v1.2c-0.4,0.1-0.7,0.2-1.1,0.2c-0.6,0-1.1-0.2-1.5-0.6c-0.4-0.5-0.5-1.1-0.5-1.7v-5.2h-1.5v-1.1h1.5v-2H1210.2
		z M1218.7,1298c-0.1-0.3-0.2-0.6-0.2-0.9c-0.6,0.7-1.5,1.1-2.4,1c-0.8,0-1.5-0.2-2.1-0.7c-0.5-0.4-0.8-1.1-0.8-1.8
		c0-0.8,0.3-1.6,1-2.1c0.8-0.5,1.8-0.8,2.8-0.7h1.4v-0.7c0-0.4-0.1-0.9-0.4-1.2c-0.4-0.3-0.8-0.5-1.3-0.4c-0.5,0-0.9,0.1-1.3,0.4
		c-0.3,0.2-0.5,0.6-0.5,0.9h-1.5c0-0.4,0.2-0.9,0.4-1.2c0.3-0.4,0.7-0.7,1.2-0.9c0.5-0.2,1.1-0.4,1.7-0.3c0.8,0,1.6,0.2,2.3,0.7
		c0.6,0.5,0.9,1.2,0.9,2v3.9c0,0.6,0.1,1.3,0.3,1.9v0.1H1218.7z M1216.3,1296.9c0.5,0,0.9-0.1,1.3-0.4c0.4-0.2,0.7-0.5,0.9-0.9v-1.7
		h-1.1c-1.8,0-2.7,0.5-2.7,1.6c0,0.4,0.1,0.8,0.5,1.1C1215.4,1296.8,1215.8,1296.9,1216.3,1296.9L1216.3,1296.9z M1223.5,1289.5
		l0,1.1c0.6-0.8,1.5-1.2,2.5-1.2c1.8,0,2.7,1,2.7,3v5.6h-1.4v-5.6c0-0.5-0.1-1-0.4-1.4c-0.3-0.3-0.8-0.5-1.3-0.4
		c-0.4,0-0.9,0.1-1.2,0.4c-0.4,0.3-0.6,0.6-0.8,1v6h-1.4v-8.5L1223.5,1289.5z M1234.4,1297c0.5,0,1-0.2,1.4-0.5
		c0.4-0.3,0.6-0.7,0.6-1.2h1.4c0,0.5-0.2,1-0.5,1.4c-0.3,0.4-0.7,0.8-1.2,1c-0.5,0.3-1.1,0.4-1.6,0.4c-1,0-2.1-0.4-2.8-1.2
		c-0.7-0.9-1.1-2-1-3.2v-0.2c0-0.8,0.1-1.5,0.5-2.2c0.3-0.6,0.7-1.1,1.3-1.5c0.6-0.4,1.3-0.5,2-0.5c0.9,0,1.7,0.3,2.4,0.9
		c0.6,0.6,1,1.4,1,2.2h-1.4c0-0.5-0.2-1-0.6-1.3c-0.4-0.4-0.9-0.5-1.4-0.5c-0.7,0-1.3,0.3-1.7,0.8c-0.4,0.7-0.7,1.5-0.6,2.3v0.3
		c-0.1,0.8,0.2,1.6,0.6,2.2C1233,1296.7,1233.7,1297,1234.4,1297L1234.4,1297z M1242.9,1298.2c-1.1,0-2.1-0.4-2.8-1.1
		c-0.7-0.8-1.1-1.9-1.1-3v-0.3c0-0.8,0.2-1.5,0.5-2.2c0.3-0.6,0.8-1.2,1.3-1.5c0.6-0.4,1.2-0.6,1.9-0.6c1-0.1,1.9,0.3,2.6,1.1
		c0.7,0.9,1,2,0.9,3.1v0.6h-5.7c0,0.7,0.2,1.5,0.7,2c0.5,0.5,1.1,0.8,1.8,0.8c0.5,0,0.9-0.1,1.3-0.3c0.4-0.2,0.7-0.5,0.9-0.8
		l0.9,0.7C1245.4,1297.6,1244.1,1298.2,1242.9,1298.2L1242.9,1298.2z M1242.7,1290.6c-0.6,0-1.1,0.2-1.5,0.6
		c-0.4,0.5-0.7,1.1-0.7,1.8h4.2v-0.1c0-0.6-0.2-1.2-0.6-1.7C1243.8,1290.8,1243.2,1290.6,1242.7,1290.6L1242.7,1290.6z
		 M1251.7,1297.2c0-0.2,0.1-0.5,0.2-0.6c0.2-0.2,0.4-0.3,0.7-0.2c0.3,0,0.5,0.1,0.7,0.2c0.2,0.2,0.2,0.4,0.2,0.6
		c0,0.2-0.1,0.4-0.2,0.6c-0.2,0.2-0.4,0.3-0.7,0.2c-0.4,0.1-0.8-0.3-0.9-0.7C1251.7,1297.3,1251.7,1297.3,1251.7,1297.2
		L1251.7,1297.2z M1251.7,1290.3c0-0.2,0.1-0.5,0.2-0.6c0.2-0.2,0.4-0.3,0.7-0.2c0.3,0,0.5,0.1,0.7,0.2c0.2,0.2,0.2,0.4,0.2,0.6
		c0,0.2-0.1,0.4-0.2,0.6c-0.2,0.2-0.4,0.3-0.7,0.2c-0.4,0.1-0.8-0.3-0.9-0.7C1251.7,1290.4,1251.7,1290.4,1251.7,1290.3
		L1251.7,1290.3z M1263.2,1292.9c-1-0.2-2-0.7-2.8-1.4c-0.6-0.5-0.9-1.2-0.9-2c0-0.9,0.4-1.7,1.1-2.2c0.8-0.6,1.8-0.9,2.8-0.9
		c0.7,0,1.4,0.1,2.1,0.5c0.6,0.3,1.1,0.7,1.4,1.2c0.3,0.5,0.5,1.1,0.5,1.7h-1.5c0-0.6-0.2-1.2-0.7-1.6c-0.5-0.4-1.2-0.6-1.9-0.6
		c-0.6,0-1.2,0.1-1.7,0.5c-0.4,0.3-0.6,0.8-0.6,1.4c0,0.5,0.2,0.9,0.6,1.2c0.6,0.4,1.3,0.7,2,0.9c0.8,0.2,1.5,0.5,2.2,0.9
		c0.5,0.3,0.9,0.7,1.2,1.1c0.3,0.5,0.4,1,0.4,1.5c0,0.9-0.4,1.7-1.1,2.2c-0.8,0.6-1.9,0.9-2.9,0.8c-0.8,0-1.5-0.1-2.2-0.4
		c-0.6-0.3-1.2-0.7-1.6-1.2c-0.4-0.5-0.6-1.1-0.6-1.8h1.5c0,0.6,0.3,1.2,0.8,1.6c0.6,0.4,1.3,0.6,2,0.6c0.6,0,1.3-0.1,1.8-0.5
		c0.4-0.3,0.7-0.8,0.6-1.3c0-0.5-0.2-1-0.6-1.3C1264.7,1293.4,1264,1293.1,1263.2,1292.9z M1270.7,1298h-1.4v-8.5h1.4V1298z
		 M1269.1,1287.3c0-0.2,0.1-0.4,0.2-0.6c0.2-0.2,0.4-0.3,0.6-0.2c0.2,0,0.5,0.1,0.6,0.2c0.1,0.2,0.2,0.4,0.2,0.6
		c0,0.2-0.1,0.4-0.2,0.6c-0.2,0.2-0.4,0.3-0.6,0.2c-0.2,0-0.5-0.1-0.6-0.2C1269.2,1287.7,1269.1,1287.5,1269.1,1287.3z
		 M1274.4,1289.5l0,1.1c0.6-0.8,1.5-1.2,2.5-1.2c1.8,0,2.7,1,2.7,3v5.6h-1.4v-5.6c0-0.5-0.1-1-0.4-1.4c-0.3-0.3-0.8-0.5-1.3-0.4
		c-0.4,0-0.9,0.1-1.2,0.4c-0.4,0.3-0.6,0.6-0.8,1v6h-1.4v-8.5L1274.4,1289.5z M1281.5,1293.7c-0.1-1.1,0.3-2.2,0.9-3.1
		c1.1-1.4,3.1-1.6,4.4-0.5c0.1,0.1,0.3,0.2,0.4,0.4l0.1-0.9h1.3v8.3c0.1,1-0.3,1.9-1,2.6c-0.7,0.7-1.7,1-2.6,0.9
		c-0.6,0-1.2-0.1-1.8-0.4c-0.5-0.2-1-0.6-1.3-1.1l0.8-0.9c0.5,0.7,1.4,1.1,2.3,1.1c0.6,0,1.2-0.2,1.6-0.6c0.4-0.5,0.6-1.1,0.6-1.7
		v-0.7c-0.6,0.7-1.5,1-2.4,1c-0.9,0-1.8-0.4-2.4-1.2C1281.7,1296,1281.4,1294.9,1281.5,1293.7L1281.5,1293.7z M1282.9,1293.9
		c0,0.8,0.2,1.6,0.6,2.2c0.4,0.5,1,0.8,1.6,0.8c0.9,0,1.7-0.5,2-1.2v-3.9c-0.4-0.8-1.1-1.2-2-1.2c-0.7,0-1.3,0.3-1.6,0.8
		C1283.1,1292.2,1282.9,1293,1282.9,1293.9L1282.9,1293.9z M1292.4,1298h-1.4v-12h1.4V1298z M1298.2,1298.2c-1.1,0-2.1-0.4-2.8-1.1
		c-0.7-0.8-1.1-1.9-1.1-3v-0.3c0-0.8,0.2-1.5,0.5-2.2c0.3-0.6,0.8-1.2,1.3-1.5c0.6-0.4,1.2-0.6,1.9-0.6c1-0.1,1.9,0.3,2.6,1.1
		c0.7,0.9,1,2,0.9,3.1v0.6h-5.7c0,0.7,0.2,1.5,0.7,2c0.5,0.5,1.1,0.8,1.8,0.8c0.5,0,0.9-0.1,1.3-0.3c0.4-0.2,0.7-0.5,0.9-0.8
		l0.9,0.7C1300.7,1297.6,1299.5,1298.2,1298.2,1298.2L1298.2,1298.2z M1298,1290.6c-0.6,0-1.1,0.2-1.5,0.6c-0.4,0.5-0.7,1.1-0.7,1.8
		h4.2v-0.1c0-0.6-0.2-1.2-0.6-1.7C1299.1,1290.8,1298.6,1290.6,1298,1290.6L1298,1290.6z M1305.1,1287.5v2h1.6v1.1h-1.6v5.2
		c0,0.3,0.1,0.5,0.2,0.8c0.2,0.2,0.5,0.3,0.7,0.3c0.2,0,0.5,0,0.7-0.1v1.2c-0.4,0.1-0.7,0.2-1.1,0.2c-0.6,0-1.1-0.2-1.5-0.6
		c-0.4-0.5-0.5-1.1-0.5-1.7v-5.2h-1.5v-1.1h1.5v-2H1305.1z M1307.9,1293.7c0-0.8,0.2-1.5,0.5-2.2c0.3-0.6,0.8-1.2,1.4-1.5
		c0.6-0.4,1.3-0.6,2-0.5c1.1,0,2.1,0.4,2.8,1.2c0.7,0.9,1.1,2,1.1,3.2v0.1c0,0.8-0.1,1.5-0.5,2.2c-0.3,0.6-0.8,1.2-1.4,1.5
		c-0.6,0.4-1.3,0.6-2,0.5c-1.1,0-2.1-0.4-2.8-1.2C1308.2,1296.1,1307.8,1294.9,1307.9,1293.7L1307.9,1293.7z M1309.3,1293.9
		c0,0.8,0.2,1.6,0.7,2.3c0.7,1,2.1,1.1,3.1,0.4c0.1-0.1,0.3-0.3,0.4-0.4c0.5-0.7,0.7-1.6,0.6-2.4c0-0.8-0.2-1.6-0.7-2.3
		c-0.4-0.6-1.1-0.9-1.8-0.9c-0.7,0-1.3,0.3-1.7,0.9C1309.5,1292.2,1309.2,1293,1309.3,1293.9L1309.3,1293.9z M1318.7,1289.6l0,1.1
		c0.6-0.8,1.5-1.2,2.5-1.2c1.8,0,2.7,1,2.7,3v5.6h-1.4v-5.6c0-0.5-0.1-1-0.4-1.4c-0.3-0.3-0.8-0.5-1.3-0.4c-0.4,0-0.9,0.1-1.2,0.4
		c-0.4,0.3-0.6,0.6-0.8,1v6h-1.4v-8.5L1318.7,1289.6z"/>
	<path id="Trazado_218564" class="st4" d="M1040.3,1284.2c-0.6,0.7-1.5,1.1-2.5,1c-0.8,0.1-1.5-0.2-2.1-0.8
		c-0.5-0.7-0.8-1.5-0.7-2.3v-5.5h1.4v5.5c0,1.3,0.5,1.9,1.6,1.9c0.9,0.1,1.8-0.4,2.2-1.2v-6.1h1.4v8.5h-1.4L1040.3,1284.2z
		 M1048.8,1282.8c0-0.4-0.2-0.7-0.4-0.9c-0.5-0.3-1-0.5-1.5-0.6c-0.6-0.1-1.2-0.3-1.7-0.6c-0.4-0.2-0.7-0.4-1-0.8
		c-0.2-0.3-0.3-0.7-0.3-1.1c0-0.7,0.3-1.3,0.9-1.8c0.6-0.5,1.4-0.8,2.2-0.7c0.8,0,1.7,0.2,2.3,0.7c0.6,0.5,0.9,1.2,0.9,1.9h-1.5
		c0-0.4-0.2-0.8-0.5-1c-0.4-0.3-0.8-0.4-1.3-0.4c-0.4,0-0.9,0.1-1.2,0.3c-0.3,0.2-0.5,0.5-0.4,0.9c0,0.3,0.1,0.6,0.4,0.8
		c0.5,0.2,1,0.4,1.5,0.5c0.6,0.1,1.2,0.3,1.8,0.6c0.4,0.2,0.7,0.5,1,0.8c0.2,0.3,0.3,0.7,0.3,1.2c0,0.7-0.3,1.4-0.9,1.8
		c-0.7,0.5-1.5,0.7-2.4,0.7c-0.6,0-1.2-0.1-1.8-0.4c-0.5-0.2-0.9-0.6-1.2-1c-0.3-0.4-0.4-0.9-0.4-1.4h1.4c0,0.5,0.2,0.9,0.6,1.2
		c0.4,0.3,0.9,0.5,1.4,0.4c0.5,0,0.9-0.1,1.3-0.3C1048.7,1283.5,1048.8,1283.1,1048.8,1282.8z M1055.7,1285.2
		c-1.1,0-2.1-0.4-2.8-1.1c-0.7-0.8-1.1-1.9-1.1-3v-0.3c0-0.8,0.2-1.5,0.5-2.2c0.3-0.6,0.8-1.2,1.3-1.5c0.6-0.4,1.2-0.6,1.9-0.6
		c1-0.1,1.9,0.3,2.6,1.1c0.7,0.9,1,2,0.9,3.1v0.6h-5.7c0,0.7,0.2,1.5,0.7,2c0.5,0.5,1.1,0.8,1.8,0.8c0.5,0,0.9-0.1,1.3-0.3
		c0.4-0.2,0.7-0.5,0.9-0.8l0.9,0.7C1058.2,1284.6,1057,1285.2,1055.7,1285.2L1055.7,1285.2z M1055.5,1277.6c-0.6,0-1.1,0.2-1.5,0.6
		c-0.4,0.5-0.7,1.1-0.7,1.8h4.2v-0.1c0-0.6-0.2-1.2-0.6-1.7C1056.6,1277.8,1056,1277.6,1055.5,1277.6L1055.5,1277.6z"/>
	<path id="Trazado_218561" class="st4" d="M1117.2,1318.9h3.2v1.4h-3.2v3.6h-1.5v-3.6h-3.2v-1.4h3.2v-3.3h1.5V1318.9z
		 M1125.8,1320.7c-0.1-1.1,0.3-2.2,0.9-3.1c0.6-0.8,1.5-1.2,2.4-1.2c0.9,0,1.8,0.4,2.4,1.1l0.1-0.9h1.3v8.3c0.1,1-0.3,1.9-1,2.6
		c-0.7,0.7-1.7,1-2.6,0.9c-0.6,0-1.2-0.1-1.8-0.4c-0.5-0.2-1-0.6-1.3-1.1l0.8-0.9c0.5,0.7,1.4,1.1,2.3,1.1c0.6,0,1.2-0.2,1.6-0.6
		c0.4-0.5,0.6-1.1,0.6-1.7v-0.7c-0.6,0.7-1.5,1-2.4,1c-0.9,0-1.8-0.4-2.4-1.2C1126,1323,1125.7,1321.9,1125.8,1320.7z
		 M1127.2,1320.9c0,0.8,0.2,1.6,0.6,2.2c0.4,0.5,1,0.8,1.6,0.8c0.9,0,1.7-0.5,2-1.2v-3.9c-0.4-0.8-1.1-1.2-2-1.2
		c-0.7,0-1.3,0.3-1.6,0.8C1127.4,1319.2,1127.2,1320,1127.2,1320.9L1127.2,1320.9z M1138.6,1325.2c-1.1,0-2.1-0.4-2.8-1.1
		c-0.7-0.8-1.1-1.9-1.1-3v-0.3c0-0.8,0.2-1.5,0.5-2.2c0.3-0.6,0.8-1.2,1.3-1.5c0.6-0.4,1.2-0.6,1.9-0.6c1-0.1,1.9,0.3,2.6,1.1
		c0.7,0.9,1,2,0.9,3.1v0.6h-5.7c0,0.7,0.2,1.5,0.7,2c0.5,0.5,1.1,0.8,1.8,0.8c0.5,0,0.9-0.1,1.3-0.3c0.4-0.2,0.7-0.5,0.9-0.8
		l0.9,0.7C1141.1,1324.6,1139.9,1325.2,1138.6,1325.2L1138.6,1325.2z M1138.4,1317.6c-0.6,0-1.1,0.2-1.5,0.6
		c-0.4,0.5-0.7,1.1-0.7,1.8h4.2v-0.1c0-0.6-0.2-1.2-0.6-1.7C1139.5,1317.8,1139,1317.6,1138.4,1317.6L1138.4,1317.6z M1145.5,1314.5
		v2h1.6v1.1h-1.6v5.2c0,0.3,0.1,0.5,0.2,0.8c0.2,0.2,0.5,0.3,0.7,0.3c0.2,0,0.5,0,0.7-0.1v1.2c-0.4,0.1-0.7,0.2-1.1,0.2
		c-0.6,0-1.1-0.2-1.5-0.6c-0.4-0.5-0.5-1.1-0.5-1.7v-5.2h-1.5v-1.1h1.5v-2H1145.5z M1150.6,1325h-1.5v-11.4h1.5V1325z
		 M1154.5,1316.5l0,1.1c0.6-0.8,1.5-1.2,2.5-1.2c1.8,0,2.7,1,2.7,3v5.6h-1.4v-5.6c0-0.5-0.1-1-0.4-1.4c-0.3-0.3-0.8-0.5-1.3-0.4
		c-0.4,0-0.9,0.1-1.2,0.4c-0.4,0.3-0.6,0.6-0.8,1v6h-1.4v-8.5H1154.5z M1166.9,1322.8c0-0.4-0.2-0.7-0.4-0.9c-0.5-0.3-1-0.5-1.5-0.6
		c-0.6-0.1-1.2-0.3-1.7-0.6c-0.4-0.2-0.7-0.4-1-0.8c-0.2-0.3-0.3-0.7-0.3-1.1c0-0.7,0.3-1.3,0.9-1.8c0.6-0.5,1.4-0.8,2.2-0.7
		c0.8,0,1.7,0.2,2.3,0.7c0.6,0.5,0.9,1.2,0.9,1.9h-1.5c0-0.4-0.2-0.8-0.5-1c-0.4-0.3-0.8-0.4-1.3-0.4c-0.4,0-0.9,0.1-1.2,0.3
		c-0.3,0.2-0.5,0.5-0.4,0.9c0,0.3,0.1,0.6,0.4,0.8c0.5,0.2,1,0.4,1.5,0.5c0.6,0.1,1.2,0.3,1.8,0.6c0.4,0.2,0.7,0.5,1,0.8
		c0.2,0.3,0.3,0.7,0.3,1.2c0,0.7-0.3,1.4-0.9,1.8c-0.7,0.5-1.5,0.7-2.4,0.7c-0.6,0-1.2-0.1-1.8-0.4c-0.5-0.2-0.9-0.6-1.2-1
		c-0.3-0.4-0.4-0.9-0.4-1.4h1.4c0,0.5,0.2,0.9,0.6,1.2c0.4,0.3,0.9,0.5,1.4,0.4c0.5,0,0.9-0.1,1.3-0.3
		C1166.7,1323.5,1166.9,1323.1,1166.9,1322.8L1166.9,1322.8z M1172.2,1314.5v2h1.6v1.1h-1.6v5.2c0,0.3,0.1,0.5,0.2,0.8
		c0.2,0.2,0.5,0.3,0.7,0.3c0.2,0,0.5,0,0.7-0.1v1.2c-0.4,0.1-0.7,0.2-1.1,0.2c-0.6,0-1.1-0.2-1.5-0.6c-0.4-0.5-0.5-1.1-0.5-1.7v-5.2
		h-1.5v-1.1h1.5v-2H1172.2z M1180.7,1325c-0.1-0.3-0.2-0.6-0.2-0.9c-0.6,0.7-1.5,1.1-2.4,1c-0.7,0-1.5-0.2-2.1-0.7
		c-0.5-0.4-0.8-1.1-0.8-1.8c0-0.8,0.3-1.6,1-2.1c0.8-0.5,1.8-0.8,2.8-0.7h1.4v-0.7c0-0.4-0.1-0.9-0.5-1.2c-0.4-0.3-0.8-0.5-1.3-0.4
		c-0.5,0-0.9,0.1-1.3,0.4c-0.3,0.2-0.5,0.6-0.5,0.9h-1.4c0-0.4,0.2-0.9,0.4-1.2c0.3-0.4,0.7-0.7,1.2-0.9c0.5-0.2,1.1-0.4,1.7-0.3
		c0.8,0,1.6,0.2,2.3,0.7c0.6,0.5,0.9,1.2,0.9,2v3.9c0,0.6,0.1,1.3,0.3,1.9v0.1H1180.7z M1178.3,1323.9c0.5,0,0.9-0.1,1.3-0.4
		c0.4-0.2,0.7-0.5,0.9-0.9v-1.7h-1.1c-1.8,0-2.7,0.5-2.7,1.6c0,0.4,0.1,0.8,0.5,1.1C1177.4,1323.8,1177.9,1323.9,1178.3,1323.9
		L1178.3,1323.9z M1185.5,1316.5l0,1.1c0.6-0.8,1.5-1.2,2.5-1.2c1.8,0,2.7,1,2.7,3v5.6h-1.4v-5.6c0-0.5-0.1-1-0.4-1.4
		c-0.3-0.3-0.8-0.5-1.3-0.4c-0.4,0-0.9,0.1-1.2,0.4c-0.4,0.3-0.6,0.6-0.8,1v6h-1.4v-8.5L1185.5,1316.5z M1196.4,1324
		c0.5,0,1-0.2,1.4-0.5c0.4-0.3,0.6-0.7,0.6-1.2h1.4c0,0.5-0.2,1-0.5,1.4c-0.3,0.4-0.7,0.8-1.2,1c-0.5,0.3-1.1,0.4-1.6,0.4
		c-1,0-2.1-0.4-2.7-1.2c-0.7-0.9-1.1-2-1-3.2v-0.2c0-0.8,0.1-1.5,0.5-2.2c0.3-0.6,0.7-1.1,1.3-1.5c0.6-0.4,1.3-0.5,2-0.5
		c0.9,0,1.7,0.3,2.4,0.9c0.6,0.6,1,1.4,1,2.2h-1.4c0-0.5-0.2-1-0.6-1.3c-0.4-0.4-0.9-0.5-1.4-0.5c-0.7,0-1.3,0.3-1.7,0.8
		c-0.4,0.7-0.7,1.5-0.6,2.3v0.3c-0.1,0.8,0.2,1.6,0.6,2.2C1195.1,1323.7,1195.7,1324,1196.4,1324L1196.4,1324z M1204.9,1325.2
		c-1.1,0-2.1-0.4-2.8-1.1c-0.7-0.8-1.1-1.9-1.1-3v-0.3c0-0.8,0.2-1.5,0.5-2.2c0.3-0.6,0.8-1.2,1.3-1.5c0.6-0.4,1.2-0.6,1.9-0.6
		c1-0.1,1.9,0.3,2.6,1.1c0.7,0.9,1,2,0.9,3.1v0.6h-5.7c0,0.7,0.2,1.5,0.7,2c0.5,0.5,1.1,0.8,1.8,0.8c0.5,0,0.9-0.1,1.3-0.3
		c0.4-0.2,0.7-0.5,0.9-0.8l0.9,0.7C1207.4,1324.6,1206.2,1325.2,1204.9,1325.2L1204.9,1325.2z M1204.7,1317.6
		c-0.6,0-1.1,0.2-1.5,0.6c-0.4,0.5-0.7,1.1-0.7,1.8h4.2v-0.1c0-0.6-0.2-1.2-0.6-1.7C1205.8,1317.8,1205.2,1317.6,1204.7,1317.6z
		 M1209.8,1320.4c0-1.1,0.2-2.3,0.5-3.4c0.3-1.1,0.8-2.1,1.4-3c0.5-0.8,1.2-1.4,1.9-1.9l0.3,1c-0.9,0.7-1.5,1.6-1.9,2.7
		c-0.5,1.3-0.8,2.6-0.8,4l0,0.7c0,1.8,0.3,3.6,1.1,5.2c0.4,0.8,0.9,1.5,1.6,2.1l-0.3,0.9c-0.8-0.5-1.5-1.1-2-1.9
		C1210.4,1324.9,1209.7,1322.6,1209.8,1320.4L1209.8,1320.4z M1218.7,1320.5c0,1.1-0.1,2.3-0.5,3.3c-0.3,1.1-0.8,2.1-1.4,2.9
		c-0.5,0.8-1.2,1.4-2,1.9l-0.3-0.9c0.9-0.8,1.6-1.7,1.9-2.9c0.5-1.4,0.8-2.8,0.7-4.3v-0.2c0-1-0.1-2.1-0.3-3.1
		c-0.2-0.9-0.5-1.7-1-2.5c-0.3-0.7-0.8-1.3-1.4-1.7l0.3-0.9c0.8,0.5,1.5,1.1,2,1.9c0.6,0.9,1.1,1.9,1.4,2.9
		C1218.5,1318.1,1218.7,1319.3,1218.7,1320.5L1218.7,1320.5z M1220.8,1324.2c0-0.2,0.1-0.5,0.2-0.6c0.2-0.2,0.4-0.3,0.7-0.2
		c0.3,0,0.5,0.1,0.7,0.2c0.2,0.2,0.2,0.4,0.2,0.6c0,0.2-0.1,0.4-0.2,0.6c-0.2,0.2-0.4,0.3-0.7,0.2c-0.4,0.1-0.8-0.3-0.9-0.7
		C1220.8,1324.3,1220.8,1324.3,1220.8,1324.2L1220.8,1324.2z M1220.8,1317.3c0-0.2,0.1-0.5,0.2-0.6c0.2-0.2,0.4-0.3,0.7-0.2
		c0.3,0,0.5,0.1,0.7,0.2c0.2,0.2,0.2,0.4,0.2,0.6c0,0.2-0.1,0.4-0.2,0.6c-0.2,0.2-0.4,0.3-0.7,0.2c-0.4,0.1-0.8-0.3-0.9-0.7
		C1220.8,1317.4,1220.8,1317.4,1220.8,1317.3L1220.8,1317.3z M1232.3,1319.9c-1-0.2-2-0.7-2.8-1.4c-0.6-0.5-0.9-1.2-0.9-2
		c0-0.9,0.4-1.7,1.1-2.2c0.8-0.6,1.8-0.9,2.8-0.9c0.7,0,1.4,0.1,2.1,0.5c0.6,0.3,1.1,0.7,1.4,1.2c0.3,0.5,0.5,1.1,0.5,1.7h-1.5
		c0-0.6-0.2-1.2-0.7-1.6c-0.5-0.4-1.2-0.6-1.9-0.6c-0.6,0-1.2,0.1-1.7,0.5c-0.4,0.3-0.6,0.8-0.6,1.4c0,0.5,0.2,0.9,0.6,1.2
		c0.6,0.4,1.3,0.7,2,0.9c0.8,0.2,1.5,0.5,2.2,0.9c0.5,0.3,0.9,0.7,1.2,1.1c0.3,0.5,0.4,1,0.4,1.5c0,0.9-0.4,1.7-1.1,2.2
		c-0.8,0.6-1.9,0.9-2.9,0.8c-0.8,0-1.5-0.1-2.2-0.4c-0.6-0.3-1.2-0.7-1.6-1.2c-0.4-0.5-0.6-1.1-0.6-1.8h1.5c0,0.6,0.3,1.2,0.8,1.6
		c0.6,0.4,1.3,0.6,2,0.6c0.6,0,1.3-0.1,1.8-0.5c0.4-0.3,0.7-0.8,0.6-1.3c0-0.5-0.2-1-0.6-1.3
		C1233.8,1320.4,1233,1320.1,1232.3,1319.9L1232.3,1319.9z M1239.8,1325h-1.4v-8.5h1.4V1325z M1238.2,1314.3c0-0.2,0.1-0.4,0.2-0.6
		c0.2-0.2,0.4-0.3,0.6-0.2c0.2,0,0.5,0.1,0.6,0.2c0.1,0.2,0.2,0.4,0.2,0.6c0,0.2-0.1,0.4-0.2,0.6c-0.2,0.2-0.4,0.3-0.6,0.2
		c-0.2,0-0.5-0.1-0.6-0.2C1238.3,1314.7,1238.2,1314.5,1238.2,1314.3z M1243.5,1316.5l0,1.1c0.6-0.8,1.5-1.2,2.5-1.2
		c1.8,0,2.7,1,2.7,3v5.6h-1.4v-5.6c0-0.5-0.1-1-0.4-1.4c-0.3-0.3-0.8-0.5-1.3-0.4c-0.4,0-0.9,0.1-1.2,0.4c-0.4,0.3-0.6,0.6-0.8,1v6
		h-1.4v-8.5L1243.5,1316.5z M1250.6,1320.7c-0.1-1.1,0.3-2.2,0.9-3.1c1.1-1.4,3.1-1.6,4.4-0.5c0.1,0.1,0.3,0.2,0.4,0.4l0.1-0.9h1.3
		v8.3c0.1,1-0.3,1.9-1,2.6c-0.7,0.7-1.7,1-2.6,0.9c-0.6,0-1.2-0.1-1.8-0.4c-0.5-0.2-1-0.6-1.3-1.1l0.8-0.9c0.5,0.7,1.4,1.1,2.3,1.1
		c0.6,0,1.2-0.2,1.6-0.6c0.4-0.5,0.6-1.1,0.6-1.7v-0.7c-0.6,0.7-1.5,1-2.4,1c-0.9,0-1.8-0.4-2.4-1.2
		C1250.8,1323,1250.5,1321.9,1250.6,1320.7z M1252,1320.9c0,0.8,0.2,1.6,0.6,2.2c0.4,0.5,1,0.8,1.6,0.8c0.9,0,1.7-0.5,2-1.2v-3.9
		c-0.4-0.8-1.1-1.2-2-1.2c-0.7,0-1.3,0.3-1.6,0.8C1252.2,1319.2,1252,1320,1252,1320.9L1252,1320.9z M1261.5,1325h-1.4v-12h1.4V1325
		z M1267.3,1325.2c-1.1,0-2.1-0.4-2.8-1.1c-0.7-0.8-1.1-1.9-1.1-3v-0.3c0-0.8,0.2-1.5,0.5-2.2c0.3-0.6,0.8-1.2,1.3-1.5
		c0.6-0.4,1.2-0.6,1.9-0.6c1-0.1,1.9,0.3,2.6,1.1c0.7,0.9,1,2,0.9,3.1v0.6h-5.7c0,0.7,0.2,1.5,0.7,2c0.5,0.5,1.1,0.8,1.8,0.8
		c0.5,0,0.9-0.1,1.3-0.3c0.4-0.2,0.7-0.5,0.9-0.8l0.9,0.7C1269.8,1324.6,1268.6,1325.2,1267.3,1325.2z M1267.1,1317.6
		c-0.6,0-1.1,0.2-1.5,0.6c-0.4,0.5-0.7,1.1-0.7,1.8h4.2v-0.1c0-0.6-0.2-1.2-0.6-1.7C1268.2,1317.8,1267.6,1317.6,1267.1,1317.6
		L1267.1,1317.6z M1274.2,1314.5v2h1.6v1.1h-1.6v5.2c0,0.3,0.1,0.5,0.2,0.8c0.2,0.2,0.5,0.3,0.7,0.3c0.2,0,0.5,0,0.7-0.1v1.2
		c-0.4,0.1-0.7,0.2-1.1,0.2c-0.6,0-1.1-0.2-1.5-0.6c-0.4-0.5-0.5-1.1-0.5-1.7v-5.2h-1.5v-1.1h1.5v-2H1274.2z M1276.9,1320.7
		c0-0.8,0.2-1.5,0.5-2.2c0.3-0.6,0.8-1.2,1.4-1.5c0.6-0.4,1.3-0.6,2-0.5c1.1,0,2.1,0.4,2.8,1.2c0.7,0.9,1.1,2,1.1,3.2v0.1
		c0,0.8-0.1,1.5-0.5,2.2c-0.3,0.6-0.8,1.2-1.4,1.5c-0.6,0.4-1.3,0.6-2,0.5c-1.1,0-2.1-0.4-2.8-1.2c-0.7-0.9-1.1-2-1.1-3.2
		L1276.9,1320.7z M1278.4,1320.9c0,0.8,0.2,1.6,0.7,2.3c0.7,1,2.1,1.1,3.1,0.4c0.1-0.1,0.3-0.3,0.4-0.4c0.5-0.7,0.7-1.6,0.6-2.4
		c0-0.8-0.2-1.6-0.7-2.3c-0.4-0.6-1.1-0.9-1.8-0.9c-0.7,0-1.3,0.3-1.7,0.9C1278.6,1319.2,1278.3,1320,1278.4,1320.9L1278.4,1320.9z
		 M1287.8,1316.6l0,1.1c0.6-0.8,1.5-1.2,2.5-1.2c1.8,0,2.7,1,2.7,3v5.6h-1.4v-5.6c0-0.5-0.1-1-0.4-1.4c-0.3-0.3-0.8-0.5-1.3-0.4
		c-0.4,0-0.9,0.1-1.2,0.4c-0.4,0.3-0.6,0.6-0.8,1v6h-1.4v-8.5L1287.8,1316.6z"/>
	<g id="Grupo_104469" transform="translate(1094.912 1283.9) rotate(90)" class="st5">
		<g id="Grupo_99295" transform="translate(0)">
			<path id="Polígono_36" class="st6" d="M6.6,0l6.6,11H0L6.6,0z"/>
			
				<rect id="Rectángulo_42834" x="-36.5" y="49.6" transform="matrix(2.535182e-06 1 -1 2.535182e-06 58.431 45.2309)" class="st6" width="86.2" height="4.4"/>
		</g>
	</g>
	<path id="Trazado_216266" class="st7" d="M1364,1319h24.6v-104.4H1230v17.2"/>
	<path id="Trazado_218569" class="st6" d="M1230,1235l-6.6-11h13.2L1230,1235z"/>
</g>
<g>
	<path class="st4" d="M151.4,29c0.2-0.9-0.3-1.5-1.3-2l-2.1-0.8c-2.4-1.1-3.5-2.6-3.4-4.4c0-0.9,0.3-1.6,0.9-2.3
		c0.5-0.7,1.3-1.2,2.2-1.6c0.9-0.4,2-0.6,3.1-0.6c1.5,0,2.7,0.5,3.7,1.3c0.9,0.9,1.4,2,1.4,3.5h-3.1c0-0.7-0.1-1.3-0.5-1.7
		c-0.3-0.4-0.9-0.6-1.6-0.6c-0.7,0-1.3,0.1-1.9,0.5c-0.5,0.3-0.8,0.8-0.9,1.4c-0.1,0.8,0.4,1.4,1.6,1.9l1.4,0.5l0.8,0.4
		c2.1,1,3.1,2.5,3,4.4c-0.1,0.9-0.4,1.7-0.9,2.4c-0.5,0.7-1.2,1.2-2.1,1.5c-0.9,0.4-1.9,0.5-3,0.5c-1.1,0-2.1-0.3-3-0.7
		c-0.9-0.4-1.5-1.1-2-1.9c-0.4-0.8-0.6-1.6-0.6-2.6l3.1,0c-0.1,1.7,0.7,2.6,2.5,2.6c0.8,0,1.4-0.2,1.9-0.5
		C151,30,151.3,29.6,151.4,29z"/>
	<path class="st4" d="M159,33.2h-3.1l2-11.6h3.1L159,33.2z M158.3,18.6c0-0.5,0.1-0.9,0.5-1.2c0.3-0.3,0.7-0.5,1.2-0.5
		c0.5,0,0.9,0.1,1.2,0.4c0.3,0.3,0.5,0.7,0.5,1.1c0,0.4-0.1,0.8-0.4,1.2c-0.3,0.3-0.7,0.5-1.2,0.5c-0.5,0-0.8-0.1-1.2-0.4
		C158.5,19.5,158.3,19.1,158.3,18.6z"/>
	<path class="st4" d="M166.3,21.6l-0.3,1.4c0.9-1.1,2.1-1.6,3.4-1.6c1.1,0,1.9,0.4,2.4,1.2c0.5,0.8,0.7,1.9,0.6,3.2l-1.2,7.4h-3
		l1.2-7.4c0-0.3,0-0.5,0-0.8c-0.1-0.7-0.6-1.1-1.4-1.1c-0.8,0-1.5,0.3-2.1,1.1l-1.5,8.2h-3l2-11.6L166.3,21.6z"/>
	<path class="st4" d="M174.2,27.4c0.2-1.8,0.8-3.3,1.8-4.4c1-1.1,2.2-1.7,3.6-1.6c1.2,0,2.2,0.5,2.8,1.3l0.4-1.1l2.8,0l-1.9,11.2
		c-0.2,1.5-0.9,2.8-2,3.7c-1.1,0.9-2.5,1.3-4.1,1.3c-0.8,0-1.6-0.2-2.3-0.5s-1.3-0.8-1.8-1.4l1.5-1.8c0.7,0.9,1.5,1.3,2.5,1.3
		c0.8,0,1.5-0.2,2-0.6s0.9-1.1,1.1-1.9l0.2-0.7c-0.8,0.8-1.8,1.3-2.8,1.2c-1.1,0-2-0.4-2.7-1.3s-1-1.9-1.1-3.2
		C174.1,28.5,174.1,28,174.2,27.4z M177.2,28.7c0,0.7,0.1,1.2,0.4,1.6c0.3,0.4,0.7,0.6,1.2,0.6c0.8,0,1.6-0.3,2.2-1.1l0.9-4.9
		c-0.3-0.7-0.9-1-1.7-1.1c-0.8,0-1.4,0.3-2,0.9s-0.9,1.5-1,2.6C177.2,27.9,177.2,28.3,177.2,28.7z"/>
	<path class="st4" d="M189.1,33.2h-3.1l2.9-16.5h3L189.1,33.2z"/>
	<path class="st4" d="M197.2,33.4c-1,0-1.9-0.3-2.7-0.7c-0.8-0.5-1.4-1.2-1.8-2c-0.4-0.9-0.5-1.8-0.5-2.8l0-0.4
		c0.1-1.1,0.4-2.2,1-3.1c0.6-0.9,1.3-1.7,2.1-2.2c0.9-0.5,1.8-0.8,2.9-0.7c1.5,0,2.6,0.6,3.4,1.7c0.8,1.1,1.1,2.4,0.9,4.1l-0.2,1.3
		h-7.1c0,0.8,0.2,1.4,0.5,1.8c0.4,0.5,0.9,0.7,1.6,0.7c1.1,0,2.1-0.4,2.9-1.3l1.4,1.7c-0.4,0.7-1.1,1.2-1.9,1.5
		C199,33.3,198.1,33.4,197.2,33.4z M198.2,23.9c-0.6,0-1.1,0.2-1.5,0.5c-0.4,0.4-0.8,1-1.2,1.9h4.2l0.1-0.3c0-0.3,0-0.6,0-0.8
		c-0.1-0.4-0.2-0.7-0.5-1C198.9,24,198.6,23.9,198.2,23.9z"/>
	<path class="st4" d="M209.5,18.7l-0.5,2.9h1.9l-0.4,2.3h-1.9l-1,5.8c0,0.4,0,0.6,0.1,0.8c0.1,0.2,0.3,0.3,0.7,0.3
		c0.1,0,0.4,0,0.9-0.1l-0.2,2.4c-0.5,0.2-1.1,0.3-1.7,0.2c-1,0-1.7-0.3-2.2-0.9c-0.5-0.6-0.7-1.4-0.6-2.5l1-6.1h-1.6l0.4-2.3h1.6
		l0.5-2.9H209.5z"/>
	<path class="st4" d="M217,21.4c1,0,1.9,0.3,2.6,0.8c0.7,0.5,1.3,1.2,1.6,2.1c0.3,0.9,0.5,1.9,0.4,3c-0.2,1.8-0.8,3.3-1.9,4.5
		c-1.1,1.1-2.5,1.7-4.2,1.7c-1,0-1.9-0.3-2.6-0.8c-0.7-0.5-1.3-1.2-1.6-2.1c-0.4-0.9-0.5-1.9-0.4-3c0.2-1.9,0.8-3.4,2-4.6
		C214,21.9,215.3,21.3,217,21.4z M213.9,28.7c0,0.7,0.2,1.2,0.5,1.6c0.3,0.4,0.7,0.6,1.3,0.6c0.9,0,1.7-0.4,2.2-1.3
		c0.5-0.9,0.8-2,0.7-3.5c0-0.7-0.2-1.2-0.5-1.6c-0.3-0.4-0.7-0.6-1.3-0.6c-0.9,0-1.6,0.4-2.2,1.3C214.1,26,213.9,27.2,213.9,28.7z"
		/>
	<path class="st4" d="M227.3,21.6L227,23c0.9-1.1,2.1-1.6,3.4-1.6c1.1,0,1.9,0.4,2.4,1.2c0.5,0.8,0.7,1.9,0.6,3.2l-1.2,7.4h-3
		l1.2-7.4c0-0.3,0-0.5,0-0.8c-0.1-0.7-0.6-1.1-1.4-1.1c-0.8,0-1.5,0.3-2.1,1.1l-1.5,8.2h-3l2-11.6L227.3,21.6z"/>
	<path class="st4" d="M251.1,27.4c-0.2,1.2-0.5,2.3-1,3.2c-0.5,0.9-1.1,1.6-1.8,2.1c-0.7,0.5-1.5,0.7-2.4,0.7c-1.1,0-2-0.4-2.7-1.3
		l-1.1,5.5h-3l2.8-16.1l2.8,0l-0.2,1.2c0.8-0.9,1.8-1.4,3-1.4c1.1,0,2,0.4,2.7,1.2c0.6,0.8,1,1.9,1,3.2
		C251.2,26.3,251.2,26.8,251.1,27.4z M248.1,27.2l0.1-1c0-0.7-0.1-1.2-0.4-1.7s-0.7-0.6-1.2-0.6c-0.9,0-1.6,0.3-2.2,1.1l-0.9,4.8
		c0.3,0.7,0.8,1.1,1.7,1.1c0.7,0,1.3-0.3,1.8-0.9C247.6,29.5,247.9,28.5,248.1,27.2z"/>
	<path class="st4" d="M258.8,33.2c-0.1-0.3-0.1-0.6-0.1-1.1c-0.9,0.9-1.9,1.3-3,1.3c-1,0-1.9-0.3-2.5-1c-0.7-0.6-1-1.4-0.9-2.4
		c0-1.3,0.6-2.2,1.6-2.9c1-0.7,2.4-1,4.1-1l1.4,0l0.2-0.7c0-0.2,0.1-0.5,0-0.7c0-0.3-0.2-0.6-0.4-0.8c-0.2-0.2-0.5-0.3-0.9-0.3
		c-0.5,0-0.9,0.1-1.2,0.3c-0.3,0.2-0.5,0.6-0.6,1.1l-3,0c0-1.1,0.6-2,1.5-2.7c1-0.7,2.2-1,3.6-1c1.3,0,2.3,0.4,3.1,1.2
		c0.7,0.8,1.1,1.7,0.9,2.9l-0.9,5.6l-0.1,0.7c0,0.5,0,0.9,0.2,1.3l0,0.2H258.8z M256.5,31.1c0.9,0,1.6-0.4,2.3-1.1l0.4-2l-1.1,0
		c-1.1,0-1.9,0.4-2.4,1c-0.2,0.2-0.3,0.5-0.3,0.9c-0.1,0.4,0,0.7,0.2,0.9C255.8,31,256.1,31.1,256.5,31.1z"/>
	<path class="st4" d="M269.8,18.7l-0.5,2.9h1.9l-0.4,2.3h-1.9l-1,5.8c0,0.4,0,0.6,0.1,0.8c0.1,0.2,0.3,0.3,0.7,0.3
		c0.1,0,0.4,0,0.9-0.1l-0.2,2.4c-0.5,0.2-1.1,0.3-1.7,0.2c-1,0-1.7-0.3-2.2-0.9c-0.5-0.6-0.7-1.4-0.6-2.5l1-6.1h-1.6l0.4-2.3h1.6
		l0.5-2.9H269.8z"/>
	<path class="st4" d="M277.1,18.7l-0.5,2.9h1.9l-0.4,2.3h-1.9l-1,5.8c0,0.4,0,0.6,0.1,0.8c0.1,0.2,0.3,0.3,0.7,0.3
		c0.1,0,0.4,0,0.9-0.1l-0.2,2.4c-0.5,0.2-1.1,0.3-1.7,0.2c-1,0-1.7-0.3-2.2-0.9c-0.5-0.6-0.7-1.4-0.6-2.5l1-6.1h-1.6l0.4-2.3h1.6
		l0.5-2.9H277.1z"/>
	<path class="st4" d="M283.8,33.4c-1,0-1.9-0.3-2.7-0.7c-0.8-0.5-1.4-1.2-1.8-2c-0.4-0.9-0.5-1.8-0.5-2.8l0-0.4
		c0.1-1.1,0.4-2.2,1-3.1c0.6-0.9,1.3-1.7,2.1-2.2c0.9-0.5,1.8-0.8,2.9-0.7c1.5,0,2.6,0.6,3.4,1.7c0.8,1.1,1.1,2.4,0.9,4.1l-0.2,1.3
		h-7.1c0,0.8,0.2,1.4,0.5,1.8c0.4,0.5,0.9,0.7,1.6,0.7c1.1,0,2.1-0.4,2.9-1.3l1.4,1.7c-0.4,0.7-1.1,1.2-1.9,1.5
		C285.6,33.3,284.7,33.4,283.8,33.4z M284.8,23.9c-0.6,0-1.1,0.2-1.5,0.5c-0.4,0.4-0.8,1-1.2,1.9h4.2l0.1-0.3c0-0.3,0-0.6,0-0.8
		c-0.1-0.4-0.2-0.7-0.5-1C285.5,24,285.2,23.9,284.8,23.9z"/>
	<path class="st4" d="M297.9,24.5c-0.4-0.1-0.8-0.1-1-0.1c-1.1,0-1.9,0.4-2.6,1.2l-1.3,7.6h-3l2-11.6l2.8,0l-0.3,1.4
		c0.7-1.1,1.6-1.6,2.7-1.6c0.3,0,0.7,0.1,1.1,0.2L297.9,24.5z"/>
	<path class="st4" d="M302.6,21.6l-0.3,1.4c0.9-1.1,2.1-1.6,3.4-1.6c1.1,0,1.9,0.4,2.4,1.2c0.5,0.8,0.7,1.9,0.6,3.2l-1.2,7.4h-3
		l1.2-7.4c0-0.3,0-0.5,0-0.8c-0.1-0.7-0.6-1.1-1.4-1.1c-0.8,0-1.5,0.3-2.1,1.1l-1.5,8.2h-3l2-11.6L302.6,21.6z"/>
	<path class="st4" d="M322.1,27.8h-5.9l0.4-2.5h5.9L322.1,27.8z"/>
	<path class="st4" d="M342,28c-0.1,1.1-0.5,2-1.1,2.9c-0.6,0.8-1.4,1.5-2.4,1.9s-2.1,0.7-3.2,0.6c-1,0-1.9-0.3-2.7-0.7
		c-0.8-0.5-1.4-1.1-1.8-2c-0.4-0.9-0.7-1.9-0.7-3c0-0.9,0-2,0.3-3.3c0.2-1.3,0.6-2.5,1.2-3.5c0.6-1,1.3-1.8,2.1-2.4
		c1.2-0.8,2.5-1.2,4-1.2c1.6,0,2.9,0.5,3.9,1.5c0.9,1,1.5,2.3,1.6,4l-3.1,0c0-1-0.2-1.7-0.6-2.2c-0.4-0.5-1-0.7-1.8-0.7
		c-1.1,0-2,0.3-2.6,1.1c-0.7,0.8-1.2,2-1.4,3.5c-0.2,1.5-0.3,2.6-0.3,3.4c0,0.9,0.2,1.6,0.6,2.1c0.4,0.4,0.9,0.7,1.6,0.7
		c1,0,1.7-0.2,2.3-0.7c0.6-0.5,1-1.2,1.1-2.1L342,28z"/>
	<path class="st4" d="M346.4,33.2h-3.1l2.9-16.5h3L346.4,33.2z"/>
	<path class="st4" d="M355.7,33.2c-0.1-0.3-0.1-0.6-0.1-1.1c-0.9,0.9-1.9,1.3-3,1.3c-1,0-1.9-0.3-2.5-1c-0.7-0.6-1-1.4-0.9-2.4
		c0-1.3,0.6-2.2,1.6-2.9c1-0.7,2.4-1,4.1-1l1.4,0l0.2-0.7c0-0.2,0.1-0.5,0-0.7c0-0.3-0.2-0.6-0.4-0.8c-0.2-0.2-0.5-0.3-0.9-0.3
		c-0.5,0-0.9,0.1-1.2,0.3s-0.5,0.6-0.6,1.1l-3,0c0-1.1,0.6-2,1.5-2.7c1-0.7,2.2-1,3.6-1c1.3,0,2.3,0.4,3.1,1.2
		c0.7,0.8,1.1,1.7,0.9,2.9l-0.9,5.6l-0.1,0.7c0,0.5,0,0.9,0.2,1.3l0,0.2H355.7z M353.3,31.1c0.9,0,1.6-0.4,2.3-1.1l0.4-2l-1.1,0
		c-1.1,0-1.9,0.4-2.4,1c-0.2,0.2-0.3,0.5-0.3,0.9c-0.1,0.4,0,0.7,0.2,0.9C352.7,31,353,31.1,353.3,31.1z"/>
	<path class="st4" d="M367.2,29.9c0.1-0.6-0.3-1-1.2-1.2l-1-0.2c-2.3-0.6-3.4-1.8-3.4-3.4c0-1.1,0.5-2,1.5-2.7c0.9-0.7,2.1-1,3.4-1
		c1.3,0,2.4,0.4,3.2,1c0.8,0.7,1.2,1.6,1.2,2.7l-3,0c0-1-0.5-1.5-1.5-1.5c-0.5,0-0.9,0.1-1.2,0.4c-0.3,0.2-0.6,0.6-0.6,1
		c-0.1,0.6,0.3,1,1.3,1.2l0.4,0.1c1,0.2,1.7,0.5,2.3,0.8c0.5,0.3,0.9,0.7,1.2,1.1c0.3,0.5,0.4,1,0.4,1.6c0,0.7-0.3,1.4-0.7,1.9
		c-0.5,0.6-1.1,1-1.9,1.3c-0.8,0.3-1.6,0.4-2.5,0.4c-1.3,0-2.4-0.4-3.2-1.1c-0.9-0.7-1.3-1.7-1.3-2.8l2.9,0c0,1.1,0.6,1.7,1.8,1.7
		c0.6,0,1-0.1,1.4-0.3C366.9,30.6,367.2,30.3,367.2,29.9z"/>
	<path class="st4" d="M378.3,29.9c0.1-0.6-0.3-1-1.2-1.2l-1-0.2c-2.3-0.6-3.4-1.8-3.4-3.4c0-1.1,0.5-2,1.5-2.7c0.9-0.7,2.1-1,3.4-1
		c1.3,0,2.4,0.4,3.2,1c0.8,0.7,1.2,1.6,1.2,2.7l-3,0c0-1-0.5-1.5-1.5-1.5c-0.5,0-0.9,0.1-1.2,0.4c-0.3,0.2-0.6,0.6-0.6,1
		c-0.1,0.6,0.3,1,1.3,1.2l0.4,0.1c1,0.2,1.7,0.5,2.3,0.8c0.5,0.3,0.9,0.7,1.2,1.1c0.3,0.5,0.4,1,0.4,1.6c0,0.7-0.3,1.4-0.7,1.9
		c-0.5,0.6-1.1,1-1.9,1.3c-0.8,0.3-1.6,0.4-2.5,0.4c-1.3,0-2.4-0.4-3.2-1.1c-0.9-0.7-1.3-1.7-1.3-2.8l2.9,0c0,1.1,0.6,1.7,1.8,1.7
		c0.6,0,1-0.1,1.4-0.3C378,30.6,378.2,30.3,378.3,29.9z"/>
	<path class="st4" d="M393.8,21.4c1.1,0,2,0.5,2.6,1.3l1.1-6h3l-2.9,16.5h-2.7l0.2-1.2c-0.9,1-1.9,1.5-3,1.5c-0.7,0-1.4-0.2-1.9-0.6
		s-1-0.9-1.3-1.6c-0.3-0.7-0.5-1.5-0.5-2.3c0-0.5,0-0.9,0-1.3l0.1-0.5c0.2-1.2,0.5-2.2,1-3.1c0.5-0.9,1.1-1.6,1.8-2
		C392.2,21.6,393,21.3,393.8,21.4z M391.6,27.6c-0.1,0.5-0.1,1-0.1,1.4c0.1,1.3,0.6,1.9,1.5,1.9c0.9,0,1.6-0.4,2.2-1.2l0.8-4.6
		c-0.3-0.8-0.8-1.2-1.7-1.2c-0.7,0-1.4,0.3-1.8,0.9C392.1,25.3,391.8,26.3,391.6,27.6z"/>
	<path class="st4" d="M403.4,33.2h-3.1l2-11.6h3.1L403.4,33.2z M402.7,18.6c0-0.5,0.1-0.9,0.5-1.2c0.3-0.3,0.7-0.5,1.2-0.5
		c0.5,0,0.9,0.1,1.2,0.4c0.3,0.3,0.5,0.7,0.5,1.1c0,0.4-0.1,0.8-0.4,1.2c-0.3,0.3-0.7,0.5-1.2,0.5c-0.5,0-0.8-0.1-1.2-0.4
		C402.9,19.5,402.7,19.1,402.7,18.6z"/>
	<path class="st4" d="M412.7,33.2c-0.1-0.3-0.1-0.6-0.1-1.1c-0.9,0.9-1.9,1.3-3,1.3c-1,0-1.9-0.3-2.5-1c-0.7-0.6-1-1.4-0.9-2.4
		c0-1.3,0.6-2.2,1.6-2.9c1-0.7,2.4-1,4.1-1l1.4,0l0.2-0.7c0-0.2,0.1-0.5,0-0.7c0-0.3-0.2-0.6-0.4-0.8c-0.2-0.2-0.5-0.3-0.9-0.3
		c-0.5,0-0.9,0.1-1.2,0.3s-0.5,0.6-0.6,1.1l-3,0c0-1.1,0.6-2,1.5-2.7c1-0.7,2.2-1,3.6-1c1.3,0,2.3,0.4,3.1,1.2
		c0.7,0.8,1.1,1.7,0.9,2.9l-0.9,5.6l-0.1,0.7c0,0.5,0,0.9,0.2,1.3l0,0.2H412.7z M410.4,31.1c0.9,0,1.6-0.4,2.3-1.1l0.4-2l-1.1,0
		c-1.1,0-1.9,0.4-2.4,1c-0.2,0.2-0.3,0.5-0.3,0.9c-0.1,0.4,0,0.7,0.2,0.9C409.7,31,410,31.1,410.4,31.1z"/>
	<path class="st4" d="M418.1,27.4c0.2-1.8,0.8-3.3,1.8-4.4c1-1.1,2.2-1.7,3.6-1.6c1.2,0,2.2,0.5,2.8,1.3l0.4-1.1l2.8,0l-1.9,11.2
		c-0.2,1.5-0.9,2.8-2,3.7s-2.5,1.3-4.1,1.3c-0.8,0-1.6-0.2-2.3-0.5s-1.3-0.8-1.8-1.4l1.5-1.8c0.7,0.9,1.5,1.3,2.5,1.3
		c0.8,0,1.5-0.2,2-0.6s0.9-1.1,1.1-1.9l0.2-0.7c-0.8,0.8-1.8,1.3-2.8,1.2c-1.1,0-2-0.4-2.7-1.3s-1-1.9-1.1-3.2
		C418,28.5,418,28,418.1,27.4z M421.1,28.7c0,0.7,0.1,1.2,0.4,1.6c0.3,0.4,0.7,0.6,1.2,0.6c0.8,0,1.6-0.3,2.2-1.1l0.9-4.9
		c-0.3-0.7-0.9-1-1.7-1.1c-0.8,0-1.4,0.3-2,0.9s-0.9,1.5-1,2.6C421.1,27.9,421.1,28.3,421.1,28.7z"/>
	<path class="st4" d="M437.8,24.5c-0.4-0.1-0.8-0.1-1-0.1c-1.1,0-1.9,0.4-2.6,1.2l-1.3,7.6h-3l2-11.6l2.8,0l-0.3,1.4
		c0.7-1.1,1.6-1.6,2.7-1.6c0.3,0,0.7,0.1,1.1,0.2L437.8,24.5z"/>
	<path class="st4" d="M444.1,33.2c-0.1-0.3-0.1-0.6-0.1-1.1c-0.9,0.9-1.9,1.3-3,1.3c-1,0-1.9-0.3-2.5-1c-0.7-0.6-1-1.4-0.9-2.4
		c0-1.3,0.6-2.2,1.6-2.9c1-0.7,2.4-1,4.1-1l1.4,0l0.2-0.7c0-0.2,0.1-0.5,0-0.7c0-0.3-0.2-0.6-0.4-0.8c-0.2-0.2-0.5-0.3-0.9-0.3
		c-0.5,0-0.9,0.1-1.2,0.3s-0.5,0.6-0.6,1.1l-3,0c0-1.1,0.6-2,1.5-2.7c1-0.7,2.2-1,3.6-1c1.3,0,2.3,0.4,3.1,1.2
		c0.7,0.8,1.1,1.7,0.9,2.9L447,31l-0.1,0.7c0,0.5,0,0.9,0.2,1.3l0,0.2H444.1z M441.8,31.1c0.9,0,1.6-0.4,2.3-1.1l0.4-2l-1.1,0
		c-1.1,0-1.9,0.4-2.4,1c-0.2,0.2-0.3,0.5-0.3,0.9c-0.1,0.4,0,0.7,0.2,0.9C441.1,31,441.4,31.1,441.8,31.1z"/>
	<path class="st4" d="M453.8,21.6l-0.2,1.3c0.9-1,2.1-1.6,3.4-1.5c0.7,0,1.3,0.2,1.8,0.5c0.5,0.3,0.8,0.7,1,1.3
		c1-1.2,2.2-1.8,3.6-1.8c1.1,0,1.9,0.4,2.4,1.1c0.5,0.7,0.8,1.7,0.7,3.1l0,0.3l-1.2,7.4h-3l1.2-7.4c0-0.3,0-0.5,0-0.7
		c0-0.8-0.5-1.1-1.3-1.2c-0.8,0-1.5,0.4-2.1,1.3l0,0.2l-1.4,7.8h-3l1.2-7.4c0-0.3,0-0.5,0-0.7c0-0.8-0.5-1.1-1.3-1.2
		c-0.8,0-1.5,0.3-2.1,1.1l-1.5,8.2h-3l2-11.6L453.8,21.6z"/>
</g>
<g>
	<path class="st4" d="M484,57.6l0,1c0.6-0.8,1.4-1.1,2.4-1.1c1.7,0,2.5,0.9,2.5,2.8v5.2h-1.4v-5.2c0-0.6-0.1-1-0.4-1.3
		c-0.3-0.3-0.7-0.4-1.2-0.4c-0.4,0-0.8,0.1-1.2,0.4s-0.6,0.5-0.8,0.9v5.6h-1.4v-7.9H484z"/>
	<path class="st4" d="M494.2,65.6c-1.1,0-1.9-0.4-2.6-1.1c-0.7-0.7-1-1.6-1-2.8v-0.2c0-0.8,0.1-1.5,0.5-2.1c0.3-0.6,0.7-1.1,1.3-1.5
		c0.5-0.3,1.1-0.5,1.8-0.5c1,0,1.8,0.3,2.4,1s0.9,1.7,0.9,2.9v0.6H492c0,0.8,0.2,1.4,0.7,1.9c0.4,0.5,1,0.7,1.7,0.7
		c0.5,0,0.9-0.1,1.2-0.3c0.3-0.2,0.6-0.5,0.9-0.8l0.8,0.6C496.6,65.1,495.6,65.6,494.2,65.6z M494.1,58.5c-0.5,0-1,0.2-1.4,0.6
		c-0.4,0.4-0.6,1-0.7,1.7h4v-0.1c0-0.7-0.2-1.2-0.6-1.6C495.1,58.7,494.6,58.5,494.1,58.5z"/>
	<path class="st4" d="M505.9,63.6l1.5-6.1h1.4l-2.3,7.9h-1.1l-1.9-6l-1.9,6h-1.1l-2.3-7.9h1.3l1.6,5.9l1.8-5.9h1.1L505.9,63.6z"/>
</g>
</svg>
