<?xml version="1.0" encoding="utf-8"?>
<!-- Generator: Adobe Illustrator 25.4.2, SVG Export Plug-In . SVG Version: 6.00 Build 0)  -->
<svg version="1.1" id="Capa_1" xmlns="http://www.w3.org/2000/svg" xmlns:xlink="http://www.w3.org/1999/xlink" x="0px" y="0px"
	 viewBox="0 0 606 410.5" style="enable-background:new 0 0 606 410.5;" xml:space="preserve">
<style type="text/css">
	.st0{fill:#039BE5;}
	.st1{fill:none;stroke:#FFFFFF;stroke-width:2;}
	.st2{fill:#4DD0E1;}
	.st3{enable-background:new    ;}
	.st4{fill:#FFFFFF;}
	.st5{fill:#12263F;}
	.st6{fill:#FFCA28;}
	.st7{fill:#FFA726;}
	.st8{fill:none;stroke:#707070;stroke-width:2;stroke-dasharray:2;}
	.st9{fill:url(#Unión_30_00000062893374285776129070000005634156829441394309_);}
	.st10{fill:url(#Unión_31_00000152222188550078404390000000954327425883689138_);}
	.st11{fill:url(#Unión_32_00000132792972660918341360000014862456557569821064_);}
	.st12{fill:#FFD24A;}
	.st13{fill:none;stroke:#FFCA28;stroke-width:4;}
	.st14{fill:none;stroke:#707070;}
	.st15{fill:none;stroke:#00CBD1;stroke-width:4;}
	.st16{fill:#00CBD1;}
	.st17{fill:none;stroke:#FFA726;stroke-width:4;}
</style>
<g id="Rectángulo_42832" transform="translate(882 9062)">
	<path class="st0" d="M-497-9005.5h214c3.9,0,7,3.1,7,7v33c0,3.9-3.1,7-7,7h-214c-3.9,0-7-3.1-7-7v-33
		C-504-9002.4-500.9-9005.5-497-9005.5z"/>
	<path class="st1" d="M-497-9004.5h214c3.3,0,6,2.7,6,6v33c0,3.3-2.7,6-6,6h-214c-3.3,0-6-2.7-6-6v-33
		C-503-9001.8-500.3-9004.5-497-9004.5z"/>
</g>
<g id="Rectángulo_42837" transform="translate(535 9156)">
	<path class="st2" d="M-497-9005.5h198c3.9,0,7,3.1,7,7v46c0,3.9-3.1,7-7,7h-198c-3.9,0-7-3.1-7-7v-46
		C-504-9002.4-500.9-9005.5-497-9005.5z"/>
	<path class="st1" d="M-497-9004.5h198c3.3,0,6,2.7,6,6v46c0,3.3-2.7,6-6,6h-198c-3.3,0-6-2.7-6-6v-46
		C-503-9001.8-500.3-9004.5-497-9004.5z"/>
</g>
<g id="Rectángulo_42842" transform="translate(535 9295)">
	<path class="st2" d="M-497-9005.5h198c3.9,0,7,3.1,7,7v46c0,3.9-3.1,7-7,7h-198c-3.9,0-7-3.1-7-7v-46
		C-504-9002.4-500.9-9005.5-497-9005.5z"/>
	<path class="st1" d="M-497-9004.5h198c3.3,0,6,2.7,6,6v46c0,3.3-2.7,6-6,6h-198c-3.3,0-6-2.7-6-6v-46
		C-503-9001.8-500.3-9004.5-497-9004.5z"/>
</g>
<g id="Rectángulo_42833" transform="translate(882 9157)">
	<path class="st0" d="M-497-9005.5h214c3.9,0,7,3.1,7,7v33c0,3.9-3.1,7-7,7h-214c-3.9,0-7-3.1-7-7v-33
		C-504-9002.4-500.9-9005.5-497-9005.5z"/>
	<path class="st1" d="M-497-9004.5h214c3.3,0,6,2.7,6,6v33c0,3.3-2.7,6-6,6h-214c-3.3,0-6-2.7-6-6v-33
		C-503-9001.8-500.3-9004.5-497-9004.5z"/>
</g>
<g id="Rectángulo_42836" transform="translate(882 9252)">
	<path class="st0" d="M-497-9005.5h214c3.9,0,7,3.1,7,7v33c0,3.9-3.1,7-7,7h-214c-3.9,0-7-3.1-7-7v-33
		C-504-9002.4-500.9-9005.5-497-9005.5z"/>
	<path class="st1" d="M-497-9004.5h214c3.3,0,6,2.7,6,6v33c0,3.3-2.7,6-6,6h-214c-3.3,0-6-2.7-6-6v-33
		C-503-9001.8-500.3-9004.5-497-9004.5z"/>
</g>
<g id="Rectángulo_42843" transform="translate(882 9347)">
	<path class="st0" d="M-497-9005.5h214c3.9,0,7,3.1,7,7v33c0,3.9-3.1,7-7,7h-214c-3.9,0-7-3.1-7-7v-33
		C-504-9002.4-500.9-9005.5-497-9005.5z"/>
	<path class="st1" d="M-497-9004.5h214c3.3,0,6,2.7,6,6v33c0,3.3-2.7,6-6,6h-214c-3.3,0-6-2.7-6-6v-33
		C-503-9001.8-500.3-9004.5-497-9004.5z"/>
</g>
<g class="st3">
	<path class="st4" d="M444.5,85.2h-4.1l-0.8,2.3h-2.5l4.2-11.4h2.2l4.3,11.4h-2.5L444.5,85.2z M441,83.3h2.8l-1.4-4.3L441,83.3z"/>
	<path class="st4" d="M452.2,85.8c0.4,0,0.8-0.1,1-0.3c0.3-0.2,0.4-0.5,0.4-0.9h2.1c0,0.6-0.2,1.1-0.5,1.6s-0.7,0.8-1.3,1.1
		c-0.5,0.3-1.1,0.4-1.8,0.4c-1.2,0-2.2-0.4-2.9-1.2c-0.7-0.8-1-1.8-1-3.2v-0.1c0-1.3,0.3-2.3,1-3.1c0.7-0.8,1.6-1.2,2.9-1.2
		c1.1,0,1.9,0.3,2.5,0.9s1,1.4,1,2.4h-2.1c0-0.4-0.1-0.8-0.4-1.1c-0.3-0.3-0.6-0.4-1-0.4c-0.5,0-0.9,0.2-1.2,0.6
		c-0.3,0.4-0.4,1-0.4,1.9v0.2c0,0.9,0.1,1.5,0.4,1.9S451.6,85.8,452.2,85.8z"/>
	<path class="st4" d="M460.5,85.8c0.4,0,0.8-0.1,1-0.3c0.3-0.2,0.4-0.5,0.4-0.9h2.1c0,0.6-0.2,1.1-0.5,1.6s-0.7,0.8-1.3,1.1
		c-0.5,0.3-1.1,0.4-1.8,0.4c-1.2,0-2.2-0.4-2.9-1.2c-0.7-0.8-1-1.8-1-3.2v-0.1c0-1.3,0.3-2.3,1-3.1c0.7-0.8,1.6-1.2,2.9-1.2
		c1.1,0,1.9,0.3,2.5,0.9s1,1.4,1,2.4h-2.1c0-0.4-0.1-0.8-0.4-1.1c-0.3-0.3-0.6-0.4-1-0.4c-0.5,0-0.9,0.2-1.2,0.6
		c-0.3,0.4-0.4,1-0.4,1.9v0.2c0,0.9,0.1,1.5,0.4,1.9S460,85.8,460.5,85.8z"/>
	<path class="st4" d="M469.2,87.7c-1.2,0-2.2-0.4-3-1.1c-0.8-0.8-1.2-1.8-1.2-3v-0.2c0-0.8,0.2-1.6,0.5-2.3s0.8-1.2,1.4-1.5
		s1.3-0.5,2.1-0.5c1.2,0,2.1,0.4,2.7,1.1s1,1.8,1,3.1v0.9h-5.4c0.1,0.6,0.3,1,0.7,1.3s0.8,0.5,1.4,0.5c0.9,0,1.5-0.3,2-0.9l1.1,1.2
		c-0.3,0.5-0.8,0.9-1.4,1.1S469.9,87.7,469.2,87.7z M469,80.7c-0.4,0-0.8,0.2-1.1,0.5c-0.3,0.3-0.5,0.7-0.5,1.3h3.1v-0.2
		c0-0.5-0.1-0.9-0.4-1.2C469.8,80.8,469.5,80.7,469,80.7z"/>
	<path class="st4" d="M478.6,85.2c0-0.3-0.1-0.5-0.4-0.7s-0.7-0.3-1.3-0.4c-2-0.4-3-1.3-3-2.6c0-0.8,0.3-1.4,0.9-1.9
		s1.4-0.8,2.4-0.8c1.1,0,1.9,0.3,2.6,0.8c0.6,0.5,1,1.2,1,2h-2.3c0-0.3-0.1-0.6-0.3-0.8c-0.2-0.2-0.5-0.3-1-0.3
		c-0.4,0-0.7,0.1-0.9,0.3c-0.2,0.2-0.3,0.4-0.3,0.7c0,0.2,0.1,0.5,0.4,0.6c0.2,0.2,0.6,0.3,1.2,0.4s1,0.2,1.4,0.4
		c1.2,0.4,1.8,1.2,1.8,2.3c0,0.8-0.3,1.4-1,1.9s-1.5,0.7-2.6,0.7c-0.7,0-1.3-0.1-1.9-0.4c-0.5-0.3-1-0.6-1.3-1s-0.5-0.9-0.5-1.4h2.1
		c0,0.4,0.2,0.7,0.4,0.9c0.3,0.2,0.6,0.3,1.1,0.3c0.4,0,0.8-0.1,1-0.2C478.5,85.6,478.6,85.4,478.6,85.2z"/>
	<path class="st4" d="M481.9,83.2c0-0.8,0.2-1.6,0.5-2.2c0.3-0.7,0.8-1.2,1.4-1.5c0.6-0.4,1.3-0.5,2.1-0.5c1.1,0,2.1,0.3,2.8,1
		c0.7,0.7,1.1,1.6,1.2,2.8v0.6c0,1.3-0.4,2.3-1.1,3.1c-0.7,0.8-1.7,1.2-2.9,1.2s-2.2-0.4-2.9-1.2s-1.1-1.8-1.1-3.2V83.2z
		 M484.1,83.4c0,0.8,0.2,1.4,0.5,1.8s0.7,0.6,1.3,0.6c0.5,0,1-0.2,1.3-0.6s0.5-1.1,0.5-2c0-0.8-0.2-1.4-0.5-1.8s-0.7-0.6-1.3-0.6
		c-0.6,0-1,0.2-1.3,0.6C484.3,81.8,484.1,82.5,484.1,83.4z"/>
	<path class="st4" d="M500.1,87.5c-0.1-0.2-0.2-0.5-0.2-0.8c-0.5,0.6-1.3,0.9-2.1,0.9c-0.8,0-1.5-0.2-2.1-0.7
		c-0.5-0.5-0.8-1.1-0.8-1.8c0-0.9,0.3-1.6,1-2.1s1.6-0.7,2.9-0.7h1v-0.5c0-0.4-0.1-0.7-0.3-0.9c-0.2-0.2-0.5-0.4-0.9-0.4
		s-0.7,0.1-0.9,0.3c-0.2,0.2-0.3,0.4-0.3,0.8h-2.3c0-0.5,0.2-0.9,0.5-1.4c0.3-0.4,0.7-0.7,1.3-1c0.6-0.2,1.2-0.4,1.9-0.4
		c1,0,1.9,0.3,2.5,0.8s0.9,1.3,0.9,2.2v3.7c0,0.8,0.1,1.4,0.3,1.8v0.2H500.1z M498.3,85.9c0.3,0,0.6-0.1,0.9-0.2s0.5-0.3,0.6-0.6
		v-1.5H499c-1.1,0-1.7,0.4-1.8,1.2v0.1c0,0.3,0.1,0.5,0.3,0.7C497.7,85.8,497.9,85.9,498.3,85.9z"/>
	<path class="st4" d="M507.5,83.2c0-1.3,0.3-2.4,0.9-3.1c0.6-0.8,1.4-1.2,2.4-1.2c0.8,0,1.5,0.3,2,0.9v-4.3h2.3v12h-2l-0.1-0.9
		c-0.6,0.7-1.3,1.1-2.2,1.1c-1,0-1.8-0.4-2.4-1.2S507.5,84.6,507.5,83.2z M509.7,83.4c0,0.8,0.1,1.4,0.4,1.8s0.7,0.6,1.2,0.6
		c0.7,0,1.2-0.3,1.5-0.9v-3.3c-0.3-0.6-0.8-0.9-1.5-0.9C510.3,80.7,509.7,81.6,509.7,83.4z"/>
	<path class="st4" d="M521.7,87.5c-0.1-0.2-0.2-0.5-0.2-0.8c-0.5,0.6-1.3,0.9-2.1,0.9s-1.5-0.2-2.1-0.7c-0.5-0.5-0.8-1.1-0.8-1.8
		c0-0.9,0.3-1.6,1-2.1s1.6-0.7,2.9-0.7h1v-0.5c0-0.4-0.1-0.7-0.3-0.9c-0.2-0.2-0.5-0.4-0.9-0.4s-0.7,0.1-0.9,0.3
		c-0.2,0.2-0.3,0.4-0.3,0.8h-2.3c0-0.5,0.2-0.9,0.5-1.4c0.3-0.4,0.7-0.7,1.3-1c0.6-0.2,1.2-0.4,1.9-0.4c1,0,1.9,0.3,2.5,0.8
		s0.9,1.3,0.9,2.2v3.7c0,0.8,0.1,1.4,0.3,1.8v0.2H521.7z M519.9,85.9c0.3,0,0.6-0.1,0.9-0.2s0.5-0.3,0.6-0.6v-1.5h-0.8
		c-1.1,0-1.7,0.4-1.8,1.2v0.1c0,0.3,0.1,0.5,0.3,0.7C519.2,85.8,519.5,85.9,519.9,85.9z"/>
	<path class="st4" d="M528.1,77v2.1h1.4v1.7h-1.4V85c0,0.3,0.1,0.5,0.2,0.7c0.1,0.1,0.3,0.2,0.7,0.2c0.2,0,0.5,0,0.7-0.1v1.7
		c-0.4,0.1-0.9,0.2-1.4,0.2c-1.6,0-2.4-0.8-2.4-2.4v-4.6h-1.2V79h1.2v-2.1L528.1,77L528.1,77z"/>
	<path class="st4" d="M530.2,83.2c0-0.8,0.2-1.6,0.5-2.2c0.3-0.7,0.8-1.2,1.4-1.5c0.6-0.4,1.3-0.5,2.1-0.5c1.1,0,2.1,0.3,2.8,1
		s1.1,1.6,1.2,2.8v0.6c0,1.3-0.4,2.3-1.1,3.1c-0.7,0.8-1.7,1.2-2.9,1.2s-2.2-0.4-2.9-1.2s-1.1-1.8-1.1-3.2V83.2z M532.5,83.4
		c0,0.8,0.2,1.4,0.5,1.8s0.7,0.6,1.3,0.6c0.5,0,1-0.2,1.3-0.6s0.5-1.1,0.5-2c0-0.8-0.2-1.4-0.5-1.8s-0.7-0.6-1.3-0.6s-1,0.2-1.3,0.6
		C532.6,81.8,532.5,82.5,532.5,83.4z"/>
	<path class="st4" d="M544.2,85.2c0-0.3-0.1-0.5-0.4-0.7s-0.7-0.3-1.3-0.4c-2-0.4-3-1.3-3-2.6c0-0.8,0.3-1.4,0.9-1.9
		c0.6-0.5,1.4-0.8,2.4-0.8c1.1,0,1.9,0.3,2.6,0.8c0.6,0.5,1,1.2,1,2h-2.3c0-0.3-0.1-0.6-0.3-0.8c-0.2-0.2-0.5-0.3-1-0.3
		c-0.4,0-0.7,0.1-0.9,0.3c-0.2,0.2-0.3,0.4-0.3,0.7c0,0.2,0.1,0.5,0.4,0.6c0.2,0.2,0.6,0.3,1.2,0.4s1,0.2,1.4,0.4
		c1.2,0.4,1.8,1.2,1.8,2.3c0,0.8-0.3,1.4-1,1.9s-1.5,0.7-2.6,0.7c-0.7,0-1.3-0.1-1.9-0.4c-0.5-0.3-1-0.6-1.3-1s-0.5-0.9-0.5-1.4h2.1
		c0,0.4,0.2,0.7,0.4,0.9c0.3,0.2,0.6,0.3,1.1,0.3c0.4,0,0.8-0.1,1-0.2C544.1,85.6,544.2,85.4,544.2,85.2z"/>
</g>
<g class="st3">
	<path class="st5" d="M113.3,173.5v4H111v-11.4h4.4c0.9,0,1.6,0.2,2.3,0.5s1.1,0.8,1.5,1.3c0.3,0.6,0.5,1.2,0.5,2
		c0,1.1-0.4,2-1.1,2.6c-0.8,0.6-1.8,1-3.2,1L113.3,173.5L113.3,173.5z M113.3,171.6h2.1c0.6,0,1.1-0.1,1.4-0.4
		c0.3-0.3,0.5-0.7,0.5-1.2c0-0.6-0.2-1-0.5-1.4s-0.8-0.5-1.4-0.5h-2.1V171.6z"/>
	<path class="st5" d="M120.6,173.2c0-0.8,0.2-1.6,0.5-2.2c0.3-0.7,0.8-1.2,1.4-1.5c0.6-0.4,1.3-0.5,2.1-0.5c1.1,0,2.1,0.3,2.8,1
		s1.1,1.6,1.2,2.8v0.6c0,1.3-0.4,2.3-1.1,3.1c-0.7,0.8-1.7,1.2-2.9,1.2s-2.2-0.4-2.9-1.2s-1.1-1.8-1.1-3.2
		C120.6,173.3,120.6,173.2,120.6,173.2z M122.9,173.4c0,0.8,0.2,1.4,0.5,1.8c0.3,0.4,0.7,0.6,1.3,0.6c0.5,0,1-0.2,1.3-0.6
		c0.3-0.4,0.5-1.1,0.5-2c0-0.8-0.2-1.4-0.5-1.8c-0.3-0.4-0.7-0.6-1.3-0.6c-0.6,0-1,0.2-1.3,0.6C123,171.8,122.9,172.5,122.9,173.4z"
		/>
	<path class="st5" d="M129.7,173.2c0-0.8,0.2-1.6,0.5-2.2c0.3-0.7,0.8-1.2,1.4-1.5c0.6-0.4,1.3-0.5,2.1-0.5c1.1,0,2.1,0.3,2.8,1
		s1.1,1.6,1.2,2.8v0.6c0,1.3-0.4,2.3-1.1,3.1c-0.7,0.8-1.7,1.2-2.9,1.2s-2.2-0.4-2.9-1.2s-1.1-1.8-1.1-3.2V173.2z M131.9,173.4
		c0,0.8,0.2,1.4,0.5,1.8c0.3,0.4,0.7,0.6,1.3,0.6c0.5,0,1-0.2,1.3-0.6c0.3-0.4,0.5-1.1,0.5-2c0-0.8-0.2-1.4-0.5-1.8
		c-0.3-0.4-0.7-0.6-1.3-0.6s-1,0.2-1.3,0.6C132.1,171.8,131.9,172.5,131.9,173.4z"/>
	<path class="st5" d="M141.5,177.5h-2.3v-12h2.3V177.5z"/>
	<path class="st5" d="M147,173.2c0-1.3,0.3-2.4,0.9-3.1c0.6-0.8,1.4-1.2,2.4-1.2c0.8,0,1.5,0.3,2,0.9v-4.3h2.3v12h-2l-0.1-0.9
		c-0.6,0.7-1.3,1.1-2.2,1.1c-1,0-1.8-0.4-2.4-1.2S147,174.6,147,173.2z M149.2,173.4c0,0.8,0.1,1.4,0.4,1.8c0.3,0.4,0.7,0.6,1.2,0.6
		c0.7,0,1.2-0.3,1.5-0.9v-3.3c-0.3-0.6-0.8-0.9-1.5-0.9C149.8,170.7,149.2,171.6,149.2,173.4z"/>
	<path class="st5" d="M160.2,177.7c-1.2,0-2.2-0.4-3-1.1c-0.8-0.8-1.2-1.8-1.2-3v-0.2c0-0.8,0.2-1.6,0.5-2.3s0.8-1.2,1.4-1.5
		s1.3-0.5,2.1-0.5c1.2,0,2.1,0.4,2.7,1.1s1,1.8,1,3.1v0.9h-5.4c0.1,0.6,0.3,1,0.7,1.3s0.8,0.5,1.4,0.5c0.9,0,1.5-0.3,2-0.9l1.1,1.2
		c-0.3,0.5-0.8,0.9-1.4,1.1S160.9,177.7,160.2,177.7z M160,170.7c-0.4,0-0.8,0.2-1.1,0.5s-0.5,0.7-0.5,1.3h3.1v-0.2
		c0-0.5-0.1-0.9-0.4-1.2C160.8,170.8,160.4,170.7,160,170.7z"/>
</g>
<g class="st3">
	<path class="st5" d="M100.2,197.8c0.4,0,0.8-0.1,1-0.3c0.3-0.2,0.4-0.5,0.4-0.9h2.1c0,0.6-0.2,1.1-0.5,1.6s-0.7,0.8-1.3,1.1
		c-0.5,0.3-1.1,0.4-1.8,0.4c-1.2,0-2.2-0.4-2.9-1.2c-0.7-0.8-1-1.8-1-3.2v-0.1c0-1.3,0.3-2.3,1-3.1s1.6-1.2,2.9-1.2
		c1.1,0,1.9,0.3,2.5,0.9c0.6,0.6,1,1.4,1,2.4h-2.1c0-0.4-0.1-0.8-0.4-1.1s-0.6-0.4-1-0.4c-0.5,0-0.9,0.2-1.2,0.6
		c-0.3,0.4-0.4,1-0.4,1.9v0.2c0,0.9,0.1,1.5,0.4,1.9S99.7,197.8,100.2,197.8z"/>
	<path class="st5" d="M104.7,195.2c0-0.8,0.2-1.6,0.5-2.2c0.3-0.7,0.8-1.2,1.4-1.5c0.6-0.4,1.3-0.5,2.1-0.5c1.1,0,2.1,0.3,2.8,1
		c0.7,0.7,1.1,1.6,1.2,2.8v0.6c0,1.3-0.4,2.3-1.1,3.1s-1.7,1.2-2.9,1.2s-2.2-0.4-2.9-1.2s-1.1-1.8-1.1-3.2V195.2z M107,195.4
		c0,0.8,0.2,1.4,0.5,1.8c0.3,0.4,0.7,0.6,1.3,0.6c0.5,0,1-0.2,1.3-0.6c0.3-0.4,0.5-1.1,0.5-2c0-0.8-0.2-1.4-0.5-1.8
		c-0.3-0.4-0.7-0.6-1.3-0.6c-0.6,0-1,0.2-1.3,0.6C107.1,193.8,107,194.5,107,195.4z"/>
	<path class="st5" d="M116.2,191l0.1,1c0.6-0.8,1.4-1.1,2.4-1.1c0.9,0,1.6,0.3,2,0.8s0.7,1.3,0.7,2.4v5.5h-2.3v-5.4
		c0-0.5-0.1-0.8-0.3-1c-0.2-0.2-0.6-0.3-1-0.3c-0.6,0-1.1,0.3-1.4,0.8v6h-2.3v-8.5h2.1V191z"/>
	<path class="st5" d="M127,199.7c-1.2,0-2.2-0.4-3-1.1c-0.8-0.8-1.2-1.8-1.2-3v-0.2c0-0.8,0.2-1.6,0.5-2.3s0.8-1.2,1.4-1.5
		s1.3-0.5,2.1-0.5c1.2,0,2.1,0.4,2.7,1.1s1,1.8,1,3.1v0.9h-5.4c0.1,0.6,0.3,1,0.7,1.3s0.8,0.5,1.4,0.5c0.9,0,1.5-0.3,2-0.9l1.1,1.2
		c-0.3,0.5-0.8,0.9-1.4,1.1S127.7,199.7,127,199.7z M126.7,192.7c-0.4,0-0.8,0.2-1.1,0.5c-0.3,0.3-0.5,0.7-0.5,1.3h3.1v-0.2
		c0-0.5-0.1-0.9-0.4-1.2C127.6,192.8,127.2,192.7,126.7,192.7z"/>
	<path class="st5" d="M135,193.6l1.4-2.5h2.4l-2.4,4.1l2.5,4.3h-2.4l-1.5-2.7l-1.5,2.7H131l2.5-4.3l-2.4-4.1h2.4L135,193.6z"/>
	<path class="st5" d="M139.9,188.9c0-0.3,0.1-0.6,0.3-0.8s0.5-0.3,0.9-0.3s0.7,0.1,0.9,0.3s0.3,0.5,0.3,0.8s-0.1,0.6-0.3,0.8
		s-0.5,0.3-0.9,0.3s-0.7-0.1-0.9-0.3S139.9,189.2,139.9,188.9z M142.3,199.5H140V191h2.3V199.5z"/>
	<path class="st5" d="M143.8,195.2c0-0.8,0.2-1.6,0.5-2.2c0.3-0.7,0.8-1.2,1.4-1.5c0.6-0.4,1.3-0.5,2.1-0.5c1.1,0,2.1,0.3,2.8,1
		s1.1,1.6,1.2,2.8v0.6c0,1.3-0.4,2.3-1.1,3.1c-0.7,0.8-1.7,1.2-2.9,1.2s-2.2-0.4-2.9-1.2s-1.1-1.8-1.1-3.2V195.2z M146,195.4
		c0,0.8,0.2,1.4,0.5,1.8c0.3,0.4,0.7,0.6,1.3,0.6c0.5,0,1-0.2,1.3-0.6c0.3-0.4,0.5-1.1,0.5-2c0-0.8-0.2-1.4-0.5-1.8
		c-0.3-0.4-0.7-0.6-1.3-0.6s-1,0.2-1.3,0.6S146,194.5,146,195.4z"/>
	<path class="st5" d="M155.2,191l0.1,1c0.6-0.8,1.4-1.1,2.4-1.1c0.9,0,1.6,0.3,2,0.8s0.7,1.3,0.7,2.4v5.5h-2.3v-5.4
		c0-0.5-0.1-0.8-0.3-1s-0.6-0.3-1-0.3c-0.6,0-1.1,0.3-1.4,0.8v6h-2.3v-8.5h2.1V191z"/>
	<path class="st5" d="M166,199.7c-1.2,0-2.2-0.4-3-1.1c-0.8-0.8-1.2-1.8-1.2-3v-0.2c0-0.8,0.2-1.6,0.5-2.3s0.8-1.2,1.4-1.5
		s1.3-0.5,2.1-0.5c1.2,0,2.1,0.4,2.7,1.1s1,1.8,1,3.1v0.9h-5.4c0.1,0.6,0.3,1,0.7,1.3s0.8,0.5,1.4,0.5c0.9,0,1.5-0.3,2-0.9l1.1,1.2
		c-0.3,0.5-0.8,0.9-1.4,1.1S166.7,199.7,166,199.7z M165.8,192.7c-0.4,0-0.8,0.2-1.1,0.5s-0.5,0.7-0.5,1.3h3.1v-0.2
		c0-0.5-0.1-0.9-0.4-1.2C166.6,192.8,166.2,192.7,165.8,192.7z"/>
	<path class="st5" d="M175.4,197.2c0-0.3-0.1-0.5-0.4-0.7s-0.7-0.3-1.3-0.4c-2-0.4-3-1.3-3-2.6c0-0.8,0.3-1.4,0.9-1.9
		c0.6-0.5,1.4-0.8,2.4-0.8c1.1,0,1.9,0.3,2.6,0.8c0.6,0.5,1,1.2,1,2h-2.3c0-0.3-0.1-0.6-0.3-0.8s-0.5-0.3-1-0.3
		c-0.4,0-0.7,0.1-0.9,0.3s-0.3,0.4-0.3,0.7c0,0.2,0.1,0.5,0.4,0.6c0.2,0.2,0.6,0.3,1.2,0.4s1,0.2,1.4,0.4c1.2,0.4,1.8,1.2,1.8,2.3
		c0,0.8-0.3,1.4-1,1.9s-1.5,0.7-2.6,0.7c-0.7,0-1.3-0.1-1.9-0.4c-0.5-0.3-1-0.6-1.3-1s-0.5-0.9-0.5-1.4h2.1c0,0.4,0.2,0.7,0.4,0.9
		c0.3,0.2,0.6,0.3,1.1,0.3c0.4,0,0.8-0.1,1-0.2C175.2,197.6,175.4,197.4,175.4,197.2z"/>
</g>
<g class="st3">
	<path class="st5" d="M112.3,315.1c-0.4,0.5-1,0.9-1.8,1.2c-0.8,0.3-1.6,0.4-2.6,0.4s-1.8-0.2-2.6-0.6s-1.3-1.1-1.7-1.9
		c-0.4-0.8-0.6-1.8-0.6-2.9v-0.8c0-1.1,0.2-2.1,0.6-2.9s0.9-1.5,1.7-1.9c0.7-0.4,1.6-0.7,2.5-0.7c1.3,0,2.4,0.3,3.2,1
		c0.8,0.6,1.2,1.6,1.4,2.8H110c-0.1-0.7-0.3-1.1-0.7-1.4c-0.4-0.3-0.8-0.5-1.5-0.5c-0.8,0-1.4,0.3-1.8,0.9s-0.6,1.5-0.6,2.7v0.7
		c0,1.2,0.2,2.1,0.7,2.7s1.1,0.9,2,0.9s1.5-0.2,1.9-0.6v-2h-2.1v-1.7h4.5L112.3,315.1L112.3,315.1z"/>
	<path class="st5" d="M117.9,316.7c-1.2,0-2.2-0.4-3-1.1c-0.8-0.8-1.2-1.8-1.2-3v-0.2c0-0.8,0.2-1.6,0.5-2.3s0.8-1.2,1.4-1.5
		s1.3-0.5,2.1-0.5c1.2,0,2.1,0.4,2.7,1.1s1,1.8,1,3.1v0.9H116c0.1,0.6,0.3,1,0.7,1.3s0.8,0.5,1.4,0.5c0.9,0,1.5-0.3,2-0.9l1.1,1.2
		c-0.3,0.5-0.8,0.9-1.4,1.1S118.6,316.7,117.9,316.7z M117.7,309.7c-0.4,0-0.8,0.2-1.1,0.5c-0.3,0.3-0.5,0.7-0.5,1.3h3.1v-0.2
		c0-0.5-0.1-0.9-0.4-1.2C118.5,309.8,118.1,309.7,117.7,309.7z"/>
	<path class="st5" d="M127.3,314.2c0-0.3-0.1-0.5-0.4-0.7s-0.7-0.3-1.3-0.4c-2-0.4-3-1.3-3-2.6c0-0.8,0.3-1.4,0.9-1.9
		s1.4-0.8,2.4-0.8c1.1,0,1.9,0.3,2.6,0.8c0.6,0.5,1,1.2,1,2h-2.3c0-0.3-0.1-0.6-0.3-0.8c-0.2-0.2-0.5-0.3-1-0.3
		c-0.4,0-0.7,0.1-0.9,0.3c-0.2,0.2-0.3,0.4-0.3,0.7c0,0.2,0.1,0.5,0.4,0.6c0.2,0.2,0.6,0.3,1.2,0.4s1,0.2,1.4,0.4
		c1.2,0.4,1.8,1.2,1.8,2.3c0,0.8-0.3,1.4-1,1.9s-1.5,0.7-2.6,0.7c-0.7,0-1.3-0.1-1.9-0.4c-0.5-0.3-1-0.6-1.3-1s-0.5-0.9-0.5-1.4h2.1
		c0,0.4,0.2,0.7,0.4,0.9c0.3,0.2,0.6,0.3,1.1,0.3c0.4,0,0.8-0.1,1-0.2C127.1,314.6,127.3,314.4,127.3,314.2z"/>
	<path class="st5" d="M133.6,306v2.1h1.4v1.7h-1.4v4.2c0,0.3,0.1,0.5,0.2,0.7c0.1,0.1,0.3,0.2,0.7,0.2c0.2,0,0.5,0,0.7-0.1v1.7
		c-0.4,0.1-0.9,0.2-1.4,0.2c-1.6,0-2.4-0.8-2.4-2.4v-4.6h-1.2V308h1.2v-2.1L133.6,306L133.6,306z"/>
	<path class="st5" d="M135.7,312.2c0-0.8,0.2-1.6,0.5-2.2c0.3-0.7,0.8-1.2,1.4-1.5c0.6-0.4,1.3-0.5,2.1-0.5c1.1,0,2.1,0.3,2.8,1
		s1.1,1.6,1.2,2.8v0.6c0,1.3-0.4,2.3-1.1,3.1c-0.7,0.8-1.7,1.2-2.9,1.2s-2.2-0.4-2.9-1.2S135.7,313.7,135.7,312.2L135.7,312.2z
		 M138,312.4c0,0.8,0.2,1.4,0.5,1.8s0.7,0.6,1.3,0.6c0.5,0,1-0.2,1.3-0.6s0.5-1.1,0.5-2c0-0.8-0.2-1.4-0.5-1.8s-0.7-0.6-1.3-0.6
		s-1,0.2-1.3,0.6C138.1,310.8,138,311.5,138,312.4z"/>
	<path class="st5" d="M149.9,310.2c-0.3,0-0.6-0.1-0.8-0.1c-0.9,0-1.4,0.3-1.7,0.9v5.5h-2.3V308h2.1l0.1,1c0.5-0.8,1.1-1.2,1.9-1.2
		c0.2,0,0.5,0,0.7,0.1V310.2z"/>
	<path class="st5" d="M154.6,312.2c0-1.3,0.3-2.4,0.9-3.1c0.6-0.8,1.4-1.2,2.4-1.2c0.8,0,1.5,0.3,2,0.9v-4.3h2.3v12h-2l-0.1-0.9
		c-0.6,0.7-1.3,1.1-2.2,1.1c-1,0-1.8-0.4-2.4-1.2S154.6,313.6,154.6,312.2z M156.8,312.4c0,0.8,0.1,1.4,0.4,1.8
		c0.3,0.4,0.7,0.6,1.2,0.6c0.7,0,1.2-0.3,1.5-0.9v-3.3c-0.3-0.6-0.8-0.9-1.5-0.9C157.4,309.7,156.8,310.6,156.8,312.4z"/>
	<path class="st5" d="M167.8,316.7c-1.2,0-2.2-0.4-3-1.1c-0.8-0.8-1.2-1.8-1.2-3v-0.2c0-0.8,0.2-1.6,0.5-2.3s0.8-1.2,1.4-1.5
		s1.3-0.5,2.1-0.5c1.2,0,2.1,0.4,2.7,1.1s1,1.8,1,3.1v0.9h-5.4c0.1,0.6,0.3,1,0.7,1.3s0.8,0.5,1.4,0.5c0.9,0,1.5-0.3,2-0.9l1.1,1.2
		c-0.3,0.5-0.8,0.9-1.4,1.1S168.6,316.7,167.8,316.7z M167.6,309.7c-0.4,0-0.8,0.2-1.1,0.5s-0.5,0.7-0.5,1.3h3.1v-0.2
		c0-0.5-0.1-0.9-0.4-1.2C168.4,309.8,168.1,309.7,167.6,309.7z"/>
</g>
<g class="st3">
	<path class="st5" d="M90,328v2.1h1.4v1.7H90v4.2c0,0.3,0.1,0.5,0.2,0.7c0.1,0.1,0.3,0.2,0.7,0.2c0.2,0,0.5,0,0.7-0.1v1.7
		c-0.4,0.1-0.9,0.2-1.4,0.2c-1.6,0-2.4-0.8-2.4-2.4v-4.6h-1.2V330h1.2v-2.1L90,328L90,328z"/>
	<path class="st5" d="M97.4,332.2c-0.3,0-0.6-0.1-0.8-0.1c-0.9,0-1.4,0.3-1.7,0.9v5.5h-2.3V330h2.1l0.1,1c0.5-0.8,1.1-1.2,1.9-1.2
		c0.2,0,0.5,0,0.7,0.1L97.4,332.2z"/>
	<path class="st5" d="M103.2,338.5c-0.1-0.2-0.2-0.5-0.2-0.8c-0.5,0.6-1.3,0.9-2.1,0.9c-0.8,0-1.5-0.2-2.1-0.7
		c-0.5-0.5-0.8-1.1-0.8-1.8c0-0.9,0.3-1.6,1-2.1s1.6-0.7,2.9-0.7h1v-0.5c0-0.4-0.1-0.7-0.3-0.9c-0.2-0.2-0.5-0.4-0.9-0.4
		s-0.7,0.1-0.9,0.3c-0.2,0.2-0.3,0.4-0.3,0.8h-2.3c0-0.5,0.2-0.9,0.5-1.4c0.3-0.4,0.7-0.7,1.3-1c0.6-0.2,1.2-0.4,1.9-0.4
		c1,0,1.9,0.3,2.5,0.8s0.9,1.3,0.9,2.2v3.7c0,0.8,0.1,1.4,0.3,1.8v0.1h-2.4V338.5z M101.3,336.9c0.3,0,0.6-0.1,0.9-0.2
		s0.5-0.3,0.6-0.6v-1.5H102c-1.1,0-1.7,0.4-1.8,1.2v0.1c0,0.3,0.1,0.5,0.3,0.7C100.7,336.8,101,336.9,101.3,336.9z"/>
	<path class="st5" d="M108.9,330l0.1,1c0.6-0.8,1.4-1.1,2.4-1.1c0.9,0,1.6,0.3,2,0.8s0.7,1.3,0.7,2.4v5.5h-2.3v-5.4
		c0-0.5-0.1-0.8-0.3-1c-0.2-0.2-0.6-0.3-1-0.3c-0.6,0-1.1,0.3-1.4,0.8v6h-2.3v-8.5h2.1V330z"/>
	<path class="st5" d="M120.4,336.2c0-0.3-0.1-0.5-0.4-0.7s-0.7-0.3-1.3-0.4c-2-0.4-3-1.3-3-2.6c0-0.8,0.3-1.4,0.9-1.9
		s1.4-0.8,2.4-0.8c1.1,0,1.9,0.3,2.6,0.8c0.6,0.5,1,1.2,1,2h-2.3c0-0.3-0.1-0.6-0.3-0.8c-0.2-0.2-0.5-0.3-1-0.3
		c-0.4,0-0.7,0.1-0.9,0.3c-0.2,0.2-0.3,0.4-0.3,0.7c0,0.2,0.1,0.5,0.4,0.6c0.2,0.2,0.6,0.3,1.2,0.4s1,0.2,1.4,0.4
		c1.2,0.4,1.8,1.2,1.8,2.3c0,0.8-0.3,1.4-1,1.9s-1.5,0.7-2.6,0.7c-0.7,0-1.3-0.1-1.9-0.4c-0.5-0.3-1-0.6-1.3-1s-0.5-0.9-0.5-1.4h2.1
		c0,0.4,0.2,0.7,0.4,0.9c0.3,0.2,0.6,0.3,1.1,0.3c0.4,0,0.8-0.1,1-0.2C120.3,336.6,120.4,336.4,120.4,336.2z"/>
	<path class="st5" d="M129,338.5c-0.1-0.2-0.2-0.5-0.2-0.8c-0.5,0.6-1.3,0.9-2.1,0.9c-0.8,0-1.5-0.2-2.1-0.7
		c-0.5-0.5-0.8-1.1-0.8-1.8c0-0.9,0.3-1.6,1-2.1s1.6-0.7,2.9-0.7h1v-0.5c0-0.4-0.1-0.7-0.3-0.9c-0.2-0.2-0.5-0.4-0.9-0.4
		s-0.7,0.1-0.9,0.3c-0.2,0.2-0.3,0.4-0.3,0.8H124c0-0.5,0.2-0.9,0.5-1.4c0.3-0.4,0.7-0.7,1.3-1c0.6-0.2,1.2-0.4,1.9-0.4
		c1,0,1.9,0.3,2.5,0.8s0.9,1.3,0.9,2.2v3.7c0,0.8,0.1,1.4,0.3,1.8v0.1H129V338.5z M127.1,336.9c0.3,0,0.6-0.1,0.9-0.2
		s0.5-0.3,0.6-0.6v-1.5h-0.8c-1.1,0-1.7,0.4-1.8,1.2v0.1c0,0.3,0.1,0.5,0.3,0.7C126.5,336.8,126.7,336.9,127.1,336.9z"/>
	<path class="st5" d="M136.2,336.8c0.4,0,0.8-0.1,1-0.3c0.3-0.2,0.4-0.5,0.4-0.9h2.1c0,0.6-0.2,1.1-0.5,1.6s-0.7,0.8-1.3,1.1
		c-0.5,0.3-1.1,0.4-1.8,0.4c-1.2,0-2.2-0.4-2.9-1.2c-0.7-0.8-1-1.8-1-3.2v-0.1c0-1.3,0.3-2.3,1-3.1c0.7-0.8,1.6-1.2,2.9-1.2
		c1.1,0,1.9,0.3,2.5,0.9s1,1.4,1,2.4h-2.1c0-0.4-0.1-0.8-0.4-1.1c-0.3-0.3-0.6-0.4-1-0.4c-0.5,0-0.9,0.2-1.2,0.6s-0.4,1-0.4,1.9v0.2
		c0,0.9,0.1,1.5,0.4,1.9S135.6,336.8,136.2,336.8z"/>
	<path class="st5" d="M144.5,336.8c0.4,0,0.8-0.1,1-0.3c0.3-0.2,0.4-0.5,0.4-0.9h2.1c0,0.6-0.2,1.1-0.5,1.6s-0.7,0.8-1.3,1.1
		c-0.5,0.3-1.1,0.4-1.8,0.4c-1.2,0-2.2-0.4-2.9-1.2c-0.7-0.8-1-1.8-1-3.2v-0.1c0-1.3,0.3-2.3,1-3.1c0.7-0.8,1.6-1.2,2.9-1.2
		c1.1,0,1.9,0.3,2.5,0.9s1,1.4,1,2.4h-2.1c0-0.4-0.1-0.8-0.4-1.1c-0.3-0.3-0.6-0.4-1-0.4c-0.5,0-0.9,0.2-1.2,0.6s-0.4,1-0.4,1.9v0.2
		c0,0.9,0.1,1.5,0.4,1.9S144,336.8,144.5,336.8z"/>
	<path class="st5" d="M149.3,327.9c0-0.3,0.1-0.6,0.3-0.8s0.5-0.3,0.9-0.3s0.7,0.1,0.9,0.3c0.2,0.2,0.3,0.5,0.3,0.8
		s-0.1,0.6-0.3,0.8c-0.2,0.2-0.5,0.3-0.9,0.3s-0.7-0.1-0.9-0.3C149.4,328.5,149.3,328.2,149.3,327.9z M151.7,338.5h-2.3V330h2.3
		V338.5z"/>
	<path class="st5" d="M153.2,334.2c0-0.8,0.2-1.6,0.5-2.2c0.3-0.7,0.8-1.2,1.4-1.5c0.6-0.4,1.3-0.5,2.1-0.5c1.1,0,2.1,0.3,2.8,1
		s1.1,1.6,1.2,2.8v0.6c0,1.3-0.4,2.3-1.1,3.1c-0.7,0.8-1.7,1.2-2.9,1.2s-2.2-0.4-2.9-1.2S153.2,335.7,153.2,334.2L153.2,334.2z
		 M155.5,334.4c0,0.8,0.2,1.4,0.5,1.8s0.7,0.6,1.3,0.6c0.5,0,1-0.2,1.3-0.6s0.5-1.1,0.5-2c0-0.8-0.2-1.4-0.5-1.8s-0.7-0.6-1.3-0.6
		s-1,0.2-1.3,0.6C155.6,332.8,155.5,333.5,155.5,334.4z"/>
	<path class="st5" d="M164.7,330l0.1,1c0.6-0.8,1.4-1.1,2.4-1.1c0.9,0,1.6,0.3,2,0.8s0.7,1.3,0.7,2.4v5.5h-2.3v-5.4
		c0-0.5-0.1-0.8-0.3-1s-0.6-0.3-1-0.3c-0.6,0-1.1,0.3-1.4,0.8v6h-2.3v-8.5h2.1V330z"/>
	<path class="st5" d="M175.5,338.7c-1.2,0-2.2-0.4-3-1.1c-0.8-0.8-1.2-1.8-1.2-3v-0.2c0-0.8,0.2-1.6,0.5-2.3s0.8-1.2,1.4-1.5
		s1.3-0.5,2.1-0.5c1.2,0,2.1,0.4,2.7,1.1s1,1.8,1,3.1v0.9h-5.4c0.1,0.6,0.3,1,0.7,1.3s0.8,0.5,1.4,0.5c0.9,0,1.5-0.3,2-0.9l1.1,1.2
		c-0.3,0.5-0.8,0.9-1.4,1.1S176.2,338.7,175.5,338.7z M175.2,331.7c-0.4,0-0.8,0.2-1.1,0.5s-0.5,0.7-0.5,1.3h3.1v-0.2
		c0-0.5-0.1-0.9-0.4-1.2C176.1,331.8,175.7,331.7,175.2,331.7z"/>
	<path class="st5" d="M184.8,336.2c0-0.3-0.1-0.5-0.4-0.7s-0.7-0.3-1.3-0.4c-2-0.4-3-1.3-3-2.6c0-0.8,0.3-1.4,0.9-1.9
		c0.6-0.5,1.4-0.8,2.4-0.8c1.1,0,1.9,0.3,2.6,0.8c0.6,0.5,1,1.2,1,2h-2.3c0-0.3-0.1-0.6-0.3-0.8c-0.2-0.2-0.5-0.3-1-0.3
		c-0.4,0-0.7,0.1-0.9,0.3c-0.2,0.2-0.3,0.4-0.3,0.7c0,0.2,0.1,0.5,0.4,0.6c0.2,0.2,0.6,0.3,1.2,0.4s1,0.2,1.4,0.4
		c1.2,0.4,1.8,1.2,1.8,2.3c0,0.8-0.3,1.4-1,1.9s-1.5,0.7-2.6,0.7c-0.7,0-1.3-0.1-1.9-0.4c-0.5-0.3-1-0.6-1.3-1s-0.5-0.9-0.5-1.4h2.1
		c0,0.4,0.2,0.7,0.4,0.9c0.3,0.2,0.6,0.3,1.1,0.3c0.4,0,0.8-0.1,1-0.2C184.7,336.6,184.8,336.4,184.8,336.2z"/>
</g>
<g class="st3">
	<path class="st5" d="M503.8,118.2h-4.9v4h5.7v1.2h-7.2V112h7.1v1.2h-5.6v3.7h4.9V118.2z"/>
	<path class="st5" d="M511.1,121.3c0-0.4-0.1-0.7-0.4-0.9c-0.3-0.2-0.8-0.4-1.5-0.6s-1.3-0.3-1.7-0.6s-0.7-0.5-1-0.8
		c-0.2-0.3-0.3-0.7-0.3-1.1c0-0.7,0.3-1.3,0.9-1.8s1.3-0.7,2.2-0.7c1,0,1.7,0.2,2.3,0.7c0.6,0.5,0.9,1.1,0.9,1.9H511
		c0-0.4-0.2-0.7-0.5-1s-0.8-0.4-1.3-0.4s-0.9,0.1-1.2,0.3s-0.4,0.5-0.4,0.9c0,0.3,0.1,0.6,0.4,0.8c0.3,0.2,0.8,0.3,1.5,0.5
		s1.3,0.4,1.8,0.6c0.4,0.2,0.8,0.5,1,0.8s0.3,0.7,0.3,1.2c0,0.8-0.3,1.4-0.9,1.8c-0.6,0.5-1.4,0.7-2.4,0.7c-0.7,0-1.3-0.1-1.8-0.4
		c-0.5-0.2-0.9-0.6-1.2-1c-0.3-0.4-0.4-0.9-0.4-1.4h1.4c0,0.5,0.2,0.9,0.6,1.2c0.4,0.3,0.8,0.4,1.4,0.4c0.5,0,1-0.1,1.3-0.3
		C510.9,121.9,511.1,121.6,511.1,121.3z"/>
	<path class="st5" d="M516.4,113v2h1.6v1.1h-1.6v5.2c0,0.3,0.1,0.6,0.2,0.8c0.1,0.2,0.4,0.3,0.7,0.3c0.2,0,0.4,0,0.7-0.1v1.2
		c-0.4,0.1-0.8,0.2-1.1,0.2c-0.6,0-1.1-0.2-1.5-0.6s-0.5-0.9-0.5-1.7v-5.2h-1.5v-1.1h1.5v-2h1.5V113z"/>
	<path class="st5" d="M523.8,116.3c-0.2,0-0.5-0.1-0.7-0.1c-0.9,0-1.6,0.4-1.9,1.2v6h-1.4v-8.5h1.4v1c0.5-0.8,1.1-1.1,2-1.1
		c0.3,0,0.5,0,0.6,0.1L523.8,116.3L523.8,116.3z"/>
	<path class="st5" d="M530.3,122.7c-0.6,0.7-1.4,1-2.5,1c-0.9,0-1.6-0.3-2.1-0.8s-0.7-1.3-0.7-2.3v-5.5h1.4v5.5
		c0,1.3,0.5,1.9,1.6,1.9s1.8-0.4,2.2-1.2v-6.1h1.4v8.5h-1.4L530.3,122.7z"/>
	<path class="st5" d="M537.3,122.5c0.5,0,1-0.2,1.4-0.5s0.6-0.7,0.6-1.2h1.4c0,0.5-0.2,0.9-0.5,1.4c-0.3,0.4-0.7,0.8-1.2,1
		c-0.5,0.3-1.1,0.4-1.6,0.4c-1.2,0-2.1-0.4-2.7-1.2s-1-1.8-1-3.2V119c0-0.8,0.2-1.6,0.5-2.2s0.7-1.1,1.3-1.5s1.2-0.5,2-0.5
		c0.9,0,1.7,0.3,2.4,0.9c0.6,0.6,1,1.3,1,2.2h-1.4c0-0.5-0.2-1-0.6-1.3c-0.4-0.4-0.8-0.5-1.4-0.5c-0.7,0-1.3,0.3-1.7,0.8
		s-0.6,1.3-0.6,2.3v0.3c0,1,0.2,1.7,0.6,2.2C536,122.2,536.5,122.5,537.3,122.5z"/>
	<path class="st5" d="M544.2,113v2h1.6v1.1h-1.6v5.2c0,0.3,0.1,0.6,0.2,0.8c0.1,0.2,0.4,0.3,0.7,0.3c0.2,0,0.4,0,0.7-0.1v1.2
		c-0.4,0.1-0.8,0.2-1.1,0.2c-0.6,0-1.1-0.2-1.5-0.6s-0.5-0.9-0.5-1.7v-5.2h-1.5v-1.1h1.5v-2h1.5V113z"/>
	<path class="st5" d="M552.7,122.7c-0.6,0.7-1.4,1-2.5,1c-0.9,0-1.6-0.3-2.1-0.8s-0.7-1.3-0.7-2.3v-5.5h1.4v5.5
		c0,1.3,0.5,1.9,1.6,1.9s1.8-0.4,2.2-1.2v-6.1h1.4v8.5h-1.4L552.7,122.7z"/>
	<path class="st5" d="M560.4,116.3c-0.2,0-0.5-0.1-0.7-0.1c-0.9,0-1.6,0.4-1.9,1.2v6h-1.4v-8.5h1.4v1c0.5-0.8,1.1-1.1,2-1.1
		c0.3,0,0.5,0,0.6,0.1L560.4,116.3L560.4,116.3z"/>
	<path class="st5" d="M566.6,123.5c-0.1-0.2-0.2-0.5-0.2-0.9c-0.7,0.7-1.5,1-2.4,1c-0.8,0-1.5-0.2-2.1-0.7c-0.5-0.5-0.8-1.1-0.8-1.8
		c0-0.9,0.3-1.6,1-2.1s1.6-0.7,2.8-0.7h1.4v-0.7c0-0.5-0.2-0.9-0.5-1.2c-0.3-0.3-0.7-0.4-1.3-0.4c-0.5,0-0.9,0.1-1.3,0.4
		c-0.3,0.3-0.5,0.6-0.5,0.9h-1.5c0-0.4,0.1-0.8,0.4-1.2c0.3-0.4,0.7-0.7,1.2-0.9c0.5-0.2,1.1-0.3,1.7-0.3c1,0,1.7,0.2,2.3,0.7
		s0.8,1.2,0.9,2v3.9c0,0.8,0.1,1.4,0.3,1.9v0.1C568,123.5,566.6,123.5,566.6,123.5z M564.2,122.4c0.5,0,0.9-0.1,1.3-0.4
		s0.7-0.5,0.9-0.9v-1.7h-1.1c-1.8,0-2.7,0.5-2.7,1.6c0,0.5,0.2,0.8,0.5,1.1C563.4,122.3,563.8,122.4,564.2,122.4z"/>
	<path class="st5" d="M575,121.3c0-0.4-0.1-0.7-0.4-0.9c-0.3-0.2-0.8-0.4-1.5-0.6s-1.3-0.3-1.7-0.6s-0.7-0.5-1-0.8
		c-0.2-0.3-0.3-0.7-0.3-1.1c0-0.7,0.3-1.3,0.9-1.8s1.3-0.7,2.2-0.7c1,0,1.7,0.2,2.3,0.7s0.9,1.1,0.9,1.9H575c0-0.4-0.2-0.7-0.5-1
		s-0.8-0.4-1.3-0.4s-0.9,0.1-1.2,0.3s-0.4,0.5-0.4,0.9c0,0.3,0.1,0.6,0.4,0.8c0.3,0.2,0.8,0.3,1.5,0.5s1.3,0.4,1.8,0.6
		c0.4,0.2,0.8,0.5,1,0.8s0.3,0.7,0.3,1.2c0,0.8-0.3,1.4-0.9,1.8c-0.6,0.5-1.4,0.7-2.4,0.7c-0.7,0-1.3-0.1-1.8-0.4
		c-0.5-0.2-0.9-0.6-1.2-1s-0.4-0.9-0.4-1.4h1.4c0,0.5,0.2,0.9,0.6,1.2c0.4,0.3,0.8,0.4,1.4,0.4c0.5,0,1-0.1,1.3-0.3
		C574.9,121.9,575,121.6,575,121.3z"/>
</g>
<g class="st3">
	<path class="st5" d="M496.7,141.2c0-1.3,0.3-2.3,0.9-3.1s1.4-1.2,2.4-1.2s1.8,0.3,2.4,1v-4.4h1.4v12h-1.3l-0.1-0.9
		c-0.6,0.7-1.4,1.1-2.4,1.1s-1.8-0.4-2.4-1.2s-0.9-1.8-0.9-3.1V141.2z M498.2,141.4c0,1,0.2,1.7,0.6,2.2s0.9,0.8,1.6,0.8
		c0.9,0,1.6-0.4,2-1.2v-3.9c-0.4-0.8-1.1-1.2-2-1.2c-0.7,0-1.3,0.3-1.7,0.8C498.4,139.5,498.2,140.3,498.2,141.4z"/>
	<path class="st5" d="M509.6,145.7c-1.1,0-2.1-0.4-2.8-1.1s-1.1-1.8-1.1-3v-0.3c0-0.8,0.2-1.6,0.5-2.2s0.8-1.2,1.3-1.5
		c0.6-0.4,1.2-0.6,1.9-0.6c1.1,0,2,0.4,2.6,1.1c0.6,0.7,0.9,1.8,0.9,3.1v0.6h-5.7c0,0.8,0.3,1.5,0.7,2c0.5,0.5,1.1,0.8,1.8,0.8
		c0.5,0,0.9-0.1,1.3-0.3s0.7-0.5,0.9-0.8l0.9,0.7C512.1,145.1,511,145.7,509.6,145.7z M509.4,138.1c-0.6,0-1.1,0.2-1.5,0.6
		c-0.4,0.4-0.6,1-0.7,1.8h4.2v-0.1c0-0.7-0.2-1.3-0.6-1.7C510.5,138.3,510,138.1,509.4,138.1z"/>
	<path class="st5" d="M518.6,134.8c0-0.2,0.1-0.4,0.2-0.6c0.1-0.2,0.4-0.2,0.6-0.2s0.5,0.1,0.6,0.2c0.1,0.2,0.2,0.4,0.2,0.6
		s-0.1,0.4-0.2,0.6c-0.1,0.2-0.4,0.2-0.6,0.2s-0.5-0.1-0.6-0.2C518.6,135.2,518.6,135,518.6,134.8z M520.1,145.5h-1.4V137h1.4V145.5
		z"/>
	<path class="st5" d="M523.8,137v1.1c0.6-0.8,1.5-1.2,2.5-1.2c1.8,0,2.7,1,2.7,3v5.6h-1.4v-5.6c0-0.6-0.1-1.1-0.4-1.4
		s-0.7-0.4-1.3-0.4c-0.5,0-0.9,0.1-1.2,0.4c-0.4,0.2-0.6,0.6-0.8,1v6h-1.4V137L523.8,137L523.8,137z"/>
	<path class="st5" d="M532,145.5v-7.3h-1.3v-1.1h1.3v-0.9c0-0.9,0.2-1.6,0.7-2.1s1.2-0.7,2.1-0.7c0.3,0,0.7,0,1,0.1l-0.1,1.2
		c-0.2,0-0.5-0.1-0.8-0.1c-0.5,0-0.8,0.1-1.1,0.4s-0.4,0.7-0.4,1.2v0.9h1.8v1.1h-1.8v7.3H532z"/>
	<path class="st5" d="M536.4,141.2c0-0.8,0.2-1.6,0.5-2.2c0.3-0.7,0.8-1.2,1.4-1.5c0.6-0.4,1.2-0.5,2-0.5c1.2,0,2.1,0.4,2.8,1.2
		s1.1,1.9,1.1,3.2v0.1c0,0.8-0.2,1.6-0.5,2.2c-0.3,0.7-0.8,1.2-1.4,1.5s-1.3,0.5-2,0.5c-1.1,0-2.1-0.4-2.8-1.2s-1.1-1.9-1.1-3.2
		V141.2z M537.9,141.4c0,0.9,0.2,1.7,0.7,2.3c0.4,0.6,1,0.9,1.7,0.9s1.3-0.3,1.8-0.9c0.4-0.6,0.6-1.4,0.6-2.4c0-0.9-0.2-1.7-0.7-2.3
		c-0.4-0.6-1-0.9-1.8-0.9c-0.7,0-1.3,0.3-1.7,0.9S537.9,140.3,537.9,141.4z"/>
	<path class="st5" d="M550,138.3c-0.2,0-0.5-0.1-0.7-0.1c-0.9,0-1.6,0.4-1.9,1.2v6H546v-8.5h1.4v1c0.5-0.8,1.1-1.1,2-1.1
		c0.3,0,0.5,0,0.6,0.1L550,138.3L550,138.3z"/>
	<path class="st5" d="M552.7,137v0.9c0.6-0.7,1.5-1.1,2.5-1.1c1.2,0,2,0.5,2.4,1.4c0.3-0.4,0.6-0.7,1.1-1c0.5-0.2,1-0.4,1.6-0.4
		c1.9,0,2.8,1,2.8,2.9v5.7h-1.4v-5.6c0-0.6-0.1-1.1-0.4-1.4c-0.3-0.3-0.7-0.4-1.4-0.4c-0.5,0-1,0.2-1.3,0.5
		c-0.4,0.3-0.6,0.8-0.6,1.3v5.6h-1.5v-5.5c0-1.2-0.6-1.8-1.8-1.8c-0.9,0-1.6,0.4-1.9,1.2v6.2h-1.4V137H552.7z"/>
	<path class="st5" d="M570.6,145.5c-0.1-0.2-0.2-0.5-0.2-0.9c-0.7,0.7-1.5,1-2.4,1c-0.8,0-1.5-0.2-2.1-0.7c-0.5-0.5-0.8-1.1-0.8-1.8
		c0-0.9,0.3-1.6,1-2.1s1.6-0.7,2.8-0.7h1.4v-0.7c0-0.5-0.2-0.9-0.5-1.2s-0.7-0.4-1.3-0.4c-0.5,0-0.9,0.1-1.3,0.4
		c-0.3,0.3-0.5,0.6-0.5,0.9h-1.5c0-0.4,0.1-0.8,0.4-1.2c0.3-0.4,0.7-0.7,1.2-0.9c0.5-0.2,1.1-0.3,1.7-0.3c1,0,1.7,0.2,2.3,0.7
		s0.8,1.2,0.9,2v3.9c0,0.8,0.1,1.4,0.3,1.9v0.1H570.6z M568.2,144.4c0.5,0,0.9-0.1,1.3-0.4s0.7-0.5,0.9-0.9v-1.7h-1.1
		c-1.8,0-2.7,0.5-2.7,1.6c0,0.5,0.2,0.8,0.5,1.1C567.3,144.3,567.7,144.4,568.2,144.4z"/>
	<path class="st5" d="M577.5,144.5c0.5,0,1-0.2,1.4-0.5s0.6-0.7,0.6-1.2h1.4c0,0.5-0.2,0.9-0.5,1.4c-0.3,0.4-0.7,0.8-1.2,1
		c-0.5,0.3-1.1,0.4-1.6,0.4c-1.2,0-2.1-0.4-2.7-1.2s-1-1.8-1-3.2V141c0-0.8,0.2-1.6,0.5-2.2c0.3-0.6,0.7-1.1,1.3-1.5
		c0.6-0.4,1.2-0.5,2-0.5c0.9,0,1.7,0.3,2.4,0.9c0.6,0.6,1,1.3,1,2.2h-1.4c0-0.5-0.2-1-0.6-1.3c-0.4-0.4-0.8-0.5-1.4-0.5
		c-0.7,0-1.3,0.3-1.7,0.8s-0.6,1.3-0.6,2.3v0.3c0,1,0.2,1.7,0.6,2.2C576.2,144.2,576.7,144.5,577.5,144.5z"/>
	<path class="st5" d="M582.5,134.8c0-0.2,0.1-0.4,0.2-0.6c0.1-0.2,0.4-0.2,0.6-0.2s0.5,0.1,0.6,0.2c0.1,0.2,0.2,0.4,0.2,0.6
		s-0.1,0.4-0.2,0.6c-0.1,0.2-0.4,0.2-0.6,0.2s-0.5-0.1-0.6-0.2C582.5,135.2,582.5,135,582.5,134.8z M584,145.5h-1.4V137h1.4V145.5z"
		/>
	<path class="st5" d="M586,141.2c0-0.8,0.2-1.6,0.5-2.2c0.3-0.7,0.8-1.2,1.4-1.5c0.6-0.4,1.2-0.5,2-0.5c1.2,0,2.1,0.4,2.8,1.2
		s1.1,1.9,1.1,3.2v0.1c0,0.8-0.2,1.6-0.5,2.2c-0.3,0.7-0.8,1.2-1.4,1.5s-1.3,0.5-2,0.5c-1.1,0-2.1-0.4-2.8-1.2s-1.1-1.9-1.1-3.2
		V141.2z M587.4,141.4c0,0.9,0.2,1.7,0.7,2.3c0.4,0.6,1,0.9,1.7,0.9s1.3-0.3,1.8-0.9c0.4-0.6,0.6-1.4,0.6-2.4c0-0.9-0.2-1.7-0.7-2.3
		c-0.4-0.6-1-0.9-1.8-0.9c-0.7,0-1.3,0.3-1.7,0.9S587.4,140.3,587.4,141.4z M590.5,133.5h1.8l-2.1,2.3H589L590.5,133.5z"/>
	<path class="st5" d="M596.8,137v1.1c0.6-0.8,1.5-1.2,2.5-1.2c1.8,0,2.7,1,2.7,3v5.6h-1.4v-5.6c0-0.6-0.1-1.1-0.4-1.4
		s-0.7-0.4-1.3-0.4c-0.5,0-0.9,0.1-1.2,0.4c-0.4,0.2-0.6,0.6-0.8,1v6h-1.4V137L596.8,137L596.8,137z"/>
</g>
<g class="st3">
	<path class="st5" d="M498.8,214v4.5h-1.5v-11.4h4.2c1.2,0,2.2,0.3,2.9,1c0.7,0.6,1.1,1.5,1.1,2.5c0,1.1-0.3,2-1,2.6s-1.7,0.9-3,0.9
		h-2.7V214z M498.8,212.8h2.7c0.8,0,1.4-0.2,1.8-0.6c0.4-0.4,0.6-0.9,0.6-1.6c0-0.7-0.2-1.2-0.6-1.6c-0.4-0.4-1-0.6-1.8-0.6h-2.8
		L498.8,212.8L498.8,212.8z"/>
	<path class="st5" d="M510.7,218.7c-1.1,0-2.1-0.4-2.8-1.1s-1.1-1.8-1.1-3v-0.3c0-0.8,0.2-1.6,0.5-2.2s0.8-1.2,1.3-1.5
		c0.6-0.4,1.2-0.6,1.9-0.6c1.1,0,2,0.4,2.6,1.1s0.9,1.8,0.9,3.1v0.6h-5.7c0,0.8,0.3,1.5,0.7,2c0.5,0.5,1.1,0.8,1.8,0.8
		c0.5,0,0.9-0.1,1.3-0.3c0.4-0.2,0.7-0.5,0.9-0.8l0.9,0.7C513.2,218.1,512.1,218.7,510.7,218.7z M510.5,211.1
		c-0.6,0-1.1,0.2-1.5,0.6c-0.4,0.4-0.6,1-0.7,1.8h4.2v-0.1c0-0.7-0.2-1.3-0.6-1.7C511.6,211.3,511.1,211.1,510.5,211.1z"/>
	<path class="st5" d="M517.6,208v2h1.6v1.1h-1.6v5.2c0,0.3,0.1,0.6,0.2,0.8c0.1,0.2,0.4,0.3,0.7,0.3c0.2,0,0.4,0,0.7-0.1v1.2
		c-0.4,0.1-0.8,0.2-1.1,0.2c-0.6,0-1.1-0.2-1.5-0.6s-0.5-0.9-0.5-1.7v-5.2h-1.5v-1.1h1.5v-2L517.6,208L517.6,208z"/>
	<path class="st5" d="M520.9,207.8c0-0.2,0.1-0.4,0.2-0.6c0.1-0.2,0.4-0.2,0.6-0.2s0.5,0.1,0.6,0.2c0.1,0.2,0.2,0.4,0.2,0.6
		s-0.1,0.4-0.2,0.6c-0.1,0.2-0.4,0.2-0.6,0.2s-0.5-0.1-0.6-0.2C521,208.2,520.9,208,520.9,207.8z M522.5,218.5H521V210h1.4
		L522.5,218.5L522.5,218.5z"/>
	<path class="st5" d="M528.2,217.5c0.5,0,1-0.2,1.4-0.5s0.6-0.7,0.6-1.2h1.4c0,0.5-0.2,0.9-0.5,1.4c-0.3,0.4-0.7,0.8-1.2,1
		c-0.5,0.3-1.1,0.4-1.6,0.4c-1.2,0-2.1-0.4-2.7-1.2s-1-1.8-1-3.2V214c0-0.8,0.2-1.6,0.5-2.2c0.3-0.6,0.7-1.1,1.3-1.5s1.2-0.5,2-0.5
		c0.9,0,1.7,0.3,2.4,0.9c0.6,0.6,1,1.3,1,2.2h-1.4c0-0.5-0.2-1-0.6-1.3c-0.4-0.4-0.8-0.5-1.4-0.5c-0.7,0-1.3,0.3-1.7,0.8
		s-0.6,1.3-0.6,2.3v0.3c0,1,0.2,1.7,0.6,2.2C526.8,217.2,527.4,217.5,528.2,217.5z"/>
	<path class="st5" d="M533.2,207.8c0-0.2,0.1-0.4,0.2-0.6c0.1-0.2,0.4-0.2,0.6-0.2s0.5,0.1,0.6,0.2c0.1,0.2,0.2,0.4,0.2,0.6
		s-0.1,0.4-0.2,0.6c-0.1,0.2-0.4,0.2-0.6,0.2s-0.5-0.1-0.6-0.2C533.2,208.2,533.2,208,533.2,207.8z M534.7,218.5h-1.4V210h1.4V218.5
		z"/>
	<path class="st5" d="M536.6,214.2c0-0.8,0.2-1.6,0.5-2.2c0.3-0.7,0.8-1.2,1.4-1.5c0.6-0.4,1.2-0.5,2-0.5c1.2,0,2.1,0.4,2.8,1.2
		s1.1,1.9,1.1,3.2v0.1c0,0.8-0.2,1.6-0.5,2.2c-0.3,0.7-0.8,1.2-1.4,1.5s-1.3,0.5-2,0.5c-1.1,0-2.1-0.4-2.8-1.2s-1.1-1.9-1.1-3.2
		V214.2z M538.1,214.4c0,0.9,0.2,1.7,0.7,2.3c0.4,0.6,1,0.9,1.7,0.9s1.3-0.3,1.8-0.9c0.4-0.6,0.6-1.4,0.6-2.4c0-0.9-0.2-1.7-0.7-2.3
		c-0.4-0.6-1-0.9-1.8-0.9c-0.7,0-1.3,0.3-1.7,0.9S538.1,213.3,538.1,214.4z"/>
	<path class="st5" d="M547.5,210v1.1c0.6-0.8,1.5-1.2,2.5-1.2c1.8,0,2.7,1,2.7,3v5.6h-1.4v-5.6c0-0.6-0.1-1.1-0.4-1.4
		s-0.7-0.4-1.3-0.4c-0.5,0-0.9,0.1-1.2,0.4c-0.4,0.2-0.6,0.6-0.8,1v6h-1.4V210L547.5,210L547.5,210z"/>
	<path class="st5" d="M558.5,218.7c-1.1,0-2.1-0.4-2.8-1.1s-1.1-1.8-1.1-3v-0.3c0-0.8,0.2-1.6,0.5-2.2s0.8-1.2,1.3-1.5
		c0.6-0.4,1.2-0.6,1.9-0.6c1.1,0,2,0.4,2.6,1.1s0.9,1.8,0.9,3.1v0.6h-5.7c0,0.8,0.3,1.5,0.7,2c0.5,0.5,1.1,0.8,1.8,0.8
		c0.5,0,0.9-0.1,1.3-0.3c0.4-0.2,0.7-0.5,0.9-0.8l0.9,0.7C561,218.1,559.9,218.7,558.5,218.7z M558.3,211.1c-0.6,0-1.1,0.2-1.5,0.6
		c-0.4,0.4-0.6,1-0.7,1.8h4.2v-0.1c0-0.7-0.2-1.3-0.6-1.7C559.4,211.3,558.9,211.1,558.3,211.1z"/>
	<path class="st5" d="M568.4,216.3c0-0.4-0.1-0.7-0.4-0.9c-0.3-0.2-0.8-0.4-1.5-0.6c-0.7-0.2-1.3-0.3-1.7-0.6s-0.7-0.5-1-0.8
		c-0.2-0.3-0.3-0.7-0.3-1.1c0-0.7,0.3-1.3,0.9-1.8s1.3-0.7,2.2-0.7c1,0,1.7,0.2,2.3,0.7s0.9,1.1,0.9,1.9h-1.5c0-0.4-0.2-0.7-0.5-1
		s-0.8-0.4-1.3-0.4s-0.9,0.1-1.2,0.3s-0.4,0.5-0.4,0.9c0,0.3,0.1,0.6,0.4,0.8c0.3,0.2,0.8,0.3,1.5,0.5s1.3,0.4,1.8,0.6
		c0.4,0.2,0.8,0.5,1,0.8s0.3,0.7,0.3,1.2c0,0.8-0.3,1.4-0.9,1.8c-0.6,0.5-1.4,0.7-2.4,0.7c-0.7,0-1.3-0.1-1.8-0.4
		c-0.5-0.2-0.9-0.6-1.2-1s-0.4-0.9-0.4-1.4h1.4c0,0.5,0.2,0.9,0.6,1.2c0.4,0.3,0.8,0.4,1.4,0.4c0.5,0,1-0.1,1.3-0.3
		C568.2,216.9,568.4,216.6,568.4,216.3z"/>
	<path class="st5" d="M578.4,216.4l2-6.3h1.5l-3.4,9.8c-0.5,1.4-1.4,2.1-2.5,2.1h-0.3l-0.5-0.1v-1.2h0.4c0.5,0,0.9-0.1,1.1-0.3
		s0.5-0.6,0.7-1.1l0.3-0.9l-3-8.4h1.6L578.4,216.4z"/>
</g>
<g class="st3">
	<path class="st5" d="M499.1,230v2h1.6v1.1h-1.6v5.2c0,0.3,0.1,0.6,0.2,0.8s0.4,0.3,0.7,0.3c0.2,0,0.4,0,0.7-0.1v1.2
		c-0.4,0.1-0.8,0.2-1.1,0.2c-0.6,0-1.1-0.2-1.5-0.6s-0.5-0.9-0.5-1.7v-5.2h-1.5v-1.1h1.5v-2L499.1,230L499.1,230z"/>
	<path class="st5" d="M506.4,233.3c-0.2,0-0.5-0.1-0.7-0.1c-0.9,0-1.6,0.4-1.9,1.2v6h-1.4v-8.5h1.4v1c0.5-0.8,1.1-1.1,2-1.1
		c0.3,0,0.5,0,0.6,0.1V233.3z"/>
	<path class="st5" d="M512.6,240.5c-0.1-0.2-0.2-0.5-0.2-0.9c-0.7,0.7-1.5,1-2.4,1c-0.8,0-1.5-0.2-2.1-0.7c-0.5-0.5-0.8-1.1-0.8-1.8
		c0-0.9,0.3-1.6,1-2.1s1.6-0.7,2.8-0.7h1.4v-0.7c0-0.5-0.2-0.9-0.5-1.2s-0.7-0.4-1.3-0.4c-0.5,0-0.9,0.1-1.3,0.4
		c-0.3,0.3-0.5,0.6-0.5,0.9h-1.5c0-0.4,0.1-0.8,0.4-1.2s0.7-0.7,1.2-0.9s1.1-0.3,1.7-0.3c1,0,1.7,0.2,2.3,0.7c0.6,0.5,0.8,1.2,0.9,2
		v3.9c0,0.8,0.1,1.4,0.3,1.9v0.1H512.6z M510.2,239.4c0.5,0,0.9-0.1,1.3-0.4s0.7-0.5,0.9-0.9v-1.7h-1.1c-1.8,0-2.7,0.5-2.7,1.6
		c0,0.5,0.2,0.8,0.5,1.1C509.4,239.3,509.8,239.4,510.2,239.4z"/>
	<path class="st5" d="M517.5,232v1.1c0.6-0.8,1.5-1.2,2.5-1.2c1.8,0,2.7,1,2.7,3v5.6h-1.4v-5.6c0-0.6-0.1-1.1-0.4-1.4
		s-0.7-0.4-1.3-0.4c-0.5,0-0.9,0.1-1.2,0.4c-0.4,0.2-0.6,0.6-0.8,1v6h-1.4V232L517.5,232L517.5,232z"/>
	<path class="st5" d="M529.9,238.3c0-0.4-0.1-0.7-0.4-0.9c-0.3-0.2-0.8-0.4-1.5-0.6c-0.7-0.2-1.3-0.3-1.7-0.6s-0.7-0.5-1-0.8
		c-0.2-0.3-0.3-0.7-0.3-1.1c0-0.7,0.3-1.3,0.9-1.8s1.3-0.7,2.2-0.7c1,0,1.7,0.2,2.3,0.7s0.9,1.1,0.9,1.9h-1.5c0-0.4-0.2-0.7-0.5-1
		s-0.8-0.4-1.3-0.4s-0.9,0.1-1.2,0.3s-0.4,0.5-0.4,0.9c0,0.3,0.1,0.6,0.4,0.8c0.3,0.2,0.8,0.3,1.5,0.5s1.3,0.4,1.8,0.6
		c0.4,0.2,0.8,0.5,1,0.8s0.3,0.7,0.3,1.2c0,0.8-0.3,1.4-0.9,1.8c-0.6,0.5-1.4,0.7-2.4,0.7c-0.7,0-1.3-0.1-1.8-0.4
		c-0.5-0.2-0.9-0.6-1.2-1s-0.4-0.9-0.4-1.4h1.4c0,0.5,0.2,0.9,0.6,1.2c0.4,0.3,0.8,0.4,1.4,0.4c0.5,0,1-0.1,1.3-0.3
		C529.7,238.9,529.9,238.6,529.9,238.3z"/>
	<path class="st5" d="M538.4,240.5c-0.1-0.2-0.2-0.5-0.2-0.9c-0.7,0.7-1.5,1-2.4,1c-0.8,0-1.5-0.2-2.1-0.7c-0.5-0.5-0.8-1.1-0.8-1.8
		c0-0.9,0.3-1.6,1-2.1s1.6-0.7,2.8-0.7h1.4v-0.7c0-0.5-0.2-0.9-0.5-1.2s-0.7-0.4-1.3-0.4c-0.5,0-0.9,0.1-1.3,0.4
		c-0.3,0.3-0.5,0.6-0.5,0.9H533c0-0.4,0.1-0.8,0.4-1.2c0.3-0.4,0.7-0.7,1.2-0.9s1.1-0.3,1.7-0.3c1,0,1.7,0.2,2.3,0.7s0.8,1.2,0.9,2
		v3.9c0,0.8,0.1,1.4,0.3,1.9v0.1H538.4z M536,239.4c0.5,0,0.9-0.1,1.3-0.4s0.7-0.5,0.9-0.9v-1.7h-1.1c-1.8,0-2.7,0.5-2.7,1.6
		c0,0.5,0.2,0.8,0.5,1.1C535.2,239.3,535.5,239.4,536,239.4z"/>
	<path class="st5" d="M545.3,239.5c0.5,0,1-0.2,1.4-0.5s0.6-0.7,0.6-1.2h1.4c0,0.5-0.2,0.9-0.5,1.4c-0.3,0.4-0.7,0.8-1.2,1
		c-0.5,0.3-1.1,0.4-1.6,0.4c-1.2,0-2.1-0.4-2.7-1.2s-1-1.8-1-3.2V236c0-0.8,0.2-1.6,0.5-2.2c0.3-0.6,0.7-1.1,1.3-1.5s1.2-0.5,2-0.5
		c0.9,0,1.7,0.3,2.4,0.9c0.6,0.6,1,1.3,1,2.2h-1.4c0-0.5-0.2-1-0.6-1.3c-0.4-0.4-0.8-0.5-1.4-0.5c-0.7,0-1.3,0.3-1.7,0.8
		s-0.6,1.3-0.6,2.3v0.3c0,1,0.2,1.7,0.6,2.2C544,239.2,544.6,239.5,545.3,239.5z"/>
	<path class="st5" d="M553.7,239.5c0.5,0,1-0.2,1.4-0.5s0.6-0.7,0.6-1.2h1.4c0,0.5-0.2,0.9-0.5,1.4c-0.3,0.4-0.7,0.8-1.2,1
		c-0.5,0.3-1.1,0.4-1.6,0.4c-1.2,0-2.1-0.4-2.7-1.2s-1-1.8-1-3.2V236c0-0.8,0.2-1.6,0.5-2.2c0.3-0.6,0.7-1.1,1.3-1.5s1.2-0.5,2-0.5
		c0.9,0,1.7,0.3,2.4,0.9c0.6,0.6,1,1.3,1,2.2h-1.4c0-0.5-0.2-1-0.6-1.3c-0.4-0.4-0.8-0.5-1.4-0.5c-0.7,0-1.3,0.3-1.7,0.8
		s-0.6,1.3-0.6,2.3v0.3c0,1,0.2,1.7,0.6,2.2C552.4,239.2,552.9,239.5,553.7,239.5z"/>
	<path class="st5" d="M558.7,229.8c0-0.2,0.1-0.4,0.2-0.6c0.1-0.2,0.4-0.2,0.6-0.2s0.5,0.1,0.6,0.2c0.1,0.2,0.2,0.4,0.2,0.6
		s-0.1,0.4-0.2,0.6c-0.1,0.2-0.4,0.2-0.6,0.2s-0.5-0.1-0.6-0.2C558.7,230.2,558.7,230,558.7,229.8z M560.2,240.5h-1.4V232h1.4V240.5
		z"/>
	<path class="st5" d="M562.2,236.2c0-0.8,0.2-1.6,0.5-2.2c0.3-0.7,0.8-1.2,1.4-1.5c0.6-0.4,1.2-0.5,2-0.5c1.2,0,2.1,0.4,2.8,1.2
		s1.1,1.9,1.1,3.2v0.1c0,0.8-0.2,1.6-0.5,2.2c-0.3,0.7-0.8,1.2-1.4,1.5s-1.3,0.5-2,0.5c-1.1,0-2.1-0.4-2.8-1.2s-1.1-1.9-1.1-3.2
		V236.2z M563.6,236.4c0,0.9,0.2,1.7,0.7,2.3c0.4,0.6,1,0.9,1.7,0.9s1.3-0.3,1.8-0.9c0.4-0.6,0.6-1.4,0.6-2.4c0-0.9-0.2-1.7-0.7-2.3
		c-0.4-0.6-1-0.9-1.8-0.9c-0.7,0-1.3,0.3-1.7,0.9S563.6,235.3,563.6,236.4z"/>
	<path class="st5" d="M573,232v1.1c0.6-0.8,1.5-1.2,2.5-1.2c1.8,0,2.7,1,2.7,3v5.6h-1.4v-5.6c0-0.6-0.1-1.1-0.4-1.4
		s-0.7-0.4-1.3-0.4c-0.5,0-0.9,0.1-1.2,0.4c-0.4,0.2-0.6,0.6-0.8,1v6h-1.4V232L573,232L573,232z"/>
	<path class="st5" d="M584,240.7c-1.1,0-2.1-0.4-2.8-1.1s-1.1-1.8-1.1-3v-0.3c0-0.8,0.2-1.6,0.5-2.2s0.8-1.2,1.3-1.5
		c0.6-0.4,1.2-0.6,1.9-0.6c1.1,0,2,0.4,2.6,1.1s0.9,1.8,0.9,3.1v0.6h-5.7c0,0.8,0.3,1.5,0.7,2c0.5,0.5,1.1,0.8,1.8,0.8
		c0.5,0,0.9-0.1,1.3-0.3c0.4-0.2,0.7-0.5,0.9-0.8l0.9,0.7C586.5,240.1,585.4,240.7,584,240.7z M583.8,233.1c-0.6,0-1.1,0.2-1.5,0.6
		c-0.4,0.4-0.6,1-0.7,1.8h4.2v-0.1c0-0.7-0.2-1.3-0.6-1.7C584.9,233.3,584.4,233.1,583.8,233.1z"/>
	<path class="st5" d="M593.9,238.3c0-0.4-0.1-0.7-0.4-0.9c-0.3-0.2-0.8-0.4-1.5-0.6c-0.7-0.2-1.3-0.3-1.7-0.6s-0.7-0.5-1-0.8
		c-0.2-0.3-0.3-0.7-0.3-1.1c0-0.7,0.3-1.3,0.9-1.8s1.3-0.7,2.2-0.7c1,0,1.7,0.2,2.3,0.7s0.9,1.1,0.9,1.9h-1.5c0-0.4-0.2-0.7-0.5-1
		s-0.8-0.4-1.3-0.4s-0.9,0.1-1.2,0.3s-0.4,0.5-0.4,0.9c0,0.3,0.1,0.6,0.4,0.8c0.3,0.2,0.8,0.3,1.5,0.5s1.3,0.4,1.8,0.6
		c0.4,0.2,0.8,0.5,1,0.8s0.3,0.7,0.3,1.2c0,0.8-0.3,1.4-0.9,1.8c-0.6,0.5-1.4,0.7-2.4,0.7c-0.7,0-1.3-0.1-1.8-0.4
		c-0.5-0.2-0.9-0.6-1.2-1s-0.4-0.9-0.4-1.4h1.4c0,0.5,0.2,0.9,0.6,1.2c0.4,0.3,0.8,0.4,1.4,0.4c0.5,0,1-0.1,1.3-0.3
		C593.7,238.9,593.9,238.6,593.9,238.3z"/>
</g>
<g class="st3">
	<path class="st5" d="M517.5,308.9h-2.7v4.6h-1.5v-11.4h3.8c1.3,0,2.3,0.3,3,0.9s1,1.4,1,2.5c0,0.7-0.2,1.3-0.6,1.9
		s-0.9,0.9-1.6,1.2l2.7,4.8v0.1H520L517.5,308.9z M514.8,307.7h2.3c0.7,0,1.3-0.2,1.8-0.6c0.4-0.4,0.7-0.9,0.7-1.5
		c0-0.7-0.2-1.2-0.6-1.6c-0.4-0.4-1-0.6-1.8-0.6h-2.3v4.3H514.8z"/>
	<path class="st5" d="M526.5,313.7c-1.1,0-2.1-0.4-2.8-1.1s-1.1-1.8-1.1-3v-0.3c0-0.8,0.2-1.6,0.5-2.2s0.8-1.2,1.3-1.5
		c0.6-0.4,1.2-0.6,1.9-0.6c1.1,0,2,0.4,2.6,1.1s0.9,1.8,0.9,3.1v0.6H524c0,0.8,0.3,1.5,0.7,2c0.5,0.5,1.1,0.8,1.8,0.8
		c0.5,0,0.9-0.1,1.3-0.3c0.4-0.2,0.7-0.5,0.9-0.8l0.9,0.7C528.9,313.1,527.9,313.7,526.5,313.7z M526.3,306.1
		c-0.6,0-1.1,0.2-1.5,0.6s-0.6,1-0.7,1.8h4.2v-0.1c0-0.7-0.2-1.3-0.6-1.7C527.4,306.3,526.9,306.1,526.3,306.1z"/>
	<path class="st5" d="M536.3,311.3c0-0.4-0.1-0.7-0.4-0.9c-0.3-0.2-0.8-0.4-1.5-0.6s-1.3-0.3-1.7-0.6s-0.7-0.5-1-0.8
		c-0.2-0.3-0.3-0.7-0.3-1.1c0-0.7,0.3-1.3,0.9-1.8s1.3-0.7,2.2-0.7c1,0,1.7,0.2,2.3,0.7s0.9,1.1,0.9,1.9h-1.5c0-0.4-0.2-0.7-0.5-1
		s-0.8-0.4-1.3-0.4s-0.9,0.1-1.2,0.3s-0.4,0.5-0.4,0.9c0,0.3,0.1,0.6,0.4,0.8c0.3,0.2,0.8,0.3,1.5,0.5s1.3,0.4,1.8,0.6
		c0.4,0.2,0.8,0.5,1,0.8s0.3,0.7,0.3,1.2c0,0.8-0.3,1.4-0.9,1.8c-0.6,0.5-1.4,0.7-2.4,0.7c-0.7,0-1.3-0.1-1.8-0.4
		c-0.5-0.2-0.9-0.6-1.2-1s-0.4-0.9-0.4-1.4h1.4c0,0.5,0.2,0.9,0.6,1.2c0.4,0.3,0.8,0.4,1.4,0.4c0.5,0,1-0.1,1.3-0.3
		C536.2,311.9,536.3,311.6,536.3,311.3z"/>
	<path class="st5" d="M546.8,309.4c0,1.3-0.3,2.3-0.9,3.1c-0.6,0.8-1.4,1.2-2.4,1.2s-1.8-0.3-2.4-1v4.1h-1.4v-11.7h1.3l0.1,0.9
		c0.6-0.7,1.4-1.1,2.5-1.1c1,0,1.8,0.4,2.4,1.1c0.6,0.8,0.9,1.8,0.9,3.2L546.8,309.4L546.8,309.4z M545.4,309.2c0-1-0.2-1.7-0.6-2.3
		s-1-0.8-1.7-0.8c-0.9,0-1.5,0.4-2,1.2v4c0.4,0.8,1.1,1.2,2,1.2c0.7,0,1.2-0.3,1.7-0.8C545.2,311.1,545.4,310.3,545.4,309.2z"/>
	<path class="st5" d="M553.9,312.7c-0.6,0.7-1.4,1-2.5,1c-0.9,0-1.6-0.3-2.1-0.8s-0.7-1.3-0.7-2.3v-5.5h1.4v5.5
		c0,1.3,0.5,1.9,1.6,1.9s1.8-0.4,2.2-1.2v-6.1h1.4v8.5h-1.4L553.9,312.7z"/>
	<path class="st5" d="M561,313.7c-1.1,0-2.1-0.4-2.8-1.1s-1.1-1.8-1.1-3v-0.3c0-0.8,0.2-1.6,0.5-2.2s0.8-1.2,1.3-1.5
		c0.6-0.4,1.2-0.6,1.9-0.6c1.1,0,2,0.4,2.6,1.1s0.9,1.8,0.9,3.1v0.6h-5.7c0,0.8,0.3,1.5,0.7,2c0.5,0.5,1.1,0.8,1.8,0.8
		c0.5,0,0.9-0.1,1.3-0.3c0.4-0.2,0.7-0.5,0.9-0.8l0.9,0.7C563.5,313.1,562.4,313.7,561,313.7z M560.8,306.1c-0.6,0-1.1,0.2-1.5,0.6
		s-0.6,1-0.7,1.8h4.2v-0.1c0-0.7-0.2-1.3-0.6-1.7C561.9,306.3,561.4,306.1,560.8,306.1z"/>
	<path class="st5" d="M570.9,311.3c0-0.4-0.1-0.7-0.4-0.9c-0.3-0.2-0.8-0.4-1.5-0.6s-1.3-0.3-1.7-0.6s-0.7-0.5-1-0.8
		c-0.2-0.3-0.3-0.7-0.3-1.1c0-0.7,0.3-1.3,0.9-1.8s1.3-0.7,2.2-0.7c1,0,1.7,0.2,2.3,0.7s0.9,1.1,0.9,1.9h-1.5c0-0.4-0.2-0.7-0.5-1
		s-0.8-0.4-1.3-0.4s-0.9,0.1-1.2,0.3s-0.4,0.5-0.4,0.9c0,0.3,0.1,0.6,0.4,0.8c0.3,0.2,0.8,0.3,1.5,0.5s1.3,0.4,1.8,0.6
		c0.4,0.2,0.8,0.5,1,0.8s0.3,0.7,0.3,1.2c0,0.8-0.3,1.4-0.9,1.8c-0.6,0.5-1.4,0.7-2.4,0.7c-0.7,0-1.3-0.1-1.8-0.4
		c-0.5-0.2-0.9-0.6-1.2-1s-0.4-0.9-0.4-1.4h1.4c0,0.5,0.2,0.9,0.6,1.2c0.4,0.3,0.8,0.4,1.4,0.4c0.5,0,1-0.1,1.3-0.3
		C570.7,311.9,570.9,311.6,570.9,311.3z"/>
	<path class="st5" d="M576.2,303v2h1.6v1.1h-1.6v5.2c0,0.3,0.1,0.6,0.2,0.8c0.1,0.2,0.4,0.3,0.7,0.3c0.2,0,0.4,0,0.7-0.1v1.2
		c-0.4,0.1-0.8,0.2-1.1,0.2c-0.6,0-1.1-0.2-1.5-0.6s-0.5-0.9-0.5-1.7v-5.2h-1.5v-1.1h1.5v-2L576.2,303L576.2,303z"/>
	<path class="st5" d="M584.6,313.5c-0.1-0.2-0.2-0.5-0.2-0.9c-0.7,0.7-1.5,1-2.4,1c-0.8,0-1.5-0.2-2.1-0.7c-0.5-0.5-0.8-1.1-0.8-1.8
		c0-0.9,0.3-1.6,1-2.1s1.6-0.7,2.8-0.7h1.4v-0.7c0-0.5-0.2-0.9-0.5-1.2c-0.3-0.3-0.7-0.4-1.3-0.4c-0.5,0-0.9,0.1-1.3,0.4
		c-0.3,0.3-0.5,0.6-0.5,0.9h-1.5c0-0.4,0.1-0.8,0.4-1.2c0.3-0.4,0.7-0.7,1.2-0.9c0.5-0.2,1.1-0.3,1.7-0.3c1,0,1.7,0.2,2.3,0.7
		s0.8,1.2,0.9,2v3.9c0,0.8,0.1,1.4,0.3,1.9v0.1L584.6,313.5L584.6,313.5z M582.2,312.4c0.5,0,0.9-0.1,1.3-0.4s0.7-0.5,0.9-0.9v-1.7
		h-1.1c-1.8,0-2.7,0.5-2.7,1.6c0,0.5,0.2,0.8,0.5,1.1C581.4,312.3,581.8,312.4,582.2,312.4z"/>
</g>
<g class="st3">
	<path class="st5" d="M517,328.5l2.7-4.4h1.8l-3.6,5.6l3.7,5.7h-1.8L517,331l-2.8,4.4h-1.8l3.7-5.7l-3.6-5.6h1.8L517,328.5z"/>
	<path class="st5" d="M525.3,324.1l3.7,9.3l3.7-9.3h1.9v11.4h-1.5v-4.4l0.1-4.8l-3.7,9.2h-1.1l-3.7-9.2l0.1,4.8v4.4h-1.5v-11.4
		H525.3z"/>
	<path class="st5" d="M538.8,334.3h5.4v1.2h-6.9v-11.4h1.5V334.3z"/>
</g>
<g class="st3">
	<path class="st5" d="M382.8,309v4.5h-1.5v-11.4h4.2c1.2,0,2.2,0.3,2.9,1c0.7,0.6,1.1,1.5,1.1,2.5c0,1.1-0.3,2-1,2.6s-1.7,0.9-3,0.9
		h-2.7V309z M382.8,307.8h2.7c0.8,0,1.4-0.2,1.8-0.6s0.6-0.9,0.6-1.6s-0.2-1.2-0.6-1.6s-1-0.6-1.8-0.6h-2.8L382.8,307.8L382.8,307.8
		z"/>
	<path class="st5" d="M394.7,313.7c-1.1,0-2.1-0.4-2.8-1.1s-1.1-1.8-1.1-3v-0.3c0-0.8,0.2-1.6,0.5-2.2s0.8-1.2,1.3-1.5
		c0.6-0.4,1.2-0.6,1.9-0.6c1.1,0,2,0.4,2.6,1.1s0.9,1.8,0.9,3.1v0.6h-5.7c0,0.8,0.3,1.5,0.7,2c0.5,0.5,1.1,0.8,1.8,0.8
		c0.5,0,0.9-0.1,1.3-0.3c0.4-0.2,0.7-0.5,0.9-0.8l0.9,0.7C397.2,313.1,396.1,313.7,394.7,313.7z M394.5,306.1
		c-0.6,0-1.1,0.2-1.5,0.6s-0.6,1-0.7,1.8h4.2v-0.1c0-0.7-0.2-1.3-0.6-1.7C395.6,306.3,395.1,306.1,394.5,306.1z"/>
	<path class="st5" d="M401.6,303v2h1.6v1.1h-1.6v5.2c0,0.3,0.1,0.6,0.2,0.8c0.1,0.2,0.4,0.3,0.7,0.3c0.2,0,0.4,0,0.7-0.1v1.2
		c-0.4,0.1-0.8,0.2-1.1,0.2c-0.6,0-1.1-0.2-1.5-0.6s-0.5-0.9-0.5-1.7v-5.2h-1.5v-1.1h1.5v-2L401.6,303L401.6,303z"/>
	<path class="st5" d="M404.9,302.8c0-0.2,0.1-0.4,0.2-0.6s0.4-0.2,0.6-0.2s0.5,0.1,0.6,0.2c0.1,0.2,0.2,0.4,0.2,0.6
		s-0.1,0.4-0.2,0.6s-0.4,0.2-0.6,0.2s-0.5-0.1-0.6-0.2C405,303.2,404.9,303,404.9,302.8z M406.5,313.5H405V305h1.4v8.5H406.5z"/>
	<path class="st5" d="M412.2,312.5c0.5,0,1-0.2,1.4-0.5s0.6-0.7,0.6-1.2h1.4c0,0.5-0.2,0.9-0.5,1.4c-0.3,0.4-0.7,0.8-1.2,1
		c-0.5,0.3-1.1,0.4-1.6,0.4c-1.2,0-2.1-0.4-2.7-1.2s-1-1.8-1-3.2V309c0-0.8,0.2-1.6,0.5-2.2s0.7-1.1,1.3-1.5c0.6-0.4,1.2-0.5,2-0.5
		c0.9,0,1.7,0.3,2.4,0.9c0.6,0.6,1,1.3,1,2.2h-1.4c0-0.5-0.2-1-0.6-1.3c-0.4-0.4-0.8-0.5-1.4-0.5c-0.7,0-1.3,0.3-1.7,0.8
		c-0.4,0.5-0.6,1.3-0.6,2.3v0.3c0,1,0.2,1.7,0.6,2.2C410.8,312.2,411.4,312.5,412.2,312.5z"/>
	<path class="st5" d="M417.2,302.8c0-0.2,0.1-0.4,0.2-0.6s0.4-0.2,0.6-0.2s0.5,0.1,0.6,0.2c0.1,0.2,0.2,0.4,0.2,0.6
		s-0.1,0.4-0.2,0.6s-0.4,0.2-0.6,0.2s-0.5-0.1-0.6-0.2C417.2,303.2,417.2,303,417.2,302.8z M418.7,313.5h-1.4V305h1.4V313.5z"/>
	<path class="st5" d="M420.6,309.2c0-0.8,0.2-1.6,0.5-2.2c0.3-0.7,0.8-1.2,1.4-1.5c0.6-0.4,1.2-0.5,2-0.5c1.2,0,2.1,0.4,2.8,1.2
		s1.1,1.9,1.1,3.2v0.1c0,0.8-0.2,1.6-0.5,2.2c-0.3,0.7-0.8,1.2-1.4,1.5s-1.3,0.5-2,0.5c-1.1,0-2.1-0.4-2.8-1.2s-1.1-1.9-1.1-3.2
		V309.2z M422.1,309.4c0,0.9,0.2,1.7,0.7,2.3c0.4,0.6,1,0.9,1.7,0.9s1.3-0.3,1.8-0.9c0.4-0.6,0.6-1.4,0.6-2.4c0-0.9-0.2-1.7-0.7-2.3
		c-0.4-0.6-1-0.9-1.8-0.9c-0.7,0-1.3,0.3-1.7,0.9S422.1,308.3,422.1,309.4z"/>
	<path class="st5" d="M431.5,305v1.1c0.6-0.8,1.5-1.2,2.5-1.2c1.8,0,2.7,1,2.7,3v5.6h-1.4v-5.6c0-0.6-0.1-1.1-0.4-1.4
		s-0.7-0.4-1.3-0.4c-0.5,0-0.9,0.1-1.2,0.4c-0.4,0.2-0.6,0.6-0.8,1v6h-1.4V305H431.5z"/>
	<path class="st5" d="M442.5,313.7c-1.1,0-2.1-0.4-2.8-1.1s-1.1-1.8-1.1-3v-0.3c0-0.8,0.2-1.6,0.5-2.2s0.8-1.2,1.3-1.5
		c0.6-0.4,1.2-0.6,1.9-0.6c1.1,0,2,0.4,2.6,1.1s0.9,1.8,0.9,3.1v0.6h-5.7c0,0.8,0.3,1.5,0.7,2c0.5,0.5,1.1,0.8,1.8,0.8
		c0.5,0,0.9-0.1,1.3-0.3c0.4-0.2,0.7-0.5,0.9-0.8l0.9,0.7C445,313.1,443.9,313.7,442.5,313.7z M442.3,306.1c-0.6,0-1.1,0.2-1.5,0.6
		s-0.6,1-0.7,1.8h4.2v-0.1c0-0.7-0.2-1.3-0.6-1.7C443.4,306.3,442.9,306.1,442.3,306.1z"/>
	<path class="st5" d="M452.4,311.3c0-0.4-0.1-0.7-0.4-0.9c-0.3-0.2-0.8-0.4-1.5-0.6s-1.3-0.3-1.7-0.6s-0.7-0.5-1-0.8
		c-0.2-0.3-0.3-0.7-0.3-1.1c0-0.7,0.3-1.3,0.9-1.8s1.3-0.7,2.2-0.7c1,0,1.7,0.2,2.3,0.7c0.6,0.5,0.9,1.1,0.9,1.9h-1.5
		c0-0.4-0.2-0.7-0.5-1s-0.8-0.4-1.3-0.4s-0.9,0.1-1.2,0.3s-0.4,0.5-0.4,0.9c0,0.3,0.1,0.6,0.4,0.8c0.3,0.2,0.8,0.3,1.5,0.5
		s1.3,0.4,1.8,0.6c0.4,0.2,0.8,0.5,1,0.8s0.3,0.7,0.3,1.2c0,0.8-0.3,1.4-0.9,1.8c-0.6,0.5-1.4,0.7-2.4,0.7c-0.7,0-1.3-0.1-1.8-0.4
		c-0.5-0.2-0.9-0.6-1.2-1c-0.3-0.4-0.4-0.9-0.4-1.4h1.4c0,0.5,0.2,0.9,0.6,1.2c0.4,0.3,0.8,0.4,1.4,0.4c0.5,0,1-0.1,1.3-0.3
		C452.2,311.9,452.4,311.6,452.4,311.3z"/>
</g>
<g class="st3">
	<path class="st5" d="M380.7,331.2c0-1.3,0.3-2.3,0.9-3.1c0.6-0.8,1.4-1.2,2.4-1.2s1.8,0.3,2.4,1v-4.4h1.4v12h-1.3l-0.1-0.9
		c-0.6,0.7-1.4,1.1-2.4,1.1s-1.8-0.4-2.4-1.2s-0.9-1.8-0.9-3.1V331.2z M382.2,331.4c0,1,0.2,1.7,0.6,2.2s0.9,0.8,1.6,0.8
		c0.9,0,1.6-0.4,2-1.2v-3.9c-0.4-0.8-1.1-1.2-2-1.2c-0.7,0-1.3,0.3-1.7,0.8C382.4,329.5,382.2,330.3,382.2,331.4z"/>
	<path class="st5" d="M393.6,335.7c-1.1,0-2.1-0.4-2.8-1.1s-1.1-1.8-1.1-3v-0.3c0-0.8,0.2-1.6,0.5-2.2s0.8-1.2,1.3-1.5
		c0.6-0.4,1.2-0.6,1.9-0.6c1.1,0,2,0.4,2.6,1.1s0.9,1.8,0.9,3.1v0.6h-5.7c0,0.8,0.3,1.5,0.7,2c0.5,0.5,1.1,0.8,1.8,0.8
		c0.5,0,0.9-0.1,1.3-0.3c0.4-0.2,0.7-0.5,0.9-0.8l0.9,0.7C396.1,335.1,395,335.7,393.6,335.7z M393.4,328.1c-0.6,0-1.1,0.2-1.5,0.6
		s-0.6,1-0.7,1.8h4.2v-0.1c0-0.7-0.2-1.3-0.6-1.7C394.5,328.3,394,328.1,393.4,328.1z"/>
	<path class="st5" d="M400.2,335.5h-1.4v-12h1.4V335.5z"/>
	<path class="st5" d="M411.7,334.7c-0.6,0.7-1.4,1-2.5,1c-0.9,0-1.6-0.3-2.1-0.8s-0.7-1.3-0.7-2.3v-5.5h1.4v5.5
		c0,1.3,0.5,1.9,1.6,1.9s1.8-0.4,2.2-1.2v-6.1h1.4v8.5h-1.4L411.7,334.7z"/>
	<path class="st5" d="M420.2,333.3c0-0.4-0.1-0.7-0.4-0.9c-0.3-0.2-0.8-0.4-1.5-0.6s-1.3-0.3-1.7-0.6s-0.7-0.5-1-0.8
		c-0.2-0.3-0.3-0.7-0.3-1.1c0-0.7,0.3-1.3,0.9-1.8s1.3-0.7,2.2-0.7c1,0,1.7,0.2,2.3,0.7c0.6,0.5,0.9,1.1,0.9,1.9h-1.5
		c0-0.4-0.2-0.7-0.5-1s-0.8-0.4-1.3-0.4s-0.9,0.1-1.2,0.3s-0.4,0.5-0.4,0.9c0,0.3,0.1,0.6,0.4,0.8c0.3,0.2,0.8,0.3,1.5,0.5
		s1.3,0.4,1.8,0.6c0.4,0.2,0.8,0.5,1,0.8s0.3,0.7,0.3,1.2c0,0.8-0.3,1.4-0.9,1.8c-0.6,0.5-1.4,0.7-2.4,0.7c-0.7,0-1.3-0.1-1.8-0.4
		c-0.5-0.2-0.9-0.6-1.2-1c-0.3-0.4-0.4-0.9-0.4-1.4h1.4c0,0.5,0.2,0.9,0.6,1.2c0.4,0.3,0.8,0.4,1.4,0.4c0.5,0,1-0.1,1.3-0.3
		C420,333.9,420.2,333.6,420.2,333.3z"/>
	<path class="st5" d="M428.7,334.7c-0.6,0.7-1.4,1-2.5,1c-0.9,0-1.6-0.3-2.1-0.8s-0.7-1.3-0.7-2.3v-5.5h1.4v5.5
		c0,1.3,0.5,1.9,1.6,1.9s1.8-0.4,2.2-1.2v-6.1h1.4v8.5h-1.4L428.7,334.7z"/>
	<path class="st5" d="M437.5,335.5c-0.1-0.2-0.2-0.5-0.2-0.9c-0.7,0.7-1.5,1-2.4,1c-0.8,0-1.5-0.2-2.1-0.7c-0.5-0.5-0.8-1.1-0.8-1.8
		c0-0.9,0.3-1.6,1-2.1s1.6-0.7,2.8-0.7h1.4v-0.7c0-0.5-0.2-0.9-0.5-1.2c-0.3-0.3-0.7-0.4-1.3-0.4c-0.5,0-0.9,0.1-1.3,0.4
		c-0.3,0.3-0.5,0.6-0.5,0.9h-1.5c0-0.4,0.1-0.8,0.4-1.2c0.3-0.4,0.7-0.7,1.2-0.9c0.5-0.2,1.1-0.3,1.7-0.3c1,0,1.7,0.2,2.3,0.7
		c0.6,0.5,0.8,1.2,0.9,2v3.9c0,0.8,0.1,1.4,0.3,1.9v0.1L437.5,335.5L437.5,335.5z M435.1,334.4c0.5,0,0.9-0.1,1.3-0.4
		s0.7-0.5,0.9-0.9v-1.7h-1.1c-1.8,0-2.7,0.5-2.7,1.6c0,0.5,0.2,0.8,0.5,1.1C434.3,334.3,434.7,334.4,435.1,334.4z"/>
	<path class="st5" d="M445.1,328.3c-0.2,0-0.5-0.1-0.7-0.1c-0.9,0-1.6,0.4-1.9,1.2v6H441v-8.5h1.4v1c0.5-0.8,1.1-1.1,2-1.1
		c0.3,0,0.5,0,0.6,0.1v1.4H445.1z"/>
	<path class="st5" d="M446.5,324.8c0-0.2,0.1-0.4,0.2-0.6s0.4-0.2,0.6-0.2s0.5,0.1,0.6,0.2c0.1,0.2,0.2,0.4,0.2,0.6
		s-0.1,0.4-0.2,0.6s-0.4,0.2-0.6,0.2s-0.5-0.1-0.6-0.2C446.5,325.2,446.5,325,446.5,324.8z M448,335.5h-1.4V327h1.4V335.5z"/>
	<path class="st5" d="M449.9,331.2c0-0.8,0.2-1.6,0.5-2.2c0.3-0.7,0.8-1.2,1.4-1.5c0.6-0.4,1.2-0.5,2-0.5c1.2,0,2.1,0.4,2.8,1.2
		s1.1,1.9,1.1,3.2v0.1c0,0.8-0.2,1.6-0.5,2.2c-0.3,0.7-0.8,1.2-1.4,1.5s-1.3,0.5-2,0.5c-1.1,0-2.1-0.4-2.8-1.2s-1.1-1.9-1.1-3.2
		V331.2z M451.4,331.4c0,0.9,0.2,1.7,0.7,2.3c0.4,0.6,1,0.9,1.7,0.9s1.3-0.3,1.8-0.9c0.4-0.6,0.6-1.4,0.6-2.4c0-0.9-0.2-1.7-0.7-2.3
		c-0.4-0.6-1-0.9-1.8-0.9c-0.7,0-1.3,0.3-1.7,0.9S451.4,330.3,451.4,331.4z"/>
</g>
<g class="st3">
	<path class="st5" d="M135.7,402.9c-0.1,1.2-0.6,2.1-1.3,2.8c-0.7,0.7-1.7,1-3,1s-2.4-0.5-3.2-1.4c-0.8-1-1.2-2.3-1.2-3.9v-1.1
		c0-1.1,0.2-2,0.6-2.8s0.9-1.4,1.6-1.8s1.5-0.6,2.4-0.6c1.2,0,2.2,0.3,2.9,1s1.2,1.6,1.3,2.8h-1.5c-0.1-0.9-0.4-1.6-0.8-2
		c-0.4-0.4-1-0.6-1.8-0.6c-1,0-1.7,0.4-2.3,1.1c-0.5,0.7-0.8,1.7-0.8,3v1.1c0,1.2,0.3,2.2,0.8,2.9s1.2,1.1,2.2,1.1
		c0.8,0,1.5-0.2,1.9-0.6s0.7-1,0.9-2H135.7z"/>
	<path class="st5" d="M137.1,402.2c0-0.8,0.2-1.6,0.5-2.2c0.3-0.7,0.8-1.2,1.4-1.5c0.6-0.4,1.2-0.5,2-0.5c1.2,0,2.1,0.4,2.8,1.2
		s1.1,1.9,1.1,3.2v0.1c0,0.8-0.2,1.6-0.5,2.2c-0.3,0.7-0.8,1.2-1.4,1.5s-1.3,0.5-2,0.5c-1.1,0-2.1-0.4-2.8-1.2s-1.1-1.9-1.1-3.2
		V402.2z M138.6,402.4c0,0.9,0.2,1.7,0.7,2.3c0.4,0.6,1,0.9,1.7,0.9s1.3-0.3,1.8-0.9c0.4-0.6,0.6-1.4,0.6-2.4c0-0.9-0.2-1.7-0.7-2.3
		c-0.4-0.6-1-0.9-1.8-0.9c-0.7,0-1.3,0.3-1.7,0.9S138.6,401.3,138.6,402.4z"/>
	<path class="st5" d="M148,398v0.9c0.6-0.7,1.5-1.1,2.5-1.1c1.2,0,2,0.5,2.4,1.4c0.3-0.4,0.6-0.7,1.1-1c0.5-0.2,1-0.4,1.6-0.4
		c1.9,0,2.8,1,2.8,2.9v5.7H157v-5.6c0-0.6-0.1-1.1-0.4-1.4c-0.3-0.3-0.7-0.4-1.4-0.4c-0.5,0-1,0.2-1.3,0.5c-0.4,0.3-0.6,0.8-0.6,1.3
		v5.6h-1.5v-5.5c0-1.2-0.6-1.8-1.8-1.8c-0.9,0-1.6,0.4-1.9,1.2v6.2h-1.4V398L148,398L148,398z"/>
	<path class="st5" d="M160.7,395.8c0-0.2,0.1-0.4,0.2-0.6c0.1-0.2,0.4-0.2,0.6-0.2s0.5,0.1,0.6,0.2c0.1,0.2,0.2,0.4,0.2,0.6
		s-0.1,0.4-0.2,0.6c-0.1,0.2-0.4,0.2-0.6,0.2s-0.5-0.1-0.6-0.2C160.7,396.2,160.7,396,160.7,395.8z M162.2,406.5h-1.4V398h1.4V406.5
		z"/>
	<path class="st5" d="M168,406.7c-1.1,0-2.1-0.4-2.8-1.1s-1.1-1.8-1.1-3v-0.3c0-0.8,0.2-1.6,0.5-2.2s0.8-1.2,1.3-1.5
		c0.6-0.4,1.2-0.6,1.9-0.6c1.1,0,2,0.4,2.6,1.1s0.9,1.8,0.9,3.1v0.6h-5.7c0,0.8,0.3,1.5,0.7,2c0.5,0.5,1.1,0.8,1.8,0.8
		c0.5,0,0.9-0.1,1.3-0.3c0.4-0.2,0.7-0.5,0.9-0.8l0.9,0.7C170.5,406.1,169.5,406.7,168,406.7z M167.9,399.1c-0.6,0-1.1,0.2-1.5,0.6
		s-0.6,1-0.7,1.8h4.2v-0.1c0-0.7-0.2-1.3-0.6-1.7C169,399.3,168.5,399.1,167.9,399.1z"/>
	<path class="st5" d="M174.4,398v1.1c0.6-0.8,1.5-1.2,2.5-1.2c1.8,0,2.7,1,2.7,3v5.6h-1.4v-5.6c0-0.6-0.1-1.1-0.4-1.4
		s-0.7-0.4-1.3-0.4c-0.5,0-0.9,0.1-1.2,0.4c-0.4,0.2-0.6,0.6-0.8,1v6H173V398H174.4z"/>
	<path class="st5" d="M183.2,405.3h4.9v1.2h-6.7v-1.1l4.7-6.2h-4.6V398h6.4v1L183.2,405.3z"/>
	<path class="st5" d="M189.3,402.2c0-0.8,0.2-1.6,0.5-2.2c0.3-0.7,0.8-1.2,1.4-1.5c0.6-0.4,1.2-0.5,2-0.5c1.2,0,2.1,0.4,2.8,1.2
		s1.1,1.9,1.1,3.2v0.1c0,0.8-0.2,1.6-0.5,2.2c-0.3,0.7-0.8,1.2-1.4,1.5s-1.3,0.5-2,0.5c-1.1,0-2.1-0.4-2.8-1.2s-1.1-1.9-1.1-3.2
		V402.2z M190.7,402.4c0,0.9,0.2,1.7,0.7,2.3c0.4,0.6,1,0.9,1.7,0.9s1.3-0.3,1.8-0.9c0.4-0.6,0.6-1.4,0.6-2.4c0-0.9-0.2-1.7-0.7-2.3
		c-0.4-0.6-1-0.9-1.8-0.9c-0.7,0-1.3,0.3-1.7,0.9S190.7,401.3,190.7,402.4z"/>
	<path class="st5" d="M202.4,402.2c0-1.3,0.3-2.3,0.9-3.1c0.6-0.8,1.4-1.2,2.4-1.2s1.8,0.3,2.4,1v-4.4h1.4v12h-1.3l-0.1-0.9
		c-0.6,0.7-1.4,1.1-2.4,1.1s-1.8-0.4-2.4-1.2s-0.9-1.8-0.9-3.1L202.4,402.2L202.4,402.2z M203.8,402.4c0,1,0.2,1.7,0.6,2.2
		c0.4,0.5,0.9,0.8,1.6,0.8c0.9,0,1.6-0.4,2-1.2v-3.9c-0.4-0.8-1.1-1.2-2-1.2c-0.7,0-1.3,0.3-1.7,0.8
		C204,400.5,203.8,401.3,203.8,402.4z"/>
	<path class="st5" d="M215.3,406.7c-1.1,0-2.1-0.4-2.8-1.1s-1.1-1.8-1.1-3v-0.3c0-0.8,0.2-1.6,0.5-2.2s0.8-1.2,1.3-1.5
		c0.6-0.4,1.2-0.6,1.9-0.6c1.1,0,2,0.4,2.6,1.1s0.9,1.8,0.9,3.1v0.6h-5.7c0,0.8,0.3,1.5,0.7,2c0.5,0.5,1.1,0.8,1.8,0.8
		c0.5,0,0.9-0.1,1.3-0.3c0.4-0.2,0.7-0.5,0.9-0.8l0.9,0.7C217.7,406.1,216.7,406.7,215.3,406.7z M215.1,399.1
		c-0.6,0-1.1,0.2-1.5,0.6s-0.6,1-0.7,1.8h4.2v-0.1c0-0.7-0.2-1.3-0.6-1.7C216.2,399.3,215.7,399.1,215.1,399.1z"/>
	<path class="st5" d="M226.2,396v2h1.6v1.1h-1.6v5.2c0,0.3,0.1,0.6,0.2,0.8c0.1,0.2,0.4,0.3,0.7,0.3c0.2,0,0.4,0,0.7-0.1v1.2
		c-0.4,0.1-0.8,0.2-1.1,0.2c-0.6,0-1.1-0.2-1.5-0.6s-0.5-0.9-0.5-1.7v-5.2h-1.5v-1.1h1.5v-2L226.2,396L226.2,396z"/>
	<path class="st5" d="M233.5,399.3c-0.2,0-0.5-0.1-0.7-0.1c-0.9,0-1.6,0.4-1.9,1.2v6h-1.4v-8.5h1.4v1c0.5-0.8,1.1-1.1,2-1.1
		c0.3,0,0.5,0,0.6,0.1L233.5,399.3L233.5,399.3z"/>
	<path class="st5" d="M239.7,406.5c-0.1-0.2-0.2-0.5-0.2-0.9c-0.7,0.7-1.5,1-2.4,1c-0.8,0-1.5-0.2-2.1-0.7c-0.5-0.5-0.8-1.1-0.8-1.8
		c0-0.9,0.3-1.6,1-2.1s1.6-0.7,2.8-0.7h1.4v-0.7c0-0.5-0.2-0.9-0.5-1.2c-0.3-0.3-0.7-0.4-1.3-0.4c-0.5,0-0.9,0.1-1.3,0.4
		c-0.3,0.3-0.5,0.6-0.5,0.9h-1.5c0-0.4,0.1-0.8,0.4-1.2c0.3-0.4,0.7-0.7,1.2-0.9c0.5-0.2,1.1-0.3,1.7-0.3c1,0,1.7,0.2,2.3,0.7
		s0.8,1.2,0.9,2v3.9c0,0.8,0.1,1.4,0.3,1.9v0.1L239.7,406.5L239.7,406.5z M237.3,405.4c0.5,0,0.9-0.1,1.3-0.4s0.7-0.5,0.9-0.9v-1.7
		h-1.1c-1.8,0-2.7,0.5-2.7,1.6c0,0.5,0.2,0.8,0.5,1.1C236.5,405.3,236.9,405.4,237.3,405.4z"/>
	<path class="st5" d="M244.6,398v1.1c0.6-0.8,1.5-1.2,2.5-1.2c1.8,0,2.7,1,2.7,3v5.6h-1.4v-5.6c0-0.6-0.1-1.1-0.4-1.4
		s-0.7-0.4-1.3-0.4c-0.5,0-0.9,0.1-1.2,0.4c-0.4,0.2-0.6,0.6-0.8,1v6h-1.4V398H244.6z"/>
	<path class="st5" d="M257,404.3c0-0.4-0.1-0.7-0.4-0.9c-0.3-0.2-0.8-0.4-1.5-0.6s-1.3-0.3-1.7-0.6s-0.7-0.5-1-0.8
		c-0.2-0.3-0.3-0.7-0.3-1.1c0-0.7,0.3-1.3,0.9-1.8s1.3-0.7,2.2-0.7c1,0,1.7,0.2,2.3,0.7s0.9,1.1,0.9,1.9h-1.5c0-0.4-0.2-0.7-0.5-1
		s-0.8-0.4-1.3-0.4s-0.9,0.1-1.2,0.3s-0.4,0.5-0.4,0.9c0,0.3,0.1,0.6,0.4,0.8c0.3,0.2,0.8,0.3,1.5,0.5c0.7,0.2,1.3,0.4,1.8,0.6
		c0.4,0.2,0.8,0.5,1,0.8s0.3,0.7,0.3,1.2c0,0.8-0.3,1.4-0.9,1.8c-0.6,0.5-1.4,0.7-2.4,0.7c-0.7,0-1.3-0.1-1.8-0.4
		c-0.5-0.2-0.9-0.6-1.2-1s-0.4-0.9-0.4-1.4h1.4c0,0.5,0.2,0.9,0.6,1.2c0.4,0.3,0.8,0.4,1.4,0.4c0.5,0,1-0.1,1.3-0.3
		C256.8,404.9,257,404.6,257,404.3z"/>
	<path class="st5" d="M265.5,406.5c-0.1-0.2-0.2-0.5-0.2-0.9c-0.7,0.7-1.5,1-2.4,1c-0.8,0-1.5-0.2-2.1-0.7c-0.5-0.5-0.8-1.1-0.8-1.8
		c0-0.9,0.3-1.6,1-2.1s1.6-0.7,2.8-0.7h1.4v-0.7c0-0.5-0.2-0.9-0.5-1.2c-0.3-0.3-0.7-0.4-1.3-0.4c-0.5,0-0.9,0.1-1.3,0.4
		c-0.3,0.3-0.5,0.6-0.5,0.9h-1.5c0-0.4,0.1-0.8,0.4-1.2c0.3-0.4,0.7-0.7,1.2-0.9c0.5-0.2,1.1-0.3,1.7-0.3c1,0,1.7,0.2,2.3,0.7
		c0.6,0.5,0.8,1.2,0.9,2v3.9c0,0.8,0.1,1.4,0.3,1.9v0.1L265.5,406.5L265.5,406.5z M263.1,405.4c0.5,0,0.9-0.1,1.3-0.4
		s0.7-0.5,0.9-0.9v-1.7h-1.1c-1.8,0-2.7,0.5-2.7,1.6c0,0.5,0.2,0.8,0.5,1.1C262.3,405.3,262.7,405.4,263.1,405.4z"/>
	<path class="st5" d="M272.4,405.5c0.5,0,1-0.2,1.4-0.5s0.6-0.7,0.6-1.2h1.4c0,0.5-0.2,0.9-0.5,1.4c-0.3,0.4-0.7,0.8-1.2,1
		c-0.5,0.3-1.1,0.4-1.6,0.4c-1.2,0-2.1-0.4-2.7-1.2s-1-1.8-1-3.2V402c0-0.8,0.2-1.6,0.5-2.2s0.7-1.1,1.3-1.5c0.6-0.4,1.2-0.5,2-0.5
		c0.9,0,1.7,0.3,2.4,0.9c0.6,0.6,1,1.3,1,2.2h-1.4c0-0.5-0.2-1-0.6-1.3c-0.4-0.4-0.8-0.5-1.4-0.5c-0.7,0-1.3,0.3-1.7,0.8
		c-0.4,0.5-0.6,1.3-0.6,2.3v0.3c0,1,0.2,1.7,0.6,2.2C271.1,405.2,271.7,405.5,272.4,405.5z"/>
	<path class="st5" d="M280.8,405.5c0.5,0,1-0.2,1.4-0.5s0.6-0.7,0.6-1.2h1.4c0,0.5-0.2,0.9-0.5,1.4c-0.3,0.4-0.7,0.8-1.2,1
		c-0.5,0.3-1.1,0.4-1.6,0.4c-1.2,0-2.1-0.4-2.7-1.2s-1-1.8-1-3.2V402c0-0.8,0.2-1.6,0.5-2.2s0.7-1.1,1.3-1.5c0.6-0.4,1.2-0.5,2-0.5
		c0.9,0,1.7,0.3,2.4,0.9c0.6,0.6,1,1.3,1,2.2H283c0-0.5-0.2-1-0.6-1.3c-0.4-0.4-0.8-0.5-1.4-0.5c-0.7,0-1.3,0.3-1.7,0.8
		c-0.4,0.5-0.6,1.3-0.6,2.3v0.3c0,1,0.2,1.7,0.6,2.2C279.5,405.2,280,405.5,280.8,405.5z"/>
	<path class="st5" d="M285.8,395.8c0-0.2,0.1-0.4,0.2-0.6s0.4-0.2,0.6-0.2s0.5,0.1,0.6,0.2c0.1,0.2,0.2,0.4,0.2,0.6
		s-0.1,0.4-0.2,0.6s-0.4,0.2-0.6,0.2s-0.5-0.1-0.6-0.2C285.8,396.2,285.8,396,285.8,395.8z M287.3,406.5h-1.4V398h1.4V406.5z"/>
	<path class="st5" d="M289.3,402.2c0-0.8,0.2-1.6,0.5-2.2c0.3-0.7,0.8-1.2,1.4-1.5c0.6-0.4,1.2-0.5,2-0.5c1.2,0,2.1,0.4,2.8,1.2
		s1.1,1.9,1.1,3.2v0.1c0,0.8-0.2,1.6-0.5,2.2c-0.3,0.7-0.8,1.2-1.4,1.5s-1.3,0.5-2,0.5c-1.1,0-2.1-0.4-2.8-1.2s-1.1-1.9-1.1-3.2
		V402.2z M290.7,402.4c0,0.9,0.2,1.7,0.7,2.3c0.4,0.6,1,0.9,1.7,0.9s1.3-0.3,1.8-0.9c0.4-0.6,0.6-1.4,0.6-2.4c0-0.9-0.2-1.7-0.7-2.3
		c-0.4-0.6-1-0.9-1.8-0.9c-0.7,0-1.3,0.3-1.7,0.9S290.7,401.3,290.7,402.4z M293.8,394.5h1.8l-2.1,2.3h-1.2L293.8,394.5z"/>
	<path class="st5" d="M300.1,398v1.1c0.6-0.8,1.5-1.2,2.5-1.2c1.8,0,2.7,1,2.7,3v5.6H304v-5.6c0-0.6-0.1-1.1-0.4-1.4
		s-0.7-0.4-1.3-0.4c-0.5,0-0.9,0.1-1.2,0.4c-0.4,0.2-0.6,0.6-0.8,1v6h-1.4V398H300.1z"/>
</g>
<g class="st3">
	<path class="st5" d="M128.9,253.5h-1.5v-11.4h1.5V253.5z"/>
	<path class="st5" d="M131.7,253.5v-11.4h3.2c1,0,1.9,0.2,2.6,0.7c0.8,0.4,1.3,1.1,1.8,1.9s0.6,1.7,0.6,2.8v0.7c0,1.1-0.2,2-0.6,2.8
		s-1,1.4-1.8,1.9c-0.8,0.4-1.7,0.7-2.7,0.7L131.7,253.5L131.7,253.5z M133.2,243.4v8.9h1.6c1.2,0,2.1-0.4,2.7-1.1
		c0.6-0.7,1-1.7,1-3.1v-0.6c0-1.3-0.3-2.3-0.9-3c-0.6-0.7-1.5-1.1-2.6-1.1H133.2z"/>
	<path class="st5" d="M145.5,249.2c0-1.3,0.3-2.3,0.9-3.1c0.6-0.8,1.4-1.2,2.4-1.2s1.8,0.3,2.4,1v-4.4h1.4v12h-1.3l-0.1-0.9
		c-0.6,0.7-1.4,1.1-2.4,1.1s-1.8-0.4-2.4-1.2s-0.9-1.8-0.9-3.1L145.5,249.2L145.5,249.2z M147,249.4c0,1,0.2,1.7,0.6,2.2
		c0.4,0.5,0.9,0.8,1.6,0.8c0.9,0,1.6-0.4,2-1.2v-3.9c-0.4-0.8-1.1-1.2-2-1.2c-0.7,0-1.3,0.3-1.7,0.8
		C147.2,247.5,147,248.3,147,249.4z"/>
	<path class="st5" d="M158.4,253.7c-1.1,0-2.1-0.4-2.8-1.1s-1.1-1.8-1.1-3v-0.3c0-0.8,0.2-1.6,0.5-2.2s0.8-1.2,1.3-1.5
		c0.6-0.4,1.2-0.6,1.9-0.6c1.1,0,2,0.4,2.6,1.1s0.9,1.8,0.9,3.1v0.6H156c0,0.8,0.3,1.5,0.7,2c0.5,0.5,1.1,0.8,1.8,0.8
		c0.5,0,0.9-0.1,1.3-0.3c0.4-0.2,0.7-0.5,0.9-0.8l0.9,0.7C160.9,253.1,159.8,253.7,158.4,253.7z M158.2,246.1
		c-0.6,0-1.1,0.2-1.5,0.6c-0.4,0.4-0.6,1-0.7,1.8h4.2v-0.1c0-0.7-0.2-1.3-0.6-1.7C159.3,246.3,158.9,246.1,158.2,246.1z"/>
	<path class="st5" d="M169.3,243v2h1.6v1.1h-1.6v5.2c0,0.3,0.1,0.6,0.2,0.8c0.1,0.2,0.4,0.3,0.7,0.3c0.2,0,0.4,0,0.7-0.1v1.2
		c-0.4,0.1-0.8,0.2-1.1,0.2c-0.6,0-1.1-0.2-1.5-0.6s-0.5-0.9-0.5-1.7v-5.2h-1.5v-1.1h1.5v-2L169.3,243L169.3,243z"/>
	<path class="st5" d="M176.7,246.3c-0.2,0-0.5-0.1-0.7-0.1c-0.9,0-1.6,0.4-1.9,1.2v6h-1.4v-8.5h1.4v1c0.5-0.8,1.1-1.1,2-1.1
		c0.3,0,0.5,0,0.6,0.1L176.7,246.3L176.7,246.3z"/>
	<path class="st5" d="M182.9,253.5c-0.1-0.2-0.2-0.5-0.2-0.9c-0.7,0.7-1.5,1-2.4,1c-0.8,0-1.5-0.2-2.1-0.7c-0.5-0.5-0.8-1.1-0.8-1.8
		c0-0.9,0.3-1.6,1-2.1s1.6-0.7,2.8-0.7h1.4v-0.7c0-0.5-0.2-0.9-0.5-1.2s-0.7-0.4-1.3-0.4c-0.5,0-0.9,0.1-1.3,0.4
		c-0.3,0.3-0.5,0.6-0.5,0.9h-1.5c0-0.4,0.1-0.8,0.4-1.2c0.3-0.4,0.7-0.7,1.2-0.9s1.1-0.3,1.7-0.3c1,0,1.7,0.2,2.3,0.7s0.8,1.2,0.9,2
		v3.9c0,0.8,0.1,1.4,0.3,1.9v0.1H182.9z M180.5,252.4c0.5,0,0.9-0.1,1.3-0.4s0.7-0.5,0.9-0.9v-1.7h-1.1c-1.8,0-2.7,0.5-2.7,1.6
		c0,0.5,0.2,0.8,0.5,1.1C179.6,252.3,180,252.4,180.5,252.4z"/>
	<path class="st5" d="M187.8,245v1.1c0.6-0.8,1.5-1.2,2.5-1.2c1.8,0,2.7,1,2.7,3v5.6h-1.4v-5.6c0-0.6-0.1-1.1-0.4-1.4
		s-0.7-0.4-1.3-0.4c-0.5,0-0.9,0.1-1.2,0.4c-0.4,0.2-0.6,0.6-0.8,1v6h-1.4V245L187.8,245L187.8,245z"/>
	<path class="st5" d="M200.1,251.3c0-0.4-0.1-0.7-0.4-0.9c-0.3-0.2-0.8-0.4-1.5-0.6c-0.7-0.2-1.3-0.3-1.7-0.6s-0.7-0.5-1-0.8
		c-0.2-0.3-0.3-0.7-0.3-1.1c0-0.7,0.3-1.3,0.9-1.8s1.3-0.7,2.2-0.7c1,0,1.7,0.2,2.3,0.7s0.9,1.1,0.9,1.9H200c0-0.4-0.2-0.7-0.5-1
		s-0.8-0.4-1.3-0.4s-0.9,0.1-1.2,0.3s-0.4,0.5-0.4,0.9c0,0.3,0.1,0.6,0.4,0.8c0.3,0.2,0.8,0.3,1.5,0.5s1.3,0.4,1.8,0.6
		c0.4,0.2,0.8,0.5,1,0.8s0.3,0.7,0.3,1.2c0,0.8-0.3,1.4-0.9,1.8c-0.6,0.5-1.4,0.7-2.4,0.7c-0.7,0-1.3-0.1-1.8-0.4
		c-0.5-0.2-0.9-0.6-1.2-1s-0.4-0.9-0.4-1.4h1.4c0,0.5,0.2,0.9,0.6,1.2c0.4,0.3,0.8,0.4,1.4,0.4c0.5,0,1-0.1,1.3-0.3
		C200,251.9,200.1,251.6,200.1,251.3z"/>
	<path class="st5" d="M208.7,253.5c-0.1-0.2-0.2-0.5-0.2-0.9c-0.7,0.7-1.5,1-2.4,1c-0.8,0-1.5-0.2-2.1-0.7c-0.5-0.5-0.8-1.1-0.8-1.8
		c0-0.9,0.3-1.6,1-2.1s1.6-0.7,2.8-0.7h1.4v-0.7c0-0.5-0.2-0.9-0.5-1.2s-0.7-0.4-1.3-0.4c-0.5,0-0.9,0.1-1.3,0.4
		c-0.3,0.3-0.5,0.6-0.5,0.9h-1.5c0-0.4,0.1-0.8,0.4-1.2c0.3-0.4,0.7-0.7,1.2-0.9s1.1-0.3,1.7-0.3c1,0,1.7,0.2,2.3,0.7s0.8,1.2,0.9,2
		v3.9c0,0.8,0.1,1.4,0.3,1.9v0.1H208.7z M206.3,252.4c0.5,0,0.9-0.1,1.3-0.4s0.7-0.5,0.9-0.9v-1.7h-1.1c-1.8,0-2.7,0.5-2.7,1.6
		c0,0.5,0.2,0.8,0.5,1.1C205.4,252.3,205.8,252.4,206.3,252.4z"/>
	<path class="st5" d="M215.6,252.5c0.5,0,1-0.2,1.4-0.5s0.6-0.7,0.6-1.2h1.4c0,0.5-0.2,0.9-0.5,1.4c-0.3,0.4-0.7,0.8-1.2,1
		c-0.5,0.3-1.1,0.4-1.6,0.4c-1.2,0-2.1-0.4-2.7-1.2s-1-1.8-1-3.2V249c0-0.8,0.2-1.6,0.5-2.2c0.3-0.6,0.7-1.1,1.3-1.5s1.2-0.5,2-0.5
		c0.9,0,1.7,0.3,2.4,0.9c0.6,0.6,1,1.3,1,2.2h-1.4c0-0.5-0.2-1-0.6-1.3c-0.4-0.4-0.8-0.5-1.4-0.5c-0.7,0-1.3,0.3-1.7,0.8
		s-0.6,1.3-0.6,2.3v0.3c0,1,0.2,1.7,0.6,2.2C214.2,252.2,214.8,252.5,215.6,252.5z"/>
	<path class="st5" d="M223.9,252.5c0.5,0,1-0.2,1.4-0.5s0.6-0.7,0.6-1.2h1.4c0,0.5-0.2,0.9-0.5,1.4c-0.3,0.4-0.7,0.8-1.2,1
		c-0.5,0.3-1.1,0.4-1.6,0.4c-1.2,0-2.1-0.4-2.7-1.2s-1-1.8-1-3.2V249c0-0.8,0.2-1.6,0.5-2.2c0.3-0.6,0.7-1.1,1.3-1.5s1.2-0.5,2-0.5
		c0.9,0,1.7,0.3,2.4,0.9c0.6,0.6,1,1.3,1,2.2h-1.4c0-0.5-0.2-1-0.6-1.3c-0.4-0.4-0.8-0.5-1.4-0.5c-0.7,0-1.3,0.3-1.7,0.8
		s-0.6,1.3-0.6,2.3v0.3c0,1,0.2,1.7,0.6,2.2C222.6,252.2,223.2,252.5,223.9,252.5z"/>
	<path class="st5" d="M228.9,242.8c0-0.2,0.1-0.4,0.2-0.6c0.1-0.2,0.4-0.2,0.6-0.2s0.5,0.1,0.6,0.2c0.1,0.2,0.2,0.4,0.2,0.6
		s-0.1,0.4-0.2,0.6c-0.1,0.2-0.4,0.2-0.6,0.2s-0.5-0.1-0.6-0.2C229,243.2,228.9,243,228.9,242.8z M230.5,253.5H229V245h1.4v8.5
		H230.5z"/>
	<path class="st5" d="M232.4,249.2c0-0.8,0.2-1.6,0.5-2.2c0.3-0.7,0.8-1.2,1.4-1.5c0.6-0.4,1.2-0.5,2-0.5c1.2,0,2.1,0.4,2.8,1.2
		s1.1,1.9,1.1,3.2v0.1c0,0.8-0.2,1.6-0.5,2.2c-0.3,0.7-0.8,1.2-1.4,1.5s-1.3,0.5-2,0.5c-1.1,0-2.1-0.4-2.8-1.2s-1.1-1.9-1.1-3.2
		V249.2z M233.9,249.4c0,0.9,0.2,1.7,0.7,2.3c0.4,0.6,1,0.9,1.7,0.9s1.3-0.3,1.8-0.9c0.4-0.6,0.6-1.4,0.6-2.4c0-0.9-0.2-1.7-0.7-2.3
		c-0.4-0.6-1-0.9-1.8-0.9c-0.7,0-1.3,0.3-1.7,0.9S233.9,248.3,233.9,249.4z M236.9,241.5h1.8l-2.1,2.3h-1.2L236.9,241.5z"/>
	<path class="st5" d="M243.3,245v1.1c0.6-0.8,1.5-1.2,2.5-1.2c1.8,0,2.7,1,2.7,3v5.6h-1.4v-5.6c0-0.6-0.1-1.1-0.4-1.4
		s-0.7-0.4-1.3-0.4c-0.5,0-0.9,0.1-1.2,0.4c-0.4,0.2-0.6,0.6-0.8,1v6H242V245L243.3,245L243.3,245z"/>
</g>
<g class="st3">
	<path class="st4" d="M429.8,180.6h5v1.9h-7.3v-11.4h2.3V180.6z"/>
	<path class="st4" d="M435.6,178.2c0-0.8,0.2-1.6,0.5-2.2s0.8-1.2,1.4-1.5s1.3-0.5,2.1-0.5c1.1,0,2.1,0.3,2.8,1s1.1,1.6,1.2,2.8v0.6
		c0,1.3-0.4,2.3-1.1,3.1s-1.7,1.2-2.9,1.2s-2.2-0.4-2.9-1.2s-1.1-1.8-1.1-3.2V178.2z M437.9,178.4c0,0.8,0.2,1.4,0.5,1.8
		s0.7,0.6,1.3,0.6c0.5,0,1-0.2,1.3-0.6s0.5-1.1,0.5-2c0-0.8-0.2-1.4-0.5-1.8s-0.7-0.6-1.3-0.6c-0.6,0-1,0.2-1.3,0.6
		S437.9,177.5,437.9,178.4z M440.1,170.5h2.5l-2.2,2.4h-1.8L440.1,170.5z"/>
	<path class="st4" d="M444.7,178.2c0-1.3,0.3-2.3,0.9-3.1s1.4-1.2,2.5-1.2c0.9,0,1.6,0.3,2.2,1l0.1-0.8h2v8.2c0,0.7-0.2,1.4-0.5,1.9
		s-0.8,1-1.4,1.2s-1.3,0.4-2.1,0.4c-0.6,0-1.2-0.1-1.8-0.4s-1-0.6-1.3-1l1-1.4c0.6,0.6,1.2,0.9,2,0.9c0.6,0,1.1-0.2,1.4-0.5
		s0.5-0.8,0.5-1.4v-0.5c-0.5,0.6-1.2,0.9-2.1,0.9c-1,0-1.8-0.4-2.5-1.2S444.7,179.6,444.7,178.2L444.7,178.2z M447,178.4
		c0,0.8,0.2,1.4,0.5,1.8s0.7,0.7,1.3,0.7c0.7,0,1.2-0.3,1.5-0.8v-3.6c-0.3-0.5-0.8-0.8-1.5-0.8c-0.5,0-1,0.2-1.3,0.7
		S447,177.5,447,178.4z"/>
	<path class="st4" d="M454.2,171.9c0-0.3,0.1-0.6,0.3-0.8s0.5-0.3,0.9-0.3s0.7,0.1,0.9,0.3s0.3,0.5,0.3,0.8s-0.1,0.6-0.3,0.8
		s-0.5,0.3-0.9,0.3s-0.7-0.1-0.9-0.3S454.2,172.2,454.2,171.9z M456.6,182.5h-2.3V174h2.3V182.5z"/>
	<path class="st4" d="M461.9,180.8c0.4,0,0.8-0.1,1-0.3s0.4-0.5,0.4-0.9h2.1c0,0.6-0.2,1.1-0.5,1.6s-0.7,0.8-1.3,1.1
		s-1.1,0.4-1.8,0.4c-1.2,0-2.2-0.4-2.9-1.2s-1-1.8-1-3.2v-0.1c0-1.3,0.3-2.3,1-3.1s1.6-1.2,2.9-1.2c1.1,0,1.9,0.3,2.5,0.9
		s1,1.4,1,2.4h-2.1c0-0.4-0.1-0.8-0.4-1.1s-0.6-0.4-1-0.4c-0.5,0-0.9,0.2-1.2,0.6s-0.4,1-0.4,1.9v0.2c0,0.9,0.1,1.5,0.4,1.9
		S461.4,180.8,461.9,180.8z"/>
	<path class="st4" d="M471.7,182.5c-0.1-0.2-0.2-0.5-0.2-0.8c-0.5,0.6-1.3,0.9-2.1,0.9c-0.8,0-1.5-0.2-2.1-0.7s-0.8-1.1-0.8-1.8
		c0-0.9,0.3-1.6,1-2.1s1.6-0.7,2.9-0.7h1v-0.5c0-0.4-0.1-0.7-0.3-0.9s-0.5-0.4-0.9-0.4s-0.7,0.1-0.9,0.3s-0.3,0.4-0.3,0.8h-2.3
		c0-0.5,0.2-0.9,0.5-1.4s0.7-0.7,1.3-1s1.2-0.4,1.9-0.4c1,0,1.9,0.3,2.5,0.8s0.9,1.3,0.9,2.2v3.7c0,0.8,0.1,1.4,0.3,1.8v0.1
		L471.7,182.5L471.7,182.5z M469.8,180.9c0.3,0,0.6-0.1,0.9-0.2s0.5-0.3,0.6-0.6v-1.5h-0.8c-1.1,0-1.7,0.4-1.8,1.2v0.1
		c0,0.3,0.1,0.5,0.3,0.7S469.5,180.9,469.8,180.9z"/>
	<path class="st4" d="M479,178.2c0-1.3,0.3-2.4,0.9-3.1s1.4-1.2,2.4-1.2c0.8,0,1.5,0.3,2,0.9v-4.3h2.3v12h-2l-0.1-0.9
		c-0.6,0.7-1.3,1.1-2.2,1.1c-1,0-1.8-0.4-2.4-1.2S479,179.6,479,178.2z M481.2,178.4c0,0.8,0.1,1.4,0.4,1.8s0.7,0.6,1.2,0.6
		c0.7,0,1.2-0.3,1.5-0.9v-3.3c-0.3-0.6-0.8-0.9-1.5-0.9C481.8,175.7,481.2,176.6,481.2,178.4z"/>
	<path class="st4" d="M492.2,182.7c-1.2,0-2.2-0.4-3-1.1s-1.2-1.8-1.2-3v-0.2c0-0.8,0.2-1.6,0.5-2.3s0.8-1.2,1.4-1.5
		s1.3-0.5,2.1-0.5c1.2,0,2.1,0.4,2.7,1.1s1,1.8,1,3.1v0.9h-5.4c0.1,0.6,0.3,1,0.7,1.3s0.8,0.5,1.4,0.5c0.9,0,1.5-0.3,2-0.9l1.1,1.2
		c-0.3,0.5-0.8,0.9-1.4,1.1S492.9,182.7,492.2,182.7z M492,175.7c-0.4,0-0.8,0.2-1.1,0.5s-0.5,0.7-0.5,1.3h3.1v-0.2
		c0-0.5-0.1-0.9-0.4-1.2S492.5,175.7,492,175.7z"/>
	<path class="st4" d="M503.1,174l0.1,1c0.6-0.8,1.4-1.1,2.4-1.1c0.9,0,1.6,0.3,2,0.8s0.7,1.3,0.7,2.4v5.5H506v-5.4
		c0-0.5-0.1-0.8-0.3-1s-0.6-0.3-1-0.3c-0.6,0-1.1,0.3-1.4,0.8v6H501v-8.5h2.1V174z"/>
	<path class="st4" d="M513.8,182.7c-1.2,0-2.2-0.4-3-1.1s-1.2-1.8-1.2-3v-0.2c0-0.8,0.2-1.6,0.5-2.3s0.8-1.2,1.4-1.5
		s1.3-0.5,2.1-0.5c1.2,0,2.1,0.4,2.7,1.1s1,1.8,1,3.1v0.9h-5.4c0.1,0.6,0.3,1,0.7,1.3s0.8,0.5,1.4,0.5c0.9,0,1.5-0.3,2-0.9l1.1,1.2
		c-0.3,0.5-0.8,0.9-1.4,1.1S514.5,182.7,513.8,182.7z M513.6,175.7c-0.4,0-0.8,0.2-1.1,0.5s-0.5,0.7-0.5,1.3h3.1v-0.2
		c0-0.5-0.1-0.9-0.4-1.2S514,175.7,513.6,175.7z"/>
	<path class="st4" d="M518.3,178.2c0-1.3,0.3-2.3,0.9-3.1s1.4-1.2,2.5-1.2c0.9,0,1.6,0.3,2.2,1l0.1-0.8h2v8.2c0,0.7-0.2,1.4-0.5,1.9
		s-0.8,1-1.4,1.2s-1.3,0.4-2.1,0.4c-0.6,0-1.2-0.1-1.8-0.4s-1-0.6-1.3-1l1-1.4c0.6,0.6,1.2,0.9,2,0.9c0.6,0,1.1-0.2,1.4-0.5
		s0.5-0.8,0.5-1.4v-0.5c-0.5,0.6-1.2,0.9-2.1,0.9c-1,0-1.8-0.4-2.5-1.2S518.3,179.6,518.3,178.2L518.3,178.2z M520.5,178.4
		c0,0.8,0.2,1.4,0.5,1.8s0.7,0.7,1.3,0.7c0.7,0,1.2-0.3,1.5-0.8v-3.6c-0.3-0.5-0.8-0.8-1.5-0.8c-0.5,0-1,0.2-1.3,0.7
		S520.5,177.5,520.5,178.4z"/>
	<path class="st4" d="M527.4,178.2c0-0.8,0.2-1.6,0.5-2.2s0.8-1.2,1.4-1.5s1.3-0.5,2.1-0.5c1.1,0,2.1,0.3,2.8,1s1.1,1.6,1.2,2.8v0.6
		c0,1.3-0.4,2.3-1.1,3.1s-1.7,1.2-2.9,1.2s-2.2-0.4-2.9-1.2s-1.1-1.8-1.1-3.2V178.2z M529.6,178.4c0,0.8,0.2,1.4,0.5,1.8
		s0.7,0.6,1.3,0.6c0.5,0,1-0.2,1.3-0.6s0.5-1.1,0.5-2c0-0.8-0.2-1.4-0.5-1.8s-0.7-0.6-1.3-0.6s-1,0.2-1.3,0.6
		S529.6,177.5,529.6,178.4z"/>
	<path class="st4" d="M540.3,180.8c0.4,0,0.8-0.1,1-0.3s0.4-0.5,0.4-0.9h2.1c0,0.6-0.2,1.1-0.5,1.6s-0.7,0.8-1.3,1.1
		s-1.1,0.4-1.8,0.4c-1.2,0-2.2-0.4-2.9-1.2s-1-1.8-1-3.2v-0.1c0-1.3,0.3-2.3,1-3.1s1.6-1.2,2.9-1.2c1.1,0,1.9,0.3,2.5,0.9
		s1,1.4,1,2.4h-2.1c0-0.4-0.1-0.8-0.4-1.1c-0.3-0.3-0.6-0.4-1-0.4c-0.5,0-0.9,0.2-1.2,0.6s-0.4,1-0.4,1.9v0.2c0,0.9,0.1,1.5,0.4,1.9
		S539.7,180.8,540.3,180.8z"/>
	<path class="st4" d="M545.1,171.9c0-0.3,0.1-0.6,0.3-0.8s0.5-0.3,0.9-0.3s0.7,0.1,0.9,0.3s0.3,0.5,0.3,0.8s-0.1,0.6-0.3,0.8
		s-0.5,0.3-0.9,0.3s-0.7-0.1-0.9-0.3S545.1,172.2,545.1,171.9z M547.5,182.5h-2.3V174h2.3V182.5z"/>
	<path class="st4" d="M549,178.2c0-0.8,0.2-1.6,0.5-2.2s0.8-1.2,1.4-1.5s1.3-0.5,2.1-0.5c1.1,0,2.1,0.3,2.8,1s1.1,1.6,1.2,2.8v0.6
		c0,1.3-0.4,2.3-1.1,3.1s-1.7,1.2-2.9,1.2s-2.2-0.4-2.9-1.2s-1.1-1.8-1.1-3.2V178.2z M551.3,178.4c0,0.8,0.2,1.4,0.5,1.8
		s0.7,0.6,1.3,0.6c0.5,0,1-0.2,1.3-0.6s0.5-1.1,0.5-2c0-0.8-0.2-1.4-0.5-1.8s-0.7-0.6-1.3-0.6s-1,0.2-1.3,0.6
		S551.3,177.5,551.3,178.4z"/>
</g>
<g class="st3">
	<path class="st4" d="M430.7,275.6h5v1.9h-7.3v-11.4h2.3V275.6z"/>
	<path class="st4" d="M436.5,273.2c0-0.8,0.2-1.6,0.5-2.2c0.3-0.7,0.8-1.2,1.4-1.5c0.6-0.4,1.3-0.5,2.1-0.5c1.1,0,2.1,0.3,2.8,1
		c0.7,0.7,1.1,1.6,1.2,2.8v0.6c0,1.3-0.4,2.3-1.1,3.1c-0.7,0.8-1.7,1.2-2.9,1.2s-2.2-0.4-2.9-1.2S436.5,274.7,436.5,273.2
		L436.5,273.2z M438.8,273.4c0,0.8,0.2,1.4,0.5,1.8s0.7,0.6,1.3,0.6c0.5,0,1-0.2,1.3-0.6s0.5-1.1,0.5-2c0-0.8-0.2-1.4-0.5-1.8
		s-0.7-0.6-1.3-0.6c-0.6,0-1,0.2-1.3,0.6C438.9,271.8,438.8,272.5,438.8,273.4z M440.9,265.5h2.5l-2.2,2.4h-1.8L440.9,265.5z"/>
	<path class="st4" d="M445.6,273.2c0-1.3,0.3-2.3,0.9-3.1s1.4-1.2,2.5-1.2c0.9,0,1.6,0.3,2.2,1l0.1-0.8h2v8.2c0,0.7-0.2,1.4-0.5,1.9
		s-0.8,1-1.4,1.2s-1.3,0.4-2.1,0.4c-0.6,0-1.2-0.1-1.8-0.4c-0.6-0.2-1-0.6-1.3-1l1-1.4c0.6,0.6,1.2,0.9,2,0.9c0.6,0,1.1-0.2,1.4-0.5
		s0.5-0.8,0.5-1.4v-0.5c-0.5,0.6-1.2,0.9-2.1,0.9c-1,0-1.8-0.4-2.5-1.2C445.9,275.7,445.6,274.6,445.6,273.2L445.6,273.2z
		 M447.8,273.4c0,0.8,0.2,1.4,0.5,1.8s0.7,0.7,1.3,0.7c0.7,0,1.2-0.3,1.5-0.8v-3.6c-0.3-0.5-0.8-0.8-1.5-0.8c-0.5,0-1,0.2-1.3,0.7
		C448,271.8,447.8,272.5,447.8,273.4z"/>
	<path class="st4" d="M455,266.9c0-0.3,0.1-0.6,0.3-0.8s0.5-0.3,0.9-0.3s0.7,0.1,0.9,0.3c0.2,0.2,0.3,0.5,0.3,0.8s-0.1,0.6-0.3,0.8
		c-0.2,0.2-0.5,0.3-0.9,0.3s-0.7-0.1-0.9-0.3S455,267.2,455,266.9z M457.4,277.5h-2.3V269h2.3V277.5z"/>
	<path class="st4" d="M462.8,275.8c0.4,0,0.8-0.1,1-0.3c0.3-0.2,0.4-0.5,0.4-0.9h2.1c0,0.6-0.2,1.1-0.5,1.6s-0.7,0.8-1.3,1.1
		c-0.5,0.3-1.1,0.4-1.8,0.4c-1.2,0-2.2-0.4-2.9-1.2c-0.7-0.8-1-1.8-1-3.2v-0.1c0-1.3,0.3-2.3,1-3.1c0.7-0.8,1.6-1.2,2.9-1.2
		c1.1,0,1.9,0.3,2.5,0.9s1,1.4,1,2.4h-2.1c0-0.4-0.1-0.8-0.4-1.1c-0.3-0.3-0.6-0.4-1-0.4c-0.5,0-0.9,0.2-1.2,0.6
		c-0.3,0.4-0.4,1-0.4,1.9v0.2c0,0.9,0.1,1.5,0.4,1.9S462.3,275.8,462.8,275.8z"/>
	<path class="st4" d="M472.5,277.5c-0.1-0.2-0.2-0.5-0.2-0.8c-0.5,0.6-1.3,0.9-2.1,0.9c-0.8,0-1.5-0.2-2.1-0.7
		c-0.5-0.5-0.8-1.1-0.8-1.8c0-0.9,0.3-1.6,1-2.1s1.6-0.7,2.9-0.7h1v-0.5c0-0.4-0.1-0.7-0.3-0.9c-0.2-0.2-0.5-0.4-0.9-0.4
		s-0.7,0.1-0.9,0.3c-0.2,0.2-0.3,0.4-0.3,0.8h-2.3c0-0.5,0.2-0.9,0.5-1.4c0.3-0.4,0.7-0.7,1.3-1c0.6-0.2,1.2-0.4,1.9-0.4
		c1,0,1.9,0.3,2.5,0.8s0.9,1.3,0.9,2.2v3.7c0,0.8,0.1,1.4,0.3,1.8v0.1h-2.4V277.5z M470.7,275.9c0.3,0,0.6-0.1,0.9-0.2
		s0.5-0.3,0.6-0.6v-1.5h-0.8c-1.1,0-1.7,0.4-1.8,1.2v0.1c0,0.3,0.1,0.5,0.3,0.7C470,275.8,470.3,275.9,470.7,275.9z"/>
	<path class="st4" d="M479.8,273.2c0-1.3,0.3-2.4,0.9-3.1c0.6-0.8,1.4-1.2,2.4-1.2c0.8,0,1.5,0.3,2,0.9v-4.3h2.3v12h-2l-0.1-0.9
		c-0.6,0.7-1.3,1.1-2.2,1.1c-1,0-1.8-0.4-2.4-1.2S479.8,274.6,479.8,273.2z M482.1,273.4c0,0.8,0.1,1.4,0.4,1.8s0.7,0.6,1.2,0.6
		c0.7,0,1.2-0.3,1.5-0.9v-3.3c-0.3-0.6-0.8-0.9-1.5-0.9C482.6,270.7,482.1,271.6,482.1,273.4z"/>
	<path class="st4" d="M493.1,277.7c-1.2,0-2.2-0.4-3-1.1c-0.8-0.8-1.2-1.8-1.2-3v-0.2c0-0.8,0.2-1.6,0.5-2.3s0.8-1.2,1.4-1.5
		s1.3-0.5,2.1-0.5c1.2,0,2.1,0.4,2.7,1.1s1,1.8,1,3.1v0.9h-5.4c0.1,0.6,0.3,1,0.7,1.3s0.8,0.5,1.4,0.5c0.9,0,1.5-0.3,2-0.9l1.1,1.2
		c-0.3,0.5-0.8,0.9-1.4,1.1S493.8,277.7,493.1,277.7z M492.8,270.7c-0.4,0-0.8,0.2-1.1,0.5c-0.3,0.3-0.5,0.7-0.5,1.3h3.1v-0.2
		c0-0.5-0.1-0.9-0.4-1.2C493.7,270.8,493.3,270.7,492.8,270.7z"/>
	<path class="st4" d="M501.8,266.9c0-0.3,0.1-0.6,0.3-0.8s0.5-0.3,0.9-0.3s0.7,0.1,0.9,0.3c0.2,0.2,0.3,0.5,0.3,0.8
		s-0.1,0.6-0.3,0.8c-0.2,0.2-0.5,0.3-0.9,0.3s-0.7-0.1-0.9-0.3S501.8,267.2,501.8,266.9z M504.2,277.5H502V269h2.3L504.2,277.5
		L504.2,277.5z"/>
	<path class="st4" d="M508.2,269l0.1,1c0.6-0.8,1.4-1.1,2.4-1.1c0.9,0,1.6,0.3,2,0.8s0.7,1.3,0.7,2.4v5.5h-2.3v-5.4
		c0-0.5-0.1-0.8-0.3-1c-0.2-0.2-0.6-0.3-1-0.3c-0.6,0-1.1,0.3-1.4,0.8v6H506v-8.5h2.2V269z"/>
	<path class="st4" d="M517.7,267v2.1h1.4v1.7h-1.4v4.2c0,0.3,0.1,0.5,0.2,0.7c0.1,0.1,0.3,0.2,0.7,0.2c0.2,0,0.5,0,0.7-0.1v1.7
		c-0.4,0.1-0.9,0.2-1.4,0.2c-1.6,0-2.4-0.8-2.4-2.4v-4.6h-1.2V269h1.2v-2.1L517.7,267L517.7,267z"/>
	<path class="st4" d="M524.3,277.7c-1.2,0-2.2-0.4-3-1.1c-0.8-0.8-1.2-1.8-1.2-3v-0.2c0-0.8,0.2-1.6,0.5-2.3s0.8-1.2,1.4-1.5
		s1.3-0.5,2.1-0.5c1.2,0,2.1,0.4,2.7,1.1s1,1.8,1,3.1v0.9h-5.4c0.1,0.6,0.3,1,0.7,1.3s0.8,0.5,1.4,0.5c0.9,0,1.5-0.3,2-0.9l1.1,1.2
		c-0.3,0.5-0.8,0.9-1.4,1.1S525,277.7,524.3,277.7z M524.1,270.7c-0.4,0-0.8,0.2-1.1,0.5s-0.5,0.7-0.5,1.3h3.1v-0.2
		c0-0.5-0.1-0.9-0.4-1.2C524.9,270.8,524.6,270.7,524.1,270.7z"/>
	<path class="st4" d="M533.8,271.2c-0.3,0-0.6-0.1-0.8-0.1c-0.9,0-1.4,0.3-1.7,0.9v5.5H529V269h2.1l0.1,1c0.5-0.8,1.1-1.2,1.9-1.2
		c0.2,0,0.5,0,0.7,0.1V271.2z"/>
	<path class="st4" d="M535.7,277.5v-6.8h-1.3V269h1.3v-0.7c0-0.9,0.3-1.7,0.8-2.2s1.3-0.8,2.3-0.8c0.3,0,0.7,0.1,1.1,0.2v1.8
		c-0.2,0-0.4-0.1-0.7-0.1c-0.8,0-1.3,0.4-1.3,1.2v0.7h1.7v1.7H538v6.8L535.7,277.5L535.7,277.5z"/>
	<path class="st4" d="M545.7,277.5c-0.1-0.2-0.2-0.5-0.2-0.8c-0.5,0.6-1.3,0.9-2.1,0.9s-1.5-0.2-2.1-0.7c-0.5-0.5-0.8-1.1-0.8-1.8
		c0-0.9,0.3-1.6,1-2.1s1.6-0.7,2.9-0.7h1v-0.5c0-0.4-0.1-0.7-0.3-0.9c-0.2-0.2-0.5-0.4-0.9-0.4s-0.7,0.1-0.9,0.3
		c-0.2,0.2-0.3,0.4-0.3,0.8h-2.3c0-0.5,0.2-0.9,0.5-1.4c0.3-0.4,0.7-0.7,1.3-1c0.6-0.2,1.2-0.4,1.9-0.4c1,0,1.9,0.3,2.5,0.8
		s0.9,1.3,0.9,2.2v3.7c0,0.8,0.1,1.4,0.3,1.8v0.1h-2.4V277.5z M543.9,275.9c0.3,0,0.6-0.1,0.9-0.2s0.5-0.3,0.6-0.6v-1.5h-0.8
		c-1.1,0-1.7,0.4-1.8,1.2v0.1c0,0.3,0.1,0.5,0.3,0.7C543.2,275.8,543.5,275.9,543.9,275.9z"/>
	<path class="st4" d="M552,275.7h4.1v1.8h-7v-1.4l4-5.3h-3.9V269h6.8v1.3L552,275.7z"/>
</g>
<g class="st3">
	<path class="st4" d="M427.7,372.5h-2.3v-11.4h2.3V372.5z"/>
	<path class="st4" d="M431.8,364l0.1,1c0.6-0.8,1.4-1.1,2.4-1.1c0.9,0,1.6,0.3,2,0.8s0.7,1.3,0.7,2.4v5.5h-2.3v-5.4
		c0-0.5-0.1-0.8-0.3-1c-0.2-0.2-0.6-0.3-1-0.3c-0.6,0-1.1,0.3-1.4,0.8v6h-2.3v-8.5h2.1V364z"/>
	<path class="st4" d="M441.4,362v2.1h1.4v1.7h-1.4v4.2c0,0.3,0.1,0.5,0.2,0.7c0.1,0.1,0.3,0.2,0.7,0.2c0.2,0,0.5,0,0.7-0.1v1.7
		c-0.4,0.1-0.9,0.2-1.4,0.2c-1.6,0-2.4-0.8-2.4-2.4v-4.6H438V364h1.2v-2.1L441.4,362L441.4,362z"/>
	<path class="st4" d="M448,372.7c-1.2,0-2.2-0.4-3-1.1c-0.8-0.8-1.2-1.8-1.2-3v-0.2c0-0.8,0.2-1.6,0.5-2.3s0.8-1.2,1.4-1.5
		s1.3-0.5,2.1-0.5c1.2,0,2.1,0.4,2.7,1.1s1,1.8,1,3.1v0.9h-5.4c0.1,0.6,0.3,1,0.7,1.3s0.8,0.5,1.4,0.5c0.9,0,1.5-0.3,2-0.9l1.1,1.2
		c-0.3,0.5-0.8,0.9-1.4,1.1S448.7,372.7,448,372.7z M447.7,365.7c-0.4,0-0.8,0.2-1.1,0.5c-0.3,0.3-0.5,0.7-0.5,1.3h3.1v-0.2
		c0-0.5-0.1-0.9-0.4-1.2C448.6,365.8,448.2,365.7,447.7,365.7z"/>
	<path class="st4" d="M457.5,366.2c-0.3,0-0.6-0.1-0.8-0.1c-0.9,0-1.4,0.3-1.7,0.9v5.5h-2.3V364h2.1l0.1,1c0.5-0.8,1.1-1.2,1.9-1.2
		c0.2,0,0.5,0,0.7,0.1L457.5,366.2z"/>
	<path class="st4" d="M459.4,372.5v-6.8h-1.3V364h1.3v-0.7c0-0.9,0.3-1.7,0.8-2.2s1.3-0.8,2.3-0.8c0.3,0,0.7,0.1,1.1,0.2v1.8
		c-0.2,0-0.4-0.1-0.7-0.1c-0.8,0-1.3,0.4-1.3,1.2v0.7h1.7v1.7h-1.7v6.8h-2.2V372.5z"/>
	<path class="st4" d="M469.4,372.5c-0.1-0.2-0.2-0.5-0.2-0.8c-0.5,0.6-1.3,0.9-2.1,0.9c-0.8,0-1.5-0.2-2.1-0.7
		c-0.5-0.5-0.8-1.1-0.8-1.8c0-0.9,0.3-1.6,1-2.1s1.6-0.7,2.9-0.7h1v-0.5c0-0.4-0.1-0.7-0.3-0.9c-0.2-0.2-0.5-0.4-0.9-0.4
		s-0.7,0.1-0.9,0.3c-0.2,0.2-0.3,0.4-0.3,0.8h-2.3c0-0.5,0.2-0.9,0.5-1.4c0.3-0.4,0.7-0.7,1.3-1c0.6-0.2,1.2-0.4,1.9-0.4
		c1,0,1.9,0.3,2.5,0.8s0.9,1.3,0.9,2.2v3.7c0,0.8,0.1,1.4,0.3,1.8v0.1h-2.4V372.5z M467.5,370.9c0.3,0,0.6-0.1,0.9-0.2
		s0.5-0.3,0.6-0.6v-1.5h-0.8c-1.1,0-1.7,0.4-1.8,1.2v0.1c0,0.3,0.1,0.5,0.3,0.7C466.9,370.8,467.2,370.9,467.5,370.9z"/>
	<path class="st4" d="M475.6,370.7h4.1v1.8h-7v-1.4l4-5.3h-3.9V364h6.8v1.3L475.6,370.7z"/>
	<path class="st4" d="M484.8,368.2c0-1.3,0.3-2.4,0.9-3.1c0.6-0.8,1.4-1.2,2.4-1.2c0.8,0,1.5,0.3,2,0.9v-4.3h2.3v12h-2l-0.1-0.9
		c-0.6,0.7-1.3,1.1-2.2,1.1c-1,0-1.8-0.4-2.4-1.2S484.8,369.6,484.8,368.2z M487.1,368.4c0,0.8,0.1,1.4,0.4,1.8s0.7,0.6,1.2,0.6
		c0.7,0,1.2-0.3,1.5-0.9v-3.3c-0.3-0.6-0.8-0.9-1.5-0.9C487.6,365.7,487.1,366.6,487.1,368.4z"/>
	<path class="st4" d="M498.1,372.7c-1.2,0-2.2-0.4-3-1.1c-0.8-0.8-1.2-1.8-1.2-3v-0.2c0-0.8,0.2-1.6,0.5-2.3s0.8-1.2,1.4-1.5
		s1.3-0.5,2.1-0.5c1.2,0,2.1,0.4,2.7,1.1s1,1.8,1,3.1v0.9h-5.4c0.1,0.6,0.3,1,0.7,1.3s0.8,0.5,1.4,0.5c0.9,0,1.5-0.3,2-0.9l1.1,1.2
		c-0.3,0.5-0.8,0.9-1.4,1.1S498.8,372.7,498.1,372.7z M497.8,365.7c-0.4,0-0.8,0.2-1.1,0.5c-0.3,0.3-0.5,0.7-0.5,1.3h3.1v-0.2
		c0-0.5-0.1-0.9-0.4-1.2C498.7,365.8,498.3,365.7,497.8,365.7z"/>
	<path class="st4" d="M511.9,371.6c-0.6,0.7-1.3,1-2.3,1c-0.9,0-1.6-0.3-2.1-0.8s-0.7-1.3-0.7-2.3V364h2.3v5.5
		c0,0.9,0.4,1.3,1.2,1.3c0.8,0,1.3-0.3,1.6-0.8v-6h2.3v8.5H512L511.9,371.6z"/>
	<path class="st4" d="M520.4,370.2c0-0.3-0.1-0.5-0.4-0.7s-0.7-0.3-1.3-0.4c-2-0.4-3-1.3-3-2.6c0-0.8,0.3-1.4,0.9-1.9
		c0.6-0.5,1.4-0.8,2.4-0.8c1.1,0,1.9,0.3,2.6,0.8c0.6,0.5,1,1.2,1,2h-2.3c0-0.3-0.1-0.6-0.3-0.8c-0.2-0.2-0.5-0.3-1-0.3
		c-0.4,0-0.7,0.1-0.9,0.3c-0.2,0.2-0.3,0.4-0.3,0.7c0,0.2,0.1,0.5,0.4,0.6c0.2,0.2,0.6,0.3,1.2,0.4s1,0.2,1.4,0.4
		c1.2,0.4,1.8,1.2,1.8,2.3c0,0.8-0.3,1.4-1,1.9s-1.5,0.7-2.6,0.7c-0.7,0-1.3-0.1-1.9-0.4c-0.5-0.3-1-0.6-1.3-1s-0.5-0.9-0.5-1.4h2.1
		c0,0.4,0.2,0.7,0.4,0.9c0.3,0.2,0.6,0.3,1.1,0.3c0.4,0,0.8-0.1,1-0.2C520.2,370.6,520.4,370.4,520.4,370.2z"/>
	<path class="st4" d="M529.1,371.6c-0.6,0.7-1.3,1-2.3,1c-0.9,0-1.6-0.3-2.1-0.8s-0.7-1.3-0.7-2.3V364h2.3v5.5
		c0,0.9,0.4,1.3,1.2,1.3s1.3-0.3,1.6-0.8v-6h2.3v8.5h-2.1L529.1,371.6z"/>
	<path class="st4" d="M537.9,372.5c-0.1-0.2-0.2-0.5-0.2-0.8c-0.5,0.6-1.3,0.9-2.1,0.9s-1.5-0.2-2.1-0.7c-0.5-0.5-0.8-1.1-0.8-1.8
		c0-0.9,0.3-1.6,1-2.1s1.6-0.7,2.9-0.7h1v-0.5c0-0.4-0.1-0.7-0.3-0.9c-0.2-0.2-0.5-0.4-0.9-0.4s-0.7,0.1-0.9,0.3
		c-0.2,0.2-0.3,0.4-0.3,0.8h-2.3c0-0.5,0.2-0.9,0.5-1.4c0.3-0.4,0.7-0.7,1.3-1c0.6-0.2,1.2-0.4,1.9-0.4c1,0,1.9,0.3,2.5,0.8
		s0.9,1.3,0.9,2.2v3.7c0,0.8,0.1,1.4,0.3,1.8v0.1h-2.4V372.5z M536,370.9c0.3,0,0.6-0.1,0.9-0.2s0.5-0.3,0.6-0.6v-1.5h-0.8
		c-1.1,0-1.7,0.4-1.8,1.2v0.1c0,0.3,0.1,0.5,0.3,0.7C535.4,370.8,535.6,370.9,536,370.9z"/>
	<path class="st4" d="M546.3,366.2c-0.3,0-0.6-0.1-0.8-0.1c-0.9,0-1.4,0.3-1.7,0.9v5.5h-2.3V364h2.1l0.1,1c0.5-0.8,1.1-1.2,1.9-1.2
		c0.2,0,0.5,0,0.7,0.1V366.2z"/>
	<path class="st4" d="M547.4,361.9c0-0.3,0.1-0.6,0.3-0.8s0.5-0.3,0.9-0.3s0.7,0.1,0.9,0.3c0.2,0.2,0.3,0.5,0.3,0.8
		s-0.1,0.6-0.3,0.8c-0.2,0.2-0.5,0.3-0.9,0.3s-0.7-0.1-0.9-0.3S547.4,362.2,547.4,361.9z M549.8,372.5h-2.3V364h2.3V372.5z"/>
	<path class="st4" d="M551.3,368.2c0-0.8,0.2-1.6,0.5-2.2c0.3-0.7,0.8-1.2,1.4-1.5c0.6-0.4,1.3-0.5,2.1-0.5c1.1,0,2.1,0.3,2.8,1
		s1.1,1.6,1.2,2.8v0.6c0,1.3-0.4,2.3-1.1,3.1c-0.7,0.8-1.7,1.2-2.9,1.2s-2.2-0.4-2.9-1.2S551.3,369.7,551.3,368.2L551.3,368.2z
		 M553.5,368.4c0,0.8,0.2,1.4,0.5,1.8s0.7,0.6,1.3,0.6c0.5,0,1-0.2,1.3-0.6s0.5-1.1,0.5-2c0-0.8-0.2-1.4-0.5-1.8s-0.7-0.6-1.3-0.6
		s-1,0.2-1.3,0.6S553.5,367.5,553.5,368.4z"/>
</g>
<g id="Grupo_99296" transform="translate(-16)">
	<g id="Grupo_99295" transform="translate(987 9111)">
		<path id="Polígono_36" class="st6" d="M-495-9005.5l9,15h-18L-495-9005.5z"/>
		<path id="Polígono_37" class="st6" d="M-495-8963.5l-9-15h18L-495-8963.5z"/>
		<rect id="Rectángulo_42834" x="-498" y="-8998.5" class="st6" width="6" height="22"/>
		<rect id="Rectángulo_42835" x="-498" y="-8992.5" class="st6" width="6" height="22"/>
	</g>
</g>
<g id="Grupo_99297" transform="translate(-16 95)">
	<g id="Grupo_99295-2" transform="translate(987 9111)">
		<path id="Polígono_36-2" class="st6" d="M-495-9005.5l9,15h-18L-495-9005.5z"/>
		<path id="Polígono_37-2" class="st6" d="M-495-8963.5l-9-15h18L-495-8963.5z"/>
		<rect id="Rectángulo_42834-2" x="-498" y="-8998.5" class="st6" width="6" height="22"/>
		<rect id="Rectángulo_42835-2" x="-498" y="-8992.5" class="st6" width="6" height="22"/>
	</g>
</g>
<g id="Grupo_99299" transform="translate(-439 1)">
	<g id="Grupo_99295-3" transform="translate(987 9111)">
		<path id="Polígono_36-3" class="st7" d="M-495-9005.5l9,15h-18L-495-9005.5z"/>
		<path id="Polígono_37-3" class="st7" d="M-495-8963.5l-9-15h18L-495-8963.5z"/>
		<rect id="Rectángulo_42834-3" x="-498" y="-8998.5" class="st7" width="6" height="22"/>
		<rect id="Rectángulo_42835-3" x="-498" y="-8992.5" class="st7" width="6" height="22"/>
	</g>
</g>
<g id="Grupo_99300" transform="translate(-355 1)">
	<g id="Grupo_99295-4" transform="translate(987 9111)">
		<path id="Polígono_36-4" class="st7" d="M-495-9005.5l9,15h-18L-495-9005.5z"/>
		<path id="Polígono_37-4" class="st7" d="M-495-8963.5l-9-15h18L-495-8963.5z"/>
		<rect id="Rectángulo_42834-4" x="-498" y="-8998.5" class="st7" width="6" height="22"/>
		<rect id="Rectángulo_42835-4" x="-498" y="-8992.5" class="st7" width="6" height="22"/>
	</g>
</g>
<g id="Grupo_99301" transform="translate(-261 1)">
	<g id="Grupo_99295-5" transform="translate(987 9111)">
		<path id="Polígono_36-5" class="st7" d="M-495-9005.5l9,15h-18L-495-9005.5z"/>
		<path id="Polígono_37-5" class="st7" d="M-495-8963.5l-9-15h18L-495-8963.5z"/>
		<rect id="Rectángulo_42834-5" x="-498" y="-8998.5" class="st7" width="6" height="22"/>
		<rect id="Rectángulo_42835-5" x="-498" y="-8992.5" class="st7" width="6" height="22"/>
	</g>
</g>
<g id="Grupo_99298" transform="translate(2)">
	<path id="Polígono_36-6" class="st2" d="M474,295.5l9,15h-18L474,295.5z"/>
	<path id="Polígono_37-6" class="st6" d="M492,337.5l-9-15h18L492,337.5z"/>
	<rect id="Rectángulo_42834-6" x="489" y="302.5" class="st6" width="6" height="22"/>
	<rect id="Rectángulo_42835-6" x="471" y="308.5" class="st2" width="6" height="22"/>
</g>
<g id="Rectángulo_42841" transform="translate(506 9015)">
	<path class="st4" d="M-486-9005.5h246c9.9,0,18,8.1,18,18v54c0,9.9-8.1,18-18,18h-246c-9.9,0-18-8.1-18-18v-54
		C-504-8997.4-495.9-9005.5-486-9005.5z"/>
	<path class="st8" d="M-330-9004.5h90c9.4,0,17,7.6,17,17v54c0,9.4-7.6,17-17,17h-246c-9.4,0-17-7.6-17-17v-54c0-9.4,7.6-17,17-17
		h90.4"/>
</g>
<linearGradient id="Unión_30_00000013165582481551803860000008077359241017676964_" gradientUnits="userSpaceOnUse" x1="-1291.918" y1="22.7941" x2="-1291.918" y2="23.7941" gradientTransform="matrix(67 0 0 51 86612 -1128)">
	<stop  offset="0" style="stop-color:#4DD0E1"/>
	<stop  offset="1" style="stop-color:#039BE5"/>
</linearGradient>
<path id="Unión_30" style="fill:url(#Unión_30_00000013165582481551803860000008077359241017676964_);" d="M20,71.5v-37h67v37
	c0,7.7-15,14-33.5,14S20,79.2,20,71.5z"/>
<linearGradient id="Unión_31_00000052794635912896947720000013992404758193751189_" gradientUnits="userSpaceOnUse" x1="-1291.918" y1="22.7941" x2="-1291.918" y2="23.7941" gradientTransform="matrix(67 0 0 51 86701 -1128)">
	<stop  offset="0" style="stop-color:#4DD0E1"/>
	<stop  offset="1" style="stop-color:#039BE5"/>
</linearGradient>
<path id="Unión_31" style="fill:url(#Unión_31_00000052794635912896947720000013992404758193751189_);" d="M109,71.5v-37h67v37
	c0,7.7-15,14-33.5,14S109,79.2,109,71.5z"/>
<linearGradient id="Unión_32_00000026866483392861550190000007420755380395594918_" gradientUnits="userSpaceOnUse" x1="-1291.918" y1="22.7941" x2="-1291.918" y2="23.7941" gradientTransform="matrix(67 0 0 51 86790 -1128)">
	<stop  offset="0" style="stop-color:#4DD0E1"/>
	<stop  offset="1" style="stop-color:#039BE5"/>
</linearGradient>
<path id="Unión_32" style="fill:url(#Unión_32_00000026866483392861550190000007420755380395594918_);" d="M198,71.5v-37h67v37
	c0,7.7-15,14-33.5,14S198,79.2,198,71.5z"/>
<ellipse id="Elipse_6341" class="st12" cx="53.5" cy="34.5" rx="33.5" ry="14"/>
<ellipse id="Elipse_6343" class="st12" cx="142.5" cy="34.5" rx="33.5" ry="14"/>
<ellipse id="Elipse_6344" class="st12" cx="231.5" cy="34.5" rx="33.5" ry="14"/>
<g class="st3">
	<path class="st5" d="M41.4,69.5v-10h3.1c0.9,0,1.7,0.2,2.3,0.6c0.7,0.4,1.2,1,1.6,1.7c0.4,0.7,0.6,1.6,0.6,2.5v0.5
		c0,0.9-0.2,1.7-0.6,2.5c-0.4,0.8-0.9,1.3-1.6,1.7s-1.5,0.5-2.4,0.5H41.4z M43.4,61.2v6.6h1c0.8,0,1.4-0.3,1.8-0.8s0.6-1.3,0.6-2.2
		v-0.5c0-1-0.2-1.8-0.6-2.3c-0.4-0.5-1-0.8-1.8-0.8H43.4z"/>
	<path class="st5" d="M50.5,69.5v-10H54c1.2,0,2.1,0.2,2.7,0.7c0.6,0.5,0.9,1.1,0.9,2c0,0.5-0.1,0.9-0.4,1.3c-0.3,0.4-0.6,0.6-1,0.8
		c0.5,0.1,0.9,0.4,1.2,0.8s0.4,0.9,0.4,1.4c0,1-0.3,1.7-0.9,2.2s-1.4,0.8-2.6,0.8H50.5z M52.5,63.7H54c1,0,1.6-0.4,1.6-1.2
		c0-0.5-0.1-0.8-0.4-1c-0.3-0.2-0.7-0.3-1.2-0.3h-1.4L52.5,63.7L52.5,63.7z M52.5,65.2v2.7h1.8c0.5,0,0.9-0.1,1.1-0.3
		c0.3-0.2,0.4-0.5,0.4-1c0-0.9-0.5-1.4-1.4-1.4H52.5z"/>
	<path class="st5" d="M66,69.5h-6.8v-1.4l3.2-3.4c0.4-0.5,0.8-0.9,1-1.3s0.3-0.7,0.3-1c0-0.4-0.1-0.8-0.3-1c-0.2-0.3-0.5-0.4-1-0.4
		c-0.4,0-0.8,0.2-1.1,0.5s-0.4,0.7-0.4,1.2h-2c0-0.6,0.1-1.2,0.4-1.7s0.7-0.9,1.2-1.2s1.1-0.4,1.8-0.4c1,0,1.8,0.2,2.4,0.7
		s0.9,1.2,0.9,2.1c0,0.5-0.1,1-0.4,1.5c-0.3,0.5-0.6,1.1-1.2,1.8l-2.3,2.4H66V69.5z"/>
</g>
<g class="st3">
	<path class="st5" d="M125.2,64.7c0,1-0.2,1.8-0.5,2.6c-0.3,0.8-0.8,1.3-1.5,1.7s-1.4,0.6-2.2,0.6c-0.8,0-1.6-0.2-2.2-0.6
		s-1.1-1-1.5-1.7c-0.4-0.7-0.5-1.6-0.5-2.5v-0.5c0-1,0.2-1.8,0.5-2.6c0.4-0.7,0.9-1.3,1.5-1.7s1.4-0.6,2.2-0.6s1.6,0.2,2.2,0.6
		c0.6,0.4,1.1,1,1.5,1.7s0.5,1.6,0.5,2.6V64.7z M123.2,64.3c0-1-0.2-1.8-0.6-2.4s-0.9-0.8-1.6-0.8s-1.2,0.3-1.6,0.8
		s-0.6,1.3-0.6,2.4v0.5c0,1,0.2,1.8,0.6,2.4c0.4,0.6,0.9,0.8,1.6,0.8s1.2-0.3,1.6-0.8s0.6-1.3,0.6-2.4V64.3z"/>
	<path class="st5" d="M130.4,65.9h-1.6v3.6h-2.1v-10h3.7c1.2,0,2.1,0.3,2.7,0.8s1,1.3,1,2.2c0,0.7-0.1,1.2-0.4,1.7
		c-0.3,0.5-0.7,0.8-1.3,1.1l2.2,4.1v0.1h-2.2L130.4,65.9z M128.8,64.2h1.7c0.5,0,0.9-0.1,1.2-0.4c0.3-0.3,0.4-0.6,0.4-1.1
		s-0.1-0.8-0.4-1.1s-0.7-0.4-1.2-0.4h-1.6L128.8,64.2L128.8,64.2z"/>
	<path class="st5" d="M141.3,67.4h-3.6l-0.7,2.1h-2.2l3.7-10h1.9l3.7,10H142L141.3,67.4z M138.2,65.8h2.5l-1.3-3.7L138.2,65.8z"/>
	<path class="st5" d="M152.9,66.2c-0.1,1.1-0.5,1.9-1.2,2.5c-0.7,0.6-1.7,0.9-2.8,0.9c-1.3,0-2.3-0.4-3-1.3c-0.7-0.9-1.1-2-1.1-3.5
		v-0.6c0-1,0.2-1.8,0.5-2.5s0.8-1.3,1.4-1.7c0.6-0.4,1.4-0.6,2.2-0.6c1.1,0,2.1,0.3,2.8,0.9s1.1,1.5,1.2,2.6h-2.1
		c-0.1-0.6-0.2-1.1-0.5-1.4c-0.3-0.3-0.8-0.4-1.4-0.4c-0.7,0-1.2,0.2-1.5,0.7s-0.5,1.2-0.5,2.3v0.8c0,1.1,0.2,1.9,0.5,2.4
		s0.8,0.7,1.5,0.7c0.6,0,1.1-0.1,1.4-0.4c0.3-0.3,0.5-0.7,0.5-1.3h2.1V66.2z"/>
	<path class="st5" d="M156.3,67.9h4.4v1.6h-6.4v-10h2.1v8.4H156.3z"/>
	<path class="st5" d="M167.8,65.2h-3.9v2.7h4.6v1.6h-6.7v-10h6.7v1.7h-4.6v2.4h3.9V65.2z"/>
</g>
<g class="st3">
	<path class="st5" d="M224.6,66.9c0-0.4-0.1-0.7-0.4-0.9c-0.3-0.2-0.8-0.4-1.5-0.7c-0.7-0.2-1.3-0.5-1.7-0.7
		c-1.1-0.6-1.7-1.4-1.7-2.5c0-0.5,0.2-1,0.5-1.4s0.7-0.8,1.3-1s1.2-0.4,1.9-0.4s1.3,0.1,1.9,0.4c0.6,0.3,1,0.6,1.3,1.1
		s0.5,1,0.5,1.6h-2.1c0-0.5-0.1-0.8-0.4-1.1c-0.3-0.3-0.7-0.4-1.2-0.4s-0.9,0.1-1.2,0.3s-0.4,0.5-0.4,0.8s0.2,0.6,0.5,0.8
		s0.8,0.4,1.4,0.6c1.2,0.4,2,0.8,2.5,1.3s0.8,1.2,0.8,1.9c0,0.9-0.3,1.5-1,2s-1.5,0.7-2.6,0.7c-0.8,0-1.5-0.1-2.1-0.4
		s-1.1-0.7-1.4-1.2c-0.3-0.5-0.5-1.1-0.5-1.7h2.1c0,1.1,0.7,1.6,2,1.6c0.5,0,0.9-0.1,1.1-0.3C224.5,67.5,224.6,67.2,224.6,66.9z"/>
	<path class="st5" d="M236.2,64.7c0,0.9-0.2,1.7-0.5,2.4c-0.3,0.7-0.7,1.2-1.3,1.7l1.7,1.3l-1.3,1.2l-2.1-1.7
		c-0.2,0-0.5,0.1-0.8,0.1c-0.8,0-1.6-0.2-2.2-0.6c-0.6-0.4-1.1-1-1.5-1.7s-0.5-1.6-0.5-2.5v-0.5c0-1,0.2-1.8,0.5-2.6
		c0.4-0.7,0.9-1.3,1.5-1.7s1.4-0.6,2.2-0.6s1.6,0.2,2.2,0.6c0.6,0.4,1.1,1,1.5,1.7s0.5,1.6,0.5,2.6v0.3H236.2z M234.2,64.3
		c0-1-0.2-1.8-0.6-2.4c-0.4-0.5-0.9-0.8-1.6-0.8c-0.7,0-1.2,0.3-1.6,0.8c-0.4,0.5-0.6,1.3-0.6,2.4v0.5c0,1,0.2,1.8,0.6,2.4
		c0.4,0.6,0.9,0.8,1.6,0.8c0.7,0,1.2-0.3,1.6-0.8c0.4-0.5,0.6-1.3,0.6-2.4V64.3z"/>
	<path class="st5" d="M239.8,67.9h4.4v1.6h-6.4v-10h2.1v8.4H239.8z"/>
</g>
<path id="Trazado_213641" class="st13" d="M23,312.5H2.2V177.3H23"/>
<path id="Polígono_38" class="st6" d="M31,177.3l-15,9v-18L31,177.3z"/>
<path id="Polígono_39" class="st6" d="M31,312.5l-15,9v-18L31,312.5z"/>
<path id="Trazado_213642" class="st14" d="M0,239.7"/>
<path id="Trazado_213643" class="st15" d="M128,289.5v-27.8h236.4"/>
<path id="Polígono_40" class="st16" d="M371.9,261.7l-15,9v-18L371.9,261.7z"/>
<path id="Trazado_213644" class="st17" d="M371.9,279.5h-99.5v103.1h-146v-28"/>
<path id="Polígono_41" class="st7" d="M126.4,351l9,15h-18L126.4,351z"/>
<path id="Trazado_213645" class="st13" d="M249.1,180.5h65.7V74.9h57"/>
<path id="Polígono_42" class="st6" d="M375.9,74.9l-15,9v-18L375.9,74.9z"/>
<path id="Polígono_43" class="st6" d="M243,180.5l15-9v18L243,180.5z"/>
<g>
	<path d="M129.2,14.8c-0.6,0.7-1.3,1.2-2.4,1.6c-1,0.4-2.1,0.6-3.4,0.6c-1.3,0-2.4-0.3-3.4-0.9c-1-0.6-1.7-1.4-2.3-2.5
		c-0.5-1.1-0.8-2.4-0.8-3.8v-1c0-1.5,0.3-2.8,0.8-3.9s1.2-1.9,2.2-2.5c1-0.6,2.1-0.9,3.4-0.9c1.8,0,3.2,0.4,4.2,1.3
		c1,0.9,1.6,2.1,1.8,3.7h-3c-0.1-0.9-0.4-1.5-0.9-1.9c-0.5-0.4-1.1-0.6-1.9-0.6c-1.1,0-1.9,0.4-2.4,1.2c-0.6,0.8-0.8,2-0.8,3.5v1
		c0,1.6,0.3,2.8,0.9,3.6c0.6,0.8,1.5,1.2,2.6,1.2c1.2,0,2-0.2,2.5-0.7v-2.6h-2.8V8.8h5.9V14.8z"/>
	<path d="M131.7,16.7V1.7h4.6c1.3,0,2.5,0.3,3.6,0.9c1,0.6,1.9,1.4,2.4,2.5c0.6,1.1,0.9,2.3,0.9,3.7v0.7c0,1.4-0.3,2.6-0.9,3.7
		s-1.4,1.9-2.4,2.5c-1,0.6-2.2,0.9-3.5,0.9H131.7z M134.8,4.2v10h1.5c1.2,0,2.1-0.4,2.8-1.2c0.6-0.8,1-1.9,1-3.4V8.9
		c0-1.5-0.3-2.7-1-3.5c-0.6-0.8-1.6-1.2-2.8-1.2H134.8z"/>
	<path d="M145.5,16.7V1.7h5.3c1.8,0,3.2,0.3,4.2,1c0.9,0.7,1.4,1.7,1.4,3.1c0,0.7-0.2,1.4-0.6,1.9c-0.4,0.6-0.9,1-1.6,1.2
		c0.8,0.2,1.4,0.6,1.8,1.2c0.4,0.6,0.7,1.3,0.7,2.1c0,1.4-0.5,2.5-1.4,3.3c-0.9,0.7-2.2,1.1-3.9,1.1H145.5z M148.6,8h2.3
		c1.6,0,2.3-0.7,2.3-1.9c0-0.7-0.2-1.2-0.6-1.5c-0.4-0.3-1-0.4-1.9-0.4h-2.2V8z M148.6,10.2v4.1h2.7c0.7,0,1.3-0.2,1.7-0.5
		c0.4-0.3,0.6-0.8,0.6-1.4c0-1.4-0.7-2.1-2.1-2.1H148.6z"/>
	<path d="M164.5,11.2h-2.5v5.5H159V1.7h5.6c1.8,0,3.1,0.4,4.1,1.2c1,0.8,1.4,1.9,1.4,3.4c0,1-0.2,1.9-0.7,2.6
		c-0.4,0.7-1.1,1.2-2,1.6l3.3,6.2v0.1h-3.3L164.5,11.2z M162.1,8.7h2.5c0.8,0,1.4-0.2,1.8-0.6c0.4-0.4,0.6-0.9,0.6-1.6
		c0-0.7-0.2-1.3-0.6-1.7c-0.4-0.4-1-0.6-1.9-0.6h-2.5V8.7z"/>
</g>
</svg>
