<?xml version="1.0" encoding="utf-8"?>
<!-- Generator: Adobe Illustrator 25.4.2, SVG Export Plug-In . SVG Version: 6.00 Build 0)  -->
<svg version="1.1" id="Capa_1" xmlns="http://www.w3.org/2000/svg" xmlns:xlink="http://www.w3.org/1999/xlink" x="0px" y="0px"
	 viewBox="0 0 494 259" style="enable-background:new 0 0 494 259;" xml:space="preserve">
<style type="text/css">
	.st0{fill:#FFFFFF;}
	.st1{fill:none;stroke:#4DD0E1;stroke-width:2;}
	.st2{enable-background:new    ;}
	.st3{fill:#12263F;}
	.st4{fill:none;stroke:#FFA726;stroke-width:4;}
	.st5{fill:#039BE5;}
	.st6{fill:#FFA726;}
	.st7{opacity:0.55;fill:#4DD0E1;enable-background:new    ;}
</style>
<g id="Grupo_106850" transform="translate(-839 -10249)">
	<g id="Rectángulo_43033" transform="translate(839 10249)">
		<path class="st0" d="M0,0h494l0,0v246c0,7.2-5.8,13-13,13l0,0H13c-7.2,0-13-5.8-13-13l0,0V0L0,0z"/>
		<path class="st1" d="M2,1h490c0.6,0,1,0.4,1,1v244c0,6.6-5.4,12-12,12H13c-6.6,0-12-5.4-12-12V2C1,1.4,1.4,1,2,1z"/>
	</g>
	<g class="st2">
		<path class="st3" d="M992.9,10483.4h-4.5v4.6H986v-11.4h7.4v1.9h-5.1v2.9h4.5V10483.4z"/>
		<path class="st3" d="M994.6,10477.4c0-0.3,0.1-0.6,0.3-0.8s0.5-0.3,0.9-0.3c0.4,0,0.7,0.1,0.9,0.3c0.2,0.2,0.3,0.5,0.3,0.8
			c0,0.3-0.1,0.6-0.3,0.8c-0.2,0.2-0.5,0.3-0.9,0.3c-0.4,0-0.7-0.1-0.9-0.3C994.7,10478,994.6,10477.7,994.6,10477.4z M997,10488
			h-2.3v-8.5h2.3V10488z"/>
		<path class="st3" d="M1001.3,10488H999v-12h2.3V10488z"/>
		<path class="st3" d="M1005.8,10477.5v2.1h1.4v1.7h-1.4v4.2c0,0.3,0.1,0.5,0.2,0.7c0.1,0.1,0.3,0.2,0.7,0.2c0.2,0,0.5,0,0.7-0.1
			v1.7c-0.4,0.1-0.9,0.2-1.4,0.2c-1.6,0-2.4-0.8-2.4-2.4v-4.6h-1.2v-1.7h1.2v-2.1H1005.8z"/>
		<path class="st3" d="M1013.3,10481.7c-0.3,0-0.6-0.1-0.8-0.1c-0.9,0-1.4,0.3-1.7,0.9v5.5h-2.3v-8.5h2.1l0.1,1
			c0.5-0.8,1.1-1.2,1.9-1.2c0.2,0,0.5,0,0.7,0.1L1013.3,10481.7z"/>
		<path class="st3" d="M1018.2,10488.2c-1.2,0-2.2-0.4-3-1.1c-0.8-0.8-1.2-1.8-1.2-3v-0.2c0-0.8,0.2-1.6,0.5-2.3s0.8-1.2,1.4-1.5
			s1.3-0.5,2.1-0.5c1.2,0,2.1,0.4,2.7,1.1s1,1.8,1,3.1v0.9h-5.4c0.1,0.6,0.3,1,0.7,1.3s0.8,0.5,1.4,0.5c0.9,0,1.5-0.3,2-0.9l1.1,1.2
			c-0.3,0.5-0.8,0.9-1.4,1.1S1019,10488.2,1018.2,10488.2z M1018,10481.2c-0.4,0-0.8,0.2-1.1,0.5c-0.3,0.3-0.5,0.7-0.5,1.3h3.1v-0.2
			c0-0.5-0.1-0.9-0.4-1.2C1018.8,10481.3,1018.5,10481.2,1018,10481.2z"/>
		<path class="st3" d="M1027.6,10485.7c0-0.3-0.1-0.5-0.4-0.7s-0.7-0.3-1.3-0.4c-2-0.4-3-1.3-3-2.6c0-0.8,0.3-1.4,0.9-1.9
			c0.6-0.5,1.4-0.8,2.4-0.8c1.1,0,1.9,0.3,2.6,0.8c0.6,0.5,1,1.2,1,2h-2.3c0-0.3-0.1-0.6-0.3-0.8c-0.2-0.2-0.5-0.3-1-0.3
			c-0.4,0-0.7,0.1-0.9,0.3c-0.2,0.2-0.3,0.4-0.3,0.7c0,0.2,0.1,0.5,0.4,0.6c0.2,0.2,0.6,0.3,1.2,0.4s1,0.2,1.4,0.4
			c1.2,0.4,1.8,1.2,1.8,2.3c0,0.8-0.3,1.4-1,1.9c-0.7,0.5-1.5,0.7-2.6,0.7c-0.7,0-1.3-0.1-1.9-0.4c-0.5-0.3-1-0.6-1.3-1
			s-0.5-0.9-0.5-1.4h2.1c0,0.4,0.2,0.7,0.4,0.9c0.3,0.2,0.6,0.3,1.1,0.3c0.4,0,0.8-0.1,1-0.2
			C1027.5,10486.1,1027.6,10485.9,1027.6,10485.7z"/>
	</g>
	<g class="st2">
		<path class="st3" d="M1118.4,10484v4h-2.3v-11.4h4.4c0.9,0,1.6,0.2,2.3,0.5s1.1,0.8,1.5,1.3c0.3,0.6,0.5,1.2,0.5,2
			c0,1.1-0.4,2-1.1,2.6c-0.8,0.6-1.8,1-3.2,1H1118.4z M1118.4,10482.1h2.1c0.6,0,1.1-0.1,1.4-0.4c0.3-0.3,0.5-0.7,0.5-1.2
			c0-0.6-0.2-1-0.5-1.4s-0.8-0.5-1.4-0.5h-2.1V10482.1z"/>
		<path class="st3" d="M1126.2,10477.4c0-0.3,0.1-0.6,0.3-0.8s0.5-0.3,0.9-0.3c0.4,0,0.7,0.1,0.9,0.3c0.2,0.2,0.3,0.5,0.3,0.8
			c0,0.3-0.1,0.6-0.3,0.8c-0.2,0.2-0.5,0.3-0.9,0.3c-0.4,0-0.7-0.1-0.9-0.3C1126.3,10478,1126.2,10477.7,1126.2,10477.4z
			 M1128.6,10488h-2.3v-8.5h2.3V10488z"/>
		<path class="st3" d="M1138,10483.9c0,1.3-0.3,2.3-0.9,3.1c-0.6,0.8-1.4,1.2-2.4,1.2c-0.9,0-1.5-0.3-2.1-0.9v4h-2.3v-11.7h2.1
			l0.1,0.8c0.5-0.7,1.3-1,2.1-1c1,0,1.9,0.4,2.4,1.2s0.9,1.8,0.9,3.2V10483.9z M1135.8,10483.7c0-0.8-0.1-1.4-0.4-1.8
			c-0.3-0.4-0.7-0.6-1.2-0.6c-0.7,0-1.2,0.3-1.5,0.8v3.5c0.3,0.6,0.8,0.8,1.5,0.8C1135.2,10486.3,1135.8,10485.5,1135.8,10483.7z"/>
		<path class="st3" d="M1143.3,10488.2c-1.2,0-2.2-0.4-3-1.1c-0.8-0.8-1.2-1.8-1.2-3v-0.2c0-0.8,0.2-1.6,0.5-2.3s0.8-1.2,1.4-1.5
			s1.3-0.5,2.1-0.5c1.2,0,2.1,0.4,2.7,1.1s1,1.8,1,3.1v0.9h-5.4c0.1,0.6,0.3,1,0.7,1.3s0.8,0.5,1.4,0.5c0.9,0,1.5-0.3,2-0.9l1.1,1.2
			c-0.3,0.5-0.8,0.9-1.4,1.1S1144,10488.2,1143.3,10488.2z M1143.1,10481.2c-0.4,0-0.8,0.2-1.1,0.5c-0.3,0.3-0.5,0.7-0.5,1.3h3.1
			v-0.2c0-0.5-0.1-0.9-0.4-1.2C1143.9,10481.3,1143.5,10481.2,1143.1,10481.2z"/>
		<path class="st3" d="M1152.7,10485.7c0-0.3-0.1-0.5-0.4-0.7s-0.7-0.3-1.3-0.4c-2-0.4-3-1.3-3-2.6c0-0.8,0.3-1.4,0.9-1.9
			c0.6-0.5,1.4-0.8,2.4-0.8c1.1,0,1.9,0.3,2.6,0.8c0.6,0.5,1,1.2,1,2h-2.3c0-0.3-0.1-0.6-0.3-0.8c-0.2-0.2-0.5-0.3-1-0.3
			c-0.4,0-0.7,0.1-0.9,0.3c-0.2,0.2-0.3,0.4-0.3,0.7c0,0.2,0.1,0.5,0.4,0.6c0.2,0.2,0.6,0.3,1.2,0.4s1,0.2,1.4,0.4
			c1.2,0.4,1.8,1.2,1.8,2.3c0,0.8-0.3,1.4-1,1.9c-0.7,0.5-1.5,0.7-2.6,0.7c-0.7,0-1.3-0.1-1.9-0.4c-0.5-0.3-1-0.6-1.3-1
			s-0.5-0.9-0.5-1.4h2.1c0,0.4,0.2,0.7,0.4,0.9c0.3,0.2,0.6,0.3,1.1,0.3c0.4,0,0.8-0.1,1-0.2
			C1152.6,10486.1,1152.7,10485.9,1152.7,10485.7z"/>
	</g>
	<path id="Trazado_213785" class="st4" d="M1257.1,10422.7h33.5v23.9H957.5v-37.2h16"/>
	<rect id="Rectángulo_43026" x="888" y="10343" class="st5" width="50" height="40"/>
	<rect id="Rectángulo_43032" x="952" y="10470" class="st5" width="24" height="20"/>
	<rect id="Rectángulo_43031" x="1207" y="10394" class="st5" width="50" height="40"/>
	<rect id="Rectángulo_43029" x="1207" y="10343" class="st5" width="50" height="40"/>
	<g id="Grupo_99458" transform="translate(0 -34)">
		<path id="Trazado_213784" class="st4" d="M938,10391h19.7v-26h111.6v26h130.8"/>
		<path id="Polígono_44" class="st6" d="M979.9,10365l-11,7v-14L979.9,10365z"/>
		<path id="Polígono_45" class="st6" d="M1097.9,10391l-11,7v-14L1097.9,10391z"/>
		<path id="Polígono_46" class="st6" d="M1207.9,10391l-11,7v-14L1207.9,10391z"/>
	</g>
	<path id="Trazado_213786" class="st4" d="M938,10371h19.7v26h111.6v-26h130.8"/>
	<path id="Polígono_48" class="st6" d="M1097.9,10371l-11,7v-14L1097.9,10371z"/>
	<path id="Polígono_49" class="st6" d="M1207.9,10371l-11,7v-14L1207.9,10371z"/>
	<path id="Polígono_51" class="st6" d="M1207.9,10407.5l-11,7v-14L1207.9,10407.5z"/>
	<path id="Polígono_52" class="st6" d="M1294,10407.5l-11,7v-14L1294,10407.5z"/>
	<path id="Polígono_53" class="st6" d="M1294,10364l-11,7v-14L1294,10364z"/>
	<path id="Polígono_55" class="st6" d="M1110,10481l-11,7v-14L1110,10481z"/>
	<path id="Polígono_54" class="st6" d="M888,10364l-11,7v-14L888,10364z"/>
	<rect id="Rectángulo_43027" x="978" y="10311" class="st5" width="50" height="40"/>
	<rect id="Rectángulo_43030" x="978" y="10380" class="st5" width="50" height="40"/>
	<rect id="Rectángulo_43028" x="1095" y="10344" class="st5" width="50" height="40"/>
	<path id="Polígono_47" class="st6" d="M979.9,10397l-11,7v-14L979.9,10397z"/>
	<path id="Polígono_50" class="st6" d="M979.9,10411l-11,7v-14L979.9,10411z"/>
	<line id="Línea_1333" class="st4" x1="1028.5" y1="10407.5" x2="1200.5" y2="10407.5"/>
	<line id="Línea_1334" class="st4" x1="1257" y1="10407.5" x2="1286.6" y2="10407.5"/>
	<line id="Línea_1335" class="st4" x1="1257" y1="10364" x2="1286.6" y2="10364"/>
	<line id="Línea_1337" class="st4" x1="1082.5" y1="10481" x2="1102.6" y2="10481"/>
	<line id="Línea_1336" class="st4" x1="851" y1="10364" x2="880.6" y2="10364"/>
	<rect id="Rectángulo_43034" x="839" y="10249" class="st7" width="494" height="38"/>
	<g class="st2">
		<path class="st3" d="M950.4,10272v4H948v-11.4h4.4c0.9,0,1.6,0.2,2.3,0.5s1.1,0.8,1.5,1.3c0.3,0.6,0.5,1.2,0.5,2
			c0,1.1-0.4,2-1.1,2.6c-0.8,0.6-1.8,1-3.2,1H950.4z M950.4,10270.1h2.1c0.6,0,1.1-0.1,1.4-0.4c0.3-0.3,0.5-0.7,0.5-1.2
			c0-0.6-0.2-1-0.5-1.4s-0.8-0.5-1.4-0.5h-2.1V10270.1z"/>
		<path class="st3" d="M958.2,10265.4c0-0.3,0.1-0.6,0.3-0.8s0.5-0.3,0.9-0.3c0.4,0,0.7,0.1,0.9,0.3c0.2,0.2,0.3,0.5,0.3,0.8
			c0,0.3-0.1,0.6-0.3,0.8c-0.2,0.2-0.5,0.3-0.9,0.3c-0.4,0-0.7-0.1-0.9-0.3C958.3,10266,958.2,10265.7,958.2,10265.4z M960.6,10276
			h-2.3v-8.5h2.3V10276z"/>
		<path class="st3" d="M970,10271.9c0,1.3-0.3,2.3-0.9,3.1c-0.6,0.8-1.4,1.2-2.4,1.2c-0.9,0-1.5-0.3-2.1-0.9v4h-2.3v-11.7h2.1
			l0.1,0.8c0.5-0.7,1.3-1,2.1-1c1,0,1.9,0.4,2.4,1.2s0.9,1.8,0.9,3.2V10271.9z M967.8,10271.7c0-0.8-0.1-1.4-0.4-1.8
			c-0.3-0.4-0.7-0.6-1.2-0.6c-0.7,0-1.2,0.3-1.5,0.8v3.5c0.3,0.6,0.8,0.8,1.5,0.8C967.2,10274.3,967.8,10273.5,967.8,10271.7z"/>
		<path class="st3" d="M975.3,10276.2c-1.2,0-2.2-0.4-3-1.1c-0.8-0.8-1.2-1.8-1.2-3v-0.2c0-0.8,0.2-1.6,0.5-2.3s0.8-1.2,1.4-1.5
			s1.3-0.5,2.1-0.5c1.2,0,2.1,0.4,2.7,1.1s1,1.8,1,3.1v0.9h-5.4c0.1,0.6,0.3,1,0.7,1.3s0.8,0.5,1.4,0.5c0.9,0,1.5-0.3,2-0.9l1.1,1.2
			c-0.3,0.5-0.8,0.9-1.4,1.1S976,10276.2,975.3,10276.2z M975.1,10269.2c-0.4,0-0.8,0.2-1.1,0.5c-0.3,0.3-0.5,0.7-0.5,1.3h3.1v-0.2
			c0-0.5-0.1-0.9-0.4-1.2C975.9,10269.3,975.5,10269.2,975.1,10269.2z"/>
		<path class="st3" d="M984.7,10273.7c0-0.3-0.1-0.5-0.4-0.7s-0.7-0.3-1.3-0.4c-2-0.4-3-1.3-3-2.6c0-0.8,0.3-1.4,0.9-1.9
			c0.6-0.5,1.4-0.8,2.4-0.8c1.1,0,1.9,0.3,2.6,0.8c0.6,0.5,1,1.2,1,2h-2.3c0-0.3-0.1-0.6-0.3-0.8c-0.2-0.2-0.5-0.3-1-0.3
			c-0.4,0-0.7,0.1-0.9,0.3c-0.2,0.2-0.3,0.4-0.3,0.7c0,0.2,0.1,0.5,0.4,0.6c0.2,0.2,0.6,0.3,1.2,0.4s1,0.2,1.4,0.4
			c1.2,0.4,1.8,1.2,1.8,2.3c0,0.8-0.3,1.4-1,1.9c-0.7,0.5-1.5,0.7-2.6,0.7c-0.7,0-1.3-0.1-1.9-0.4c-0.5-0.3-1-0.6-1.3-1
			s-0.5-0.9-0.5-1.4h2.1c0,0.4,0.2,0.7,0.4,0.9c0.3,0.2,0.6,0.3,1.1,0.3c0.4,0,0.8-0.1,1-0.2
			C984.6,10274.1,984.7,10273.9,984.7,10273.7z"/>
		<path class="st3" d="M997.2,10276c-0.1-0.2-0.2-0.5-0.2-0.8c-0.5,0.6-1.3,0.9-2.1,0.9c-0.8,0-1.5-0.2-2.1-0.7
			c-0.5-0.5-0.8-1.1-0.8-1.8c0-0.9,0.3-1.6,1-2.1s1.6-0.7,2.9-0.7h1v-0.5c0-0.4-0.1-0.7-0.3-0.9c-0.2-0.2-0.5-0.4-0.9-0.4
			c-0.4,0-0.7,0.1-0.9,0.3c-0.2,0.2-0.3,0.4-0.3,0.8h-2.3c0-0.5,0.2-0.9,0.5-1.4c0.3-0.4,0.7-0.7,1.3-1c0.6-0.2,1.2-0.4,1.9-0.4
			c1,0,1.9,0.3,2.5,0.8c0.6,0.5,0.9,1.3,0.9,2.2v3.7c0,0.8,0.1,1.4,0.3,1.8v0.1H997.2z M995.3,10274.4c0.3,0,0.6-0.1,0.9-0.2
			s0.5-0.3,0.6-0.6v-1.5H996c-1.1,0-1.7,0.4-1.8,1.2l0,0.1c0,0.3,0.1,0.5,0.3,0.7C994.7,10274.3,995,10274.4,995.3,10274.4z"/>
		<path class="st3" d="M1003,10267.5l0.1,1c0.6-0.8,1.4-1.1,2.4-1.1c0.9,0,1.6,0.3,2,0.8s0.7,1.3,0.7,2.4v5.5h-2.3v-5.4
			c0-0.5-0.1-0.8-0.3-1c-0.2-0.2-0.6-0.3-1-0.3c-0.6,0-1.1,0.3-1.4,0.8v6h-2.3v-8.5H1003z"/>
		<path class="st3" d="M1009.5,10271.7c0-1.3,0.3-2.4,0.9-3.1c0.6-0.8,1.4-1.2,2.4-1.2c0.8,0,1.5,0.3,2,0.9v-4.3h2.3v12h-2l-0.1-0.9
			c-0.6,0.7-1.3,1.1-2.2,1.1c-1,0-1.8-0.4-2.4-1.2S1009.5,10273.1,1009.5,10271.7z M1011.7,10271.9c0,0.8,0.1,1.4,0.4,1.8
			c0.3,0.4,0.7,0.6,1.2,0.6c0.7,0,1.2-0.3,1.5-0.9v-3.3c-0.3-0.6-0.8-0.9-1.5-0.9C1012.3,10269.2,1011.7,10270.1,1011.7,10271.9z"/>
		<path class="st3" d="M1023.5,10276v-6.8h-1.3v-1.7h1.3v-0.7c0-0.9,0.3-1.7,0.8-2.2c0.5-0.5,1.3-0.8,2.3-0.8c0.3,0,0.7,0.1,1.1,0.2
			l0,1.8c-0.2,0-0.4-0.1-0.7-0.1c-0.8,0-1.3,0.4-1.3,1.2v0.7h1.7v1.7h-1.7v6.8H1023.5z"/>
		<path class="st3" d="M1028.6,10265.4c0-0.3,0.1-0.6,0.3-0.8s0.5-0.3,0.9-0.3c0.4,0,0.7,0.1,0.9,0.3c0.2,0.2,0.3,0.5,0.3,0.8
			c0,0.3-0.1,0.6-0.3,0.8c-0.2,0.2-0.5,0.3-0.9,0.3c-0.4,0-0.7-0.1-0.9-0.3C1028.7,10266,1028.6,10265.7,1028.6,10265.4z
			 M1031,10276h-2.3v-8.5h2.3V10276z"/>
		<path class="st3" d="M1035.2,10276h-2.3v-12h2.3V10276z"/>
		<path class="st3" d="M1039.8,10265.5v2.1h1.4v1.7h-1.4v4.2c0,0.3,0.1,0.5,0.2,0.7c0.1,0.1,0.3,0.2,0.7,0.2c0.2,0,0.5,0,0.7-0.1
			v1.7c-0.4,0.1-0.9,0.2-1.4,0.2c-1.6,0-2.4-0.8-2.4-2.4v-4.6h-1.2v-1.7h1.2v-2.1H1039.8z"/>
		<path class="st3" d="M1046.4,10276.2c-1.2,0-2.2-0.4-3-1.1c-0.8-0.8-1.2-1.8-1.2-3v-0.2c0-0.8,0.2-1.6,0.5-2.3s0.8-1.2,1.4-1.5
			s1.3-0.5,2.1-0.5c1.2,0,2.1,0.4,2.7,1.1s1,1.8,1,3.1v0.9h-5.4c0.1,0.6,0.3,1,0.7,1.3s0.8,0.5,1.4,0.5c0.9,0,1.5-0.3,2-0.9l1.1,1.2
			c-0.3,0.5-0.8,0.9-1.4,1.1S1047.1,10276.2,1046.4,10276.2z M1046.1,10269.2c-0.4,0-0.8,0.2-1.1,0.5c-0.3,0.3-0.5,0.7-0.5,1.3h3.1
			v-0.2c0-0.5-0.1-0.9-0.4-1.2C1046.9,10269.3,1046.6,10269.2,1046.1,10269.2z"/>
		<path class="st3" d="M1055.9,10269.7c-0.3,0-0.6-0.1-0.8-0.1c-0.9,0-1.4,0.3-1.7,0.9v5.5h-2.3v-8.5h2.1l0.1,1
			c0.5-0.8,1.1-1.2,1.9-1.2c0.2,0,0.5,0,0.7,0.1L1055.9,10269.7z"/>
		<path class="st3" d="M1061.5,10273.7c0-0.3-0.1-0.5-0.4-0.7s-0.7-0.3-1.3-0.4c-2-0.4-3-1.3-3-2.6c0-0.8,0.3-1.4,0.9-1.9
			c0.6-0.5,1.4-0.8,2.4-0.8c1.1,0,1.9,0.3,2.6,0.8c0.6,0.5,1,1.2,1,2h-2.3c0-0.3-0.1-0.6-0.3-0.8c-0.2-0.2-0.5-0.3-1-0.3
			c-0.4,0-0.7,0.1-0.9,0.3c-0.2,0.2-0.3,0.4-0.3,0.7c0,0.2,0.1,0.5,0.4,0.6c0.2,0.2,0.6,0.3,1.2,0.4s1,0.2,1.4,0.4
			c1.2,0.4,1.8,1.2,1.8,2.3c0,0.8-0.3,1.4-1,1.9c-0.7,0.5-1.5,0.7-2.6,0.7c-0.7,0-1.3-0.1-1.9-0.4c-0.5-0.3-1-0.6-1.3-1
			s-0.5-0.9-0.5-1.4h2.1c0,0.4,0.2,0.7,0.4,0.9c0.3,0.2,0.6,0.3,1.1,0.3c0.4,0,0.8-0.1,1-0.2
			C1061.4,10274.1,1061.5,10273.9,1061.5,10273.7z"/>
		<path class="st3" d="M1069.3,10271.4c0-1.2,0.2-2.3,0.5-3.4c0.3-1.1,0.8-2,1.4-2.9c0.6-0.8,1.3-1.4,2-1.7l0.4,1.2
			c-0.8,0.6-1.4,1.4-1.8,2.6c-0.4,1.2-0.6,2.6-0.6,4.1v0.2c0,1.6,0.2,3,0.6,4.1s1,2.1,1.8,2.6l-0.4,1.2c-0.7-0.3-1.4-0.9-2-1.7
			c-0.6-0.8-1.1-1.7-1.4-2.8c-0.3-1.1-0.5-2.2-0.5-3.3V10271.4z"/>
		<path class="st3" d="M1081.5,10265.5v2.1h1.4v1.7h-1.4v4.2c0,0.3,0.1,0.5,0.2,0.7c0.1,0.1,0.3,0.2,0.7,0.2c0.2,0,0.5,0,0.7-0.1
			v1.7c-0.4,0.1-0.9,0.2-1.4,0.2c-1.6,0-2.4-0.8-2.4-2.4v-4.6h-1.2v-1.7h1.2v-2.1H1081.5z"/>
		<path class="st3" d="M1089.2,10275.1c-0.6,0.7-1.3,1-2.3,1c-0.9,0-1.6-0.3-2.1-0.8s-0.7-1.3-0.7-2.3v-5.5h2.3v5.5
			c0,0.9,0.4,1.3,1.2,1.3c0.8,0,1.3-0.3,1.6-0.8v-6h2.3v8.5h-2.1L1089.2,10275.1z"/>
		<path class="st3" d="M1100.7,10271.9c0,1.4-0.3,2.4-0.9,3.2s-1.4,1.1-2.4,1.1c-0.9,0-1.6-0.4-2.2-1.1l-0.1,0.9h-2v-12h2.3v4.3
			c0.5-0.6,1.2-0.9,2.1-0.9c1,0,1.8,0.4,2.4,1.1s0.9,1.8,0.9,3.2V10271.9z M1098.5,10271.7c0-0.9-0.1-1.5-0.4-1.9
			c-0.3-0.4-0.7-0.6-1.2-0.6c-0.7,0-1.2,0.3-1.5,0.9v3.3c0.3,0.6,0.8,0.9,1.5,0.9c0.7,0,1.2-0.4,1.4-1.1
			C1098.4,10272.9,1098.5,10272.4,1098.5,10271.7z"/>
		<path class="st3" d="M1106,10276.2c-1.2,0-2.2-0.4-3-1.1c-0.8-0.8-1.2-1.8-1.2-3v-0.2c0-0.8,0.2-1.6,0.5-2.3s0.8-1.2,1.4-1.5
			s1.3-0.5,2.1-0.5c1.2,0,2.1,0.4,2.7,1.1s1,1.8,1,3.1v0.9h-5.4c0.1,0.6,0.3,1,0.7,1.3s0.8,0.5,1.4,0.5c0.9,0,1.5-0.3,2-0.9l1.1,1.2
			c-0.3,0.5-0.8,0.9-1.4,1.1S1106.7,10276.2,1106,10276.2z M1105.8,10269.2c-0.4,0-0.8,0.2-1.1,0.5c-0.3,0.3-0.5,0.7-0.5,1.3h3.1
			v-0.2c0-0.5-0.1-0.9-0.4-1.2C1106.6,10269.3,1106.2,10269.2,1105.8,10269.2z"/>
		<path class="st3" d="M1115.5,10269.7c-0.3,0-0.6-0.1-0.8-0.1c-0.9,0-1.4,0.3-1.7,0.9v5.5h-2.3v-8.5h2.1l0.1,1
			c0.5-0.8,1.1-1.2,1.9-1.2c0.2,0,0.5,0,0.7,0.1L1115.5,10269.7z"/>
		<path class="st3" d="M1119,10276h-2.3v-8.5h2.3V10276z M1118.4,10264.1h2.5l-2.2,2.4h-1.8L1118.4,10264.1z"/>
		<path class="st3" d="M1125.9,10276c-0.1-0.2-0.2-0.5-0.2-0.8c-0.5,0.6-1.3,0.9-2.1,0.9c-0.8,0-1.5-0.2-2.1-0.7
			c-0.5-0.5-0.8-1.1-0.8-1.8c0-0.9,0.3-1.6,1-2.1s1.6-0.7,2.9-0.7h1v-0.5c0-0.4-0.1-0.7-0.3-0.9c-0.2-0.2-0.5-0.4-0.9-0.4
			c-0.4,0-0.7,0.1-0.9,0.3c-0.2,0.2-0.3,0.4-0.3,0.8h-2.3c0-0.5,0.2-0.9,0.5-1.4c0.3-0.4,0.7-0.7,1.3-1c0.6-0.2,1.2-0.4,1.9-0.4
			c1,0,1.9,0.3,2.5,0.8c0.6,0.5,0.9,1.3,0.9,2.2v3.7c0,0.8,0.1,1.4,0.3,1.8v0.1H1125.9z M1124,10274.4c0.3,0,0.6-0.1,0.9-0.2
			s0.5-0.3,0.6-0.6v-1.5h-0.8c-1.1,0-1.7,0.4-1.8,1.2l0,0.1c0,0.3,0.1,0.5,0.3,0.7C1123.4,10274.3,1123.7,10274.4,1124,10274.4z"/>
		<path class="st3" d="M1134.1,10273.7c0-0.3-0.1-0.5-0.4-0.7s-0.7-0.3-1.3-0.4c-2-0.4-3-1.3-3-2.6c0-0.8,0.3-1.4,0.9-1.9
			c0.6-0.5,1.4-0.8,2.4-0.8c1.1,0,1.9,0.3,2.6,0.8c0.6,0.5,1,1.2,1,2h-2.3c0-0.3-0.1-0.6-0.3-0.8c-0.2-0.2-0.5-0.3-1-0.3
			c-0.4,0-0.7,0.1-0.9,0.3c-0.2,0.2-0.3,0.4-0.3,0.7c0,0.2,0.1,0.5,0.4,0.6c0.2,0.2,0.6,0.3,1.2,0.4s1,0.2,1.4,0.4
			c1.2,0.4,1.8,1.2,1.8,2.3c0,0.8-0.3,1.4-1,1.9c-0.7,0.5-1.5,0.7-2.6,0.7c-0.7,0-1.3-0.1-1.9-0.4c-0.5-0.3-1-0.6-1.3-1
			s-0.5-0.9-0.5-1.4h2.1c0,0.4,0.2,0.7,0.4,0.9c0.3,0.2,0.6,0.3,1.1,0.3c0.4,0,0.8-0.1,1-0.2
			C1134,10274.1,1134.1,10273.9,1134.1,10273.7z"/>
		<path class="st3" d="M1144.9,10272.8l1.6-5.3h2.4l-3.4,9.8l-0.2,0.4c-0.5,1.1-1.3,1.7-2.5,1.7c-0.3,0-0.7,0-1-0.1v-1.7l0.3,0
			c0.4,0,0.7-0.1,1-0.2s0.4-0.3,0.5-0.6l0.3-0.7l-3-8.5h2.4L1144.9,10272.8z"/>
		<path class="st3" d="M1154.4,10276v-6.8h-1.3v-1.7h1.3v-0.7c0-0.9,0.3-1.7,0.8-2.2c0.5-0.5,1.3-0.8,2.3-0.8c0.3,0,0.7,0.1,1.1,0.2
			l0,1.8c-0.2,0-0.4-0.1-0.7-0.1c-0.8,0-1.3,0.4-1.3,1.2v0.7h1.7v1.7h-1.7v6.8H1154.4z"/>
		<path class="st3" d="M1159.5,10265.4c0-0.3,0.1-0.6,0.3-0.8s0.5-0.3,0.9-0.3c0.4,0,0.7,0.1,0.9,0.3c0.2,0.2,0.3,0.5,0.3,0.8
			c0,0.3-0.1,0.6-0.3,0.8c-0.2,0.2-0.5,0.3-0.9,0.3c-0.4,0-0.7-0.1-0.9-0.3C1159.6,10266,1159.5,10265.7,1159.5,10265.4z
			 M1161.9,10276h-2.3v-8.5h2.3V10276z"/>
		<path class="st3" d="M1166.2,10276h-2.3v-12h2.3V10276z"/>
		<path class="st3" d="M1170.7,10265.5v2.1h1.4v1.7h-1.4v4.2c0,0.3,0.1,0.5,0.2,0.7c0.1,0.1,0.3,0.2,0.7,0.2c0.2,0,0.5,0,0.7-0.1
			v1.7c-0.4,0.1-0.9,0.2-1.4,0.2c-1.6,0-2.4-0.8-2.4-2.4v-4.6h-1.2v-1.7h1.2v-2.1H1170.7z"/>
		<path class="st3" d="M1178.2,10269.7c-0.3,0-0.6-0.1-0.8-0.1c-0.9,0-1.4,0.3-1.7,0.9v5.5h-2.3v-8.5h2.1l0.1,1
			c0.5-0.8,1.1-1.2,1.9-1.2c0.2,0,0.5,0,0.7,0.1L1178.2,10269.7z"/>
		<path class="st3" d="M1178.6,10271.7c0-0.8,0.2-1.6,0.5-2.2c0.3-0.7,0.8-1.2,1.4-1.5c0.6-0.4,1.3-0.5,2.1-0.5c1.1,0,2.1,0.3,2.8,1
			c0.7,0.7,1.1,1.6,1.2,2.8l0,0.6c0,1.3-0.4,2.3-1.1,3.1c-0.7,0.8-1.7,1.2-2.9,1.2s-2.2-0.4-2.9-1.2s-1.1-1.8-1.1-3.2V10271.7z
			 M1180.9,10271.9c0,0.8,0.2,1.4,0.5,1.8c0.3,0.4,0.7,0.6,1.3,0.6c0.5,0,1-0.2,1.3-0.6c0.3-0.4,0.5-1.1,0.5-2
			c0-0.8-0.2-1.4-0.5-1.8c-0.3-0.4-0.7-0.6-1.3-0.6c-0.6,0-1,0.2-1.3,0.6C1181,10270.3,1180.9,10271,1180.9,10271.9z"/>
		<path class="st3" d="M1192.6,10273.7c0-0.3-0.1-0.5-0.4-0.7s-0.7-0.3-1.3-0.4c-2-0.4-3-1.3-3-2.6c0-0.8,0.3-1.4,0.9-1.9
			c0.6-0.5,1.4-0.8,2.4-0.8c1.1,0,1.9,0.3,2.6,0.8c0.6,0.5,1,1.2,1,2h-2.3c0-0.3-0.1-0.6-0.3-0.8c-0.2-0.2-0.5-0.3-1-0.3
			c-0.4,0-0.7,0.1-0.9,0.3c-0.2,0.2-0.3,0.4-0.3,0.7c0,0.2,0.1,0.5,0.4,0.6c0.2,0.2,0.6,0.3,1.2,0.4s1,0.2,1.4,0.4
			c1.2,0.4,1.8,1.2,1.8,2.3c0,0.8-0.3,1.4-1,1.9c-0.7,0.5-1.5,0.7-2.6,0.7c-0.7,0-1.3-0.1-1.9-0.4c-0.5-0.3-1-0.6-1.3-1
			s-0.5-0.9-0.5-1.4h2.1c0,0.4,0.2,0.7,0.4,0.9c0.3,0.2,0.6,0.3,1.1,0.3c0.4,0,0.8-0.1,1-0.2
			C1192.5,10274.1,1192.6,10273.9,1192.6,10273.7z"/>
		<path class="st3" d="M1200.1,10271.6c0,1.2-0.2,2.3-0.5,3.4c-0.3,1.1-0.8,2-1.5,2.9c-0.6,0.8-1.3,1.4-2,1.7l-0.4-1.2
			c0.7-0.6,1.3-1.4,1.8-2.6c0.4-1.2,0.6-2.5,0.7-4v-0.4c0-1.6-0.2-2.9-0.6-4.1c-0.4-1.2-1-2.1-1.8-2.7l0.4-1.2
			c0.7,0.3,1.4,0.9,2,1.7c0.6,0.8,1.1,1.7,1.5,2.8c0.3,1.1,0.5,2.2,0.5,3.3V10271.6z"/>
	</g>
</g>
</svg>
