<svg xmlns="http://www.w3.org/2000/svg" width="557" height="340" viewBox="0 0 557 340">
  <g id="Grupo_106851" data-name="Grupo 106851" transform="translate(-810 -10666)">
    <g id="Rectángulo_43038" data-name="Rectángulo 43038" transform="translate(810 10666)" fill="#fff" stroke="#4dd0e1" stroke-width="2">
      <rect width="557" height="340" rx="18" stroke="none"/>
      <rect x="1" y="1" width="555" height="338" rx="17" fill="none"/>
    </g>
    <g id="Grupo_99466" data-name="Grupo 99466" transform="translate(93.2 60.5)">
      <path id="Trazado_213798" data-name="Trazado 213798" d="M8.748,8.921a5.665,5.665,0,0,1-.49,2.43,3.689,3.689,0,0,1-1.4,1.611,3.878,3.878,0,0,1-2.092.567,3.9,3.9,0,0,1-2.082-.561,3.725,3.725,0,0,1-1.418-1.6A5.5,5.5,0,0,1,.756,8.972V8.508a5.635,5.635,0,0,1,.5-2.44A3.719,3.719,0,0,1,2.667,4.451a3.883,3.883,0,0,1,2.085-.564,3.883,3.883,0,0,1,2.085.564A3.719,3.719,0,0,1,8.249,6.068a5.619,5.619,0,0,1,.5,2.433ZM6.789,8.5A3.949,3.949,0,0,0,6.26,6.252a1.722,1.722,0,0,0-1.508-.767,1.723,1.723,0,0,0-1.5.757,3.9,3.9,0,0,0-.535,2.22v.458a4,4,0,0,0,.529,2.23,1.718,1.718,0,0,0,1.521.793,1.7,1.7,0,0,0,1.5-.764,3.975,3.975,0,0,0,.529-2.227Zm9.526,1.482a4.223,4.223,0,0,1-.715,2.614,2.37,2.37,0,0,1-2,.938,2.177,2.177,0,0,1-1.811-.87l-.084.741H10.031V3.5h1.863V7.051a2.121,2.121,0,0,1,1.7-.754,2.389,2.389,0,0,1,2,.938,4.229,4.229,0,0,1,.725,2.639Zm-1.863-.142a2.79,2.79,0,0,0-.335-1.548,1.132,1.132,0,0,0-1-.488,1.228,1.228,0,0,0-1.225.731V11.29a1.245,1.245,0,0,0,1.238.737,1.15,1.15,0,0,0,1.186-.892A4.616,4.616,0,0,0,14.452,9.836Zm4.982-3.409V13.78a2.5,2.5,0,0,1-.612,1.8,2.327,2.327,0,0,1-1.766.641,3.787,3.787,0,0,1-.922-.11V14.631a3.5,3.5,0,0,0,.587.058q.844,0,.844-.9V6.426Zm-2.017-1.8a.917.917,0,0,1,.28-.69,1.213,1.213,0,0,1,1.528,0,.917.917,0,0,1,.28.69.915.915,0,0,1-.287.7,1.195,1.195,0,0,1-1.515,0A.915.915,0,0,1,17.417,4.621ZM24.1,13.529a3.424,3.424,0,0,1-2.5-.941,3.345,3.345,0,0,1-.964-2.507V9.9a4.213,4.213,0,0,1,.406-1.879A2.98,2.98,0,0,1,22.2,6.745a3.229,3.229,0,0,1,1.7-.448,2.894,2.894,0,0,1,2.253.9,3.667,3.667,0,0,1,.822,2.559v.761H22.528a1.73,1.73,0,0,0,.545,1.1,1.646,1.646,0,0,0,1.15.412,2.011,2.011,0,0,0,1.682-.78l.915,1.025a2.8,2.8,0,0,1-1.134.925A3.722,3.722,0,0,1,24.1,13.529ZM23.888,7.8a1.164,1.164,0,0,0-.9.375,1.944,1.944,0,0,0-.442,1.075h2.591V9.1a1.387,1.387,0,0,0-.335-.961A1.2,1.2,0,0,0,23.888,7.8Zm6.368-3.087V6.426h1.192V7.793H30.256v3.48a.831.831,0,0,0,.148.554.745.745,0,0,0,.567.168,2.971,2.971,0,0,0,.548-.045v1.412a3.835,3.835,0,0,1-1.128.168,1.778,1.778,0,0,1-2-1.979V7.793H27.375V6.426h1.018V4.712ZM32,9.849A4.136,4.136,0,0,1,32.4,8a2.925,2.925,0,0,1,1.15-1.257A3.357,3.357,0,0,1,35.3,6.3a3.176,3.176,0,0,1,2.3.864,3.466,3.466,0,0,1,1,2.346l.013.477a3.645,3.645,0,0,1-.9,2.575,3.472,3.472,0,0,1-4.811,0,3.709,3.709,0,0,1-.9-2.63Zm1.863.132a2.607,2.607,0,0,0,.374,1.52,1.343,1.343,0,0,0,2.127.006,2.852,2.852,0,0,0,.38-1.662,2.581,2.581,0,0,0-.38-1.511A1.236,1.236,0,0,0,35.3,7.8a1.216,1.216,0,0,0-1.057.533A2.9,2.9,0,0,0,33.865,9.981Z" transform="translate(967.599 10635)" fill="#12263f"/>
      <path id="Trazado_213799" data-name="Trazado 213799" d="M8.748,8.921a5.665,5.665,0,0,1-.49,2.43,3.689,3.689,0,0,1-1.4,1.611,3.878,3.878,0,0,1-2.092.567,3.9,3.9,0,0,1-2.082-.561,3.725,3.725,0,0,1-1.418-1.6A5.5,5.5,0,0,1,.756,8.972V8.508a5.635,5.635,0,0,1,.5-2.44A3.719,3.719,0,0,1,2.667,4.451a3.883,3.883,0,0,1,2.085-.564,3.883,3.883,0,0,1,2.085.564A3.719,3.719,0,0,1,8.249,6.068a5.619,5.619,0,0,1,.5,2.433ZM6.789,8.5A3.949,3.949,0,0,0,6.26,6.252a1.722,1.722,0,0,0-1.508-.767,1.723,1.723,0,0,0-1.5.757,3.9,3.9,0,0,0-.535,2.22v.458a4,4,0,0,0,.529,2.23,1.718,1.718,0,0,0,1.521.793,1.7,1.7,0,0,0,1.5-.764,3.975,3.975,0,0,0,.529-2.227Zm9.526,1.482a4.223,4.223,0,0,1-.715,2.614,2.37,2.37,0,0,1-2,.938,2.177,2.177,0,0,1-1.811-.87l-.084.741H10.031V3.5h1.863V7.051a2.121,2.121,0,0,1,1.7-.754,2.389,2.389,0,0,1,2,.938,4.229,4.229,0,0,1,.725,2.639Zm-1.863-.142a2.79,2.79,0,0,0-.335-1.548,1.132,1.132,0,0,0-1-.488,1.228,1.228,0,0,0-1.225.731V11.29a1.245,1.245,0,0,0,1.238.737,1.15,1.15,0,0,0,1.186-.892A4.616,4.616,0,0,0,14.452,9.836Zm4.982-3.409V13.78a2.5,2.5,0,0,1-.612,1.8,2.327,2.327,0,0,1-1.766.641,3.787,3.787,0,0,1-.922-.11V14.631a3.5,3.5,0,0,0,.587.058q.844,0,.844-.9V6.426Zm-2.017-1.8a.917.917,0,0,1,.28-.69,1.213,1.213,0,0,1,1.528,0,.917.917,0,0,1,.28.69.915.915,0,0,1-.287.7,1.195,1.195,0,0,1-1.515,0A.915.915,0,0,1,17.417,4.621ZM24.1,13.529a3.424,3.424,0,0,1-2.5-.941,3.345,3.345,0,0,1-.964-2.507V9.9a4.213,4.213,0,0,1,.406-1.879A2.98,2.98,0,0,1,22.2,6.745a3.229,3.229,0,0,1,1.7-.448,2.894,2.894,0,0,1,2.253.9,3.667,3.667,0,0,1,.822,2.559v.761H22.528a1.73,1.73,0,0,0,.545,1.1,1.646,1.646,0,0,0,1.15.412,2.011,2.011,0,0,0,1.682-.78l.915,1.025a2.8,2.8,0,0,1-1.134.925A3.722,3.722,0,0,1,24.1,13.529ZM23.888,7.8a1.164,1.164,0,0,0-.9.375,1.944,1.944,0,0,0-.442,1.075h2.591V9.1a1.387,1.387,0,0,0-.335-.961A1.2,1.2,0,0,0,23.888,7.8Zm6.368-3.087V6.426h1.192V7.793H30.256v3.48a.831.831,0,0,0,.148.554.745.745,0,0,0,.567.168,2.971,2.971,0,0,0,.548-.045v1.412a3.835,3.835,0,0,1-1.128.168,1.778,1.778,0,0,1-2-1.979V7.793H27.375V6.426h1.018V4.712ZM32,9.849A4.136,4.136,0,0,1,32.4,8a2.925,2.925,0,0,1,1.15-1.257A3.357,3.357,0,0,1,35.3,6.3a3.176,3.176,0,0,1,2.3.864,3.466,3.466,0,0,1,1,2.346l.013.477a3.645,3.645,0,0,1-.9,2.575,3.472,3.472,0,0,1-4.811,0,3.709,3.709,0,0,1-.9-2.63Zm1.863.132a2.607,2.607,0,0,0,.374,1.52,1.343,1.343,0,0,0,2.127.006,2.852,2.852,0,0,0,.38-1.662,2.581,2.581,0,0,0-.38-1.511A1.236,1.236,0,0,0,35.3,7.8a1.216,1.216,0,0,0-1.057.533A2.9,2.9,0,0,0,33.865,9.981Z" transform="translate(814.332 10733.267)" fill="#12263f"/>
      <path id="Trazado_213797" data-name="Trazado 213797" d="M8.748,8.921a5.665,5.665,0,0,1-.49,2.43,3.689,3.689,0,0,1-1.4,1.611,3.878,3.878,0,0,1-2.092.567,3.9,3.9,0,0,1-2.082-.561,3.725,3.725,0,0,1-1.418-1.6A5.5,5.5,0,0,1,.756,8.972V8.508a5.635,5.635,0,0,1,.5-2.44A3.719,3.719,0,0,1,2.667,4.451a3.883,3.883,0,0,1,2.085-.564,3.883,3.883,0,0,1,2.085.564A3.719,3.719,0,0,1,8.249,6.068a5.619,5.619,0,0,1,.5,2.433ZM6.789,8.5A3.949,3.949,0,0,0,6.26,6.252a1.722,1.722,0,0,0-1.508-.767,1.723,1.723,0,0,0-1.5.757,3.9,3.9,0,0,0-.535,2.22v.458a4,4,0,0,0,.529,2.23,1.718,1.718,0,0,0,1.521.793,1.7,1.7,0,0,0,1.5-.764,3.975,3.975,0,0,0,.529-2.227Zm9.526,1.482a4.223,4.223,0,0,1-.715,2.614,2.37,2.37,0,0,1-2,.938,2.177,2.177,0,0,1-1.811-.87l-.084.741H10.031V3.5h1.863V7.051a2.121,2.121,0,0,1,1.7-.754,2.389,2.389,0,0,1,2,.938,4.229,4.229,0,0,1,.725,2.639Zm-1.863-.142a2.79,2.79,0,0,0-.335-1.548,1.132,1.132,0,0,0-1-.488,1.228,1.228,0,0,0-1.225.731V11.29a1.245,1.245,0,0,0,1.238.737,1.15,1.15,0,0,0,1.186-.892A4.616,4.616,0,0,0,14.452,9.836Zm4.982-3.409V13.78a2.5,2.5,0,0,1-.612,1.8,2.327,2.327,0,0,1-1.766.641,3.787,3.787,0,0,1-.922-.11V14.631a3.5,3.5,0,0,0,.587.058q.844,0,.844-.9V6.426Zm-2.017-1.8a.917.917,0,0,1,.28-.69,1.213,1.213,0,0,1,1.528,0,.917.917,0,0,1,.28.69.915.915,0,0,1-.287.7,1.195,1.195,0,0,1-1.515,0A.915.915,0,0,1,17.417,4.621ZM24.1,13.529a3.424,3.424,0,0,1-2.5-.941,3.345,3.345,0,0,1-.964-2.507V9.9a4.213,4.213,0,0,1,.406-1.879A2.98,2.98,0,0,1,22.2,6.745a3.229,3.229,0,0,1,1.7-.448,2.894,2.894,0,0,1,2.253.9,3.667,3.667,0,0,1,.822,2.559v.761H22.528a1.73,1.73,0,0,0,.545,1.1,1.646,1.646,0,0,0,1.15.412,2.011,2.011,0,0,0,1.682-.78l.915,1.025a2.8,2.8,0,0,1-1.134.925A3.722,3.722,0,0,1,24.1,13.529ZM23.888,7.8a1.164,1.164,0,0,0-.9.375,1.944,1.944,0,0,0-.442,1.075h2.591V9.1a1.387,1.387,0,0,0-.335-.961A1.2,1.2,0,0,0,23.888,7.8Zm6.368-3.087V6.426h1.192V7.793H30.256v3.48a.831.831,0,0,0,.148.554.745.745,0,0,0,.567.168,2.971,2.971,0,0,0,.548-.045v1.412a3.835,3.835,0,0,1-1.128.168,1.778,1.778,0,0,1-2-1.979V7.793H27.375V6.426h1.018V4.712ZM32,9.849A4.136,4.136,0,0,1,32.4,8a2.925,2.925,0,0,1,1.15-1.257A3.357,3.357,0,0,1,35.3,6.3a3.176,3.176,0,0,1,2.3.864,3.466,3.466,0,0,1,1,2.346l.013.477a3.645,3.645,0,0,1-.9,2.575,3.472,3.472,0,0,1-4.811,0,3.709,3.709,0,0,1-.9-2.63Zm1.863.132a2.607,2.607,0,0,0,.374,1.52,1.343,1.343,0,0,0,2.127.006,2.852,2.852,0,0,0,.38-1.662,2.581,2.581,0,0,0-.38-1.511A1.236,1.236,0,0,0,35.3,7.8a1.216,1.216,0,0,0-1.057.533A2.9,2.9,0,0,0,33.865,9.981Z" transform="translate(1125.265 10733.267)" fill="#12263f"/>
      <circle id="Elipse_6364" data-name="Elipse 6364" cx="79" cy="79" r="79" transform="translate(913.8 10657.066)" fill="#4dd0e1"/>
      <circle id="Elipse_6365" data-name="Elipse 6365" cx="79" cy="79" r="79" transform="translate(760.8 10755.066)" fill="#4dd0e1"/>
      <circle id="Elipse_6366" data-name="Elipse 6366" cx="79" cy="79" r="79" transform="translate(1071.8 10755.066)" fill="#4dd0e1"/>
      <g id="Grupo_99460" data-name="Grupo 99460" transform="translate(940.667 10668.934)">
        <g id="Rectángulo_43036" data-name="Rectángulo 43036" transform="translate(0.134 33.133)" fill="#fff" stroke="#707070" stroke-width="1">
          <rect width="105" height="38" rx="5" stroke="none"/>
          <rect x="0.5" y="0.5" width="104" height="37" rx="4.5" fill="none"/>
        </g>
        <g id="Rectángulo_43037" data-name="Rectángulo 43037" transform="translate(0.134 79.133)" fill="#fff" stroke="#707070" stroke-width="1">
          <rect width="105" height="38" rx="5" stroke="none"/>
          <rect x="0.5" y="0.5" width="104" height="37" rx="4.5" fill="none"/>
        </g>
        <path id="Trazado_213792" data-name="Trazado 213792" d="M7.292,8.116h-3.5V11.8h-1.1V3.458H7.859v.9H3.791V7.217h3.5Zm5.42,3.071a2.251,2.251,0,0,1-1.816.728,1.927,1.927,0,0,1-1.51-.576,2.492,2.492,0,0,1-.524-1.7V5.6h1.06v4q0,1.409,1.146,1.409a1.587,1.587,0,0,0,1.616-.905V5.6h1.06v6.2H12.735ZM16.355,5.6l.034.779a2.259,2.259,0,0,1,1.856-.894q1.965,0,1.982,2.217v4.1h-1.06V7.7a1.427,1.427,0,0,0-.307-.991,1.228,1.228,0,0,0-.937-.321,1.53,1.53,0,0,0-.905.275,1.867,1.867,0,0,0-.607.722V11.8h-1.06V5.6Zm7.958,5.448a1.527,1.527,0,0,0,.991-.344,1.209,1.209,0,0,0,.47-.859h1a1.922,1.922,0,0,1-.367,1.014,2.415,2.415,0,0,1-.9.768,2.6,2.6,0,0,1-1.195.286A2.554,2.554,0,0,1,22.3,11.07a3.366,3.366,0,0,1-.748-2.312V8.58a3.732,3.732,0,0,1,.332-1.61,2.531,2.531,0,0,1,.954-1.094,2.71,2.71,0,0,1,1.47-.39,2.486,2.486,0,0,1,1.733.624,2.232,2.232,0,0,1,.736,1.621h-1a1.461,1.461,0,0,0-.455-.988,1.417,1.417,0,0,0-1.011-.387,1.483,1.483,0,0,0-1.252.582,2.731,2.731,0,0,0-.444,1.682v.2a2.677,2.677,0,0,0,.441,1.65A1.491,1.491,0,0,0,24.313,11.049Zm4.807.751H28.06V5.6h1.06ZM27.974,3.957a.633.633,0,0,1,.158-.435.592.592,0,0,1,.467-.178.6.6,0,0,1,.47.178.626.626,0,0,1,.16.435.605.605,0,0,1-.16.43.612.612,0,0,1-.47.172.6.6,0,0,1-.467-.172A.612.612,0,0,1,27.974,3.957Zm2.561,4.686A3.661,3.661,0,0,1,30.893,7a2.671,2.671,0,0,1,1-1.123,2.714,2.714,0,0,1,1.458-.4,2.614,2.614,0,0,1,2.048.877,3.372,3.372,0,0,1,.782,2.332v.074a3.693,3.693,0,0,1-.347,1.624,2.632,2.632,0,0,1-.991,1.12,2.745,2.745,0,0,1-1.481.4,2.608,2.608,0,0,1-2.042-.877,3.355,3.355,0,0,1-.782-2.32Zm1.066.126a2.652,2.652,0,0,0,.478,1.656,1.621,1.621,0,0,0,2.564-.009,2.9,2.9,0,0,0,.476-1.773,2.647,2.647,0,0,0-.484-1.653,1.539,1.539,0,0,0-1.286-.633,1.522,1.522,0,0,0-1.266.624A2.878,2.878,0,0,0,31.6,8.769Zm2.229-5.758h1.283L33.577,4.7l-.854,0ZM38.51,5.6l.034.779A2.259,2.259,0,0,1,40.4,5.486q1.965,0,1.982,2.217v4.1h-1.06V7.7a1.427,1.427,0,0,0-.307-.991,1.228,1.228,0,0,0-.937-.321,1.53,1.53,0,0,0-.905.275,1.867,1.867,0,0,0-.607.722V11.8h-1.06V5.6Zm9.373,0,.029.688a2.289,2.289,0,0,1,1.839-.8,1.772,1.772,0,0,1,1.77,1,2.348,2.348,0,0,1,.8-.722A2.377,2.377,0,0,1,53.5,5.486q2.04,0,2.074,2.16V11.8h-1.06V7.709a1.423,1.423,0,0,0-.3-.994,1.337,1.337,0,0,0-1.02-.329,1.405,1.405,0,0,0-.98.352,1.429,1.429,0,0,0-.453.948V11.8H50.69V7.738a1.183,1.183,0,0,0-1.323-1.352,1.418,1.418,0,0,0-1.427.888V11.8H46.88V5.6Zm10.439,6.2h-1.06V5.6h1.06ZM57.176,3.957a.633.633,0,0,1,.158-.435.592.592,0,0,1,.467-.178.6.6,0,0,1,.47.178.626.626,0,0,1,.16.435.605.605,0,0,1-.16.43.612.612,0,0,1-.47.172.6.6,0,0,1-.467-.172A.612.612,0,0,1,57.176,3.957Zm5.414,7.958a2.708,2.708,0,0,1-2.051-.828,3.073,3.073,0,0,1-.791-2.214V8.678A3.72,3.72,0,0,1,60.1,7.03,2.749,2.749,0,0,1,61.086,5.9a2.478,2.478,0,0,1,1.372-.41,2.322,2.322,0,0,1,1.879.8,3.448,3.448,0,0,1,.67,2.28V9h-4.2a2.2,2.2,0,0,0,.536,1.481,1.684,1.684,0,0,0,1.3.564,1.846,1.846,0,0,0,.951-.229,2.39,2.39,0,0,0,.682-.607l.647.5A2.6,2.6,0,0,1,62.59,11.915Zm-.132-5.557a1.414,1.414,0,0,0-1.077.467,2.269,2.269,0,0,0-.539,1.309h3.105v-.08A2.019,2.019,0,0,0,63.512,6.8,1.331,1.331,0,0,0,62.458,6.357ZM67.23,5.6l.029.688a2.289,2.289,0,0,1,1.839-.8,1.772,1.772,0,0,1,1.77,1,2.348,2.348,0,0,1,.8-.722,2.377,2.377,0,0,1,1.172-.275q2.04,0,2.074,2.16V11.8h-1.06V7.709a1.423,1.423,0,0,0-.3-.994,1.337,1.337,0,0,0-1.02-.329,1.405,1.405,0,0,0-.98.352,1.429,1.429,0,0,0-.453.948V11.8H70.038V7.738a1.183,1.183,0,0,0-1.323-1.352,1.418,1.418,0,0,0-1.427.888V11.8h-1.06V5.6ZM81.765,8.769a3.686,3.686,0,0,1-.653,2.283,2.087,2.087,0,0,1-1.753.862,2.161,2.161,0,0,1-1.816-.831l-.052.716h-.974V3h1.06V6.283a2.149,2.149,0,0,1,1.77-.8,2.1,2.1,0,0,1,1.773.854,3.8,3.8,0,0,1,.645,2.337Zm-1.06-.12a2.864,2.864,0,0,0-.418-1.673,1.385,1.385,0,0,0-1.2-.59,1.556,1.556,0,0,0-1.507.974v2.681a1.6,1.6,0,0,0,1.518.974,1.377,1.377,0,0,0,1.186-.59A3.046,3.046,0,0,0,80.705,8.649Zm5.391-2.1a3.176,3.176,0,0,0-.521-.04A1.4,1.4,0,0,0,84.16,7.4v4.4H83.1V5.6h1.031l.017.716a1.65,1.65,0,0,1,1.478-.831,1.083,1.083,0,0,1,.47.08Zm.579,2.091A3.661,3.661,0,0,1,87.033,7a2.671,2.671,0,0,1,1-1.123,2.714,2.714,0,0,1,1.458-.4,2.614,2.614,0,0,1,2.048.877,3.372,3.372,0,0,1,.782,2.332v.074a3.693,3.693,0,0,1-.347,1.624,2.632,2.632,0,0,1-.991,1.12,2.745,2.745,0,0,1-1.481.4,2.608,2.608,0,0,1-2.042-.877,3.355,3.355,0,0,1-.782-2.32Zm1.066.126a2.652,2.652,0,0,0,.478,1.656,1.621,1.621,0,0,0,2.564-.009,2.9,2.9,0,0,0,.476-1.773,2.647,2.647,0,0,0-.484-1.653,1.539,1.539,0,0,0-1.286-.633,1.522,1.522,0,0,0-1.266.624A2.878,2.878,0,0,0,87.741,8.769ZM23.892,26.014a8.858,8.858,0,0,1,.347-2.486,7.223,7.223,0,0,1,1.034-2.166A4.4,4.4,0,0,1,26.7,19.987l.218.7a4.563,4.563,0,0,0-1.372,1.959,8.494,8.494,0,0,0-.587,2.951l-.006.487a8.538,8.538,0,0,0,.808,3.839,4.585,4.585,0,0,0,1.157,1.524l-.218.647a4.541,4.541,0,0,1-1.455-1.421A7.963,7.963,0,0,1,23.892,26.014ZM28.94,23.2l.029.688a2.289,2.289,0,0,1,1.839-.8,1.772,1.772,0,0,1,1.77,1,2.348,2.348,0,0,1,.8-.722,2.377,2.377,0,0,1,1.172-.275q2.04,0,2.074,2.16V29.4h-1.06V25.309a1.423,1.423,0,0,0-.3-.994,1.337,1.337,0,0,0-1.02-.329,1.405,1.405,0,0,0-.98.352,1.429,1.429,0,0,0-.453.948V29.4H31.747V25.338a1.183,1.183,0,0,0-1.323-1.352A1.418,1.418,0,0,0,29,24.874V29.4h-1.06V23.2ZM40.8,29.515a2.708,2.708,0,0,1-2.051-.828,3.073,3.073,0,0,1-.791-2.214v-.195a3.72,3.72,0,0,1,.352-1.647A2.749,2.749,0,0,1,39.3,23.5a2.478,2.478,0,0,1,1.372-.41,2.322,2.322,0,0,1,1.879.8,3.448,3.448,0,0,1,.67,2.28V26.6h-4.2a2.2,2.2,0,0,0,.536,1.481,1.684,1.684,0,0,0,1.3.564,1.846,1.846,0,0,0,.951-.229,2.39,2.39,0,0,0,.682-.607l.647.5A2.6,2.6,0,0,1,40.8,29.515Zm-.132-5.557a1.414,1.414,0,0,0-1.077.467,2.27,2.27,0,0,0-.539,1.309h3.105v-.08a2.019,2.019,0,0,0-.435-1.252A1.331,1.331,0,0,0,40.667,23.957Zm.516-3.346h1.283L40.931,22.3l-.854,0Zm4.7,1.089v1.5h1.157v.819H45.881v3.849a.86.86,0,0,0,.155.559.651.651,0,0,0,.527.186,2.566,2.566,0,0,0,.5-.069V29.4a3.091,3.091,0,0,1-.814.114,1.32,1.32,0,0,1-1.071-.43,1.846,1.846,0,0,1-.361-1.22V24.02H43.692V23.2h1.129V21.7Zm2,4.543a3.661,3.661,0,0,1,.358-1.639,2.671,2.671,0,0,1,1-1.123,2.714,2.714,0,0,1,1.458-.4,2.614,2.614,0,0,1,2.048.877,3.372,3.372,0,0,1,.782,2.332v.074a3.693,3.693,0,0,1-.347,1.624,2.632,2.632,0,0,1-.991,1.12,2.745,2.745,0,0,1-1.481.4,2.608,2.608,0,0,1-2.042-.877,3.355,3.355,0,0,1-.782-2.32Zm1.066.126a2.652,2.652,0,0,0,.478,1.656,1.621,1.621,0,0,0,2.564-.009,2.9,2.9,0,0,0,.476-1.773,2.647,2.647,0,0,0-.484-1.653,1.539,1.539,0,0,0-1.286-.633,1.522,1.522,0,0,0-1.266.624A2.878,2.878,0,0,0,48.946,26.369Zm5.649-.12a3.631,3.631,0,0,1,.676-2.295,2.3,2.3,0,0,1,3.495-.123V20.6h1.06v8.8h-.974l-.052-.665a2.158,2.158,0,0,1-1.77.779,2.117,2.117,0,0,1-1.756-.882,3.673,3.673,0,0,1-.679-2.3Zm1.06.12a2.75,2.75,0,0,0,.435,1.65,1.408,1.408,0,0,0,1.2.6,1.546,1.546,0,0,0,1.472-.905V24.863a1.558,1.558,0,0,0-1.461-.877,1.414,1.414,0,0,0-1.215.6A3.027,3.027,0,0,0,55.655,26.369Zm5.534-.126a3.661,3.661,0,0,1,.358-1.639,2.671,2.671,0,0,1,1-1.123,2.714,2.714,0,0,1,1.458-.4,2.614,2.614,0,0,1,2.048.877,3.372,3.372,0,0,1,.782,2.332v.074a3.693,3.693,0,0,1-.347,1.624,2.632,2.632,0,0,1-.991,1.12,2.745,2.745,0,0,1-1.481.4,2.608,2.608,0,0,1-2.042-.877,3.355,3.355,0,0,1-.782-2.32Zm1.066.126a2.652,2.652,0,0,0,.478,1.656,1.621,1.621,0,0,0,2.564-.009,2.9,2.9,0,0,0,.476-1.773,2.647,2.647,0,0,0-.484-1.653A1.539,1.539,0,0,0,64,23.957a1.522,1.522,0,0,0-1.266.624A2.878,2.878,0,0,0,62.255,26.369Zm8.353-.3a8.862,8.862,0,0,1-.335,2.449,7.243,7.243,0,0,1-1.026,2.163A4.493,4.493,0,0,1,67.8,32.093l-.223-.647A4.606,4.606,0,0,0,69,29.346a9.084,9.084,0,0,0,.547-3.16V26a9.432,9.432,0,0,0-.252-2.237,7.55,7.55,0,0,0-.7-1.853,4.281,4.281,0,0,0-1.011-1.278l.223-.647a4.476,4.476,0,0,1,1.441,1.4,7.258,7.258,0,0,1,1.026,2.16A9.067,9.067,0,0,1,70.608,26.071Z" transform="translate(5.149 35.867)" fill="#12263f"/>
        <path id="Trazado_213793" data-name="Trazado 213793" d="M7.292,8.116h-3.5V11.8h-1.1V3.458H7.859v.9H3.791V7.217h3.5Zm5.42,3.071a2.251,2.251,0,0,1-1.816.728,1.927,1.927,0,0,1-1.51-.576,2.492,2.492,0,0,1-.524-1.7V5.6h1.06v4q0,1.409,1.146,1.409a1.587,1.587,0,0,0,1.616-.905V5.6h1.06v6.2H12.735ZM16.355,5.6l.034.779a2.259,2.259,0,0,1,1.856-.894q1.965,0,1.982,2.217v4.1h-1.06V7.7a1.427,1.427,0,0,0-.307-.991,1.228,1.228,0,0,0-.937-.321,1.53,1.53,0,0,0-.905.275,1.867,1.867,0,0,0-.607.722V11.8h-1.06V5.6Zm7.958,5.448a1.527,1.527,0,0,0,.991-.344,1.209,1.209,0,0,0,.47-.859h1a1.922,1.922,0,0,1-.367,1.014,2.415,2.415,0,0,1-.9.768,2.6,2.6,0,0,1-1.195.286A2.554,2.554,0,0,1,22.3,11.07a3.366,3.366,0,0,1-.748-2.312V8.58a3.732,3.732,0,0,1,.332-1.61,2.531,2.531,0,0,1,.954-1.094,2.71,2.71,0,0,1,1.47-.39,2.486,2.486,0,0,1,1.733.624,2.232,2.232,0,0,1,.736,1.621h-1a1.461,1.461,0,0,0-.455-.988,1.417,1.417,0,0,0-1.011-.387,1.483,1.483,0,0,0-1.252.582,2.731,2.731,0,0,0-.444,1.682v.2a2.677,2.677,0,0,0,.441,1.65A1.491,1.491,0,0,0,24.313,11.049Zm4.807.751H28.06V5.6h1.06ZM27.974,3.957a.633.633,0,0,1,.158-.435.592.592,0,0,1,.467-.178.6.6,0,0,1,.47.178.626.626,0,0,1,.16.435.605.605,0,0,1-.16.43.612.612,0,0,1-.47.172.6.6,0,0,1-.467-.172A.612.612,0,0,1,27.974,3.957Zm2.561,4.686A3.661,3.661,0,0,1,30.893,7a2.671,2.671,0,0,1,1-1.123,2.714,2.714,0,0,1,1.458-.4,2.614,2.614,0,0,1,2.048.877,3.372,3.372,0,0,1,.782,2.332v.074a3.693,3.693,0,0,1-.347,1.624,2.632,2.632,0,0,1-.991,1.12,2.745,2.745,0,0,1-1.481.4,2.608,2.608,0,0,1-2.042-.877,3.355,3.355,0,0,1-.782-2.32Zm1.066.126a2.652,2.652,0,0,0,.478,1.656,1.621,1.621,0,0,0,2.564-.009,2.9,2.9,0,0,0,.476-1.773,2.647,2.647,0,0,0-.484-1.653,1.539,1.539,0,0,0-1.286-.633,1.522,1.522,0,0,0-1.266.624A2.878,2.878,0,0,0,31.6,8.769Zm2.229-5.758h1.283L33.577,4.7l-.854,0ZM38.51,5.6l.034.779A2.259,2.259,0,0,1,40.4,5.486q1.965,0,1.982,2.217v4.1h-1.06V7.7a1.427,1.427,0,0,0-.307-.991,1.228,1.228,0,0,0-.937-.321,1.53,1.53,0,0,0-.905.275,1.867,1.867,0,0,0-.607.722V11.8h-1.06V5.6Zm9.373,0,.029.688a2.289,2.289,0,0,1,1.839-.8,1.772,1.772,0,0,1,1.77,1,2.348,2.348,0,0,1,.8-.722A2.377,2.377,0,0,1,53.5,5.486q2.04,0,2.074,2.16V11.8h-1.06V7.709a1.423,1.423,0,0,0-.3-.994,1.337,1.337,0,0,0-1.02-.329,1.405,1.405,0,0,0-.98.352,1.429,1.429,0,0,0-.453.948V11.8H50.69V7.738a1.183,1.183,0,0,0-1.323-1.352,1.418,1.418,0,0,0-1.427.888V11.8H46.88V5.6Zm10.439,6.2h-1.06V5.6h1.06ZM57.176,3.957a.633.633,0,0,1,.158-.435.592.592,0,0,1,.467-.178.6.6,0,0,1,.47.178.626.626,0,0,1,.16.435.605.605,0,0,1-.16.43.612.612,0,0,1-.47.172.6.6,0,0,1-.467-.172A.612.612,0,0,1,57.176,3.957Zm5.414,7.958a2.708,2.708,0,0,1-2.051-.828,3.073,3.073,0,0,1-.791-2.214V8.678A3.72,3.72,0,0,1,60.1,7.03,2.749,2.749,0,0,1,61.086,5.9a2.478,2.478,0,0,1,1.372-.41,2.322,2.322,0,0,1,1.879.8,3.448,3.448,0,0,1,.67,2.28V9h-4.2a2.2,2.2,0,0,0,.536,1.481,1.684,1.684,0,0,0,1.3.564,1.846,1.846,0,0,0,.951-.229,2.39,2.39,0,0,0,.682-.607l.647.5A2.6,2.6,0,0,1,62.59,11.915Zm-.132-5.557a1.414,1.414,0,0,0-1.077.467,2.269,2.269,0,0,0-.539,1.309h3.105v-.08A2.019,2.019,0,0,0,63.512,6.8,1.331,1.331,0,0,0,62.458,6.357ZM67.23,5.6l.029.688a2.289,2.289,0,0,1,1.839-.8,1.772,1.772,0,0,1,1.77,1,2.348,2.348,0,0,1,.8-.722,2.377,2.377,0,0,1,1.172-.275q2.04,0,2.074,2.16V11.8h-1.06V7.709a1.423,1.423,0,0,0-.3-.994,1.337,1.337,0,0,0-1.02-.329,1.405,1.405,0,0,0-.98.352,1.429,1.429,0,0,0-.453.948V11.8H70.038V7.738a1.183,1.183,0,0,0-1.323-1.352,1.418,1.418,0,0,0-1.427.888V11.8h-1.06V5.6ZM81.765,8.769a3.686,3.686,0,0,1-.653,2.283,2.087,2.087,0,0,1-1.753.862,2.161,2.161,0,0,1-1.816-.831l-.052.716h-.974V3h1.06V6.283a2.149,2.149,0,0,1,1.77-.8,2.1,2.1,0,0,1,1.773.854,3.8,3.8,0,0,1,.645,2.337Zm-1.06-.12a2.864,2.864,0,0,0-.418-1.673,1.385,1.385,0,0,0-1.2-.59,1.556,1.556,0,0,0-1.507.974v2.681a1.6,1.6,0,0,0,1.518.974,1.377,1.377,0,0,0,1.186-.59A3.046,3.046,0,0,0,80.705,8.649Zm5.391-2.1a3.176,3.176,0,0,0-.521-.04A1.4,1.4,0,0,0,84.16,7.4v4.4H83.1V5.6h1.031l.017.716a1.65,1.65,0,0,1,1.478-.831,1.083,1.083,0,0,1,.47.08Zm.579,2.091A3.661,3.661,0,0,1,87.033,7a2.671,2.671,0,0,1,1-1.123,2.714,2.714,0,0,1,1.458-.4,2.614,2.614,0,0,1,2.048.877,3.372,3.372,0,0,1,.782,2.332v.074a3.693,3.693,0,0,1-.347,1.624,2.632,2.632,0,0,1-.991,1.12,2.745,2.745,0,0,1-1.481.4,2.608,2.608,0,0,1-2.042-.877,3.355,3.355,0,0,1-.782-2.32Zm1.066.126a2.652,2.652,0,0,0,.478,1.656,1.621,1.621,0,0,0,2.564-.009,2.9,2.9,0,0,0,.476-1.773,2.647,2.647,0,0,0-.484-1.653,1.539,1.539,0,0,0-1.286-.633,1.522,1.522,0,0,0-1.266.624A2.878,2.878,0,0,0,87.741,8.769ZM23.892,26.014a8.858,8.858,0,0,1,.347-2.486,7.223,7.223,0,0,1,1.034-2.166A4.4,4.4,0,0,1,26.7,19.987l.218.7a4.563,4.563,0,0,0-1.372,1.959,8.494,8.494,0,0,0-.587,2.951l-.006.487a8.538,8.538,0,0,0,.808,3.839,4.585,4.585,0,0,0,1.157,1.524l-.218.647a4.541,4.541,0,0,1-1.455-1.421A7.963,7.963,0,0,1,23.892,26.014ZM28.94,23.2l.029.688a2.289,2.289,0,0,1,1.839-.8,1.772,1.772,0,0,1,1.77,1,2.348,2.348,0,0,1,.8-.722,2.377,2.377,0,0,1,1.172-.275q2.04,0,2.074,2.16V29.4h-1.06V25.309a1.423,1.423,0,0,0-.3-.994,1.337,1.337,0,0,0-1.02-.329,1.405,1.405,0,0,0-.98.352,1.429,1.429,0,0,0-.453.948V29.4H31.747V25.338a1.183,1.183,0,0,0-1.323-1.352A1.418,1.418,0,0,0,29,24.874V29.4h-1.06V23.2ZM40.8,29.515a2.708,2.708,0,0,1-2.051-.828,3.073,3.073,0,0,1-.791-2.214v-.195a3.72,3.72,0,0,1,.352-1.647A2.749,2.749,0,0,1,39.3,23.5a2.478,2.478,0,0,1,1.372-.41,2.322,2.322,0,0,1,1.879.8,3.448,3.448,0,0,1,.67,2.28V26.6h-4.2a2.2,2.2,0,0,0,.536,1.481,1.684,1.684,0,0,0,1.3.564,1.846,1.846,0,0,0,.951-.229,2.39,2.39,0,0,0,.682-.607l.647.5A2.6,2.6,0,0,1,40.8,29.515Zm-.132-5.557a1.414,1.414,0,0,0-1.077.467,2.27,2.27,0,0,0-.539,1.309h3.105v-.08a2.019,2.019,0,0,0-.435-1.252A1.331,1.331,0,0,0,40.667,23.957Zm.516-3.346h1.283L40.931,22.3l-.854,0Zm4.7,1.089v1.5h1.157v.819H45.881v3.849a.86.86,0,0,0,.155.559.651.651,0,0,0,.527.186,2.566,2.566,0,0,0,.5-.069V29.4a3.091,3.091,0,0,1-.814.114,1.32,1.32,0,0,1-1.071-.43,1.846,1.846,0,0,1-.361-1.22V24.02H43.692V23.2h1.129V21.7Zm2,4.543a3.661,3.661,0,0,1,.358-1.639,2.671,2.671,0,0,1,1-1.123,2.714,2.714,0,0,1,1.458-.4,2.614,2.614,0,0,1,2.048.877,3.372,3.372,0,0,1,.782,2.332v.074a3.693,3.693,0,0,1-.347,1.624,2.632,2.632,0,0,1-.991,1.12,2.745,2.745,0,0,1-1.481.4,2.608,2.608,0,0,1-2.042-.877,3.355,3.355,0,0,1-.782-2.32Zm1.066.126a2.652,2.652,0,0,0,.478,1.656,1.621,1.621,0,0,0,2.564-.009,2.9,2.9,0,0,0,.476-1.773,2.647,2.647,0,0,0-.484-1.653,1.539,1.539,0,0,0-1.286-.633,1.522,1.522,0,0,0-1.266.624A2.878,2.878,0,0,0,48.946,26.369Zm5.649-.12a3.631,3.631,0,0,1,.676-2.295,2.3,2.3,0,0,1,3.495-.123V20.6h1.06v8.8h-.974l-.052-.665a2.158,2.158,0,0,1-1.77.779,2.117,2.117,0,0,1-1.756-.882,3.673,3.673,0,0,1-.679-2.3Zm1.06.12a2.75,2.75,0,0,0,.435,1.65,1.408,1.408,0,0,0,1.2.6,1.546,1.546,0,0,0,1.472-.905V24.863a1.558,1.558,0,0,0-1.461-.877,1.414,1.414,0,0,0-1.215.6A3.027,3.027,0,0,0,55.655,26.369Zm5.534-.126a3.661,3.661,0,0,1,.358-1.639,2.671,2.671,0,0,1,1-1.123,2.714,2.714,0,0,1,1.458-.4,2.614,2.614,0,0,1,2.048.877,3.372,3.372,0,0,1,.782,2.332v.074a3.693,3.693,0,0,1-.347,1.624,2.632,2.632,0,0,1-.991,1.12,2.745,2.745,0,0,1-1.481.4,2.608,2.608,0,0,1-2.042-.877,3.355,3.355,0,0,1-.782-2.32Zm1.066.126a2.652,2.652,0,0,0,.478,1.656,1.621,1.621,0,0,0,2.564-.009,2.9,2.9,0,0,0,.476-1.773,2.647,2.647,0,0,0-.484-1.653A1.539,1.539,0,0,0,64,23.957a1.522,1.522,0,0,0-1.266.624A2.878,2.878,0,0,0,62.255,26.369Zm8.353-.3a8.862,8.862,0,0,1-.335,2.449,7.243,7.243,0,0,1-1.026,2.163A4.493,4.493,0,0,1,67.8,32.093l-.223-.647A4.606,4.606,0,0,0,69,29.346a9.084,9.084,0,0,0,.547-3.16V26a9.432,9.432,0,0,0-.252-2.237,7.55,7.55,0,0,0-.7-1.853,4.281,4.281,0,0,0-1.011-1.278l.223-.647a4.476,4.476,0,0,1,1.441,1.4,7.258,7.258,0,0,1,1.026,2.16A9.067,9.067,0,0,1,70.608,26.071Z" transform="translate(5.149 82.067)" fill="#12263f"/>
        <g id="Elipse_6363" data-name="Elipse 6363" transform="translate(18.134 0.133)" fill="#fff" stroke="#707070" stroke-width="1">
          <ellipse cx="32" cy="14.5" rx="32" ry="14.5" stroke="none"/>
          <ellipse cx="32" cy="14.5" rx="31.5" ry="14" fill="none"/>
        </g>
        <path id="Trazado_213791" data-name="Trazado 213791" d="M15,11.967V3.625h2.355a3.791,3.791,0,0,1,1.925.481,3.255,3.255,0,0,1,1.292,1.369,4.457,4.457,0,0,1,.461,2.04v.533a4.472,4.472,0,0,1-.455,2.068,3.2,3.2,0,0,1-1.3,1.364,4.032,4.032,0,0,1-1.968.487Zm1.1-7.442v6.543h1.157a2.518,2.518,0,0,0,1.979-.791,3.269,3.269,0,0,0,.708-2.254V7.535a3.321,3.321,0,0,0-.667-2.21,2.375,2.375,0,0,0-1.893-.8Zm10.255,7.442a2.226,2.226,0,0,1-.149-.653,2.365,2.365,0,0,1-1.765.768,2.188,2.188,0,0,1-1.5-.518,1.677,1.677,0,0,1-.587-1.315,1.752,1.752,0,0,1,.736-1.5,3.471,3.471,0,0,1,2.071-.536h1.031V7.721a1.19,1.19,0,0,0-.332-.885,1.335,1.335,0,0,0-.98-.329,1.546,1.546,0,0,0-.951.286.844.844,0,0,0-.384.693H22.477a1.463,1.463,0,0,1,.329-.9,2.248,2.248,0,0,1,.894-.685,3.007,3.007,0,0,1,1.24-.252,2.451,2.451,0,0,1,1.679.536,1.932,1.932,0,0,1,.63,1.475v2.853a3.488,3.488,0,0,0,.218,1.358v.092ZM24.6,11.159a1.863,1.863,0,0,0,.945-.258,1.559,1.559,0,0,0,.647-.67V8.959h-.831q-1.948,0-1.948,1.14a.965.965,0,0,0,.332.779A1.277,1.277,0,0,0,24.6,11.159Zm5.752-6.892v1.5h1.157v.819H30.348v3.849A.86.86,0,0,0,30.5,11a.651.651,0,0,0,.527.186,2.566,2.566,0,0,0,.5-.069v.854a3.091,3.091,0,0,1-.814.114,1.32,1.32,0,0,1-1.071-.43,1.846,1.846,0,0,1-.361-1.22V6.587H28.16V5.768h1.129v-1.5Zm2,4.543a3.661,3.661,0,0,1,.358-1.639,2.671,2.671,0,0,1,1-1.123,2.714,2.714,0,0,1,1.458-.4,2.614,2.614,0,0,1,2.048.877,3.372,3.372,0,0,1,.782,2.332v.074a3.693,3.693,0,0,1-.347,1.624,2.632,2.632,0,0,1-.991,1.12,2.745,2.745,0,0,1-1.481.4A2.608,2.608,0,0,1,33.13,11.2a3.355,3.355,0,0,1-.782-2.32Zm1.066.126a2.652,2.652,0,0,0,.478,1.656,1.621,1.621,0,0,0,2.564-.009,2.9,2.9,0,0,0,.476-1.773,2.647,2.647,0,0,0-.484-1.653,1.539,1.539,0,0,0-1.286-.633,1.522,1.522,0,0,0-1.266.624A2.878,2.878,0,0,0,33.414,8.936Zm9.516,1.386a.78.78,0,0,0-.324-.667,3.116,3.116,0,0,0-1.129-.41A5.336,5.336,0,0,1,40.2,8.833a1.818,1.818,0,0,1-.7-.573,1.37,1.37,0,0,1-.226-.791,1.608,1.608,0,0,1,.645-1.289,2.517,2.517,0,0,1,1.647-.527,2.59,2.59,0,0,1,1.71.544,1.729,1.729,0,0,1,.656,1.392H42.867a.957.957,0,0,0-.37-.751,1.385,1.385,0,0,0-.931-.315,1.449,1.449,0,0,0-.905.252.793.793,0,0,0-.327.659.643.643,0,0,0,.3.579,3.736,3.736,0,0,0,1.1.372,5.717,5.717,0,0,1,1.286.424,1.876,1.876,0,0,1,.73.593,1.458,1.458,0,0,1,.238.845,1.586,1.586,0,0,1-.665,1.332,2.788,2.788,0,0,1-1.724.5,3.122,3.122,0,0,1-1.318-.264,2.143,2.143,0,0,1-.9-.736,1.774,1.774,0,0,1-.324-1.023h1.06a1.1,1.1,0,0,0,.427.845,1.656,1.656,0,0,0,1.051.312,1.709,1.709,0,0,0,.965-.243A.748.748,0,0,0,42.93,10.322Z" transform="translate(20.933 7.1)" fill="#12263f"/>
      </g>
      <g id="Grupo_99461" data-name="Grupo 99461" transform="translate(787.4 10767.2)">
        <g id="Rectángulo_43036-2" data-name="Rectángulo 43036" transform="translate(0.4 32.866)" fill="#fff" stroke="#707070" stroke-width="1">
          <rect width="104" height="38" rx="5" stroke="none"/>
          <rect x="0.5" y="0.5" width="103" height="37" rx="4.5" fill="none"/>
        </g>
        <g id="Rectángulo_43037-2" data-name="Rectángulo 43037" transform="translate(0.4 78.867)" fill="#fff" stroke="#707070" stroke-width="1">
          <rect width="104" height="38" rx="5" stroke="none"/>
          <rect x="0.5" y="0.5" width="103" height="37" rx="4.5" fill="none"/>
        </g>
        <path id="Trazado_213789" data-name="Trazado 213789" d="M7.292,8.116h-3.5V11.8h-1.1V3.458H7.859v.9H3.791V7.217h3.5Zm5.42,3.071a2.251,2.251,0,0,1-1.816.728,1.927,1.927,0,0,1-1.51-.576,2.492,2.492,0,0,1-.524-1.7V5.6h1.06v4q0,1.409,1.146,1.409a1.587,1.587,0,0,0,1.616-.905V5.6h1.06v6.2H12.735ZM16.355,5.6l.034.779a2.259,2.259,0,0,1,1.856-.894q1.965,0,1.982,2.217v4.1h-1.06V7.7a1.427,1.427,0,0,0-.307-.991,1.228,1.228,0,0,0-.937-.321,1.53,1.53,0,0,0-.905.275,1.867,1.867,0,0,0-.607.722V11.8h-1.06V5.6Zm7.958,5.448a1.527,1.527,0,0,0,.991-.344,1.209,1.209,0,0,0,.47-.859h1a1.922,1.922,0,0,1-.367,1.014,2.415,2.415,0,0,1-.9.768,2.6,2.6,0,0,1-1.195.286A2.554,2.554,0,0,1,22.3,11.07a3.366,3.366,0,0,1-.748-2.312V8.58a3.732,3.732,0,0,1,.332-1.61,2.531,2.531,0,0,1,.954-1.094,2.71,2.71,0,0,1,1.47-.39,2.486,2.486,0,0,1,1.733.624,2.232,2.232,0,0,1,.736,1.621h-1a1.461,1.461,0,0,0-.455-.988,1.417,1.417,0,0,0-1.011-.387,1.483,1.483,0,0,0-1.252.582,2.731,2.731,0,0,0-.444,1.682v.2a2.677,2.677,0,0,0,.441,1.65A1.491,1.491,0,0,0,24.313,11.049Zm4.807.751H28.06V5.6h1.06ZM27.974,3.957a.633.633,0,0,1,.158-.435.592.592,0,0,1,.467-.178.6.6,0,0,1,.47.178.626.626,0,0,1,.16.435.605.605,0,0,1-.16.43.612.612,0,0,1-.47.172.6.6,0,0,1-.467-.172A.612.612,0,0,1,27.974,3.957Zm2.561,4.686A3.661,3.661,0,0,1,30.893,7a2.671,2.671,0,0,1,1-1.123,2.714,2.714,0,0,1,1.458-.4,2.614,2.614,0,0,1,2.048.877,3.372,3.372,0,0,1,.782,2.332v.074a3.693,3.693,0,0,1-.347,1.624,2.632,2.632,0,0,1-.991,1.12,2.745,2.745,0,0,1-1.481.4,2.608,2.608,0,0,1-2.042-.877,3.355,3.355,0,0,1-.782-2.32Zm1.066.126a2.652,2.652,0,0,0,.478,1.656,1.621,1.621,0,0,0,2.564-.009,2.9,2.9,0,0,0,.476-1.773,2.647,2.647,0,0,0-.484-1.653,1.539,1.539,0,0,0-1.286-.633,1.522,1.522,0,0,0-1.266.624A2.878,2.878,0,0,0,31.6,8.769Zm2.229-5.758h1.283L33.577,4.7l-.854,0ZM38.51,5.6l.034.779A2.259,2.259,0,0,1,40.4,5.486q1.965,0,1.982,2.217v4.1h-1.06V7.7a1.427,1.427,0,0,0-.307-.991,1.228,1.228,0,0,0-.937-.321,1.53,1.53,0,0,0-.905.275,1.867,1.867,0,0,0-.607.722V11.8h-1.06V5.6Zm9.373,0,.029.688a2.289,2.289,0,0,1,1.839-.8,1.772,1.772,0,0,1,1.77,1,2.348,2.348,0,0,1,.8-.722A2.377,2.377,0,0,1,53.5,5.486q2.04,0,2.074,2.16V11.8h-1.06V7.709a1.423,1.423,0,0,0-.3-.994,1.337,1.337,0,0,0-1.02-.329,1.405,1.405,0,0,0-.98.352,1.429,1.429,0,0,0-.453.948V11.8H50.69V7.738a1.183,1.183,0,0,0-1.323-1.352,1.418,1.418,0,0,0-1.427.888V11.8H46.88V5.6Zm10.439,6.2h-1.06V5.6h1.06ZM57.176,3.957a.633.633,0,0,1,.158-.435.592.592,0,0,1,.467-.178.6.6,0,0,1,.47.178.626.626,0,0,1,.16.435.605.605,0,0,1-.16.43.612.612,0,0,1-.47.172.6.6,0,0,1-.467-.172A.612.612,0,0,1,57.176,3.957Zm5.414,7.958a2.708,2.708,0,0,1-2.051-.828,3.073,3.073,0,0,1-.791-2.214V8.678A3.72,3.72,0,0,1,60.1,7.03,2.749,2.749,0,0,1,61.086,5.9a2.478,2.478,0,0,1,1.372-.41,2.322,2.322,0,0,1,1.879.8,3.448,3.448,0,0,1,.67,2.28V9h-4.2a2.2,2.2,0,0,0,.536,1.481,1.684,1.684,0,0,0,1.3.564,1.846,1.846,0,0,0,.951-.229,2.39,2.39,0,0,0,.682-.607l.647.5A2.6,2.6,0,0,1,62.59,11.915Zm-.132-5.557a1.414,1.414,0,0,0-1.077.467,2.269,2.269,0,0,0-.539,1.309h3.105v-.08A2.019,2.019,0,0,0,63.512,6.8,1.331,1.331,0,0,0,62.458,6.357ZM67.23,5.6l.029.688a2.289,2.289,0,0,1,1.839-.8,1.772,1.772,0,0,1,1.77,1,2.348,2.348,0,0,1,.8-.722,2.377,2.377,0,0,1,1.172-.275q2.04,0,2.074,2.16V11.8h-1.06V7.709a1.423,1.423,0,0,0-.3-.994,1.337,1.337,0,0,0-1.02-.329,1.405,1.405,0,0,0-.98.352,1.429,1.429,0,0,0-.453.948V11.8H70.038V7.738a1.183,1.183,0,0,0-1.323-1.352,1.418,1.418,0,0,0-1.427.888V11.8h-1.06V5.6ZM81.765,8.769a3.686,3.686,0,0,1-.653,2.283,2.087,2.087,0,0,1-1.753.862,2.161,2.161,0,0,1-1.816-.831l-.052.716h-.974V3h1.06V6.283a2.149,2.149,0,0,1,1.77-.8,2.1,2.1,0,0,1,1.773.854,3.8,3.8,0,0,1,.645,2.337Zm-1.06-.12a2.864,2.864,0,0,0-.418-1.673,1.385,1.385,0,0,0-1.2-.59,1.556,1.556,0,0,0-1.507.974v2.681a1.6,1.6,0,0,0,1.518.974,1.377,1.377,0,0,0,1.186-.59A3.046,3.046,0,0,0,80.705,8.649Zm5.391-2.1a3.176,3.176,0,0,0-.521-.04A1.4,1.4,0,0,0,84.16,7.4v4.4H83.1V5.6h1.031l.017.716a1.65,1.65,0,0,1,1.478-.831,1.083,1.083,0,0,1,.47.08Zm.579,2.091A3.661,3.661,0,0,1,87.033,7a2.671,2.671,0,0,1,1-1.123,2.714,2.714,0,0,1,1.458-.4,2.614,2.614,0,0,1,2.048.877,3.372,3.372,0,0,1,.782,2.332v.074a3.693,3.693,0,0,1-.347,1.624,2.632,2.632,0,0,1-.991,1.12,2.745,2.745,0,0,1-1.481.4,2.608,2.608,0,0,1-2.042-.877,3.355,3.355,0,0,1-.782-2.32Zm1.066.126a2.652,2.652,0,0,0,.478,1.656,1.621,1.621,0,0,0,2.564-.009,2.9,2.9,0,0,0,.476-1.773,2.647,2.647,0,0,0-.484-1.653,1.539,1.539,0,0,0-1.286-.633,1.522,1.522,0,0,0-1.266.624A2.878,2.878,0,0,0,87.741,8.769ZM23.892,26.014a8.858,8.858,0,0,1,.347-2.486,7.223,7.223,0,0,1,1.034-2.166A4.4,4.4,0,0,1,26.7,19.987l.218.7a4.563,4.563,0,0,0-1.372,1.959,8.494,8.494,0,0,0-.587,2.951l-.006.487a8.538,8.538,0,0,0,.808,3.839,4.585,4.585,0,0,0,1.157,1.524l-.218.647a4.541,4.541,0,0,1-1.455-1.421A7.963,7.963,0,0,1,23.892,26.014ZM28.94,23.2l.029.688a2.289,2.289,0,0,1,1.839-.8,1.772,1.772,0,0,1,1.77,1,2.348,2.348,0,0,1,.8-.722,2.377,2.377,0,0,1,1.172-.275q2.04,0,2.074,2.16V29.4h-1.06V25.309a1.423,1.423,0,0,0-.3-.994,1.337,1.337,0,0,0-1.02-.329,1.405,1.405,0,0,0-.98.352,1.429,1.429,0,0,0-.453.948V29.4H31.747V25.338a1.183,1.183,0,0,0-1.323-1.352A1.418,1.418,0,0,0,29,24.874V29.4h-1.06V23.2ZM40.8,29.515a2.708,2.708,0,0,1-2.051-.828,3.073,3.073,0,0,1-.791-2.214v-.195a3.72,3.72,0,0,1,.352-1.647A2.749,2.749,0,0,1,39.3,23.5a2.478,2.478,0,0,1,1.372-.41,2.322,2.322,0,0,1,1.879.8,3.448,3.448,0,0,1,.67,2.28V26.6h-4.2a2.2,2.2,0,0,0,.536,1.481,1.684,1.684,0,0,0,1.3.564,1.846,1.846,0,0,0,.951-.229,2.39,2.39,0,0,0,.682-.607l.647.5A2.6,2.6,0,0,1,40.8,29.515Zm-.132-5.557a1.414,1.414,0,0,0-1.077.467,2.27,2.27,0,0,0-.539,1.309h3.105v-.08a2.019,2.019,0,0,0-.435-1.252A1.331,1.331,0,0,0,40.667,23.957Zm.516-3.346h1.283L40.931,22.3l-.854,0Zm4.7,1.089v1.5h1.157v.819H45.881v3.849a.86.86,0,0,0,.155.559.651.651,0,0,0,.527.186,2.566,2.566,0,0,0,.5-.069V29.4a3.091,3.091,0,0,1-.814.114,1.32,1.32,0,0,1-1.071-.43,1.846,1.846,0,0,1-.361-1.22V24.02H43.692V23.2h1.129V21.7Zm2,4.543a3.661,3.661,0,0,1,.358-1.639,2.671,2.671,0,0,1,1-1.123,2.714,2.714,0,0,1,1.458-.4,2.614,2.614,0,0,1,2.048.877,3.372,3.372,0,0,1,.782,2.332v.074a3.693,3.693,0,0,1-.347,1.624,2.632,2.632,0,0,1-.991,1.12,2.745,2.745,0,0,1-1.481.4,2.608,2.608,0,0,1-2.042-.877,3.355,3.355,0,0,1-.782-2.32Zm1.066.126a2.652,2.652,0,0,0,.478,1.656,1.621,1.621,0,0,0,2.564-.009,2.9,2.9,0,0,0,.476-1.773,2.647,2.647,0,0,0-.484-1.653,1.539,1.539,0,0,0-1.286-.633,1.522,1.522,0,0,0-1.266.624A2.878,2.878,0,0,0,48.946,26.369Zm5.649-.12a3.631,3.631,0,0,1,.676-2.295,2.3,2.3,0,0,1,3.495-.123V20.6h1.06v8.8h-.974l-.052-.665a2.158,2.158,0,0,1-1.77.779,2.117,2.117,0,0,1-1.756-.882,3.673,3.673,0,0,1-.679-2.3Zm1.06.12a2.75,2.75,0,0,0,.435,1.65,1.408,1.408,0,0,0,1.2.6,1.546,1.546,0,0,0,1.472-.905V24.863a1.558,1.558,0,0,0-1.461-.877,1.414,1.414,0,0,0-1.215.6A3.027,3.027,0,0,0,55.655,26.369Zm5.534-.126a3.661,3.661,0,0,1,.358-1.639,2.671,2.671,0,0,1,1-1.123,2.714,2.714,0,0,1,1.458-.4,2.614,2.614,0,0,1,2.048.877,3.372,3.372,0,0,1,.782,2.332v.074a3.693,3.693,0,0,1-.347,1.624,2.632,2.632,0,0,1-.991,1.12,2.745,2.745,0,0,1-1.481.4,2.608,2.608,0,0,1-2.042-.877,3.355,3.355,0,0,1-.782-2.32Zm1.066.126a2.652,2.652,0,0,0,.478,1.656,1.621,1.621,0,0,0,2.564-.009,2.9,2.9,0,0,0,.476-1.773,2.647,2.647,0,0,0-.484-1.653A1.539,1.539,0,0,0,64,23.957a1.522,1.522,0,0,0-1.266.624A2.878,2.878,0,0,0,62.255,26.369Zm8.353-.3a8.862,8.862,0,0,1-.335,2.449,7.243,7.243,0,0,1-1.026,2.163A4.493,4.493,0,0,1,67.8,32.093l-.223-.647A4.606,4.606,0,0,0,69,29.346a9.084,9.084,0,0,0,.547-3.16V26a9.432,9.432,0,0,0-.252-2.237,7.55,7.55,0,0,0-.7-1.853,4.281,4.281,0,0,0-1.011-1.278l.223-.647a4.476,4.476,0,0,1,1.441,1.4,7.258,7.258,0,0,1,1.026,2.16A9.067,9.067,0,0,1,70.608,26.071Z" transform="translate(5.149 35.867)" fill="#12263f"/>
        <path id="Trazado_213790" data-name="Trazado 213790" d="M7.292,8.116h-3.5V11.8h-1.1V3.458H7.859v.9H3.791V7.217h3.5Zm5.42,3.071a2.251,2.251,0,0,1-1.816.728,1.927,1.927,0,0,1-1.51-.576,2.492,2.492,0,0,1-.524-1.7V5.6h1.06v4q0,1.409,1.146,1.409a1.587,1.587,0,0,0,1.616-.905V5.6h1.06v6.2H12.735ZM16.355,5.6l.034.779a2.259,2.259,0,0,1,1.856-.894q1.965,0,1.982,2.217v4.1h-1.06V7.7a1.427,1.427,0,0,0-.307-.991,1.228,1.228,0,0,0-.937-.321,1.53,1.53,0,0,0-.905.275,1.867,1.867,0,0,0-.607.722V11.8h-1.06V5.6Zm7.958,5.448a1.527,1.527,0,0,0,.991-.344,1.209,1.209,0,0,0,.47-.859h1a1.922,1.922,0,0,1-.367,1.014,2.415,2.415,0,0,1-.9.768,2.6,2.6,0,0,1-1.195.286A2.554,2.554,0,0,1,22.3,11.07a3.366,3.366,0,0,1-.748-2.312V8.58a3.732,3.732,0,0,1,.332-1.61,2.531,2.531,0,0,1,.954-1.094,2.71,2.71,0,0,1,1.47-.39,2.486,2.486,0,0,1,1.733.624,2.232,2.232,0,0,1,.736,1.621h-1a1.461,1.461,0,0,0-.455-.988,1.417,1.417,0,0,0-1.011-.387,1.483,1.483,0,0,0-1.252.582,2.731,2.731,0,0,0-.444,1.682v.2a2.677,2.677,0,0,0,.441,1.65A1.491,1.491,0,0,0,24.313,11.049Zm4.807.751H28.06V5.6h1.06ZM27.974,3.957a.633.633,0,0,1,.158-.435.592.592,0,0,1,.467-.178.6.6,0,0,1,.47.178.626.626,0,0,1,.16.435.605.605,0,0,1-.16.43.612.612,0,0,1-.47.172.6.6,0,0,1-.467-.172A.612.612,0,0,1,27.974,3.957Zm2.561,4.686A3.661,3.661,0,0,1,30.893,7a2.671,2.671,0,0,1,1-1.123,2.714,2.714,0,0,1,1.458-.4,2.614,2.614,0,0,1,2.048.877,3.372,3.372,0,0,1,.782,2.332v.074a3.693,3.693,0,0,1-.347,1.624,2.632,2.632,0,0,1-.991,1.12,2.745,2.745,0,0,1-1.481.4,2.608,2.608,0,0,1-2.042-.877,3.355,3.355,0,0,1-.782-2.32Zm1.066.126a2.652,2.652,0,0,0,.478,1.656,1.621,1.621,0,0,0,2.564-.009,2.9,2.9,0,0,0,.476-1.773,2.647,2.647,0,0,0-.484-1.653,1.539,1.539,0,0,0-1.286-.633,1.522,1.522,0,0,0-1.266.624A2.878,2.878,0,0,0,31.6,8.769Zm2.229-5.758h1.283L33.577,4.7l-.854,0ZM38.51,5.6l.034.779A2.259,2.259,0,0,1,40.4,5.486q1.965,0,1.982,2.217v4.1h-1.06V7.7a1.427,1.427,0,0,0-.307-.991,1.228,1.228,0,0,0-.937-.321,1.53,1.53,0,0,0-.905.275,1.867,1.867,0,0,0-.607.722V11.8h-1.06V5.6Zm9.373,0,.029.688a2.289,2.289,0,0,1,1.839-.8,1.772,1.772,0,0,1,1.77,1,2.348,2.348,0,0,1,.8-.722A2.377,2.377,0,0,1,53.5,5.486q2.04,0,2.074,2.16V11.8h-1.06V7.709a1.423,1.423,0,0,0-.3-.994,1.337,1.337,0,0,0-1.02-.329,1.405,1.405,0,0,0-.98.352,1.429,1.429,0,0,0-.453.948V11.8H50.69V7.738a1.183,1.183,0,0,0-1.323-1.352,1.418,1.418,0,0,0-1.427.888V11.8H46.88V5.6Zm10.439,6.2h-1.06V5.6h1.06ZM57.176,3.957a.633.633,0,0,1,.158-.435.592.592,0,0,1,.467-.178.6.6,0,0,1,.47.178.626.626,0,0,1,.16.435.605.605,0,0,1-.16.43.612.612,0,0,1-.47.172.6.6,0,0,1-.467-.172A.612.612,0,0,1,57.176,3.957Zm5.414,7.958a2.708,2.708,0,0,1-2.051-.828,3.073,3.073,0,0,1-.791-2.214V8.678A3.72,3.72,0,0,1,60.1,7.03,2.749,2.749,0,0,1,61.086,5.9a2.478,2.478,0,0,1,1.372-.41,2.322,2.322,0,0,1,1.879.8,3.448,3.448,0,0,1,.67,2.28V9h-4.2a2.2,2.2,0,0,0,.536,1.481,1.684,1.684,0,0,0,1.3.564,1.846,1.846,0,0,0,.951-.229,2.39,2.39,0,0,0,.682-.607l.647.5A2.6,2.6,0,0,1,62.59,11.915Zm-.132-5.557a1.414,1.414,0,0,0-1.077.467,2.269,2.269,0,0,0-.539,1.309h3.105v-.08A2.019,2.019,0,0,0,63.512,6.8,1.331,1.331,0,0,0,62.458,6.357ZM67.23,5.6l.029.688a2.289,2.289,0,0,1,1.839-.8,1.772,1.772,0,0,1,1.77,1,2.348,2.348,0,0,1,.8-.722,2.377,2.377,0,0,1,1.172-.275q2.04,0,2.074,2.16V11.8h-1.06V7.709a1.423,1.423,0,0,0-.3-.994,1.337,1.337,0,0,0-1.02-.329,1.405,1.405,0,0,0-.98.352,1.429,1.429,0,0,0-.453.948V11.8H70.038V7.738a1.183,1.183,0,0,0-1.323-1.352,1.418,1.418,0,0,0-1.427.888V11.8h-1.06V5.6ZM81.765,8.769a3.686,3.686,0,0,1-.653,2.283,2.087,2.087,0,0,1-1.753.862,2.161,2.161,0,0,1-1.816-.831l-.052.716h-.974V3h1.06V6.283a2.149,2.149,0,0,1,1.77-.8,2.1,2.1,0,0,1,1.773.854,3.8,3.8,0,0,1,.645,2.337Zm-1.06-.12a2.864,2.864,0,0,0-.418-1.673,1.385,1.385,0,0,0-1.2-.59,1.556,1.556,0,0,0-1.507.974v2.681a1.6,1.6,0,0,0,1.518.974,1.377,1.377,0,0,0,1.186-.59A3.046,3.046,0,0,0,80.705,8.649Zm5.391-2.1a3.176,3.176,0,0,0-.521-.04A1.4,1.4,0,0,0,84.16,7.4v4.4H83.1V5.6h1.031l.017.716a1.65,1.65,0,0,1,1.478-.831,1.083,1.083,0,0,1,.47.08Zm.579,2.091A3.661,3.661,0,0,1,87.033,7a2.671,2.671,0,0,1,1-1.123,2.714,2.714,0,0,1,1.458-.4,2.614,2.614,0,0,1,2.048.877,3.372,3.372,0,0,1,.782,2.332v.074a3.693,3.693,0,0,1-.347,1.624,2.632,2.632,0,0,1-.991,1.12,2.745,2.745,0,0,1-1.481.4,2.608,2.608,0,0,1-2.042-.877,3.355,3.355,0,0,1-.782-2.32Zm1.066.126a2.652,2.652,0,0,0,.478,1.656,1.621,1.621,0,0,0,2.564-.009,2.9,2.9,0,0,0,.476-1.773,2.647,2.647,0,0,0-.484-1.653,1.539,1.539,0,0,0-1.286-.633,1.522,1.522,0,0,0-1.266.624A2.878,2.878,0,0,0,87.741,8.769ZM23.892,26.014a8.858,8.858,0,0,1,.347-2.486,7.223,7.223,0,0,1,1.034-2.166A4.4,4.4,0,0,1,26.7,19.987l.218.7a4.563,4.563,0,0,0-1.372,1.959,8.494,8.494,0,0,0-.587,2.951l-.006.487a8.538,8.538,0,0,0,.808,3.839,4.585,4.585,0,0,0,1.157,1.524l-.218.647a4.541,4.541,0,0,1-1.455-1.421A7.963,7.963,0,0,1,23.892,26.014ZM28.94,23.2l.029.688a2.289,2.289,0,0,1,1.839-.8,1.772,1.772,0,0,1,1.77,1,2.348,2.348,0,0,1,.8-.722,2.377,2.377,0,0,1,1.172-.275q2.04,0,2.074,2.16V29.4h-1.06V25.309a1.423,1.423,0,0,0-.3-.994,1.337,1.337,0,0,0-1.02-.329,1.405,1.405,0,0,0-.98.352,1.429,1.429,0,0,0-.453.948V29.4H31.747V25.338a1.183,1.183,0,0,0-1.323-1.352A1.418,1.418,0,0,0,29,24.874V29.4h-1.06V23.2ZM40.8,29.515a2.708,2.708,0,0,1-2.051-.828,3.073,3.073,0,0,1-.791-2.214v-.195a3.72,3.72,0,0,1,.352-1.647A2.749,2.749,0,0,1,39.3,23.5a2.478,2.478,0,0,1,1.372-.41,2.322,2.322,0,0,1,1.879.8,3.448,3.448,0,0,1,.67,2.28V26.6h-4.2a2.2,2.2,0,0,0,.536,1.481,1.684,1.684,0,0,0,1.3.564,1.846,1.846,0,0,0,.951-.229,2.39,2.39,0,0,0,.682-.607l.647.5A2.6,2.6,0,0,1,40.8,29.515Zm-.132-5.557a1.414,1.414,0,0,0-1.077.467,2.27,2.27,0,0,0-.539,1.309h3.105v-.08a2.019,2.019,0,0,0-.435-1.252A1.331,1.331,0,0,0,40.667,23.957Zm.516-3.346h1.283L40.931,22.3l-.854,0Zm4.7,1.089v1.5h1.157v.819H45.881v3.849a.86.86,0,0,0,.155.559.651.651,0,0,0,.527.186,2.566,2.566,0,0,0,.5-.069V29.4a3.091,3.091,0,0,1-.814.114,1.32,1.32,0,0,1-1.071-.43,1.846,1.846,0,0,1-.361-1.22V24.02H43.692V23.2h1.129V21.7Zm2,4.543a3.661,3.661,0,0,1,.358-1.639,2.671,2.671,0,0,1,1-1.123,2.714,2.714,0,0,1,1.458-.4,2.614,2.614,0,0,1,2.048.877,3.372,3.372,0,0,1,.782,2.332v.074a3.693,3.693,0,0,1-.347,1.624,2.632,2.632,0,0,1-.991,1.12,2.745,2.745,0,0,1-1.481.4,2.608,2.608,0,0,1-2.042-.877,3.355,3.355,0,0,1-.782-2.32Zm1.066.126a2.652,2.652,0,0,0,.478,1.656,1.621,1.621,0,0,0,2.564-.009,2.9,2.9,0,0,0,.476-1.773,2.647,2.647,0,0,0-.484-1.653,1.539,1.539,0,0,0-1.286-.633,1.522,1.522,0,0,0-1.266.624A2.878,2.878,0,0,0,48.946,26.369Zm5.649-.12a3.631,3.631,0,0,1,.676-2.295,2.3,2.3,0,0,1,3.495-.123V20.6h1.06v8.8h-.974l-.052-.665a2.158,2.158,0,0,1-1.77.779,2.117,2.117,0,0,1-1.756-.882,3.673,3.673,0,0,1-.679-2.3Zm1.06.12a2.75,2.75,0,0,0,.435,1.65,1.408,1.408,0,0,0,1.2.6,1.546,1.546,0,0,0,1.472-.905V24.863a1.558,1.558,0,0,0-1.461-.877,1.414,1.414,0,0,0-1.215.6A3.027,3.027,0,0,0,55.655,26.369Zm5.534-.126a3.661,3.661,0,0,1,.358-1.639,2.671,2.671,0,0,1,1-1.123,2.714,2.714,0,0,1,1.458-.4,2.614,2.614,0,0,1,2.048.877,3.372,3.372,0,0,1,.782,2.332v.074a3.693,3.693,0,0,1-.347,1.624,2.632,2.632,0,0,1-.991,1.12,2.745,2.745,0,0,1-1.481.4,2.608,2.608,0,0,1-2.042-.877,3.355,3.355,0,0,1-.782-2.32Zm1.066.126a2.652,2.652,0,0,0,.478,1.656,1.621,1.621,0,0,0,2.564-.009,2.9,2.9,0,0,0,.476-1.773,2.647,2.647,0,0,0-.484-1.653A1.539,1.539,0,0,0,64,23.957a1.522,1.522,0,0,0-1.266.624A2.878,2.878,0,0,0,62.255,26.369Zm8.353-.3a8.862,8.862,0,0,1-.335,2.449,7.243,7.243,0,0,1-1.026,2.163A4.493,4.493,0,0,1,67.8,32.093l-.223-.647A4.606,4.606,0,0,0,69,29.346a9.084,9.084,0,0,0,.547-3.16V26a9.432,9.432,0,0,0-.252-2.237,7.55,7.55,0,0,0-.7-1.853,4.281,4.281,0,0,0-1.011-1.278l.223-.647a4.476,4.476,0,0,1,1.441,1.4,7.258,7.258,0,0,1,1.026,2.16A9.067,9.067,0,0,1,70.608,26.071Z" transform="translate(5.149 82.067)" fill="#12263f"/>
        <g id="Elipse_6363-2" data-name="Elipse 6363" transform="translate(18.4 -0.134)" fill="#fff" stroke="#707070" stroke-width="1">
          <ellipse cx="32" cy="14.5" rx="32" ry="14.5" stroke="none"/>
          <ellipse cx="32" cy="14.5" rx="31.5" ry="14" fill="none"/>
        </g>
        <path id="Trazado_213788" data-name="Trazado 213788" d="M15,11.967V3.625h2.355a3.791,3.791,0,0,1,1.925.481,3.255,3.255,0,0,1,1.292,1.369,4.457,4.457,0,0,1,.461,2.04v.533a4.472,4.472,0,0,1-.455,2.068,3.2,3.2,0,0,1-1.3,1.364,4.032,4.032,0,0,1-1.968.487Zm1.1-7.442v6.543h1.157a2.518,2.518,0,0,0,1.979-.791,3.269,3.269,0,0,0,.708-2.254V7.535a3.321,3.321,0,0,0-.667-2.21,2.375,2.375,0,0,0-1.893-.8Zm10.255,7.442a2.226,2.226,0,0,1-.149-.653,2.365,2.365,0,0,1-1.765.768,2.188,2.188,0,0,1-1.5-.518,1.677,1.677,0,0,1-.587-1.315,1.752,1.752,0,0,1,.736-1.5,3.471,3.471,0,0,1,2.071-.536h1.031V7.721a1.19,1.19,0,0,0-.332-.885,1.335,1.335,0,0,0-.98-.329,1.546,1.546,0,0,0-.951.286.844.844,0,0,0-.384.693H22.477a1.463,1.463,0,0,1,.329-.9,2.248,2.248,0,0,1,.894-.685,3.007,3.007,0,0,1,1.24-.252,2.451,2.451,0,0,1,1.679.536,1.932,1.932,0,0,1,.63,1.475v2.853a3.488,3.488,0,0,0,.218,1.358v.092ZM24.6,11.159a1.863,1.863,0,0,0,.945-.258,1.559,1.559,0,0,0,.647-.67V8.959h-.831q-1.948,0-1.948,1.14a.965.965,0,0,0,.332.779A1.277,1.277,0,0,0,24.6,11.159Zm5.752-6.892v1.5h1.157v.819H30.348v3.849A.86.86,0,0,0,30.5,11a.651.651,0,0,0,.527.186,2.566,2.566,0,0,0,.5-.069v.854a3.091,3.091,0,0,1-.814.114,1.32,1.32,0,0,1-1.071-.43,1.846,1.846,0,0,1-.361-1.22V6.587H28.16V5.768h1.129v-1.5Zm2,4.543a3.661,3.661,0,0,1,.358-1.639,2.671,2.671,0,0,1,1-1.123,2.714,2.714,0,0,1,1.458-.4,2.614,2.614,0,0,1,2.048.877,3.372,3.372,0,0,1,.782,2.332v.074a3.693,3.693,0,0,1-.347,1.624,2.632,2.632,0,0,1-.991,1.12,2.745,2.745,0,0,1-1.481.4A2.608,2.608,0,0,1,33.13,11.2a3.355,3.355,0,0,1-.782-2.32Zm1.066.126a2.652,2.652,0,0,0,.478,1.656,1.621,1.621,0,0,0,2.564-.009,2.9,2.9,0,0,0,.476-1.773,2.647,2.647,0,0,0-.484-1.653,1.539,1.539,0,0,0-1.286-.633,1.522,1.522,0,0,0-1.266.624A2.878,2.878,0,0,0,33.414,8.936Zm9.516,1.386a.78.78,0,0,0-.324-.667,3.116,3.116,0,0,0-1.129-.41A5.336,5.336,0,0,1,40.2,8.833a1.818,1.818,0,0,1-.7-.573,1.37,1.37,0,0,1-.226-.791,1.608,1.608,0,0,1,.645-1.289,2.517,2.517,0,0,1,1.647-.527,2.59,2.59,0,0,1,1.71.544,1.729,1.729,0,0,1,.656,1.392H42.867a.957.957,0,0,0-.37-.751,1.385,1.385,0,0,0-.931-.315,1.449,1.449,0,0,0-.905.252.793.793,0,0,0-.327.659.643.643,0,0,0,.3.579,3.736,3.736,0,0,0,1.1.372,5.717,5.717,0,0,1,1.286.424,1.876,1.876,0,0,1,.73.593,1.458,1.458,0,0,1,.238.845,1.586,1.586,0,0,1-.665,1.332,2.788,2.788,0,0,1-1.724.5,3.122,3.122,0,0,1-1.318-.264,2.143,2.143,0,0,1-.9-.736,1.774,1.774,0,0,1-.324-1.023h1.06a1.1,1.1,0,0,0,.427.845,1.656,1.656,0,0,0,1.051.312,1.709,1.709,0,0,0,.965-.243A.748.748,0,0,0,42.93,10.322Z" transform="translate(20.933 7.1)" fill="#12263f"/>
      </g>
      <g id="Grupo_99462" data-name="Grupo 99462" transform="translate(1098.333 10767.2)">
        <g id="Rectángulo_43036-3" data-name="Rectángulo 43036" transform="translate(0.467 32.866)" fill="#fff" stroke="#707070" stroke-width="1">
          <rect width="104" height="38" rx="5" stroke="none"/>
          <rect x="0.5" y="0.5" width="103" height="37" rx="4.5" fill="none"/>
        </g>
        <g id="Rectángulo_43037-3" data-name="Rectángulo 43037" transform="translate(0.467 78.867)" fill="#fff" stroke="#707070" stroke-width="1">
          <rect width="104" height="38" rx="5" stroke="none"/>
          <rect x="0.5" y="0.5" width="103" height="37" rx="4.5" fill="none"/>
        </g>
        <path id="Trazado_213795" data-name="Trazado 213795" d="M7.292,8.116h-3.5V11.8h-1.1V3.458H7.859v.9H3.791V7.217h3.5Zm5.42,3.071a2.251,2.251,0,0,1-1.816.728,1.927,1.927,0,0,1-1.51-.576,2.492,2.492,0,0,1-.524-1.7V5.6h1.06v4q0,1.409,1.146,1.409a1.587,1.587,0,0,0,1.616-.905V5.6h1.06v6.2H12.735ZM16.355,5.6l.034.779a2.259,2.259,0,0,1,1.856-.894q1.965,0,1.982,2.217v4.1h-1.06V7.7a1.427,1.427,0,0,0-.307-.991,1.228,1.228,0,0,0-.937-.321,1.53,1.53,0,0,0-.905.275,1.867,1.867,0,0,0-.607.722V11.8h-1.06V5.6Zm7.958,5.448a1.527,1.527,0,0,0,.991-.344,1.209,1.209,0,0,0,.47-.859h1a1.922,1.922,0,0,1-.367,1.014,2.415,2.415,0,0,1-.9.768,2.6,2.6,0,0,1-1.195.286A2.554,2.554,0,0,1,22.3,11.07a3.366,3.366,0,0,1-.748-2.312V8.58a3.732,3.732,0,0,1,.332-1.61,2.531,2.531,0,0,1,.954-1.094,2.71,2.71,0,0,1,1.47-.39,2.486,2.486,0,0,1,1.733.624,2.232,2.232,0,0,1,.736,1.621h-1a1.461,1.461,0,0,0-.455-.988,1.417,1.417,0,0,0-1.011-.387,1.483,1.483,0,0,0-1.252.582,2.731,2.731,0,0,0-.444,1.682v.2a2.677,2.677,0,0,0,.441,1.65A1.491,1.491,0,0,0,24.313,11.049Zm4.807.751H28.06V5.6h1.06ZM27.974,3.957a.633.633,0,0,1,.158-.435.592.592,0,0,1,.467-.178.6.6,0,0,1,.47.178.626.626,0,0,1,.16.435.605.605,0,0,1-.16.43.612.612,0,0,1-.47.172.6.6,0,0,1-.467-.172A.612.612,0,0,1,27.974,3.957Zm2.561,4.686A3.661,3.661,0,0,1,30.893,7a2.671,2.671,0,0,1,1-1.123,2.714,2.714,0,0,1,1.458-.4,2.614,2.614,0,0,1,2.048.877,3.372,3.372,0,0,1,.782,2.332v.074a3.693,3.693,0,0,1-.347,1.624,2.632,2.632,0,0,1-.991,1.12,2.745,2.745,0,0,1-1.481.4,2.608,2.608,0,0,1-2.042-.877,3.355,3.355,0,0,1-.782-2.32Zm1.066.126a2.652,2.652,0,0,0,.478,1.656,1.621,1.621,0,0,0,2.564-.009,2.9,2.9,0,0,0,.476-1.773,2.647,2.647,0,0,0-.484-1.653,1.539,1.539,0,0,0-1.286-.633,1.522,1.522,0,0,0-1.266.624A2.878,2.878,0,0,0,31.6,8.769Zm2.229-5.758h1.283L33.577,4.7l-.854,0ZM38.51,5.6l.034.779A2.259,2.259,0,0,1,40.4,5.486q1.965,0,1.982,2.217v4.1h-1.06V7.7a1.427,1.427,0,0,0-.307-.991,1.228,1.228,0,0,0-.937-.321,1.53,1.53,0,0,0-.905.275,1.867,1.867,0,0,0-.607.722V11.8h-1.06V5.6Zm9.373,0,.029.688a2.289,2.289,0,0,1,1.839-.8,1.772,1.772,0,0,1,1.77,1,2.348,2.348,0,0,1,.8-.722A2.377,2.377,0,0,1,53.5,5.486q2.04,0,2.074,2.16V11.8h-1.06V7.709a1.423,1.423,0,0,0-.3-.994,1.337,1.337,0,0,0-1.02-.329,1.405,1.405,0,0,0-.98.352,1.429,1.429,0,0,0-.453.948V11.8H50.69V7.738a1.183,1.183,0,0,0-1.323-1.352,1.418,1.418,0,0,0-1.427.888V11.8H46.88V5.6Zm10.439,6.2h-1.06V5.6h1.06ZM57.176,3.957a.633.633,0,0,1,.158-.435.592.592,0,0,1,.467-.178.6.6,0,0,1,.47.178.626.626,0,0,1,.16.435.605.605,0,0,1-.16.43.612.612,0,0,1-.47.172.6.6,0,0,1-.467-.172A.612.612,0,0,1,57.176,3.957Zm5.414,7.958a2.708,2.708,0,0,1-2.051-.828,3.073,3.073,0,0,1-.791-2.214V8.678A3.72,3.72,0,0,1,60.1,7.03,2.749,2.749,0,0,1,61.086,5.9a2.478,2.478,0,0,1,1.372-.41,2.322,2.322,0,0,1,1.879.8,3.448,3.448,0,0,1,.67,2.28V9h-4.2a2.2,2.2,0,0,0,.536,1.481,1.684,1.684,0,0,0,1.3.564,1.846,1.846,0,0,0,.951-.229,2.39,2.39,0,0,0,.682-.607l.647.5A2.6,2.6,0,0,1,62.59,11.915Zm-.132-5.557a1.414,1.414,0,0,0-1.077.467,2.269,2.269,0,0,0-.539,1.309h3.105v-.08A2.019,2.019,0,0,0,63.512,6.8,1.331,1.331,0,0,0,62.458,6.357ZM67.23,5.6l.029.688a2.289,2.289,0,0,1,1.839-.8,1.772,1.772,0,0,1,1.77,1,2.348,2.348,0,0,1,.8-.722,2.377,2.377,0,0,1,1.172-.275q2.04,0,2.074,2.16V11.8h-1.06V7.709a1.423,1.423,0,0,0-.3-.994,1.337,1.337,0,0,0-1.02-.329,1.405,1.405,0,0,0-.98.352,1.429,1.429,0,0,0-.453.948V11.8H70.038V7.738a1.183,1.183,0,0,0-1.323-1.352,1.418,1.418,0,0,0-1.427.888V11.8h-1.06V5.6ZM81.765,8.769a3.686,3.686,0,0,1-.653,2.283,2.087,2.087,0,0,1-1.753.862,2.161,2.161,0,0,1-1.816-.831l-.052.716h-.974V3h1.06V6.283a2.149,2.149,0,0,1,1.77-.8,2.1,2.1,0,0,1,1.773.854,3.8,3.8,0,0,1,.645,2.337Zm-1.06-.12a2.864,2.864,0,0,0-.418-1.673,1.385,1.385,0,0,0-1.2-.59,1.556,1.556,0,0,0-1.507.974v2.681a1.6,1.6,0,0,0,1.518.974,1.377,1.377,0,0,0,1.186-.59A3.046,3.046,0,0,0,80.705,8.649Zm5.391-2.1a3.176,3.176,0,0,0-.521-.04A1.4,1.4,0,0,0,84.16,7.4v4.4H83.1V5.6h1.031l.017.716a1.65,1.65,0,0,1,1.478-.831,1.083,1.083,0,0,1,.47.08Zm.579,2.091A3.661,3.661,0,0,1,87.033,7a2.671,2.671,0,0,1,1-1.123,2.714,2.714,0,0,1,1.458-.4,2.614,2.614,0,0,1,2.048.877,3.372,3.372,0,0,1,.782,2.332v.074a3.693,3.693,0,0,1-.347,1.624,2.632,2.632,0,0,1-.991,1.12,2.745,2.745,0,0,1-1.481.4,2.608,2.608,0,0,1-2.042-.877,3.355,3.355,0,0,1-.782-2.32Zm1.066.126a2.652,2.652,0,0,0,.478,1.656,1.621,1.621,0,0,0,2.564-.009,2.9,2.9,0,0,0,.476-1.773,2.647,2.647,0,0,0-.484-1.653,1.539,1.539,0,0,0-1.286-.633,1.522,1.522,0,0,0-1.266.624A2.878,2.878,0,0,0,87.741,8.769ZM23.892,26.014a8.858,8.858,0,0,1,.347-2.486,7.223,7.223,0,0,1,1.034-2.166A4.4,4.4,0,0,1,26.7,19.987l.218.7a4.563,4.563,0,0,0-1.372,1.959,8.494,8.494,0,0,0-.587,2.951l-.006.487a8.538,8.538,0,0,0,.808,3.839,4.585,4.585,0,0,0,1.157,1.524l-.218.647a4.541,4.541,0,0,1-1.455-1.421A7.963,7.963,0,0,1,23.892,26.014ZM28.94,23.2l.029.688a2.289,2.289,0,0,1,1.839-.8,1.772,1.772,0,0,1,1.77,1,2.348,2.348,0,0,1,.8-.722,2.377,2.377,0,0,1,1.172-.275q2.04,0,2.074,2.16V29.4h-1.06V25.309a1.423,1.423,0,0,0-.3-.994,1.337,1.337,0,0,0-1.02-.329,1.405,1.405,0,0,0-.98.352,1.429,1.429,0,0,0-.453.948V29.4H31.747V25.338a1.183,1.183,0,0,0-1.323-1.352A1.418,1.418,0,0,0,29,24.874V29.4h-1.06V23.2ZM40.8,29.515a2.708,2.708,0,0,1-2.051-.828,3.073,3.073,0,0,1-.791-2.214v-.195a3.72,3.72,0,0,1,.352-1.647A2.749,2.749,0,0,1,39.3,23.5a2.478,2.478,0,0,1,1.372-.41,2.322,2.322,0,0,1,1.879.8,3.448,3.448,0,0,1,.67,2.28V26.6h-4.2a2.2,2.2,0,0,0,.536,1.481,1.684,1.684,0,0,0,1.3.564,1.846,1.846,0,0,0,.951-.229,2.39,2.39,0,0,0,.682-.607l.647.5A2.6,2.6,0,0,1,40.8,29.515Zm-.132-5.557a1.414,1.414,0,0,0-1.077.467,2.27,2.27,0,0,0-.539,1.309h3.105v-.08a2.019,2.019,0,0,0-.435-1.252A1.331,1.331,0,0,0,40.667,23.957Zm.516-3.346h1.283L40.931,22.3l-.854,0Zm4.7,1.089v1.5h1.157v.819H45.881v3.849a.86.86,0,0,0,.155.559.651.651,0,0,0,.527.186,2.566,2.566,0,0,0,.5-.069V29.4a3.091,3.091,0,0,1-.814.114,1.32,1.32,0,0,1-1.071-.43,1.846,1.846,0,0,1-.361-1.22V24.02H43.692V23.2h1.129V21.7Zm2,4.543a3.661,3.661,0,0,1,.358-1.639,2.671,2.671,0,0,1,1-1.123,2.714,2.714,0,0,1,1.458-.4,2.614,2.614,0,0,1,2.048.877,3.372,3.372,0,0,1,.782,2.332v.074a3.693,3.693,0,0,1-.347,1.624,2.632,2.632,0,0,1-.991,1.12,2.745,2.745,0,0,1-1.481.4,2.608,2.608,0,0,1-2.042-.877,3.355,3.355,0,0,1-.782-2.32Zm1.066.126a2.652,2.652,0,0,0,.478,1.656,1.621,1.621,0,0,0,2.564-.009,2.9,2.9,0,0,0,.476-1.773,2.647,2.647,0,0,0-.484-1.653,1.539,1.539,0,0,0-1.286-.633,1.522,1.522,0,0,0-1.266.624A2.878,2.878,0,0,0,48.946,26.369Zm5.649-.12a3.631,3.631,0,0,1,.676-2.295,2.3,2.3,0,0,1,3.495-.123V20.6h1.06v8.8h-.974l-.052-.665a2.158,2.158,0,0,1-1.77.779,2.117,2.117,0,0,1-1.756-.882,3.673,3.673,0,0,1-.679-2.3Zm1.06.12a2.75,2.75,0,0,0,.435,1.65,1.408,1.408,0,0,0,1.2.6,1.546,1.546,0,0,0,1.472-.905V24.863a1.558,1.558,0,0,0-1.461-.877,1.414,1.414,0,0,0-1.215.6A3.027,3.027,0,0,0,55.655,26.369Zm5.534-.126a3.661,3.661,0,0,1,.358-1.639,2.671,2.671,0,0,1,1-1.123,2.714,2.714,0,0,1,1.458-.4,2.614,2.614,0,0,1,2.048.877,3.372,3.372,0,0,1,.782,2.332v.074a3.693,3.693,0,0,1-.347,1.624,2.632,2.632,0,0,1-.991,1.12,2.745,2.745,0,0,1-1.481.4,2.608,2.608,0,0,1-2.042-.877,3.355,3.355,0,0,1-.782-2.32Zm1.066.126a2.652,2.652,0,0,0,.478,1.656,1.621,1.621,0,0,0,2.564-.009,2.9,2.9,0,0,0,.476-1.773,2.647,2.647,0,0,0-.484-1.653A1.539,1.539,0,0,0,64,23.957a1.522,1.522,0,0,0-1.266.624A2.878,2.878,0,0,0,62.255,26.369Zm8.353-.3a8.862,8.862,0,0,1-.335,2.449,7.243,7.243,0,0,1-1.026,2.163A4.493,4.493,0,0,1,67.8,32.093l-.223-.647A4.606,4.606,0,0,0,69,29.346a9.084,9.084,0,0,0,.547-3.16V26a9.432,9.432,0,0,0-.252-2.237,7.55,7.55,0,0,0-.7-1.853,4.281,4.281,0,0,0-1.011-1.278l.223-.647a4.476,4.476,0,0,1,1.441,1.4,7.258,7.258,0,0,1,1.026,2.16A9.067,9.067,0,0,1,70.608,26.071Z" transform="translate(5.149 35.867)" fill="#12263f"/>
        <path id="Trazado_213796" data-name="Trazado 213796" d="M7.292,8.116h-3.5V11.8h-1.1V3.458H7.859v.9H3.791V7.217h3.5Zm5.42,3.071a2.251,2.251,0,0,1-1.816.728,1.927,1.927,0,0,1-1.51-.576,2.492,2.492,0,0,1-.524-1.7V5.6h1.06v4q0,1.409,1.146,1.409a1.587,1.587,0,0,0,1.616-.905V5.6h1.06v6.2H12.735ZM16.355,5.6l.034.779a2.259,2.259,0,0,1,1.856-.894q1.965,0,1.982,2.217v4.1h-1.06V7.7a1.427,1.427,0,0,0-.307-.991,1.228,1.228,0,0,0-.937-.321,1.53,1.53,0,0,0-.905.275,1.867,1.867,0,0,0-.607.722V11.8h-1.06V5.6Zm7.958,5.448a1.527,1.527,0,0,0,.991-.344,1.209,1.209,0,0,0,.47-.859h1a1.922,1.922,0,0,1-.367,1.014,2.415,2.415,0,0,1-.9.768,2.6,2.6,0,0,1-1.195.286A2.554,2.554,0,0,1,22.3,11.07a3.366,3.366,0,0,1-.748-2.312V8.58a3.732,3.732,0,0,1,.332-1.61,2.531,2.531,0,0,1,.954-1.094,2.71,2.71,0,0,1,1.47-.39,2.486,2.486,0,0,1,1.733.624,2.232,2.232,0,0,1,.736,1.621h-1a1.461,1.461,0,0,0-.455-.988,1.417,1.417,0,0,0-1.011-.387,1.483,1.483,0,0,0-1.252.582,2.731,2.731,0,0,0-.444,1.682v.2a2.677,2.677,0,0,0,.441,1.65A1.491,1.491,0,0,0,24.313,11.049Zm4.807.751H28.06V5.6h1.06ZM27.974,3.957a.633.633,0,0,1,.158-.435.592.592,0,0,1,.467-.178.6.6,0,0,1,.47.178.626.626,0,0,1,.16.435.605.605,0,0,1-.16.43.612.612,0,0,1-.47.172.6.6,0,0,1-.467-.172A.612.612,0,0,1,27.974,3.957Zm2.561,4.686A3.661,3.661,0,0,1,30.893,7a2.671,2.671,0,0,1,1-1.123,2.714,2.714,0,0,1,1.458-.4,2.614,2.614,0,0,1,2.048.877,3.372,3.372,0,0,1,.782,2.332v.074a3.693,3.693,0,0,1-.347,1.624,2.632,2.632,0,0,1-.991,1.12,2.745,2.745,0,0,1-1.481.4,2.608,2.608,0,0,1-2.042-.877,3.355,3.355,0,0,1-.782-2.32Zm1.066.126a2.652,2.652,0,0,0,.478,1.656,1.621,1.621,0,0,0,2.564-.009,2.9,2.9,0,0,0,.476-1.773,2.647,2.647,0,0,0-.484-1.653,1.539,1.539,0,0,0-1.286-.633,1.522,1.522,0,0,0-1.266.624A2.878,2.878,0,0,0,31.6,8.769Zm2.229-5.758h1.283L33.577,4.7l-.854,0ZM38.51,5.6l.034.779A2.259,2.259,0,0,1,40.4,5.486q1.965,0,1.982,2.217v4.1h-1.06V7.7a1.427,1.427,0,0,0-.307-.991,1.228,1.228,0,0,0-.937-.321,1.53,1.53,0,0,0-.905.275,1.867,1.867,0,0,0-.607.722V11.8h-1.06V5.6Zm9.373,0,.029.688a2.289,2.289,0,0,1,1.839-.8,1.772,1.772,0,0,1,1.77,1,2.348,2.348,0,0,1,.8-.722A2.377,2.377,0,0,1,53.5,5.486q2.04,0,2.074,2.16V11.8h-1.06V7.709a1.423,1.423,0,0,0-.3-.994,1.337,1.337,0,0,0-1.02-.329,1.405,1.405,0,0,0-.98.352,1.429,1.429,0,0,0-.453.948V11.8H50.69V7.738a1.183,1.183,0,0,0-1.323-1.352,1.418,1.418,0,0,0-1.427.888V11.8H46.88V5.6Zm10.439,6.2h-1.06V5.6h1.06ZM57.176,3.957a.633.633,0,0,1,.158-.435.592.592,0,0,1,.467-.178.6.6,0,0,1,.47.178.626.626,0,0,1,.16.435.605.605,0,0,1-.16.43.612.612,0,0,1-.47.172.6.6,0,0,1-.467-.172A.612.612,0,0,1,57.176,3.957Zm5.414,7.958a2.708,2.708,0,0,1-2.051-.828,3.073,3.073,0,0,1-.791-2.214V8.678A3.72,3.72,0,0,1,60.1,7.03,2.749,2.749,0,0,1,61.086,5.9a2.478,2.478,0,0,1,1.372-.41,2.322,2.322,0,0,1,1.879.8,3.448,3.448,0,0,1,.67,2.28V9h-4.2a2.2,2.2,0,0,0,.536,1.481,1.684,1.684,0,0,0,1.3.564,1.846,1.846,0,0,0,.951-.229,2.39,2.39,0,0,0,.682-.607l.647.5A2.6,2.6,0,0,1,62.59,11.915Zm-.132-5.557a1.414,1.414,0,0,0-1.077.467,2.269,2.269,0,0,0-.539,1.309h3.105v-.08A2.019,2.019,0,0,0,63.512,6.8,1.331,1.331,0,0,0,62.458,6.357ZM67.23,5.6l.029.688a2.289,2.289,0,0,1,1.839-.8,1.772,1.772,0,0,1,1.77,1,2.348,2.348,0,0,1,.8-.722,2.377,2.377,0,0,1,1.172-.275q2.04,0,2.074,2.16V11.8h-1.06V7.709a1.423,1.423,0,0,0-.3-.994,1.337,1.337,0,0,0-1.02-.329,1.405,1.405,0,0,0-.98.352,1.429,1.429,0,0,0-.453.948V11.8H70.038V7.738a1.183,1.183,0,0,0-1.323-1.352,1.418,1.418,0,0,0-1.427.888V11.8h-1.06V5.6ZM81.765,8.769a3.686,3.686,0,0,1-.653,2.283,2.087,2.087,0,0,1-1.753.862,2.161,2.161,0,0,1-1.816-.831l-.052.716h-.974V3h1.06V6.283a2.149,2.149,0,0,1,1.77-.8,2.1,2.1,0,0,1,1.773.854,3.8,3.8,0,0,1,.645,2.337Zm-1.06-.12a2.864,2.864,0,0,0-.418-1.673,1.385,1.385,0,0,0-1.2-.59,1.556,1.556,0,0,0-1.507.974v2.681a1.6,1.6,0,0,0,1.518.974,1.377,1.377,0,0,0,1.186-.59A3.046,3.046,0,0,0,80.705,8.649Zm5.391-2.1a3.176,3.176,0,0,0-.521-.04A1.4,1.4,0,0,0,84.16,7.4v4.4H83.1V5.6h1.031l.017.716a1.65,1.65,0,0,1,1.478-.831,1.083,1.083,0,0,1,.47.08Zm.579,2.091A3.661,3.661,0,0,1,87.033,7a2.671,2.671,0,0,1,1-1.123,2.714,2.714,0,0,1,1.458-.4,2.614,2.614,0,0,1,2.048.877,3.372,3.372,0,0,1,.782,2.332v.074a3.693,3.693,0,0,1-.347,1.624,2.632,2.632,0,0,1-.991,1.12,2.745,2.745,0,0,1-1.481.4,2.608,2.608,0,0,1-2.042-.877,3.355,3.355,0,0,1-.782-2.32Zm1.066.126a2.652,2.652,0,0,0,.478,1.656,1.621,1.621,0,0,0,2.564-.009,2.9,2.9,0,0,0,.476-1.773,2.647,2.647,0,0,0-.484-1.653,1.539,1.539,0,0,0-1.286-.633,1.522,1.522,0,0,0-1.266.624A2.878,2.878,0,0,0,87.741,8.769ZM23.892,26.014a8.858,8.858,0,0,1,.347-2.486,7.223,7.223,0,0,1,1.034-2.166A4.4,4.4,0,0,1,26.7,19.987l.218.7a4.563,4.563,0,0,0-1.372,1.959,8.494,8.494,0,0,0-.587,2.951l-.006.487a8.538,8.538,0,0,0,.808,3.839,4.585,4.585,0,0,0,1.157,1.524l-.218.647a4.541,4.541,0,0,1-1.455-1.421A7.963,7.963,0,0,1,23.892,26.014ZM28.94,23.2l.029.688a2.289,2.289,0,0,1,1.839-.8,1.772,1.772,0,0,1,1.77,1,2.348,2.348,0,0,1,.8-.722,2.377,2.377,0,0,1,1.172-.275q2.04,0,2.074,2.16V29.4h-1.06V25.309a1.423,1.423,0,0,0-.3-.994,1.337,1.337,0,0,0-1.02-.329,1.405,1.405,0,0,0-.98.352,1.429,1.429,0,0,0-.453.948V29.4H31.747V25.338a1.183,1.183,0,0,0-1.323-1.352A1.418,1.418,0,0,0,29,24.874V29.4h-1.06V23.2ZM40.8,29.515a2.708,2.708,0,0,1-2.051-.828,3.073,3.073,0,0,1-.791-2.214v-.195a3.72,3.72,0,0,1,.352-1.647A2.749,2.749,0,0,1,39.3,23.5a2.478,2.478,0,0,1,1.372-.41,2.322,2.322,0,0,1,1.879.8,3.448,3.448,0,0,1,.67,2.28V26.6h-4.2a2.2,2.2,0,0,0,.536,1.481,1.684,1.684,0,0,0,1.3.564,1.846,1.846,0,0,0,.951-.229,2.39,2.39,0,0,0,.682-.607l.647.5A2.6,2.6,0,0,1,40.8,29.515Zm-.132-5.557a1.414,1.414,0,0,0-1.077.467,2.27,2.27,0,0,0-.539,1.309h3.105v-.08a2.019,2.019,0,0,0-.435-1.252A1.331,1.331,0,0,0,40.667,23.957Zm.516-3.346h1.283L40.931,22.3l-.854,0Zm4.7,1.089v1.5h1.157v.819H45.881v3.849a.86.86,0,0,0,.155.559.651.651,0,0,0,.527.186,2.566,2.566,0,0,0,.5-.069V29.4a3.091,3.091,0,0,1-.814.114,1.32,1.32,0,0,1-1.071-.43,1.846,1.846,0,0,1-.361-1.22V24.02H43.692V23.2h1.129V21.7Zm2,4.543a3.661,3.661,0,0,1,.358-1.639,2.671,2.671,0,0,1,1-1.123,2.714,2.714,0,0,1,1.458-.4,2.614,2.614,0,0,1,2.048.877,3.372,3.372,0,0,1,.782,2.332v.074a3.693,3.693,0,0,1-.347,1.624,2.632,2.632,0,0,1-.991,1.12,2.745,2.745,0,0,1-1.481.4,2.608,2.608,0,0,1-2.042-.877,3.355,3.355,0,0,1-.782-2.32Zm1.066.126a2.652,2.652,0,0,0,.478,1.656,1.621,1.621,0,0,0,2.564-.009,2.9,2.9,0,0,0,.476-1.773,2.647,2.647,0,0,0-.484-1.653,1.539,1.539,0,0,0-1.286-.633,1.522,1.522,0,0,0-1.266.624A2.878,2.878,0,0,0,48.946,26.369Zm5.649-.12a3.631,3.631,0,0,1,.676-2.295,2.3,2.3,0,0,1,3.495-.123V20.6h1.06v8.8h-.974l-.052-.665a2.158,2.158,0,0,1-1.77.779,2.117,2.117,0,0,1-1.756-.882,3.673,3.673,0,0,1-.679-2.3Zm1.06.12a2.75,2.75,0,0,0,.435,1.65,1.408,1.408,0,0,0,1.2.6,1.546,1.546,0,0,0,1.472-.905V24.863a1.558,1.558,0,0,0-1.461-.877,1.414,1.414,0,0,0-1.215.6A3.027,3.027,0,0,0,55.655,26.369Zm5.534-.126a3.661,3.661,0,0,1,.358-1.639,2.671,2.671,0,0,1,1-1.123,2.714,2.714,0,0,1,1.458-.4,2.614,2.614,0,0,1,2.048.877,3.372,3.372,0,0,1,.782,2.332v.074a3.693,3.693,0,0,1-.347,1.624,2.632,2.632,0,0,1-.991,1.12,2.745,2.745,0,0,1-1.481.4,2.608,2.608,0,0,1-2.042-.877,3.355,3.355,0,0,1-.782-2.32Zm1.066.126a2.652,2.652,0,0,0,.478,1.656,1.621,1.621,0,0,0,2.564-.009,2.9,2.9,0,0,0,.476-1.773,2.647,2.647,0,0,0-.484-1.653A1.539,1.539,0,0,0,64,23.957a1.522,1.522,0,0,0-1.266.624A2.878,2.878,0,0,0,62.255,26.369Zm8.353-.3a8.862,8.862,0,0,1-.335,2.449,7.243,7.243,0,0,1-1.026,2.163A4.493,4.493,0,0,1,67.8,32.093l-.223-.647A4.606,4.606,0,0,0,69,29.346a9.084,9.084,0,0,0,.547-3.16V26a9.432,9.432,0,0,0-.252-2.237,7.55,7.55,0,0,0-.7-1.853,4.281,4.281,0,0,0-1.011-1.278l.223-.647a4.476,4.476,0,0,1,1.441,1.4,7.258,7.258,0,0,1,1.026,2.16A9.067,9.067,0,0,1,70.608,26.071Z" transform="translate(5.149 82.067)" fill="#12263f"/>
        <g id="Elipse_6363-3" data-name="Elipse 6363" transform="translate(18.467 -0.134)" fill="#fff" stroke="#707070" stroke-width="1">
          <ellipse cx="32" cy="14.5" rx="32" ry="14.5" stroke="none"/>
          <ellipse cx="32" cy="14.5" rx="31.5" ry="14" fill="none"/>
        </g>
        <path id="Trazado_213794" data-name="Trazado 213794" d="M15,11.967V3.625h2.355a3.791,3.791,0,0,1,1.925.481,3.255,3.255,0,0,1,1.292,1.369,4.457,4.457,0,0,1,.461,2.04v.533a4.472,4.472,0,0,1-.455,2.068,3.2,3.2,0,0,1-1.3,1.364,4.032,4.032,0,0,1-1.968.487Zm1.1-7.442v6.543h1.157a2.518,2.518,0,0,0,1.979-.791,3.269,3.269,0,0,0,.708-2.254V7.535a3.321,3.321,0,0,0-.667-2.21,2.375,2.375,0,0,0-1.893-.8Zm10.255,7.442a2.226,2.226,0,0,1-.149-.653,2.365,2.365,0,0,1-1.765.768,2.188,2.188,0,0,1-1.5-.518,1.677,1.677,0,0,1-.587-1.315,1.752,1.752,0,0,1,.736-1.5,3.471,3.471,0,0,1,2.071-.536h1.031V7.721a1.19,1.19,0,0,0-.332-.885,1.335,1.335,0,0,0-.98-.329,1.546,1.546,0,0,0-.951.286.844.844,0,0,0-.384.693H22.477a1.463,1.463,0,0,1,.329-.9,2.248,2.248,0,0,1,.894-.685,3.007,3.007,0,0,1,1.24-.252,2.451,2.451,0,0,1,1.679.536,1.932,1.932,0,0,1,.63,1.475v2.853a3.488,3.488,0,0,0,.218,1.358v.092ZM24.6,11.159a1.863,1.863,0,0,0,.945-.258,1.559,1.559,0,0,0,.647-.67V8.959h-.831q-1.948,0-1.948,1.14a.965.965,0,0,0,.332.779A1.277,1.277,0,0,0,24.6,11.159Zm5.752-6.892v1.5h1.157v.819H30.348v3.849A.86.86,0,0,0,30.5,11a.651.651,0,0,0,.527.186,2.566,2.566,0,0,0,.5-.069v.854a3.091,3.091,0,0,1-.814.114,1.32,1.32,0,0,1-1.071-.43,1.846,1.846,0,0,1-.361-1.22V6.587H28.16V5.768h1.129v-1.5Zm2,4.543a3.661,3.661,0,0,1,.358-1.639,2.671,2.671,0,0,1,1-1.123,2.714,2.714,0,0,1,1.458-.4,2.614,2.614,0,0,1,2.048.877,3.372,3.372,0,0,1,.782,2.332v.074a3.693,3.693,0,0,1-.347,1.624,2.632,2.632,0,0,1-.991,1.12,2.745,2.745,0,0,1-1.481.4A2.608,2.608,0,0,1,33.13,11.2a3.355,3.355,0,0,1-.782-2.32Zm1.066.126a2.652,2.652,0,0,0,.478,1.656,1.621,1.621,0,0,0,2.564-.009,2.9,2.9,0,0,0,.476-1.773,2.647,2.647,0,0,0-.484-1.653,1.539,1.539,0,0,0-1.286-.633,1.522,1.522,0,0,0-1.266.624A2.878,2.878,0,0,0,33.414,8.936Zm9.516,1.386a.78.78,0,0,0-.324-.667,3.116,3.116,0,0,0-1.129-.41A5.336,5.336,0,0,1,40.2,8.833a1.818,1.818,0,0,1-.7-.573,1.37,1.37,0,0,1-.226-.791,1.608,1.608,0,0,1,.645-1.289,2.517,2.517,0,0,1,1.647-.527,2.59,2.59,0,0,1,1.71.544,1.729,1.729,0,0,1,.656,1.392H42.867a.957.957,0,0,0-.37-.751,1.385,1.385,0,0,0-.931-.315,1.449,1.449,0,0,0-.905.252.793.793,0,0,0-.327.659.643.643,0,0,0,.3.579,3.736,3.736,0,0,0,1.1.372,5.717,5.717,0,0,1,1.286.424,1.876,1.876,0,0,1,.73.593,1.458,1.458,0,0,1,.238.845,1.586,1.586,0,0,1-.665,1.332,2.788,2.788,0,0,1-1.724.5,3.122,3.122,0,0,1-1.318-.264,2.143,2.143,0,0,1-.9-.736,1.774,1.774,0,0,1-.324-1.023h1.06a1.1,1.1,0,0,0,.427.845,1.656,1.656,0,0,0,1.051.312,1.709,1.709,0,0,0,.965-.243A.748.748,0,0,0,42.93,10.322Z" transform="translate(20.933 7.1)" fill="#12263f"/>
      </g>
      <g id="Grupo_99463" data-name="Grupo 99463" transform="matrix(0.574, 0.819, -0.819, 0.574, 906.695, 10742.267)">
        <g id="Grupo_99295" data-name="Grupo 99295" transform="translate(0)">
          <path id="Polígono_36" data-name="Polígono 36" d="M6.6,0l6.6,11H0Z" fill="#ffca28"/>
          <path id="Polígono_37" data-name="Polígono 37" d="M6.6,0l6.6,11H0Z" transform="translate(13.2 30.8) rotate(180)" fill="#ffca28"/>
          <rect id="Rectángulo_42834" data-name="Rectángulo 42834" width="4.4" height="16.133" transform="translate(4.4 5.133)" fill="#ffca28"/>
          <rect id="Rectángulo_42835" data-name="Rectángulo 42835" width="4.4" height="16.133" transform="translate(4.4 9.533)" fill="#ffca28"/>
        </g>
      </g>
      <g id="Grupo_99465" data-name="Grupo 99465" transform="matrix(-0.574, 0.819, -0.819, -0.574, 1104.735, 10759.934)">
        <g id="Grupo_99295-2" data-name="Grupo 99295" transform="translate(0 0)">
          <path id="Polígono_36-2" data-name="Polígono 36" d="M6.6,0l6.6,11H0Z" transform="translate(13.2 30.8) rotate(180)" fill="#ffca28"/>
          <path id="Polígono_37-2" data-name="Polígono 37" d="M6.6,0l6.6,11H0Z" transform="translate(0)" fill="#ffca28"/>
          <rect id="Rectángulo_42834-2" data-name="Rectángulo 42834" width="4.4" height="16.133" transform="translate(4.4 9.533)" fill="#ffca28"/>
          <rect id="Rectángulo_42835-2" data-name="Rectángulo 42835" width="4.4" height="16.133" transform="translate(4.4 5.133)" fill="#ffca28"/>
        </g>
      </g>
      <g id="Grupo_99464" data-name="Grupo 99464" transform="translate(926 10857.4) rotate(-90)">
        <g id="Grupo_99295-3" data-name="Grupo 99295" transform="translate(0)">
          <path id="Polígono_36-3" data-name="Polígono 36" d="M6.5,0,13,11H0Z" transform="translate(0.334 -0.2)" fill="#ffca28"/>
          <path id="Polígono_37-3" data-name="Polígono 37" d="M6.5,0,13,11H0Z" transform="translate(13.334 134.8) rotate(180)" fill="#ffca28"/>
          <rect id="Rectángulo_42834-3" data-name="Rectángulo 42834" width="4" height="16" transform="translate(4.334 4.8)" fill="#ffca28"/>
          <rect id="Rectángulo_42835-3" data-name="Rectángulo 42835" width="4" height="116" transform="translate(4.334 9.8)" fill="#ffca28"/>
        </g>
      </g>
    </g>
  </g>
</svg>
