<?xml version="1.0" encoding="utf-8"?>
<!-- Generator: Adobe Illustrator 25.4.2, SVG Export Plug-In . SVG Version: 6.00 Build 0)  -->
<svg version="1.1" id="Capa_1" xmlns="http://www.w3.org/2000/svg" xmlns:xlink="http://www.w3.org/1999/xlink" x="0px" y="0px"
	 viewBox="0 0 449.7 223.5" style="enable-background:new 0 0 449.7 223.5;" xml:space="preserve">
<style type="text/css">
	.st0{fill:#99F3FF;}
	.st1{fill:#12263F;}
	.st2{enable-background:new    ;}
	.st3{fill:#8FDAFF;}
	.st4{fill:none;stroke:#12263F;stroke-width:2;}
	.st5{fill:#4DD0E1;}
	.st6{fill:#FFFFFF;}
</style>
<g id="Grupo_106887" transform="translate(-810 -1497)">
	<g id="Grupo_106672" transform="translate(-80.828 288)">
		<g id="Trazado_218225" transform="translate(915 1209)">
			<path class="st0" d="M206.4,73H3.6C2.2,73,1,71.2,1,69V5c0-2.2,1.2-4,2.6-4h202.9c1.4,0,2.6,1.8,2.6,4v64
				C209,71.2,207.8,73,206.4,73z"/>
			<path class="st1" d="M3.6,2C2.9,2,2,3.2,2,5v64c0,1.8,0.9,3,1.6,3h202.9c0.6,0,1.6-1.2,1.6-3V5c0-1.8-0.9-3-1.6-3H3.6 M3.6,0
				h202.9c2,0,3.6,2.2,3.6,5v64c0,2.8-1.6,5-3.6,5H3.6c-2,0-3.6-2.2-3.6-5V5C0,2.2,1.6,0,3.6,0z"/>
		</g>
		<g id="Trazado_218226" transform="translate(890.828 1227)">
			<path class="st0" d="M48.9,15H1c0,0,0,0,0-0.1V1.1C1,1,1,1,1,1h47.9c0,0,0,0,0,0.1L48.9,15C48.9,15,48.9,15,48.9,15z"/>
			<path class="st1" d="M2,2v12h45.9V2H2 M0.8,0h48.3c0.5,0,0.8,0.5,0.8,1.1v13.8c0,0.6-0.4,1.1-0.8,1.1H0.8C0.4,16,0,15.5,0,14.9
				V1.1C0,0.5,0.4,0,0.8,0z"/>
		</g>
		<g id="Trazado_218227" transform="translate(890.828 1254)">
			<path class="st0" d="M48.9,15H1c0,0,0,0,0-0.1V1.1C1,1,1,1,1,1h47.9c0,0,0,0,0,0.1L48.9,15C48.9,15,48.9,15,48.9,15z"/>
			<path class="st1" d="M2,2v12h45.9V2H2 M0.8,0h48.3c0.5,0,0.8,0.5,0.8,1.1v13.8c0,0.6-0.4,1.1-0.8,1.1H0.8C0.4,16,0,15.5,0,14.9
				V1.1C0,0.5,0.4,0,0.8,0z"/>
		</g>
		<g class="st2">
			<path class="st1" d="M985.3,1248.7c-0.1,1.4-0.6,2.5-1.5,3.3s-2.1,1.2-3.6,1.2c-1.6,0-2.9-0.6-3.9-1.7s-1.4-2.6-1.4-4.5v-0.8
				c0-1.2,0.2-2.3,0.7-3.3s1.1-1.7,1.9-2.2c0.8-0.5,1.7-0.8,2.8-0.8c1.5,0,2.7,0.4,3.6,1.2s1.4,1.9,1.6,3.3h-2.6
				c-0.1-0.8-0.3-1.4-0.7-1.8s-1-0.6-1.8-0.6c-0.9,0-1.5,0.3-2,0.9s-0.7,1.6-0.7,2.9v1c0,1.4,0.2,2.4,0.6,3s1.1,1,2,1
				c0.8,0,1.4-0.2,1.8-0.6s0.6-0.9,0.7-1.7H985.3z"/>
			<path class="st1" d="M986.5,1248.2c0-0.9,0.2-1.8,0.5-2.5s0.9-1.3,1.6-1.7s1.5-0.6,2.4-0.6c1.3,0,2.3,0.4,3.1,1.2
				s1.3,1.9,1.4,3.2l0,0.7c0,1.5-0.4,2.6-1.2,3.5s-1.9,1.3-3.3,1.3s-2.5-0.4-3.3-1.3s-1.2-2.1-1.2-3.6V1248.2z M989,1248.3
				c0,0.9,0.2,1.6,0.5,2.1c0.3,0.5,0.8,0.7,1.5,0.7c0.6,0,1.1-0.2,1.4-0.7c0.3-0.5,0.5-1.2,0.5-2.3c0-0.9-0.2-1.6-0.5-2.1
				s-0.8-0.7-1.5-0.7c-0.6,0-1.1,0.2-1.4,0.7C989.2,1246.6,989,1247.3,989,1248.3z"/>
			<path class="st1" d="M999.4,1243.5l0.1,1.1c0.7-0.8,1.6-1.2,2.7-1.2c1.2,0,2.1,0.5,2.5,1.5c0.7-1,1.6-1.5,2.9-1.5
				c1,0,1.8,0.3,2.3,0.9c0.5,0.6,0.8,1.5,0.8,2.7v6.1h-2.5v-6.1c0-0.5-0.1-0.9-0.3-1.2s-0.6-0.4-1.1-0.4c-0.8,0-1.3,0.4-1.6,1.1
				l0,6.5h-2.5v-6.1c0-0.6-0.1-0.9-0.3-1.2s-0.6-0.4-1.1-0.4c-0.7,0-1.2,0.3-1.6,0.9v6.7h-2.5v-9.5H999.4z"/>
			<path class="st1" d="M1021.2,1248.3c0,1.5-0.3,2.6-1,3.5s-1.6,1.3-2.7,1.3c-1,0-1.7-0.3-2.3-1v4.5h-2.5v-13.2h2.4l0.1,0.9
				c0.6-0.7,1.4-1.1,2.4-1.1c1.2,0,2.1,0.4,2.7,1.3s1,2.1,1,3.6V1248.3z M1018.7,1248.1c0-0.9-0.2-1.6-0.5-2s-0.8-0.7-1.4-0.7
				c-0.8,0-1.3,0.3-1.6,0.9v3.9c0.3,0.6,0.9,0.9,1.7,0.9C1018.1,1251.1,1018.7,1250.1,1018.7,1248.1z"/>
			<path class="st1" d="M1022.4,1248.2c0-0.9,0.2-1.8,0.5-2.5s0.9-1.3,1.6-1.7s1.5-0.6,2.4-0.6c1.3,0,2.3,0.4,3.1,1.2
				s1.3,1.9,1.4,3.2l0,0.7c0,1.5-0.4,2.6-1.2,3.5s-1.9,1.3-3.3,1.3s-2.5-0.4-3.3-1.3s-1.2-2.1-1.2-3.6V1248.2z M1024.9,1248.3
				c0,0.9,0.2,1.6,0.5,2.1c0.3,0.5,0.8,0.7,1.5,0.7c0.6,0,1.1-0.2,1.4-0.7c0.3-0.5,0.5-1.2,0.5-2.3c0-0.9-0.2-1.6-0.5-2.1
				s-0.8-0.7-1.5-0.7c-0.6,0-1.1,0.2-1.4,0.7C1025.1,1246.6,1024.9,1247.3,1024.9,1248.3z"/>
			<path class="st1" d="M1035.3,1243.5l0.1,1.1c0.7-0.8,1.6-1.3,2.7-1.3c1,0,1.8,0.3,2.2,0.9s0.7,1.5,0.8,2.7v6.1h-2.5v-6.1
				c0-0.5-0.1-0.9-0.4-1.2c-0.2-0.2-0.6-0.4-1.2-0.4c-0.7,0-1.3,0.3-1.6,0.9v6.7h-2.5v-9.5H1035.3z"/>
			<path class="st1" d="M1047.4,1253.2c-1.4,0-2.5-0.4-3.4-1.3s-1.3-2-1.3-3.4v-0.2c0-1,0.2-1.8,0.6-2.6s0.9-1.3,1.6-1.7
				s1.4-0.6,2.3-0.6c1.3,0,2.3,0.4,3.1,1.2s1.1,2,1.1,3.5v1h-6.1c0.1,0.6,0.3,1.1,0.7,1.5s0.9,0.6,1.6,0.6c1,0,1.7-0.4,2.3-1.1
				l1.2,1.4c-0.4,0.5-0.9,1-1.5,1.3C1048.9,1253,1048.2,1253.2,1047.4,1253.2z M1047.1,1245.4c-0.5,0-0.9,0.2-1.2,0.5
				c-0.3,0.3-0.5,0.8-0.6,1.5h3.5v-0.2c0-0.6-0.2-1-0.5-1.3C1048.1,1245.5,1047.7,1245.4,1047.1,1245.4z"/>
			<path class="st1" d="M1055.1,1243.5l0.1,1.1c0.7-0.8,1.6-1.3,2.7-1.3c1,0,1.8,0.3,2.2,0.9s0.7,1.5,0.8,2.7v6.1h-2.5v-6.1
				c0-0.5-0.1-0.9-0.4-1.2c-0.2-0.2-0.6-0.4-1.2-0.4c-0.7,0-1.3,0.3-1.6,0.9v6.7h-2.5v-9.5H1055.1z"/>
			<path class="st1" d="M1065.9,1241.2v2.3h1.6v1.9h-1.6v4.7c0,0.4,0.1,0.6,0.2,0.8s0.4,0.2,0.8,0.2c0.3,0,0.5,0,0.7-0.1v1.9
				c-0.5,0.2-1,0.2-1.5,0.2c-1.8,0-2.7-0.9-2.7-2.7v-5.1h-1.4v-1.9h1.4v-2.3H1065.9z"/>
			<path class="st1" d="M1073.3,1253.2c-1.4,0-2.5-0.4-3.4-1.3s-1.3-2-1.3-3.4v-0.2c0-1,0.2-1.8,0.6-2.6s0.9-1.3,1.6-1.7
				s1.4-0.6,2.3-0.6c1.3,0,2.3,0.4,3.1,1.2s1.1,2,1.1,3.5v1h-6.1c0.1,0.6,0.3,1.1,0.7,1.5s0.9,0.6,1.6,0.6c1,0,1.7-0.4,2.3-1.1
				l1.2,1.4c-0.4,0.5-0.9,1-1.5,1.3C1074.8,1253,1074.1,1253.2,1073.3,1253.2z M1073,1245.4c-0.5,0-0.9,0.2-1.2,0.5
				c-0.3,0.3-0.5,0.8-0.6,1.5h3.5v-0.2c0-0.6-0.2-1-0.5-1.3C1074,1245.5,1073.6,1245.4,1073,1245.4z"/>
		</g>
	</g>
	<g id="Grupo_106673" transform="translate(134.672 413.5)">
		<g id="Trazado_218225-2" transform="translate(915 1209)">
			<path class="st3" d="M206.4,73H3.6C2.2,73,1,71.2,1,69V5c0-2.2,1.2-4,2.6-4h202.9c1.4,0,2.6,1.8,2.6,4v64
				C209,71.2,207.8,73,206.4,73z"/>
			<path class="st1" d="M3.6,2C2.9,2,2,3.2,2,5v64c0,1.8,0.9,3,1.6,3h202.9c0.6,0,1.6-1.2,1.6-3V5c0-1.8-0.9-3-1.6-3H3.6 M3.6,0
				h202.9c2,0,3.6,2.2,3.6,5v64c0,2.8-1.6,5-3.6,5H3.6c-2,0-3.6-2.2-3.6-5V5C0,2.2,1.6,0,3.6,0z"/>
		</g>
		<g id="Trazado_218226-2" transform="translate(890.828 1227)">
			<path class="st3" d="M48.9,15H1c0,0,0,0,0-0.1V1.1C1,1,1,1,1,1h47.9c0,0,0,0,0,0.1L48.9,15C48.9,15,48.9,15,48.9,15z"/>
			<path class="st1" d="M2,2v12h45.9V2H2 M0.8,0h48.3c0.5,0,0.8,0.5,0.8,1.1v13.8c0,0.6-0.4,1.1-0.8,1.1H0.8C0.4,16,0,15.5,0,14.9
				V1.1C0,0.5,0.4,0,0.8,0z"/>
		</g>
		<g id="Trazado_218227-2" transform="translate(890.828 1254)">
			<path class="st3" d="M48.9,15H1c0,0,0,0,0-0.1V1.1C1,1,1,1,1,1h47.9c0,0,0,0,0,0.1L48.9,15C48.9,15,48.9,15,48.9,15z"/>
			<path class="st1" d="M2,2v12h45.9V2H2 M0.8,0h48.3c0.5,0,0.8,0.5,0.8,1.1v13.8c0,0.6-0.4,1.1-0.8,1.1H0.8C0.4,16,0,15.5,0,14.9
				V1.1C0,0.5,0.4,0,0.8,0z"/>
		</g>
		<g class="st2">
			<path class="st1" d="M985.3,1248.7c-0.1,1.4-0.6,2.5-1.5,3.3s-2.1,1.2-3.6,1.2c-1.6,0-2.9-0.6-3.9-1.7s-1.4-2.6-1.4-4.5v-0.8
				c0-1.2,0.2-2.3,0.7-3.3s1.1-1.7,1.9-2.2c0.8-0.5,1.7-0.8,2.8-0.8c1.5,0,2.7,0.4,3.6,1.2s1.4,1.9,1.6,3.3h-2.6
				c-0.1-0.8-0.3-1.4-0.7-1.8s-1-0.6-1.8-0.6c-0.9,0-1.5,0.3-2,0.9s-0.7,1.6-0.7,2.9v1c0,1.4,0.2,2.4,0.6,3s1.1,1,2,1
				c0.8,0,1.4-0.2,1.8-0.6s0.6-0.9,0.7-1.7H985.3z"/>
			<path class="st1" d="M986.5,1248.2c0-0.9,0.2-1.8,0.5-2.5s0.9-1.3,1.6-1.7s1.5-0.6,2.4-0.6c1.3,0,2.3,0.4,3.1,1.2
				s1.3,1.9,1.4,3.2l0,0.7c0,1.5-0.4,2.6-1.2,3.5s-1.9,1.3-3.3,1.3s-2.5-0.4-3.3-1.3s-1.2-2.1-1.2-3.6V1248.2z M989,1248.3
				c0,0.9,0.2,1.6,0.5,2.1c0.3,0.5,0.8,0.7,1.5,0.7c0.6,0,1.1-0.2,1.4-0.7c0.3-0.5,0.5-1.2,0.5-2.3c0-0.9-0.2-1.6-0.5-2.1
				s-0.8-0.7-1.5-0.7c-0.6,0-1.1,0.2-1.4,0.7C989.2,1246.6,989,1247.3,989,1248.3z"/>
			<path class="st1" d="M999.4,1243.5l0.1,1.1c0.7-0.8,1.6-1.2,2.7-1.2c1.2,0,2.1,0.5,2.5,1.5c0.7-1,1.6-1.5,2.9-1.5
				c1,0,1.8,0.3,2.3,0.9c0.5,0.6,0.8,1.5,0.8,2.7v6.1h-2.5v-6.1c0-0.5-0.1-0.9-0.3-1.2s-0.6-0.4-1.1-0.4c-0.8,0-1.3,0.4-1.6,1.1
				l0,6.5h-2.5v-6.1c0-0.6-0.1-0.9-0.3-1.2s-0.6-0.4-1.1-0.4c-0.7,0-1.2,0.3-1.6,0.9v6.7h-2.5v-9.5H999.4z"/>
			<path class="st1" d="M1021.2,1248.3c0,1.5-0.3,2.6-1,3.5s-1.6,1.3-2.7,1.3c-1,0-1.7-0.3-2.3-1v4.5h-2.5v-13.2h2.4l0.1,0.9
				c0.6-0.7,1.4-1.1,2.4-1.1c1.2,0,2.1,0.4,2.7,1.3s1,2.1,1,3.6V1248.3z M1018.7,1248.1c0-0.9-0.2-1.6-0.5-2s-0.8-0.7-1.4-0.7
				c-0.8,0-1.3,0.3-1.6,0.9v3.9c0.3,0.6,0.9,0.9,1.7,0.9C1018.1,1251.1,1018.7,1250.1,1018.7,1248.1z"/>
			<path class="st1" d="M1022.4,1248.2c0-0.9,0.2-1.8,0.5-2.5s0.9-1.3,1.6-1.7s1.5-0.6,2.4-0.6c1.3,0,2.3,0.4,3.1,1.2
				s1.3,1.9,1.4,3.2l0,0.7c0,1.5-0.4,2.6-1.2,3.5s-1.9,1.3-3.3,1.3s-2.5-0.4-3.3-1.3s-1.2-2.1-1.2-3.6V1248.2z M1024.9,1248.3
				c0,0.9,0.2,1.6,0.5,2.1c0.3,0.5,0.8,0.7,1.5,0.7c0.6,0,1.1-0.2,1.4-0.7c0.3-0.5,0.5-1.2,0.5-2.3c0-0.9-0.2-1.6-0.5-2.1
				s-0.8-0.7-1.5-0.7c-0.6,0-1.1,0.2-1.4,0.7C1025.1,1246.6,1024.9,1247.3,1024.9,1248.3z"/>
			<path class="st1" d="M1035.3,1243.5l0.1,1.1c0.7-0.8,1.6-1.3,2.7-1.3c1,0,1.8,0.3,2.2,0.9s0.7,1.5,0.8,2.7v6.1h-2.5v-6.1
				c0-0.5-0.1-0.9-0.4-1.2c-0.2-0.2-0.6-0.4-1.2-0.4c-0.7,0-1.2,0.3-1.6,0.9v6.7h-2.5v-9.5H1035.3z"/>
			<path class="st1" d="M1047.4,1253.2c-1.4,0-2.5-0.4-3.4-1.3s-1.3-2-1.3-3.4v-0.2c0-1,0.2-1.8,0.6-2.6s0.9-1.3,1.6-1.7
				s1.4-0.6,2.3-0.6c1.3,0,2.3,0.4,3.1,1.2s1.1,2,1.1,3.5v1h-6.1c0.1,0.6,0.3,1.1,0.7,1.5s0.9,0.6,1.6,0.6c1,0,1.7-0.4,2.3-1.1
				l1.2,1.4c-0.4,0.5-0.9,1-1.5,1.3C1048.9,1253,1048.2,1253.2,1047.4,1253.2z M1047.1,1245.4c-0.5,0-0.9,0.2-1.2,0.5
				c-0.3,0.3-0.5,0.8-0.6,1.5h3.5v-0.2c0-0.6-0.2-1-0.5-1.3C1048.1,1245.5,1047.7,1245.4,1047.1,1245.4z"/>
			<path class="st1" d="M1055.1,1243.5l0.1,1.1c0.7-0.8,1.6-1.3,2.7-1.3c1,0,1.8,0.3,2.2,0.9s0.7,1.5,0.8,2.7v6.1h-2.5v-6.1
				c0-0.5-0.1-0.9-0.4-1.2c-0.2-0.2-0.6-0.4-1.2-0.4c-0.7,0-1.2,0.3-1.6,0.9v6.7h-2.5v-9.5H1055.1z"/>
			<path class="st1" d="M1065.9,1241.2v2.3h1.6v1.9h-1.6v4.7c0,0.4,0.1,0.6,0.2,0.8s0.4,0.2,0.8,0.2c0.3,0,0.5,0,0.7-0.1v1.9
				c-0.5,0.2-1,0.2-1.5,0.2c-1.8,0-2.7-0.9-2.7-2.7v-5.1h-1.4v-1.9h1.4v-2.3H1065.9z"/>
			<path class="st1" d="M1073.3,1253.2c-1.4,0-2.5-0.4-3.4-1.3s-1.3-2-1.3-3.4v-0.2c0-1,0.2-1.8,0.6-2.6s0.9-1.3,1.6-1.7
				s1.4-0.6,2.3-0.6c1.3,0,2.3,0.4,3.1,1.2s1.1,2,1.1,3.5v1h-6.1c0.1,0.6,0.3,1.1,0.7,1.5s0.9,0.6,1.6,0.6c1,0,1.7-0.4,2.3-1.1
				l1.2,1.4c-0.4,0.5-0.9,1-1.5,1.3C1074.8,1253,1074.1,1253.2,1073.3,1253.2z M1073,1245.4c-0.5,0-0.9,0.2-1.2,0.5
				c-0.3,0.3-0.5,0.8-0.6,1.5h3.5v-0.2c0-0.6-0.2-1-0.5-1.3C1074,1245.5,1073.6,1245.4,1073,1245.4z"/>
		</g>
		<g class="st2">
			<path class="st1" d="M690.7,1302h-2.6v-12.8h2.6V1302z"/>
			<path class="st1" d="M695.3,1292.5l0.1,1.1c0.7-0.8,1.6-1.3,2.7-1.3c1,0,1.8,0.3,2.2,0.9s0.7,1.5,0.8,2.7v6.1h-2.5v-6.1
				c0-0.5-0.1-0.9-0.4-1.2c-0.2-0.2-0.6-0.4-1.2-0.4c-0.7,0-1.3,0.3-1.6,0.9v6.7h-2.5v-9.5H695.3z"/>
			<path class="st1" d="M706.1,1290.2v2.3h1.6v1.9h-1.6v4.7c0,0.4,0.1,0.6,0.2,0.8s0.4,0.2,0.8,0.2c0.3,0,0.5,0,0.7-0.1v1.9
				c-0.5,0.2-1,0.2-1.5,0.2c-1.8,0-2.7-0.9-2.7-2.7v-5.1h-1.4v-1.9h1.4v-2.3H706.1z"/>
			<path class="st1" d="M713.5,1302.2c-1.4,0-2.5-0.4-3.4-1.3s-1.3-2-1.3-3.4v-0.2c0-1,0.2-1.8,0.6-2.6s0.9-1.3,1.6-1.7
				s1.4-0.6,2.3-0.6c1.3,0,2.3,0.4,3.1,1.2s1.1,2,1.1,3.5v1h-6.1c0.1,0.6,0.3,1.1,0.7,1.5s0.9,0.6,1.6,0.6c1,0,1.7-0.4,2.3-1.1
				l1.2,1.4c-0.4,0.5-0.9,1-1.5,1.3C715,1302,714.3,1302.2,713.5,1302.2z M713.2,1294.4c-0.5,0-0.9,0.2-1.2,0.5
				c-0.3,0.3-0.5,0.8-0.6,1.5h3.5v-0.2c0-0.6-0.2-1-0.5-1.3C714.2,1294.5,713.8,1294.4,713.2,1294.4z"/>
			<path class="st1" d="M724.2,1294.9c-0.3,0-0.7-0.1-0.9-0.1c-1,0-1.6,0.3-1.9,1v6.2h-2.5v-9.5h2.4l0.1,1.1
				c0.5-0.9,1.2-1.3,2.1-1.3c0.3,0,0.5,0,0.8,0.1L724.2,1294.9z"/>
			<path class="st1" d="M726.3,1302v-7.6h-1.4v-1.9h1.4v-0.8c0-1.1,0.3-1.9,0.9-2.5c0.6-0.6,1.5-0.9,2.6-0.9c0.4,0,0.8,0.1,1.3,0.2
				l0,2c-0.2-0.1-0.5-0.1-0.8-0.1c-1,0-1.4,0.4-1.4,1.3v0.8h1.9v1.9h-1.9v7.6H726.3z"/>
			<path class="st1" d="M737.6,1302c-0.1-0.2-0.2-0.5-0.3-0.9c-0.6,0.7-1.4,1-2.4,1c-0.9,0-1.7-0.3-2.3-0.8s-0.9-1.2-0.9-2
				c0-1,0.4-1.8,1.1-2.3s1.8-0.8,3.2-0.8h1.2v-0.5c0-0.4-0.1-0.8-0.3-1.1s-0.6-0.4-1.1-0.4c-0.4,0-0.8,0.1-1,0.3s-0.4,0.5-0.4,0.8
				h-2.5c0-0.6,0.2-1.1,0.5-1.5s0.8-0.8,1.4-1.1s1.3-0.4,2.1-0.4c1.2,0,2.1,0.3,2.8,0.9c0.7,0.6,1,1.4,1,2.5v4.1
				c0,0.9,0.1,1.6,0.4,2v0.1H737.6z M735.5,1300.2c0.4,0,0.7-0.1,1-0.3c0.3-0.2,0.6-0.4,0.7-0.7v-1.6h-0.9c-1.3,0-1.9,0.4-2,1.3
				l0,0.1c0,0.3,0.1,0.6,0.3,0.8S735.1,1300.2,735.5,1300.2z"/>
			<path class="st1" d="M744.6,1300h4.6v2h-7.9v-1.5l4.5-5.9h-4.3v-2h7.6v1.5L744.6,1300z"/>
		</g>
	</g>
	<line id="Línea_1683" class="st4" x1="927.5" y1="1571.5" x2="927.5" y2="1659.5"/>
	<line id="Línea_1684" class="st4" x1="1025.5" y1="1674.5" x2="942.5" y2="1674.5"/>
	<g id="Elipse_6646" transform="translate(911 1658)">
		<circle class="st5" cx="16.5" cy="16.5" r="16.5"/>
		<circle class="st4" cx="16.5" cy="16.5" r="15.5"/>
	</g>
	<g id="Elipse_6645" transform="translate(915 1662)">
		<circle class="st6" cx="12.5" cy="12.5" r="12.5"/>
		<circle class="st4" cx="12.5" cy="12.5" r="11.5"/>
	</g>
</g>
</svg>
