<?xml version="1.0" encoding="utf-8"?>
<!-- Generator: Adobe Illustrator 25.4.2, SVG Export Plug-In . SVG Version: 6.00 Build 0)  -->
<svg version="1.1" id="Capa_1" xmlns="http://www.w3.org/2000/svg" xmlns:xlink="http://www.w3.org/1999/xlink" x="0px" y="0px"
	 viewBox="0 0 525 266" style="enable-background:new 0 0 525 266;" xml:space="preserve">
<style type="text/css">
	.st0{enable-background:new    ;}
	.st1{fill:#12263F;}
	.st2{fill:#E4F5FF;}
	.st3{fill:#7AB7E1;}
	.st4{fill:#656894;}
	.st5{fill:#D3DB8A;}
	.st6{fill:#FFFFFF;}
	.st7{fill:#DD4E81;}
	.st8{fill:#EDBC2C;}
	.st9{fill:#D499E2;}
	.st10{fill:#3B3348;}
	.st11{fill:#A3D9F7;}
	.st12{fill:#DE5A4C;}
	.st13{fill:#88D450;}
	.st14{fill:#C0E7FD;}
	.st15{fill:#039BE5;}
	.st16{fill:#E8A083;}
	.st17{fill:#3C251D;}
	.st18{fill:#52413F;}
	.st19{fill:#FFCA28;}
	.st20{fill:#E58E76;}
	.st21{fill:#E38569;}
	.st22{fill:#E48B72;}
	.st23{fill:#9975CA;}
	.st24{fill:none;stroke:#1565C0;}
	.st25{fill:none;stroke:#1565C0;stroke-width:2;}
	.st26{fill:#4DD0E1;}
	.st27{fill:#0B6F85;}
	.st28{fill:#036B82;}
	.st29{fill:#EBEBEC;}
</style>
<g class="st0">
	<path class="st1" d="M236.1,13v4h-2.3V5.6h4.4c0.9,0,1.6,0.2,2.3,0.5s1.1,0.8,1.5,1.3c0.3,0.6,0.5,1.2,0.5,2c0,1.1-0.4,2-1.1,2.6
		c-0.8,0.6-1.8,1-3.2,1H236.1z M236.1,11.1h2.1c0.6,0,1.1-0.1,1.4-0.4c0.3-0.3,0.5-0.7,0.5-1.2c0-0.6-0.2-1-0.5-1.4
		s-0.8-0.5-1.4-0.5h-2.1V11.1z"/>
	<path class="st1" d="M246.3,17H244V5h2.3V17z"/>
	<path class="st1" d="M253,17c-0.1-0.2-0.2-0.5-0.2-0.8c-0.5,0.6-1.3,0.9-2.1,0.9c-0.8,0-1.5-0.2-2.1-0.7c-0.5-0.5-0.8-1.1-0.8-1.8
		c0-0.9,0.3-1.6,1-2.1s1.6-0.7,2.9-0.7h1v-0.5c0-0.4-0.1-0.7-0.3-0.9c-0.2-0.2-0.5-0.4-0.9-0.4c-0.4,0-0.7,0.1-0.9,0.3
		c-0.2,0.2-0.3,0.4-0.3,0.8H248c0-0.5,0.2-0.9,0.5-1.4c0.3-0.4,0.7-0.7,1.3-1c0.6-0.2,1.2-0.4,1.9-0.4c1,0,1.9,0.3,2.5,0.8
		c0.6,0.5,0.9,1.3,0.9,2.2V15c0,0.8,0.1,1.4,0.3,1.8V17H253z M251.2,15.4c0.3,0,0.6-0.1,0.9-0.2s0.5-0.3,0.6-0.6v-1.5h-0.8
		c-1.1,0-1.7,0.4-1.8,1.2l0,0.1c0,0.3,0.1,0.5,0.3,0.7C250.5,15.3,250.8,15.4,251.2,15.4z"/>
	<path class="st1" d="M259.4,6.5v2.1h1.4v1.7h-1.4v4.2c0,0.3,0.1,0.5,0.2,0.7c0.1,0.1,0.3,0.2,0.7,0.2c0.2,0,0.5,0,0.7-0.1V17
		c-0.4,0.1-0.9,0.2-1.4,0.2c-1.6,0-2.4-0.8-2.4-2.4v-4.6h-1.2V8.5h1.2V6.5H259.4z"/>
	<path class="st1" d="M267,17c-0.1-0.2-0.2-0.5-0.2-0.8c-0.5,0.6-1.3,0.9-2.1,0.9c-0.8,0-1.5-0.2-2.1-0.7c-0.5-0.5-0.8-1.1-0.8-1.8
		c0-0.9,0.3-1.6,1-2.1c0.7-0.5,1.6-0.7,2.9-0.7h1v-0.5c0-0.4-0.1-0.7-0.3-0.9s-0.5-0.4-0.9-0.4c-0.4,0-0.7,0.1-0.9,0.3
		s-0.3,0.4-0.3,0.8H262c0-0.5,0.2-0.9,0.5-1.4c0.3-0.4,0.7-0.7,1.3-1s1.2-0.4,1.9-0.4c1,0,1.9,0.3,2.5,0.8s0.9,1.3,0.9,2.2V15
		c0,0.8,0.1,1.4,0.3,1.8V17H267z M265.1,15.4c0.3,0,0.6-0.1,0.9-0.2s0.5-0.3,0.6-0.6v-1.5h-0.8c-1.1,0-1.7,0.4-1.8,1.2l0,0.1
		c0,0.3,0.1,0.5,0.3,0.7S264.8,15.4,265.1,15.4z"/>
	<path class="st1" d="M271.3,17v-6.8H270V8.5h1.3V7.8c0-0.9,0.3-1.7,0.8-2.2s1.3-0.8,2.3-0.8c0.3,0,0.7,0.1,1.1,0.2l0,1.8
		c-0.2,0-0.4-0.1-0.7-0.1c-0.8,0-1.3,0.4-1.3,1.2v0.7h1.7v1.7h-1.7V17H271.3z"/>
	<path class="st1" d="M276.1,12.7c0-0.8,0.2-1.6,0.5-2.2s0.8-1.2,1.4-1.5s1.3-0.5,2.1-0.5c1.1,0,2.1,0.3,2.8,1s1.1,1.6,1.2,2.8
		l0,0.6c0,1.3-0.4,2.3-1.1,3.1s-1.7,1.2-2.9,1.2s-2.2-0.4-2.9-1.2s-1.1-1.8-1.1-3.2V12.7z M278.3,12.9c0,0.8,0.2,1.4,0.5,1.8
		s0.7,0.6,1.3,0.6c0.5,0,1-0.2,1.3-0.6s0.5-1.1,0.5-2c0-0.8-0.2-1.4-0.5-1.8s-0.7-0.6-1.3-0.6c-0.6,0-1,0.2-1.3,0.6
		S278.3,12,278.3,12.9z"/>
	<path class="st1" d="M290.2,10.7c-0.3,0-0.6-0.1-0.8-0.1c-0.9,0-1.4,0.3-1.7,0.9V17h-2.3V8.5h2.1l0.1,1c0.5-0.8,1.1-1.2,1.9-1.2
		c0.2,0,0.5,0,0.7,0.1L290.2,10.7z"/>
	<path class="st1" d="M293.4,8.5l0.1,0.9c0.6-0.7,1.4-1.1,2.4-1.1c1.1,0,1.8,0.4,2.2,1.3c0.6-0.9,1.4-1.3,2.5-1.3
		c0.9,0,1.6,0.3,2,0.8s0.7,1.3,0.7,2.4V17h-2.3v-5.4c0-0.5-0.1-0.8-0.3-1.1s-0.5-0.3-1-0.3c-0.7,0-1.1,0.3-1.4,1l0,5.8h-2.3v-5.4
		c0-0.5-0.1-0.8-0.3-1.1s-0.5-0.3-1-0.3c-0.6,0-1.1,0.3-1.4,0.8v6h-2.3V8.5H293.4z"/>
	<path class="st1" d="M310.1,17c-0.1-0.2-0.2-0.5-0.2-0.8c-0.5,0.6-1.3,0.9-2.1,0.9c-0.8,0-1.5-0.2-2.1-0.7s-0.8-1.1-0.8-1.8
		c0-0.9,0.3-1.6,1-2.1s1.6-0.7,2.9-0.7h1v-0.5c0-0.4-0.1-0.7-0.3-0.9s-0.5-0.4-0.9-0.4c-0.4,0-0.7,0.1-0.9,0.3s-0.3,0.4-0.3,0.8H305
		c0-0.5,0.2-0.9,0.5-1.4s0.7-0.7,1.3-1s1.2-0.4,1.9-0.4c1,0,1.9,0.3,2.5,0.8s0.9,1.3,0.9,2.2V15c0,0.8,0.1,1.4,0.3,1.8V17H310.1z
		 M308.2,15.4c0.3,0,0.6-0.1,0.9-0.2s0.5-0.3,0.6-0.6v-1.5h-0.8c-1.1,0-1.7,0.4-1.8,1.2l0,0.1c0,0.3,0.1,0.5,0.3,0.7
		S307.8,15.4,308.2,15.4z"/>
</g>
<g class="st0">
	<path class="st1" d="M246.5,258v4h-2.3v-11.4h4.4c0.9,0,1.6,0.2,2.3,0.5s1.1,0.8,1.5,1.3s0.5,1.2,0.5,2c0,1.1-0.4,2-1.1,2.6
		s-1.8,1-3.2,1H246.5z M246.5,256.1h2.1c0.6,0,1.1-0.1,1.4-0.4s0.5-0.7,0.5-1.2c0-0.6-0.2-1-0.5-1.4s-0.8-0.5-1.4-0.5h-2.1V256.1z"
		/>
	<path class="st1" d="M259.1,255.7c-0.3,0-0.6-0.1-0.8-0.1c-0.9,0-1.4,0.3-1.7,0.9v5.5h-2.3v-8.5h2.1l0.1,1c0.5-0.8,1.1-1.2,1.9-1.2
		c0.2,0,0.5,0,0.7,0.1L259.1,255.7z"/>
	<path class="st1" d="M259.6,257.7c0-0.8,0.2-1.6,0.5-2.2s0.8-1.2,1.4-1.5s1.3-0.5,2.1-0.5c1.1,0,2.1,0.3,2.8,1s1.1,1.6,1.2,2.8
		l0,0.6c0,1.3-0.4,2.3-1.1,3.1s-1.7,1.2-2.9,1.2s-2.2-0.4-2.9-1.2s-1.1-1.8-1.1-3.2V257.7z M261.8,257.9c0,0.8,0.2,1.4,0.5,1.8
		s0.7,0.6,1.3,0.6c0.5,0,1-0.2,1.3-0.6s0.5-1.1,0.5-2c0-0.8-0.2-1.4-0.5-1.8s-0.7-0.6-1.3-0.6c-0.6,0-1,0.2-1.3,0.6
		S261.8,257,261.8,257.9z"/>
	<path class="st1" d="M272.5,260.3c0.4,0,0.8-0.1,1-0.3s0.4-0.5,0.4-0.9h2.1c0,0.6-0.2,1.1-0.5,1.6s-0.7,0.8-1.3,1.1
		s-1.1,0.4-1.8,0.4c-1.2,0-2.2-0.4-2.9-1.2s-1-1.8-1-3.2v-0.1c0-1.3,0.3-2.3,1-3.1s1.6-1.2,2.9-1.2c1.1,0,1.9,0.3,2.5,0.9
		s1,1.4,1,2.4h-2.1c0-0.4-0.1-0.8-0.4-1.1c-0.3-0.3-0.6-0.4-1-0.4c-0.5,0-0.9,0.2-1.2,0.6s-0.4,1-0.4,1.9v0.2c0,0.9,0.1,1.5,0.4,1.9
		S271.9,260.3,272.5,260.3z"/>
	<path class="st1" d="M281.2,262.2c-1.2,0-2.2-0.4-3-1.1s-1.2-1.8-1.2-3v-0.2c0-0.8,0.2-1.6,0.5-2.3s0.8-1.2,1.4-1.5
		s1.3-0.5,2.1-0.5c1.2,0,2.1,0.4,2.7,1.1s1,1.8,1,3.1v0.9h-5.4c0.1,0.6,0.3,1,0.7,1.3s0.8,0.5,1.4,0.5c0.9,0,1.5-0.3,2-0.9l1.1,1.2
		c-0.3,0.5-0.8,0.9-1.4,1.1S281.9,262.2,281.2,262.2z M281,255.2c-0.4,0-0.8,0.2-1.1,0.5s-0.5,0.7-0.5,1.3h3.1v-0.2
		c0-0.5-0.1-0.9-0.4-1.2S281.4,255.2,281,255.2z"/>
	<path class="st1" d="M290.5,259.7c0-0.3-0.1-0.5-0.4-0.7s-0.7-0.3-1.3-0.4c-2-0.4-3-1.3-3-2.6c0-0.8,0.3-1.4,0.9-1.9
		s1.4-0.8,2.4-0.8c1.1,0,1.9,0.3,2.6,0.8s1,1.2,1,2h-2.3c0-0.3-0.1-0.6-0.3-0.8s-0.5-0.3-1-0.3c-0.4,0-0.7,0.1-0.9,0.3
		s-0.3,0.4-0.3,0.7c0,0.2,0.1,0.5,0.4,0.6s0.6,0.3,1.2,0.4s1,0.2,1.4,0.4c1.2,0.4,1.8,1.2,1.8,2.3c0,0.8-0.3,1.4-1,1.9
		s-1.5,0.7-2.6,0.7c-0.7,0-1.3-0.1-1.9-0.4s-1-0.6-1.3-1s-0.5-0.9-0.5-1.4h2.1c0,0.4,0.2,0.7,0.4,0.9s0.6,0.3,1.1,0.3
		c0.4,0,0.8-0.1,1-0.2S290.5,259.9,290.5,259.7z"/>
	<path class="st1" d="M293.8,257.7c0-0.8,0.2-1.6,0.5-2.2s0.8-1.2,1.4-1.5s1.3-0.5,2.1-0.5c1.1,0,2.1,0.3,2.8,1s1.1,1.6,1.2,2.8
		l0,0.6c0,1.3-0.4,2.3-1.1,3.1s-1.7,1.2-2.9,1.2s-2.2-0.4-2.9-1.2s-1.1-1.8-1.1-3.2V257.7z M296.1,257.9c0,0.8,0.2,1.4,0.5,1.8
		s0.7,0.6,1.3,0.6c0.5,0,1-0.2,1.3-0.6s0.5-1.1,0.5-2c0-0.8-0.2-1.4-0.5-1.8s-0.7-0.6-1.3-0.6c-0.6,0-1,0.2-1.3,0.6
		S296.1,257,296.1,257.9z"/>
</g>
<g class="st0">
	<path class="st1" d="M436.4,49v4H434V41.6h4.4c0.9,0,1.6,0.2,2.3,0.5s1.1,0.8,1.5,1.3c0.3,0.6,0.5,1.2,0.5,2c0,1.1-0.4,2-1.1,2.6
		c-0.8,0.6-1.8,1-3.2,1H436.4z M436.4,47.1h2.1c0.6,0,1.1-0.1,1.4-0.4c0.3-0.3,0.5-0.7,0.5-1.2c0-0.6-0.2-1-0.5-1.4
		s-0.8-0.5-1.4-0.5h-2.1V47.1z"/>
	<path class="st1" d="M448.1,53.2c-1.2,0-2.2-0.4-3-1.1c-0.8-0.8-1.2-1.8-1.2-3v-0.2c0-0.8,0.2-1.6,0.5-2.3s0.8-1.2,1.4-1.5
		s1.3-0.5,2.1-0.5c1.2,0,2.1,0.4,2.7,1.1s1,1.8,1,3.1v0.9h-5.4c0.1,0.6,0.3,1,0.7,1.3s0.8,0.5,1.4,0.5c0.9,0,1.5-0.3,2-0.9l1.1,1.2
		c-0.3,0.5-0.8,0.9-1.4,1.1S448.8,53.2,448.1,53.2z M447.8,46.2c-0.4,0-0.8,0.2-1.1,0.5c-0.3,0.3-0.5,0.7-0.5,1.3h3.1v-0.2
		c0-0.5-0.1-0.9-0.4-1.2C448.7,46.3,448.3,46.2,447.8,46.2z"/>
	<path class="st1" d="M457.6,46.7c-0.3,0-0.6-0.1-0.8-0.1c-0.9,0-1.4,0.3-1.7,0.9V53h-2.3v-8.5h2.1l0.1,1c0.5-0.8,1.1-1.2,1.9-1.2
		c0.2,0,0.5,0,0.7,0.1L457.6,46.7z"/>
	<path class="st1" d="M463.2,50.7c0-0.3-0.1-0.5-0.4-0.7s-0.7-0.3-1.3-0.4c-2-0.4-3-1.3-3-2.6c0-0.8,0.3-1.4,0.9-1.9
		c0.6-0.5,1.4-0.8,2.4-0.8c1.1,0,1.9,0.3,2.6,0.8c0.6,0.5,1,1.2,1,2h-2.3c0-0.3-0.1-0.6-0.3-0.8c-0.2-0.2-0.5-0.3-1-0.3
		c-0.4,0-0.7,0.1-0.9,0.3c-0.2,0.2-0.3,0.4-0.3,0.7c0,0.2,0.1,0.5,0.4,0.6c0.2,0.2,0.6,0.3,1.2,0.4s1,0.2,1.4,0.4
		c1.2,0.4,1.8,1.2,1.8,2.3c0,0.8-0.3,1.4-1,1.9c-0.7,0.5-1.5,0.7-2.6,0.7c-0.7,0-1.3-0.1-1.9-0.4c-0.5-0.3-1-0.6-1.3-1
		s-0.5-0.9-0.5-1.4h2.1c0,0.4,0.2,0.7,0.4,0.9c0.3,0.2,0.6,0.3,1.1,0.3c0.4,0,0.8-0.1,1-0.2C463.1,51.1,463.2,50.9,463.2,50.7z"/>
	<path class="st1" d="M466.5,48.7c0-0.8,0.2-1.6,0.5-2.2c0.3-0.7,0.8-1.2,1.4-1.5c0.6-0.4,1.3-0.5,2.1-0.5c1.1,0,2.1,0.3,2.8,1
		c0.7,0.7,1.1,1.6,1.2,2.8l0,0.6c0,1.3-0.4,2.3-1.1,3.1c-0.7,0.8-1.7,1.2-2.9,1.2s-2.2-0.4-2.9-1.2s-1.1-1.8-1.1-3.2V48.7z
		 M468.8,48.9c0,0.8,0.2,1.4,0.5,1.8c0.3,0.4,0.7,0.6,1.3,0.6c0.5,0,1-0.2,1.3-0.6c0.3-0.4,0.5-1.1,0.5-2c0-0.8-0.2-1.4-0.5-1.8
		c-0.3-0.4-0.7-0.6-1.3-0.6c-0.6,0-1,0.2-1.3,0.6C469,47.3,468.8,48,468.8,48.9z"/>
	<path class="st1" d="M478,44.5l0.1,1c0.6-0.8,1.4-1.1,2.4-1.1c0.9,0,1.6,0.3,2,0.8s0.7,1.3,0.7,2.4V53h-2.3v-5.4
		c0-0.5-0.1-0.8-0.3-1c-0.2-0.2-0.6-0.3-1-0.3c-0.6,0-1.1,0.3-1.4,0.8v6h-2.3v-8.5H478z"/>
	<path class="st1" d="M489.8,53c-0.1-0.2-0.2-0.5-0.2-0.8c-0.5,0.6-1.3,0.9-2.1,0.9c-0.8,0-1.5-0.2-2.1-0.7
		c-0.5-0.5-0.8-1.1-0.8-1.8c0-0.9,0.3-1.6,1-2.1s1.6-0.7,2.9-0.7h1v-0.5c0-0.4-0.1-0.7-0.3-0.9c-0.2-0.2-0.5-0.4-0.9-0.4
		c-0.4,0-0.7,0.1-0.9,0.3c-0.2,0.2-0.3,0.4-0.3,0.8h-2.3c0-0.5,0.2-0.9,0.5-1.4c0.3-0.4,0.7-0.7,1.3-1c0.6-0.2,1.2-0.4,1.9-0.4
		c1,0,1.9,0.3,2.5,0.8c0.6,0.5,0.9,1.3,0.9,2.2V51c0,0.8,0.1,1.4,0.3,1.8V53H489.8z M487.9,51.4c0.3,0,0.6-0.1,0.9-0.2
		s0.5-0.3,0.6-0.6v-1.5h-0.8c-1.1,0-1.7,0.4-1.8,1.2l0,0.1c0,0.3,0.1,0.5,0.3,0.7C487.3,51.3,487.6,51.4,487.9,51.4z"/>
	<path class="st1" d="M495.9,53h-2.3V41h2.3V53z"/>
</g>
<g class="st0">
	<path class="st1" d="M42.8,50c0-0.4-0.2-0.8-0.5-1s-0.9-0.5-1.7-0.8s-1.5-0.5-1.9-0.8c-1.3-0.7-1.9-1.6-1.9-2.8
		c0-0.6,0.2-1.2,0.5-1.6c0.3-0.5,0.8-0.9,1.5-1.1s1.4-0.4,2.2-0.4c0.8,0,1.5,0.1,2.2,0.4c0.6,0.3,1.1,0.7,1.5,1.2s0.5,1.1,0.5,1.8
		h-2.3c0-0.5-0.2-0.9-0.5-1.2s-0.8-0.4-1.4-0.4c-0.6,0-1,0.1-1.3,0.4c-0.3,0.2-0.5,0.6-0.5,1c0,0.4,0.2,0.7,0.6,0.9
		c0.4,0.2,0.9,0.5,1.6,0.7c1.3,0.4,2.3,0.9,2.9,1.5s0.9,1.3,0.9,2.2c0,1-0.4,1.8-1.1,2.3c-0.7,0.6-1.7,0.8-3,0.8
		c-0.9,0-1.7-0.2-2.4-0.5s-1.3-0.8-1.6-1.3c-0.4-0.6-0.6-1.2-0.6-1.9h2.4c0,1.3,0.8,1.9,2.2,1.9c0.6,0,1-0.1,1.3-0.3
		S42.8,50.4,42.8,50z"/>
	<path class="st1" d="M50.4,53.2c-1.2,0-2.2-0.4-3-1.1c-0.8-0.8-1.2-1.8-1.2-3v-0.2c0-0.8,0.2-1.6,0.5-2.3s0.8-1.2,1.4-1.5
		s1.3-0.5,2.1-0.5c1.2,0,2.1,0.4,2.7,1.1s1,1.8,1,3.1v0.9h-5.4c0.1,0.6,0.3,1,0.7,1.3s0.8,0.5,1.4,0.5c0.9,0,1.5-0.3,2-0.9l1.1,1.2
		c-0.3,0.5-0.8,0.9-1.4,1.1S51.1,53.2,50.4,53.2z M50.2,46.2c-0.4,0-0.8,0.2-1.1,0.5c-0.3,0.3-0.5,0.7-0.5,1.3h3.1v-0.2
		c0-0.5-0.1-0.9-0.4-1.2C51,46.3,50.7,46.2,50.2,46.2z"/>
	<path class="st1" d="M59.9,46.7c-0.3,0-0.6-0.1-0.8-0.1c-0.9,0-1.4,0.3-1.7,0.9V53h-2.3v-8.5h2.1l0.1,1c0.5-0.8,1.1-1.2,1.9-1.2
		c0.2,0,0.5,0,0.7,0.1L59.9,46.7z"/>
	<path class="st1" d="M64.3,50.2l1.6-5.7h2.4L65.4,53h-2.2l-2.9-8.5h2.4L64.3,50.2z"/>
	<path class="st1" d="M69.2,42.4c0-0.3,0.1-0.6,0.3-0.8s0.5-0.3,0.9-0.3c0.4,0,0.7,0.1,0.9,0.3c0.2,0.2,0.3,0.5,0.3,0.8
		c0,0.3-0.1,0.6-0.3,0.8c-0.2,0.2-0.5,0.3-0.9,0.3c-0.4,0-0.7-0.1-0.9-0.3C69.4,43,69.2,42.7,69.2,42.4z M71.6,53h-2.3v-8.5h2.3V53z
		"/>
	<path class="st1" d="M77,51.3c0.4,0,0.8-0.1,1-0.3c0.3-0.2,0.4-0.5,0.4-0.9h2.1c0,0.6-0.2,1.1-0.5,1.6c-0.3,0.5-0.7,0.8-1.3,1.1
		c-0.5,0.3-1.1,0.4-1.8,0.4c-1.2,0-2.2-0.4-2.9-1.2c-0.7-0.8-1-1.8-1-3.2v-0.1c0-1.3,0.3-2.3,1-3.1c0.7-0.8,1.6-1.2,2.9-1.2
		c1.1,0,1.9,0.3,2.5,0.9c0.6,0.6,1,1.4,1,2.4h-2.1c0-0.4-0.1-0.8-0.4-1.1c-0.3-0.3-0.6-0.4-1-0.4c-0.5,0-0.9,0.2-1.2,0.6
		c-0.3,0.4-0.4,1-0.4,1.9v0.2c0,0.9,0.1,1.5,0.4,1.9S76.5,51.3,77,51.3z"/>
	<path class="st1" d="M81.8,42.4c0-0.3,0.1-0.6,0.3-0.8s0.5-0.3,0.9-0.3c0.4,0,0.7,0.1,0.9,0.3c0.2,0.2,0.3,0.5,0.3,0.8
		c0,0.3-0.1,0.6-0.3,0.8c-0.2,0.2-0.5,0.3-0.9,0.3c-0.4,0-0.7-0.1-0.9-0.3C81.9,43,81.8,42.7,81.8,42.4z M84.2,53H82v-8.5h2.3V53z"
		/>
	<path class="st1" d="M85.7,48.7c0-0.8,0.2-1.6,0.5-2.2c0.3-0.7,0.8-1.2,1.4-1.5c0.6-0.4,1.3-0.5,2.1-0.5c1.1,0,2.1,0.3,2.8,1
		c0.7,0.7,1.1,1.6,1.2,2.8l0,0.6c0,1.3-0.4,2.3-1.1,3.1c-0.7,0.8-1.7,1.2-2.9,1.2s-2.2-0.4-2.9-1.2s-1.1-1.8-1.1-3.2V48.7z M88,48.9
		c0,0.8,0.2,1.4,0.5,1.8c0.3,0.4,0.7,0.6,1.3,0.6c0.5,0,1-0.2,1.3-0.6c0.3-0.4,0.5-1.1,0.5-2c0-0.8-0.2-1.4-0.5-1.8
		c-0.3-0.4-0.7-0.6-1.3-0.6c-0.6,0-1,0.2-1.3,0.6C88.1,47.3,88,48,88,48.9z"/>
</g>
<g class="st0">
	<path class="st1" d="M440.4,249.7h-4.1l-0.8,2.3h-2.5l4.2-11.4h2.2l4.3,11.4h-2.5L440.4,249.7z M437,247.8h2.8l-1.4-4.3L437,247.8z
		"/>
	<path class="st1" d="M449.4,245.7c-0.3,0-0.6-0.1-0.8-0.1c-0.9,0-1.4,0.3-1.7,0.9v5.5h-2.3v-8.5h2.1l0.1,1c0.5-0.8,1.1-1.2,1.9-1.2
		c0.2,0,0.5,0,0.7,0.1L449.4,245.7z"/>
	<path class="st1" d="M450.1,247.7c0-1.3,0.3-2.4,0.9-3.1c0.6-0.8,1.4-1.2,2.4-1.2c0.9,0,1.6,0.3,2.2,1l0.1-0.9h2v11.7h-2.3v-4
		c-0.5,0.6-1.2,0.9-2,0.9c-1,0-1.8-0.4-2.4-1.2C450.4,250.2,450.1,249.1,450.1,247.7z M452.4,247.9c0,0.8,0.1,1.4,0.4,1.8
		c0.3,0.4,0.7,0.6,1.2,0.6c0.7,0,1.2-0.3,1.5-0.8V246c-0.3-0.5-0.8-0.8-1.5-0.8c-0.5,0-0.9,0.2-1.2,0.6
		C452.5,246.3,452.4,246.9,452.4,247.9z"/>
	<path class="st1" d="M464.6,251.1c-0.6,0.7-1.3,1-2.3,1c-0.9,0-1.6-0.3-2.1-0.8s-0.7-1.3-0.7-2.3v-5.5h2.3v5.5
		c0,0.9,0.4,1.3,1.2,1.3c0.8,0,1.3-0.3,1.6-0.8v-6h2.3v8.5h-2.1L464.6,251.1z"/>
	<path class="st1" d="M468.4,241.4c0-0.3,0.1-0.6,0.3-0.8s0.5-0.3,0.9-0.3c0.4,0,0.7,0.1,0.9,0.3c0.2,0.2,0.3,0.5,0.3,0.8
		c0,0.3-0.1,0.6-0.3,0.8c-0.2,0.2-0.5,0.3-0.9,0.3c-0.4,0-0.7-0.1-0.9-0.3C468.6,242,468.4,241.7,468.4,241.4z M470.8,252h-2.3v-8.5
		h2.3V252z"/>
	<path class="st1" d="M475.4,241.5v2.1h1.4v1.7h-1.4v4.2c0,0.3,0.1,0.5,0.2,0.7c0.1,0.1,0.3,0.2,0.7,0.2c0.2,0,0.5,0,0.7-0.1v1.7
		c-0.4,0.1-0.9,0.2-1.4,0.2c-1.6,0-2.4-0.8-2.4-2.4v-4.6h-1.2v-1.7h1.2v-2.1H475.4z"/>
	<path class="st1" d="M482,252.2c-1.2,0-2.2-0.4-3-1.1c-0.8-0.8-1.2-1.8-1.2-3v-0.2c0-0.8,0.2-1.6,0.5-2.3s0.8-1.2,1.4-1.5
		s1.3-0.5,2.1-0.5c1.2,0,2.1,0.4,2.7,1.1s1,1.8,1,3.1v0.9h-5.4c0.1,0.6,0.3,1,0.7,1.3s0.8,0.5,1.4,0.5c0.9,0,1.5-0.3,2-0.9l1.1,1.2
		c-0.3,0.5-0.8,0.9-1.4,1.1S482.7,252.2,482,252.2z M481.7,245.2c-0.4,0-0.8,0.2-1.1,0.5c-0.3,0.3-0.5,0.7-0.5,1.3h3.1v-0.2
		c0-0.5-0.1-0.9-0.4-1.2C482.6,245.3,482.2,245.2,481.7,245.2z"/>
	<path class="st1" d="M490.3,250.3c0.4,0,0.8-0.1,1-0.3c0.3-0.2,0.4-0.5,0.4-0.9h2.1c0,0.6-0.2,1.1-0.5,1.6
		c-0.3,0.5-0.7,0.8-1.3,1.1c-0.5,0.3-1.1,0.4-1.8,0.4c-1.2,0-2.2-0.4-2.9-1.2c-0.7-0.8-1-1.8-1-3.2v-0.1c0-1.3,0.3-2.3,1-3.1
		c0.7-0.8,1.6-1.2,2.9-1.2c1.1,0,1.9,0.3,2.5,0.9c0.6,0.6,1,1.4,1,2.4h-2.1c0-0.4-0.1-0.8-0.4-1.1c-0.3-0.3-0.6-0.4-1-0.4
		c-0.5,0-0.9,0.2-1.2,0.6c-0.3,0.4-0.4,1-0.4,1.9v0.2c0,0.9,0.1,1.5,0.4,1.9S489.7,250.3,490.3,250.3z"/>
	<path class="st1" d="M497.8,241.5v2.1h1.4v1.7h-1.4v4.2c0,0.3,0.1,0.5,0.2,0.7c0.1,0.1,0.3,0.2,0.7,0.2c0.2,0,0.5,0,0.7-0.1v1.7
		c-0.4,0.1-0.9,0.2-1.4,0.2c-1.6,0-2.4-0.8-2.4-2.4v-4.6h-1.2v-1.7h1.2v-2.1H497.8z"/>
	<path class="st1" d="M505.6,251.1c-0.6,0.7-1.3,1-2.3,1c-0.9,0-1.6-0.3-2.1-0.8s-0.7-1.3-0.7-2.3v-5.5h2.3v5.5
		c0,0.9,0.4,1.3,1.2,1.3c0.8,0,1.3-0.3,1.6-0.8v-6h2.3v8.5h-2.1L505.6,251.1z"/>
	<path class="st1" d="M514.2,245.7c-0.3,0-0.6-0.1-0.8-0.1c-0.9,0-1.4,0.3-1.7,0.9v5.5h-2.3v-8.5h2.1l0.1,1c0.5-0.8,1.1-1.2,1.9-1.2
		c0.2,0,0.5,0,0.7,0.1L514.2,245.7z"/>
	<path class="st1" d="M520,252c-0.1-0.2-0.2-0.5-0.2-0.8c-0.5,0.6-1.3,0.9-2.1,0.9c-0.8,0-1.5-0.2-2.1-0.7c-0.5-0.5-0.8-1.1-0.8-1.8
		c0-0.9,0.3-1.6,1-2.1s1.6-0.7,2.9-0.7h1v-0.5c0-0.4-0.1-0.7-0.3-0.9c-0.2-0.2-0.5-0.4-0.9-0.4c-0.4,0-0.7,0.1-0.9,0.3
		c-0.2,0.2-0.3,0.4-0.3,0.8h-2.3c0-0.5,0.2-0.9,0.5-1.4c0.3-0.4,0.7-0.7,1.3-1c0.6-0.2,1.2-0.4,1.9-0.4c1,0,1.9,0.3,2.5,0.8
		c0.6,0.5,0.9,1.3,0.9,2.2v3.7c0,0.8,0.1,1.4,0.3,1.8v0.1H520z M518.1,250.4c0.3,0,0.6-0.1,0.9-0.2s0.5-0.3,0.6-0.6v-1.5h-0.8
		c-1.1,0-1.7,0.4-1.8,1.2l0,0.1c0,0.3,0.1,0.5,0.3,0.7C517.5,250.3,517.8,250.4,518.1,250.4z"/>
</g>
<g class="st0">
	<path class="st1" d="M24.2,252h-2.3v-11.4h2.3V252z"/>
	<path class="st1" d="M28.3,243.5l0.1,1c0.6-0.8,1.4-1.1,2.4-1.1c0.9,0,1.6,0.3,2,0.8s0.7,1.3,0.7,2.4v5.5h-2.3v-5.4
		c0-0.5-0.1-0.8-0.3-1c-0.2-0.2-0.6-0.3-1-0.3c-0.6,0-1.1,0.3-1.4,0.8v6h-2.3v-8.5H28.3z"/>
	<path class="st1" d="M37.9,241.5v2.1h1.4v1.7h-1.4v4.2c0,0.3,0.1,0.5,0.2,0.7c0.1,0.1,0.3,0.2,0.7,0.2c0.2,0,0.5,0,0.7-0.1v1.7
		c-0.4,0.1-0.9,0.2-1.4,0.2c-1.6,0-2.4-0.8-2.4-2.4v-4.6h-1.2v-1.7h1.2v-2.1H37.9z"/>
	<path class="st1" d="M44.5,252.2c-1.2,0-2.2-0.4-3-1.1c-0.8-0.8-1.2-1.8-1.2-3v-0.2c0-0.8,0.2-1.6,0.5-2.3s0.8-1.2,1.4-1.5
		s1.3-0.5,2.1-0.5c1.2,0,2.1,0.4,2.7,1.1s1,1.8,1,3.1v0.9h-5.4c0.1,0.6,0.3,1,0.7,1.3s0.8,0.5,1.4,0.5c0.9,0,1.5-0.3,2-0.9l1.1,1.2
		c-0.3,0.5-0.8,0.9-1.4,1.1S45.2,252.2,44.5,252.2z M44.2,245.2c-0.4,0-0.8,0.2-1.1,0.5c-0.3,0.3-0.5,0.7-0.5,1.3h3.1v-0.2
		c0-0.5-0.1-0.9-0.4-1.2C45.1,245.3,44.7,245.2,44.2,245.2z"/>
	<path class="st1" d="M48.9,247.7c0-1.3,0.3-2.3,0.9-3.1s1.4-1.2,2.5-1.2c0.9,0,1.6,0.3,2.2,1l0.1-0.8h2v8.2c0,0.7-0.2,1.4-0.5,1.9
		s-0.8,1-1.4,1.2s-1.3,0.4-2.1,0.4c-0.6,0-1.2-0.1-1.8-0.4c-0.6-0.2-1-0.6-1.3-1l1-1.4c0.6,0.6,1.2,0.9,2,0.9c0.6,0,1.1-0.2,1.4-0.5
		c0.3-0.3,0.5-0.8,0.5-1.4v-0.5c-0.5,0.6-1.2,0.9-2.1,0.9c-1,0-1.8-0.4-2.5-1.2C49.2,250.2,48.9,249.1,48.9,247.7L48.9,247.7z
		 M51.2,247.9c0,0.8,0.2,1.4,0.5,1.8c0.3,0.4,0.7,0.7,1.3,0.7c0.7,0,1.2-0.3,1.5-0.8V246c-0.3-0.5-0.8-0.8-1.5-0.8
		c-0.5,0-1,0.2-1.3,0.7C51.3,246.3,51.2,247,51.2,247.9z"/>
	<path class="st1" d="M63.1,245.7c-0.3,0-0.6-0.1-0.8-0.1c-0.9,0-1.4,0.3-1.7,0.9v5.5h-2.3v-8.5h2.1l0.1,1c0.5-0.8,1.1-1.2,1.9-1.2
		c0.2,0,0.5,0,0.7,0.1L63.1,245.7z"/>
	<path class="st1" d="M68.9,252c-0.1-0.2-0.2-0.5-0.2-0.8c-0.5,0.6-1.3,0.9-2.1,0.9c-0.8,0-1.5-0.2-2.1-0.7
		c-0.5-0.5-0.8-1.1-0.8-1.8c0-0.9,0.3-1.6,1-2.1s1.6-0.7,2.9-0.7h1v-0.5c0-0.4-0.1-0.7-0.3-0.9c-0.2-0.2-0.5-0.4-0.9-0.4
		c-0.4,0-0.7,0.1-0.9,0.3c-0.2,0.2-0.3,0.4-0.3,0.8h-2.3c0-0.5,0.2-0.9,0.5-1.4c0.3-0.4,0.7-0.7,1.3-1c0.6-0.2,1.2-0.4,1.9-0.4
		c1,0,1.9,0.3,2.5,0.8c0.6,0.5,0.9,1.3,0.9,2.2v3.7c0,0.8,0.1,1.4,0.3,1.8v0.1H68.9z M67,250.4c0.3,0,0.6-0.1,0.9-0.2
		s0.5-0.3,0.6-0.6v-1.5h-0.8c-1.1,0-1.7,0.4-1.8,1.2l0,0.1c0,0.3,0.1,0.5,0.3,0.7C66.4,250.3,66.6,250.4,67,250.4z"/>
	<path class="st1" d="M76.1,250.3c0.4,0,0.8-0.1,1-0.3c0.3-0.2,0.4-0.5,0.4-0.9h2.1c0,0.6-0.2,1.1-0.5,1.6c-0.3,0.5-0.7,0.8-1.3,1.1
		c-0.5,0.3-1.1,0.4-1.8,0.4c-1.2,0-2.2-0.4-2.9-1.2c-0.7-0.8-1-1.8-1-3.2v-0.1c0-1.3,0.3-2.3,1-3.1c0.7-0.8,1.6-1.2,2.9-1.2
		c1.1,0,1.9,0.3,2.5,0.9c0.6,0.6,1,1.4,1,2.4h-2.1c0-0.4-0.1-0.8-0.4-1.1c-0.3-0.3-0.6-0.4-1-0.4c-0.5,0-0.9,0.2-1.2,0.6
		c-0.3,0.4-0.4,1-0.4,1.9v0.2c0,0.9,0.1,1.5,0.4,1.9S75.5,250.3,76.1,250.3z"/>
	<path class="st1" d="M80.9,241.4c0-0.3,0.1-0.6,0.3-0.8s0.5-0.3,0.9-0.3c0.4,0,0.7,0.1,0.9,0.3c0.2,0.2,0.3,0.5,0.3,0.8
		c0,0.3-0.1,0.6-0.3,0.8c-0.2,0.2-0.5,0.3-0.9,0.3c-0.4,0-0.7-0.1-0.9-0.3C81,242,80.9,241.7,80.9,241.4z M83.3,252H81v-8.5h2.3V252
		z"/>
	<path class="st1" d="M84.8,247.7c0-0.8,0.2-1.6,0.5-2.2c0.3-0.7,0.8-1.2,1.4-1.5c0.6-0.4,1.3-0.5,2.1-0.5c1.1,0,2.1,0.3,2.8,1
		c0.7,0.7,1.1,1.6,1.2,2.8l0,0.6c0,1.3-0.4,2.3-1.1,3.1c-0.7,0.8-1.7,1.2-2.9,1.2s-2.2-0.4-2.9-1.2s-1.1-1.8-1.1-3.2V247.7z
		 M87,247.9c0,0.8,0.2,1.4,0.5,1.8c0.3,0.4,0.7,0.6,1.3,0.6c0.5,0,1-0.2,1.3-0.6c0.3-0.4,0.5-1.1,0.5-2c0-0.8-0.2-1.4-0.5-1.8
		c-0.3-0.4-0.7-0.6-1.3-0.6c-0.6,0-1,0.2-1.3,0.6C87.2,246.3,87,247,87,247.9z M89.2,240h2.5l-2.2,2.4h-1.8L89.2,240z"/>
	<path class="st1" d="M96.2,243.5l0.1,1c0.6-0.8,1.4-1.1,2.4-1.1c0.9,0,1.6,0.3,2,0.8s0.7,1.3,0.7,2.4v5.5h-2.3v-5.4
		c0-0.5-0.1-0.8-0.3-1c-0.2-0.2-0.6-0.3-1-0.3c-0.6,0-1.1,0.3-1.4,0.8v6h-2.3v-8.5H96.2z"/>
</g>
<g class="st0">
	<path class="st1" d="M23.4,151c0-0.4-0.2-0.8-0.5-1s-0.9-0.5-1.7-0.8s-1.5-0.5-1.9-0.8c-1.3-0.7-1.9-1.6-1.9-2.8
		c0-0.6,0.2-1.2,0.5-1.6c0.3-0.5,0.8-0.9,1.5-1.1s1.4-0.4,2.2-0.4c0.8,0,1.5,0.1,2.2,0.4c0.6,0.3,1.1,0.7,1.5,1.2s0.5,1.1,0.5,1.8
		h-2.3c0-0.5-0.2-0.9-0.5-1.2s-0.8-0.4-1.4-0.4c-0.6,0-1,0.1-1.3,0.4c-0.3,0.2-0.5,0.6-0.5,1c0,0.4,0.2,0.7,0.6,0.9
		c0.4,0.2,0.9,0.5,1.6,0.7c1.3,0.4,2.3,0.9,2.9,1.5s0.9,1.3,0.9,2.2c0,1-0.4,1.8-1.1,2.3c-0.7,0.6-1.7,0.8-3,0.8
		c-0.9,0-1.7-0.2-2.4-0.5s-1.3-0.8-1.6-1.3c-0.4-0.6-0.6-1.2-0.6-1.9h2.4c0,1.3,0.8,1.9,2.2,1.9c0.6,0,1-0.1,1.3-0.3
		S23.4,151.4,23.4,151z"/>
	<path class="st1" d="M27.2,143.4c0-0.3,0.1-0.6,0.3-0.8s0.5-0.3,0.9-0.3c0.4,0,0.7,0.1,0.9,0.3c0.2,0.2,0.3,0.5,0.3,0.8
		c0,0.3-0.1,0.6-0.3,0.8c-0.2,0.2-0.5,0.3-0.9,0.3c-0.4,0-0.7-0.1-0.9-0.3C27.3,144,27.2,143.7,27.2,143.4z M29.6,154h-2.3v-8.5h2.3
		V154z"/>
	<path class="st1" d="M36,151.7c0-0.3-0.1-0.5-0.4-0.7s-0.7-0.3-1.3-0.4c-2-0.4-3-1.3-3-2.6c0-0.8,0.3-1.4,0.9-1.9
		c0.6-0.5,1.4-0.8,2.4-0.8c1.1,0,1.9,0.3,2.6,0.8c0.6,0.5,1,1.2,1,2h-2.3c0-0.3-0.1-0.6-0.3-0.8c-0.2-0.2-0.5-0.3-1-0.3
		c-0.4,0-0.7,0.1-0.9,0.3c-0.2,0.2-0.3,0.4-0.3,0.7c0,0.2,0.1,0.5,0.4,0.6c0.2,0.2,0.6,0.3,1.2,0.4s1,0.2,1.4,0.4
		c1.2,0.4,1.8,1.2,1.8,2.3c0,0.8-0.3,1.4-1,1.9c-0.7,0.5-1.5,0.7-2.6,0.7c-0.7,0-1.3-0.1-1.9-0.4c-0.5-0.3-1-0.6-1.3-1
		s-0.5-0.9-0.5-1.4h2.1c0,0.4,0.2,0.7,0.4,0.9c0.3,0.2,0.6,0.3,1.1,0.3c0.4,0,0.8-0.1,1-0.2C35.9,152.1,36,151.9,36,151.7z"/>
	<path class="st1" d="M42.3,143.5v2.1h1.4v1.7h-1.4v4.2c0,0.3,0.1,0.5,0.2,0.7c0.1,0.1,0.3,0.2,0.7,0.2c0.2,0,0.5,0,0.7-0.1v1.7
		c-0.4,0.1-0.9,0.2-1.4,0.2c-1.6,0-2.4-0.8-2.4-2.4v-4.6h-1.2v-1.7h1.2v-2.1H42.3z"/>
	<path class="st1" d="M48.9,154.2c-1.2,0-2.2-0.4-3-1.1c-0.8-0.8-1.2-1.8-1.2-3v-0.2c0-0.8,0.2-1.6,0.5-2.3s0.8-1.2,1.4-1.5
		s1.3-0.5,2.1-0.5c1.2,0,2.1,0.4,2.7,1.1s1,1.8,1,3.1v0.9H47c0.1,0.6,0.3,1,0.7,1.3s0.8,0.5,1.4,0.5c0.9,0,1.5-0.3,2-0.9l1.1,1.2
		c-0.3,0.5-0.8,0.9-1.4,1.1S49.6,154.2,48.9,154.2z M48.7,147.2c-0.4,0-0.8,0.2-1.1,0.5c-0.3,0.3-0.5,0.7-0.5,1.3h3.1v-0.2
		c0-0.5-0.1-0.9-0.4-1.2C49.5,147.3,49.2,147.2,48.7,147.2z"/>
	<path class="st1" d="M55.8,145.5l0.1,0.9c0.6-0.7,1.4-1.1,2.4-1.1c1.1,0,1.8,0.4,2.2,1.3c0.6-0.9,1.4-1.3,2.5-1.3
		c0.9,0,1.6,0.3,2,0.8c0.4,0.5,0.7,1.3,0.7,2.4v5.4h-2.3v-5.4c0-0.5-0.1-0.8-0.3-1.1s-0.5-0.3-1-0.3c-0.7,0-1.1,0.3-1.4,1l0,5.8
		h-2.3v-5.4c0-0.5-0.1-0.8-0.3-1.1c-0.2-0.2-0.5-0.3-1-0.3c-0.6,0-1.1,0.3-1.4,0.8v6h-2.3v-8.5H55.8z"/>
	<path class="st1" d="M72.4,154c-0.1-0.2-0.2-0.5-0.2-0.8c-0.5,0.6-1.3,0.9-2.1,0.9c-0.8,0-1.5-0.2-2.1-0.7
		c-0.5-0.5-0.8-1.1-0.8-1.8c0-0.9,0.3-1.6,1-2.1s1.6-0.7,2.9-0.7h1v-0.5c0-0.4-0.1-0.7-0.3-0.9c-0.2-0.2-0.5-0.4-0.9-0.4
		c-0.4,0-0.7,0.1-0.9,0.3c-0.2,0.2-0.3,0.4-0.3,0.8h-2.3c0-0.5,0.2-0.9,0.5-1.4c0.3-0.4,0.7-0.7,1.3-1c0.6-0.2,1.2-0.4,1.9-0.4
		c1,0,1.9,0.3,2.5,0.8c0.6,0.5,0.9,1.3,0.9,2.2v3.7c0,0.8,0.1,1.4,0.3,1.8v0.1H72.4z M70.6,152.4c0.3,0,0.6-0.1,0.9-0.2
		s0.5-0.3,0.6-0.6v-1.5h-0.8c-1.1,0-1.7,0.4-1.8,1.2l0,0.1c0,0.3,0.1,0.5,0.3,0.7C70,152.3,70.2,152.4,70.6,152.4z"/>
</g>
<g id="Grupo_103460" transform="translate(805.885 11618.438)">
	
		<image style="overflow:visible;enable-background:new    ;" width="5213" height="2915" id="Rectángulo_44971" xlink:href="9AC89CC4.png"  transform="matrix(5.452007e-02 0 0 5.452007e-02 -676.0135 -11559.7988)">
	</image>
	<g id="Grupo_103210" transform="translate(147.363 1311.984)">
		<path id="Trazado_215319" class="st2" d="M-773.3-12787.2c-9.3-0.6-18-6.3-23.3-14.1c-7.9-11.7-11.1-30.7-1.6-42.4
			c9.2-11.4,26-12.4,39-7.9c9.1,3.2,17.1,10,20.8,19c8.6,20.9-12.5,46-34.1,45.4C-772.7-12787.1-773-12787.2-773.3-12787.2z"/>
	</g>
	<g id="Grupo_103329" transform="translate(136.778 1329.588)">
		<g id="Grupo_103211" transform="translate(0)">
			<rect id="Rectángulo_44972" x="-804" y="-12854" class="st3" width="48.3" height="122.9"/>
		</g>
		<g id="Grupo_103212" transform="translate(3.59 4.754)">
			<rect id="Rectángulo_44973" x="-804" y="-12854" class="st4" width="40.7" height="4.2"/>
		</g>
		<g id="Grupo_103213" transform="translate(42.346 5.193)">
			<rect id="Rectángulo_44974" x="-804" y="-12854" class="st5" width="1.1" height="3.1"/>
		</g>
		<g id="Grupo_103214" transform="translate(40.971 5.193)">
			<rect id="Rectángulo_44975" x="-804" y="-12854" class="st5" width="1.1" height="3.1"/>
		</g>
		<g id="Grupo_103215" transform="translate(39.578 5.193)">
			<rect id="Rectángulo_44976" x="-804" y="-12854" class="st5" width="1.1" height="3.1"/>
		</g>
		<g id="Grupo_103216" transform="translate(38.185 5.193)">
			<rect id="Rectángulo_44977" x="-804" y="-12854" class="st5" width="1.1" height="3.1"/>
		</g>
		<g id="Grupo_103217" transform="translate(36.762 5.193)">
			<rect id="Rectángulo_44978" x="-804" y="-12854" class="st5" width="1.1" height="3.1"/>
		</g>
		<g id="Grupo_103218" transform="translate(35.369 5.193)">
			<rect id="Rectángulo_44979" x="-804" y="-12854" class="st5" width="1.1" height="3.1"/>
		</g>
		<g id="Grupo_103219" transform="translate(33.977 5.193)">
			<rect id="Rectángulo_44980" x="-804" y="-12854" class="st5" width="1.1" height="3.1"/>
		</g>
		<g id="Grupo_103220" transform="translate(19.247 5.632)">
			<path id="Rectángulo_44981" class="st6" d="M-803.7-12854h8.2c0.1,0,0.3,0.1,0.3,0.3v0.6c0,0.1-0.1,0.3-0.3,0.3h-8.2
				c-0.1,0-0.3-0.1-0.3-0.3v-0.6C-804-12853.9-803.9-12854-803.7-12854z"/>
		</g>
		<g id="Grupo_103221" transform="translate(10.966 5.888)">
			<ellipse id="Elipse_6535" class="st7" cx="-803.1" cy="-12853" rx="0.9" ry="1"/>
		</g>
		<g id="Grupo_103222" transform="translate(8.469 5.888)">
			<ellipse id="Elipse_6536" class="st7" cx="-803.1" cy="-12853" rx="0.9" ry="1"/>
		</g>
		<g id="Grupo_103223" transform="translate(5.972 5.888)">
			<ellipse id="Elipse_6537" class="st7" cx="-803.1" cy="-12853" rx="0.9" ry="1"/>
		</g>
		<g id="Grupo_103224" transform="translate(3.59 10.13)">
			<rect id="Rectángulo_44982" x="-804" y="-12854" class="st4" width="40.7" height="4.2"/>
		</g>
		<g id="Grupo_103225" transform="translate(42.346 10.569)">
			<rect id="Rectángulo_44983" x="-804" y="-12854" class="st5" width="1.1" height="3.1"/>
		</g>
		<g id="Grupo_103226" transform="translate(40.971 10.569)">
			<rect id="Rectángulo_44984" x="-804" y="-12854" class="st5" width="1.1" height="3.1"/>
		</g>
		<g id="Grupo_103227" transform="translate(39.578 10.569)">
			<rect id="Rectángulo_44985" x="-804" y="-12854" class="st5" width="1.1" height="3.1"/>
		</g>
		<g id="Grupo_103228" transform="translate(38.185 10.569)">
			<rect id="Rectángulo_44986" x="-804" y="-12854" class="st5" width="1.1" height="3.1"/>
		</g>
		<g id="Grupo_103229" transform="translate(36.762 10.569)">
			<rect id="Rectángulo_44987" x="-804" y="-12854" class="st5" width="1.1" height="3.1"/>
		</g>
		<g id="Grupo_103230" transform="translate(19.247 11.008)">
			<path id="Rectángulo_44988" class="st6" d="M-803.7-12854h8.2c0.1,0,0.3,0.1,0.3,0.3v0.6c0,0.1-0.1,0.3-0.3,0.3h-8.2
				c-0.1,0-0.3-0.1-0.3-0.3v-0.6C-804-12853.9-803.9-12854-803.7-12854z"/>
		</g>
		<g id="Grupo_103231" transform="translate(10.966 11.264)">
			<path id="Trazado_215320" class="st7" d="M-802.3-12853c-0.1-0.5-0.5-0.8-1-0.7s-0.8,0.5-0.7,1c0.1,0.4,0.4,0.7,0.9,0.7
				C-802.6-12852-802.2-12852.5-802.3-12853z"/>
		</g>
		<g id="Grupo_103232" transform="translate(8.469 11.264)">
			<path id="Trazado_215321" class="st7" d="M-802.3-12853c-0.1-0.5-0.5-0.8-1-0.7s-0.8,0.5-0.7,1c0.1,0.4,0.4,0.7,0.9,0.7
				C-802.6-12852-802.2-12852.5-802.3-12853z"/>
		</g>
		<g id="Grupo_103233" transform="translate(5.972 11.264)">
			<path id="Trazado_215322" class="st7" d="M-802.3-12853c-0.1-0.5-0.5-0.8-1-0.7s-0.8,0.5-0.7,1c0.1,0.4,0.4,0.7,0.9,0.7
				C-802.6-12852-802.2-12852.5-802.3-12853z"/>
		</g>
		<g id="Grupo_103234" transform="translate(3.59 15.341)">
			<rect id="Rectángulo_44989" x="-804" y="-12854" class="st4" width="40.7" height="4.2"/>
		</g>
		<g id="Grupo_103235" transform="translate(42.346 15.78)">
			<rect id="Rectángulo_44990" x="-804" y="-12854" class="st5" width="1.1" height="3.1"/>
		</g>
		<g id="Grupo_103236" transform="translate(40.971 15.78)">
			<rect id="Rectángulo_44991" x="-804" y="-12854" class="st5" width="1.1" height="3.1"/>
		</g>
		<g id="Grupo_103237" transform="translate(39.578 15.78)">
			<rect id="Rectángulo_44992" x="-804" y="-12854" class="st5" width="1.1" height="3.1"/>
		</g>
		<g id="Grupo_103238" transform="translate(19.247 16.219)">
			<path id="Rectángulo_44993" class="st6" d="M-803.7-12854h8.2c0.1,0,0.3,0.1,0.3,0.3v0.6c0,0.1-0.1,0.3-0.3,0.3h-8.2
				c-0.1,0-0.3-0.1-0.3-0.3v-0.6C-804-12853.9-803.9-12854-803.7-12854z"/>
		</g>
		<g id="Grupo_103239" transform="translate(10.966 16.475)">
			<path id="Trazado_215323" class="st7" d="M-802.3-12853c-0.1-0.5-0.5-0.8-1-0.7s-0.8,0.5-0.7,1c0.1,0.4,0.4,0.7,0.9,0.7
				C-802.6-12852-802.2-12852.5-802.3-12853z"/>
		</g>
		<g id="Grupo_103240" transform="translate(8.469 16.475)">
			<path id="Trazado_215324" class="st7" d="M-802.3-12853c-0.1-0.5-0.5-0.8-1-0.7s-0.8,0.5-0.7,1c0.1,0.4,0.4,0.7,0.9,0.7
				C-802.6-12852-802.2-12852.5-802.3-12853z"/>
		</g>
		<g id="Grupo_103241" transform="translate(5.972 16.475)">
			<path id="Trazado_215325" class="st7" d="M-802.3-12853c-0.1-0.5-0.5-0.8-1-0.7s-0.8,0.5-0.7,1c0.1,0.4,0.4,0.7,0.9,0.7
				C-802.6-12852-802.2-12852.5-802.3-12853z"/>
		</g>
		<g id="Grupo_103242" transform="translate(3.59 39.277)">
			<rect id="Rectángulo_44994" x="-804" y="-12854" class="st4" width="40.7" height="4.2"/>
		</g>
		<g id="Grupo_103243" transform="translate(42.346 39.716)">
			<rect id="Rectángulo_44995" x="-804" y="-12854" class="st5" width="1.1" height="3.1"/>
		</g>
		<g id="Grupo_103244" transform="translate(40.971 39.716)">
			<rect id="Rectángulo_44996" x="-804" y="-12854" class="st5" width="1.1" height="3.1"/>
		</g>
		<g id="Grupo_103245" transform="translate(39.578 39.716)">
			<rect id="Rectángulo_44997" x="-804" y="-12854" class="st5" width="1.1" height="3.1"/>
		</g>
		<g id="Grupo_103246" transform="translate(38.185 39.716)">
			<rect id="Rectángulo_44998" x="-804" y="-12854" class="st5" width="1.1" height="3.1"/>
		</g>
		<g id="Grupo_103247" transform="translate(36.762 39.716)">
			<rect id="Rectángulo_44999" x="-804" y="-12854" class="st5" width="1.1" height="3.1"/>
		</g>
		<g id="Grupo_103248" transform="translate(35.369 39.716)">
			<rect id="Rectángulo_45000" x="-804" y="-12854" class="st5" width="1.1" height="3.1"/>
		</g>
		<g id="Grupo_103249" transform="translate(33.977 39.716)">
			<rect id="Rectángulo_45001" x="-804" y="-12854" class="st5" width="1.1" height="3.1"/>
		</g>
		<g id="Grupo_103250" transform="translate(19.247 40.154)">
			<path id="Rectángulo_45002" class="st6" d="M-803.7-12854h8.2c0.1,0,0.3,0.1,0.3,0.3v0.6c0,0.1-0.1,0.3-0.3,0.3h-8.2
				c-0.1,0-0.3-0.1-0.3-0.3v-0.6C-804-12853.9-803.9-12854-803.7-12854z"/>
		</g>
		<g id="Grupo_103251" transform="translate(10.966 40.41)">
			<path id="Trazado_215326" class="st8" d="M-802.3-12853c-0.1-0.5-0.5-0.8-1-0.7s-0.8,0.5-0.7,1c0.1,0.4,0.4,0.7,0.9,0.7
				C-802.6-12852-802.2-12852.5-802.3-12853z"/>
		</g>
		<g id="Grupo_103252" transform="translate(8.469 40.41)">
			<path id="Trazado_215327" class="st8" d="M-802.3-12853c-0.1-0.5-0.5-0.8-1-0.7s-0.8,0.5-0.7,1c0.1,0.4,0.4,0.7,0.9,0.7
				C-802.6-12852-802.2-12852.5-802.3-12853z"/>
		</g>
		<g id="Grupo_103253" transform="translate(5.972 40.41)">
			<path id="Trazado_215328" class="st8" d="M-802.3-12853c-0.1-0.5-0.5-0.8-1-0.7s-0.8,0.5-0.7,1c0.1,0.4,0.4,0.7,0.9,0.7
				C-802.6-12852-802.2-12852.5-802.3-12853z"/>
		</g>
		<g id="Grupo_103254" transform="translate(3.59 44.653)">
			<rect id="Rectángulo_45003" x="-804" y="-12854" class="st4" width="40.7" height="4.2"/>
		</g>
		<g id="Grupo_103255" transform="translate(42.346 45.091)">
			<rect id="Rectángulo_45004" x="-804" y="-12854" class="st5" width="1.1" height="3.1"/>
		</g>
		<g id="Grupo_103256" transform="translate(40.971 45.091)">
			<rect id="Rectángulo_45005" x="-804" y="-12854" class="st5" width="1.1" height="3.1"/>
		</g>
		<g id="Grupo_103257" transform="translate(39.578 45.091)">
			<rect id="Rectángulo_45006" x="-804" y="-12854" class="st5" width="1.1" height="3.1"/>
		</g>
		<g id="Grupo_103258" transform="translate(38.185 45.091)">
			<rect id="Rectángulo_45007" x="-804" y="-12854" class="st5" width="1.1" height="3.1"/>
		</g>
		<g id="Grupo_103259" transform="translate(36.762 45.091)">
			<rect id="Rectángulo_45008" x="-804" y="-12854" class="st5" width="1.1" height="3.1"/>
		</g>
		<g id="Grupo_103260" transform="translate(19.247 45.53)">
			<path id="Rectángulo_45009" class="st6" d="M-803.7-12854h8.2c0.1,0,0.3,0.1,0.3,0.3v0.6c0,0.1-0.1,0.3-0.3,0.3h-8.2
				c-0.1,0-0.3-0.1-0.3-0.3v-0.6C-804-12853.9-803.9-12854-803.7-12854z"/>
		</g>
		<g id="Grupo_103261" transform="translate(10.966 45.786)">
			<path id="Trazado_215329" class="st8" d="M-802.3-12853c-0.1-0.5-0.5-0.8-1-0.7s-0.8,0.5-0.7,1c0.1,0.4,0.4,0.7,0.9,0.7
				C-802.6-12852-802.2-12852.5-802.3-12853z"/>
		</g>
		<g id="Grupo_103262" transform="translate(8.469 45.786)">
			<path id="Trazado_215330" class="st8" d="M-802.3-12853c-0.1-0.5-0.5-0.8-1-0.7s-0.8,0.5-0.7,1c0.1,0.4,0.4,0.7,0.9,0.7
				C-802.6-12852-802.2-12852.5-802.3-12853z"/>
		</g>
		<g id="Grupo_103263" transform="translate(5.972 45.786)">
			<path id="Trazado_215331" class="st8" d="M-802.3-12853c-0.1-0.5-0.5-0.8-1-0.7s-0.8,0.5-0.7,1c0.1,0.4,0.4,0.7,0.9,0.7
				C-802.6-12852-802.2-12852.5-802.3-12853z"/>
		</g>
		<g id="Grupo_103264" transform="translate(3.59 49.864)">
			<rect id="Rectángulo_45010" x="-804" y="-12854" class="st4" width="40.7" height="4.2"/>
		</g>
		<g id="Grupo_103265" transform="translate(42.346 50.303)">
			<rect id="Rectángulo_45011" x="-804" y="-12854" class="st5" width="1.1" height="3.1"/>
		</g>
		<g id="Grupo_103266" transform="translate(40.971 50.303)">
			<rect id="Rectángulo_45012" x="-804" y="-12854" class="st5" width="1.1" height="3.1"/>
		</g>
		<g id="Grupo_103267" transform="translate(39.578 50.303)">
			<rect id="Rectángulo_45013" x="-804" y="-12854" class="st5" width="1.1" height="3.1"/>
		</g>
		<g id="Grupo_103268" transform="translate(19.247 50.742)">
			<path id="Rectángulo_45014" class="st6" d="M-803.7-12854h8.2c0.1,0,0.3,0.1,0.3,0.3v0.6c0,0.1-0.1,0.3-0.3,0.3h-8.2
				c-0.1,0-0.3-0.1-0.3-0.3v-0.6C-804-12853.9-803.9-12854-803.7-12854z"/>
		</g>
		<g id="Grupo_103269" transform="translate(10.966 50.998)">
			<path id="Trazado_215332" class="st8" d="M-802.3-12853c-0.1-0.5-0.5-0.8-1-0.7s-0.8,0.5-0.7,1c0.1,0.4,0.4,0.7,0.9,0.7
				C-802.6-12852-802.2-12852.5-802.3-12853z"/>
		</g>
		<g id="Grupo_103270" transform="translate(8.469 50.998)">
			<path id="Trazado_215333" class="st8" d="M-802.3-12853c-0.1-0.5-0.5-0.8-1-0.7s-0.8,0.5-0.7,1c0.1,0.4,0.4,0.7,0.9,0.7
				C-802.6-12852-802.2-12852.5-802.3-12853z"/>
		</g>
		<g id="Grupo_103271" transform="translate(5.972 50.998)">
			<path id="Trazado_215334" class="st8" d="M-802.3-12853c-0.1-0.5-0.5-0.8-1-0.7s-0.8,0.5-0.7,1c0.1,0.4,0.4,0.7,0.9,0.7
				C-802.6-12852-802.2-12852.5-802.3-12853z"/>
		</g>
		<g id="Grupo_103272" transform="translate(3.59 68.826)">
			<rect id="Rectángulo_45015" x="-804" y="-12854" class="st4" width="40.7" height="4.2"/>
		</g>
		<g id="Grupo_103273" transform="translate(42.346 69.265)">
			<rect id="Rectángulo_45016" x="-804" y="-12854" class="st5" width="1.1" height="3.1"/>
		</g>
		<g id="Grupo_103274" transform="translate(40.971 69.265)">
			<rect id="Rectángulo_45017" x="-804" y="-12854" class="st5" width="1.1" height="3.1"/>
		</g>
		<g id="Grupo_103275" transform="translate(39.578 69.265)">
			<rect id="Rectángulo_45018" x="-804" y="-12854" class="st5" width="1.1" height="3.1"/>
		</g>
		<g id="Grupo_103276" transform="translate(38.185 69.265)">
			<rect id="Rectángulo_45019" x="-804" y="-12854" class="st5" width="1.1" height="3.1"/>
		</g>
		<g id="Grupo_103277" transform="translate(36.762 69.265)">
			<rect id="Rectángulo_45020" x="-804" y="-12854" class="st5" width="1.1" height="3.1"/>
		</g>
		<g id="Grupo_103278" transform="translate(35.369 69.265)">
			<rect id="Rectángulo_45021" x="-804" y="-12854" class="st5" width="1.1" height="3.1"/>
		</g>
		<g id="Grupo_103279" transform="translate(33.977 69.265)">
			<rect id="Rectángulo_45022" x="-804" y="-12854" class="st5" width="1.1" height="3.1"/>
		</g>
		<g id="Grupo_103280" transform="translate(19.247 69.703)">
			<path id="Rectángulo_45023" class="st6" d="M-803.7-12854h8.2c0.1,0,0.3,0.1,0.3,0.3v0.6c0,0.1-0.1,0.3-0.3,0.3h-8.2
				c-0.1,0-0.3-0.1-0.3-0.3v-0.6C-804-12853.9-803.9-12854-803.7-12854z"/>
		</g>
		<g id="Grupo_103281" transform="translate(10.966 69.959)">
			<ellipse id="Elipse_6538" class="st9" cx="-803.1" cy="-12853" rx="0.9" ry="1"/>
		</g>
		<g id="Grupo_103282" transform="translate(8.469 69.959)">
			<ellipse id="Elipse_6539" class="st9" cx="-803.1" cy="-12853" rx="0.9" ry="1"/>
		</g>
		<g id="Grupo_103283" transform="translate(5.972 69.959)">
			<ellipse id="Elipse_6540" class="st9" cx="-803.1" cy="-12853" rx="0.9" ry="1"/>
		</g>
		<g id="Grupo_103284" transform="translate(3.59 74.202)">
			<rect id="Rectángulo_45024" x="-804" y="-12854" class="st4" width="40.7" height="4.2"/>
		</g>
		<g id="Grupo_103285" transform="translate(42.346 74.64)">
			<rect id="Rectángulo_45025" x="-804" y="-12854" class="st5" width="1.1" height="3.1"/>
		</g>
		<g id="Grupo_103286" transform="translate(40.971 74.64)">
			<rect id="Rectángulo_45026" x="-804" y="-12854" class="st5" width="1.1" height="3.1"/>
		</g>
		<g id="Grupo_103287" transform="translate(39.578 74.64)">
			<rect id="Rectángulo_45027" x="-804" y="-12854" class="st5" width="1.1" height="3.1"/>
		</g>
		<g id="Grupo_103288" transform="translate(38.185 74.64)">
			<rect id="Rectángulo_45028" x="-804" y="-12854" class="st5" width="1.1" height="3.1"/>
		</g>
		<g id="Grupo_103289" transform="translate(36.762 74.64)">
			<rect id="Rectángulo_45029" x="-804" y="-12854" class="st5" width="1.1" height="3.1"/>
		</g>
		<g id="Grupo_103290" transform="translate(19.247 75.079)">
			<path id="Rectángulo_45030" class="st6" d="M-803.7-12854h8.2c0.1,0,0.3,0.1,0.3,0.3v0.6c0,0.1-0.1,0.3-0.3,0.3h-8.2
				c-0.1,0-0.3-0.1-0.3-0.3v-0.6C-804-12853.9-803.9-12854-803.7-12854z"/>
		</g>
		<g id="Grupo_103291" transform="translate(10.966 75.335)">
			<ellipse id="Elipse_6541" class="st9" cx="-803.1" cy="-12853" rx="0.9" ry="1"/>
		</g>
		<g id="Grupo_103292" transform="translate(8.469 75.335)">
			<ellipse id="Elipse_6542" class="st9" cx="-803.1" cy="-12853" rx="0.9" ry="1"/>
		</g>
		<g id="Grupo_103293" transform="translate(5.972 75.335)">
			<ellipse id="Elipse_6543" class="st9" cx="-803.1" cy="-12853" rx="0.9" ry="1"/>
		</g>
		<g id="Grupo_103294" transform="translate(3.59 79.413)">
			<rect id="Rectángulo_45031" x="-804" y="-12854" class="st4" width="40.7" height="4.2"/>
		</g>
		<g id="Grupo_103295" transform="translate(42.346 79.852)">
			<rect id="Rectángulo_45032" x="-804" y="-12854" class="st5" width="1.1" height="3.1"/>
		</g>
		<g id="Grupo_103296" transform="translate(40.971 79.852)">
			<rect id="Rectángulo_45033" x="-804" y="-12854" class="st5" width="1.1" height="3.1"/>
		</g>
		<g id="Grupo_103297" transform="translate(39.578 79.852)">
			<rect id="Rectángulo_45034" x="-804" y="-12854" class="st5" width="1.1" height="3.1"/>
		</g>
		<g id="Grupo_103298" transform="translate(19.247 80.291)">
			<path id="Rectángulo_45035" class="st6" d="M-803.7-12854h8.2c0.1,0,0.3,0.1,0.3,0.3v0.6c0,0.1-0.1,0.3-0.3,0.3h-8.2
				c-0.1,0-0.3-0.1-0.3-0.3v-0.6C-804-12853.9-803.9-12854-803.7-12854z"/>
		</g>
		<g id="Grupo_103299" transform="translate(10.966 80.546)">
			<ellipse id="Elipse_6544" class="st9" cx="-803.1" cy="-12853" rx="0.9" ry="1"/>
		</g>
		<g id="Grupo_103300" transform="translate(8.469 80.546)">
			<ellipse id="Elipse_6545" class="st9" cx="-803.1" cy="-12853" rx="0.9" ry="1"/>
		</g>
		<g id="Grupo_103301" transform="translate(5.972 80.546)">
			<ellipse id="Elipse_6546" class="st9" cx="-803.1" cy="-12853" rx="0.9" ry="1"/>
		</g>
		<g id="Grupo_103303" transform="translate(3.59 23.771)">
			<g id="Grupo_103302">
				<rect id="Rectángulo_45036" x="-804" y="-12854" class="st4" width="40.7" height="9.1"/>
			</g>
		</g>
		<g id="Grupo_103305" transform="translate(3.59 56.831)">
			<g id="Grupo_103304">
				<rect id="Rectángulo_45037" x="-804" y="-12854" class="st4" width="40.7" height="9.1"/>
			</g>
		</g>
		<g id="Grupo_103307" transform="translate(3.59 87.403)">
			<g id="Grupo_103306">
				<rect id="Rectángulo_45038" x="-804" y="-12854" class="st4" width="40.7" height="9.1"/>
			</g>
		</g>
		<g id="Grupo_103314" transform="translate(36.793 107.225)">
			<g id="Grupo_103308">
				<path id="Rectángulo_45039" class="st10" d="M-803.8-12854h7.5c0.1,0,0.2,0.1,0.2,0.2v0.5c0,0.1-0.1,0.2-0.2,0.2h-7.5
					c-0.1,0-0.2-0.1-0.2-0.2v-0.5C-804-12853.9-803.9-12854-803.8-12854z"/>
			</g>
			<g id="Grupo_103309" transform="translate(0 2.03)">
				<path id="Rectángulo_45040" class="st10" d="M-803.8-12854h7.5c0.1,0,0.2,0.1,0.2,0.2v0.5c0,0.1-0.1,0.2-0.2,0.2h-7.5
					c-0.1,0-0.2-0.1-0.2-0.2v-0.5C-804-12853.9-803.9-12854-803.8-12854z"/>
			</g>
			<g id="Grupo_103310" transform="translate(0 5.102)">
				<path id="Rectángulo_45041" class="st10" d="M-803.8-12854h7.5c0.1,0,0.2,0.1,0.2,0.2v0.5c0,0.1-0.1,0.2-0.2,0.2h-7.5
					c-0.1,0-0.2-0.1-0.2-0.2v-0.5C-804-12853.9-803.9-12854-803.8-12854z"/>
			</g>
			<g id="Grupo_103311" transform="translate(0 7.131)">
				<path id="Rectángulo_45042" class="st10" d="M-803.8-12854h7.5c0.1,0,0.2,0.1,0.2,0.2v0.5c0,0.1-0.1,0.2-0.2,0.2h-7.5
					c-0.1,0-0.2-0.1-0.2-0.2v-0.5C-804-12853.9-803.9-12854-803.8-12854z"/>
			</g>
			<g id="Grupo_103312" transform="translate(0 10.368)">
				<path id="Rectángulo_45043" class="st10" d="M-803.8-12854h7.5c0.1,0,0.2,0.1,0.2,0.2v0.5c0,0.1-0.1,0.2-0.2,0.2h-7.5
					c-0.1,0-0.2-0.1-0.2-0.2v-0.5C-804-12853.9-803.9-12854-803.8-12854z"/>
			</g>
			<g id="Grupo_103313" transform="translate(0 12.397)">
				<path id="Rectángulo_45044" class="st10" d="M-803.8-12854h7.5c0.1,0,0.2,0.1,0.2,0.2v0.5c0,0.1-0.1,0.2-0.2,0.2h-7.5
					c-0.1,0-0.2-0.1-0.2-0.2v-0.5C-804-12853.9-803.9-12854-803.8-12854z"/>
			</g>
		</g>
		<g id="Grupo_103321" transform="translate(20.222 107.225)">
			<g id="Grupo_103315">
				<path id="Rectángulo_45045" class="st10" d="M-803.8-12854h7.5c0.1,0,0.2,0.1,0.2,0.2v0.5c0,0.1-0.1,0.2-0.2,0.2h-7.5
					c-0.1,0-0.2-0.1-0.2-0.2v-0.5C-804-12853.9-803.9-12854-803.8-12854z"/>
			</g>
			<g id="Grupo_103316" transform="translate(0 2.03)">
				<path id="Rectángulo_45046" class="st10" d="M-803.8-12854h7.5c0.1,0,0.2,0.1,0.2,0.2v0.5c0,0.1-0.1,0.2-0.2,0.2h-7.5
					c-0.1,0-0.2-0.1-0.2-0.2v-0.5C-804-12853.9-803.9-12854-803.8-12854z"/>
			</g>
			<g id="Grupo_103317" transform="translate(0 5.102)">
				<path id="Rectángulo_45047" class="st10" d="M-803.8-12854h7.5c0.1,0,0.2,0.1,0.2,0.2v0.5c0,0.1-0.1,0.2-0.2,0.2h-7.5
					c-0.1,0-0.2-0.1-0.2-0.2v-0.5C-804-12853.9-803.9-12854-803.8-12854z"/>
			</g>
			<g id="Grupo_103318" transform="translate(0 7.131)">
				<path id="Rectángulo_45048" class="st10" d="M-803.8-12854h7.5c0.1,0,0.2,0.1,0.2,0.2v0.5c0,0.1-0.1,0.2-0.2,0.2h-7.5
					c-0.1,0-0.2-0.1-0.2-0.2v-0.5C-804-12853.9-803.9-12854-803.8-12854z"/>
			</g>
			<g id="Grupo_103319" transform="translate(0 10.368)">
				<path id="Rectángulo_45049" class="st10" d="M-803.8-12854h7.5c0.1,0,0.2,0.1,0.2,0.2v0.5c0,0.1-0.1,0.2-0.2,0.2h-7.5
					c-0.1,0-0.2-0.1-0.2-0.2v-0.5C-804-12853.9-803.9-12854-803.8-12854z"/>
			</g>
			<g id="Grupo_103320" transform="translate(0 12.397)">
				<path id="Rectángulo_45050" class="st10" d="M-803.8-12854h7.5c0.1,0,0.2,0.1,0.2,0.2v0.5c0,0.1-0.1,0.2-0.2,0.2h-7.5
					c-0.1,0-0.2-0.1-0.2-0.2v-0.5C-804-12853.9-803.9-12854-803.8-12854z"/>
			</g>
		</g>
		<g id="Grupo_103328" transform="translate(3.744 107.225)">
			<g id="Grupo_103322">
				<path id="Rectángulo_45051" class="st10" d="M-803.8-12854h7.5c0.1,0,0.2,0.1,0.2,0.2v0.5c0,0.1-0.1,0.2-0.2,0.2h-7.5
					c-0.1,0-0.2-0.1-0.2-0.2v-0.5C-804-12853.9-803.9-12854-803.8-12854z"/>
			</g>
			<g id="Grupo_103323" transform="translate(0 2.03)">
				<path id="Rectángulo_45052" class="st10" d="M-803.8-12854h7.5c0.1,0,0.2,0.1,0.2,0.2v0.5c0,0.1-0.1,0.2-0.2,0.2h-7.5
					c-0.1,0-0.2-0.1-0.2-0.2v-0.5C-804-12853.9-803.9-12854-803.8-12854z"/>
			</g>
			<g id="Grupo_103324" transform="translate(0 5.102)">
				<path id="Rectángulo_45053" class="st10" d="M-803.8-12854h7.5c0.1,0,0.2,0.1,0.2,0.2v0.5c0,0.1-0.1,0.2-0.2,0.2h-7.5
					c-0.1,0-0.2-0.1-0.2-0.2v-0.5C-804-12853.9-803.9-12854-803.8-12854z"/>
			</g>
			<g id="Grupo_103325" transform="translate(0 7.131)">
				<path id="Rectángulo_45054" class="st10" d="M-803.8-12854h7.5c0.1,0,0.2,0.1,0.2,0.2v0.5c0,0.1-0.1,0.2-0.2,0.2h-7.5
					c-0.1,0-0.2-0.1-0.2-0.2v-0.5C-804-12853.9-803.9-12854-803.8-12854z"/>
			</g>
			<g id="Grupo_103326" transform="translate(0 10.368)">
				<path id="Rectángulo_45055" class="st10" d="M-803.8-12854h7.5c0.1,0,0.2,0.1,0.2,0.2v0.5c0,0.1-0.1,0.2-0.2,0.2h-7.5
					c-0.1,0-0.2-0.1-0.2-0.2v-0.5C-804-12853.9-803.9-12854-803.8-12854z"/>
			</g>
			<g id="Grupo_103327" transform="translate(0 12.397)">
				<path id="Rectángulo_45056" class="st10" d="M-803.8-12854h7.5c0.1,0,0.2,0.1,0.2,0.2v0.5c0,0.1-0.1,0.2-0.2,0.2h-7.5
					c-0.1,0-0.2-0.1-0.2-0.2v-0.5C-804-12853.9-803.9-12854-803.8-12854z"/>
			</g>
		</g>
	</g>
	<g id="Grupo_103331" transform="translate(146.659 1301.852)">
		<g id="Grupo_103330">
			<path id="Trazado_215335" class="st3" d="M-796-12834.1C-796-12834.1-796-12834.1-796-12834.1l-2.2-0.5c-0.1,0-0.2-0.1-0.2-0.3
				l0-2.5c-0.6-0.4-1.2-0.8-1.7-1.4l-2,0.7c-0.1,0-0.3,0-0.3-0.1l-1.1-2c-0.1-0.1,0-0.2,0-0.3l1.7-1.6c-0.2-0.8-0.3-1.6-0.3-2.4
				l-1.8-0.9c-0.1-0.1-0.2-0.2-0.1-0.3l0.5-2.2c0-0.1,0.1-0.2,0.3-0.2l2.2,0c0.4-0.7,0.9-1.3,1.4-1.8l0,0l-0.6-2
				c0-0.1,0-0.3,0.1-0.3l1.9-1.1c0.1-0.1,0.3,0,0.4,0.1l1.3,1.6c0.7-0.2,1.5-0.3,2.2-0.2l1.1-2c0.1-0.1,0.2-0.2,0.3-0.1l2.1,0.7
				c0.1,0,0.2,0.2,0.2,0.3l-0.2,2.2c0.6,0.4,1.2,0.9,1.7,1.5l2.1-0.7c0.1,0,0.3,0,0.3,0.1l1.1,2c0.1,0.1,0,0.3-0.1,0.3l-1.7,1.6
				c0.2,0.7,0.2,1.4,0.2,2.1l1.9,1.1c0.1,0.1,0.2,0.2,0.1,0.3l-0.6,2.2c0,0.1-0.2,0.2-0.3,0.2l-2.1-0.2c-0.4,0.7-0.8,1.3-1.4,1.8
				l0.7,2.1c0,0.1,0,0.3-0.1,0.3l-1.9,1.2c-0.1,0.1-0.3,0-0.4,0l-1.5-1.7c-0.7,0.2-1.5,0.3-2.2,0.2l-0.9,2
				C-795.7-12834.2-795.8-12834.1-796-12834.1z M-797.8-12835.1l1.7,0.4l0.9-2c0-0.1,0.2-0.2,0.3-0.2c0.8,0.1,1.6,0,2.4-0.2
				c0.1,0,0.2,0,0.3,0.1l1.5,1.6l1.5-0.9l-0.7-2c0-0.1,0-0.2,0.1-0.3c0.6-0.6,1.1-1.2,1.5-1.9c0-0.1,0.2-0.2,0.3-0.1l2.1,0.2
				l0.5-1.8l-1.9-1.1c-0.1-0.1-0.1-0.2-0.1-0.3c0-0.8,0-1.5-0.2-2.3c0-0.1,0-0.2,0.1-0.3l1.7-1.5l-0.9-1.6l-2.1,0.7
				c-0.1,0-0.2,0-0.3-0.1l-0.1-0.1c-0.5-0.6-1.1-1.1-1.8-1.5c-0.1-0.1-0.1-0.2-0.1-0.3l0.2-2.2l-1.7-0.5l-1.1,1.9
				c-0.1,0.1-0.2,0.2-0.3,0.1c-0.8-0.1-1.6,0-2.4,0.2c-0.1,0-0.2,0-0.3-0.1l-1.3-1.6l-1.6,0.9l0.6,2c0,0.1,0,0.2-0.1,0.3l-0.1,0.1
				c-0.6,0.5-1,1.1-1.4,1.8c0,0.1-0.1,0.1-0.2,0.1l0,0l-2.1,0l-0.4,1.8l1.8,0.9c0.1,0,0.2,0.2,0.2,0.3c-0.1,0.8,0,1.7,0.3,2.5
				c0,0.1,0,0.2-0.1,0.3l-1.6,1.6l0.9,1.6l2-0.7c0.1,0,0.2,0,0.3,0.1l-0.2,0.2l0.2-0.2c0.5,0.6,1.1,1.1,1.7,1.4
				c0.1,0.1,0.1,0.1,0.1,0.2L-797.8-12835.1z M-794.4-12838.6c-1.5,0-3-0.7-4-1.8c-2-2.3-1.8-5.7,0.3-7.8c0.9-0.9,2.2-1.4,3.5-1.4
				c1.5,0,3,0.7,4,1.8c2,2.3,1.8,5.7-0.3,7.8C-791.8-12839.1-793.1-12838.6-794.4-12838.6z M-794.6-12849c-1.2,0-2.3,0.4-3.1,1.2
				c-1.9,1.9-2.1,5-0.3,7c0.9,1,2.2,1.6,3.6,1.7c1.2,0,2.3-0.4,3.1-1.2c1.9-1.9,2.1-5,0.3-7C-791.9-12848.4-793.2-12849-794.6-12849
				z"/>
		</g>
	</g>
	<g id="Grupo_103332" transform="translate(301.427 1293.232)">
		<path id="Trazado_215336" class="st2" d="M-760.6-12759.6c-13.2-0.8-25.4-8.9-32.9-19.9c-11.2-16.5-15.7-43.3-2.3-59.9
			c13-16,36.7-17.5,55.1-11.1c12.9,4.5,24.2,14.2,29.4,26.8c12.1,29.5-17.7,64.9-48.2,64
			C-759.8-12759.6-760.2-12759.6-760.6-12759.6z"/>
	</g>
	<g id="Grupo_103335" transform="translate(393.561 1336.246)">
		<g id="Grupo_103333" transform="translate(0 0)">
			<path id="Trazado_215337" class="st3" d="M-798.1-12847.9h-5.7c-0.1,0-0.2-0.1-0.2-0.2v-5.7c0-0.1,0.1-0.2,0.2-0.2h5.7
				c0.1,0,0.2,0.1,0.2,0.2v5.7C-797.9-12848-798-12847.9-798.1-12847.9z M-803.6-12848.3h5.3v-5.3h-5.3V-12848.3z"/>
		</g>
		<g id="Grupo_103334" transform="translate(0.883 0.883)">
			<path id="Trazado_215338" class="st3" d="M-802.2-12850c-0.1,0-0.1,0-0.1-0.1l-1.6-1.7c-0.1-0.1-0.1-0.2,0-0.3
				c0.1-0.1,0.2-0.1,0.3,0l1.4,1.5l2.6-3.4c0.1-0.1,0.2-0.1,0.3,0c0.1,0.1,0.1,0.2,0,0.3l-2.7,3.6
				C-802.1-12850-802.2-12850-802.2-12850L-802.2-12850z"/>
		</g>
	</g>
	<g id="Grupo_103338" transform="translate(222.622 1434.034)">
		<g id="Grupo_103336" transform="translate(0 0)">
			<path id="Trazado_215339" class="st3" d="M-798.1-12847.9h-5.7c-0.1,0-0.2-0.1-0.2-0.2v-5.7c0-0.1,0.1-0.2,0.2-0.2h5.7
				c0.1,0,0.2,0.1,0.2,0.2v5.7C-797.9-12848-798-12847.9-798.1-12847.9z M-803.6-12848.3h5.3v-5.3h-5.3V-12848.3z"/>
		</g>
		<g id="Grupo_103337" transform="translate(0.883 0.883)">
			<path id="Trazado_215340" class="st3" d="M-802.2-12850c-0.1,0-0.1,0-0.1-0.1l-1.6-1.7c-0.1-0.1-0.1-0.2,0-0.3
				c0.1-0.1,0.2-0.1,0.3,0c0,0,0,0,0,0l1.4,1.5l2.6-3.4c0.1-0.1,0.2-0.1,0.3,0c0.1,0.1,0.1,0.2,0,0.3l-2.7,3.6
				C-802.1-12850-802.2-12850-802.2-12850L-802.2-12850z"/>
		</g>
	</g>
	<g id="Grupo_103341" transform="translate(187.527 1291.787)">
		<g id="Grupo_103339" transform="translate(0 0)">
			<path id="Trazado_215341" class="st3" d="M-798.1-12847.9h-5.7c-0.1,0-0.2-0.1-0.2-0.2v-5.7c0-0.1,0.1-0.2,0.2-0.2h5.7
				c0.1,0,0.2,0.1,0.2,0.2v5.7C-797.9-12848-798-12847.9-798.1-12847.9z M-803.6-12848.3h5.3v-5.3h-5.3V-12848.3z"/>
		</g>
		<g id="Grupo_103340" transform="translate(0.883 0.883)">
			<path id="Trazado_215342" class="st3" d="M-802.2-12850c-0.1,0-0.1,0-0.1-0.1l-1.6-1.7c-0.1-0.1-0.1-0.2,0-0.3
				c0.1-0.1,0.2-0.1,0.3,0c0,0,0,0,0,0l1.4,1.5l2.6-3.4c0.1-0.1,0.2-0.1,0.3-0.1s0.1,0.2,0.1,0.3c0,0,0,0,0,0l-2.7,3.6
				C-802.1-12850-802.2-12850-802.2-12850L-802.2-12850z"/>
		</g>
	</g>
	<g id="Grupo_103344" transform="translate(161.589 1368.032)">
		<g id="Grupo_103342" transform="translate(0 0)">
			<path id="Trazado_215343" class="st3" d="M-799.5-12849.4h-4.3c-0.1,0-0.2-0.1-0.2-0.2l0,0v-4.3c0-0.1,0.1-0.2,0.2-0.2l0,0h4.3
				c0.1,0,0.2,0.1,0.2,0.2l0,0v4.3C-799.4-12849.4-799.4-12849.4-799.5-12849.4L-799.5-12849.4z M-803.7-12849.7h4v-4h-4V-12849.7z"
				/>
		</g>
		<g id="Grupo_103343" transform="translate(0.668 0.668)">
			<path id="Trazado_215344" class="st3" d="M-802.7-12851c0,0-0.1,0-0.1,0l-1.2-1.3c-0.1-0.1-0.1-0.2,0-0.2c0.1-0.1,0.2-0.1,0.2,0
				l1.1,1.1l1.9-2.6c0.1-0.1,0.1-0.1,0.2,0c0.1,0.1,0.1,0.1,0,0.2l-2,2.7C-802.6-12851-802.6-12851-802.7-12851L-802.7-12851z"/>
		</g>
	</g>
	<g id="Grupo_103345" transform="translate(221.463 1283.794)">
		<path id="Trazado_215345" class="st3" d="M-797.8-12846.5C-797.8-12846.5-797.8-12846.5-797.8-12846.5l-2.3-1.2l-2.2,1.2
			c-0.1,0-0.2,0-0.2,0c-0.1,0-0.1-0.1-0.1-0.2l0.4-2.4l-1.8-1.7c-0.1-0.1-0.1-0.2,0-0.3c0,0,0.1-0.1,0.1-0.1l2.5-0.4l1.1-2.2
			c0.1-0.1,0.2-0.1,0.3-0.1c0,0,0.1,0,0.1,0.1l1.1,2.2l2.5,0.4c0.1,0,0.2,0.1,0.2,0.2c0,0,0,0.1-0.1,0.1l-1.8,1.7l0.4,2.4
			c0,0.1,0,0.2-0.1,0.2C-797.7-12846.5-797.7-12846.5-797.8-12846.5z M-800.1-12848.2C-800-12848.2-800-12848.1-800.1-12848.2l2,1
			l-0.4-2.1c0-0.1,0-0.1,0.1-0.2l1.5-1.5l-2.1-0.3c-0.1,0-0.1-0.1-0.2-0.1l-1-1.9l-1,1.9c0,0.1-0.1,0.1-0.2,0.1l-2.1,0.3l1.5,1.5
			c0.1,0,0.1,0.1,0.1,0.2l-0.4,2.1l1.9-1C-800.1-12848.1-800.1-12848.2-800.1-12848.2L-800.1-12848.2z"/>
	</g>
	<g id="Grupo_103346" transform="translate(304.928 1429.99)">
		<path id="Trazado_215346" class="st3" d="M-797.8-12846.5C-797.8-12846.5-797.8-12846.5-797.8-12846.5l-2.3-1.2l-2.2,1.2
			c-0.1,0-0.2,0-0.2,0c-0.1,0-0.1-0.1-0.1-0.2l0.4-2.4l-1.8-1.7c-0.1-0.1-0.1-0.2,0-0.3c0,0,0.1-0.1,0.1-0.1l2.5-0.4l1.1-2.2
			c0.1-0.1,0.2-0.1,0.3-0.1c0,0,0.1,0,0.1,0.1l1.1,2.2l2.5,0.4c0.1,0,0.2,0.1,0.2,0.2c0,0,0,0.1-0.1,0.1l-1.8,1.7l0.4,2.4
			c0,0.1,0,0.2-0.1,0.2C-797.7-12846.5-797.7-12846.5-797.8-12846.5z M-800.1-12848.2C-800-12848.2-800-12848.1-800.1-12848.2l2,1
			l-0.4-2.1c0-0.1,0-0.1,0.1-0.2l1.5-1.5l-2.1-0.3c-0.1,0-0.1-0.1-0.2-0.1l-1-1.9l-1,1.9c0,0.1-0.1,0.1-0.2,0.1l-2.1,0.3l1.5,1.5
			c0.1,0,0.1,0.1,0.1,0.2l-0.4,2.1l1.9-1C-800.1-12848.1-800.1-12848.2-800.1-12848.2L-800.1-12848.2z"/>
	</g>
	<g id="Grupo_103355" transform="translate(174.12 1305.045)">
		<g id="Grupo_103347" transform="translate(67.926 117.159)">
			<rect id="Rectángulo_45057" x="-804" y="-12854" class="st3" width="40.5" height="26.7"/>
		</g>
		<g id="Grupo_103348" transform="translate(0 0)">
			<path id="Rectángulo_45058" class="st11" d="M-802.9-12854h174.1c0.6,0,1.1,0.5,1.1,1.1v117.9c0,0.6-0.5,1.1-1.1,1.1h-174.1
				c-0.6,0-1.1-0.5-1.1-1.1v-117.9C-804-12853.5-803.5-12854-802.9-12854z"/>
		</g>
		<g id="Grupo_103349" transform="translate(2.308 4.317)">
			<rect id="Rectángulo_45059" x="-804" y="-12854" class="st6" width="171.5" height="107.6"/>
		</g>
		<g id="Grupo_103350" transform="translate(2.308 4.231)">
			<rect id="Rectángulo_45060" x="-804" y="-12854" class="st3" width="171.5" height="7"/>
		</g>
		<g id="Grupo_103351" transform="translate(5.587 5.876)">
			<ellipse id="Elipse_6547" class="st12" cx="-802.2" cy="-12852.3" rx="1.8" ry="1.7"/>
		</g>
		<g id="Grupo_103352" transform="translate(11.706 5.876)">
			<ellipse id="Elipse_6548" class="st8" cx="-802.2" cy="-12852.3" rx="1.8" ry="1.7"/>
		</g>
		<g id="Grupo_103353" transform="translate(18.131 5.876)">
			<ellipse id="Elipse_6549" class="st13" cx="-802.2" cy="-12852.3" rx="1.8" ry="1.7"/>
		</g>
		<g id="Grupo_103354" transform="translate(53.767 139.654)">
			<path id="Rectángulo_45061" class="st11" d="M-801-12854h62.8c1.7,0,3,1.4,3,3c0,0,0,0,0,0v4.7l0,0H-804l0,0v-4.7
				C-804-12852.6-802.6-12854-801-12854C-801-12854-801-12854-801-12854z"/>
		</g>
	</g>
	<g id="Grupo_103382" transform="translate(182.538 1322.966)">
		<g id="Grupo_103361" transform="translate(0 0)">
			<rect id="Rectángulo_45062" x="-804" y="-12854" class="st2" width="157.2" height="86.5"/>
		</g>
		<g id="Grupo_103371" transform="translate(8.032 72.651)">
			<circle id="Elipse_6553" class="st14" cx="-799" cy="-12849" r="5"/>
		</g>
		<g id="Grupo_103373" transform="translate(20.626 79.495)">
			<path id="Trazado_215354" class="st14" d="M-768.1-12852.4h-35c-0.5,0-0.8-0.4-0.8-0.8c0-0.5,0.4-0.8,0.8-0.8h35
				c0.5,0,0.8,0.4,0.8,0.8C-767.3-12852.7-767.7-12852.4-768.1-12852.4z"/>
		</g>
		<g id="Grupo_103374" transform="translate(61.608 79.587)">
			<path id="Trazado_215355" class="st14" d="M-777.1-12852.4h-26.1c-0.5,0-0.8-0.4-0.8-0.8c0-0.5,0.4-0.8,0.8-0.8h26.1
				c0.5,0,0.8,0.4,0.8,0.8C-776.3-12852.7-776.6-12852.4-777.1-12852.4z"/>
		</g>
		<g id="Grupo_103375" transform="translate(53.757 74.019)">
			<path id="Trazado_215356" class="st14" d="M-791.1-12852.4h-12c-0.5,0-0.8-0.4-0.8-0.8c0-0.5,0.4-0.8,0.8-0.8h12
				c0.5,0,0.8,0.4,0.8,0.8C-790.3-12852.7-790.7-12852.4-791.1-12852.4L-791.1-12852.4z"/>
		</g>
		<g id="Grupo_103380" transform="translate(119.199 54.945)">
			<rect id="Rectángulo_45068" x="-804" y="-12854" class="st14" width="31.8" height="19"/>
		</g>
		<g id="Grupo_103381" transform="translate(132.568 59.049)">
			<path id="Trazado_215359" class="st6" d="M-804-12842.1v-11.9l8.8,6.2L-804-12842.1z"/>
		</g>
	</g>
	<g id="Grupo_103389" transform="translate(117.015 1452.568)">
		<path id="Trazado_215365" class="st15" d="M-498.4-12849.6h-303.4c-1.2,0-2.2-1-2.2-2.2s1-2.2,2.2-2.2h303.4c1.2,0,2.2,1,2.2,2.2
			S-497.2-12849.6-498.4-12849.6z"/>
	</g>
	<g id="Grupo_103393" transform="translate(358.281 1296.467)">
		<g id="Grupo_103390" transform="translate(0 3.542)">
			<path id="Trazado_215366" class="st3" d="M-794.6-12844.1C-794.7-12844.1-794.7-12844.1-794.6-12844.1l-9.2-3.6
				c-0.1,0-0.2-0.1-0.2-0.3v-2.3c0-0.1,0.1-0.2,0.2-0.3l9.1-3.6c0.1,0,0.2,0,0.3,0c0.1,0.1,0.1,0.1,0.1,0.2v2.4
				c0,0.1-0.1,0.2-0.2,0.3l-5.1,2l5.1,2c0.1,0,0.2,0.1,0.2,0.3v2.4c0,0.1,0,0.2-0.1,0.2C-794.5-12844.1-794.6-12844.1-794.6-12844.1
				z M-803.5-12848.1l8.6,3.3v-1.9l-5.5-2.2c-0.1,0-0.2-0.1-0.2-0.3c0-0.1,0.1-0.2,0.2-0.3l5.5-2.2v-1.9l-8.6,3.3V-12848.1z"/>
		</g>
		<g id="Grupo_103391" transform="translate(10.488 0)">
			<path id="Trazado_215367" class="st3" d="M-801.7-12838.8C-801.7-12838.8-801.7-12838.8-801.7-12838.8l-2.1-0.6
				c-0.1,0-0.1-0.1-0.2-0.1c0-0.1,0-0.1,0-0.2l5.4-14c0.1-0.1,0.2-0.2,0.3-0.2l2,0.6c0.1,0,0.1,0.1,0.2,0.1c0,0.1,0,0.1,0,0.2
				l-5.4,14C-801.5-12838.9-801.6-12838.8-801.7-12838.8z M-803.4-12839.9l1.5,0.5l5.2-13.5l-1.5-0.5L-803.4-12839.9z"/>
		</g>
		<g id="Grupo_103392" transform="translate(19.304 3.542)">
			<path id="Trazado_215368" class="st3" d="M-803.7-12844.1c-0.2,0-0.3-0.1-0.3-0.3v-2.4c0-0.1,0.1-0.2,0.2-0.3l5.1-2l-5.1-2
				c-0.1,0-0.2-0.1-0.2-0.3v-2.4c0-0.2,0.1-0.3,0.3-0.3c0,0,0.1,0,0.1,0l9.1,3.6c0.1,0,0.2,0.1,0.2,0.3v2.3c0,0.1-0.1,0.2-0.2,0.3
				L-803.7-12844.1C-803.7-12844.1-803.7-12844.1-803.7-12844.1z M-803.5-12846.6v1.9l8.6-3.3v-1.9l-8.6-3.3v1.9l5.5,2.2
				c0.1,0,0.2,0.1,0.2,0.3c0,0.1-0.1,0.2-0.2,0.3L-803.5-12846.6z"/>
		</g>
	</g>
	<g id="Grupo_103459" transform="translate(289.399 1320.735)">
		<g id="Grupo_103401" transform="translate(89.011 51.945)">
			<path id="Trazado_215373" class="st16" d="M-796.7-12848.3l7.2-5.7c1.3,1.6,9.9,13.5,15.9,44.3c-6,2-12.6,1.4-18.4,1.2
				c-5.1-24.8-11.8-34.1-11.9-34.2L-796.7-12848.3z"/>
		</g>
		<g id="Grupo_103402" transform="translate(103.285 66.723)">
			<path id="Trazado_215374" class="st17" d="M-803.1-12841.1c-4.6,1.3,9-12.9,9-12.9l-1.1,3.2c0.9,1.5,1.3,4.2,2.2,5.5
				C-794.9-12843.3-799.3-12842.1-803.1-12841.1z"/>
		</g>
		<g id="Grupo_103403" transform="translate(1.035 30.322)">
			<path id="Trazado_215375" class="st16" d="M-786.5-12796.2c14.2,0,26.6-17.1,30.3-22.9l-16.7-11c-3.2,4.8-7.8,8.2-11,10.7
				c-1.3-7.2-1.2-20.5,0.4-34.6l-16.3,0c-11.7,52,4.2,55.9,8.8,57.2C-789.5-12796.4-788-12796.2-786.5-12796.2z"/>
		</g>
		<g id="Grupo_103404" transform="translate(26.219 59.957)">
			<path id="Trazado_215376" class="st17" d="M-803.4-12850.8c-0.2-0.4-0.4-0.8-0.6-1.3c0.6-0.6,1.1-1.2,1.7-1.9
				c4.7,0.3,17.2,7.6,17.2,7.6s0,1.4,0,3c-1.7,2.2-3.5,4.2-5.4,6.2C-795.8-12840.6-800.3-12845.3-803.4-12850.8z"/>
		</g>
		<g id="Grupo_103405" transform="translate(28.613 101.04)">
			<path id="Trazado_215377" class="st15" d="M-741.6-12853.8c0,0,10.2,7.7,18.5,31.1h-81c0,0,8-23.9,17.7-31.3L-741.6-12853.8z"/>
		</g>
		<g id="Grupo_103406" transform="translate(47.884)">
			<path id="Trazado_215378" class="st18" d="M-775-12851.3c4.9-0.5,7,1.8,8.4,6.6s-1,8.1,1.9,12.5s8.3,5.4,9.4,8.8
				c1,3.3-0.4,4.8,0.4,7.1s7.5,5.8,7.5,7.3c-0.1,1.2-0.6,2.3-1.2,3.3l-49.4-7.5l-4.6-2.9c0,0-3.3-4.2,0.4-6.5s6.9-1.7,7.5-8.5
				s0-14.6,3.1-18.8s11.9-5,14.2-3.3C-776.5-12852.7-775.7-12852-775-12851.3z"/>
		</g>
		<g id="Grupo_103407" transform="translate(24.41 35.833)">
			<path id="Trazado_215379" class="st19" d="M-749.1-12854c10.3,1.4,17.2,4.9,20.7,7.9s13.8,20.4,16.3,21.9c0,0-6.5,12.5-13.5,14.8
				l-7.1,2.3l-2.7-5.8c0,0-1.2,18.9-3.5,21.4c0,0-29.7,7.8-42.2,1c0,0-1.1-0.1-2.5-3.1s-1.4-16.6-1.4-16.6c-2-2.4-3.2-5.3-3.5-8.3
				c0,0-11.7-1.3-15.4-11.7c0,0,4.9-5.1,9.3-8.9s9.9-11.8,14-13.5c4.2-1.7,15.7-1.2,15.7-1.2L-749.1-12854z"/>
		</g>
		<g id="Grupo_103408" transform="translate(56.539 15.21)">
			<path id="Trazado_215380" class="st20" d="M-797.7-12852c0,0-2.5-2.6-4.6-1.8c-2.1,0.7-2.4,5.3-0.2,6.2s5-0.8,5-0.8L-797.7-12852
				z"/>
		</g>
		<g id="Grupo_103409" transform="translate(57.593 16.643)">
			<path id="Trazado_215381" class="st17" d="M-802.9-12850.1C-802.9-12850.1-802.9-12850.1-802.9-12850.1c-1.1-0.6-1.4-2-0.8-3
				c0.2-0.3,0.4-0.5,0.6-0.7c0.5-0.3,1.2-0.2,2.4,0.2c0,0,0.1,0.1,0.1,0.1c0,0-0.1,0.1-0.1,0.1c-1.1-0.4-1.8-0.4-2.2-0.2
				c-0.4,0.3-0.7,0.7-0.8,1.2c-0.3,0.8,0.1,1.8,0.9,2.1C-802.8-12850.3-802.7-12850.2-802.9-12850.1
				C-802.8-12850.2-802.8-12850.1-802.9-12850.1L-802.9-12850.1z"/>
		</g>
		<g id="Grupo_103410" transform="translate(59.902 26.504)">
			<path id="Trazado_215382" class="st16" d="M-788.1-12854c0,0-0.8,6.4,0.2,7.6c0.9,0.9,2,1.5,3.3,1.7c0,0-5.3,9.4-14.4,8.5
				c-8.2-0.8-3.8-8.5-3.8-8.5s3.2-0.4,4-1.1c0.8-0.7,0.8-6.7,0.8-6.7L-788.1-12854z"/>
		</g>
		<g id="Grupo_103411" transform="translate(65.711 26.846)">
			<path id="Trazado_215383" class="st17" d="M-794.7-12854l-3.9,0.4l-5.2,0.8c0,1.4,0,2.7-0.2,4.1
				C-800.2-12848.8-796.6-12850.8-794.7-12854z"/>
		</g>
		<g id="Grupo_103412" transform="translate(59.907 2.273)">
			<path id="Trazado_215384" class="st16" d="M-803-12847.1c-0.7,1.7,0,4.3-0.6,7.8s-0.9,10.7,4.2,12.1c3.1,0.9,6.5,0.6,9.5-0.7
				c2.3-1.2,4-3.2,4.7-5.7l2.3-8c1.5-5.1-1.4-10.4-6.5-11.9c-0.1,0-0.2-0.1-0.3-0.1c-0.1,0-0.2-0.1-0.4-0.1
				C-800.5-12855.8-803-12847.1-803-12847.1z"/>
		</g>
		<g id="Grupo_103413" transform="translate(70.555 16.704)">
			<path id="Trazado_215385" class="st17" d="M-803.1-12852.9c0-0.6-0.1-1.1-0.3-1.1c-0.2,0-0.5,0.4-0.5,1s0.1,1.1,0.3,1.1
				C-803.4-12851.9-803.2-12852.3-803.1-12852.9z"/>
		</g>
		<g id="Grupo_103414" transform="translate(62.795 15.86)">
			<path id="Trazado_215386" class="st17" d="M-803.1-12852.9c0-0.6-0.1-1.1-0.3-1.1c-0.2,0-0.5,0.4-0.5,1s0.1,1.1,0.3,1.1
				C-803.4-12851.9-803.2-12852.3-803.1-12852.9z"/>
		</g>
		<g id="Grupo_103415" transform="translate(64.986 17.493)">
			<path id="Trazado_215387" class="st17" d="M-803-12849.6C-803-12849.6-802.9-12849.6-803-12849.6c0.1-0.1,0.1-0.2,0.1-0.2
				c0,0,0,0,0,0c-0.4-0.5-0.7-1.1-0.8-1.7c-0.1-0.5,0.2-0.7,0.6-1c0.5-0.3,0.8-0.8,0.9-1.3c0-0.1,0-0.1-0.1-0.1s-0.1,0-0.1,0.1
				c-0.1,0.5-0.4,0.9-0.9,1.2c-0.4,0.3-0.8,0.7-0.7,1.3c0.1,0.7,0.4,1.3,0.9,1.9C-803.1-12849.6-803-12849.6-803-12849.6z"/>
		</g>
		<g id="Grupo_103416" transform="translate(69.647 14.823)">
			<path id="Trazado_215388" class="st17" d="M-801.2-12852.6c-0.1,0-0.2,0-0.2-0.1c-0.6-0.5-1.4-0.7-2.2-0.5
				c-0.2,0-0.4-0.1-0.4-0.3c0-0.2,0.1-0.4,0.3-0.4c0,0,0,0,0,0c1-0.2,2,0.1,2.8,0.7c0.1,0.1,0.1,0.4,0,0.5
				C-801-12852.6-801.1-12852.6-801.2-12852.6L-801.2-12852.6z"/>
		</g>
		<g id="Grupo_103417" transform="translate(61.695 14.155)">
			<path id="Trazado_215389" class="st17" d="M-801-12853.1c-0.1,0-0.2,0-0.3,0c-0.7-0.3-1.5-0.2-2.2,0.2c-0.2,0.1-0.4,0-0.5-0.2
				c-0.1-0.2,0-0.4,0.2-0.5c0.9-0.5,1.9-0.6,2.9-0.2c0.2,0.1,0.3,0.3,0.2,0.5C-800.8-12853.2-800.9-12853.1-801-12853.1
				L-801-12853.1z"/>
		</g>
		<g id="Grupo_103418" transform="translate(59.881 1.992)">
			<path id="Trazado_215390" class="st18" d="M-786-12837c-2.4-3.2-4.2-6.9-5.3-10.7c-1.8,0.8-3.8,1.4-5.7,1.8
				c-2.9,0.5-4.4-0.1-6,2.2c-1.6,2.3-0.8-1.3-0.8-1.3s1.7-12.2,15.3-8.2s4.1,17.7,4.1,17.7L-786-12837z"/>
		</g>
		<g id="Grupo_103419" transform="translate(68.807 19.422)">
			<path id="Trazado_215391" class="st21" d="M-800.2-12853.7c0.5,0.3,0.9,0.8,0.5,1.3c-0.1,0.1-0.3,0.2-0.5,0.3c-1,0.2-2,0.1-3-0.2
				c-0.3-0.1-0.9-0.3-0.7-0.8c0.1-0.2,0.3-0.4,0.5-0.5c0.8-0.4,1.7-0.6,2.6-0.4C-800.7-12853.9-800.4-12853.8-800.2-12853.7z"/>
		</g>
		<g id="Grupo_103420" transform="translate(60.255 18.827)">
			<path id="Trazado_215392" class="st21" d="M-800.7-12853.7c0.4,0.3,0.8,0.7,0.4,1.1c-0.1,0.1-0.3,0.2-0.5,0.2
				c-0.9,0.2-1.8,0.1-2.6-0.1c-0.3-0.1-0.8-0.3-0.6-0.7c0.1-0.2,0.3-0.3,0.4-0.4c0.7-0.4,1.5-0.5,2.3-0.4
				C-801-12853.9-800.8-12853.8-800.7-12853.7z"/>
		</g>
		<g id="Grupo_103421" transform="translate(72.49 3.301)">
			<path id="Trazado_215393" class="st17" d="M-803.9-12849.1C-803.9-12849.1-803.9-12849.2-803.9-12849.1c2.1-1.4,3.6-4.6,3.7-4.7
				c0,0,0-0.1,0-0.1c0,0-0.1,0-0.1,0c0,0-1.6,3.3-3.6,4.6C-804-12849.3-804-12849.2-803.9-12849.1
				C-804-12849.2-803.9-12849.1-803.9-12849.1L-803.9-12849.1z"/>
		</g>
		<g id="Grupo_103422" transform="translate(64.046 22.567)">
			<path id="Trazado_215394" class="st6" d="M-801.7-12853.3c-0.5,0.1-1,0.1-1.5,0.2c-0.5,0.1-0.9,0.4-0.8,1c0.5,2.2,3.7,2,5.3,1.4
				c0.4-0.1,0.7-0.4,1-0.7c0.6-0.7,0.5-1.7-0.1-2.2c-0.7-0.3-1.4-0.3-2.1-0.1c-0.6,0.1-1.1,0.3-1.7,0.5L-801.7-12853.3z"/>
		</g>
		<g id="Grupo_103423" transform="translate(60.24 8.021)">
			<path id="Trazado_215395" class="st18" d="M-803.9-12848c0.1,0,0.1,0,0.1-0.1c0.2-1.6,2.7-2.7,4.9-2.9c2.5-0.2,5.7-1.2,6.8-2.8
				c0-0.1,0-0.1,0-0.2c-0.1,0-0.1,0-0.2,0c-1.1,1.5-4.1,2.5-6.6,2.7c-2.3,0.2-4.9,1.3-5.2,3.1C-804-12848.1-804-12848-803.9-12848
				L-803.9-12848L-803.9-12848z"/>
		</g>
		<g id="Grupo_103424" transform="translate(74.085 7.893)">
			<path id="Trazado_215396" class="st17" d="M-798-12844.1c0.1,0,0.1-0.1,0.1-0.1c0-0.1-0.1-0.1-0.1-0.1l0,0
				c-2.5-0.2-3.9-4.4-4.8-7.1c-0.2-0.9-0.6-1.7-1-2.5c0-0.1-0.1-0.1-0.2,0c-0.1,0-0.1,0.1,0,0.2l0,0c0.4,0.8,0.7,1.6,1,2.4
				C-802-12848.4-800.6-12844.3-798-12844.1L-798-12844.1z"/>
		</g>
		<g id="Grupo_103425" transform="translate(76.751 16.877)">
			<path id="Trazado_215397" class="st16" d="M-803.8-12852c0,0,2.5-2.6,4.6-1.8c2.1,0.7,2.4,5.3,0.2,6.2s-5-0.8-5-0.8L-803.8-12852
				z"/>
		</g>
		<g id="Grupo_103426" transform="translate(78.814 18.309)">
			<path id="Trazado_215398" class="st17" d="M-801.7-12850.1C-801.7-12850.1-801.7-12850.1-801.7-12850.1c1.1-0.6,1.4-2,0.8-3
				c-0.2-0.3-0.4-0.5-0.6-0.7c-0.5-0.3-1.2-0.2-2.4,0.2c0,0-0.1,0.1-0.1,0.1c0,0,0.1,0.1,0.1,0.1c1.1-0.4,1.8-0.4,2.2-0.2
				c0.4,0.3,0.7,0.7,0.8,1.2c0.3,0.8-0.1,1.8-0.9,2.1C-801.8-12850.3-801.9-12850.2-801.7-12850.1
				C-801.8-12850.2-801.8-12850.1-801.7-12850.1L-801.7-12850.1z"/>
		</g>
		<g id="Grupo_103427" transform="translate(83.362 6.645)">
			<path id="Trazado_215399" class="st18" d="M-782.9-12815.4c0,0-0.1,0-0.1,0c-0.1-0.1-0.2-0.2-0.1-0.4c0,0,0,0,0,0
				c1.1-1.9-1.9-4.3-4.1-6.1c-0.9-0.6-1.7-1.3-2.3-2.2c-0.3-0.9-0.3-1.9,0-2.9c0.4-1.6,0.3-3.2-0.2-4.8c-0.7-1.6-3.6-3.8-6.1-5.8
				c-2.2-1.7-4.1-3.2-4.7-4.2c-0.5-1.1-0.8-2.3-0.9-3.6c-0.2-2.9-1.1-5.8-2.5-8.4c-0.1-0.1,0-0.3,0.1-0.4s0.3,0,0.4,0.1
				c1.4,2.7,2.3,5.6,2.5,8.6c0.1,1.2,0.3,2.3,0.8,3.4c0.5,0.9,2.5,2.5,4.6,4c2.7,2.1,5.6,4.3,6.3,6c0.6,1.6,0.7,3.4,0.3,5.1
				c-0.2,0.8-0.2,1.7,0,2.6c0.6,0.8,1.3,1.4,2.1,2c2.4,1.9,5.6,4.5,4.2,6.8C-782.7-12815.4-782.8-12815.4-782.9-12815.4z"/>
		</g>
		<g id="Grupo_103442" transform="translate(0 1.928)">
			<g id="Grupo_103428" transform="translate(1.652 14.013)">
				<path id="Trazado_215400" class="st16" d="M-785.2-12835.4c0,0,4-5.3,1.9-11.1c-1.2-3.4-5.7-7.5-5.7-7.5s-14.8,2.3-15,5.5
					c-0.2,3.2,3.5,14.6,3.5,14.6L-785.2-12835.4z"/>
			</g>
			<g id="Grupo_103429" transform="translate(17.606 10.592)">
				<path id="Trazado_215401" class="st16" d="M-801.3-12836.2c0.8-0.2,1.5-0.9,1.6-1.7c1-5.3,2.6-11.6,3.3-12.8
					c0.6-1,0.4-2.3-0.7-3c-1-0.6-2.3-0.4-3,0.6c-1.6,2.4-3.4,11.6-3.9,14.3c-0.2,1.2,0.5,2.3,1.7,2.5
					C-801.9-12836.1-801.6-12836.1-801.3-12836.2L-801.3-12836.2z"/>
			</g>
			<g id="Grupo_103430" transform="translate(9.869)">
				<path id="Trazado_215402" class="st16" d="M-797.4-12832.8c1.2,0,2.2-1,2.1-2.2c0-0.2,0-0.4-0.1-0.6c0-0.1-2.6-8.4-3.4-12.5
					l-0.9-4.2c-0.3-1.2-1.4-1.9-2.6-1.6c-1.1,0.3-1.9,1.4-1.6,2.5l0.9,4.2c0.9,4.3,3.4,12.5,3.5,12.9
					C-799.3-12833.4-798.4-12832.7-797.4-12832.8z"/>
			</g>
			<g id="Grupo_103431" transform="translate(12.743 20.831)">
				<path id="Trazado_215403" class="st17" d="M-803.1-12843.7L-803.1-12843.7c0.1,0,0.2-0.1,0.1-0.2c-1.7-3.6-0.2-7.9,3.3-9.7
					c0.1,0,0.1-0.2,0.1-0.2c0-0.1-0.1-0.1-0.2-0.1c-3.7,1.9-5.2,6.4-3.5,10.2C-803.3-12843.7-803.2-12843.6-803.1-12843.7z"/>
			</g>
			<g id="Grupo_103432" transform="translate(4.194 16.149)">
				<path id="Trazado_215404" class="st17" d="M-803.8-12849.7C-803.8-12849.7-803.8-12849.7-803.8-12849.7c0.1,0,8.1-3.1,11.1-3.9
					c0.1,0,0.2-0.1,0.1-0.2c0-0.1-0.1-0.2-0.2-0.1c-3,0.8-11,3.9-11.1,3.9c-0.1,0-0.1,0.1-0.1,0.2
					C-804-12849.8-803.9-12849.7-803.8-12849.7L-803.8-12849.7z"/>
			</g>
			<g id="Grupo_103441" transform="translate(0 11.858)">
				<g id="Grupo_103433">
					<path id="Trazado_215405" class="st22" d="M-794.5-12853.9c-0.8,0.3-1.5,0.9-1.7,1.8c-0.7-0.5-1.5-0.6-2.3-0.4
						c-0.9,0.3-1.6,1-1.8,1.9c0,0.1,0,0.2,0,0.4c-0.6-0.5-1.4-0.7-2.1-0.4c-0.8,0.2-1.4,0.9-1.6,1.7c0,0.3,0,0.5,0,0.8l1.7,5.7
						c0.4,1,1.6,1.6,2.6,1.2c0,0,0,0,0,0c0.8-0.2,1.3-0.8,1.5-1.6c0.6,0.8,1.7,1.2,2.7,0.8c0.8-0.3,1.5-0.9,1.7-1.8
						c0.7,0.5,1.5,0.6,2.3,0.3c0.9-0.3,1.6-1.1,1.7-2c-0.5-2.9-1.3-5.7-2.3-8.4C-792.7-12854-793.6-12854.1-794.5-12853.9z"/>
				</g>
				<g id="Grupo_103434" transform="translate(12.095 0.805)">
					<path id="Trazado_215406" class="st17" d="M-801.7-12846.4c0,0,0.1,0,0.1,0c0,0,0,0,0-0.1l-2.3-7.4c0,0-0.1-0.1-0.1-0.1
						c0,0,0,0,0,0c0,0-0.1,0.1-0.1,0.1L-801.7-12846.4C-801.7-12846.5-801.7-12846.4-801.7-12846.4z"/>
				</g>
				<g id="Grupo_103435" transform="translate(9.125 5.587)">
					<path id="Trazado_215407" class="st17" d="M-802.8-12849.2C-802.8-12849.2-802.7-12849.2-802.8-12849.2c0.1,0,0.2,0,0.2-0.1
						l-1.2-4.6c0,0-0.1-0.1-0.1-0.1c0,0,0,0,0,0c0,0-0.1,0.1-0.1,0.1L-802.8-12849.2C-802.8-12849.3-802.8-12849.3-802.8-12849.2z"
						/>
				</g>
				<g id="Grupo_103436" transform="translate(4.008 4.102)">
					<path id="Trazado_215408" class="st17" d="M-802.7-12848.6C-802.7-12848.6-802.6-12848.6-802.7-12848.6c0.1,0,0.2,0,0.2-0.1
						l-1.3-5.3c0,0-0.1-0.1-0.1-0.1c0,0,0,0,0,0c0,0-0.1,0.1-0.1,0.1L-802.7-12848.6C-802.7-12848.6-802.7-12848.6-802.7-12848.6z"
						/>
				</g>
				<g id="Grupo_103437" transform="translate(5.756 10.42)">
					<path id="Trazado_215409" class="st17" d="M-803.8-12853.1C-803.8-12853.1-803.8-12853.1-803.8-12853.1c0.1,0,0.2,0,0.2-0.1
						l-0.1-0.7c0,0-0.1-0.1-0.1-0.1c0,0,0,0,0,0c0,0-0.1,0.1-0.1,0.1L-803.8-12853.1C-803.9-12853.1-803.9-12853.1-803.8-12853.1z"
						/>
				</g>
				<g id="Grupo_103438" transform="translate(10.626 6.982)">
					<path id="Trazado_215410" class="st17" d="M-804-12852.8C-804-12852.8-804-12852.8-804-12852.8l0.4,1.7c0,0,0,0,0.1,0.1
						c0.7,0.2,1.4,0.2,2.1-0.1c0,0,0.1-0.1,0.1-0.1c0,0-0.1-0.1-0.1-0.1c0,0,0,0,0,0c-0.6,0.3-1.3,0.3-1.9,0.2l-0.4-1.6
						c0.6-0.7,1.6-1.1,2.5-1l0.4,1.4c0,0,0.1,0.1,0.1,0.1c0,0,0,0,0,0c0,0,0.1-0.1,0.1-0.1l-0.4-1.5c0,0,0-0.1-0.1-0.1
						C-802.2-12854.1-803.3-12853.7-804-12852.8C-804-12852.8-804-12852.8-804-12852.8z"/>
				</g>
				<g id="Grupo_103439" transform="translate(6.306 8.233)">
					<path id="Trazado_215411" class="st17" d="M-804-12852.8C-804-12852.8-804-12852.8-804-12852.8l0.4,1.7c0,0,0,0,0.1,0.1
						c0.7,0.2,1.4,0.2,2.1-0.1c0,0,0.1-0.1,0.1-0.1c0,0-0.1-0.1-0.1-0.1c0,0,0,0,0,0c-0.6,0.3-1.3,0.3-1.9,0.2l-0.4-1.6
						c0.6-0.7,1.6-1.1,2.5-1l0.4,1.4c0,0,0.1,0.1,0.1,0.1c0,0,0,0,0,0c0,0,0.1-0.1,0.1-0.1l-0.4-1.5c0,0,0-0.1-0.1-0.1
						C-802.2-12854.1-803.3-12853.7-804-12852.8C-804-12852.8-804-12852.8-804-12852.8z"/>
				</g>
				<g id="Grupo_103440" transform="translate(1.977 9.18)">
					<path id="Trazado_215412" class="st17" d="M-804-12852.9C-804-12852.9-804-12852.9-804-12852.9l0.4,1.6c0,0,0,0,0,0.1
						c0.7,0.2,1.4,0.2,2-0.1c0,0,0.1-0.1,0-0.1c0,0-0.1-0.1-0.1,0c0,0,0,0,0,0c-0.6,0.3-1.2,0.3-1.8,0.1l-0.4-1.5
						c0.6-0.7,1.5-1,2.4-1l0.3,1.3c0,0,0.1,0.1,0.1,0.1c0,0,0,0,0,0c0,0,0.1-0.1,0.1-0.1l-0.4-1.4c0,0,0-0.1-0.1-0.1
						C-802.3-12854.1-803.3-12853.7-804-12852.9C-804-12852.9-804-12852.9-804-12852.9z"/>
				</g>
			</g>
		</g>
		<g id="Grupo_103443" transform="translate(31.439 101.063)">
			<path id="Trazado_215413" class="st6" d="M-796.9-12822.8v-7.4h12.9v7.4h1.7v-7.4h12.7v7.4h1.7v-7.4h13.3v7.4h1.7v-7.4h12.7v7.4
				h1.7v-7.4h9.8c-0.2-0.6-0.5-1.1-0.7-1.7h-9v-12.9h1.9c-0.4-0.6-0.8-1.1-1.2-1.7h-0.8v-1c-0.6-0.8-1.1-1.5-1.7-2.1v3.1h-12.7v-7.4
				l-1.7,0v7.4H-768v-7.5l-1.7,0v7.5h-12.7v-7.6l-1.7,0v7.6h-11.7c-0.4,0.5-0.7,1.1-1.1,1.7h12.8v12.9h-12.9v-12.6
				c-0.6,0.9-1.1,1.9-1.7,2.9v9.7h-4.7c-0.2,0.6-0.5,1.1-0.7,1.7h5.4v7.4L-796.9-12822.8z M-753-12844.8h12.7v12.9h-12.7
				L-753-12844.8z M-768-12844.8h13.3v12.9H-768V-12844.8z M-782.3-12844.8h12.7v12.9h-12.7V-12844.8z"/>
		</g>
		<g id="Grupo_103444" transform="translate(45.911 97.393)">
			<path id="Trazado_215414" class="st17" d="M-804-12853.2c14.7,2.1,29.7,1.8,44.4-0.8l0.7,3.9c0,0-32,7-45.1,0.3V-12853.2z"/>
		</g>
		<g id="Grupo_103445" transform="translate(39.49 57.835)">
			<path id="Trazado_215415" class="st17" d="M-803.7-12840.3c-0.2,0-0.3-0.1-0.3-0.3l0,0c0-8.8,5-13.3,5-13.3
				c0.1-0.1,0.3-0.1,0.4,0c0.1,0.1,0.1,0.3,0,0.4c0,0-4.8,4.3-4.8,12.9C-803.5-12840.4-803.6-12840.3-803.7-12840.3z"/>
		</g>
		<g id="Grupo_103446" transform="translate(88.324 65.616)">
			<path id="Trazado_215416" class="st17" d="M-799.4-12842.5c-0.1,0-0.2-0.1-0.3-0.2c-1.8-5.2-4.3-10.9-4.3-11
				c-0.1-0.1,0-0.3,0.1-0.4c0.1-0.1,0.3,0,0.4,0.1c0,0.1,2.5,5.8,4.3,11C-799.1-12842.7-799.2-12842.5-799.4-12842.5
				C-799.3-12842.5-799.3-12842.5-799.4-12842.5C-799.4-12842.5-799.4-12842.5-799.4-12842.5z"/>
		</g>
		<g id="Grupo_103447" transform="translate(87.075 67.56)">
			<path id="Trazado_215417" class="st17" d="M-800.7-12851c-0.1,0-0.1,0-0.2-0.1l-3.1-2.5c-0.1-0.1-0.1-0.3,0-0.4
				c0.1-0.1,0.3-0.1,0.4,0l3.1,2.5c0.1,0.1,0.1,0.3,0,0.4C-800.5-12851-800.6-12851-800.7-12851z"/>
		</g>
		<g id="Grupo_103448" transform="translate(62.205 72.423)">
			<path id="Trazado_215418" class="st17" d="M-793.1-12849.3c-7.3,0-10.8-4.2-10.8-4.2c-0.1-0.1-0.1-0.3,0-0.4
				c0.1-0.1,0.3-0.1,0.4,0c0.1,0.1,6.2,7.3,19,2.3c0.1-0.1,0.3,0,0.4,0.2c0.1,0.1,0,0.3-0.2,0.4
				C-787.1-12850-790.1-12849.4-793.1-12849.3z"/>
		</g>
		<g id="Grupo_103449" transform="translate(57.269 40.467)">
			<path id="Trazado_215419" class="st17" d="M-796.8-12847.7c-1.1,0-2.2-0.2-3.2-0.7c-2.1-1-3.4-2.1-3.8-3.4
				c-0.2-0.7-0.2-1.4,0.1-2.1c0.1-0.1,0.2-0.2,0.4-0.1c0.1,0.1,0.2,0.2,0.1,0.4c-0.2,0.5-0.2,1.1,0,1.7c0.4,1.1,1.6,2.2,3.5,3.1
				c4.9,2.3,12.4-2.7,12.5-2.8c0.1-0.1,0.3-0.1,0.4,0s0.1,0.3,0,0.4c0,0,0,0,0,0C-787.2-12851-792.2-12847.7-796.8-12847.7z"/>
		</g>
		<g id="Grupo_103450" transform="translate(53.673 98.208)">
			<path id="Trazado_215420" class="st8" d="M-794-12846.5h-8.9c-0.6,0-1.1-0.5-1.1-1.1v-5.3c0-0.6,0.5-1.1,1.1-1.1h8.9
				c0.6,0,1.1,0.5,1.1,1.1v5.3C-792.9-12847-793.4-12846.5-794-12846.5z M-801.8-12848.7h6.7v-3.1h-6.7V-12848.7z"/>
		</g>
		<g id="Grupo_103451" transform="translate(73.594 98.956)">
			<path id="Trazado_215421" class="st7" d="M-804-12848.7l0.1-5.1l2.9-0.1v5.7L-804-12848.7z"/>
		</g>
		<g id="Grupo_103452" transform="translate(46.571 98.261)">
			<path id="Trazado_215422" class="st23" d="M-802.3-12849.3l0.2-4.6l-1.7-0.1l-0.2,4.4L-802.3-12849.3z"/>
		</g>
		<g id="Grupo_103453" transform="translate(85.195 97.636)">
			<path id="Trazado_215423" class="st7" d="M-803.4-12849l-0.6-4.5l2.6-0.5l0.7,4.7L-803.4-12849z"/>
		</g>
		<g id="Grupo_103454" transform="translate(54.355 101.669)">
			<path id="Trazado_215424" class="st8" d="M-800.8-12853.5h-2.9c-0.2,0-0.3-0.1-0.3-0.3s0.1-0.3,0.3-0.3c0,0,0,0,0,0h2.9
				c0.2,0,0.3,0.1,0.3,0.3S-800.6-12853.5-800.8-12853.5C-800.8-12853.5-800.8-12853.5-800.8-12853.5L-800.8-12853.5z"/>
		</g>
		<g id="Grupo_103455" transform="translate(49.076 89.164)">
			<path id="Trazado_215425" class="st17" d="M-800-12845.6c-0.1,0-0.1,0-0.2-0.1c-0.9-0.5-3.3-4.1-3.7-5.9c0-0.1,0-0.3,0.2-0.3
				s0.3,0,0.3,0.2c0,0,0,0,0,0c0.7,2,1.8,3.8,3.2,5.3c-0.1-0.6-0.4-1.6-0.7-2.6c-0.5-1.6-1-3.2-1.3-4.8c0-0.1,0.1-0.3,0.2-0.3
				s0.3,0.1,0.3,0.2c0.4,1.6,0.8,3.2,1.3,4.7c0.8,2.6,1,3.2,0.7,3.4C-799.9-12845.6-800-12845.6-800-12845.6z"/>
		</g>
		<g id="Grupo_103456" transform="translate(20.882 64.713)">
			<path id="Trazado_215426" class="st17" d="M-803.5-12843.7c0,0-0.1,0-0.1,0c-0.1-0.1-0.2-0.2-0.1-0.4c0.6-1.4,0.2-5.5-0.3-9.7
				c0-0.1,0.1-0.3,0.2-0.3c0.1,0,0.3,0.1,0.3,0.2c0.5,4.4,0.9,8.4,0.2,9.9C-803.3-12843.7-803.4-12843.7-803.5-12843.7z"/>
		</g>
		<g id="Grupo_103457" transform="translate(7.152 81.829)">
			<path id="Trazado_215427" class="st21" d="M-794-12852.7c2.2,1.4,5.2,2.9,6.6,4.2c-1.8,0.5-3.6,0.8-5.4,0.8
				c-1.5,0-3.1-0.2-4.5-0.6c-2.5-0.6-4.9-1.8-6.7-3.7C-798.7-12854.2-797.1-12854.8-794-12852.7z"/>
		</g>
		<g id="Grupo_103458" transform="translate(100.925 96.227)">
			<path id="Trazado_215428" class="st16" d="M-785.6-12854c2.3,12.1,3.8,24.2,4.6,36.5l-18.2,1.3c-0.8-12.3-2.4-24.5-4.8-36.6
				C-798.2-12852.6-791.6-12852-785.6-12854z"/>
		</g>
	</g>
</g>
<g class="st0">
	<path class="st1" d="M228.1,135.8c0-0.8-0.3-1.4-0.8-1.8s-1.5-0.9-3-1.3s-2.5-0.9-3.4-1.4c-2.3-1.2-3.4-2.9-3.4-4.9
		c0-1.1,0.3-2,0.9-2.9c0.6-0.8,1.5-1.5,2.6-2s2.4-0.7,3.8-0.7c1.4,0,2.7,0.3,3.8,0.8c1.1,0.5,2,1.2,2.6,2.2s0.9,2,0.9,3.2h-4.1
		c0-0.9-0.3-1.6-0.9-2.1s-1.4-0.8-2.4-0.8c-1,0-1.8,0.2-2.3,0.6c-0.6,0.4-0.8,1-0.8,1.7c0,0.6,0.3,1.2,1,1.6
		c0.7,0.4,1.6,0.8,2.9,1.2c2.3,0.7,4,1.6,5.1,2.6s1.6,2.3,1.6,3.9c0,1.7-0.7,3.1-2,4.1c-1.3,1-3.1,1.5-5.3,1.5
		c-1.5,0-2.9-0.3-4.2-0.8s-2.2-1.3-2.9-2.3c-0.7-1-1-2.1-1-3.4h4.1c0,2.2,1.3,3.3,3.9,3.3c1,0,1.7-0.2,2.3-0.6
		S228.1,136.5,228.1,135.8z"/>
	<path class="st1" d="M251.3,131.5c0,2-0.3,3.7-1,5.2c-0.7,1.5-1.7,2.6-3,3.4c-1.3,0.8-2.8,1.2-4.4,1.2c-1.6,0-3.1-0.4-4.4-1.2
		c-1.3-0.8-2.3-1.9-3-3.4s-1.1-3.2-1.1-5.1v-1c0-2,0.4-3.7,1.1-5.2c0.7-1.5,1.7-2.6,3-3.4c1.3-0.8,2.8-1.2,4.4-1.2
		c1.7,0,3.1,0.4,4.4,1.2c1.3,0.8,2.3,1.9,3,3.4c0.7,1.5,1.1,3.2,1.1,5.2V131.5z M247.2,130.6c0-2.1-0.4-3.7-1.1-4.8
		c-0.7-1.1-1.8-1.6-3.2-1.6c-1.4,0-2.4,0.5-3.2,1.6c-0.7,1.1-1.1,2.6-1.1,4.7v1c0,2,0.4,3.6,1.1,4.7c0.7,1.1,1.8,1.7,3.2,1.7
		c1.4,0,2.4-0.5,3.2-1.6s1.1-2.7,1.1-4.7V130.6z"/>
	<path class="st1" d="M265.3,136.9h-7.2l-1.4,4.1h-4.4l7.4-19.9h3.8L271,141h-4.4L265.3,136.9z M259.2,133.6h5l-2.5-7.5L259.2,133.6
		z"/>
</g>
<path id="Trazado_215438" class="st24" d="M272.8,75.2V22.4"/>
<path id="Trazado_215443" class="st24" d="M141,148.2H88.2"/>
<path id="Trazado_215441" class="st24" d="M272.8,242v-20.6"/>
<g id="Elipse_6554" transform="translate(1073 12875)">
	<circle class="st6" cx="-800.2" cy="-12850" r="4"/>
	<circle class="st25" cx="-800.2" cy="-12850" r="3"/>
</g>
<g id="Elipse_6559" transform="translate(890.8 13006) rotate(-90)">
	<circle class="st6" cx="12858" cy="-800" r="4"/>
	<circle class="st25" cx="12858" cy="-800" r="3"/>
</g>
<g id="Elipse_6557" transform="translate(1073 13095)">
	<circle class="st6" cx="-800.2" cy="-12850" r="4"/>
	<circle class="st25" cx="-800.2" cy="-12850" r="3"/>
</g>
<g id="Elipse_6555" transform="translate(1226 12896)">
	<circle class="st6" cx="-800" cy="-12850" r="4"/>
	<circle class="st25" cx="-800" cy="-12850" r="3"/>
</g>
<g id="Elipse_6560" transform="translate(919.563 12896)">
	<circle class="st6" cx="-800" cy="-12850" r="4"/>
	<circle class="st25" cx="-800" cy="-12850" r="3"/>
</g>
<g id="Elipse_6556" transform="translate(1226 13095)">
	<circle class="st6" cx="-800" cy="-12850" r="4"/>
	<circle class="st25" cx="-800" cy="-12850" r="3"/>
</g>
<g id="Elipse_6558" transform="translate(919.581 13095)">
	<circle class="st6" cx="-800" cy="-12850" r="4"/>
	<circle class="st25" cx="-800" cy="-12850" r="3"/>
</g>
<path id="Trazado_215439" class="st24" d="M326.7,69.5V46h96.5"/>
<path id="Trazado_215444" class="st24" d="M218.8,69.5V46h-96.5"/>
<path id="Trazado_215445" class="st24" d="M218.8,221v23.5h-96.5"/>
<path id="Trazado_215440" class="st24" d="M364.2,221.4v23.5h59.1"/>
<g id="Grupo_103462" transform="translate(370.095 12743.137)">
	<path id="Trazado_213045" class="st1" d="M-148.7-12554.9c0,5.8-0.1,11.6,0,17.5c0.3,3.6-1.5,7-4.6,8.8c-2.6,1.7-5.4,3-8.4,3.9
		c-14.2,4-28.4,4.1-42.4-0.7c-2.7-1-5.3-2.4-7.6-4.2c-2.4-1.7-3.4-4.3-3.4-7.3c0-12.2,0-24.4,0-36.6c0-2.9,1.4-5.6,3.8-7.3
		c3.3-2.4,7-4.1,11-5c13.5-3.4,26.9-3.3,40.1,1.1c2.7,1,5.2,2.3,7.6,4c2.7,1.8,4.2,4.8,3.9,8
		C-148.8-12566.9-148.7-12560.9-148.7-12554.9z M-184-12564.5c8.2,0,14.4-0.5,20.3-2.4c2.8-0.9,5.5-2.2,8-3.8c3.1-2.1,3.1-4.5,0-6.5
		c-2.3-1.6-4.8-2.8-7.5-3.6c-12.2-3.5-25.2-3.5-37.4,0c-3.1,0.7-6,2.3-8.4,4.4c-1.6,1.6-1.8,3.4,0,4.9c1.6,1.4,3.4,2.5,5.3,3.3
		C-197.4-12565.7-190.7-12564.5-184-12564.5z M-153.5-12565.8c-19,8.3-37.8,8.2-56.8,0c0,2.9,0.1,6.1,0,9.2
		c-0.2,2.2,0.9,4.2,2.8,5.3c0.7,0.5,1.4,0.9,2.2,1.3c5.8,2.8,12.1,3.9,18.5,4.3c8.7,0.5,17.4,0.1,25.6-3.1c2.3-1,4.5-2.3,6.5-3.8
		c0.8-0.6,1.2-1.5,1.3-2.5C-153.4-12558.7-153.5-12562.3-153.5-12565.8L-153.5-12565.8z M-210.3-12546.8c0,3.1,0.1,6.3,0,9.6
		c-0.2,1.8,0.7,3.6,2.3,4.5c1.8,1.2,3.6,2.2,5.6,2.9c12.3,4.2,24.8,4.1,37.3,1.2c3.5-0.7,6.8-2.2,9.6-4.3c1.4-0.9,2.1-2.5,2.1-4.2
		c-0.1-3,0-5.9,0-8.9c0-0.3,0-0.6-0.1-0.9C-172.5-12538.6-191.3-12538.6-210.3-12546.8L-210.3-12546.8z"/>
	<path id="Trazado_213046" class="st26" d="M-184-12564.5c-6.7,0-13.4-1.2-19.7-3.7c-1.9-0.8-3.7-2-5.3-3.3c-1.8-1.5-1.7-3.3,0-4.9
		c2.4-2.2,5.3-3.7,8.4-4.4c12.2-3.5,25.2-3.5,37.4,0c2.7,0.8,5.2,2,7.5,3.6c3.1,2.1,3.1,4.5,0,6.5c-2.5,1.6-5.2,2.9-8,3.8
		C-169.6-12565-175.8-12564.5-184-12564.5z"/>
	<path id="Trazado_213047" class="st6" d="M-153.5-12565.8c0,3.4,0.1,7.1-0.1,10.7c-0.1,1-0.5,1.9-1.3,2.5c-2,1.5-4.2,2.8-6.5,3.8
		c-8.3,3.2-16.9,3.6-25.6,3.1c-6.4-0.4-12.6-1.5-18.5-4.3c-0.7-0.4-1.5-0.8-2.2-1.3c-1.9-1.1-3-3.1-2.8-5.3c0.1-3.1,0-6.3,0-9.2
		C-191.3-12557.6-172.5-12557.5-153.5-12565.8z"/>
	<path id="Trazado_213048" class="st26" d="M-210.3-12546.8c19,8.2,37.8,8.2,56.8,0c0,0.3,0.1,0.6,0.1,0.9c0,3-0.1,5.9,0,8.9
		c0.1,1.7-0.7,3.2-2.1,4.2c-2.9,2.1-6.1,3.6-9.6,4.3c-12.5,2.9-25,2.9-37.3-1.2c-2-0.8-3.9-1.7-5.6-2.9c-1.6-0.9-2.4-2.7-2.3-4.5
		C-210.2-12540.5-210.3-12543.7-210.3-12546.8z"/>
</g>
<g id="Grupo_103461" transform="translate(265.635 -126.747)">
	<path id="Trazado_215429" class="st27" d="M-13.8,312.3c-6.8,0-13.6,0-20.4,0c-1.7,0-3.8,0.4-4.4-1.8c-0.7-2.5-1.1-5.2,0.5-7.5
		c0.8-1.2,2.3-1,3.6-1c5.9,0,11.9,0,17.8,0c8,0,15.9,0,23.9,0c1.7,0,3.9-0.4,4.5,1.6c0.9,2.5,0.8,5.2-0.2,7.6
		c-0.6,1.3-2.2,1.1-3.5,1.1C0.7,312.3-6.5,312.3-13.8,312.3z M-3.1,304.6c-1.3,0-2.4,1-2.4,2.3c0,0,0,0.1,0,0.1
		c-0.2,1.2,0.7,2.3,1.9,2.5c0.1,0,0.3,0,0.4,0c1.2,0.1,2.3-0.8,2.5-2c0-0.1,0-0.2,0-0.4C-0.7,305.7-1.6,304.9-3.1,304.6L-3.1,304.6z
		 M4.7,309.6c1.3-0.1,2.3-1.1,2.2-2.4c0-0.1,0-0.1,0-0.2c0.1-1.2-0.9-2.3-2.1-2.3c-0.1,0-0.3,0-0.4,0c-1.2,0-2.2,1-2.2,2.3
		c0,0.1,0,0.2,0,0.3c0,1.3,1,2.3,2.3,2.3C4.5,309.6,4.6,309.6,4.7,309.6L4.7,309.6z"/>
	<path id="Trazado_215430" class="st27" d="M-13.4,327.7c-7,0-13.9,0-20.9,0c-1.7,0-3.8,0.3-4.4-1.9c-0.7-2.5-1.1-5.2,0.5-7.5
		c0.9-1.4,2.7-0.9,4.1-0.9c13.8,0,27.5,0,41.3,0c0.6,0,1.2,0,1.7,0c2.2,0,3.2,1.1,3.2,3.2c0,6,0.7,7.2-6.4,7.1
		C-0.6,327.6-7,327.7-13.4,327.7z M-0.7,322.3c-0.3-1.4-1.1-2.4-2.6-2.2c-1.2,0-2.2,1-2.2,2.2c0,0.1,0,0.3,0,0.4
		c0,1.2,0.9,2.2,2.1,2.3c0.1,0,0.3,0,0.4,0c1.3-0.1,2.3-1.2,2.3-2.5C-0.7,322.4-0.7,322.4-0.7,322.3L-0.7,322.3z M6.9,322.3
		c0-1.2-1-2.2-2.3-2.2c0,0-0.1,0-0.1,0c-1.2-0.1-2.3,0.8-2.4,2c0,0.1,0,0.3,0,0.4c-0.1,1.2,0.8,2.3,2,2.5c0.1,0,0.2,0,0.4,0
		C6,325,6.8,324.1,6.9,322.3L6.9,322.3z"/>
	<path id="Trazado_215431" class="st28" d="M-13.3,342.9c-6.8,0-13.6,0-20.4,0c-4.9,0-5.4-0.6-5.3-5.5c0-0.4,0-0.9,0-1.3
		c0.1-2.1,1-3.2,3.2-3.3c0.7,0,1.4,0,2.2,0c13.4,0,26.9,0,40.3,0c1,0,2,0,3,0.1c0.9,0,1.7,0.5,2,1.4c0.7,2.4,0.6,4.9-0.1,7.2
		c-0.6,1.7-2.4,1.3-3.8,1.3c-6.5,0-13,0-19.5,0L-13.3,342.9z M4.6,335.4c-1.3-0.1-2.4,0.9-2.5,2.1c0,0.1,0,0.2,0,0.3
		C2,339,2.8,340.1,4,340.2c0.2,0,0.3,0,0.5,0c1.2,0.2,2.3-0.7,2.4-1.9c0-0.2,0-0.3,0-0.5c0.1-1.3-0.8-2.4-2.1-2.5
		C4.8,335.4,4.7,335.4,4.6,335.4L4.6,335.4z M-0.7,337.8c-0.2-1.7-1.2-2.5-2.6-2.4c-1.2,0-2.2,1-2.3,2.2c0,0.1,0,0.3,0,0.4
		c0,1.2,0.9,2.2,2.1,2.2c0.2,0,0.3,0,0.5,0c1.2,0,2.3-1,2.3-2.2C-0.7,337.9-0.7,337.9-0.7,337.8L-0.7,337.8z"/>
	<path id="Trazado_215432" class="st29" d="M-3.1,304.6c1.5,0.3,2.4,1.1,2.3,2.6c0.1,1.2-0.9,2.3-2.1,2.4c-0.1,0-0.2,0-0.4,0
		c-1.2,0.1-2.2-0.9-2.3-2.1c0-0.1,0-0.3,0-0.4c0-1.3,1-2.4,2.3-2.4C-3.2,304.6-3.1,304.6-3.1,304.6z"/>
	<path id="Trazado_215433" class="st29" d="M4.7,309.6c-1.3,0.1-2.4-0.8-2.5-2.1c0-0.1,0-0.2,0-0.2c-0.2-1.2,0.6-2.4,1.9-2.6
		c0.1,0,0.2,0,0.3,0c1.2-0.2,2.3,0.7,2.5,1.9c0,0.1,0,0.3,0,0.4c0.2,1.3-0.7,2.4-2,2.6C4.8,309.6,4.8,309.6,4.7,309.6z"/>
	<path id="Trazado_215434" class="st29" d="M-0.7,322.3c0.1,1.3-0.8,2.5-2.1,2.6c0,0-0.1,0-0.1,0c-1.2,0.2-2.3-0.6-2.5-1.8
		c0-0.1,0-0.3,0-0.4c-0.2-1.2,0.6-2.4,1.8-2.6c0.1,0,0.3,0,0.4,0C-1.8,319.9-1,320.9-0.7,322.3z"/>
	<path id="Trazado_215435" class="st29" d="M6.9,322.3c-0.1,1.8-1,2.7-2.4,2.7c-1.2,0.1-2.3-0.9-2.4-2.1c0-0.1,0-0.2,0-0.4
		c-0.1-1.2,0.8-2.3,2-2.4c0.1,0,0.3,0,0.4,0c1.2-0.1,2.3,0.9,2.4,2.1C6.9,322.2,6.9,322.3,6.9,322.3z"/>
	<path id="Trazado_215436" class="st29" d="M4.6,335.4c1.3,0,2.3,1,2.3,2.2c0,0.1,0,0.2,0,0.3c0.1,1.2-0.8,2.2-2,2.4
		c-0.2,0-0.3,0-0.5,0c-1.2,0.1-2.3-0.8-2.4-2c0-0.2,0-0.3,0-0.5c-0.1-1.3,0.9-2.4,2.2-2.4C4.4,335.4,4.5,335.4,4.6,335.4z"/>
	<path id="Trazado_215437" class="st29" d="M-0.7,337.8c0.1,1.2-0.8,2.3-2.1,2.4c-0.1,0-0.1,0-0.2,0c-1.2,0.2-2.3-0.6-2.5-1.7
		c0-0.2,0-0.3,0-0.5c-0.2-1.2,0.6-2.4,1.8-2.6c0.1,0,0.3,0,0.4,0C-1.8,335.3-0.9,336.1-0.7,337.8z"/>
</g>
</svg>
