<?xml version="1.0" encoding="utf-8"?>
<!-- Generator: Adobe Illustrator 25.4.2, SVG Export Plug-In . SVG Version: 6.00 Build 0)  -->
<svg version="1.1" id="Capa_1" xmlns="http://www.w3.org/2000/svg" xmlns:xlink="http://www.w3.org/1999/xlink" x="0px" y="0px"
	 viewBox="0 0 234.2 212" style="enable-background:new 0 0 234.2 212;" xml:space="preserve">
<style type="text/css">
	.st0{fill:#8FDAFF;}
	.st1{fill:#12263F;}
	.st2{enable-background:new    ;}
	.st3{fill:#A9ECF5;}
	.st4{fill:none;stroke:#12263F;stroke-width:2;stroke-dasharray:2,2;}
</style>
<g id="Grupo_106888" transform="translate(-915 -1875)">
	<g id="Grupo_106675" transform="translate(-30.5 44)">
		<g id="Trazado_218228" transform="translate(969.672 1969)">
			<path class="st0" d="M206.4,73H3.6C2.2,73,1,71.2,1,69V5c0-2.2,1.2-4,2.6-4h202.9c1.4,0,2.6,1.8,2.6,4v64
				C209,71.2,207.8,73,206.4,73z"/>
			<path class="st1" d="M3.6,2C2.9,2,2,3.2,2,5v64c0,1.8,0.9,3,1.6,3h202.9c0.6,0,1.6-1.2,1.6-3V5c0-1.8-0.9-3-1.6-3H3.6 M3.6,0
				h202.9c2,0,3.6,2.2,3.6,5v64c0,2.8-1.6,5-3.6,5H3.6c-2,0-3.6-2.2-3.6-5V5C0,2.2,1.6,0,3.6,0z"/>
		</g>
		<g id="Trazado_218229" transform="translate(945.5 1987)">
			<path class="st0" d="M48.9,15H1c0,0,0,0,0-0.1V1.1C1,1,1,1,1,1h47.9c0,0,0,0,0,0.1L48.9,15C48.9,15,48.9,15,48.9,15z"/>
			<path class="st1" d="M2,2v12h45.9V2H2 M0.8,0h48.3c0.5,0,0.8,0.5,0.8,1.1v13.8c0,0.6-0.4,1.1-0.8,1.1H0.8C0.4,16,0,15.5,0,14.9
				V1.1C0,0.5,0.4,0,0.8,0z"/>
		</g>
		<g id="Trazado_218230" transform="translate(945.5 2014)">
			<path class="st0" d="M48.9,15H1c0,0,0,0,0-0.1V1.1C1,1,1,1,1,1h47.9c0,0,0,0,0,0.1L48.9,15C48.9,15,48.9,15,48.9,15z"/>
			<path class="st1" d="M2,2v12h45.9V2H2 M0.8,0h48.3c0.5,0,0.8,0.5,0.8,1.1v13.8c0,0.6-0.4,1.1-0.8,1.1H0.8C0.4,16,0,15.5,0,14.9
				V1.1C0,0.5,0.4,0,0.8,0z"/>
		</g>
		<g class="st2">
			<path class="st1" d="M1039.4,2008.2c-0.1,1.4-0.6,2.5-1.5,3.3s-2.1,1.2-3.6,1.2c-1.6,0-2.9-0.6-3.9-1.7s-1.4-2.6-1.4-4.5v-0.8
				c0-1.2,0.2-2.3,0.7-3.3s1.1-1.7,1.9-2.2c0.8-0.5,1.7-0.8,2.8-0.8c1.5,0,2.7,0.4,3.6,1.2s1.4,1.9,1.6,3.3h-2.6
				c-0.1-0.8-0.3-1.4-0.7-1.8s-1-0.6-1.8-0.6c-0.9,0-1.5,0.3-2,0.9s-0.7,1.6-0.7,2.9v1c0,1.4,0.2,2.4,0.6,3s1.1,1,2,1
				c0.8,0,1.4-0.2,1.8-0.6s0.6-0.9,0.7-1.7H1039.4z"/>
			<path class="st1" d="M1040.6,2007.7c0-0.9,0.2-1.8,0.5-2.5s0.9-1.3,1.6-1.7s1.5-0.6,2.4-0.6c1.3,0,2.3,0.4,3.1,1.2
				s1.3,1.9,1.4,3.2l0,0.7c0,1.5-0.4,2.6-1.2,3.5s-1.9,1.3-3.3,1.3s-2.5-0.4-3.3-1.3s-1.2-2.1-1.2-3.6V2007.7z M1043.1,2007.8
				c0,0.9,0.2,1.6,0.5,2.1c0.3,0.5,0.8,0.7,1.5,0.7c0.6,0,1.1-0.2,1.4-0.7c0.3-0.5,0.5-1.2,0.5-2.3c0-0.9-0.2-1.6-0.5-2.1
				s-0.8-0.7-1.5-0.7c-0.6,0-1.1,0.2-1.4,0.7C1043.3,2006.1,1043.1,2006.8,1043.1,2007.8z"/>
			<path class="st1" d="M1053.6,2003l0.1,1.1c0.7-0.8,1.6-1.2,2.7-1.2c1.2,0,2.1,0.5,2.5,1.5c0.7-1,1.6-1.5,2.9-1.5
				c1,0,1.8,0.3,2.3,0.9c0.5,0.6,0.8,1.5,0.8,2.7v6.1h-2.5v-6.1c0-0.5-0.1-0.9-0.3-1.2s-0.6-0.4-1.1-0.4c-0.8,0-1.3,0.4-1.6,1.1
				l0,6.5h-2.5v-6.1c0-0.6-0.1-0.9-0.3-1.2s-0.6-0.4-1.1-0.4c-0.7,0-1.2,0.3-1.6,0.9v6.7h-2.5v-9.5H1053.6z"/>
			<path class="st1" d="M1075.3,2007.8c0,1.5-0.3,2.6-1,3.5c-0.7,0.9-1.6,1.3-2.7,1.3c-1,0-1.7-0.3-2.3-1v4.5h-2.5V2003h2.4l0.1,0.9
				c0.6-0.7,1.4-1.1,2.4-1.1c1.2,0,2.1,0.4,2.7,1.3s1,2.1,1,3.6V2007.8z M1072.8,2007.6c0-0.9-0.2-1.6-0.5-2
				c-0.3-0.5-0.8-0.7-1.4-0.7c-0.8,0-1.3,0.3-1.6,0.9v3.9c0.3,0.6,0.9,0.9,1.7,0.9C1072.2,2010.6,1072.8,2009.6,1072.8,2007.6z"/>
			<path class="st1" d="M1076.5,2007.7c0-0.9,0.2-1.8,0.5-2.5s0.9-1.3,1.6-1.7c0.7-0.4,1.5-0.6,2.4-0.6c1.3,0,2.3,0.4,3.1,1.2
				c0.8,0.8,1.3,1.9,1.4,3.2l0,0.7c0,1.5-0.4,2.6-1.2,3.5s-1.9,1.3-3.3,1.3s-2.5-0.4-3.3-1.3c-0.8-0.9-1.2-2.1-1.2-3.6V2007.7z
				 M1079,2007.8c0,0.9,0.2,1.6,0.5,2.1c0.3,0.5,0.8,0.7,1.5,0.7c0.6,0,1.1-0.2,1.4-0.7c0.3-0.5,0.5-1.2,0.5-2.3
				c0-0.9-0.2-1.6-0.5-2.1s-0.8-0.7-1.5-0.7c-0.6,0-1.1,0.2-1.4,0.7C1079.2,2006.1,1079,2006.8,1079,2007.8z"/>
			<path class="st1" d="M1089.4,2003l0.1,1.1c0.7-0.8,1.6-1.3,2.7-1.3c1,0,1.8,0.3,2.2,0.9s0.7,1.5,0.8,2.7v6.1h-2.5v-6.1
				c0-0.5-0.1-0.9-0.4-1.2c-0.2-0.2-0.6-0.4-1.2-0.4c-0.7,0-1.3,0.3-1.6,0.9v6.7h-2.5v-9.5H1089.4z"/>
			<path class="st1" d="M1101.5,2012.7c-1.4,0-2.5-0.4-3.4-1.3c-0.9-0.9-1.3-2-1.3-3.4v-0.2c0-1,0.2-1.8,0.6-2.6s0.9-1.3,1.6-1.7
				c0.7-0.4,1.4-0.6,2.3-0.6c1.3,0,2.3,0.4,3.1,1.2c0.7,0.8,1.1,2,1.1,3.5v1h-6.1c0.1,0.6,0.3,1.1,0.7,1.5c0.4,0.4,0.9,0.6,1.6,0.6
				c1,0,1.7-0.4,2.3-1.1l1.2,1.4c-0.4,0.5-0.9,1-1.5,1.3C1103,2012.5,1102.3,2012.7,1101.5,2012.7z M1101.2,2004.9
				c-0.5,0-0.9,0.2-1.2,0.5c-0.3,0.3-0.5,0.8-0.6,1.5h3.5v-0.2c0-0.6-0.2-1-0.5-1.3C1102.2,2005,1101.8,2004.9,1101.2,2004.9z"/>
			<path class="st1" d="M1109.2,2003l0.1,1.1c0.7-0.8,1.6-1.3,2.7-1.3c1,0,1.8,0.3,2.2,0.9s0.7,1.5,0.8,2.7v6.1h-2.5v-6.1
				c0-0.5-0.1-0.9-0.4-1.2c-0.2-0.2-0.6-0.4-1.2-0.4c-0.7,0-1.3,0.3-1.6,0.9v6.7h-2.5v-9.5H1109.2z"/>
			<path class="st1" d="M1120,2000.7v2.3h1.6v1.9h-1.6v4.7c0,0.4,0.1,0.6,0.2,0.8s0.4,0.2,0.8,0.2c0.3,0,0.5,0,0.7-0.1v1.9
				c-0.5,0.2-1,0.2-1.5,0.2c-1.8,0-2.7-0.9-2.7-2.7v-5.1h-1.4v-1.9h1.4v-2.3H1120z"/>
			<path class="st1" d="M1127.4,2012.7c-1.4,0-2.5-0.4-3.4-1.3c-0.9-0.9-1.3-2-1.3-3.4v-0.2c0-1,0.2-1.8,0.6-2.6s0.9-1.3,1.6-1.7
				c0.7-0.4,1.4-0.6,2.3-0.6c1.3,0,2.3,0.4,3.1,1.2c0.7,0.8,1.1,2,1.1,3.5v1h-6.1c0.1,0.6,0.3,1.1,0.7,1.5c0.4,0.4,0.9,0.6,1.6,0.6
				c1,0,1.7-0.4,2.3-1.1l1.2,1.4c-0.4,0.5-0.9,1-1.5,1.3C1128.9,2012.5,1128.2,2012.7,1127.4,2012.7z M1127.1,2004.9
				c-0.5,0-0.9,0.2-1.2,0.5c-0.3,0.3-0.5,0.8-0.6,1.5h3.5v-0.2c0-0.6-0.2-1-0.5-1.3C1128.1,2005,1127.7,2004.9,1127.1,2004.9z"/>
		</g>
	</g>
	<g id="Grupo_106676" transform="translate(-30.5 -94)">
		<g id="Trazado_218228-2" transform="translate(969.672 1969)">
			<path class="st3" d="M206.4,73H3.6C2.2,73,1,71.2,1,69V5c0-2.2,1.2-4,2.6-4h202.9c1.4,0,2.6,1.8,2.6,4v64
				C209,71.2,207.8,73,206.4,73z"/>
			<path class="st1" d="M3.6,2C2.9,2,2,3.2,2,5v64c0,1.8,0.9,3,1.6,3h202.9c0.6,0,1.6-1.2,1.6-3V5c0-1.8-0.9-3-1.6-3H3.6 M3.6,0
				h202.9c2,0,3.6,2.2,3.6,5v64c0,2.8-1.6,5-3.6,5H3.6c-2,0-3.6-2.2-3.6-5V5C0,2.2,1.6,0,3.6,0z"/>
		</g>
		<g id="Trazado_218229-2" transform="translate(945.5 1987)">
			<path class="st3" d="M48.9,15H1c0,0,0,0,0-0.1V1.1C1,1,1,1,1,1h47.9c0,0,0,0,0,0.1L48.9,15C48.9,15,48.9,15,48.9,15z"/>
			<path class="st1" d="M2,2v12h45.9V2H2 M0.8,0h48.3c0.5,0,0.8,0.5,0.8,1.1v13.8c0,0.6-0.4,1.1-0.8,1.1H0.8C0.4,16,0,15.5,0,14.9
				V1.1C0,0.5,0.4,0,0.8,0z"/>
		</g>
		<g id="Trazado_218230-2" transform="translate(945.5 2014)">
			<path class="st3" d="M48.9,15H1c0,0,0,0,0-0.1V1.1C1,1,1,1,1,1h47.9c0,0,0,0,0,0.1L48.9,15C48.9,15,48.9,15,48.9,15z"/>
			<path class="st1" d="M2,2v12h45.9V2H2 M0.8,0h48.3c0.5,0,0.8,0.5,0.8,1.1v13.8c0,0.6-0.4,1.1-0.8,1.1H0.8C0.4,16,0,15.5,0,14.9
				V1.1C0,0.5,0.4,0,0.8,0z"/>
		</g>
		<g class="st2">
			<path class="st1" d="M1039.4,2008.2c-0.1,1.4-0.6,2.5-1.5,3.3s-2.1,1.2-3.6,1.2c-1.6,0-2.9-0.6-3.9-1.7s-1.4-2.6-1.4-4.5v-0.8
				c0-1.2,0.2-2.3,0.7-3.3s1.1-1.7,1.9-2.2c0.8-0.5,1.7-0.8,2.8-0.8c1.5,0,2.7,0.4,3.6,1.2s1.4,1.9,1.6,3.3h-2.6
				c-0.1-0.8-0.3-1.4-0.7-1.8s-1-0.6-1.8-0.6c-0.9,0-1.5,0.3-2,0.9s-0.7,1.6-0.7,2.9v1c0,1.4,0.2,2.4,0.6,3s1.1,1,2,1
				c0.8,0,1.4-0.2,1.8-0.6s0.6-0.9,0.7-1.7H1039.4z"/>
			<path class="st1" d="M1040.6,2007.7c0-0.9,0.2-1.8,0.5-2.5s0.9-1.3,1.6-1.7s1.5-0.6,2.4-0.6c1.3,0,2.3,0.4,3.1,1.2
				s1.3,1.9,1.4,3.2l0,0.7c0,1.5-0.4,2.6-1.2,3.5s-1.9,1.3-3.3,1.3s-2.5-0.4-3.3-1.3s-1.2-2.1-1.2-3.6V2007.7z M1043.1,2007.8
				c0,0.9,0.2,1.6,0.5,2.1c0.3,0.5,0.8,0.7,1.5,0.7c0.6,0,1.1-0.2,1.4-0.7c0.3-0.5,0.5-1.2,0.5-2.3c0-0.9-0.2-1.6-0.5-2.1
				s-0.8-0.7-1.5-0.7c-0.6,0-1.1,0.2-1.4,0.7C1043.3,2006.1,1043.1,2006.8,1043.1,2007.8z"/>
			<path class="st1" d="M1053.6,2003l0.1,1.1c0.7-0.8,1.6-1.2,2.7-1.2c1.2,0,2.1,0.5,2.5,1.5c0.7-1,1.6-1.5,2.9-1.5
				c1,0,1.8,0.3,2.3,0.9c0.5,0.6,0.8,1.5,0.8,2.7v6.1h-2.5v-6.1c0-0.5-0.1-0.9-0.3-1.2s-0.6-0.4-1.1-0.4c-0.8,0-1.3,0.4-1.6,1.1
				l0,6.5h-2.5v-6.1c0-0.6-0.1-0.9-0.3-1.2s-0.6-0.4-1.1-0.4c-0.7,0-1.2,0.3-1.6,0.9v6.7h-2.5v-9.5H1053.6z"/>
			<path class="st1" d="M1075.3,2007.8c0,1.5-0.3,2.6-1,3.5c-0.7,0.9-1.6,1.3-2.7,1.3c-1,0-1.7-0.3-2.3-1v4.5h-2.5V2003h2.4l0.1,0.9
				c0.6-0.7,1.4-1.1,2.4-1.1c1.2,0,2.1,0.4,2.7,1.3s1,2.1,1,3.6V2007.8z M1072.8,2007.6c0-0.9-0.2-1.6-0.5-2
				c-0.3-0.5-0.8-0.7-1.4-0.7c-0.8,0-1.3,0.3-1.6,0.9v3.9c0.3,0.6,0.9,0.9,1.7,0.9C1072.2,2010.6,1072.8,2009.6,1072.8,2007.6z"/>
			<path class="st1" d="M1076.5,2007.7c0-0.9,0.2-1.8,0.5-2.5s0.9-1.3,1.6-1.7c0.7-0.4,1.5-0.6,2.4-0.6c1.3,0,2.3,0.4,3.1,1.2
				c0.8,0.8,1.3,1.9,1.4,3.2l0,0.7c0,1.5-0.4,2.6-1.2,3.5s-1.9,1.3-3.3,1.3s-2.5-0.4-3.3-1.3c-0.8-0.9-1.2-2.1-1.2-3.6V2007.7z
				 M1079,2007.8c0,0.9,0.2,1.6,0.5,2.1c0.3,0.5,0.8,0.7,1.5,0.7c0.6,0,1.1-0.2,1.4-0.7c0.3-0.5,0.5-1.2,0.5-2.3
				c0-0.9-0.2-1.6-0.5-2.1s-0.8-0.7-1.5-0.7c-0.6,0-1.1,0.2-1.4,0.7C1079.2,2006.1,1079,2006.8,1079,2007.8z"/>
			<path class="st1" d="M1089.4,2003l0.1,1.1c0.7-0.8,1.6-1.3,2.7-1.3c1,0,1.8,0.3,2.2,0.9s0.7,1.5,0.8,2.7v6.1h-2.5v-6.1
				c0-0.5-0.1-0.9-0.4-1.2c-0.2-0.2-0.6-0.4-1.2-0.4c-0.7,0-1.3,0.3-1.6,0.9v6.7h-2.5v-9.5H1089.4z"/>
			<path class="st1" d="M1101.5,2012.7c-1.4,0-2.5-0.4-3.4-1.3c-0.9-0.9-1.3-2-1.3-3.4v-0.2c0-1,0.2-1.8,0.6-2.6s0.9-1.3,1.6-1.7
				c0.7-0.4,1.4-0.6,2.3-0.6c1.3,0,2.3,0.4,3.1,1.2c0.7,0.8,1.1,2,1.1,3.5v1h-6.1c0.1,0.6,0.3,1.1,0.7,1.5c0.4,0.4,0.9,0.6,1.6,0.6
				c1,0,1.7-0.4,2.3-1.1l1.2,1.4c-0.4,0.5-0.9,1-1.5,1.3C1103,2012.5,1102.3,2012.7,1101.5,2012.7z M1101.2,2004.9
				c-0.5,0-0.9,0.2-1.2,0.5c-0.3,0.3-0.5,0.8-0.6,1.5h3.5v-0.2c0-0.6-0.2-1-0.5-1.3C1102.2,2005,1101.8,2004.9,1101.2,2004.9z"/>
			<path class="st1" d="M1109.2,2003l0.1,1.1c0.7-0.8,1.6-1.3,2.7-1.3c1,0,1.8,0.3,2.2,0.9s0.7,1.5,0.8,2.7v6.1h-2.5v-6.1
				c0-0.5-0.1-0.9-0.4-1.2c-0.2-0.2-0.6-0.4-1.2-0.4c-0.7,0-1.3,0.3-1.6,0.9v6.7h-2.5v-9.5H1109.2z"/>
			<path class="st1" d="M1120,2000.7v2.3h1.6v1.9h-1.6v4.7c0,0.4,0.1,0.6,0.2,0.8s0.4,0.2,0.8,0.2c0.3,0,0.5,0,0.7-0.1v1.9
				c-0.5,0.2-1,0.2-1.5,0.2c-1.8,0-2.7-0.9-2.7-2.7v-5.1h-1.4v-1.9h1.4v-2.3H1120z"/>
			<path class="st1" d="M1127.4,2012.7c-1.4,0-2.5-0.4-3.4-1.3c-0.9-0.9-1.3-2-1.3-3.4v-0.2c0-1,0.2-1.8,0.6-2.6s0.9-1.3,1.6-1.7
				c0.7-0.4,1.4-0.6,2.3-0.6c1.3,0,2.3,0.4,3.1,1.2c0.7,0.8,1.1,2,1.1,3.5v1h-6.1c0.1,0.6,0.3,1.1,0.7,1.5c0.4,0.4,0.9,0.6,1.6,0.6
				c1,0,1.7-0.4,2.3-1.1l1.2,1.4c-0.4,0.5-0.9,1-1.5,1.3C1128.9,2012.5,1128.2,2012.7,1127.4,2012.7z M1127.1,2004.9
				c-0.5,0-0.9,0.2-1.2,0.5c-0.3,0.3-0.5,0.8-0.6,1.5h3.5v-0.2c0-0.6-0.2-1-0.5-1.3C1128.1,2005,1127.7,2004.9,1127.1,2004.9z"/>
		</g>
	</g>
	<line id="Línea_1685" class="st4" x1="1032.5" y1="1961" x2="1032.5" y2="2014"/>
	<path id="Polígono_79" class="st1" d="M1032.5,1954l4.6,7h-9.2L1032.5,1954z"/>
</g>
</svg>
