<svg xmlns="http://www.w3.org/2000/svg" width="372.113" height="263.085" viewBox="0 0 372.113 263.085">
  <g id="Grupo_97057" data-name="Grupo 97057" transform="translate(-637.039 -4431.035)">
    <g id="Trazado_213055" data-name="Trazado 213055" transform="translate(782 4456)" fill="#4dd0e1">
      <path d="M 87.06171417236328 107.3794631958008 L 13.50957298278809 107.3794631958008 C 10.15851593017578 107.3794631958008 7.010572910308838 106.1421203613281 4.645616054534912 103.8953628540039 C 2.29470157623291 101.6619491577148 1.000001668930054 98.69641876220703 1.000001668930054 95.54505920410156 L 1.000001668930054 12.83441734313965 C 1.000001668930054 9.683060646057129 2.29470157623291 6.717531681060791 4.645616054534912 4.484103202819824 C 7.010572910308838 2.237345933914185 10.15851593017578 1.000002980232239 13.50957298278809 1.000002980232239 L 87.06171417236328 1.000002980232239 C 90.41277313232422 1.000002980232239 93.56072998046875 2.237345933914185 95.92567443847656 4.484103202819824 C 98.27658843994141 6.717531681060791 99.5712890625 9.683060646057129 99.5712890625 12.83441734313965 L 99.5712890625 95.54505920410156 C 99.5712890625 98.69641876220703 98.27658843994141 101.6619491577148 95.92567443847656 103.8953628540039 C 93.56072998046875 106.1421203613281 90.41277313232422 107.3794631958008 87.06171417236328 107.3794631958008 Z" stroke="none"/>
      <path d="M 13.50956726074219 1.999992370605469 C 7.163169860839844 1.999992370605469 2 6.860282897949219 2 12.83441162109375 L 2 95.54505157470703 C 2 101.5191650390625 7.163169860839844 106.3794555664062 13.50956726074219 106.3794555664062 L 87.06170654296875 106.3794555664062 C 93.40810394287109 106.3794555664062 98.5712890625 101.5191650390625 98.5712890625 95.54505157470703 L 98.5712890625 12.83441162109375 C 98.5712890625 6.860282897949219 93.40810394287109 1.999992370605469 87.06170654296875 1.999992370605469 L 13.50956726074219 1.999992370605469 M 13.50956726074219 -7.62939453125e-06 L 87.06170654296875 -7.62939453125e-06 C 94.52284240722656 -7.62939453125e-06 100.5712890625 5.746162414550781 100.5712890625 12.83441162109375 L 100.5712890625 95.54505157470703 C 100.5712890625 102.6333160400391 94.52284240722656 108.3794555664062 87.06170654296875 108.3794555664062 L 13.50956726074219 108.3794555664062 C 6.048446655273438 108.3794555664062 0 102.6333160400391 0 95.54505157470703 L 0 12.83441162109375 C 0 5.746162414550781 6.048446655273438 -7.62939453125e-06 13.50956726074219 -7.62939453125e-06 Z" stroke="none" fill="#fff"/>
    </g>
    <text id="_1._Utiliza" data-name="1. Utiliza" transform="translate(712.571 4437.528)" fill="#12263f" font-size="16" font-family="Roboto-Bold, Roboto" font-weight="700"><tspan x="0" y="17">1. </tspan><tspan y="17" font-family="Roboto-Regular, Roboto" font-weight="400">Utiliza</tspan></text>
    <text id="_2._Manipula" data-name="2. Manipula" transform="translate(889 4432.24)" fill="#12263f" font-size="16" font-family="Roboto-Bold, Roboto" font-weight="700"><tspan x="0" y="17">2. </tspan><tspan y="17" font-family="Roboto-Regular, Roboto" font-weight="400">Manipula</tspan></text>
    <text id="_3._Notifica" data-name="3. Notifica" transform="translate(889 4602.684)" fill="#12263f" font-size="16" font-family="Roboto-Bold, Roboto" font-weight="700"><tspan x="0" y="17">3. </tspan><tspan y="17" font-family="Roboto-Regular, Roboto" font-weight="400">Notifica</tspan></text>
    <text id="_4._Actualiza" data-name="4. Actualiza" transform="translate(739.5 4567.383)" fill="#12263f" font-size="16" font-family="Roboto-Bold, Roboto" font-weight="700"><tspan x="0" y="17">4. </tspan><tspan y="17" font-family="Roboto-Regular, Roboto" font-weight="400">Actualiza</tspan></text>
    <text id="_5._Se_muestra" data-name="5. Se muestra" transform="translate(666.5 4657.877)" fill="#12263f" font-size="16" font-family="Roboto-Bold, Roboto" font-weight="700"><tspan x="0" y="17">5. </tspan><tspan y="17" font-family="Roboto-Regular, Roboto" font-weight="400">Se muestra</tspan></text>
    <g id="Grupo_97055" data-name="Grupo 97055" transform="translate(-8 -13.884)">
      <g id="Grupo_97051" data-name="Grupo 97051" transform="translate(155.983 4349.75)">
        <path id="Trazado_213030" data-name="Trazado 213030" d="M606.486,249.264a20.153,20.153,0,0,1-1.4,6.986,17.112,17.112,0,0,1-7.338,7.993c-.466.266-1.042.333-1.425.764-1.423.1-2.734.707-4.161.854a16.8,16.8,0,0,1-7.143-.7c.129-.178.324-.138.505-.161a2.171,2.171,0,0,0,1.951-1.891,2.227,2.227,0,0,0-.687-2.576,23.262,23.262,0,0,1-4.1-3.612,14.94,14.94,0,0,1-2.867-4.606,18.763,18.763,0,0,1-1.137-6.64c-.076-3.336-.016-6.675-.021-10.013,0-1.18-.472-1.715-1.612-1.812-.378-.032-.6-.158-.633-.55a7.528,7.528,0,0,1,5.62-2.133c5.187-.025,10.375,0,15.563-.012a16.813,16.813,0,0,1,2.136.132,7.757,7.757,0,0,1,6.588,7.109c.1,3.306.051,6.616.07,9.924A2.237,2.237,0,0,0,606.486,249.264Z" transform="translate(-61.541 -77.488)" fill="#feead1"/>
        <path id="Trazado_213031" data-name="Trazado 213031" d="M604.216,191.6a2.238,2.238,0,0,1-.092-.94c-.019-3.308.029-6.618-.069-9.924a7.757,7.757,0,0,0-6.588-7.109,16.812,16.812,0,0,0-2.136-.132c-5.188.007-10.375-.013-15.563.012a7.528,7.528,0,0,0-5.62,2.133l-.229.1a.321.321,0,0,1-.157-.463c.353-.79.669-1.6,1.06-2.368a17.789,17.789,0,0,1,4-5.309,18.548,18.548,0,0,1,8.434-4.406,26.276,26.276,0,0,1,10.367-.176c-.168.587.238.58.624.618a17.011,17.011,0,0,1,8.742,3.228,17.207,17.207,0,0,1,3.887,4.044.8.8,0,0,1-.043,1.169,9.957,9.957,0,0,0-2.451,6.782c.011,2.726,0,5.452,0,8.177C608.384,189.867,607.025,191.352,604.216,191.6Z" transform="translate(-59.271 -19.828)" fill="#12263f"/>
        <path id="Trazado_213032" data-name="Trazado 213032" d="M564.1,143.2a26.276,26.276,0,0,0-10.367.176,18.548,18.548,0,0,0-8.434,4.406,17.789,17.789,0,0,0-4,5.309c-.391.77-.707,1.579-1.06,2.368a.321.321,0,0,0,.157.463,8.183,8.183,0,0,0-2.316,5.483c0,1.664,0,3.327-.01,4.99a9.283,9.283,0,0,1-.123,2.365,1.674,1.674,0,0,0-.811.588,1.458,1.458,0,0,1-1.678.267c-.392-.138-.787-.259-1.186-.372a2.319,2.319,0,0,1-.361-1.355c.045-3.493-.228-7,.146-10.476.629-5.856,2.841-10.93,7.669-14.585a19.059,19.059,0,0,1,9.672-3.648,28.818,28.818,0,0,1,14.409,2.24c.289.121.755.14.717.605-.032.392-.451.4-.727.513C565.242,142.773,564.67,142.979,564.1,143.2Z" transform="translate(-25.752)" fill="#162e4d"/>
        <path id="Trazado_213033" data-name="Trazado 213033" d="M551.375,473.614a9.1,9.1,0,0,0,2.4,2.171,7.781,7.781,0,0,0,3.585.881A12.209,12.209,0,0,1,569.363,489.1q0,2.859,0,5.719c0,1.6-.309,1.909-1.891,1.908q-20.372,0-40.743-.009c-1.694,0-3.387-.02-5.081-.03l.784-.282,42.183,0c.132,0,.265-.005.4,0,.554.024.529-.292.267-.573a2.512,2.512,0,0,1-.563-1.994,12.744,12.744,0,0,0-.562-4.448,11.908,11.908,0,0,0-3.805-5.527,11.115,11.115,0,0,0-3.95-2.218,16.824,16.824,0,0,0-4.51-.7c-2.682-.081-4.69-2.475-3.141-5.148a.274.274,0,0,0-.125-.4A25.636,25.636,0,0,0,551.375,473.614Z" transform="translate(-15.48 -281.383)" fill="#47c0cf"/>
        <path id="Trazado_213034" data-name="Trazado 213034" d="M559.554,257.591a9.281,9.281,0,0,0,.123-2.365c.015-1.663.007-3.327.01-4.99A8.183,8.183,0,0,1,562,244.753l.229-.1c.03.392.254.518.633.55,1.139.1,1.61.632,1.612,1.812.005,3.338-.054,6.677.021,10.013a18.762,18.762,0,0,0,1.137,6.64,14.938,14.938,0,0,0,2.867,4.606,23.262,23.262,0,0,0,4.1,3.612,2.227,2.227,0,0,1,.687,2.576,2.171,2.171,0,0,1-1.951,1.891c-.181.024-.376-.017-.505.161a2.177,2.177,0,0,1-.376-.1c-.583-.277-.825-.108-.739.536a10.783,10.783,0,0,1-.149,1.95.359.359,0,0,1-.172.321c-.387-.614.049-1.224.04-1.84a1.718,1.718,0,0,0-1.147-1.756,14.3,14.3,0,0,1-3.822-2.852,19.533,19.533,0,0,1-3.079-4.138,5.432,5.432,0,0,1-.881-2.5c0-.5-.454-.732-.532-1.206-.237-1.432-.281-2.878-.431-4.316A15.319,15.319,0,0,0,559.554,257.591Z" transform="translate(-47.354 -88.833)" fill="#fdf2e2"/>
        <path id="Trazado_213035" data-name="Trazado 213035" d="M506.951,496.409l-.784.282c-2.611.139-3.008.1-2.916-2.672.059-1.773.01-3.549.011-5.324a12.2,12.2,0,0,1,9.874-11.81,17.144,17.144,0,0,1,2.6-.279,6.527,6.527,0,0,0,5.281-2.766,2.113,2.113,0,0,1,.225-.222l2.729,1.9a2.624,2.624,0,0,0,.077.542c.869,2.409-.1,4.22-2.621,4.788-1.484.334-3.028.151-4.527.578a12.106,12.106,0,0,0-5.956,3.676,11.3,11.3,0,0,0-3.032,8.489A3.537,3.537,0,0,1,506.951,496.409Z" transform="translate(0 -281.387)" fill="#78e7f6"/>
        <path id="Trazado_213036" data-name="Trazado 213036" d="M619.157,462.375l-2.729-1.9.187-.565a.3.3,0,0,0,.3-.337l.323-.949a.359.359,0,0,0,.171-.321,9.219,9.219,0,0,1,1.246.423,9.577,9.577,0,0,0,3.968.845,17.988,17.988,0,0,0,5.55-.558,2.939,2.939,0,0,0,1.941-1.023,8.777,8.777,0,0,0,.972,2.484,25.69,25.69,0,0,1-2.753,1.785c-.175.055-.351.106-.524.167a12.137,12.137,0,0,1-5.268.677C621.371,462.995,620.307,462.5,619.157,462.375Z" transform="translate(-95.187 -268.248)" fill="#fddbb8"/>
        <path id="Trazado_213037" data-name="Trazado 213037" d="M635.276,445.824a2.939,2.939,0,0,1-1.941,1.023,17.987,17.987,0,0,1-5.55.558,9.577,9.577,0,0,1-3.969-.845,9.216,9.216,0,0,0-1.246-.423,10.766,10.766,0,0,0,.149-1.951c-.086-.645.156-.813.739-.536a2.179,2.179,0,0,0,.376.1,16.8,16.8,0,0,0,7.143.7c1.427-.147,2.738-.756,4.161-.854C635.033,444.348,635.311,445.077,635.276,445.824Z" transform="translate(-100.353 -256.077)" fill="#fdd6a7"/>
        <path id="Trazado_213038" data-name="Trazado 213038" d="M540.15,326.024a15.314,15.314,0,0,1-.006,3.011,3.875,3.875,0,0,1-3.67-2.529c.4.113.794.234,1.186.372a1.458,1.458,0,0,0,1.678-.267A1.674,1.674,0,0,1,540.15,326.024Z" transform="translate(-27.95 -157.266)" fill="#484851"/>
        <path id="Trazado_213039" data-name="Trazado 213039" d="M617.892,467.949a.3.3,0,0,1-.3.337A.283.283,0,0,1,617.892,467.949Z" transform="translate(-96.169 -276.619)" fill="#fdf2e2"/>
        <path id="Trazado_213040" data-name="Trazado 213040" d="M543.6,484.949c1.151.129,2.215.619,3.381.732a12.137,12.137,0,0,0,5.268-.677c.173-.061.349-.111.524-.167a.274.274,0,0,1,.125.4c-1.55,2.673.459,5.067,3.141,5.148a16.826,16.826,0,0,1,4.51.7,11.117,11.117,0,0,1,3.95,2.218,11.908,11.908,0,0,1,3.805,5.527,12.743,12.743,0,0,1,.562,4.448,2.513,2.513,0,0,0,.563,1.994c.262.28.288.6-.267.573-.132-.006-.265,0-.4,0l-42.183,0a3.537,3.537,0,0,0,.96-2.822,11.3,11.3,0,0,1,3.032-8.489,12.107,12.107,0,0,1,5.956-3.676c1.5-.427,3.043-.244,4.527-.578,2.525-.569,3.489-2.379,2.621-4.788A2.63,2.63,0,0,1,543.6,484.949Zm15.922,15.792c-.662,0-1.326-.024-1.987.006a1.23,1.23,0,0,0-1.249,1.187,1.17,1.17,0,0,0,1.106,1.38,20.766,20.766,0,0,0,4.28.009,1.213,1.213,0,0,0,1.148-1.361,1.278,1.278,0,0,0-1.313-1.217C560.843,500.722,560.18,500.741,559.518,500.741Z" transform="translate(-19.627 -290.822)" fill="#4dd0e1"/>
        <path id="Trazado_213041" data-name="Trazado 213041" d="M716.564,584.787c.662,0,1.325-.019,1.987,0a1.278,1.278,0,0,1,1.313,1.217,1.213,1.213,0,0,1-1.148,1.361,20.771,20.771,0,0,1-4.28-.009,1.17,1.17,0,0,1-1.106-1.38,1.23,1.23,0,0,1,1.249-1.187C715.239,584.763,715.9,584.787,716.564,584.787Z" transform="translate(-176.673 -374.868)" fill="#fdf7f7"/>
      </g>
      <text id="Usuario" transform="translate(658.051 4571.767)" fill="#12263f" font-size="16" font-family="Roboto-Bold, Roboto" font-weight="700"><tspan x="0" y="17">Usuario</tspan></text>
      <ellipse id="Elipse_6283" data-name="Elipse 6283" cx="4.5" cy="4.5" rx="4.5" ry="4.5" transform="translate(645.039 4576.767)" fill="#1565c0"/>
    </g>
    <g id="Grupo_97054" data-name="Grupo 97054" transform="translate(1.012 -31.211)">
      <text id="Vista" transform="translate(817 4704.331)" fill="#12263f" font-size="16" font-family="Roboto-Bold, Roboto" font-weight="700"><tspan x="0" y="17">Vista</tspan></text>
      <ellipse id="Elipse_6284" data-name="Elipse 6284" cx="4.5" cy="4.5" rx="4.5" ry="4.5" transform="translate(803.988 4709.331)" fill="#1565c0"/>
    </g>
    <g id="Grupo_97056" data-name="Grupo 97056" transform="translate(130.152 -149.452)">
      <text id="Modelo" transform="translate(817 4704.331)" fill="#12263f" font-size="16" font-family="Roboto-Bold, Roboto" font-weight="700"><tspan x="0" y="17">Modelo</tspan></text>
      <ellipse id="Elipse_6284-2" data-name="Elipse 6284" cx="4.5" cy="4.5" rx="4.5" ry="4.5" transform="translate(803.988 4709.331)" fill="#1565c0"/>
    </g>
    <g id="Grupo_97048" data-name="Grupo 97048" transform="translate(343.867 4219.983)">
      <path id="Trazado_213045" data-name="Trazado 213045" d="M655.265,299.08c0,5.822-.13,11.649.044,17.466a9.337,9.337,0,0,1-4.647,8.822,34.875,34.875,0,0,1-8.389,3.935c-14.164,4.033-28.359,4.051-42.373-.715a31.184,31.184,0,0,1-7.583-4.186c-2.432-1.7-3.42-4.293-3.407-7.341.049-12.188.012-24.376-.006-36.563a9.009,9.009,0,0,1,3.835-7.322,28.375,28.375,0,0,1,10.955-5.01c13.466-3.377,26.88-3.292,40.116,1.063a31.387,31.387,0,0,1,7.555,3.951,8.833,8.833,0,0,1,3.935,7.988C655.173,287.137,655.266,293.11,655.265,299.08ZM620,289.527c8.208.016,14.359-.508,20.262-2.437a33.707,33.707,0,0,0,7.965-3.752c3.145-2.064,3.138-4.46.026-6.54a27.469,27.469,0,0,0-7.528-3.638,67.41,67.41,0,0,0-37.361-.013,18.9,18.9,0,0,0-8.419,4.443c-1.648,1.618-1.752,3.4.012,4.876a21.43,21.43,0,0,0,5.338,3.349A53.458,53.458,0,0,0,620,289.527Zm30.511-1.318c-19.011,8.261-37.831,8.209-56.835.023,0,2.936.106,6.078-.034,9.209a5.571,5.571,0,0,0,2.8,5.314,21.317,21.317,0,0,0,2.169,1.264c5.823,2.832,12.067,3.917,18.455,4.282,8.726.5,17.381.074,25.643-3.092a31.469,31.469,0,0,0,6.451-3.757,3.608,3.608,0,0,0,1.291-2.507C650.594,295.305,650.512,291.657,650.512,288.21Zm-56.834,18.969c0,3.09.083,6.342-.031,9.587a4.714,4.714,0,0,0,2.271,4.506,28.621,28.621,0,0,0,5.607,2.925c12.3,4.187,24.787,4.109,37.329,1.246a24.048,24.048,0,0,0,9.645-4.315,4.792,4.792,0,0,0,2.052-4.184c-.107-2.954-.026-5.916-.035-8.874a7.271,7.271,0,0,0-.07-.863C631.48,315.385,612.7,315.367,593.678,307.179Z" transform="translate(0 0)" fill="#12263f"/>
      <path id="Trazado_213046" data-name="Trazado 213046" d="M631.333,300.772a53.457,53.457,0,0,1-19.7-3.713,21.43,21.43,0,0,1-5.338-3.349c-1.764-1.472-1.66-3.258-.012-4.876a18.9,18.9,0,0,1,8.419-4.443,67.41,67.41,0,0,1,37.361.013,27.47,27.47,0,0,1,7.528,3.638c3.112,2.081,3.119,4.476-.026,6.54a33.7,33.7,0,0,1-7.965,3.752C645.692,300.264,639.542,300.788,631.333,300.772Z" transform="translate(-11.333 -11.245)" fill="#ffca28"/>
      <path id="Trazado_213047" data-name="Trazado 213047" d="M661.755,341.525c0,3.447.082,7.1-.06,10.736a3.608,3.608,0,0,1-1.291,2.507,31.466,31.466,0,0,1-6.451,3.757c-8.261,3.167-16.917,3.591-25.643,3.092-6.388-.365-12.632-1.45-18.455-4.282a21.3,21.3,0,0,1-2.17-1.264,5.571,5.571,0,0,1-2.8-5.314c.14-3.131.034-6.272.034-9.209C623.924,349.734,642.744,349.786,661.755,341.525Z" transform="translate(-11.244 -53.315)" fill="#fff"/>
      <path id="Trazado_213048" data-name="Trazado 213048" d="M604.94,405.588c19.025,8.189,37.8,8.206,56.768.028a7.258,7.258,0,0,1,.07.863c.009,2.958-.072,5.92.035,8.874a4.792,4.792,0,0,1-2.052,4.184,24.047,24.047,0,0,1-9.645,4.315c-12.542,2.863-25.03,2.941-37.329-1.246a28.624,28.624,0,0,1-5.607-2.925,4.714,4.714,0,0,1-2.271-4.506C605.023,411.93,604.94,408.678,604.94,405.588Z" transform="translate(-11.262 -98.41)" fill="#ffca28"/>
    </g>
    <path id="Trazado_213058" data-name="Trazado 213058" d="M265.111,1058.69a2.105,2.105,0,0,0,2.877.771l9.268-5.351a2.106,2.106,0,0,0,0-3.648l-9.268-5.351a2.106,2.106,0,1,0-2.106,3.648l2.259,1.3a59.5,59.5,0,0,0-34.12,13.064,60.514,60.514,0,0,0-21.006,33.034,2.106,2.106,0,1,0,4.1.979,55.8,55.8,0,0,1,51.456-42.879l-2.687,1.551A2.106,2.106,0,0,0,265.111,1058.69Z" transform="translate(495.905 3416.288)" fill="#4dd0e1"/>
    <path id="Trazado_213059" data-name="Trazado 213059" d="M52.154,13.861a2.105,2.105,0,0,0,2.877.771L64.3,9.281a2.106,2.106,0,0,0,0-3.648L55.031.283a2.106,2.106,0,1,0-2.106,3.648l2.259,1.3A59.5,59.5,0,0,0,21.064,18.3,60.515,60.515,0,0,0,.058,51.333a2.106,2.106,0,1,0,4.1.979A55.8,55.8,0,0,1,55.612,9.433l-2.687,1.551A2.106,2.106,0,0,0,52.154,13.861Z" transform="translate(922.757 4431.035) rotate(43)" fill="#4dd0e1"/>
    <path id="Trazado_213060" data-name="Trazado 213060" d="M52.154,13.861a2.105,2.105,0,0,0,2.877.771L64.3,9.281a2.106,2.106,0,0,0,0-3.648L55.031.283a2.106,2.106,0,1,0-2.106,3.648l2.259,1.3A59.5,59.5,0,0,0,21.064,18.3,60.515,60.515,0,0,0,.058,51.333a2.106,2.106,0,1,0,4.1.979A55.8,55.8,0,0,1,55.612,9.433l-2.687,1.551A2.106,2.106,0,0,0,52.154,13.861Z" transform="translate(930.367 4620.269) rotate(-137)" fill="#4dd0e1"/>
    <path id="Trazado_213066" data-name="Trazado 213066" d="M63.407,16.852a2.559,2.559,0,0,0,3.5.937l11.268-6.505a2.561,2.561,0,0,0,0-4.435L66.9.344a2.561,2.561,0,1,0-2.56,4.435l2.747,1.586A72.339,72.339,0,0,0,25.609,22.248,73.572,73.572,0,0,0,.071,62.409,2.561,2.561,0,1,0,5.052,63.6,67.84,67.84,0,0,1,67.611,11.468l-3.266,1.886A2.561,2.561,0,0,0,63.407,16.852Z" transform="translate(720.007 4673.353) rotate(-109)" fill="#4dd0e1"/>
    <g id="Grupo_97052" data-name="Grupo 97052" transform="translate(-2.551 3.379)">
      <path id="Sustracci칩n_17" data-name="Sustracci칩n 17" d="M5348.5,11770.285a2.117,2.117,0,0,1-1.825-1.055l-5.35-9.267a2.106,2.106,0,1,1,3.648-2.106l1.551,2.686c-.017-.319-.038-.659-.065-1.038l.9,1.8,3.867-.4.437-2.41.367-.636a2.106,2.106,0,1,1,3.648,2.106l-5.353,9.267A2.108,2.108,0,0,1,5348.5,11770.285Z" transform="translate(-4513.494 -7180.102)" fill="#4dd0e1" stroke="rgba(0,0,0,0)" stroke-miterlimit="10" stroke-width="1"/>
      <rect id="Rect치ngulo_42341" data-name="Rect치ngulo 42341" width="4" height="21" transform="translate(833 4561)" fill="#4dd0e1"/>
    </g>
    <g id="Grupo_97053" data-name="Grupo 97053" transform="translate(-1450.265 3935.358)">
      <path id="Trazado_213063" data-name="Trazado 213063" d="M2345.754,681.707H2362.1c.018.395.043.7.043,1.007q0,18.412,0,36.825c0,1.056,0,1.057-1.087,1.057H2322.45V665.414h23.3Z" transform="translate(-54.881)" fill="#fffdf6"/>
      <path id="Trazado_213064" data-name="Trazado 213064" d="M2296.939,779.781c0,1.884.012,3.645-.021,5.4,0,.156-.285.35-.478.444a1.356,1.356,0,0,1-.546.018h-38.629V730.506a2.93,2.93,0,0,1,.468-.078c1.735-.005,3.47,0,5.292,0,.019.394.047.723.048,1.052q0,23.595,0,47.19c0,1.113,0,1.115,1.1,1.115h32.768Z" transform="translate(0 -54.734)" fill="#ffca28"/>
      <path id="Trazado_213065" data-name="Trazado 213065" d="M2498.4,676.365l10.016,10.064H2498.4Z" transform="translate(-203.02 -9.22)" fill="#ffca28"/>
    </g>
    <text id="Controlador" transform="translate(787 4501)" fill="#12263f" font-size="16" font-family="Roboto-Bold, Roboto" font-weight="700"><tspan x="0" y="17">Controlador</tspan></text>
  </g>
</svg>
