<?xml version="1.0" encoding="utf-8"?>
<!-- Generator: Adobe Illustrator 25.4.2, SVG Export Plug-In . SVG Version: 6.00 Build 0)  -->
<svg version="1.1" id="Capa_1" xmlns="http://www.w3.org/2000/svg" xmlns:xlink="http://www.w3.org/1999/xlink" x="0px" y="0px"
	 viewBox="0 0 456 216" style="enable-background:new 0 0 456 216;" xml:space="preserve">
<style type="text/css">
	.st0{fill:#FFFFFF;}
	.st1{fill:none;stroke:#12263F;stroke-width:2;}
	.st2{fill:#4DD0E1;}
	.st3{fill:#12263F;}
	.st4{enable-background:new    ;}
	.st5{fill:#039BE5;}
	.st6{fill:#FFCA28;}
	.st7{fill:#26A69A;}
</style>
<g id="Grupo_106889" transform="translate(-833 -2241)">
	<g id="Rectángulo_45466" transform="translate(833 2250)">
		<rect class="st0" width="456" height="207"/>
		<rect x="1" y="1" class="st1" width="454" height="205"/>
	</g>
	<g id="Rectángulo_45467" transform="translate(833 2241)">
		<rect class="st0" width="142" height="11"/>
		<rect x="1" y="1" class="st1" width="140" height="9"/>
	</g>
	<g id="Grupo_106681" transform="translate(49.672 409.5)">
		<g id="Grupo_106676" transform="translate(-135.5 -77.5)">
			<g id="Trazado_218228" transform="translate(965.112 1969)">
				<path class="st2" d="M167.5,59H2.9c-0.6,0-1-0.5-1.2-0.8C1.2,57.7,1,56.8,1,56V4.1c0-0.9,0.2-1.7,0.7-2.3C1.9,1.5,2.3,1,2.9,1
					h164.6c0.6,0,1,0.5,1.2,0.8c0.4,0.6,0.7,1.4,0.7,2.3V56c0,0.9-0.2,1.7-0.7,2.3C168.5,58.6,168.1,59,167.5,59z"/>
				<path class="st3" d="M2.9,2C2.7,2,2,2.7,2,4.1V56C2,57.3,2.7,58,2.9,58h164.6c0.2,0,0.9-0.7,0.9-2.1V4.1c0-1.3-0.7-2.1-0.9-2.1
					H2.9 M2.9,0h164.6c1.6,0,2.9,1.8,2.9,4.1V56c0,2.2-1.3,4.1-2.9,4.1H2.9C1.3,60,0,58.2,0,56V4.1C0,1.8,1.3,0,2.9,0z"/>
			</g>
			<g id="Trazado_218229" transform="translate(945.5 1983.605)">
				<path class="st2" d="M39.5,12H1V1h38.5V12z"/>
				<path class="st3" d="M2,2v9h36.5V2H2 M0.7,0h39.1c0.4,0,0.7,0.4,0.7,0.9v11.2c0,0.5-0.3,0.9-0.7,0.9H0.7C0.3,13,0,12.6,0,12.1
					V0.9C0,0.4,0.3,0,0.7,0z"/>
			</g>
			<g id="Trazado_218230" transform="translate(945.5 2005.512)">
				<path class="st2" d="M39.5,12H1V1h38.5V12z"/>
				<path class="st3" d="M2,2v9h36.5V2H2 M0.7,0h39.1c0.4,0,0.7,0.4,0.7,0.9v11.2c0,0.5-0.3,0.9-0.7,0.9H0.7C0.3,13,0,12.6,0,12.1
					V0.9C0,0.4,0.3,0,0.7,0z"/>
			</g>
			<g class="st4">
				<path class="st3" d="M1013.8,1999.2c-0.1,1.4-0.6,2.5-1.5,3.3s-2.1,1.2-3.6,1.2c-1.6,0-2.9-0.6-3.9-1.7s-1.4-2.6-1.4-4.5v-0.8
					c0-1.2,0.2-2.3,0.7-3.3s1.1-1.7,1.9-2.2c0.8-0.5,1.7-0.8,2.8-0.8c1.5,0,2.7,0.4,3.6,1.2s1.4,1.9,1.6,3.3h-2.6
					c-0.1-0.8-0.3-1.4-0.7-1.8s-1-0.6-1.8-0.6c-0.9,0-1.5,0.3-2,0.9s-0.7,1.6-0.7,2.9v1c0,1.4,0.2,2.4,0.6,3s1.1,1,2,1
					c0.8,0,1.4-0.2,1.8-0.6s0.6-0.9,0.7-1.7H1013.8z"/>
				<path class="st3" d="M1014.9,1998.7c0-0.9,0.2-1.8,0.5-2.5s0.9-1.3,1.6-1.7s1.5-0.6,2.4-0.6c1.3,0,2.3,0.4,3.1,1.2
					s1.3,1.9,1.4,3.2l0,0.7c0,1.5-0.4,2.6-1.2,3.5s-1.9,1.3-3.3,1.3s-2.5-0.4-3.3-1.3s-1.2-2.1-1.2-3.6V1998.7z M1017.5,1998.8
					c0,0.9,0.2,1.6,0.5,2.1c0.3,0.5,0.8,0.7,1.5,0.7c0.6,0,1.1-0.2,1.4-0.7c0.3-0.5,0.5-1.2,0.5-2.3c0-0.9-0.2-1.6-0.5-2.1
					s-0.8-0.7-1.5-0.7c-0.6,0-1.1,0.2-1.4,0.7C1017.6,1997.1,1017.5,1997.8,1017.5,1998.8z"/>
				<path class="st3" d="M1027.9,1994l0.1,1.1c0.7-0.8,1.6-1.2,2.7-1.2c1.2,0,2.1,0.5,2.5,1.5c0.7-1,1.6-1.5,2.9-1.5
					c1,0,1.8,0.3,2.3,0.9c0.5,0.6,0.8,1.5,0.8,2.7v6.1h-2.5v-6.1c0-0.5-0.1-0.9-0.3-1.2s-0.6-0.4-1.1-0.4c-0.8,0-1.3,0.4-1.6,1.1
					l0,6.5h-2.5v-6.1c0-0.6-0.1-0.9-0.3-1.2s-0.6-0.4-1.1-0.4c-0.7,0-1.2,0.3-1.6,0.9v6.7h-2.5v-9.5H1027.9z"/>
				<path class="st3" d="M1049.7,1998.8c0,1.5-0.3,2.6-1,3.5s-1.6,1.3-2.7,1.3c-1,0-1.7-0.3-2.3-1v4.5h-2.5V1994h2.4l0.1,0.9
					c0.6-0.7,1.4-1.1,2.4-1.1c1.2,0,2.1,0.4,2.7,1.3s1,2.1,1,3.6V1998.8z M1047.1,1998.7c0-0.9-0.2-1.6-0.5-2s-0.8-0.7-1.4-0.7
					c-0.8,0-1.3,0.3-1.6,0.9v3.9c0.3,0.6,0.9,0.9,1.7,0.9C1046.5,2001.6,1047.1,2000.6,1047.1,1998.7z"/>
				<path class="st3" d="M1050.8,1998.7c0-0.9,0.2-1.8,0.5-2.5s0.9-1.3,1.6-1.7s1.5-0.6,2.4-0.6c1.3,0,2.3,0.4,3.1,1.2
					s1.3,1.9,1.4,3.2l0,0.7c0,1.5-0.4,2.6-1.2,3.5s-1.9,1.3-3.3,1.3s-2.5-0.4-3.3-1.3s-1.2-2.1-1.2-3.6V1998.7z M1053.4,1998.8
					c0,0.9,0.2,1.6,0.5,2.1c0.3,0.5,0.8,0.7,1.5,0.7c0.6,0,1.1-0.2,1.4-0.7c0.3-0.5,0.5-1.2,0.5-2.3c0-0.9-0.2-1.6-0.5-2.1
					s-0.8-0.7-1.5-0.7c-0.6,0-1.1,0.2-1.4,0.7C1053.5,1997.1,1053.4,1997.8,1053.4,1998.8z"/>
				<path class="st3" d="M1063.7,1994l0.1,1.1c0.7-0.8,1.6-1.3,2.7-1.3c1,0,1.8,0.3,2.2,0.9s0.7,1.5,0.8,2.7v6.1h-2.5v-6.1
					c0-0.5-0.1-0.9-0.4-1.2c-0.2-0.2-0.6-0.4-1.2-0.4c-0.7,0-1.3,0.3-1.6,0.9v6.7h-2.5v-9.5H1063.7z"/>
				<path class="st3" d="M1075.9,2003.7c-1.4,0-2.5-0.4-3.4-1.3s-1.3-2-1.3-3.4v-0.2c0-1,0.2-1.8,0.6-2.6s0.9-1.3,1.6-1.7
					s1.4-0.6,2.3-0.6c1.3,0,2.3,0.4,3.1,1.2s1.1,2,1.1,3.5v1h-6.1c0.1,0.6,0.3,1.1,0.7,1.5s0.9,0.6,1.6,0.6c1,0,1.7-0.4,2.3-1.1
					l1.2,1.4c-0.4,0.5-0.9,1-1.5,1.3C1077.4,2003.5,1076.7,2003.7,1075.9,2003.7z M1075.6,1995.9c-0.5,0-0.9,0.2-1.2,0.5
					c-0.3,0.3-0.5,0.8-0.6,1.5h3.5v-0.2c0-0.6-0.2-1-0.5-1.3C1076.5,1996,1076.1,1995.9,1075.6,1995.9z"/>
				<path class="st3" d="M1083.5,1994l0.1,1.1c0.7-0.8,1.6-1.3,2.7-1.3c1,0,1.8,0.3,2.2,0.9s0.7,1.5,0.8,2.7v6.1h-2.5v-6.1
					c0-0.5-0.1-0.9-0.4-1.2c-0.2-0.2-0.6-0.4-1.2-0.4c-0.7,0-1.3,0.3-1.6,0.9v6.7h-2.5v-9.5H1083.5z"/>
				<path class="st3" d="M1094.3,1991.7v2.3h1.6v1.9h-1.6v4.7c0,0.4,0.1,0.6,0.2,0.8s0.4,0.2,0.8,0.2c0.3,0,0.5,0,0.7-0.1v1.9
					c-0.5,0.2-1,0.2-1.5,0.2c-1.8,0-2.7-0.9-2.7-2.7v-5.1h-1.4v-1.9h1.4v-2.3H1094.3z"/>
				<path class="st3" d="M1101.8,2003.7c-1.4,0-2.5-0.4-3.4-1.3s-1.3-2-1.3-3.4v-0.2c0-1,0.2-1.8,0.6-2.6s0.9-1.3,1.6-1.7
					s1.4-0.6,2.3-0.6c1.3,0,2.3,0.4,3.1,1.2s1.1,2,1.1,3.5v1h-6.1c0.1,0.6,0.3,1.1,0.7,1.5s0.9,0.6,1.6,0.6c1,0,1.7-0.4,2.3-1.1
					l1.2,1.4c-0.4,0.5-0.9,1-1.5,1.3C1103.3,2003.5,1102.5,2003.7,1101.8,2003.7z M1101.5,1995.9c-0.5,0-0.9,0.2-1.2,0.5
					c-0.3,0.3-0.5,0.8-0.6,1.5h3.5v-0.2c0-0.6-0.2-1-0.5-1.3C1102.4,1996,1102,1995.9,1101.5,1995.9z"/>
			</g>
		</g>
	</g>
	<g id="Grupo_106682" transform="translate(49.672 490)">
		<g id="Grupo_106676-2" transform="translate(-135.5 -77.5)">
			<g id="Trazado_218228-2" transform="translate(965.112 1969)">
				<path class="st5" d="M167.5,59H2.9c-0.6,0-1-0.5-1.2-0.8C1.2,57.7,1,56.8,1,56V4.1c0-0.9,0.2-1.7,0.7-2.3C1.9,1.5,2.3,1,2.9,1
					h164.6c0.6,0,1,0.5,1.2,0.8c0.4,0.6,0.7,1.4,0.7,2.3V56c0,0.9-0.2,1.7-0.7,2.3C168.5,58.6,168.1,59,167.5,59z"/>
				<path class="st3" d="M2.9,2C2.7,2,2,2.7,2,4.1V56C2,57.3,2.7,58,2.9,58h164.6c0.2,0,0.9-0.7,0.9-2.1V4.1c0-1.3-0.7-2.1-0.9-2.1
					H2.9 M2.9,0h164.6c1.6,0,2.9,1.8,2.9,4.1V56c0,2.2-1.3,4.1-2.9,4.1H2.9C1.3,60,0,58.2,0,56V4.1C0,1.8,1.3,0,2.9,0z"/>
			</g>
			<g id="Trazado_218229-2" transform="translate(945.5 1983.605)">
				<path class="st5" d="M39.5,12H1V1h38.5V12z"/>
				<path class="st3" d="M2,2v9h36.5V2H2 M0.7,0h39.1c0.4,0,0.7,0.4,0.7,0.9v11.2c0,0.5-0.3,0.9-0.7,0.9H0.7C0.3,13,0,12.6,0,12.1
					V0.9C0,0.4,0.3,0,0.7,0z"/>
			</g>
			<g id="Trazado_218230-2" transform="translate(945.5 2005.512)">
				<path class="st5" d="M39.5,12H1V1h38.5V12z"/>
				<path class="st3" d="M2,2v9h36.5V2H2 M0.7,0h39.1c0.4,0,0.7,0.4,0.7,0.9v11.2c0,0.5-0.3,0.9-0.7,0.9H0.7C0.3,13,0,12.6,0,12.1
					V0.9C0,0.4,0.3,0,0.7,0z"/>
			</g>
			<g class="st4">
				<path class="st0" d="M1013.8,1999.2c-0.1,1.4-0.6,2.5-1.5,3.3s-2.1,1.2-3.6,1.2c-1.6,0-2.9-0.6-3.9-1.7s-1.4-2.6-1.4-4.5v-0.8
					c0-1.2,0.2-2.3,0.7-3.3s1.1-1.7,1.9-2.2c0.8-0.5,1.7-0.8,2.8-0.8c1.5,0,2.7,0.4,3.6,1.2s1.4,1.9,1.6,3.3h-2.6
					c-0.1-0.8-0.3-1.4-0.7-1.8s-1-0.6-1.8-0.6c-0.9,0-1.5,0.3-2,0.9s-0.7,1.6-0.7,2.9v1c0,1.4,0.2,2.4,0.6,3s1.1,1,2,1
					c0.8,0,1.4-0.2,1.8-0.6s0.6-0.9,0.7-1.7H1013.8z"/>
				<path class="st0" d="M1014.9,1998.7c0-0.9,0.2-1.8,0.5-2.5s0.9-1.3,1.6-1.7s1.5-0.6,2.4-0.6c1.3,0,2.3,0.4,3.1,1.2
					s1.3,1.9,1.4,3.2l0,0.7c0,1.5-0.4,2.6-1.2,3.5s-1.9,1.3-3.3,1.3s-2.5-0.4-3.3-1.3s-1.2-2.1-1.2-3.6V1998.7z M1017.5,1998.8
					c0,0.9,0.2,1.6,0.5,2.1c0.3,0.5,0.8,0.7,1.5,0.7c0.6,0,1.1-0.2,1.4-0.7c0.3-0.5,0.5-1.2,0.5-2.3c0-0.9-0.2-1.6-0.5-2.1
					s-0.8-0.7-1.5-0.7c-0.6,0-1.1,0.2-1.4,0.7C1017.6,1997.1,1017.5,1997.8,1017.5,1998.8z"/>
				<path class="st0" d="M1027.9,1994l0.1,1.1c0.7-0.8,1.6-1.2,2.7-1.2c1.2,0,2.1,0.5,2.5,1.5c0.7-1,1.6-1.5,2.9-1.5
					c1,0,1.8,0.3,2.3,0.9c0.5,0.6,0.8,1.5,0.8,2.7v6.1h-2.5v-6.1c0-0.5-0.1-0.9-0.3-1.2s-0.6-0.4-1.1-0.4c-0.8,0-1.3,0.4-1.6,1.1
					l0,6.5h-2.5v-6.1c0-0.6-0.1-0.9-0.3-1.2s-0.6-0.4-1.1-0.4c-0.7,0-1.2,0.3-1.6,0.9v6.7h-2.5v-9.5H1027.9z"/>
				<path class="st0" d="M1049.7,1998.8c0,1.5-0.3,2.6-1,3.5s-1.6,1.3-2.7,1.3c-1,0-1.7-0.3-2.3-1v4.5h-2.5V1994h2.4l0.1,0.9
					c0.6-0.7,1.4-1.1,2.4-1.1c1.2,0,2.1,0.4,2.7,1.3s1,2.1,1,3.6V1998.8z M1047.1,1998.7c0-0.9-0.2-1.6-0.5-2s-0.8-0.7-1.4-0.7
					c-0.8,0-1.3,0.3-1.6,0.9v3.9c0.3,0.6,0.9,0.9,1.7,0.9C1046.5,2001.6,1047.1,2000.6,1047.1,1998.7z"/>
				<path class="st0" d="M1050.8,1998.7c0-0.9,0.2-1.8,0.5-2.5s0.9-1.3,1.6-1.7s1.5-0.6,2.4-0.6c1.3,0,2.3,0.4,3.1,1.2
					s1.3,1.9,1.4,3.2l0,0.7c0,1.5-0.4,2.6-1.2,3.5s-1.9,1.3-3.3,1.3s-2.5-0.4-3.3-1.3s-1.2-2.1-1.2-3.6V1998.7z M1053.4,1998.8
					c0,0.9,0.2,1.6,0.5,2.1c0.3,0.5,0.8,0.7,1.5,0.7c0.6,0,1.1-0.2,1.4-0.7c0.3-0.5,0.5-1.2,0.5-2.3c0-0.9-0.2-1.6-0.5-2.1
					s-0.8-0.7-1.5-0.7c-0.6,0-1.1,0.2-1.4,0.7C1053.5,1997.1,1053.4,1997.8,1053.4,1998.8z"/>
				<path class="st0" d="M1063.7,1994l0.1,1.1c0.7-0.8,1.6-1.3,2.7-1.3c1,0,1.8,0.3,2.2,0.9s0.7,1.5,0.8,2.7v6.1h-2.5v-6.1
					c0-0.5-0.1-0.9-0.4-1.2c-0.2-0.2-0.6-0.4-1.2-0.4c-0.7,0-1.3,0.3-1.6,0.9v6.7h-2.5v-9.5H1063.7z"/>
				<path class="st0" d="M1075.9,2003.7c-1.4,0-2.5-0.4-3.4-1.3s-1.3-2-1.3-3.4v-0.2c0-1,0.2-1.8,0.6-2.6s0.9-1.3,1.6-1.7
					s1.4-0.6,2.3-0.6c1.3,0,2.3,0.4,3.1,1.2s1.1,2,1.1,3.5v1h-6.1c0.1,0.6,0.3,1.1,0.7,1.5s0.9,0.6,1.6,0.6c1,0,1.7-0.4,2.3-1.1
					l1.2,1.4c-0.4,0.5-0.9,1-1.5,1.3C1077.4,2003.5,1076.7,2003.7,1075.9,2003.7z M1075.6,1995.9c-0.5,0-0.9,0.2-1.2,0.5
					c-0.3,0.3-0.5,0.8-0.6,1.5h3.5v-0.2c0-0.6-0.2-1-0.5-1.3C1076.5,1996,1076.1,1995.9,1075.6,1995.9z"/>
				<path class="st0" d="M1083.5,1994l0.1,1.1c0.7-0.8,1.6-1.3,2.7-1.3c1,0,1.8,0.3,2.2,0.9s0.7,1.5,0.8,2.7v6.1h-2.5v-6.1
					c0-0.5-0.1-0.9-0.4-1.2c-0.2-0.2-0.6-0.4-1.2-0.4c-0.7,0-1.3,0.3-1.6,0.9v6.7h-2.5v-9.5H1083.5z"/>
				<path class="st0" d="M1094.3,1991.7v2.3h1.6v1.9h-1.6v4.7c0,0.4,0.1,0.6,0.2,0.8s0.4,0.2,0.8,0.2c0.3,0,0.5,0,0.7-0.1v1.9
					c-0.5,0.2-1,0.2-1.5,0.2c-1.8,0-2.7-0.9-2.7-2.7v-5.1h-1.4v-1.9h1.4v-2.3H1094.3z"/>
				<path class="st0" d="M1101.8,2003.7c-1.4,0-2.5-0.4-3.4-1.3s-1.3-2-1.3-3.4v-0.2c0-1,0.2-1.8,0.6-2.6s0.9-1.3,1.6-1.7
					s1.4-0.6,2.3-0.6c1.3,0,2.3,0.4,3.1,1.2s1.1,2,1.1,3.5v1h-6.1c0.1,0.6,0.3,1.1,0.7,1.5s0.9,0.6,1.6,0.6c1,0,1.7-0.4,2.3-1.1
					l1.2,1.4c-0.4,0.5-0.9,1-1.5,1.3C1103.3,2003.5,1102.5,2003.7,1101.8,2003.7z M1101.5,1995.9c-0.5,0-0.9,0.2-1.2,0.5
					c-0.3,0.3-0.5,0.8-0.6,1.5h3.5v-0.2c0-0.6-0.2-1-0.5-1.3C1102.4,1996,1102,1995.9,1101.5,1995.9z"/>
			</g>
		</g>
	</g>
	<g id="Grupo_106683" transform="translate(259.672 409.5)">
		<g id="Grupo_106676-3" transform="translate(-135.5 -77.5)">
			<g id="Trazado_218228-3" transform="translate(965.112 1969)">
				<path class="st6" d="M167.5,59H2.9c-0.6,0-1-0.5-1.2-0.8C1.2,57.7,1,56.8,1,56V4.1c0-0.9,0.2-1.7,0.7-2.3C1.9,1.5,2.3,1,2.9,1
					h164.6c0.6,0,1,0.5,1.2,0.8c0.4,0.6,0.7,1.4,0.7,2.3V56c0,0.9-0.2,1.7-0.7,2.3C168.5,58.6,168.1,59,167.5,59z"/>
				<path class="st3" d="M2.9,2C2.7,2,2,2.7,2,4.1V56C2,57.3,2.7,58,2.9,58h164.6c0.2,0,0.9-0.7,0.9-2.1V4.1c0-1.3-0.7-2.1-0.9-2.1
					H2.9 M2.9,0h164.6c1.6,0,2.9,1.8,2.9,4.1V56c0,2.2-1.3,4.1-2.9,4.1H2.9C1.3,60,0,58.2,0,56V4.1C0,1.8,1.3,0,2.9,0z"/>
			</g>
			<g id="Trazado_218229-3" transform="translate(945.5 1983.605)">
				<path class="st6" d="M39.5,12H1V1h38.5V12z"/>
				<path class="st3" d="M2,2v9h36.5V2H2 M0.7,0h39.1c0.4,0,0.7,0.4,0.7,0.9v11.2c0,0.5-0.3,0.9-0.7,0.9H0.7C0.3,13,0,12.6,0,12.1
					V0.9C0,0.4,0.3,0,0.7,0z"/>
			</g>
			<g id="Trazado_218230-3" transform="translate(945.5 2005.512)">
				<path class="st6" d="M39.5,12H1V1h38.5V12z"/>
				<path class="st3" d="M2,2v9h36.5V2H2 M0.7,0h39.1c0.4,0,0.7,0.4,0.7,0.9v11.2c0,0.5-0.3,0.9-0.7,0.9H0.7C0.3,13,0,12.6,0,12.1
					V0.9C0,0.4,0.3,0,0.7,0z"/>
			</g>
			<g class="st4">
				<path class="st3" d="M1013.8,1999.2c-0.1,1.4-0.6,2.5-1.5,3.3s-2.1,1.2-3.6,1.2c-1.6,0-2.9-0.6-3.9-1.7s-1.4-2.6-1.4-4.5v-0.8
					c0-1.2,0.2-2.3,0.7-3.3s1.1-1.7,1.9-2.2c0.8-0.5,1.7-0.8,2.8-0.8c1.5,0,2.7,0.4,3.6,1.2s1.4,1.9,1.6,3.3h-2.6
					c-0.1-0.8-0.3-1.4-0.7-1.8s-1-0.6-1.8-0.6c-0.9,0-1.5,0.3-2,0.9s-0.7,1.6-0.7,2.9v1c0,1.4,0.2,2.4,0.6,3s1.1,1,2,1
					c0.8,0,1.4-0.2,1.8-0.6s0.6-0.9,0.7-1.7H1013.8z"/>
				<path class="st3" d="M1014.9,1998.7c0-0.9,0.2-1.8,0.5-2.5s0.9-1.3,1.6-1.7s1.5-0.6,2.4-0.6c1.3,0,2.3,0.4,3.1,1.2
					s1.3,1.9,1.4,3.2l0,0.7c0,1.5-0.4,2.6-1.2,3.5s-1.9,1.3-3.3,1.3s-2.5-0.4-3.3-1.3s-1.2-2.1-1.2-3.6V1998.7z M1017.5,1998.8
					c0,0.9,0.2,1.6,0.5,2.1c0.3,0.5,0.8,0.7,1.5,0.7c0.6,0,1.1-0.2,1.4-0.7c0.3-0.5,0.5-1.2,0.5-2.3c0-0.9-0.2-1.6-0.5-2.1
					s-0.8-0.7-1.5-0.7c-0.6,0-1.1,0.2-1.4,0.7C1017.6,1997.1,1017.5,1997.8,1017.5,1998.8z"/>
				<path class="st3" d="M1027.9,1994l0.1,1.1c0.7-0.8,1.6-1.2,2.7-1.2c1.2,0,2.1,0.5,2.5,1.5c0.7-1,1.6-1.5,2.9-1.5
					c1,0,1.8,0.3,2.3,0.9c0.5,0.6,0.8,1.5,0.8,2.7v6.1h-2.5v-6.1c0-0.5-0.1-0.9-0.3-1.2s-0.6-0.4-1.1-0.4c-0.8,0-1.3,0.4-1.6,1.1
					l0,6.5h-2.5v-6.1c0-0.6-0.1-0.9-0.3-1.2s-0.6-0.4-1.1-0.4c-0.7,0-1.2,0.3-1.6,0.9v6.7h-2.5v-9.5H1027.9z"/>
				<path class="st3" d="M1049.7,1998.8c0,1.5-0.3,2.6-1,3.5s-1.6,1.3-2.7,1.3c-1,0-1.7-0.3-2.3-1v4.5h-2.5V1994h2.4l0.1,0.9
					c0.6-0.7,1.4-1.1,2.4-1.1c1.2,0,2.1,0.4,2.7,1.3s1,2.1,1,3.6V1998.8z M1047.1,1998.7c0-0.9-0.2-1.6-0.5-2s-0.8-0.7-1.4-0.7
					c-0.8,0-1.3,0.3-1.6,0.9v3.9c0.3,0.6,0.9,0.9,1.7,0.9C1046.5,2001.6,1047.1,2000.6,1047.1,1998.7z"/>
				<path class="st3" d="M1050.8,1998.7c0-0.9,0.2-1.8,0.5-2.5s0.9-1.3,1.6-1.7s1.5-0.6,2.4-0.6c1.3,0,2.3,0.4,3.1,1.2
					s1.3,1.9,1.4,3.2l0,0.7c0,1.5-0.4,2.6-1.2,3.5s-1.9,1.3-3.3,1.3s-2.5-0.4-3.3-1.3s-1.2-2.1-1.2-3.6V1998.7z M1053.4,1998.8
					c0,0.9,0.2,1.6,0.5,2.1c0.3,0.5,0.8,0.7,1.5,0.7c0.6,0,1.1-0.2,1.4-0.7c0.3-0.5,0.5-1.2,0.5-2.3c0-0.9-0.2-1.6-0.5-2.1
					s-0.8-0.7-1.5-0.7c-0.6,0-1.1,0.2-1.4,0.7C1053.5,1997.1,1053.4,1997.8,1053.4,1998.8z"/>
				<path class="st3" d="M1063.7,1994l0.1,1.1c0.7-0.8,1.6-1.3,2.7-1.3c1,0,1.8,0.3,2.2,0.9s0.7,1.5,0.8,2.7v6.1h-2.5v-6.1
					c0-0.5-0.1-0.9-0.4-1.2c-0.2-0.2-0.6-0.4-1.2-0.4c-0.7,0-1.3,0.3-1.6,0.9v6.7h-2.5v-9.5H1063.7z"/>
				<path class="st3" d="M1075.9,2003.7c-1.4,0-2.5-0.4-3.4-1.3s-1.3-2-1.3-3.4v-0.2c0-1,0.2-1.8,0.6-2.6s0.9-1.3,1.6-1.7
					s1.4-0.6,2.3-0.6c1.3,0,2.3,0.4,3.1,1.2s1.1,2,1.1,3.5v1h-6.1c0.1,0.6,0.3,1.1,0.7,1.5s0.9,0.6,1.6,0.6c1,0,1.7-0.4,2.3-1.1
					l1.2,1.4c-0.4,0.5-0.9,1-1.5,1.3C1077.4,2003.5,1076.7,2003.7,1075.9,2003.7z M1075.6,1995.9c-0.5,0-0.9,0.2-1.2,0.5
					c-0.3,0.3-0.5,0.8-0.6,1.5h3.5v-0.2c0-0.6-0.2-1-0.5-1.3C1076.5,1996,1076.1,1995.9,1075.6,1995.9z"/>
				<path class="st3" d="M1083.5,1994l0.1,1.1c0.7-0.8,1.6-1.3,2.7-1.3c1,0,1.8,0.3,2.2,0.9s0.7,1.5,0.8,2.7v6.1h-2.5v-6.1
					c0-0.5-0.1-0.9-0.4-1.2c-0.2-0.2-0.6-0.4-1.2-0.4c-0.7,0-1.3,0.3-1.6,0.9v6.7h-2.5v-9.5H1083.5z"/>
				<path class="st3" d="M1094.3,1991.7v2.3h1.6v1.9h-1.6v4.7c0,0.4,0.1,0.6,0.2,0.8s0.4,0.2,0.8,0.2c0.3,0,0.5,0,0.7-0.1v1.9
					c-0.5,0.2-1,0.2-1.5,0.2c-1.8,0-2.7-0.9-2.7-2.7v-5.1h-1.4v-1.9h1.4v-2.3H1094.3z"/>
				<path class="st3" d="M1101.8,2003.7c-1.4,0-2.5-0.4-3.4-1.3s-1.3-2-1.3-3.4v-0.2c0-1,0.2-1.8,0.6-2.6s0.9-1.3,1.6-1.7
					s1.4-0.6,2.3-0.6c1.3,0,2.3,0.4,3.1,1.2s1.1,2,1.1,3.5v1h-6.1c0.1,0.6,0.3,1.1,0.7,1.5s0.9,0.6,1.6,0.6c1,0,1.7-0.4,2.3-1.1
					l1.2,1.4c-0.4,0.5-0.9,1-1.5,1.3C1103.3,2003.5,1102.5,2003.7,1101.8,2003.7z M1101.5,1995.9c-0.5,0-0.9,0.2-1.2,0.5
					c-0.3,0.3-0.5,0.8-0.6,1.5h3.5v-0.2c0-0.6-0.2-1-0.5-1.3C1102.4,1996,1102,1995.9,1101.5,1995.9z"/>
			</g>
		</g>
	</g>
	<g id="Grupo_106684" transform="translate(259.672 490)">
		<g id="Grupo_106676-4" transform="translate(-135.5 -77.5)">
			<g id="Trazado_218228-4" transform="translate(965.112 1969)">
				<path class="st7" d="M167.5,59H2.9c-0.6,0-1-0.5-1.2-0.8C1.2,57.7,1,56.8,1,56V4.1c0-0.9,0.2-1.7,0.7-2.3C1.9,1.5,2.3,1,2.9,1
					h164.6c0.6,0,1,0.5,1.2,0.8c0.4,0.6,0.7,1.4,0.7,2.3V56c0,0.9-0.2,1.7-0.7,2.3C168.5,58.6,168.1,59,167.5,59z"/>
				<path class="st3" d="M2.9,2C2.7,2,2,2.7,2,4.1V56C2,57.3,2.7,58,2.9,58h164.6c0.2,0,0.9-0.7,0.9-2.1V4.1c0-1.3-0.7-2.1-0.9-2.1
					H2.9 M2.9,0h164.6c1.6,0,2.9,1.8,2.9,4.1V56c0,2.2-1.3,4.1-2.9,4.1H2.9C1.3,60,0,58.2,0,56V4.1C0,1.8,1.3,0,2.9,0z"/>
			</g>
			<g id="Trazado_218229-4" transform="translate(945.5 1983.605)">
				<path class="st7" d="M39.5,12H1V1h38.5V12z"/>
				<path class="st3" d="M2,2v9h36.5V2H2 M0.7,0h39.1c0.4,0,0.7,0.4,0.7,0.9v11.2c0,0.5-0.3,0.9-0.7,0.9H0.7C0.3,13,0,12.6,0,12.1
					V0.9C0,0.4,0.3,0,0.7,0z"/>
			</g>
			<g id="Trazado_218230-4" transform="translate(945.5 2005.512)">
				<path class="st7" d="M39.5,12H1V1h38.5V12z"/>
				<path class="st3" d="M2,2v9h36.5V2H2 M0.7,0h39.1c0.4,0,0.7,0.4,0.7,0.9v11.2c0,0.5-0.3,0.9-0.7,0.9H0.7C0.3,13,0,12.6,0,12.1
					V0.9C0,0.4,0.3,0,0.7,0z"/>
			</g>
			<g class="st4">
				<path class="st0" d="M1013.8,1999.2c-0.1,1.4-0.6,2.5-1.5,3.3s-2.1,1.2-3.6,1.2c-1.6,0-2.9-0.6-3.9-1.7s-1.4-2.6-1.4-4.5v-0.8
					c0-1.2,0.2-2.3,0.7-3.3s1.1-1.7,1.9-2.2c0.8-0.5,1.7-0.8,2.8-0.8c1.5,0,2.7,0.4,3.6,1.2s1.4,1.9,1.6,3.3h-2.6
					c-0.1-0.8-0.3-1.4-0.7-1.8s-1-0.6-1.8-0.6c-0.9,0-1.5,0.3-2,0.9s-0.7,1.6-0.7,2.9v1c0,1.4,0.2,2.4,0.6,3s1.1,1,2,1
					c0.8,0,1.4-0.2,1.8-0.6s0.6-0.9,0.7-1.7H1013.8z"/>
				<path class="st0" d="M1014.9,1998.7c0-0.9,0.2-1.8,0.5-2.5s0.9-1.3,1.6-1.7s1.5-0.6,2.4-0.6c1.3,0,2.3,0.4,3.1,1.2
					s1.3,1.9,1.4,3.2l0,0.7c0,1.5-0.4,2.6-1.2,3.5s-1.9,1.3-3.3,1.3s-2.5-0.4-3.3-1.3s-1.2-2.1-1.2-3.6V1998.7z M1017.5,1998.8
					c0,0.9,0.2,1.6,0.5,2.1c0.3,0.5,0.8,0.7,1.5,0.7c0.6,0,1.1-0.2,1.4-0.7c0.3-0.5,0.5-1.2,0.5-2.3c0-0.9-0.2-1.6-0.5-2.1
					s-0.8-0.7-1.5-0.7c-0.6,0-1.1,0.2-1.4,0.7C1017.6,1997.1,1017.5,1997.8,1017.5,1998.8z"/>
				<path class="st0" d="M1027.9,1994l0.1,1.1c0.7-0.8,1.6-1.2,2.7-1.2c1.2,0,2.1,0.5,2.5,1.5c0.7-1,1.6-1.5,2.9-1.5
					c1,0,1.8,0.3,2.3,0.9c0.5,0.6,0.8,1.5,0.8,2.7v6.1h-2.5v-6.1c0-0.5-0.1-0.9-0.3-1.2s-0.6-0.4-1.1-0.4c-0.8,0-1.3,0.4-1.6,1.1
					l0,6.5h-2.5v-6.1c0-0.6-0.1-0.9-0.3-1.2s-0.6-0.4-1.1-0.4c-0.7,0-1.2,0.3-1.6,0.9v6.7h-2.5v-9.5H1027.9z"/>
				<path class="st0" d="M1049.7,1998.8c0,1.5-0.3,2.6-1,3.5s-1.6,1.3-2.7,1.3c-1,0-1.7-0.3-2.3-1v4.5h-2.5V1994h2.4l0.1,0.9
					c0.6-0.7,1.4-1.1,2.4-1.1c1.2,0,2.1,0.4,2.7,1.3s1,2.1,1,3.6V1998.8z M1047.1,1998.7c0-0.9-0.2-1.6-0.5-2s-0.8-0.7-1.4-0.7
					c-0.8,0-1.3,0.3-1.6,0.9v3.9c0.3,0.6,0.9,0.9,1.7,0.9C1046.5,2001.6,1047.1,2000.6,1047.1,1998.7z"/>
				<path class="st0" d="M1050.8,1998.7c0-0.9,0.2-1.8,0.5-2.5s0.9-1.3,1.6-1.7s1.5-0.6,2.4-0.6c1.3,0,2.3,0.4,3.1,1.2
					s1.3,1.9,1.4,3.2l0,0.7c0,1.5-0.4,2.6-1.2,3.5s-1.9,1.3-3.3,1.3s-2.5-0.4-3.3-1.3s-1.2-2.1-1.2-3.6V1998.7z M1053.4,1998.8
					c0,0.9,0.2,1.6,0.5,2.1c0.3,0.5,0.8,0.7,1.5,0.7c0.6,0,1.1-0.2,1.4-0.7c0.3-0.5,0.5-1.2,0.5-2.3c0-0.9-0.2-1.6-0.5-2.1
					s-0.8-0.7-1.5-0.7c-0.6,0-1.1,0.2-1.4,0.7C1053.5,1997.1,1053.4,1997.8,1053.4,1998.8z"/>
				<path class="st0" d="M1063.7,1994l0.1,1.1c0.7-0.8,1.6-1.3,2.7-1.3c1,0,1.8,0.3,2.2,0.9s0.7,1.5,0.8,2.7v6.1h-2.5v-6.1
					c0-0.5-0.1-0.9-0.4-1.2c-0.2-0.2-0.6-0.4-1.2-0.4c-0.7,0-1.3,0.3-1.6,0.9v6.7h-2.5v-9.5H1063.7z"/>
				<path class="st0" d="M1075.9,2003.7c-1.4,0-2.5-0.4-3.4-1.3s-1.3-2-1.3-3.4v-0.2c0-1,0.2-1.8,0.6-2.6s0.9-1.3,1.6-1.7
					s1.4-0.6,2.3-0.6c1.3,0,2.3,0.4,3.1,1.2s1.1,2,1.1,3.5v1h-6.1c0.1,0.6,0.3,1.1,0.7,1.5s0.9,0.6,1.6,0.6c1,0,1.7-0.4,2.3-1.1
					l1.2,1.4c-0.4,0.5-0.9,1-1.5,1.3C1077.4,2003.5,1076.7,2003.7,1075.9,2003.7z M1075.6,1995.9c-0.5,0-0.9,0.2-1.2,0.5
					c-0.3,0.3-0.5,0.8-0.6,1.5h3.5v-0.2c0-0.6-0.2-1-0.5-1.3C1076.5,1996,1076.1,1995.9,1075.6,1995.9z"/>
				<path class="st0" d="M1083.5,1994l0.1,1.1c0.7-0.8,1.6-1.3,2.7-1.3c1,0,1.8,0.3,2.2,0.9s0.7,1.5,0.8,2.7v6.1h-2.5v-6.1
					c0-0.5-0.1-0.9-0.4-1.2c-0.2-0.2-0.6-0.4-1.2-0.4c-0.7,0-1.3,0.3-1.6,0.9v6.7h-2.5v-9.5H1083.5z"/>
				<path class="st0" d="M1094.3,1991.7v2.3h1.6v1.9h-1.6v4.7c0,0.4,0.1,0.6,0.2,0.8s0.4,0.2,0.8,0.2c0.3,0,0.5,0,0.7-0.1v1.9
					c-0.5,0.2-1,0.2-1.5,0.2c-1.8,0-2.7-0.9-2.7-2.7v-5.1h-1.4v-1.9h1.4v-2.3H1094.3z"/>
				<path class="st0" d="M1101.8,2003.7c-1.4,0-2.5-0.4-3.4-1.3s-1.3-2-1.3-3.4v-0.2c0-1,0.2-1.8,0.6-2.6s0.9-1.3,1.6-1.7
					s1.4-0.6,2.3-0.6c1.3,0,2.3,0.4,3.1,1.2s1.1,2,1.1,3.5v1h-6.1c0.1,0.6,0.3,1.1,0.7,1.5s0.9,0.6,1.6,0.6c1,0,1.7-0.4,2.3-1.1
					l1.2,1.4c-0.4,0.5-0.9,1-1.5,1.3C1103.3,2003.5,1102.5,2003.7,1101.8,2003.7z M1101.5,1995.9c-0.5,0-0.9,0.2-1.2,0.5
					c-0.3,0.3-0.5,0.8-0.6,1.5h3.5v-0.2c0-0.6-0.2-1-0.5-1.3C1102.4,1996,1102,1995.9,1101.5,1995.9z"/>
			</g>
		</g>
	</g>
	<g class="st4">
		<path class="st3" d="M1031.3,2273v4.5h-2.6v-12.8h5c1,0,1.8,0.2,2.5,0.5s1.3,0.9,1.7,1.5c0.4,0.6,0.6,1.4,0.6,2.2
			c0,1.3-0.4,2.2-1.3,3s-2,1.1-3.6,1.1H1031.3z M1031.3,2270.9h2.4c0.7,0,1.2-0.2,1.6-0.5s0.5-0.8,0.5-1.4c0-0.6-0.2-1.1-0.6-1.5
			s-0.9-0.6-1.5-0.6h-2.4V2270.9z"/>
		<path class="st3" d="M1045.5,2277.5c-0.1-0.2-0.2-0.5-0.3-0.9c-0.6,0.7-1.4,1-2.4,1c-0.9,0-1.7-0.3-2.3-0.8s-0.9-1.2-0.9-2
			c0-1,0.4-1.8,1.1-2.3s1.8-0.8,3.2-0.8h1.2v-0.5c0-0.4-0.1-0.8-0.3-1.1s-0.6-0.4-1.1-0.4c-0.4,0-0.8,0.1-1,0.3s-0.4,0.5-0.4,0.8
			h-2.5c0-0.6,0.2-1.1,0.5-1.5s0.8-0.8,1.4-1.1s1.3-0.4,2.1-0.4c1.2,0,2.1,0.3,2.8,0.9c0.7,0.6,1,1.4,1,2.5v4.1c0,0.9,0.1,1.6,0.4,2
			v0.1H1045.5z M1043.4,2275.8c0.4,0,0.7-0.1,1-0.3c0.3-0.2,0.6-0.4,0.7-0.7v-1.6h-0.9c-1.3,0-1.9,0.4-2,1.3l0,0.1
			c0,0.3,0.1,0.6,0.3,0.8S1043,2275.8,1043.4,2275.8z"/>
		<path class="st3" d="M1049.3,2272.7c0-1.5,0.3-2.7,1-3.5s1.6-1.3,2.7-1.3c1,0,1.8,0.4,2.4,1.2l0.2-1h2.2v13.2h-2.5v-4.5
			c-0.6,0.7-1.4,1-2.3,1c-1.1,0-2-0.4-2.7-1.3S1049.3,2274.3,1049.3,2272.7z M1051.8,2272.9c0,0.9,0.2,1.6,0.5,2.1s0.8,0.7,1.3,0.7
			c0.8,0,1.3-0.3,1.7-0.9v-3.9c-0.3-0.6-0.9-0.9-1.6-0.9c-0.6,0-1,0.2-1.4,0.7S1051.8,2271.8,1051.8,2272.9z"/>
		<path class="st3" d="M1065.5,2276.6c-0.6,0.8-1.5,1.1-2.6,1.1c-1,0-1.8-0.3-2.3-0.9s-0.8-1.4-0.8-2.6v-6.2h2.5v6.2
			c0,1,0.5,1.5,1.4,1.5c0.9,0,1.5-0.3,1.8-0.9v-6.7h2.5v9.5h-2.4L1065.5,2276.6z"/>
		<path class="st3" d="M1074.3,2277.7c-1.4,0-2.5-0.4-3.4-1.3s-1.3-2-1.3-3.4v-0.2c0-1,0.2-1.8,0.6-2.6s0.9-1.3,1.6-1.7
			s1.4-0.6,2.3-0.6c1.3,0,2.3,0.4,3.1,1.2s1.1,2,1.1,3.5v1h-6.1c0.1,0.6,0.3,1.1,0.7,1.5s0.9,0.6,1.6,0.6c1,0,1.7-0.4,2.3-1.1
			l1.2,1.4c-0.4,0.5-0.9,1-1.5,1.3C1075.8,2277.6,1075.1,2277.7,1074.3,2277.7z M1074,2269.9c-0.5,0-0.9,0.2-1.2,0.5
			c-0.3,0.3-0.5,0.8-0.6,1.5h3.5v-0.2c0-0.6-0.2-1-0.5-1.3C1075,2270.1,1074.5,2269.9,1074,2269.9z"/>
		<path class="st3" d="M1082.7,2265.7v2.3h1.6v1.9h-1.6v4.7c0,0.4,0.1,0.6,0.2,0.8s0.4,0.2,0.8,0.2c0.3,0,0.5,0,0.7-0.1v1.9
			c-0.5,0.2-1,0.2-1.5,0.2c-1.8,0-2.7-0.9-2.7-2.7v-5.1h-1.4v-1.9h1.4v-2.3H1082.7z"/>
		<path class="st3" d="M1090.1,2277.7c-1.4,0-2.5-0.4-3.4-1.3s-1.3-2-1.3-3.4v-0.2c0-1,0.2-1.8,0.6-2.6s0.9-1.3,1.6-1.7
			s1.4-0.6,2.3-0.6c1.3,0,2.3,0.4,3.1,1.2s1.1,2,1.1,3.5v1h-6.1c0.1,0.6,0.3,1.1,0.7,1.5s0.9,0.6,1.6,0.6c1,0,1.7-0.4,2.3-1.1
			l1.2,1.4c-0.4,0.5-0.9,1-1.5,1.3C1091.6,2277.6,1090.9,2277.7,1090.1,2277.7z M1089.8,2269.9c-0.5,0-0.9,0.2-1.2,0.5
			c-0.3,0.3-0.5,0.8-0.6,1.5h3.5v-0.2c0-0.6-0.2-1-0.5-1.3C1090.8,2270.1,1090.3,2269.9,1089.8,2269.9z"/>
	</g>
</g>
</svg>
