<?xml version="1.0" encoding="utf-8"?>
<!-- Generator: Adobe Illustrator 25.4.2, SVG Export Plug-In . SVG Version: 6.00 Build 0)  -->
<svg version="1.1" id="Capa_1" xmlns="http://www.w3.org/2000/svg" xmlns:xlink="http://www.w3.org/1999/xlink" x="0px" y="0px"
	 viewBox="0 0 719 248" style="enable-background:new 0 0 719 248;" xml:space="preserve">
<style type="text/css">
	.st0{fill:#F3F9FF;}
	.st1{fill:#FFFFFF;}
	.st2{fill:none;stroke:#727997;stroke-width:2;}
	.st3{fill:#4DD0E1;}
	.st4{fill:#B0C0D2;}
	.st5{fill:#FFA726;}
	.st6{enable-background:new    ;}
	.st7{fill:#12263F;}
	.st8{opacity:0.6;}
	.st9{opacity:0.6;fill:#12263F;enable-background:new    ;}
</style>
<rect id="Rectángulo_45220" class="st0" width="719" height="248"/>
<g id="Rectángulo_45222" transform="translate(512 2563)">
	<path class="st1" d="M-423-2525h114c5,0,9,4,9,9v38c0,5-4,9-9,9h-114c-5,0-9-4-9-9v-38C-432-2521-428-2525-423-2525z"/>
	<path class="st2" d="M-423-2524h114c4.4,0,8,3.6,8,8v38c0,4.4-3.6,8-8,8h-114c-4.4,0-8-3.6-8-8v-38
		C-431-2520.4-427.4-2524-423-2524z"/>
</g>
<g id="Rectángulo_45226" transform="translate(512 2679)">
	<path class="st3" d="M-423-2525h114c5,0,9,4,9,9v38c0,5-4,9-9,9h-114c-5,0-9-4-9-9v-38C-432-2521-428-2525-423-2525z"/>
	<path class="st2" d="M-423-2524h114c4.4,0,8,3.6,8,8v38c0,4.4-3.6,8-8,8h-114c-4.4,0-8-3.6-8-8v-38
		C-431-2520.4-427.4-2524-423-2524z"/>
</g>
<g id="Rectángulo_45227" transform="translate(940 2679)">
	<path class="st3" d="M-423-2525h114c5,0,9,4,9,9v38c0,5-4,9-9,9h-114c-5,0-9-4-9-9v-38C-432-2521-428-2525-423-2525z"/>
	<path class="st2" d="M-423-2524h114c4.4,0,8,3.6,8,8v38c0,4.4-3.6,8-8,8h-114c-4.4,0-8-3.6-8-8v-38
		C-431-2520.4-427.4-2524-423-2524z"/>
</g>
<g id="Rectángulo_45223" transform="translate(720 2563)">
	<path class="st4" d="M-423-2525h114c5,0,9,4,9,9v38c0,5-4,9-9,9h-114c-5,0-9-4-9-9v-38C-432-2521-428-2525-423-2525z"/>
	<path class="st2" d="M-423-2524h114c4.4,0,8,3.6,8,8v38c0,4.4-3.6,8-8,8h-114c-4.4,0-8-3.6-8-8v-38
		C-431-2520.4-427.4-2524-423-2524z"/>
</g>
<g id="Rectángulo_45224" transform="translate(940 2563)">
	<path class="st5" d="M-423-2525h114c5,0,9,4,9,9v38c0,5-4,9-9,9h-114c-5,0-9-4-9-9v-38C-432-2521-428-2525-423-2525z"/>
	<path class="st2" d="M-423-2524h114c4.4,0,8,3.6,8,8v38c0,4.4-3.6,8-8,8h-114c-4.4,0-8-3.6-8-8v-38
		C-431-2520.4-427.4-2524-423-2524z"/>
</g>
<g class="st6">
	<path class="st7" d="M131.1,71.4c-0.1,1.2-0.6,2.1-1.3,2.8c-0.7,0.7-1.7,1-3,1c-1.3,0-2.4-0.5-3.2-1.4c-0.8-1-1.2-2.3-1.2-3.9v-1.1
		c0-1.1,0.2-2,0.6-2.8c0.4-0.8,0.9-1.4,1.6-1.8c0.7-0.4,1.5-0.6,2.4-0.6c1.2,0,2.2,0.3,2.9,1c0.7,0.7,1.2,1.6,1.3,2.8h-1.5
		c-0.1-0.9-0.4-1.6-0.8-2c-0.4-0.4-1-0.6-1.8-0.6c-1,0-1.7,0.4-2.3,1.1c-0.5,0.7-0.8,1.7-0.8,3v1.1c0,1.2,0.3,2.2,0.8,2.9
		s1.2,1.1,2.2,1.1c0.8,0,1.5-0.2,1.9-0.6s0.7-1,0.9-2H131.1z"/>
	<path class="st7" d="M134.5,75H133V63h1.4V75z"/>
	<path class="st7" d="M136.8,64.3c0-0.2,0.1-0.4,0.2-0.6c0.1-0.2,0.4-0.2,0.6-0.2s0.5,0.1,0.6,0.2c0.1,0.2,0.2,0.4,0.2,0.6
		s-0.1,0.4-0.2,0.6c-0.1,0.2-0.4,0.2-0.6,0.2s-0.5-0.1-0.6-0.2C136.9,64.7,136.8,64.5,136.8,64.3z M138.4,75h-1.4v-8.5h1.4V75z"/>
	<path class="st7" d="M144.2,75.2c-1.1,0-2.1-0.4-2.8-1.1s-1.1-1.8-1.1-3v-0.3c0-0.8,0.2-1.6,0.5-2.2s0.8-1.2,1.3-1.5
		c0.6-0.4,1.2-0.6,1.9-0.6c1.1,0,2,0.4,2.6,1.1s0.9,1.8,0.9,3.1v0.6h-5.7c0,0.8,0.3,1.5,0.7,2c0.5,0.5,1.1,0.8,1.8,0.8
		c0.5,0,0.9-0.1,1.3-0.3c0.4-0.2,0.7-0.5,0.9-0.8l0.9,0.7C146.7,74.6,145.6,75.2,144.2,75.2z M144,67.6c-0.6,0-1.1,0.2-1.5,0.6
		c-0.4,0.4-0.6,1-0.7,1.8h4.2v-0.1c0-0.7-0.2-1.3-0.6-1.7C145.1,67.8,144.6,67.6,144,67.6z"/>
	<path class="st7" d="M150.5,66.5l0,1.1c0.6-0.8,1.5-1.2,2.5-1.2c1.8,0,2.7,1,2.7,3V75h-1.4v-5.6c0-0.6-0.1-1.1-0.4-1.4
		s-0.7-0.4-1.3-0.4c-0.5,0-0.9,0.1-1.2,0.4c-0.4,0.2-0.6,0.6-0.8,1v6h-1.4v-8.5H150.5z"/>
	<path class="st7" d="M159.9,64.5v2h1.6v1.1h-1.6v5.2c0,0.3,0.1,0.6,0.2,0.8c0.1,0.2,0.4,0.3,0.7,0.3c0.2,0,0.4,0,0.7-0.1V75
		c-0.4,0.1-0.8,0.2-1.1,0.2c-0.6,0-1.1-0.2-1.5-0.6s-0.5-0.9-0.5-1.7v-5.2H157v-1.1h1.5v-2H159.9z"/>
	<path class="st7" d="M166.7,75.2c-1.1,0-2.1-0.4-2.8-1.1s-1.1-1.8-1.1-3v-0.3c0-0.8,0.2-1.6,0.5-2.2s0.8-1.2,1.3-1.5
		c0.6-0.4,1.2-0.6,1.9-0.6c1.1,0,2,0.4,2.6,1.1s0.9,1.8,0.9,3.1v0.6h-5.7c0,0.8,0.3,1.5,0.7,2c0.5,0.5,1.1,0.8,1.8,0.8
		c0.5,0,0.9-0.1,1.3-0.3c0.4-0.2,0.7-0.5,0.9-0.8l0.9,0.7C169.2,74.6,168.1,75.2,166.7,75.2z M166.5,67.6c-0.6,0-1.1,0.2-1.5,0.6
		c-0.4,0.4-0.6,1-0.7,1.8h4.2v-0.1c0-0.7-0.2-1.3-0.6-1.7C167.6,67.8,167.1,67.6,166.5,67.6z"/>
</g>
<g class="st6">
	<path class="st7" d="M119.6,186.4h-2.7v4.6h-1.5v-11.4h3.8c1.3,0,2.3,0.3,3,0.9c0.7,0.6,1,1.4,1,2.5c0,0.7-0.2,1.3-0.6,1.9
		s-0.9,0.9-1.6,1.2l2.7,4.8v0.1h-1.6L119.6,186.4z M116.9,185.2h2.3c0.7,0,1.3-0.2,1.8-0.6c0.4-0.4,0.7-0.9,0.7-1.5
		c0-0.7-0.2-1.2-0.6-1.6c-0.4-0.4-1-0.6-1.8-0.6h-2.3V185.2z"/>
	<path class="st7" d="M128.6,191.2c-1.1,0-2.1-0.4-2.8-1.1s-1.1-1.8-1.1-3v-0.3c0-0.8,0.2-1.6,0.5-2.2s0.8-1.2,1.3-1.5
		c0.6-0.4,1.2-0.6,1.9-0.6c1.1,0,2,0.4,2.6,1.1s0.9,1.8,0.9,3.1v0.6h-5.7c0,0.8,0.3,1.5,0.7,2c0.5,0.5,1.1,0.8,1.8,0.8
		c0.5,0,0.9-0.1,1.3-0.3c0.4-0.2,0.7-0.5,0.9-0.8l0.9,0.7C131,190.6,130,191.2,128.6,191.2z M128.4,183.6c-0.6,0-1.1,0.2-1.5,0.6
		c-0.4,0.4-0.6,1-0.7,1.8h4.2v-0.1c0-0.7-0.2-1.3-0.6-1.7C129.5,183.8,129,183.6,128.4,183.6z"/>
	<path class="st7" d="M136.9,190c0.5,0,1-0.2,1.4-0.5c0.4-0.3,0.6-0.7,0.6-1.2h1.4c0,0.5-0.2,0.9-0.5,1.4c-0.3,0.4-0.7,0.8-1.2,1
		c-0.5,0.3-1.1,0.4-1.6,0.4c-1.2,0-2.1-0.4-2.7-1.2s-1-1.8-1-3.2v-0.2c0-0.8,0.2-1.6,0.5-2.2c0.3-0.6,0.7-1.1,1.3-1.5
		c0.6-0.4,1.2-0.5,2-0.5c0.9,0,1.7,0.3,2.4,0.9c0.6,0.6,1,1.3,1,2.2h-1.4c0-0.5-0.2-1-0.6-1.3c-0.4-0.4-0.8-0.5-1.4-0.5
		c-0.7,0-1.3,0.3-1.7,0.8c-0.4,0.5-0.6,1.3-0.6,2.3v0.3c0,1,0.2,1.7,0.6,2.2C135.6,189.7,136.2,190,136.9,190z"/>
	<path class="st7" d="M145.4,191.2c-1.1,0-2.1-0.4-2.8-1.1s-1.1-1.8-1.1-3v-0.3c0-0.8,0.2-1.6,0.5-2.2s0.8-1.2,1.3-1.5
		c0.6-0.4,1.2-0.6,1.9-0.6c1.1,0,2,0.4,2.6,1.1s0.9,1.8,0.9,3.1v0.6H143c0,0.8,0.3,1.5,0.7,2c0.5,0.5,1.1,0.8,1.8,0.8
		c0.5,0,0.9-0.1,1.3-0.3c0.4-0.2,0.7-0.5,0.9-0.8l0.9,0.7C147.9,190.6,146.8,191.2,145.4,191.2z M145.2,183.6
		c-0.6,0-1.1,0.2-1.5,0.6c-0.4,0.4-0.6,1-0.7,1.8h4.2v-0.1c0-0.7-0.2-1.3-0.6-1.7C146.3,183.8,145.8,183.6,145.2,183.6z"/>
	<path class="st7" d="M157.5,186.9c0,1.3-0.3,2.3-0.9,3.1c-0.6,0.8-1.4,1.2-2.4,1.2c-1,0-1.8-0.3-2.4-1v4.1h-1.4v-11.7h1.3l0.1,0.9
		c0.6-0.7,1.4-1.1,2.5-1.1c1,0,1.8,0.4,2.4,1.1c0.6,0.8,0.9,1.8,0.9,3.2V186.9z M156.1,186.7c0-1-0.2-1.7-0.6-2.3s-1-0.8-1.7-0.8
		c-0.9,0-1.5,0.4-2,1.2v4c0.4,0.8,1.1,1.2,2,1.2c0.7,0,1.2-0.3,1.7-0.8C155.9,188.6,156.1,187.8,156.1,186.7z"/>
	<path class="st7" d="M161.3,180.5v2h1.6v1.1h-1.6v5.2c0,0.3,0.1,0.6,0.2,0.8c0.1,0.2,0.4,0.3,0.7,0.3c0.2,0,0.4,0,0.7-0.1v1.2
		c-0.4,0.1-0.8,0.2-1.1,0.2c-0.6,0-1.1-0.2-1.5-0.6s-0.5-0.9-0.5-1.7v-5.2h-1.5v-1.1h1.5v-2H161.3z"/>
	<path class="st7" d="M164.1,186.7c0-0.8,0.2-1.6,0.5-2.2c0.3-0.7,0.8-1.2,1.4-1.5c0.6-0.4,1.2-0.5,2-0.5c1.2,0,2.1,0.4,2.8,1.2
		s1.1,1.9,1.1,3.2v0.1c0,0.8-0.2,1.6-0.5,2.2c-0.3,0.7-0.8,1.2-1.4,1.5s-1.3,0.5-2,0.5c-1.1,0-2.1-0.4-2.8-1.2s-1.1-1.9-1.1-3.2
		V186.7z M165.5,186.9c0,0.9,0.2,1.7,0.7,2.3c0.4,0.6,1,0.9,1.7,0.9c0.7,0,1.3-0.3,1.8-0.9c0.4-0.6,0.6-1.4,0.6-2.4
		c0-0.9-0.2-1.7-0.7-2.3c-0.4-0.6-1-0.9-1.8-0.9c-0.7,0-1.3,0.3-1.7,0.9S165.5,185.8,165.5,186.9z"/>
	<path class="st7" d="M177.6,183.8c-0.2,0-0.5-0.1-0.7-0.1c-0.9,0-1.6,0.4-1.9,1.2v6h-1.4v-8.5h1.4l0,1c0.5-0.8,1.1-1.1,2-1.1
		c0.3,0,0.5,0,0.6,0.1V183.8z"/>
</g>
<g class="st6">
	<path class="st7" d="M549.1,187.4c-0.1,1.2-0.6,2.1-1.3,2.8s-1.7,1-3,1c-1.3,0-2.4-0.5-3.2-1.4s-1.2-2.3-1.2-3.9v-1.1
		c0-1.1,0.2-2,0.6-2.8s0.9-1.4,1.6-1.8s1.5-0.6,2.4-0.6c1.2,0,2.2,0.3,2.9,1s1.2,1.6,1.3,2.8h-1.5c-0.1-0.9-0.4-1.6-0.8-2
		s-1-0.6-1.8-0.6c-1,0-1.7,0.4-2.3,1.1s-0.8,1.7-0.8,3v1.1c0,1.2,0.3,2.2,0.8,2.9s1.2,1.1,2.2,1.1c0.8,0,1.5-0.2,1.9-0.6
		s0.7-1,0.9-2H549.1z"/>
	<path class="st7" d="M550.5,186.7c0-0.8,0.2-1.6,0.5-2.2s0.8-1.2,1.4-1.5s1.2-0.5,2-0.5c1.2,0,2.1,0.4,2.8,1.2s1.1,1.9,1.1,3.2v0.1
		c0,0.8-0.2,1.6-0.5,2.2s-0.8,1.2-1.4,1.5s-1.3,0.5-2,0.5c-1.1,0-2.1-0.4-2.8-1.2s-1.1-1.9-1.1-3.2V186.7z M552,186.9
		c0,0.9,0.2,1.7,0.7,2.3s1,0.9,1.7,0.9c0.7,0,1.3-0.3,1.8-0.9s0.6-1.4,0.6-2.4c0-0.9-0.2-1.7-0.7-2.3s-1-0.9-1.8-0.9
		c-0.7,0-1.3,0.3-1.7,0.9S552,185.8,552,186.9z"/>
	<path class="st7" d="M561.4,182.5l0,0.9c0.6-0.7,1.5-1.1,2.5-1.1c1.2,0,2,0.5,2.4,1.4c0.3-0.4,0.6-0.7,1.1-1s1-0.4,1.6-0.4
		c1.9,0,2.8,1,2.8,2.9v5.7h-1.4v-5.6c0-0.6-0.1-1.1-0.4-1.4s-0.7-0.4-1.4-0.4c-0.5,0-1,0.2-1.3,0.5s-0.6,0.8-0.6,1.3v5.6h-1.5v-5.5
		c0-1.2-0.6-1.8-1.8-1.8c-0.9,0-1.6,0.4-1.9,1.2v6.2H560v-8.5H561.4z"/>
	<path class="st7" d="M579.3,191c-0.1-0.2-0.2-0.5-0.2-0.9c-0.7,0.7-1.5,1-2.4,1c-0.8,0-1.5-0.2-2.1-0.7s-0.8-1.1-0.8-1.8
		c0-0.9,0.3-1.6,1-2.1s1.6-0.7,2.8-0.7h1.4v-0.7c0-0.5-0.2-0.9-0.5-1.2s-0.7-0.4-1.3-0.4c-0.5,0-0.9,0.1-1.3,0.4s-0.5,0.6-0.5,0.9
		H574c0-0.4,0.1-0.8,0.4-1.2s0.7-0.7,1.2-0.9s1.1-0.3,1.7-0.3c1,0,1.7,0.2,2.3,0.7s0.8,1.2,0.9,2v3.9c0,0.8,0.1,1.4,0.3,1.9v0.1
		H579.3z M576.9,189.9c0.5,0,0.9-0.1,1.3-0.4s0.7-0.5,0.9-0.9v-1.7h-1.1c-1.8,0-2.7,0.5-2.7,1.6c0,0.5,0.2,0.8,0.5,1.1
		S576.4,189.9,576.9,189.9z"/>
	<path class="st7" d="M584.1,182.5l0,1.1c0.6-0.8,1.5-1.2,2.5-1.2c1.8,0,2.7,1,2.7,3v5.6h-1.4v-5.6c0-0.6-0.1-1.1-0.4-1.4
		s-0.7-0.4-1.3-0.4c-0.5,0-0.9,0.1-1.2,0.4s-0.6,0.6-0.8,1v6h-1.4v-8.5H584.1z"/>
	<path class="st7" d="M591.2,186.7c0-1.3,0.3-2.3,0.9-3.1s1.4-1.2,2.4-1.2c1,0,1.8,0.3,2.4,1V179h1.4v12H597l-0.1-0.9
		c-0.6,0.7-1.4,1.1-2.4,1.1c-1,0-1.8-0.4-2.4-1.2s-0.9-1.8-0.9-3.1V186.7z M592.7,186.9c0,1,0.2,1.7,0.6,2.2s0.9,0.8,1.6,0.8
		c0.9,0,1.6-0.4,2-1.2v-3.9c-0.4-0.8-1.1-1.2-2-1.2c-0.7,0-1.3,0.3-1.7,0.8S592.7,185.8,592.7,186.9z"/>
	<path class="st7" d="M600.2,186.7c0-0.8,0.2-1.6,0.5-2.2s0.8-1.2,1.4-1.5s1.2-0.5,2-0.5c1.2,0,2.1,0.4,2.8,1.2s1.1,1.9,1.1,3.2v0.1
		c0,0.8-0.2,1.6-0.5,2.2s-0.8,1.2-1.4,1.5s-1.3,0.5-2,0.5c-1.1,0-2.1-0.4-2.8-1.2s-1.1-1.9-1.1-3.2V186.7z M601.7,186.9
		c0,0.9,0.2,1.7,0.7,2.3s1,0.9,1.7,0.9c0.7,0,1.3-0.3,1.8-0.9s0.6-1.4,0.6-2.4c0-0.9-0.2-1.7-0.7-2.3s-1-0.9-1.8-0.9
		c-0.7,0-1.3,0.3-1.7,0.9S601.7,185.8,601.7,186.9z"/>
</g>
<g class="st6">
	<path class="st7" d="M331,75h-1.5V63.6h1.5V75z"/>
	<path class="st7" d="M334.8,66.5l0,1.1c0.6-0.8,1.5-1.2,2.5-1.2c1.8,0,2.7,1,2.7,3V75h-1.4v-5.6c0-0.6-0.1-1.1-0.4-1.4
		s-0.7-0.4-1.3-0.4c-0.5,0-0.9,0.1-1.2,0.4c-0.4,0.2-0.6,0.6-0.8,1v6h-1.4v-8.5H334.8z"/>
	<path class="st7" d="M345.1,73l2.1-6.5h1.5l-3,8.5h-1.1l-3.1-8.5h1.5L345.1,73z"/>
	<path class="st7" d="M349.6,70.7c0-0.8,0.2-1.6,0.5-2.2c0.3-0.7,0.8-1.2,1.4-1.5c0.6-0.4,1.2-0.5,2-0.5c1.2,0,2.1,0.4,2.8,1.2
		s1.1,1.9,1.1,3.2v0.1c0,0.8-0.2,1.6-0.5,2.2c-0.3,0.7-0.8,1.2-1.4,1.5s-1.3,0.5-2,0.5c-1.1,0-2.1-0.4-2.8-1.2s-1.1-1.9-1.1-3.2
		V70.7z M351,70.9c0,0.9,0.2,1.7,0.7,2.3c0.4,0.6,1,0.9,1.7,0.9c0.7,0,1.3-0.3,1.8-0.9c0.4-0.6,0.6-1.4,0.6-2.4
		c0-0.9-0.2-1.7-0.7-2.3c-0.4-0.6-1-0.9-1.8-0.9c-0.7,0-1.3,0.3-1.7,0.9S351,69.8,351,70.9z"/>
	<path class="st7" d="M361.4,71.1l-0.9,0.9v3h-1.4V63h1.4v7.3l0.8-0.9l2.6-2.8h1.8l-3.3,3.5l3.7,4.9h-1.7L361.4,71.1z"/>
	<path class="st7" d="M370.7,75.2c-1.1,0-2.1-0.4-2.8-1.1s-1.1-1.8-1.1-3v-0.3c0-0.8,0.2-1.6,0.5-2.2s0.8-1.2,1.3-1.5
		c0.6-0.4,1.2-0.6,1.9-0.6c1.1,0,2,0.4,2.6,1.1s0.9,1.8,0.9,3.1v0.6h-5.7c0,0.8,0.3,1.5,0.7,2c0.5,0.5,1.1,0.8,1.8,0.8
		c0.5,0,0.9-0.1,1.3-0.3c0.4-0.2,0.7-0.5,0.9-0.8l0.9,0.7C373.2,74.6,372.1,75.2,370.7,75.2z M370.5,67.6c-0.6,0-1.1,0.2-1.5,0.6
		c-0.4,0.4-0.6,1-0.7,1.8h4.2v-0.1c0-0.7-0.2-1.3-0.6-1.7C371.6,67.8,371.1,67.6,370.5,67.6z"/>
	<path class="st7" d="M379.7,67.8c-0.2,0-0.5-0.1-0.7-0.1c-0.9,0-1.6,0.4-1.9,1.2v6h-1.4v-8.5h1.4l0,1c0.5-0.8,1.1-1.1,2-1.1
		c0.3,0,0.5,0,0.6,0.1V67.8z"/>
</g>
<g class="st6">
	<path class="st7" d="M532.3,59l4.9,2v1.5l-6.4-3v-1.1l6.4-3V57L532.3,59z"/>
	<path class="st7" d="M540.4,59l4.9,2v1.5l-6.4-3v-1.1l6.4-3V57L540.4,59z"/>
	<path class="st7" d="M549.4,64h-1.5V52.6h1.5V64z"/>
	<path class="st7" d="M553.3,55.5l0,1.1c0.6-0.8,1.5-1.2,2.5-1.2c1.8,0,2.7,1,2.7,3V64h-1.4v-5.6c0-0.6-0.1-1.1-0.4-1.4
		s-0.7-0.4-1.3-0.4c-0.5,0-0.9,0.1-1.2,0.4c-0.4,0.2-0.6,0.6-0.8,1v6h-1.4v-8.5H553.3z"/>
	<path class="st7" d="M562.7,53.5v2h1.6v1.1h-1.6v5.2c0,0.3,0.1,0.6,0.2,0.8c0.1,0.2,0.4,0.3,0.7,0.3c0.2,0,0.4,0,0.7-0.1V64
		c-0.4,0.1-0.8,0.2-1.1,0.2c-0.6,0-1.1-0.2-1.5-0.6s-0.5-0.9-0.5-1.7v-5.2h-1.5v-1.1h1.5v-2H562.7z"/>
	<path class="st7" d="M569.5,64.2c-1.1,0-2.1-0.4-2.8-1.1s-1.1-1.8-1.1-3v-0.3c0-0.8,0.2-1.6,0.5-2.2s0.8-1.2,1.3-1.5
		c0.6-0.4,1.2-0.6,1.9-0.6c1.1,0,2,0.4,2.6,1.1s0.9,1.8,0.9,3.1v0.6h-5.7c0,0.8,0.3,1.5,0.7,2c0.5,0.5,1.1,0.8,1.8,0.8
		c0.5,0,0.9-0.1,1.3-0.3c0.4-0.2,0.7-0.5,0.9-0.8l0.9,0.7C572,63.6,570.9,64.2,569.5,64.2z M569.3,56.6c-0.6,0-1.1,0.2-1.5,0.6
		c-0.4,0.4-0.6,1-0.7,1.8h4.2v-0.1c0-0.7-0.2-1.3-0.6-1.7C570.4,56.8,569.9,56.6,569.3,56.6z"/>
	<path class="st7" d="M578.5,56.8c-0.2,0-0.5-0.1-0.7-0.1c-0.9,0-1.6,0.4-1.9,1.2v6h-1.4v-8.5h1.4l0,1c0.5-0.8,1.1-1.1,2-1.1
		c0.3,0,0.5,0,0.6,0.1V56.8z"/>
	<path class="st7" d="M580.7,64v-7.3h-1.3v-1.1h1.3v-0.9c0-0.9,0.2-1.6,0.7-2.1s1.2-0.7,2.1-0.7c0.3,0,0.7,0,1,0.1l-0.1,1.2
		c-0.2,0-0.5-0.1-0.8-0.1c-0.5,0-0.8,0.1-1.1,0.4c-0.3,0.3-0.4,0.7-0.4,1.2v0.9h1.8v1.1h-1.8V64H580.7z"/>
	<path class="st7" d="M590.8,64c-0.1-0.2-0.2-0.5-0.2-0.9c-0.7,0.7-1.5,1-2.4,1c-0.8,0-1.5-0.2-2.1-0.7c-0.5-0.5-0.8-1.1-0.8-1.8
		c0-0.9,0.3-1.6,1-2.1c0.7-0.5,1.6-0.7,2.8-0.7h1.4v-0.7c0-0.5-0.2-0.9-0.5-1.2c-0.3-0.3-0.7-0.4-1.3-0.4c-0.5,0-0.9,0.1-1.3,0.4
		c-0.3,0.3-0.5,0.6-0.5,0.9h-1.5c0-0.4,0.1-0.8,0.4-1.2c0.3-0.4,0.7-0.7,1.2-0.9c0.5-0.2,1.1-0.3,1.7-0.3c1,0,1.7,0.2,2.3,0.7
		c0.6,0.5,0.8,1.2,0.9,2V62c0,0.8,0.1,1.4,0.3,1.9V64H590.8z M588.4,62.9c0.5,0,0.9-0.1,1.3-0.4s0.7-0.5,0.9-0.9v-1.7h-1.1
		c-1.8,0-2.7,0.5-2.7,1.6c0,0.5,0.2,0.8,0.5,1.1C587.5,62.8,587.9,62.9,588.4,62.9z"/>
	<path class="st7" d="M595.6,62.8h4.9V64h-6.7v-1.1l4.7-6.2h-4.6v-1.2h6.4v1L595.6,62.8z"/>
	<path class="st7" d="M607.3,58.9l-5.2-2v-1.5l6.7,3v1.1l-6.7,3V61L607.3,58.9z"/>
	<path class="st7" d="M615.6,58.9l-5.2-2v-1.5l6.7,3v1.1l-6.7,3V61L615.6,58.9z"/>
</g>
<g class="st6">
	<path class="st7" d="M540.1,84h-1.5V72.6h1.5V84z"/>
	<path class="st7" d="M551.2,80.4c-0.1,1.2-0.6,2.1-1.3,2.8c-0.7,0.7-1.7,1-3,1c-1.3,0-2.4-0.5-3.2-1.4c-0.8-1-1.2-2.3-1.2-3.9v-1.1
		c0-1.1,0.2-2,0.6-2.8c0.4-0.8,0.9-1.4,1.6-1.8c0.7-0.4,1.5-0.6,2.4-0.6c1.2,0,2.2,0.3,2.9,1c0.7,0.7,1.2,1.6,1.3,2.8h-1.5
		c-0.1-0.9-0.4-1.6-0.8-2c-0.4-0.4-1-0.6-1.8-0.6c-1,0-1.7,0.4-2.3,1.1c-0.5,0.7-0.8,1.7-0.8,3v1.1c0,1.2,0.3,2.2,0.8,2.9
		s1.2,1.1,2.2,1.1c0.8,0,1.5-0.2,1.9-0.6s0.7-1,0.9-2H551.2z"/>
	<path class="st7" d="M552.7,79.7c0-0.8,0.2-1.6,0.5-2.2c0.3-0.7,0.8-1.2,1.4-1.5c0.6-0.4,1.2-0.5,2-0.5c1.2,0,2.1,0.4,2.8,1.2
		s1.1,1.9,1.1,3.2v0.1c0,0.8-0.2,1.6-0.5,2.2c-0.3,0.7-0.8,1.2-1.4,1.5s-1.3,0.5-2,0.5c-1.1,0-2.1-0.4-2.8-1.2s-1.1-1.9-1.1-3.2
		V79.7z M554.1,79.9c0,0.9,0.2,1.7,0.7,2.3c0.4,0.6,1,0.9,1.7,0.9c0.7,0,1.3-0.3,1.8-0.9c0.4-0.6,0.6-1.4,0.6-2.4
		c0-0.9-0.2-1.7-0.7-2.3c-0.4-0.6-1-0.9-1.8-0.9c-0.7,0-1.3,0.3-1.7,0.9S554.1,78.8,554.1,79.9z"/>
	<path class="st7" d="M563.5,75.5l0,0.9c0.6-0.7,1.5-1.1,2.5-1.1c1.2,0,2,0.5,2.4,1.4c0.3-0.4,0.6-0.7,1.1-1c0.5-0.2,1-0.4,1.6-0.4
		c1.9,0,2.8,1,2.8,2.9V84h-1.4v-5.6c0-0.6-0.1-1.1-0.4-1.4c-0.3-0.3-0.7-0.4-1.4-0.4c-0.5,0-1,0.2-1.3,0.5c-0.4,0.3-0.6,0.8-0.6,1.3
		V84h-1.5v-5.5c0-1.2-0.6-1.8-1.8-1.8c-0.9,0-1.6,0.4-1.9,1.2V84h-1.4v-8.5H563.5z"/>
	<path class="st7" d="M581.4,84c-0.1-0.2-0.2-0.5-0.2-0.9c-0.7,0.7-1.5,1-2.4,1c-0.8,0-1.5-0.2-2.1-0.7c-0.5-0.5-0.8-1.1-0.8-1.8
		c0-0.9,0.3-1.6,1-2.1c0.7-0.5,1.6-0.7,2.8-0.7h1.4v-0.7c0-0.5-0.2-0.9-0.5-1.2c-0.3-0.3-0.7-0.4-1.3-0.4c-0.5,0-0.9,0.1-1.3,0.4
		c-0.3,0.3-0.5,0.6-0.5,0.9h-1.5c0-0.4,0.1-0.8,0.4-1.2c0.3-0.4,0.7-0.7,1.2-0.9c0.5-0.2,1.1-0.3,1.7-0.3c1,0,1.7,0.2,2.3,0.7
		c0.6,0.5,0.8,1.2,0.9,2V82c0,0.8,0.1,1.4,0.3,1.9V84H581.4z M579,82.9c0.5,0,0.9-0.1,1.3-0.4s0.7-0.5,0.9-0.9v-1.7h-1.1
		c-1.8,0-2.7,0.5-2.7,1.6c0,0.5,0.2,0.8,0.5,1.1C578.2,82.8,578.6,82.9,579,82.9z"/>
	<path class="st7" d="M586.3,75.5l0,1.1c0.6-0.8,1.5-1.2,2.5-1.2c1.8,0,2.7,1,2.7,3V84h-1.4v-5.6c0-0.6-0.1-1.1-0.4-1.4
		s-0.7-0.4-1.3-0.4c-0.5,0-0.9,0.1-1.2,0.4c-0.4,0.2-0.6,0.6-0.8,1v6h-1.4v-8.5H586.3z"/>
	<path class="st7" d="M593.4,79.7c0-1.3,0.3-2.3,0.9-3.1c0.6-0.8,1.4-1.2,2.4-1.2c1,0,1.8,0.3,2.4,1V72h1.4v12h-1.3l-0.1-0.9
		c-0.6,0.7-1.4,1.1-2.4,1.1c-1,0-1.8-0.4-2.4-1.2s-0.9-1.8-0.9-3.1V79.7z M594.8,79.9c0,1,0.2,1.7,0.6,2.2c0.4,0.5,0.9,0.8,1.6,0.8
		c0.9,0,1.6-0.4,2-1.2v-3.9c-0.4-0.8-1.1-1.2-2-1.2c-0.7,0-1.3,0.3-1.7,0.8C595,78,594.8,78.8,594.8,79.9z"/>
	<path class="st7" d="M602.4,79.7c0-0.8,0.2-1.6,0.5-2.2c0.3-0.7,0.8-1.2,1.4-1.5c0.6-0.4,1.2-0.5,2-0.5c1.2,0,2.1,0.4,2.8,1.2
		s1.1,1.9,1.1,3.2v0.1c0,0.8-0.2,1.6-0.5,2.2c-0.3,0.7-0.8,1.2-1.4,1.5s-1.3,0.5-2,0.5c-1.1,0-2.1-0.4-2.8-1.2s-1.1-1.9-1.1-3.2
		V79.7z M603.8,79.9c0,0.9,0.2,1.7,0.7,2.3c0.4,0.6,1,0.9,1.7,0.9c0.7,0,1.3-0.3,1.8-0.9c0.4-0.6,0.6-1.4,0.6-2.4
		c0-0.9-0.2-1.7-0.7-2.3c-0.4-0.6-1-0.9-1.8-0.9c-0.7,0-1.3,0.3-1.7,0.9S603.8,78.8,603.8,79.9z"/>
</g>
<g id="Grupo_104330" transform="translate(935.808 2584) rotate(90)" class="st8">
	<g id="Grupo_99295" transform="translate(0 0)">
		<path id="Polígono_36" class="st7" d="M-2518.4,513.5l-6.6-11h13.2L-2518.4,513.5z"/>
		
			<rect id="Rectángulo_42834" x="-2556.4" y="463.6" transform="matrix(2.535182e-06 1 -1 2.535182e-06 -2052.6301 2984.1624)" class="st7" width="75.9" height="4.4"/>
	</g>
</g>
<g id="Grupo_104332" transform="translate(1012.2 2682.652) rotate(-180)" class="st8">
	<g id="Grupo_99295-2" transform="translate(0 -4.192)">
		<path id="Polígono_36-2" class="st7" d="M438.6,2591.4l-6.6-11h13.2L438.6,2591.4z"/>
		<rect id="Rectángulo_42834-2" x="436.4" y="2572.8" class="st7" width="4.4" height="8.8"/>
		<rect id="Rectángulo_45228" x="436.4" y="2558.8" class="st7" width="4.4" height="8.8"/>
		<rect id="Rectángulo_45229" x="436.4" y="2544.8" class="st7" width="4.4" height="8.8"/>
		<rect id="Rectángulo_45230" x="436.4" y="2532.8" class="st7" width="4.4" height="8.8"/>
	</g>
</g>
<g id="Grupo_104331" transform="translate(937.689 2699) rotate(90)" class="st8">
	<g id="Grupo_99295-3" transform="translate(0 0)">
		<path id="Polígono_36-3" class="st7" d="M-2518.4,432l6.6,11h-13.2L-2518.4,432z"/>
		
			<rect id="Rectángulo_42834-3" x="-2660.4" y="581.5" transform="matrix(2.535182e-06 1 -1 2.535182e-06 -1934.6602 3102.1321)" class="st7" width="283.9" height="4.4"/>
	</g>
</g>
<rect id="Rectángulo_45225" x="210.8" y="63.4" class="st9" width="75.9" height="4.4"/>
</svg>
