<?xml version="1.0" encoding="utf-8"?>
<!-- Generator: Adobe Illustrator 25.4.2, SVG Export Plug-In . SVG Version: 6.00 Build 0)  -->
<svg version="1.1" id="Capa_1" xmlns="http://www.w3.org/2000/svg" xmlns:xlink="http://www.w3.org/1999/xlink" x="0px" y="0px"
	 viewBox="0 0 546 512" style="enable-background:new 0 0 546 512;" xml:space="preserve">
<style type="text/css">
	.st0{fill:#FFFFFF;}
	.st1{fill:none;stroke:#12263F;stroke-width:2;}
	.st2{fill:#CEF9FF;}
	.st3{fill:#4DD0E1;}
	.st4{fill:#12263F;}
	.st5{enable-background:new    ;}
	.st6{fill:#FFCA28;}
	.st7{fill:#53C7FF;}
	.st8{fill:none;stroke:#12263F;stroke-width:2;stroke-dasharray:2,2;}
</style>
<g id="Rectángulo_45466" transform="translate(833 2250)">
	<rect x="-833" y="-2217" class="st0" width="546" height="105"/>
	<rect x="-832" y="-2216" class="st1" width="544" height="103"/>
</g>
<g id="Rectángulo_45467" transform="translate(833 2217)">
	<rect x="-833" y="-2217" class="st2" width="217" height="35"/>
	<rect x="-832" y="-2216" class="st1" width="215" height="33"/>
</g>
<g id="Grupo_106681" transform="translate(49.672 383.5)">
	<g id="Grupo_106676" transform="translate(-135.5 -77.5)">
		<g id="Trazado_218228" transform="translate(965.112 1969)">
			<path class="st3" d="M-665.5-2158h-164.6c-0.6,0-1-0.5-1.2-0.8c-0.4-0.6-0.7-1.4-0.7-2.3v-51.9c0-0.9,0.2-1.7,0.7-2.3
				c0.2-0.3,0.6-0.8,1.2-0.8h164.6c0.6,0,1,0.5,1.2,0.8c0.4,0.6,0.7,1.4,0.7,2.3v51.9c0,0.9-0.2,1.7-0.7,2.3
				C-664.5-2158.4-664.9-2158-665.5-2158z"/>
			<path class="st4" d="M-830.1-2215c-0.2,0-0.9,0.7-0.9,2.1v51.9c0,1.3,0.7,2.1,0.9,2.1h164.6c0.2,0,0.9-0.7,0.9-2.1v-51.9
				c0-1.3-0.7-2.1-0.9-2.1H-830.1 M-830.1-2217h164.6c1.6,0,2.9,1.8,2.9,4.1v51.9c0,2.2-1.3,4.1-2.9,4.1h-164.6
				c-1.6,0-2.9-1.8-2.9-4.1v-51.9C-833-2215.2-831.7-2217-830.1-2217z"/>
		</g>
		<g id="Trazado_218229" transform="translate(945.5 1983.605)">
			<path class="st3" d="M-793.5-2205H-832v-11h38.5V-2205z"/>
			<path class="st4" d="M-831-2215v9h36.5v-9H-831 M-832.3-2217h39.1c0.4,0,0.7,0.4,0.7,0.9v11.2c0,0.5-0.3,0.9-0.7,0.9h-39.1
				c-0.4,0-0.7-0.4-0.7-0.9v-11.2C-833-2216.6-832.7-2217-832.3-2217z"/>
		</g>
		<g id="Trazado_218230" transform="translate(945.5 2005.512)">
			<path class="st3" d="M-793.5-2205H-832v-11h38.5V-2205z"/>
			<path class="st4" d="M-831-2215v9h36.5v-9H-831 M-832.3-2217h39.1c0.4,0,0.7,0.4,0.7,0.9v11.2c0,0.5-0.3,0.9-0.7,0.9h-39.1
				c-0.4,0-0.7-0.4-0.7-0.9v-11.2C-833-2216.6-832.7-2217-832.3-2217z"/>
		</g>
		<g class="st5">
			<path class="st4" d="M195.4-220.9h-2.6v-12.8h2.6V-220.9z"/>
			<path class="st4" d="M200.1-230.4l0.1,1.1c0.7-0.8,1.6-1.3,2.7-1.3c1,0,1.8,0.3,2.2,0.9s0.7,1.5,0.8,2.7v6.1h-2.5v-6.1
				c0-0.5-0.1-0.9-0.4-1.2c-0.2-0.2-0.6-0.4-1.2-0.4c-0.7,0-1.3,0.3-1.6,0.9v6.7h-2.5v-9.5H200.1z"/>
			<path class="st4" d="M210.8-232.7v2.3h1.6v1.9h-1.6v4.7c0,0.4,0.1,0.6,0.2,0.8s0.4,0.2,0.8,0.2c0.3,0,0.5,0,0.7-0.1v1.9
				c-0.5,0.2-1,0.2-1.5,0.2c-1.8,0-2.7-0.9-2.7-2.7v-5.1h-1.4v-1.9h1.4v-2.3H210.8z"/>
			<path class="st4" d="M218.3-220.7c-1.4,0-2.5-0.4-3.4-1.3s-1.3-2-1.3-3.4v-0.2c0-1,0.2-1.8,0.6-2.6s0.9-1.3,1.6-1.7
				s1.4-0.6,2.3-0.6c1.3,0,2.3,0.4,3.1,1.2s1.1,2,1.1,3.5v1h-6.1c0.1,0.6,0.3,1.1,0.7,1.5s0.9,0.6,1.6,0.6c1,0,1.7-0.4,2.3-1.1
				l1.2,1.4c-0.4,0.5-0.9,1-1.5,1.3C219.8-220.9,219.1-220.7,218.3-220.7z M218-228.5c-0.5,0-0.9,0.2-1.2,0.5
				c-0.3,0.3-0.5,0.8-0.6,1.5h3.5v-0.2c0-0.6-0.2-1-0.5-1.3C218.9-228.4,218.5-228.5,218-228.5z"/>
			<path class="st4" d="M229-228c-0.3,0-0.7-0.1-0.9-0.1c-1,0-1.6,0.3-1.9,1v6.2h-2.5v-9.5h2.4l0.1,1.1c0.5-0.9,1.2-1.3,2.1-1.3
				c0.3,0,0.5,0,0.8,0.1L229-228z"/>
			<path class="st4" d="M231-220.9v-7.6h-1.4v-1.9h1.4v-0.8c0-1.1,0.3-1.9,0.9-2.5c0.6-0.6,1.5-0.9,2.6-0.9c0.4,0,0.8,0.1,1.3,0.2
				l0,2c-0.2-0.1-0.5-0.1-0.8-0.1c-1,0-1.4,0.4-1.4,1.3v0.8h1.9v1.9h-1.9v7.6H231z"/>
			<path class="st4" d="M242.3-220.9c-0.1-0.2-0.2-0.5-0.3-0.9c-0.6,0.7-1.4,1-2.4,1c-0.9,0-1.7-0.3-2.3-0.8s-0.9-1.2-0.9-2
				c0-1,0.4-1.8,1.1-2.3s1.8-0.8,3.2-0.8h1.2v-0.5c0-0.4-0.1-0.8-0.3-1.1s-0.6-0.4-1.1-0.4c-0.4,0-0.8,0.1-1,0.3s-0.4,0.5-0.4,0.8
				h-2.5c0-0.6,0.2-1.1,0.5-1.5s0.8-0.8,1.4-1.1s1.3-0.4,2.1-0.4c1.2,0,2.1,0.3,2.8,0.9c0.7,0.6,1,1.4,1,2.5v4.1
				c0,0.9,0.1,1.6,0.4,2v0.1H242.3z M240.2-222.7c0.4,0,0.7-0.1,1-0.3c0.3-0.2,0.6-0.4,0.7-0.7v-1.6H241c-1.3,0-1.9,0.4-2,1.3l0,0.1
				c0,0.3,0.1,0.6,0.3,0.8S239.8-222.7,240.2-222.7z"/>
			<path class="st4" d="M249.4-222.9h4.6v2h-7.9v-1.5l4.5-5.9h-4.3v-2h7.6v1.5L249.4-222.9z"/>
		</g>
		<g class="st5">
			<path class="st4" d="M194.8-197.9c-0.6,0.8-1.5,1.1-2.6,1.1c-1,0-1.8-0.3-2.3-0.9s-0.8-1.4-0.8-2.6v-6.2h2.5v6.2
				c0,1,0.5,1.5,1.4,1.5c0.9,0,1.5-0.3,1.8-0.9v-6.7h2.5v9.5h-2.4L194.8-197.9z"/>
			<path class="st4" d="M204.4-199.5c0-0.3-0.2-0.6-0.5-0.7s-0.8-0.3-1.5-0.5c-2.3-0.5-3.4-1.4-3.4-2.9c0-0.8,0.4-1.5,1.1-2.1
				c0.7-0.6,1.6-0.8,2.7-0.8c1.2,0,2.2,0.3,2.9,0.9s1.1,1.3,1.1,2.2h-2.5c0-0.4-0.1-0.7-0.4-0.9c-0.2-0.2-0.6-0.4-1.1-0.4
				c-0.4,0-0.8,0.1-1,0.3s-0.4,0.4-0.4,0.7c0,0.3,0.1,0.5,0.4,0.7c0.3,0.2,0.7,0.3,1.3,0.4s1.2,0.3,1.6,0.4c1.3,0.5,2,1.3,2,2.6
				c0,0.9-0.4,1.6-1.1,2.1c-0.7,0.5-1.7,0.8-2.9,0.8c-0.8,0-1.5-0.1-2.1-0.4c-0.6-0.3-1.1-0.7-1.5-1.2c-0.4-0.5-0.5-1-0.5-1.6h2.4
				c0,0.5,0.2,0.8,0.5,1s0.7,0.4,1.2,0.4c0.5,0,0.9-0.1,1.1-0.3C204.2-199,204.4-199.2,204.4-199.5z"/>
			<path class="st4" d="M214.2-197.9c-0.6,0.8-1.5,1.1-2.6,1.1c-1,0-1.8-0.3-2.3-0.9s-0.8-1.4-0.8-2.6v-6.2h2.5v6.2
				c0,1,0.5,1.5,1.4,1.5c0.9,0,1.5-0.3,1.8-0.9v-6.7h2.5v9.5h-2.4L214.2-197.9z"/>
			<path class="st4" d="M224-196.9c-0.1-0.2-0.2-0.5-0.3-0.9c-0.6,0.7-1.4,1-2.4,1c-0.9,0-1.7-0.3-2.3-0.8s-0.9-1.2-0.9-2
				c0-1,0.4-1.8,1.1-2.3s1.8-0.8,3.2-0.8h1.2v-0.5c0-0.4-0.1-0.8-0.3-1.1s-0.6-0.4-1.1-0.4c-0.4,0-0.8,0.1-1,0.3s-0.4,0.5-0.4,0.8
				h-2.5c0-0.6,0.2-1.1,0.5-1.5s0.8-0.8,1.4-1.1s1.3-0.4,2.1-0.4c1.2,0,2.1,0.3,2.8,0.9c0.7,0.6,1,1.4,1,2.5v4.1
				c0,0.9,0.1,1.6,0.4,2v0.1H224z M221.9-198.7c0.4,0,0.7-0.1,1-0.3c0.3-0.2,0.6-0.4,0.7-0.7v-1.6h-0.9c-1.3,0-1.9,0.4-2,1.3l0,0.1
				c0,0.3,0.1,0.6,0.3,0.8S221.6-198.7,221.9-198.7z"/>
			<path class="st4" d="M233.5-204c-0.3,0-0.7-0.1-0.9-0.1c-1,0-1.6,0.3-1.9,1v6.2h-2.5v-9.5h2.4l0.1,1.1c0.5-0.9,1.2-1.3,2.1-1.3
				c0.3,0,0.5,0,0.8,0.1L233.5-204z"/>
			<path class="st4" d="M234.7-208.9c0-0.4,0.1-0.7,0.4-0.9s0.6-0.4,1-0.4c0.4,0,0.8,0.1,1,0.4s0.4,0.6,0.4,0.9
				c0,0.4-0.1,0.7-0.4,0.9s-0.6,0.4-1,0.4s-0.8-0.1-1-0.4S234.7-208.5,234.7-208.9z M237.4-196.9h-2.5v-9.5h2.5V-196.9z"/>
			<path class="st4" d="M239.1-201.7c0-0.9,0.2-1.8,0.5-2.5s0.9-1.3,1.6-1.7s1.5-0.6,2.4-0.6c1.3,0,2.3,0.4,3.1,1.2s1.3,1.9,1.4,3.2
				l0,0.7c0,1.5-0.4,2.6-1.2,3.5s-1.9,1.3-3.3,1.3s-2.5-0.4-3.3-1.3s-1.2-2.1-1.2-3.6V-201.7z M241.7-201.5c0,0.9,0.2,1.6,0.5,2.1
				c0.3,0.5,0.8,0.7,1.5,0.7c0.6,0,1.1-0.2,1.4-0.7c0.3-0.5,0.5-1.2,0.5-2.3c0-0.9-0.2-1.6-0.5-2.1s-0.8-0.7-1.5-0.7
				c-0.6,0-1.1,0.2-1.4,0.7C241.8-203.3,241.7-202.6,241.7-201.5z"/>
			<path class="st4" d="M254.8-199.5c0-0.3-0.2-0.6-0.5-0.7s-0.8-0.3-1.5-0.5c-2.3-0.5-3.4-1.4-3.4-2.9c0-0.8,0.4-1.5,1.1-2.1
				c0.7-0.6,1.6-0.8,2.7-0.8c1.2,0,2.2,0.3,2.9,0.9s1.1,1.3,1.1,2.2h-2.5c0-0.4-0.1-0.7-0.4-0.9c-0.2-0.2-0.6-0.4-1.1-0.4
				c-0.4,0-0.8,0.1-1,0.3s-0.4,0.4-0.4,0.7c0,0.3,0.1,0.5,0.4,0.7c0.3,0.2,0.7,0.3,1.3,0.4s1.2,0.3,1.6,0.4c1.3,0.5,2,1.3,2,2.6
				c0,0.9-0.4,1.6-1.1,2.1c-0.7,0.5-1.7,0.8-2.9,0.8c-0.8,0-1.5-0.1-2.1-0.4c-0.6-0.3-1.1-0.7-1.5-1.2c-0.4-0.5-0.5-1-0.5-1.6h2.4
				c0,0.5,0.2,0.8,0.5,1s0.7,0.4,1.2,0.4c0.5,0,0.9-0.1,1.1-0.3C254.7-199,254.8-199.2,254.8-199.5z"/>
		</g>
	</g>
</g>
<g id="Grupo_106683" transform="translate(259.672 383.5)">
	<g id="Grupo_106676-2" transform="translate(-135.5 -77.5)">
		<g id="Trazado_218228-2" transform="translate(965.112 1969)">
			<path class="st6" d="M-665.5-2158h-164.6c-0.6,0-1-0.5-1.2-0.8c-0.4-0.6-0.7-1.4-0.7-2.3v-51.9c0-0.9,0.2-1.7,0.7-2.3
				c0.2-0.3,0.6-0.8,1.2-0.8h164.6c0.6,0,1,0.5,1.2,0.8c0.4,0.6,0.7,1.4,0.7,2.3v51.9c0,0.9-0.2,1.7-0.7,2.3
				C-664.5-2158.4-664.9-2158-665.5-2158z"/>
			<path class="st4" d="M-830.1-2215c-0.2,0-0.9,0.7-0.9,2.1v51.9c0,1.3,0.7,2.1,0.9,2.1h164.6c0.2,0,0.9-0.7,0.9-2.1v-51.9
				c0-1.3-0.7-2.1-0.9-2.1H-830.1 M-830.1-2217h164.6c1.6,0,2.9,1.8,2.9,4.1v51.9c0,2.2-1.3,4.1-2.9,4.1h-164.6
				c-1.6,0-2.9-1.8-2.9-4.1v-51.9C-833-2215.2-831.7-2217-830.1-2217z"/>
		</g>
		<g id="Trazado_218229-2" transform="translate(945.5 1983.605)">
			<path class="st6" d="M-793.5-2205H-832v-11h38.5V-2205z"/>
			<path class="st4" d="M-831-2215v9h36.5v-9H-831 M-832.3-2217h39.1c0.4,0,0.7,0.4,0.7,0.9v11.2c0,0.5-0.3,0.9-0.7,0.9h-39.1
				c-0.4,0-0.7-0.4-0.7-0.9v-11.2C-833-2216.6-832.7-2217-832.3-2217z"/>
		</g>
		<g id="Trazado_218230-2" transform="translate(945.5 2005.512)">
			<path class="st6" d="M-793.5-2205H-832v-11h38.5V-2205z"/>
			<path class="st4" d="M-831-2215v9h36.5v-9H-831 M-832.3-2217h39.1c0.4,0,0.7,0.4,0.7,0.9v11.2c0,0.5-0.3,0.9-0.7,0.9h-39.1
				c-0.4,0-0.7-0.4-0.7-0.9v-11.2C-833-2216.6-832.7-2217-832.3-2217z"/>
		</g>
		<g class="st5">
			<path class="st4" d="M201.3-220.9h-2.6v-12.8h2.6V-220.9z"/>
			<path class="st4" d="M205.9-230.4l0.1,1.1c0.7-0.8,1.6-1.3,2.7-1.3c1,0,1.8,0.3,2.2,0.9s0.7,1.5,0.8,2.7v6.1h-2.5v-6.1
				c0-0.5-0.1-0.9-0.4-1.2c-0.2-0.2-0.6-0.4-1.2-0.4c-0.7,0-1.3,0.3-1.6,0.9v6.7h-2.5v-9.5H205.9z"/>
			<path class="st4" d="M216.7-232.7v2.3h1.6v1.9h-1.6v4.7c0,0.4,0.1,0.6,0.2,0.8s0.4,0.2,0.8,0.2c0.3,0,0.5,0,0.7-0.1v1.9
				c-0.5,0.2-1,0.2-1.5,0.2c-1.8,0-2.7-0.9-2.7-2.7v-5.1h-1.4v-1.9h1.4v-2.3H216.7z"/>
			<path class="st4" d="M224.1-220.7c-1.4,0-2.5-0.4-3.4-1.3s-1.3-2-1.3-3.4v-0.2c0-1,0.2-1.8,0.6-2.6s0.9-1.3,1.6-1.7
				s1.4-0.6,2.3-0.6c1.3,0,2.3,0.4,3.1,1.2s1.1,2,1.1,3.5v1H222c0.1,0.6,0.3,1.1,0.7,1.5s0.9,0.6,1.6,0.6c1,0,1.7-0.4,2.3-1.1
				l1.2,1.4c-0.4,0.5-0.9,1-1.5,1.3C225.6-220.9,224.9-220.7,224.1-220.7z M223.8-228.5c-0.5,0-0.9,0.2-1.2,0.5
				c-0.3,0.3-0.5,0.8-0.6,1.5h3.5v-0.2c0-0.6-0.2-1-0.5-1.3C224.8-228.4,224.3-228.5,223.8-228.5z"/>
			<path class="st4" d="M234.8-228c-0.3,0-0.7-0.1-0.9-0.1c-1,0-1.6,0.3-1.9,1v6.2h-2.5v-9.5h2.4l0.1,1.1c0.5-0.9,1.2-1.3,2.1-1.3
				c0.3,0,0.5,0,0.8,0.1L234.8-228z"/>
			<path class="st4" d="M236.9-220.9v-7.6h-1.4v-1.9h1.4v-0.8c0-1.1,0.3-1.9,0.9-2.5c0.6-0.6,1.5-0.9,2.6-0.9c0.4,0,0.8,0.1,1.3,0.2
				l0,2c-0.2-0.1-0.5-0.1-0.8-0.1c-1,0-1.4,0.4-1.4,1.3v0.8h1.9v1.9h-1.9v7.6H236.9z"/>
			<path class="st4" d="M248.2-220.9c-0.1-0.2-0.2-0.5-0.3-0.9c-0.6,0.7-1.4,1-2.4,1c-0.9,0-1.7-0.3-2.3-0.8s-0.9-1.2-0.9-2
				c0-1,0.4-1.8,1.1-2.3s1.8-0.8,3.2-0.8h1.2v-0.5c0-0.4-0.1-0.8-0.3-1.1s-0.6-0.4-1.1-0.4c-0.4,0-0.8,0.1-1,0.3s-0.4,0.5-0.4,0.8
				h-2.5c0-0.6,0.2-1.1,0.5-1.5s0.8-0.8,1.4-1.1s1.3-0.4,2.1-0.4c1.2,0,2.1,0.3,2.8,0.9c0.7,0.6,1,1.4,1,2.5v4.1
				c0,0.9,0.1,1.6,0.4,2v0.1H248.2z M246.1-222.7c0.4,0,0.7-0.1,1-0.3c0.3-0.2,0.6-0.4,0.7-0.7v-1.6h-0.9c-1.3,0-1.9,0.4-2,1.3
				l0,0.1c0,0.3,0.1,0.6,0.3,0.8S245.7-222.7,246.1-222.7z"/>
			<path class="st4" d="M255.2-222.9h4.6v2H252v-1.5l4.5-5.9h-4.3v-2h7.6v1.5L255.2-222.9z"/>
		</g>
		<g class="st5">
			<path class="st4" d="M178.8-196.9c-0.1-0.2-0.2-0.5-0.3-0.9c-0.6,0.7-1.4,1-2.4,1c-0.9,0-1.7-0.3-2.3-0.8s-0.9-1.2-0.9-2
				c0-1,0.4-1.8,1.1-2.3s1.8-0.8,3.2-0.8h1.2v-0.5c0-0.4-0.1-0.8-0.3-1.1s-0.6-0.4-1.1-0.4c-0.4,0-0.8,0.1-1,0.3s-0.4,0.5-0.4,0.8
				h-2.5c0-0.6,0.2-1.1,0.5-1.5s0.8-0.8,1.4-1.1s1.3-0.4,2.1-0.4c1.2,0,2.1,0.3,2.8,0.9c0.7,0.6,1,1.4,1,2.5v4.1
				c0,0.9,0.1,1.6,0.4,2v0.1H178.8z M176.7-198.7c0.4,0,0.7-0.1,1-0.3c0.3-0.2,0.6-0.4,0.7-0.7v-1.6h-0.9c-1.3,0-1.9,0.4-2,1.3
				l0,0.1c0,0.3,0.1,0.6,0.3,0.8S176.3-198.7,176.7-198.7z"/>
			<path class="st4" d="M182.5-201.7c0-1.5,0.3-2.7,1-3.5s1.6-1.3,2.7-1.3c0.9,0,1.7,0.3,2.3,1v-4.9h2.5v13.5h-2.3l-0.1-1
				c-0.6,0.8-1.4,1.2-2.4,1.2c-1.1,0-2-0.4-2.7-1.3S182.5-200.1,182.5-201.7z M185.1-201.5c0,0.9,0.2,1.6,0.5,2.1s0.8,0.7,1.4,0.7
				c0.8,0,1.3-0.3,1.7-1v-3.8c-0.3-0.7-0.9-1-1.6-1C185.7-204.5,185.1-203.5,185.1-201.5z"/>
			<path class="st4" d="M195.5-206.4l0.1,1.1c0.7-0.8,1.6-1.2,2.7-1.2c1.2,0,2.1,0.5,2.5,1.5c0.7-1,1.6-1.5,2.9-1.5
				c1,0,1.8,0.3,2.3,0.9c0.5,0.6,0.8,1.5,0.8,2.7v6.1h-2.5v-6.1c0-0.5-0.1-0.9-0.3-1.2s-0.6-0.4-1.1-0.4c-0.8,0-1.3,0.4-1.6,1.1
				l0,6.5h-2.5v-6.1c0-0.6-0.1-0.9-0.3-1.2s-0.6-0.4-1.1-0.4c-0.7,0-1.2,0.3-1.6,0.9v6.7h-2.5v-9.5H195.5z"/>
			<path class="st4" d="M208.7-208.9c0-0.4,0.1-0.7,0.4-0.9s0.6-0.4,1-0.4c0.4,0,0.8,0.1,1,0.4s0.4,0.6,0.4,0.9
				c0,0.4-0.1,0.7-0.4,0.9s-0.6,0.4-1,0.4s-0.8-0.1-1-0.4S208.7-208.5,208.7-208.9z M211.4-196.9h-2.5v-9.5h2.5V-196.9z"/>
			<path class="st4" d="M215.8-206.4l0.1,1.1c0.7-0.8,1.6-1.3,2.7-1.3c1,0,1.8,0.3,2.2,0.9s0.7,1.5,0.8,2.7v6.1h-2.5v-6.1
				c0-0.5-0.1-0.9-0.4-1.2c-0.2-0.2-0.6-0.4-1.2-0.4c-0.7,0-1.3,0.3-1.6,0.9v6.7h-2.5v-9.5H215.8z"/>
			<path class="st4" d="M223.5-208.9c0-0.4,0.1-0.7,0.4-0.9s0.6-0.4,1-0.4c0.4,0,0.8,0.1,1,0.4s0.4,0.6,0.4,0.9
				c0,0.4-0.1,0.7-0.4,0.9s-0.6,0.4-1,0.4s-0.8-0.1-1-0.4S223.5-208.5,223.5-208.9z M226.2-196.9h-2.5v-9.5h2.5V-196.9z"/>
			<path class="st4" d="M233.4-199.5c0-0.3-0.2-0.6-0.5-0.7s-0.8-0.3-1.5-0.5c-2.3-0.5-3.4-1.4-3.4-2.9c0-0.8,0.3-1.5,1-2.1
				c0.7-0.6,1.6-0.8,2.7-0.8c1.2,0,2.2,0.3,2.9,0.9s1.1,1.3,1.1,2.2h-2.5c0-0.4-0.1-0.7-0.4-0.9c-0.2-0.2-0.6-0.4-1.1-0.4
				c-0.4,0-0.8,0.1-1,0.3s-0.4,0.4-0.4,0.7c0,0.3,0.1,0.5,0.4,0.7c0.3,0.2,0.7,0.3,1.3,0.4s1.2,0.3,1.6,0.4c1.3,0.5,2,1.3,2,2.6
				c0,0.9-0.4,1.6-1.1,2.1c-0.7,0.5-1.7,0.8-2.9,0.8c-0.8,0-1.5-0.1-2.1-0.4c-0.6-0.3-1.1-0.7-1.5-1.2c-0.4-0.5-0.5-1-0.5-1.6h2.4
				c0,0.5,0.2,0.8,0.5,1s0.7,0.4,1.2,0.4c0.5,0,0.9-0.1,1.1-0.3C233.3-199,233.4-199.2,233.4-199.5z"/>
			<path class="st4" d="M240.6-208.7v2.3h1.6v1.9h-1.6v4.7c0,0.4,0.1,0.6,0.2,0.8s0.4,0.2,0.8,0.2c0.3,0,0.5,0,0.7-0.1v1.9
				c-0.5,0.2-1,0.2-1.5,0.2c-1.8,0-2.7-0.9-2.7-2.7v-5.1h-1.4v-1.9h1.4v-2.3H240.6z"/>
			<path class="st4" d="M249-204c-0.3,0-0.7-0.1-0.9-0.1c-1,0-1.6,0.3-1.9,1v6.2h-2.5v-9.5h2.4l0.1,1.1c0.5-0.9,1.2-1.3,2.1-1.3
				c0.3,0,0.5,0,0.8,0.1L249-204z"/>
			<path class="st4" d="M255.4-196.9c-0.1-0.2-0.2-0.5-0.3-0.9c-0.6,0.7-1.4,1-2.4,1c-0.9,0-1.7-0.3-2.3-0.8s-0.9-1.2-0.9-2
				c0-1,0.4-1.8,1.1-2.3s1.8-0.8,3.2-0.8h1.2v-0.5c0-0.4-0.1-0.8-0.3-1.1s-0.6-0.4-1.1-0.4c-0.4,0-0.8,0.1-1,0.3s-0.4,0.5-0.4,0.8
				h-2.5c0-0.6,0.2-1.1,0.5-1.5s0.8-0.8,1.4-1.1s1.3-0.4,2.1-0.4c1.2,0,2.1,0.3,2.8,0.9c0.7,0.6,1,1.4,1,2.5v4.1
				c0,0.9,0.1,1.6,0.4,2v0.1H255.4z M253.3-198.7c0.4,0,0.7-0.1,1-0.3c0.3-0.2,0.6-0.4,0.7-0.7v-1.6h-0.9c-1.3,0-1.9,0.4-2,1.3
				l0,0.1c0,0.3,0.1,0.6,0.3,0.8S253-198.7,253.3-198.7z"/>
			<path class="st4" d="M259.2-201.7c0-1.5,0.3-2.7,1-3.5s1.6-1.3,2.7-1.3c0.9,0,1.7,0.3,2.3,1v-4.9h2.5v13.5h-2.3l-0.1-1
				c-0.6,0.8-1.4,1.2-2.4,1.2c-1.1,0-2-0.4-2.7-1.3S259.2-200.1,259.2-201.7z M261.7-201.5c0,0.9,0.2,1.6,0.5,2.1s0.8,0.7,1.4,0.7
				c0.8,0,1.3-0.3,1.7-1v-3.8c-0.3-0.7-0.9-1-1.6-1C262.3-204.5,261.7-203.5,261.7-201.5z"/>
			<path class="st4" d="M269.3-201.7c0-0.9,0.2-1.8,0.5-2.5s0.9-1.3,1.6-1.7s1.5-0.6,2.4-0.6c1.3,0,2.3,0.4,3.1,1.2s1.3,1.9,1.4,3.2
				l0,0.7c0,1.5-0.4,2.6-1.2,3.5s-1.9,1.3-3.3,1.3s-2.5-0.4-3.3-1.3s-1.2-2.1-1.2-3.6V-201.7z M271.9-201.5c0,0.9,0.2,1.6,0.5,2.1
				c0.3,0.5,0.8,0.7,1.5,0.7c0.6,0,1.1-0.2,1.4-0.7c0.3-0.5,0.5-1.2,0.5-2.3c0-0.9-0.2-1.6-0.5-2.1s-0.8-0.7-1.5-0.7
				c-0.6,0-1.1,0.2-1.4,0.7C272-203.3,271.9-202.6,271.9-201.5z"/>
			<path class="st4" d="M285.2-204c-0.3,0-0.7-0.1-0.9-0.1c-1,0-1.6,0.3-1.9,1v6.2h-2.5v-9.5h2.4l0.1,1.1c0.5-0.9,1.2-1.3,2.1-1.3
				c0.3,0,0.5,0,0.8,0.1L285.2-204z"/>
		</g>
	</g>
</g>
<g class="st5">
	<path class="st4" d="M10.9,21v4H8.5V13.6H13c0.9,0,1.6,0.2,2.3,0.5s1.1,0.8,1.5,1.3c0.3,0.6,0.5,1.2,0.5,2c0,1.1-0.4,2-1.1,2.6
		c-0.8,0.6-1.8,1-3.2,1H10.9z M10.9,19.1H13c0.6,0,1.1-0.1,1.4-0.4c0.3-0.3,0.5-0.7,0.5-1.2c0-0.6-0.2-1-0.5-1.4s-0.8-0.5-1.4-0.5
		h-2.1V19.1z"/>
	<path class="st4" d="M23.4,18.7c-0.3,0-0.6-0.1-0.8-0.1c-0.9,0-1.4,0.3-1.7,0.9V25h-2.3v-8.5h2.1l0.1,1c0.5-0.8,1.1-1.2,1.9-1.2
		c0.2,0,0.5,0,0.7,0.1L23.4,18.7z"/>
	<path class="st4" d="M28.4,25.2c-1.2,0-2.2-0.4-3-1.1c-0.8-0.8-1.2-1.8-1.2-3v-0.2c0-0.8,0.2-1.6,0.5-2.3s0.8-1.2,1.4-1.5
		s1.3-0.5,2.1-0.5c1.2,0,2.1,0.4,2.7,1.1s1,1.8,1,3.1v0.9h-5.4c0.1,0.6,0.3,1,0.7,1.3s0.8,0.5,1.4,0.5c0.9,0,1.5-0.3,2-0.9l1.1,1.2
		c-0.3,0.5-0.8,0.9-1.4,1.1S29.1,25.2,28.4,25.2z M28.2,18.2c-0.4,0-0.8,0.2-1.1,0.5c-0.3,0.3-0.5,0.7-0.5,1.3h3.1v-0.2
		c0-0.5-0.1-0.9-0.4-1.2C29,18.3,28.6,18.2,28.2,18.2z"/>
	<path class="st4" d="M37.8,22.7c0-0.3-0.1-0.5-0.4-0.7s-0.7-0.3-1.3-0.4c-2-0.4-3-1.3-3-2.6c0-0.8,0.3-1.4,0.9-1.9
		c0.6-0.5,1.4-0.8,2.4-0.8c1.1,0,1.9,0.3,2.6,0.8c0.6,0.5,1,1.2,1,2h-2.3c0-0.3-0.1-0.6-0.3-0.8c-0.2-0.2-0.5-0.3-1-0.3
		c-0.4,0-0.7,0.1-0.9,0.3c-0.2,0.2-0.3,0.4-0.3,0.7c0,0.2,0.1,0.5,0.4,0.6c0.2,0.2,0.6,0.3,1.2,0.4s1,0.2,1.4,0.4
		c1.2,0.4,1.8,1.2,1.8,2.3c0,0.8-0.3,1.4-1,1.9c-0.7,0.5-1.5,0.7-2.6,0.7c-0.7,0-1.3-0.1-1.9-0.4c-0.5-0.3-1-0.6-1.3-1
		s-0.5-0.9-0.5-1.4h2.1c0,0.4,0.2,0.7,0.4,0.9c0.3,0.2,0.6,0.3,1.1,0.3c0.4,0,0.8-0.1,1-0.2C37.6,23.1,37.8,22.9,37.8,22.7z"/>
	<path class="st4" d="M45.3,25.2c-1.2,0-2.2-0.4-3-1.1c-0.8-0.8-1.2-1.8-1.2-3v-0.2c0-0.8,0.2-1.6,0.5-2.3s0.8-1.2,1.4-1.5
		s1.3-0.5,2.1-0.5c1.2,0,2.1,0.4,2.7,1.1s1,1.8,1,3.1v0.9h-5.4c0.1,0.6,0.3,1,0.7,1.3s0.8,0.5,1.4,0.5c0.9,0,1.5-0.3,2-0.9l1.1,1.2
		c-0.3,0.5-0.8,0.9-1.4,1.1S46,25.2,45.3,25.2z M45,18.2c-0.4,0-0.8,0.2-1.1,0.5c-0.3,0.3-0.5,0.7-0.5,1.3h3.1v-0.2
		c0-0.5-0.1-0.9-0.4-1.2C45.9,18.3,45.5,18.2,45,18.2z"/>
	<path class="st4" d="M52.1,16.5l0.1,1c0.6-0.8,1.4-1.1,2.4-1.1c0.9,0,1.6,0.3,2,0.8s0.7,1.3,0.7,2.4V25H55v-5.4
		c0-0.5-0.1-0.8-0.3-1c-0.2-0.2-0.6-0.3-1-0.3c-0.6,0-1.1,0.3-1.4,0.8v6H50v-8.5H52.1z"/>
	<path class="st4" d="M61.7,14.5v2.1h1.4v1.7h-1.4v4.2c0,0.3,0.1,0.5,0.2,0.7c0.1,0.1,0.3,0.2,0.7,0.2c0.2,0,0.5,0,0.7-0.1V25
		c-0.4,0.1-0.9,0.2-1.4,0.2c-1.6,0-2.4-0.8-2.4-2.4v-4.6h-1.2v-1.7h1.2v-2.1H61.7z"/>
	<path class="st4" d="M69.3,25c-0.1-0.2-0.2-0.5-0.2-0.8c-0.5,0.6-1.3,0.9-2.1,0.9c-0.8,0-1.5-0.2-2.1-0.7c-0.5-0.5-0.8-1.1-0.8-1.8
		c0-0.9,0.3-1.6,1-2.1s1.6-0.7,2.9-0.7h1v-0.5c0-0.4-0.1-0.7-0.3-0.9c-0.2-0.2-0.5-0.4-0.9-0.4c-0.4,0-0.7,0.1-0.9,0.3
		c-0.2,0.2-0.3,0.4-0.3,0.8h-2.3c0-0.5,0.2-0.9,0.5-1.4c0.3-0.4,0.7-0.7,1.3-1c0.6-0.2,1.2-0.4,1.9-0.4c1,0,1.9,0.3,2.5,0.8
		c0.6,0.5,0.9,1.3,0.9,2.2V23c0,0.8,0.1,1.4,0.3,1.8V25H69.3z M67.4,23.4c0.3,0,0.6-0.1,0.9-0.2s0.5-0.3,0.6-0.6v-1.5h-0.8
		c-1.1,0-1.7,0.4-1.8,1.2l0,0.1c0,0.3,0.1,0.5,0.3,0.7C66.8,23.3,67.1,23.4,67.4,23.4z"/>
	<path class="st4" d="M76.5,23.3c0.4,0,0.8-0.1,1-0.3c0.3-0.2,0.4-0.5,0.4-0.9H80c0,0.6-0.2,1.1-0.5,1.6c-0.3,0.5-0.7,0.8-1.3,1.1
		c-0.5,0.3-1.1,0.4-1.8,0.4c-1.2,0-2.2-0.4-2.9-1.2c-0.7-0.8-1-1.8-1-3.2v-0.1c0-1.3,0.3-2.3,1-3.1c0.7-0.8,1.6-1.2,2.9-1.2
		c1.1,0,1.9,0.3,2.5,0.9c0.6,0.6,1,1.4,1,2.4h-2.1c0-0.4-0.1-0.8-0.4-1.1c-0.3-0.3-0.6-0.4-1-0.4c-0.5,0-0.9,0.2-1.2,0.6
		c-0.3,0.4-0.4,1-0.4,1.9v0.2c0,0.9,0.1,1.5,0.4,1.9S76,23.3,76.5,23.3z"/>
	<path class="st4" d="M81.3,14.4c0-0.3,0.1-0.6,0.3-0.8s0.5-0.3,0.9-0.3c0.4,0,0.7,0.1,0.9,0.3c0.2,0.2,0.3,0.5,0.3,0.8
		c0,0.3-0.1,0.6-0.3,0.8c-0.2,0.2-0.5,0.3-0.9,0.3c-0.4,0-0.7-0.1-0.9-0.3C81.4,15,81.3,14.7,81.3,14.4z M83.7,25h-2.3v-8.5h2.3V25z
		"/>
	<path class="st4" d="M85.2,20.7c0-0.8,0.2-1.6,0.5-2.2c0.3-0.7,0.8-1.2,1.4-1.5c0.6-0.4,1.3-0.5,2.1-0.5c1.1,0,2.1,0.3,2.8,1
		c0.7,0.7,1.1,1.6,1.2,2.8l0,0.6c0,1.3-0.4,2.3-1.1,3.1c-0.7,0.8-1.7,1.2-2.9,1.2S87,24.8,86.3,24s-1.1-1.8-1.1-3.2V20.7z
		 M87.5,20.9c0,0.8,0.2,1.4,0.5,1.8c0.3,0.4,0.7,0.6,1.3,0.6c0.5,0,1-0.2,1.3-0.6c0.3-0.4,0.5-1.1,0.5-2c0-0.8-0.2-1.4-0.5-1.8
		c-0.3-0.4-0.7-0.6-1.3-0.6c-0.6,0-1,0.2-1.3,0.6C87.6,19.3,87.5,20,87.5,20.9z M89.7,13h2.5L90,15.4h-1.8L89.7,13z"/>
	<path class="st4" d="M96.7,16.5l0.1,1c0.6-0.8,1.4-1.1,2.4-1.1c0.9,0,1.6,0.3,2,0.8s0.7,1.3,0.7,2.4V25h-2.3v-5.4
		c0-0.5-0.1-0.8-0.3-1c-0.2-0.2-0.6-0.3-1-0.3c-0.6,0-1.1,0.3-1.4,0.8v6h-2.3v-8.5H96.7z"/>
</g>
<g id="Rectángulo_45466-2" transform="translate(833 2250)">
	<rect x="-833" y="-2045" class="st0" width="542" height="181"/>
	<rect x="-832" y="-2044" class="st1" width="540" height="179"/>
</g>
<g id="Rectángulo_45470" transform="translate(833 2491)">
	<rect x="-833" y="-2045" class="st0" width="208" height="66"/>
	<rect x="-832" y="-2044" class="st1" width="206" height="64"/>
</g>
<g id="Rectángulo_45472" transform="translate(1142 2491)">
	<rect x="-833" y="-2045" class="st0" width="208" height="66"/>
	<rect x="-832" y="-2044" class="st1" width="206" height="64"/>
</g>
<g id="Rectángulo_45467-2" transform="translate(833 2217)">
	<rect x="-833" y="-2045" class="st2" width="217" height="35"/>
	<rect x="-832" y="-2044" class="st1" width="215" height="33"/>
</g>
<g id="Rectángulo_45469" transform="translate(833 2458)">
	<rect x="-833" y="-2045" class="st2" width="131" height="35"/>
	<rect x="-832" y="-2044" class="st1" width="129" height="33"/>
</g>
<g id="Rectángulo_45471" transform="translate(1142 2458)">
	<rect x="-833" y="-2045" class="st2" width="131" height="35"/>
	<rect x="-832" y="-2044" class="st1" width="129" height="33"/>
</g>
<g id="Trazado_218228-3" transform="translate(19.612)">
	<path class="st3" d="M154.4,289H28.9c-0.4,0-1.2-1.2-1.2-3.1v-51.9c0-1.9,0.8-3.1,1.2-3.1h125.5c0.4,0,1.2,1.2,1.2,3.1V286
		C155.6,287.9,154.8,289,154.4,289z"/>
	<path class="st4" d="M29.2,232c-0.2,0.3-0.5,1-0.5,2.1V286c0,1.1,0.3,1.8,0.5,2.1h124.9c0.2-0.3,0.5-1,0.5-2.1v-51.9
		c0-1.1-0.3-1.8-0.5-2.1H29.2 M28.9,230h125.5c1.2,0,2.2,1.8,2.2,4.1V286c0,2.2-1,4.1-2.2,4.1H28.9c-1.2,0-2.2-1.8-2.2-4.1v-51.9
		C26.7,231.8,27.7,230,28.9,230z"/>
</g>
<g id="Trazado_218229-3" transform="translate(0 14.605)">
	<path class="st3" d="M66.2,242H27.7v-11h38.5V242z"/>
	<path class="st4" d="M28.7,232v9h36.5v-9H28.7 M27.4,230h39.1c0.4,0,0.7,0.4,0.7,0.9v11.2c0,0.5-0.3,0.9-0.7,0.9H27.4
		c-0.4,0-0.7-0.4-0.7-0.9v-11.2C26.7,230.4,27,230,27.4,230z"/>
</g>
<g id="Trazado_218230-3" transform="translate(0 36.512)">
	<path class="st3" d="M66.2,242H27.7v-11h38.5V242z"/>
	<path class="st4" d="M28.7,232v9h36.5v-9H28.7 M27.4,230h39.1c0.4,0,0.7,0.4,0.7,0.9v11.2c0,0.5-0.3,0.9-0.7,0.9H27.4
		c-0.4,0-0.7-0.4-0.7-0.9v-11.2C26.7,230.4,27,230,27.4,230z"/>
</g>
<g class="st5">
	<path class="st4" d="M87.3,254.3c-0.1,1.2-0.5,2.2-1.4,2.9c-0.8,0.7-1.9,1.1-3.2,1.1c-1.5,0-2.6-0.5-3.4-1.5s-1.3-2.3-1.3-4v-0.7
		c0-1.1,0.2-2.1,0.6-2.9c0.4-0.8,0.9-1.5,1.7-1.9c0.7-0.4,1.5-0.7,2.5-0.7c1.3,0,2.4,0.4,3.2,1.1c0.8,0.7,1.3,1.7,1.4,3H85
		c-0.1-0.7-0.3-1.3-0.6-1.6s-0.9-0.5-1.6-0.5c-0.8,0-1.4,0.3-1.8,0.8c-0.4,0.6-0.6,1.4-0.6,2.6v0.9c0,1.2,0.2,2.1,0.6,2.7
		c0.4,0.6,1,0.9,1.8,0.9c0.7,0,1.3-0.2,1.6-0.5c0.4-0.3,0.6-0.8,0.6-1.5H87.3z"/>
	<path class="st4" d="M93.4,251.8c-0.3,0-0.6-0.1-0.8-0.1c-0.9,0-1.4,0.3-1.7,0.9v5.5h-2.3v-8.5h2.1l0.1,1c0.5-0.8,1.1-1.2,1.9-1.2
		c0.2,0,0.5,0,0.7,0.1L93.4,251.8z"/>
	<path class="st4" d="M98.4,258.3c-1.2,0-2.2-0.4-3-1.1c-0.8-0.8-1.2-1.8-1.2-3v-0.2c0-0.8,0.2-1.6,0.5-2.3s0.8-1.2,1.4-1.5
		s1.3-0.5,2.1-0.5c1.2,0,2.1,0.4,2.7,1.1s1,1.8,1,3.1v0.9h-5.4c0.1,0.6,0.3,1,0.7,1.3s0.8,0.5,1.4,0.5c0.9,0,1.5-0.3,2-0.9l1.1,1.2
		c-0.3,0.5-0.8,0.9-1.4,1.1S99.1,258.3,98.4,258.3z M98.2,251.3c-0.4,0-0.8,0.2-1.1,0.5c-0.3,0.3-0.5,0.7-0.5,1.3h3.1v-0.2
		c0-0.5-0.1-0.9-0.4-1.2C99,251.5,98.6,251.3,98.2,251.3z"/>
	<path class="st4" d="M108.1,258.1c-0.1-0.2-0.2-0.5-0.2-0.8c-0.5,0.6-1.3,0.9-2.1,0.9c-0.8,0-1.5-0.2-2.1-0.7
		c-0.5-0.5-0.8-1.1-0.8-1.8c0-0.9,0.3-1.6,1-2.1s1.6-0.7,2.9-0.7h1v-0.5c0-0.4-0.1-0.7-0.3-0.9c-0.2-0.2-0.5-0.4-0.9-0.4
		c-0.4,0-0.7,0.1-0.9,0.3c-0.2,0.2-0.3,0.4-0.3,0.8H103c0-0.5,0.2-0.9,0.5-1.4c0.3-0.4,0.7-0.7,1.3-1c0.6-0.2,1.2-0.4,1.9-0.4
		c1,0,1.9,0.3,2.5,0.8c0.6,0.5,0.9,1.3,0.9,2.2v3.7c0,0.8,0.1,1.4,0.3,1.8v0.1H108.1z M106.2,256.5c0.3,0,0.6-0.1,0.9-0.2
		s0.5-0.3,0.6-0.6v-1.5h-0.8c-1.1,0-1.7,0.4-1.8,1.2l0,0.1c0,0.3,0.1,0.5,0.3,0.7C105.6,256.5,105.9,256.5,106.2,256.5z"/>
	<path class="st4" d="M115.3,256.5c0.4,0,0.8-0.1,1-0.3c0.3-0.2,0.4-0.5,0.4-0.9h2.1c0,0.6-0.2,1.1-0.5,1.6
		c-0.3,0.5-0.7,0.8-1.3,1.1c-0.5,0.3-1.1,0.4-1.8,0.4c-1.2,0-2.2-0.4-2.9-1.2c-0.7-0.8-1-1.8-1-3.2v-0.1c0-1.3,0.3-2.3,1-3.1
		c0.7-0.8,1.6-1.2,2.9-1.2c1.1,0,1.9,0.3,2.5,0.9c0.6,0.6,1,1.4,1,2.4h-2.1c0-0.4-0.1-0.8-0.4-1.1c-0.3-0.3-0.6-0.4-1-0.4
		c-0.5,0-0.9,0.2-1.2,0.6c-0.3,0.4-0.4,1-0.4,1.9v0.2c0,0.9,0.1,1.5,0.4,1.9S114.7,256.5,115.3,256.5z"/>
	<path class="st4" d="M120.1,247.5c0-0.3,0.1-0.6,0.3-0.8s0.5-0.3,0.9-0.3c0.4,0,0.7,0.1,0.9,0.3c0.2,0.2,0.3,0.5,0.3,0.8
		c0,0.3-0.1,0.6-0.3,0.8c-0.2,0.2-0.5,0.3-0.9,0.3c-0.4,0-0.7-0.1-0.9-0.3C120.2,248.1,120.1,247.8,120.1,247.5z M122.5,258.1h-2.3
		v-8.5h2.3V258.1z"/>
	<path class="st4" d="M124,253.8c0-0.8,0.2-1.6,0.5-2.2c0.3-0.7,0.8-1.2,1.4-1.5c0.6-0.4,1.3-0.5,2.1-0.5c1.1,0,2.1,0.3,2.8,1
		c0.7,0.7,1.1,1.6,1.2,2.8l0,0.6c0,1.3-0.4,2.3-1.1,3.1c-0.7,0.8-1.7,1.2-2.9,1.2s-2.2-0.4-2.9-1.2s-1.1-1.8-1.1-3.2V253.8z
		 M126.3,254c0,0.8,0.2,1.4,0.5,1.8c0.3,0.4,0.7,0.6,1.3,0.6c0.5,0,1-0.2,1.3-0.6c0.3-0.4,0.5-1.1,0.5-2c0-0.8-0.2-1.4-0.5-1.8
		c-0.3-0.4-0.7-0.6-1.3-0.6c-0.6,0-1,0.2-1.3,0.6C126.4,252.4,126.3,253.1,126.3,254z M128.4,246.1h2.5l-2.2,2.4h-1.8L128.4,246.1z"
		/>
	<path class="st4" d="M135.5,249.7l0.1,1c0.6-0.8,1.4-1.1,2.4-1.1c0.9,0,1.6,0.3,2,0.8s0.7,1.3,0.7,2.4v5.5h-2.3v-5.4
		c0-0.5-0.1-0.8-0.3-1c-0.2-0.2-0.6-0.3-1-0.3c-0.6,0-1.1,0.3-1.4,0.8v6h-2.3v-8.5H135.5z"/>
	<path class="st4" d="M146,253.8c0-1.3,0.3-2.4,0.9-3.1c0.6-0.8,1.4-1.2,2.4-1.2c0.8,0,1.5,0.3,2,0.9v-4.3h2.3v12h-2l-0.1-0.9
		c-0.6,0.7-1.3,1.1-2.2,1.1c-1,0-1.8-0.4-2.4-1.2S146,255.2,146,253.8z M148.2,254c0,0.8,0.1,1.4,0.4,1.8c0.3,0.4,0.7,0.6,1.2,0.6
		c0.7,0,1.2-0.3,1.5-0.9v-3.3c-0.3-0.6-0.8-0.9-1.5-0.9C148.8,251.3,148.2,252.2,148.2,254z"/>
	<path class="st4" d="M159.2,258.3c-1.2,0-2.2-0.4-3-1.1c-0.8-0.8-1.2-1.8-1.2-3v-0.2c0-0.8,0.2-1.6,0.5-2.3s0.8-1.2,1.4-1.5
		s1.3-0.5,2.1-0.5c1.2,0,2.1,0.4,2.7,1.1s1,1.8,1,3.1v0.9h-5.4c0.1,0.6,0.3,1,0.7,1.3s0.8,0.5,1.4,0.5c0.9,0,1.5-0.3,2-0.9l1.1,1.2
		c-0.3,0.5-0.8,0.9-1.4,1.1S159.9,258.3,159.2,258.3z M159,251.3c-0.4,0-0.8,0.2-1.1,0.5c-0.3,0.3-0.5,0.7-0.5,1.3h3.1v-0.2
		c0-0.5-0.1-0.9-0.4-1.2C159.8,251.5,159.5,251.3,159,251.3z"/>
</g>
<g class="st5">
	<path class="st4" d="M92,278.1v-6.8h-1.3v-1.7H92v-0.7c0-0.9,0.3-1.7,0.8-2.2c0.5-0.5,1.3-0.8,2.3-0.8c0.3,0,0.7,0.1,1.1,0.2l0,1.8
		c-0.2,0-0.4-0.1-0.7-0.1c-0.8,0-1.3,0.4-1.3,1.2v0.7H96v1.7h-1.7v6.8H92z"/>
	<path class="st4" d="M102,278.1c-0.1-0.2-0.2-0.5-0.2-0.8c-0.5,0.6-1.3,0.9-2.1,0.9c-0.8,0-1.5-0.2-2.1-0.7
		c-0.5-0.5-0.8-1.1-0.8-1.8c0-0.9,0.3-1.6,1-2.1s1.6-0.7,2.9-0.7h1v-0.5c0-0.4-0.1-0.7-0.3-0.9c-0.2-0.2-0.5-0.4-0.9-0.4
		c-0.4,0-0.7,0.1-0.9,0.3c-0.2,0.2-0.3,0.4-0.3,0.8H97c0-0.5,0.2-0.9,0.5-1.4c0.3-0.4,0.7-0.7,1.3-1c0.6-0.2,1.2-0.4,1.9-0.4
		c1,0,1.9,0.3,2.5,0.8c0.6,0.5,0.9,1.3,0.9,2.2v3.7c0,0.8,0.1,1.4,0.3,1.8v0.1H102z M100.2,276.5c0.3,0,0.6-0.1,0.9-0.2
		s0.5-0.3,0.6-0.6v-1.5h-0.8c-1.1,0-1.7,0.4-1.8,1.2l0,0.1c0,0.3,0.1,0.5,0.3,0.7C99.6,276.5,99.8,276.5,100.2,276.5z"/>
	<path class="st4" d="M109.2,276.5c0.4,0,0.8-0.1,1-0.3c0.3-0.2,0.4-0.5,0.4-0.9h2.1c0,0.6-0.2,1.1-0.5,1.6
		c-0.3,0.5-0.7,0.8-1.3,1.1c-0.5,0.3-1.1,0.4-1.8,0.4c-1.2,0-2.2-0.4-2.9-1.2c-0.7-0.8-1-1.8-1-3.2v-0.1c0-1.3,0.3-2.3,1-3.1
		c0.7-0.8,1.6-1.2,2.9-1.2c1.1,0,1.9,0.3,2.5,0.9c0.6,0.6,1,1.4,1,2.4h-2.1c0-0.4-0.1-0.8-0.4-1.1c-0.3-0.3-0.6-0.4-1-0.4
		c-0.5,0-0.9,0.2-1.2,0.6c-0.3,0.4-0.4,1-0.4,1.9v0.2c0,0.9,0.1,1.5,0.4,1.9S108.7,276.5,109.2,276.5z"/>
	<path class="st4" d="M116.8,267.6v2.1h1.4v1.7h-1.4v4.2c0,0.3,0.1,0.5,0.2,0.7c0.1,0.1,0.3,0.2,0.7,0.2c0.2,0,0.5,0,0.7-0.1v1.7
		c-0.4,0.1-0.9,0.2-1.4,0.2c-1.6,0-2.4-0.8-2.4-2.4v-4.6h-1.2v-1.7h1.2v-2.1H116.8z"/>
	<path class="st4" d="M124.5,277.3c-0.6,0.7-1.3,1-2.3,1c-0.9,0-1.6-0.3-2.1-0.8s-0.7-1.3-0.7-2.3v-5.5h2.3v5.5
		c0,0.9,0.4,1.3,1.2,1.3c0.8,0,1.3-0.3,1.6-0.8v-6h2.3v8.5h-2.1L124.5,277.3z"/>
	<path class="st4" d="M133.2,271.8c-0.3,0-0.6-0.1-0.8-0.1c-0.9,0-1.4,0.3-1.7,0.9v5.5h-2.3v-8.5h2.1l0.1,1c0.5-0.8,1.1-1.2,1.9-1.2
		c0.2,0,0.5,0,0.7,0.1L133.2,271.8z"/>
	<path class="st4" d="M138.9,278.1c-0.1-0.2-0.2-0.5-0.2-0.8c-0.5,0.6-1.3,0.9-2.1,0.9c-0.8,0-1.5-0.2-2.1-0.7
		c-0.5-0.5-0.8-1.1-0.8-1.8c0-0.9,0.3-1.6,1-2.1s1.6-0.7,2.9-0.7h1v-0.5c0-0.4-0.1-0.7-0.3-0.9c-0.2-0.2-0.5-0.4-0.9-0.4
		c-0.4,0-0.7,0.1-0.9,0.3c-0.2,0.2-0.3,0.4-0.3,0.8h-2.3c0-0.5,0.2-0.9,0.5-1.4c0.3-0.4,0.7-0.7,1.3-1c0.6-0.2,1.2-0.4,1.9-0.4
		c1,0,1.9,0.3,2.5,0.8c0.6,0.5,0.9,1.3,0.9,2.2v3.7c0,0.8,0.1,1.4,0.3,1.8v0.1H138.9z M137.1,276.5c0.3,0,0.6-0.1,0.9-0.2
		s0.5-0.3,0.6-0.6v-1.5h-0.8c-1.1,0-1.7,0.4-1.8,1.2l0,0.1c0,0.3,0.1,0.5,0.3,0.7C136.4,276.5,136.7,276.5,137.1,276.5z"/>
	<path class="st4" d="M147.2,275.8c0-0.3-0.1-0.5-0.4-0.7s-0.7-0.3-1.3-0.4c-2-0.4-3-1.3-3-2.6c0-0.8,0.3-1.4,0.9-1.9
		c0.6-0.5,1.4-0.8,2.4-0.8c1.1,0,1.9,0.3,2.6,0.8c0.6,0.5,1,1.2,1,2h-2.3c0-0.3-0.1-0.6-0.3-0.8c-0.2-0.2-0.5-0.3-1-0.3
		c-0.4,0-0.7,0.1-0.9,0.3c-0.2,0.2-0.3,0.4-0.3,0.7c0,0.2,0.1,0.5,0.4,0.6c0.2,0.2,0.6,0.3,1.2,0.4s1,0.2,1.4,0.4
		c1.2,0.4,1.8,1.2,1.8,2.3c0,0.8-0.3,1.4-1,1.9c-0.7,0.5-1.5,0.7-2.6,0.7c-0.7,0-1.3-0.1-1.9-0.4c-0.5-0.3-1-0.6-1.3-1
		s-0.5-0.9-0.5-1.4h2.1c0,0.4,0.2,0.7,0.4,0.9c0.3,0.2,0.6,0.3,1.1,0.3c0.4,0,0.8-0.1,1-0.2C147.1,276.3,147.2,276,147.2,275.8z"/>
</g>
<g id="Trazado_218228-4" transform="translate(19.612)">
	<path class="st3" d="M154.4,364H28.9c-0.4,0-1.2-1.2-1.2-3.1v-51.9c0-1.9,0.8-3.1,1.2-3.1h125.5c0.4,0,1.2,1.2,1.2,3.1V361
		C155.6,362.9,154.8,364,154.4,364z"/>
	<path class="st4" d="M29.2,307c-0.2,0.3-0.5,1-0.5,2.1V361c0,1.1,0.3,1.8,0.5,2.1h124.9c0.2-0.3,0.5-1,0.5-2.1v-51.9
		c0-1.1-0.3-1.8-0.5-2.1H29.2 M28.9,305h125.5c1.2,0,2.2,1.8,2.2,4.1V361c0,2.2-1,4.1-2.2,4.1H28.9c-1.2,0-2.2-1.8-2.2-4.1v-51.9
		C26.7,306.8,27.7,305,28.9,305z"/>
</g>
<g id="Trazado_218229-4" transform="translate(0 14.605)">
	<path class="st3" d="M66.2,317H27.7v-11h38.5V317z"/>
	<path class="st4" d="M28.7,307v9h36.5v-9H28.7 M27.4,305h39.1c0.4,0,0.7,0.4,0.7,0.9v11.2c0,0.5-0.3,0.9-0.7,0.9H27.4
		c-0.4,0-0.7-0.4-0.7-0.9v-11.2C26.7,305.4,27,305,27.4,305z"/>
</g>
<g id="Trazado_218230-4" transform="translate(0 36.512)">
	<path class="st3" d="M66.2,317H27.7v-11h38.5V317z"/>
	<path class="st4" d="M28.7,307v9h36.5v-9H28.7 M27.4,305h39.1c0.4,0,0.7,0.4,0.7,0.9v11.2c0,0.5-0.3,0.9-0.7,0.9H27.4
		c-0.4,0-0.7-0.4-0.7-0.9v-11.2C26.7,305.4,27,305,27.4,305z"/>
</g>
<g class="st5">
	<path class="st4" d="M95.5,331.7c-0.4,0.5-1,0.9-1.8,1.2c-0.8,0.3-1.6,0.4-2.6,0.4c-1,0-1.8-0.2-2.6-0.6s-1.3-1.1-1.7-1.9
		c-0.4-0.8-0.6-1.8-0.6-2.9v-0.8c0-1.1,0.2-2.1,0.6-2.9s0.9-1.5,1.7-1.9c0.7-0.4,1.6-0.7,2.5-0.7c1.3,0,2.4,0.3,3.2,1
		c0.8,0.6,1.2,1.6,1.4,2.8h-2.3c-0.1-0.7-0.3-1.1-0.7-1.4c-0.4-0.3-0.8-0.5-1.5-0.5c-0.8,0-1.4,0.3-1.8,0.9
		c-0.4,0.6-0.6,1.5-0.6,2.7v0.7c0,1.2,0.2,2.1,0.7,2.7s1.1,0.9,2,0.9c0.9,0,1.5-0.2,1.9-0.6v-2h-2.1v-1.7h4.5V331.7z"/>
	<path class="st4" d="M101.2,333.3c-1.2,0-2.2-0.4-3-1.1c-0.8-0.8-1.2-1.8-1.2-3v-0.2c0-0.8,0.2-1.6,0.5-2.3s0.8-1.2,1.4-1.5
		s1.3-0.5,2.1-0.5c1.2,0,2.1,0.4,2.7,1.1s1,1.8,1,3.1v0.9h-5.4c0.1,0.6,0.3,1,0.7,1.3s0.8,0.5,1.4,0.5c0.9,0,1.5-0.3,2-0.9l1.1,1.2
		c-0.3,0.5-0.8,0.9-1.4,1.1S101.9,333.3,101.2,333.3z M100.9,326.3c-0.4,0-0.8,0.2-1.1,0.5c-0.3,0.3-0.5,0.7-0.5,1.3h3.1v-0.2
		c0-0.5-0.1-0.9-0.4-1.2C101.8,326.5,101.4,326.3,100.9,326.3z"/>
	<path class="st4" d="M110.5,330.8c0-0.3-0.1-0.5-0.4-0.7s-0.7-0.3-1.3-0.4c-2-0.4-3-1.3-3-2.6c0-0.8,0.3-1.4,0.9-1.9
		c0.6-0.5,1.4-0.8,2.4-0.8c1.1,0,1.9,0.3,2.6,0.8c0.6,0.5,1,1.2,1,2h-2.3c0-0.3-0.1-0.6-0.3-0.8c-0.2-0.2-0.5-0.3-1-0.3
		c-0.4,0-0.7,0.1-0.9,0.3c-0.2,0.2-0.3,0.4-0.3,0.7c0,0.2,0.1,0.5,0.4,0.6c0.2,0.2,0.6,0.3,1.2,0.4s1,0.2,1.4,0.4
		c1.2,0.4,1.8,1.2,1.8,2.3c0,0.8-0.3,1.4-1,1.9c-0.7,0.5-1.5,0.7-2.6,0.7c-0.7,0-1.3-0.1-1.9-0.4c-0.5-0.3-1-0.6-1.3-1
		s-0.5-0.9-0.5-1.4h2.1c0,0.4,0.2,0.7,0.4,0.9c0.3,0.2,0.6,0.3,1.1,0.3c0.4,0,0.8-0.1,1-0.2C110.4,331.3,110.5,331,110.5,330.8z"/>
	<path class="st4" d="M116.9,322.6v2.1h1.4v1.7h-1.4v4.2c0,0.3,0.1,0.5,0.2,0.7c0.1,0.1,0.3,0.2,0.7,0.2c0.2,0,0.5,0,0.7-0.1v1.7
		c-0.4,0.1-0.9,0.2-1.4,0.2c-1.6,0-2.4-0.8-2.4-2.4v-4.6h-1.2v-1.7h1.2v-2.1H116.9z"/>
	<path class="st4" d="M119,328.8c0-0.8,0.2-1.6,0.5-2.2c0.3-0.7,0.8-1.2,1.4-1.5c0.6-0.4,1.3-0.5,2.1-0.5c1.1,0,2.1,0.3,2.8,1
		c0.7,0.7,1.1,1.6,1.2,2.8l0,0.6c0,1.3-0.4,2.3-1.1,3.1c-0.7,0.8-1.7,1.2-2.9,1.2s-2.2-0.4-2.9-1.2s-1.1-1.8-1.1-3.2V328.8z
		 M121.2,329c0,0.8,0.2,1.4,0.5,1.8c0.3,0.4,0.7,0.6,1.3,0.6c0.5,0,1-0.2,1.3-0.6c0.3-0.4,0.5-1.1,0.5-2c0-0.8-0.2-1.4-0.5-1.8
		c-0.3-0.4-0.7-0.6-1.3-0.6c-0.6,0-1,0.2-1.3,0.6C121.4,327.4,121.2,328.1,121.2,329z"/>
	<path class="st4" d="M133.1,326.8c-0.3,0-0.6-0.1-0.8-0.1c-0.9,0-1.4,0.3-1.7,0.9v5.5h-2.3v-8.5h2.1l0.1,1c0.5-0.8,1.1-1.2,1.9-1.2
		c0.2,0,0.5,0,0.7,0.1L133.1,326.8z"/>
	<path class="st4" d="M137.8,328.8c0-1.3,0.3-2.4,0.9-3.1c0.6-0.8,1.4-1.2,2.4-1.2c0.8,0,1.5,0.3,2,0.9v-4.3h2.3v12h-2l-0.1-0.9
		c-0.6,0.7-1.3,1.1-2.2,1.1c-1,0-1.8-0.4-2.4-1.2S137.8,330.2,137.8,328.8z M140.1,329c0,0.8,0.1,1.4,0.4,1.8
		c0.3,0.4,0.7,0.6,1.2,0.6c0.7,0,1.2-0.3,1.5-0.9v-3.3c-0.3-0.6-0.8-0.9-1.5-0.9C140.6,326.3,140.1,327.2,140.1,329z"/>
	<path class="st4" d="M151.1,333.3c-1.2,0-2.2-0.4-3-1.1c-0.8-0.8-1.2-1.8-1.2-3v-0.2c0-0.8,0.2-1.6,0.5-2.3s0.8-1.2,1.4-1.5
		s1.3-0.5,2.1-0.5c1.2,0,2.1,0.4,2.7,1.1s1,1.8,1,3.1v0.9h-5.4c0.1,0.6,0.3,1,0.7,1.3s0.8,0.5,1.4,0.5c0.9,0,1.5-0.3,2-0.9l1.1,1.2
		c-0.3,0.5-0.8,0.9-1.4,1.1S151.8,333.3,151.1,333.3z M150.8,326.3c-0.4,0-0.8,0.2-1.1,0.5c-0.3,0.3-0.5,0.7-0.5,1.3h3.1v-0.2
		c0-0.5-0.1-0.9-0.4-1.2C151.7,326.5,151.3,326.3,150.8,326.3z"/>
</g>
<g class="st5">
	<path class="st4" d="M102.9,353.1c-0.1-0.2-0.2-0.5-0.2-0.8c-0.5,0.6-1.3,0.9-2.1,0.9c-0.8,0-1.5-0.2-2.1-0.7
		c-0.5-0.5-0.8-1.1-0.8-1.8c0-0.9,0.3-1.6,1-2.1s1.6-0.7,2.9-0.7h1v-0.5c0-0.4-0.1-0.7-0.3-0.9c-0.2-0.2-0.5-0.4-0.9-0.4
		c-0.4,0-0.7,0.1-0.9,0.3c-0.2,0.2-0.3,0.4-0.3,0.8h-2.3c0-0.5,0.2-0.9,0.5-1.4c0.3-0.4,0.7-0.7,1.3-1c0.6-0.2,1.2-0.4,1.9-0.4
		c1,0,1.9,0.3,2.5,0.8c0.6,0.5,0.9,1.3,0.9,2.2v3.7c0,0.8,0.1,1.4,0.3,1.8v0.1H102.9z M101,351.5c0.3,0,0.6-0.1,0.9-0.2
		s0.5-0.3,0.6-0.6v-1.5h-0.8c-1.1,0-1.7,0.4-1.8,1.2l0,0.1c0,0.3,0.1,0.5,0.3,0.7C100.4,351.5,100.7,351.5,101,351.5z"/>
	<path class="st4" d="M109.6,350.4l1.6-5.7h2.4l-2.9,8.5h-2.2l-2.9-8.5h2.4L109.6,350.4z"/>
	<path class="st4" d="M114.5,342.5c0-0.3,0.1-0.6,0.3-0.8s0.5-0.3,0.9-0.3c0.4,0,0.7,0.1,0.9,0.3c0.2,0.2,0.3,0.5,0.3,0.8
		c0,0.3-0.1,0.6-0.3,0.8c-0.2,0.2-0.5,0.3-0.9,0.3c-0.4,0-0.7-0.1-0.9-0.3C114.6,343.1,114.5,342.8,114.5,342.5z M116.9,353.1h-2.3
		v-8.5h2.3V353.1z"/>
	<path class="st4" d="M123.3,350.8c0-0.3-0.1-0.5-0.4-0.7s-0.7-0.3-1.3-0.4c-2-0.4-3-1.3-3-2.6c0-0.8,0.3-1.4,0.9-1.9
		c0.6-0.5,1.4-0.8,2.4-0.8c1.1,0,1.9,0.3,2.6,0.8c0.6,0.5,1,1.2,1,2h-2.3c0-0.3-0.1-0.6-0.3-0.8c-0.2-0.2-0.5-0.3-1-0.3
		c-0.4,0-0.7,0.1-0.9,0.3c-0.2,0.2-0.3,0.4-0.3,0.7c0,0.2,0.1,0.5,0.4,0.6c0.2,0.2,0.6,0.3,1.2,0.4s1,0.2,1.4,0.4
		c1.2,0.4,1.8,1.2,1.8,2.3c0,0.8-0.3,1.4-1,1.9c-0.7,0.5-1.5,0.7-2.6,0.7c-0.7,0-1.3-0.1-1.9-0.4c-0.5-0.3-1-0.6-1.3-1
		s-0.5-0.9-0.5-1.4h2.1c0,0.4,0.2,0.7,0.4,0.9c0.3,0.2,0.6,0.3,1.1,0.3c0.4,0,0.8-0.1,1-0.2C123.2,351.3,123.3,351,123.3,350.8z"/>
	<path class="st4" d="M126.6,348.8c0-0.8,0.2-1.6,0.5-2.2c0.3-0.7,0.8-1.2,1.4-1.5c0.6-0.4,1.3-0.5,2.1-0.5c1.1,0,2.1,0.3,2.8,1
		c0.7,0.7,1.1,1.6,1.2,2.8l0,0.6c0,1.3-0.4,2.3-1.1,3.1c-0.7,0.8-1.7,1.2-2.9,1.2s-2.2-0.4-2.9-1.2s-1.1-1.8-1.1-3.2V348.8z
		 M128.9,349c0,0.8,0.2,1.4,0.5,1.8c0.3,0.4,0.7,0.6,1.3,0.6c0.5,0,1-0.2,1.3-0.6c0.3-0.4,0.5-1.1,0.5-2c0-0.8-0.2-1.4-0.5-1.8
		c-0.3-0.4-0.7-0.6-1.3-0.6c-0.6,0-1,0.2-1.3,0.6C129,347.4,128.9,348.1,128.9,349z"/>
	<path class="st4" d="M140.6,350.8c0-0.3-0.1-0.5-0.4-0.7s-0.7-0.3-1.3-0.4c-2-0.4-3-1.3-3-2.6c0-0.8,0.3-1.4,0.9-1.9
		c0.6-0.5,1.4-0.8,2.4-0.8c1.1,0,1.9,0.3,2.6,0.8c0.6,0.5,1,1.2,1,2h-2.3c0-0.3-0.1-0.6-0.3-0.8c-0.2-0.2-0.5-0.3-1-0.3
		c-0.4,0-0.7,0.1-0.9,0.3c-0.2,0.2-0.3,0.4-0.3,0.7c0,0.2,0.1,0.5,0.4,0.6c0.2,0.2,0.6,0.3,1.2,0.4s1,0.2,1.4,0.4
		c1.2,0.4,1.8,1.2,1.8,2.3c0,0.8-0.3,1.4-1,1.9c-0.7,0.5-1.5,0.7-2.6,0.7c-0.7,0-1.3-0.1-1.9-0.4c-0.5-0.3-1-0.6-1.3-1
		s-0.5-0.9-0.5-1.4h2.1c0,0.4,0.2,0.7,0.4,0.9c0.3,0.2,0.6,0.3,1.1,0.3c0.4,0,0.8-0.1,1-0.2C140.5,351.3,140.6,351,140.6,350.8z"/>
</g>
<g id="Grupo_106676-5" transform="translate(-135.5 -77.5)">
	<g id="Trazado_218228-5" transform="translate(965.112 1969)">
		<path class="st6" d="M-485.1-1602.5h-128c-0.4,0-1.2-1.2-1.2-3.1v-51.9c0-1.9,0.8-3.1,1.2-3.1h128c0.4,0,1.2,1.2,1.2,3.1v51.9
			C-483.8-1603.6-484.6-1602.5-485.1-1602.5z"/>
		<path class="st4" d="M-612.8-1659.5c-0.2,0.3-0.5,1-0.5,2.1v51.9c0,1.1,0.3,1.8,0.5,2.1h127.5c0.2-0.3,0.5-1,0.5-2.1v-51.9
			c0-1.1-0.3-1.8-0.5-2.1H-612.8 M-613.1-1661.5h128c1.2,0,2.2,1.8,2.2,4.1v51.9c0,2.2-1,4.1-2.2,4.1h-128c-1.2,0-2.2-1.8-2.2-4.1
			v-51.9C-615.3-1659.7-614.3-1661.5-613.1-1661.5z"/>
	</g>
	<g id="Trazado_218229-5" transform="translate(945.5 1983.605)">
		<path class="st6" d="M-575.8-1649.5h-38.5v-11h38.5V-1649.5z"/>
		<path class="st4" d="M-613.3-1659.5v9h36.5v-9H-613.3 M-614.6-1661.5h39.1c0.4,0,0.7,0.4,0.7,0.9v11.2c0,0.5-0.3,0.9-0.7,0.9
			h-39.1c-0.4,0-0.7-0.4-0.7-0.9v-11.2C-615.3-1661.1-615-1661.5-614.6-1661.5z"/>
	</g>
	<g id="Trazado_218230-5" transform="translate(945.5 2005.512)">
		<path class="st6" d="M-575.8-1649.5h-38.5v-11h38.5V-1649.5z"/>
		<path class="st4" d="M-613.3-1659.5v9h36.5v-9H-613.3 M-614.6-1661.5h39.1c0.4,0,0.7,0.4,0.7,0.9v11.2c0,0.5-0.3,0.9-0.7,0.9
			h-39.1c-0.4,0-0.7-0.4-0.7-0.9v-11.2C-615.3-1661.1-615-1661.5-614.6-1661.5z"/>
	</g>
	<g class="st5">
		<path class="st4" d="M400.5,331.2c-0.4,0.5-1,0.9-1.8,1.2c-0.8,0.3-1.6,0.4-2.6,0.4c-1,0-1.8-0.2-2.6-0.6s-1.3-1.1-1.7-1.9
			c-0.4-0.8-0.6-1.8-0.6-2.9v-0.8c0-1.1,0.2-2.1,0.6-2.9s0.9-1.5,1.7-1.9c0.7-0.4,1.6-0.7,2.5-0.7c1.3,0,2.4,0.3,3.2,1
			c0.8,0.6,1.2,1.6,1.4,2.8h-2.3c-0.1-0.7-0.3-1.1-0.7-1.4c-0.4-0.3-0.8-0.5-1.5-0.5c-0.8,0-1.4,0.3-1.8,0.9
			c-0.4,0.6-0.6,1.5-0.6,2.7v0.7c0,1.2,0.2,2.1,0.7,2.7s1.1,0.9,2,0.9c0.9,0,1.5-0.2,1.9-0.6v-2H396v-1.7h4.5V331.2z"/>
		<path class="st4" d="M406.1,332.8c-1.2,0-2.2-0.4-3-1.1c-0.8-0.8-1.2-1.8-1.2-3v-0.2c0-0.8,0.2-1.6,0.5-2.3s0.8-1.2,1.4-1.5
			s1.3-0.5,2.1-0.5c1.2,0,2.1,0.4,2.7,1.1s1,1.8,1,3.1v0.9h-5.4c0.1,0.6,0.3,1,0.7,1.3s0.8,0.5,1.4,0.5c0.9,0,1.5-0.3,2-0.9l1.1,1.2
			c-0.3,0.5-0.8,0.9-1.4,1.1S406.9,332.8,406.1,332.8z M405.9,325.8c-0.4,0-0.8,0.2-1.1,0.5c-0.3,0.3-0.5,0.7-0.5,1.3h3.1v-0.2
			c0-0.5-0.1-0.9-0.4-1.2C406.7,326,406.4,325.8,405.9,325.8z"/>
		<path class="st4" d="M415.5,330.3c0-0.3-0.1-0.5-0.4-0.7s-0.7-0.3-1.3-0.4c-2-0.4-3-1.3-3-2.6c0-0.8,0.3-1.4,0.9-1.9
			c0.6-0.5,1.4-0.8,2.4-0.8c1.1,0,1.9,0.3,2.6,0.8c0.6,0.5,1,1.2,1,2h-2.3c0-0.3-0.1-0.6-0.3-0.8c-0.2-0.2-0.5-0.3-1-0.3
			c-0.4,0-0.7,0.1-0.9,0.3c-0.2,0.2-0.3,0.4-0.3,0.7c0,0.2,0.1,0.5,0.4,0.6c0.2,0.2,0.6,0.3,1.2,0.4s1,0.2,1.4,0.4
			c1.2,0.4,1.8,1.2,1.8,2.3c0,0.8-0.3,1.4-1,1.9c-0.7,0.5-1.5,0.7-2.6,0.7c-0.7,0-1.3-0.1-1.9-0.4c-0.5-0.3-1-0.6-1.3-1
			s-0.5-0.9-0.5-1.4h2.1c0,0.4,0.2,0.7,0.4,0.9c0.3,0.2,0.6,0.3,1.1,0.3c0.4,0,0.8-0.1,1-0.2C415.4,330.8,415.5,330.5,415.5,330.3z"
			/>
		<path class="st4" d="M421.8,322.1v2.1h1.4v1.7h-1.4v4.2c0,0.3,0.1,0.5,0.2,0.7c0.1,0.1,0.3,0.2,0.7,0.2c0.2,0,0.5,0,0.7-0.1v1.7
			c-0.4,0.1-0.9,0.2-1.4,0.2c-1.6,0-2.4-0.8-2.4-2.4v-4.6h-1.2v-1.7h1.2v-2.1H421.8z"/>
		<path class="st4" d="M424.5,322c0-0.3,0.1-0.6,0.3-0.8s0.5-0.3,0.9-0.3c0.4,0,0.7,0.1,0.9,0.3c0.2,0.2,0.3,0.5,0.3,0.8
			c0,0.3-0.1,0.6-0.3,0.8c-0.2,0.2-0.5,0.3-0.9,0.3c-0.4,0-0.7-0.1-0.9-0.3C424.6,322.6,424.5,322.3,424.5,322z M426.9,332.6h-2.3
			v-8.5h2.3V332.6z"/>
		<path class="st4" d="M428.4,328.3c0-0.8,0.2-1.6,0.5-2.2c0.3-0.7,0.8-1.2,1.4-1.5c0.6-0.4,1.3-0.5,2.1-0.5c1.1,0,2.1,0.3,2.8,1
			c0.7,0.7,1.1,1.6,1.2,2.8l0,0.6c0,1.3-0.4,2.3-1.1,3.1c-0.7,0.8-1.7,1.2-2.9,1.2s-2.2-0.4-2.9-1.2s-1.1-1.8-1.1-3.2V328.3z
			 M430.7,328.5c0,0.8,0.2,1.4,0.5,1.8c0.3,0.4,0.7,0.6,1.3,0.6c0.5,0,1-0.2,1.3-0.6c0.3-0.4,0.5-1.1,0.5-2c0-0.8-0.2-1.4-0.5-1.8
			c-0.3-0.4-0.7-0.6-1.3-0.6c-0.6,0-1,0.2-1.3,0.6C430.8,326.9,430.7,327.6,430.7,328.5z M432.9,320.6h2.5l-2.2,2.4h-1.8
			L432.9,320.6z"/>
		<path class="st4" d="M439.9,324.2l0.1,1c0.6-0.8,1.4-1.1,2.4-1.1c0.9,0,1.6,0.3,2,0.8s0.7,1.3,0.7,2.4v5.5h-2.3v-5.4
			c0-0.5-0.1-0.8-0.3-1c-0.2-0.2-0.6-0.3-1-0.3c-0.6,0-1.1,0.3-1.4,0.8v6h-2.3v-8.5H439.9z"/>
		<path class="st4" d="M450.4,328.3c0-1.3,0.3-2.4,0.9-3.1c0.6-0.8,1.4-1.2,2.4-1.2c0.8,0,1.5,0.3,2,0.9v-4.3h2.3v12h-2l-0.1-0.9
			c-0.6,0.7-1.3,1.1-2.2,1.1c-1,0-1.8-0.4-2.4-1.2S450.4,329.7,450.4,328.3z M452.7,328.5c0,0.8,0.1,1.4,0.4,1.8
			c0.3,0.4,0.7,0.6,1.2,0.6c0.7,0,1.2-0.3,1.5-0.9v-3.3c-0.3-0.6-0.8-0.9-1.5-0.9C453.2,325.8,452.7,326.7,452.7,328.5z"/>
		<path class="st4" d="M463.7,332.8c-1.2,0-2.2-0.4-3-1.1c-0.8-0.8-1.2-1.8-1.2-3v-0.2c0-0.8,0.2-1.6,0.5-2.3s0.8-1.2,1.4-1.5
			s1.3-0.5,2.1-0.5c1.2,0,2.1,0.4,2.7,1.1s1,1.8,1,3.1v0.9h-5.4c0.1,0.6,0.3,1,0.7,1.3s0.8,0.5,1.4,0.5c0.9,0,1.5-0.3,2-0.9l1.1,1.2
			c-0.3,0.5-0.8,0.9-1.4,1.1S464.4,332.8,463.7,332.8z M463.4,325.8c-0.4,0-0.8,0.2-1.1,0.5c-0.3,0.3-0.5,0.7-0.5,1.3h3.1v-0.2
			c0-0.5-0.1-0.9-0.4-1.2C464.3,326,463.9,325.8,463.4,325.8z"/>
	</g>
	<g class="st5">
		<path class="st4" d="M402.1,352.6c-0.1-0.2-0.2-0.5-0.2-0.8c-0.5,0.6-1.3,0.9-2.1,0.9c-0.8,0-1.5-0.2-2.1-0.7
			c-0.5-0.5-0.8-1.1-0.8-1.8c0-0.9,0.3-1.6,1-2.1s1.6-0.7,2.9-0.7h1V347c0-0.4-0.1-0.7-0.3-0.9c-0.2-0.2-0.5-0.4-0.9-0.4
			c-0.4,0-0.7,0.1-0.9,0.3c-0.2,0.2-0.3,0.4-0.3,0.8h-2.3c0-0.5,0.2-0.9,0.5-1.4c0.3-0.4,0.7-0.7,1.3-1c0.6-0.2,1.2-0.4,1.9-0.4
			c1,0,1.9,0.3,2.5,0.8c0.6,0.5,0.9,1.3,0.9,2.2v3.7c0,0.8,0.1,1.4,0.3,1.8v0.1H402.1z M400.3,351c0.3,0,0.6-0.1,0.9-0.2
			s0.5-0.3,0.6-0.6v-1.5H401c-1.1,0-1.7,0.4-1.8,1.2l0,0.1c0,0.3,0.1,0.5,0.3,0.7C399.6,351,399.9,351,400.3,351z"/>
		<path class="st4" d="M407.9,344.2l0.1,1c0.6-0.8,1.4-1.1,2.4-1.1c0.9,0,1.6,0.3,2,0.8s0.7,1.3,0.7,2.4v5.5h-2.3v-5.4
			c0-0.5-0.1-0.8-0.3-1c-0.2-0.2-0.6-0.3-1-0.3c-0.6,0-1.1,0.3-1.4,0.8v6h-2.3v-8.5H407.9z"/>
		<path class="st4" d="M414.8,342c0-0.3,0.1-0.6,0.3-0.8s0.5-0.3,0.9-0.3c0.4,0,0.7,0.1,0.9,0.3c0.2,0.2,0.3,0.5,0.3,0.8
			c0,0.3-0.1,0.6-0.3,0.8c-0.2,0.2-0.5,0.3-0.9,0.3c-0.4,0-0.7-0.1-0.9-0.3C414.9,342.6,414.8,342.3,414.8,342z M417.2,352.6h-2.3
			v-8.5h2.3V352.6z"/>
		<path class="st4" d="M421.1,344.2l0.1,0.9c0.6-0.7,1.4-1.1,2.4-1.1c1.1,0,1.8,0.4,2.2,1.3c0.6-0.9,1.4-1.3,2.5-1.3
			c0.9,0,1.6,0.3,2,0.8c0.4,0.5,0.7,1.3,0.7,2.4v5.4h-2.3v-5.4c0-0.5-0.1-0.8-0.3-1.1s-0.5-0.3-1-0.3c-0.7,0-1.1,0.3-1.4,1l0,5.8
			h-2.3v-5.4c0-0.5-0.1-0.8-0.3-1.1c-0.2-0.2-0.5-0.3-1-0.3c-0.6,0-1.1,0.3-1.4,0.8v6H419v-8.5H421.1z"/>
		<path class="st4" d="M437.8,352.6c-0.1-0.2-0.2-0.5-0.2-0.8c-0.5,0.6-1.3,0.9-2.1,0.9c-0.8,0-1.5-0.2-2.1-0.7
			c-0.5-0.5-0.8-1.1-0.8-1.8c0-0.9,0.3-1.6,1-2.1s1.6-0.7,2.9-0.7h1V347c0-0.4-0.1-0.7-0.3-0.9c-0.2-0.2-0.5-0.4-0.9-0.4
			c-0.4,0-0.7,0.1-0.9,0.3c-0.2,0.2-0.3,0.4-0.3,0.8h-2.3c0-0.5,0.2-0.9,0.5-1.4c0.3-0.4,0.7-0.7,1.3-1c0.6-0.2,1.2-0.4,1.9-0.4
			c1,0,1.9,0.3,2.5,0.8c0.6,0.5,0.9,1.3,0.9,2.2v3.7c0,0.8,0.1,1.4,0.3,1.8v0.1H437.8z M435.9,351c0.3,0,0.6-0.1,0.9-0.2
			s0.5-0.3,0.6-0.6v-1.5h-0.8c-1.1,0-1.7,0.4-1.8,1.2l0,0.1c0,0.3,0.1,0.5,0.3,0.7C435.3,351,435.6,351,435.9,351z"/>
		<path class="st4" d="M443.8,352.6h-2.3v-12h2.3V352.6z"/>
		<path class="st4" d="M449.6,352.8c-1.2,0-2.2-0.4-3-1.1c-0.8-0.8-1.2-1.8-1.2-3v-0.2c0-0.8,0.2-1.6,0.5-2.3s0.8-1.2,1.4-1.5
			s1.3-0.5,2.1-0.5c1.2,0,2.1,0.4,2.7,1.1s1,1.8,1,3.1v0.9h-5.4c0.1,0.6,0.3,1,0.7,1.3s0.8,0.5,1.4,0.5c0.9,0,1.5-0.3,2-0.9l1.1,1.2
			c-0.3,0.5-0.8,0.9-1.4,1.1S450.3,352.8,449.6,352.8z M449.3,345.8c-0.4,0-0.8,0.2-1.1,0.5c-0.3,0.3-0.5,0.7-0.5,1.3h3.1v-0.2
			c0-0.5-0.1-0.9-0.4-1.2C450.2,346,449.8,345.8,449.3,345.8z"/>
		<path class="st4" d="M458.9,350.3c0-0.3-0.1-0.5-0.4-0.7s-0.7-0.3-1.3-0.4c-2-0.4-3-1.3-3-2.6c0-0.8,0.3-1.4,0.9-1.9
			c0.6-0.5,1.4-0.8,2.4-0.8c1.1,0,1.9,0.3,2.6,0.8c0.6,0.5,1,1.2,1,2h-2.3c0-0.3-0.1-0.6-0.3-0.8c-0.2-0.2-0.5-0.3-1-0.3
			c-0.4,0-0.7,0.1-0.9,0.3c-0.2,0.2-0.3,0.4-0.3,0.7c0,0.2,0.1,0.5,0.4,0.6c0.2,0.2,0.6,0.3,1.2,0.4s1,0.2,1.4,0.4
			c1.2,0.4,1.8,1.2,1.8,2.3c0,0.8-0.3,1.4-1,1.9c-0.7,0.5-1.5,0.7-2.6,0.7c-0.7,0-1.3-0.1-1.9-0.4c-0.5-0.3-1-0.6-1.3-1
			s-0.5-0.9-0.5-1.4h2.1c0,0.4,0.2,0.7,0.4,0.9c0.3,0.2,0.6,0.3,1.1,0.3c0.4,0,0.8-0.1,1-0.2C458.8,350.8,458.9,350.5,458.9,350.3z"
			/>
	</g>
</g>
<g id="Grupo_106676-6" transform="translate(-135.5 -77.5)">
	<g id="Trazado_218228-6" transform="translate(965.112 1969)">
		<path class="st6" d="M-485.1-1527.5h-128c-0.4,0-1.2-1.2-1.2-3.1v-51.9c0-1.9,0.8-3.1,1.2-3.1h128c0.4,0,1.2,1.2,1.2,3.1v51.9
			C-483.8-1528.6-484.6-1527.5-485.1-1527.5z"/>
		<path class="st4" d="M-612.8-1584.5c-0.2,0.3-0.5,1-0.5,2.1v51.9c0,1.1,0.3,1.8,0.5,2.1h127.5c0.2-0.3,0.5-1,0.5-2.1v-51.9
			c0-1.1-0.3-1.8-0.5-2.1H-612.8 M-613.1-1586.5h128c1.2,0,2.2,1.8,2.2,4.1v51.9c0,2.2-1,4.1-2.2,4.1h-128c-1.2,0-2.2-1.8-2.2-4.1
			v-51.9C-615.3-1584.7-614.3-1586.5-613.1-1586.5z"/>
	</g>
	<g id="Trazado_218229-6" transform="translate(945.5 1983.605)">
		<path class="st6" d="M-575.8-1574.5h-38.5v-11h38.5V-1574.5z"/>
		<path class="st4" d="M-613.3-1584.5v9h36.5v-9H-613.3 M-614.6-1586.5h39.1c0.4,0,0.7,0.4,0.7,0.9v11.2c0,0.5-0.3,0.9-0.7,0.9
			h-39.1c-0.4,0-0.7-0.4-0.7-0.9v-11.2C-615.3-1586.1-615-1586.5-614.6-1586.5z"/>
	</g>
	<g id="Trazado_218230-6" transform="translate(945.5 2005.512)">
		<path class="st6" d="M-575.8-1574.5h-38.5v-11h38.5V-1574.5z"/>
		<path class="st4" d="M-613.3-1584.5v9h36.5v-9H-613.3 M-614.6-1586.5h39.1c0.4,0,0.7,0.4,0.7,0.9v11.2c0,0.5-0.3,0.9-0.7,0.9
			h-39.1c-0.4,0-0.7-0.4-0.7-0.9v-11.2C-615.3-1586.1-615-1586.5-614.6-1586.5z"/>
	</g>
	<g class="st5">
		<path class="st4" d="M405,414.3l1.5-8.1h2.3l-2.5,11.4H404l-1.9-7.6l-1.9,7.6h-2.4l-2.5-11.4h2.3l1.5,8.1l1.9-8.1h2L405,414.3z"/>
		<path class="st4" d="M409.4,413.3c0-0.8,0.2-1.6,0.5-2.2c0.3-0.7,0.8-1.2,1.4-1.5c0.6-0.4,1.3-0.5,2.1-0.5c1.1,0,2.1,0.3,2.8,1
			c0.7,0.7,1.1,1.6,1.2,2.8l0,0.6c0,1.3-0.4,2.3-1.1,3.1c-0.7,0.8-1.7,1.2-2.9,1.2s-2.2-0.4-2.9-1.2s-1.1-1.8-1.1-3.2V413.3z
			 M411.7,413.4c0,0.8,0.2,1.4,0.5,1.8c0.3,0.4,0.7,0.6,1.3,0.6c0.5,0,1-0.2,1.3-0.6c0.3-0.4,0.5-1.1,0.5-2c0-0.8-0.2-1.4-0.5-1.8
			c-0.3-0.4-0.7-0.6-1.3-0.6c-0.6,0-1,0.2-1.3,0.6C411.8,411.9,411.7,412.5,411.7,413.4z"/>
		<path class="st4" d="M423.5,411.2c-0.3,0-0.6-0.1-0.8-0.1c-0.9,0-1.4,0.3-1.7,0.9v5.5h-2.3v-8.5h2.1l0.1,1
			c0.5-0.8,1.1-1.2,1.9-1.2c0.2,0,0.5,0,0.7,0.1L423.5,411.2z"/>
		<path class="st4" d="M427.7,414.2l-0.8,0.8v2.6h-2.3v-12h2.3v6.6l0.4-0.6l2.2-2.5h2.7l-3.1,3.5l3.3,4.9h-2.6L427.7,414.2z"/>
		<path class="st4" d="M433.8,417.6v-6.8h-1.3v-1.7h1.3v-0.7c0-0.9,0.3-1.7,0.8-2.2c0.5-0.5,1.3-0.8,2.3-0.8c0.3,0,0.7,0.1,1.1,0.2
			l0,1.8c-0.2,0-0.4-0.1-0.7-0.1c-0.8,0-1.3,0.4-1.3,1.2v0.7h1.7v1.7h-1.7v6.8H433.8z"/>
		<path class="st4" d="M441.3,417.6H439v-12h2.3V417.6z"/>
		<path class="st4" d="M442.8,413.3c0-0.8,0.2-1.6,0.5-2.2c0.3-0.7,0.8-1.2,1.4-1.5c0.6-0.4,1.3-0.5,2.1-0.5c1.1,0,2.1,0.3,2.8,1
			c0.7,0.7,1.1,1.6,1.2,2.8l0,0.6c0,1.3-0.4,2.3-1.1,3.1c-0.7,0.8-1.7,1.2-2.9,1.2s-2.2-0.4-2.9-1.2s-1.1-1.8-1.1-3.2V413.3z
			 M445.1,413.4c0,0.8,0.2,1.4,0.5,1.8c0.3,0.4,0.7,0.6,1.3,0.6c0.5,0,1-0.2,1.3-0.6c0.3-0.4,0.5-1.1,0.5-2c0-0.8-0.2-1.4-0.5-1.8
			c-0.3-0.4-0.7-0.6-1.3-0.6c-0.6,0-1,0.2-1.3,0.6C445.2,411.9,445.1,412.5,445.1,413.4z"/>
		<path class="st4" d="M459.6,414.5l1.1-5.4h2.2l-2.2,8.5h-1.9l-1.6-5.3l-1.6,5.3h-1.9l-2.2-8.5h2.2l1.1,5.4l1.5-5.4h1.6
			L459.6,414.5z"/>
	</g>
</g>
<g id="Grupo_106676-7" transform="translate(-135.5 -77.5)">
	<g id="Trazado_218228-7" transform="translate(965.112 1969)">
		<path class="st7" d="M-315.1-1602.5h-128c-0.4,0-1.2-1.2-1.2-3.1v-51.9c0-1.9,0.8-3.1,1.2-3.1h128c0.4,0,1.2,1.2,1.2,3.1v51.9
			C-313.8-1603.6-314.6-1602.5-315.1-1602.5z"/>
		<path class="st4" d="M-442.8-1659.5c-0.2,0.3-0.5,1-0.5,2.1v51.9c0,1.1,0.3,1.8,0.5,2.1h127.5c0.2-0.3,0.5-1,0.5-2.1v-51.9
			c0-1.1-0.3-1.8-0.5-2.1H-442.8 M-443.1-1661.5h128c1.2,0,2.2,1.8,2.2,4.1v51.9c0,2.2-1,4.1-2.2,4.1h-128c-1.2,0-2.2-1.8-2.2-4.1
			v-51.9C-445.3-1659.7-444.3-1661.5-443.1-1661.5z"/>
	</g>
	<g id="Trazado_218229-7" transform="translate(945.5 1983.605)">
		<path class="st7" d="M-405.8-1649.5h-38.5v-11h38.5V-1649.5z"/>
		<path class="st4" d="M-443.3-1659.5v9h36.5v-9H-443.3 M-444.6-1661.5h39.1c0.4,0,0.7,0.4,0.7,0.9v11.2c0,0.5-0.3,0.9-0.7,0.9
			h-39.1c-0.4,0-0.7-0.4-0.7-0.9v-11.2C-445.3-1661.1-445-1661.5-444.6-1661.5z"/>
	</g>
	<g id="Trazado_218230-7" transform="translate(945.5 2005.512)">
		<path class="st7" d="M-405.8-1649.5h-38.5v-11h38.5V-1649.5z"/>
		<path class="st4" d="M-443.3-1659.5v9h36.5v-9H-443.3 M-444.6-1661.5h39.1c0.4,0,0.7,0.4,0.7,0.9v11.2c0,0.5-0.3,0.9-0.7,0.9
			h-39.1c-0.4,0-0.7-0.4-0.7-0.9v-11.2C-445.3-1661.1-445-1661.5-444.6-1661.5z"/>
	</g>
	<g class="st5">
		<path class="st4" d="M568.8,331.2c-0.4,0.5-1,0.9-1.8,1.2c-0.8,0.3-1.6,0.4-2.6,0.4c-1,0-1.8-0.2-2.6-0.6s-1.3-1.1-1.7-1.9
			c-0.4-0.8-0.6-1.8-0.6-2.9v-0.8c0-1.1,0.2-2.1,0.6-2.9s0.9-1.5,1.7-1.9c0.7-0.4,1.6-0.7,2.5-0.7c1.3,0,2.4,0.3,3.2,1
			c0.8,0.6,1.2,1.6,1.4,2.8h-2.3c-0.1-0.7-0.3-1.1-0.7-1.4c-0.4-0.3-0.8-0.5-1.5-0.5c-0.8,0-1.4,0.3-1.8,0.9
			c-0.4,0.6-0.6,1.5-0.6,2.7v0.7c0,1.2,0.2,2.1,0.7,2.7s1.1,0.9,2,0.9c0.9,0,1.5-0.2,1.9-0.6v-2h-2.1v-1.7h4.5V331.2z"/>
		<path class="st4" d="M574.4,332.8c-1.2,0-2.2-0.4-3-1.1c-0.8-0.8-1.2-1.8-1.2-3v-0.2c0-0.8,0.2-1.6,0.5-2.3s0.8-1.2,1.4-1.5
			s1.3-0.5,2.1-0.5c1.2,0,2.1,0.4,2.7,1.1s1,1.8,1,3.1v0.9h-5.4c0.1,0.6,0.3,1,0.7,1.3s0.8,0.5,1.4,0.5c0.9,0,1.5-0.3,2-0.9l1.1,1.2
			c-0.3,0.5-0.8,0.9-1.4,1.1S575.1,332.8,574.4,332.8z M574.2,325.8c-0.4,0-0.8,0.2-1.1,0.5c-0.3,0.3-0.5,0.7-0.5,1.3h3.1v-0.2
			c0-0.5-0.1-0.9-0.4-1.2C575,326,574.6,325.8,574.2,325.8z"/>
		<path class="st4" d="M583.7,330.3c0-0.3-0.1-0.5-0.4-0.7s-0.7-0.3-1.3-0.4c-2-0.4-3-1.3-3-2.6c0-0.8,0.3-1.4,0.9-1.9
			c0.6-0.5,1.4-0.8,2.4-0.8c1.1,0,1.9,0.3,2.6,0.8c0.6,0.5,1,1.2,1,2h-2.3c0-0.3-0.1-0.6-0.3-0.8c-0.2-0.2-0.5-0.3-1-0.3
			c-0.4,0-0.7,0.1-0.9,0.3c-0.2,0.2-0.3,0.4-0.3,0.7c0,0.2,0.1,0.5,0.4,0.6c0.2,0.2,0.6,0.3,1.2,0.4s1,0.2,1.4,0.4
			c1.2,0.4,1.8,1.2,1.8,2.3c0,0.8-0.3,1.4-1,1.9c-0.7,0.5-1.5,0.7-2.6,0.7c-0.7,0-1.3-0.1-1.9-0.4c-0.6-0.3-1-0.6-1.3-1
			s-0.5-0.9-0.5-1.4h2.1c0,0.4,0.2,0.7,0.4,0.9c0.3,0.2,0.6,0.3,1.1,0.3c0.4,0,0.8-0.1,1-0.2C583.6,330.8,583.7,330.5,583.7,330.3z"
			/>
		<path class="st4" d="M590.1,322.1v2.1h1.4v1.7h-1.4v4.2c0,0.3,0.1,0.5,0.2,0.7c0.1,0.1,0.3,0.2,0.7,0.2c0.2,0,0.5,0,0.7-0.1v1.7
			c-0.4,0.1-0.9,0.2-1.4,0.2c-1.6,0-2.4-0.8-2.4-2.4v-4.6h-1.2v-1.7h1.2v-2.1H590.1z"/>
		<path class="st4" d="M592.8,322c0-0.3,0.1-0.6,0.3-0.8s0.5-0.3,0.9-0.3c0.4,0,0.7,0.1,0.9,0.3c0.2,0.2,0.3,0.5,0.3,0.8
			c0,0.3-0.1,0.6-0.3,0.8c-0.2,0.2-0.5,0.3-0.9,0.3c-0.4,0-0.7-0.1-0.9-0.3C592.9,322.6,592.8,322.3,592.8,322z M595.2,332.6h-2.3
			v-8.5h2.3V332.6z"/>
		<path class="st4" d="M596.7,328.3c0-0.8,0.2-1.6,0.5-2.2c0.3-0.7,0.8-1.2,1.4-1.5c0.6-0.4,1.3-0.5,2.1-0.5c1.1,0,2.1,0.3,2.8,1
			c0.7,0.7,1.1,1.6,1.2,2.8l0,0.6c0,1.3-0.4,2.3-1.1,3.1c-0.7,0.8-1.7,1.2-2.9,1.2s-2.2-0.4-2.9-1.2s-1.1-1.8-1.1-3.2V328.3z
			 M598.9,328.5c0,0.8,0.2,1.4,0.5,1.8c0.3,0.4,0.7,0.6,1.3,0.6c0.5,0,1-0.2,1.3-0.6c0.3-0.4,0.5-1.1,0.5-2c0-0.8-0.2-1.4-0.5-1.8
			c-0.3-0.4-0.7-0.6-1.3-0.6c-0.6,0-1,0.2-1.3,0.6C599.1,326.9,598.9,327.6,598.9,328.5z M601.1,320.6h2.5l-2.2,2.4h-1.8
			L601.1,320.6z"/>
		<path class="st4" d="M608.2,324.2l0.1,1c0.6-0.8,1.4-1.1,2.4-1.1c0.9,0,1.6,0.3,2,0.8s0.7,1.3,0.7,2.4v5.5h-2.3v-5.4
			c0-0.5-0.1-0.8-0.3-1c-0.2-0.2-0.6-0.3-1-0.3c-0.6,0-1.1,0.3-1.4,0.8v6H606v-8.5H608.2z"/>
		<path class="st4" d="M618.7,328.3c0-1.3,0.3-2.4,0.9-3.1c0.6-0.8,1.4-1.2,2.4-1.2c0.8,0,1.5,0.3,2,0.9v-4.3h2.3v12h-2l-0.1-0.9
			c-0.6,0.7-1.3,1.1-2.2,1.1c-1,0-1.8-0.4-2.4-1.2S618.7,329.7,618.7,328.3z M620.9,328.5c0,0.8,0.1,1.4,0.4,1.8
			c0.3,0.4,0.7,0.6,1.2,0.6c0.7,0,1.2-0.3,1.5-0.9v-3.3c-0.3-0.6-0.8-0.9-1.5-0.9C621.5,325.8,620.9,326.7,620.9,328.5z"/>
		<path class="st4" d="M631.9,332.8c-1.2,0-2.2-0.4-3-1.1c-0.8-0.8-1.2-1.8-1.2-3v-0.2c0-0.8,0.2-1.6,0.5-2.3s0.8-1.2,1.4-1.5
			s1.3-0.5,2.1-0.5c1.2,0,2.1,0.4,2.7,1.1s1,1.8,1,3.1v0.9H630c0.1,0.6,0.3,1,0.7,1.3s0.8,0.5,1.4,0.5c0.9,0,1.5-0.3,2-0.9l1.1,1.2
			c-0.3,0.5-0.8,0.9-1.4,1.1S632.6,332.8,631.9,332.8z M631.7,325.8c-0.4,0-0.8,0.2-1.1,0.5c-0.3,0.3-0.5,0.7-0.5,1.3h3.1v-0.2
			c0-0.5-0.1-0.9-0.4-1.2C632.5,326,632.2,325.8,631.7,325.8z"/>
	</g>
	<g class="st5">
		<path class="st4" d="M562.4,352.8c-1.2,0-2.2-0.4-3-1.1s-1.2-1.8-1.2-3v-0.2c0-0.8,0.2-1.6,0.5-2.3s0.8-1.2,1.4-1.5
			s1.3-0.5,2.1-0.5c1.2,0,2.1,0.4,2.7,1.1s1,1.8,1,3.1v0.9h-5.4c0.1,0.6,0.3,1,0.7,1.3s0.8,0.5,1.4,0.5c0.9,0,1.5-0.3,2-0.9l1.1,1.2
			c-0.3,0.5-0.8,0.9-1.4,1.1S563.1,352.8,562.4,352.8z M562.2,345.8c-0.4,0-0.8,0.2-1.1,0.5s-0.5,0.7-0.5,1.3h3.1v-0.2
			c0-0.5-0.1-0.9-0.4-1.2S562.6,345.8,562.2,345.8z"/>
		<path class="st4" d="M569.3,344.2l0.1,0.9c0.6-0.7,1.4-1.1,2.4-1.1c1.1,0,1.8,0.4,2.2,1.3c0.6-0.9,1.4-1.3,2.5-1.3
			c0.9,0,1.6,0.3,2,0.8s0.7,1.3,0.7,2.4v5.4H577v-5.4c0-0.5-0.1-0.8-0.3-1.1s-0.5-0.3-1-0.3c-0.7,0-1.1,0.3-1.4,1l0,5.8h-2.3v-5.4
			c0-0.5-0.1-0.8-0.3-1.1s-0.5-0.3-1-0.3c-0.6,0-1.1,0.3-1.4,0.8v6h-2.3v-8.5H569.3z"/>
		<path class="st4" d="M588.6,348.5c0,1.3-0.3,2.3-0.9,3.1s-1.4,1.2-2.4,1.2c-0.9,0-1.5-0.3-2.1-0.9v4H581v-11.7h2.1l0.1,0.8
			c0.5-0.7,1.3-1,2.1-1c1,0,1.9,0.4,2.4,1.2s0.9,1.8,0.9,3.2V348.5z M586.4,348.3c0-0.8-0.1-1.4-0.4-1.8s-0.7-0.6-1.2-0.6
			c-0.7,0-1.2,0.3-1.5,0.8v3.5c0.3,0.6,0.8,0.8,1.5,0.8C585.8,351,586.4,350.1,586.4,348.3z"/>
		<path class="st4" d="M592.4,352.6h-2.3v-12h2.3V352.6z"/>
		<path class="st4" d="M598.2,352.8c-1.2,0-2.2-0.4-3-1.1s-1.2-1.8-1.2-3v-0.2c0-0.8,0.2-1.6,0.5-2.3s0.8-1.2,1.4-1.5
			s1.3-0.5,2.1-0.5c1.2,0,2.1,0.4,2.7,1.1s1,1.8,1,3.1v0.9h-5.4c0.1,0.6,0.3,1,0.7,1.3s0.8,0.5,1.4,0.5c0.9,0,1.5-0.3,2-0.9l1.1,1.2
			c-0.3,0.5-0.8,0.9-1.4,1.1S598.9,352.8,598.2,352.8z M597.9,345.8c-0.4,0-0.8,0.2-1.1,0.5s-0.5,0.7-0.5,1.3h3.1v-0.2
			c0-0.5-0.1-0.9-0.4-1.2S598.4,345.8,597.9,345.8z"/>
		<path class="st4" d="M607.8,352.6c-0.1-0.2-0.2-0.5-0.2-0.8c-0.5,0.6-1.3,0.9-2.1,0.9c-0.8,0-1.5-0.2-2.1-0.7s-0.8-1.1-0.8-1.8
			c0-0.9,0.3-1.6,1-2.1s1.6-0.7,2.9-0.7h1V347c0-0.4-0.1-0.7-0.3-0.9s-0.5-0.4-0.9-0.4c-0.4,0-0.7,0.1-0.9,0.3s-0.3,0.4-0.3,0.8
			h-2.3c0-0.5,0.2-0.9,0.5-1.4s0.7-0.7,1.3-1s1.2-0.4,1.9-0.4c1,0,1.9,0.3,2.5,0.8s0.9,1.3,0.9,2.2v3.7c0,0.8,0.1,1.4,0.3,1.8v0.1
			H607.8z M606,351c0.3,0,0.6-0.1,0.9-0.2s0.5-0.3,0.6-0.6v-1.5h-0.8c-1.1,0-1.7,0.4-1.8,1.2l0,0.1c0,0.3,0.1,0.5,0.3,0.7
			S605.6,351,606,351z"/>
		<path class="st4" d="M611.1,348.3c0-1.3,0.3-2.4,0.9-3.1s1.4-1.2,2.4-1.2c0.8,0,1.5,0.3,2,0.9v-4.3h2.3v12h-2l-0.1-0.9
			c-0.6,0.7-1.3,1.1-2.2,1.1c-1,0-1.8-0.4-2.4-1.2S611.1,349.7,611.1,348.3z M613.4,348.5c0,0.8,0.1,1.4,0.4,1.8s0.7,0.6,1.2,0.6
			c0.7,0,1.2-0.3,1.5-0.9v-3.3c-0.3-0.6-0.8-0.9-1.5-0.9C614,345.8,613.4,346.7,613.4,348.5z"/>
		<path class="st4" d="M620.2,348.3c0-0.8,0.2-1.6,0.5-2.2s0.8-1.2,1.4-1.5s1.3-0.5,2.1-0.5c1.1,0,2.1,0.3,2.8,1s1.1,1.6,1.2,2.8
			l0,0.6c0,1.3-0.4,2.3-1.1,3.1s-1.7,1.2-2.9,1.2s-2.2-0.4-2.9-1.2s-1.1-1.8-1.1-3.2V348.3z M622.4,348.5c0,0.8,0.2,1.4,0.5,1.8
			s0.7,0.6,1.3,0.6c0.5,0,1-0.2,1.3-0.6s0.5-1.1,0.5-2c0-0.8-0.2-1.4-0.5-1.8s-0.7-0.6-1.3-0.6c-0.6,0-1,0.2-1.3,0.6
			S622.4,347.6,622.4,348.5z"/>
		<path class="st4" d="M634.1,350.3c0-0.3-0.1-0.5-0.4-0.7s-0.7-0.3-1.3-0.4c-2-0.4-3-1.3-3-2.6c0-0.8,0.3-1.4,0.9-1.9
			s1.4-0.8,2.4-0.8c1.1,0,1.9,0.3,2.6,0.8s1,1.2,1,2h-2.3c0-0.3-0.1-0.6-0.3-0.8s-0.5-0.3-1-0.3c-0.4,0-0.7,0.1-0.9,0.3
			s-0.3,0.4-0.3,0.7c0,0.2,0.1,0.5,0.4,0.6s0.6,0.3,1.2,0.4s1,0.2,1.4,0.4c1.2,0.4,1.8,1.2,1.8,2.3c0,0.8-0.3,1.4-1,1.9
			s-1.5,0.7-2.6,0.7c-0.7,0-1.3-0.1-1.9-0.4s-1-0.6-1.3-1s-0.5-0.9-0.5-1.4h2.1c0,0.4,0.2,0.7,0.4,0.9s0.6,0.3,1.1,0.3
			c0.4,0,0.8-0.1,1-0.2S634.1,350.5,634.1,350.3z"/>
	</g>
</g>
<g id="Grupo_106676-8" transform="translate(-135.5 -77.5)">
	<g id="Trazado_218228-8" transform="translate(965.112 1969)">
		<path class="st7" d="M-315.1-1527.5h-128c-0.4,0-1.2-1.2-1.2-3.1v-51.9c0-1.9,0.8-3.1,1.2-3.1h128c0.4,0,1.2,1.2,1.2,3.1v51.9
			C-313.8-1528.6-314.6-1527.5-315.1-1527.5z"/>
		<path class="st4" d="M-442.8-1584.5c-0.2,0.3-0.5,1-0.5,2.1v51.9c0,1.1,0.3,1.8,0.5,2.1h127.5c0.2-0.3,0.5-1,0.5-2.1v-51.9
			c0-1.1-0.3-1.8-0.5-2.1H-442.8 M-443.1-1586.5h128c1.2,0,2.2,1.8,2.2,4.1v51.9c0,2.2-1,4.1-2.2,4.1h-128c-1.2,0-2.2-1.8-2.2-4.1
			v-51.9C-445.3-1584.7-444.3-1586.5-443.1-1586.5z"/>
	</g>
	<g id="Trazado_218229-8" transform="translate(945.5 1983.605)">
		<path class="st7" d="M-405.8-1574.5h-38.5v-11h38.5V-1574.5z"/>
		<path class="st4" d="M-443.3-1584.5v9h36.5v-9H-443.3 M-444.6-1586.5h39.1c0.4,0,0.7,0.4,0.7,0.9v11.2c0,0.5-0.3,0.9-0.7,0.9
			h-39.1c-0.4,0-0.7-0.4-0.7-0.9v-11.2C-445.3-1586.1-445-1586.5-444.6-1586.5z"/>
	</g>
	<g id="Trazado_218230-8" transform="translate(945.5 2005.512)">
		<path class="st7" d="M-405.8-1574.5h-38.5v-11h38.5V-1574.5z"/>
		<path class="st4" d="M-443.3-1584.5v9h36.5v-9H-443.3 M-444.6-1586.5h39.1c0.4,0,0.7,0.4,0.7,0.9v11.2c0,0.5-0.3,0.9-0.7,0.9
			h-39.1c-0.4,0-0.7-0.4-0.7-0.9v-11.2C-445.3-1586.1-445-1586.5-444.6-1586.5z"/>
	</g>
	<g class="st5">
		<path class="st4" d="M579.6,406.2c-0.4,0.5-1,0.9-1.8,1.2s-1.6,0.4-2.6,0.4c-1,0-1.8-0.2-2.6-0.6s-1.3-1.1-1.7-1.9
			s-0.6-1.8-0.6-2.9v-0.8c0-1.1,0.2-2.1,0.6-2.9s0.9-1.5,1.7-1.9s1.6-0.7,2.5-0.7c1.3,0,2.4,0.3,3.2,1s1.2,1.6,1.4,2.8h-2.3
			c-0.1-0.7-0.3-1.1-0.7-1.4s-0.8-0.5-1.5-0.5c-0.8,0-1.4,0.3-1.8,0.9s-0.6,1.5-0.6,2.7v0.7c0,1.2,0.2,2.1,0.7,2.7s1.1,0.9,2,0.9
			c0.9,0,1.5-0.2,1.9-0.6v-2h-2.1v-1.7h4.5V406.2z"/>
		<path class="st4" d="M585.2,407.8c-1.2,0-2.2-0.4-3-1.1s-1.2-1.8-1.2-3v-0.2c0-0.8,0.2-1.6,0.5-2.3s0.8-1.2,1.4-1.5
			s1.3-0.5,2.1-0.5c1.2,0,2.1,0.4,2.7,1.1s1,1.8,1,3.1v0.9h-5.4c0.1,0.6,0.3,1,0.7,1.3s0.8,0.5,1.4,0.5c0.9,0,1.5-0.3,2-0.9l1.1,1.2
			c-0.3,0.5-0.8,0.9-1.4,1.1S585.9,407.8,585.2,407.8z M585,400.8c-0.4,0-0.8,0.2-1.1,0.5s-0.5,0.7-0.5,1.3h3.1v-0.2
			c0-0.5-0.1-0.9-0.4-1.2S585.5,400.8,585,400.8z"/>
		<path class="st4" d="M594.6,405.3c0-0.3-0.1-0.5-0.4-0.7s-0.7-0.3-1.3-0.4c-2-0.4-3-1.3-3-2.6c0-0.8,0.3-1.4,0.9-1.9
			s1.4-0.8,2.4-0.8c1.1,0,1.9,0.3,2.6,0.8s1,1.2,1,2h-2.3c0-0.3-0.1-0.6-0.3-0.8s-0.5-0.3-1-0.3c-0.4,0-0.7,0.1-0.9,0.3
			s-0.3,0.4-0.3,0.7c0,0.2,0.1,0.5,0.4,0.6s0.6,0.3,1.2,0.4s1,0.2,1.4,0.4c1.2,0.4,1.8,1.2,1.8,2.3c0,0.8-0.3,1.4-1,1.9
			s-1.5,0.7-2.6,0.7c-0.7,0-1.3-0.1-1.9-0.4s-1-0.6-1.3-1s-0.5-0.9-0.5-1.4h2.1c0,0.4,0.2,0.7,0.4,0.9s0.6,0.3,1.1,0.3
			c0.4,0,0.8-0.1,1-0.2S594.6,405.5,594.6,405.3z"/>
		<path class="st4" d="M600.9,397.1v2.1h1.4v1.7h-1.4v4.2c0,0.3,0.1,0.5,0.2,0.7s0.3,0.2,0.7,0.2c0.2,0,0.5,0,0.7-0.1v1.7
			c-0.4,0.1-0.9,0.2-1.4,0.2c-1.6,0-2.4-0.8-2.4-2.4v-4.6h-1.2v-1.7h1.2v-2.1H600.9z"/>
		<path class="st4" d="M603.6,397c0-0.3,0.1-0.6,0.3-0.8s0.5-0.3,0.9-0.3c0.4,0,0.7,0.1,0.9,0.3s0.3,0.5,0.3,0.8
			c0,0.3-0.1,0.6-0.3,0.8s-0.5,0.3-0.9,0.3s-0.7-0.1-0.9-0.3S603.6,397.3,603.6,397z M606,407.6h-2.3v-8.5h2.3V407.6z"/>
		<path class="st4" d="M607.5,403.3c0-0.8,0.2-1.6,0.5-2.2s0.8-1.2,1.4-1.5s1.3-0.5,2.1-0.5c1.1,0,2.1,0.3,2.8,1s1.1,1.6,1.2,2.8
			l0,0.6c0,1.3-0.4,2.3-1.1,3.1s-1.7,1.2-2.9,1.2s-2.2-0.4-2.9-1.2s-1.1-1.8-1.1-3.2V403.3z M609.8,403.5c0,0.8,0.2,1.4,0.5,1.8
			s0.7,0.6,1.3,0.6c0.5,0,1-0.2,1.3-0.6s0.5-1.1,0.5-2c0-0.8-0.2-1.4-0.5-1.8s-0.7-0.6-1.3-0.6c-0.6,0-1,0.2-1.3,0.6
			S609.8,402.6,609.8,403.5z M612,395.6h2.5l-2.2,2.4h-1.8L612,395.6z"/>
		<path class="st4" d="M619,399.2l0.1,1c0.6-0.8,1.4-1.1,2.4-1.1c0.9,0,1.6,0.3,2,0.8s0.7,1.3,0.7,2.4v5.5h-2.3v-5.4
			c0-0.5-0.1-0.8-0.3-1s-0.6-0.3-1-0.3c-0.6,0-1.1,0.3-1.4,0.8v6h-2.3v-8.5H619z"/>
	</g>
	<g class="st5">
		<path class="st4" d="M555.3,423.3c0-1.3,0.3-2.4,0.9-3.1c0.6-0.8,1.4-1.2,2.4-1.2c0.8,0,1.5,0.3,2,0.9v-4.3h2.3v12h-2l-0.1-0.9
			c-0.6,0.7-1.3,1.1-2.2,1.1c-1,0-1.8-0.4-2.4-1.2S555.3,424.7,555.3,423.3z M557.5,423.5c0,0.8,0.1,1.4,0.4,1.8
			c0.3,0.4,0.7,0.6,1.2,0.6c0.7,0,1.2-0.3,1.5-0.9v-3.3c-0.3-0.6-0.8-0.9-1.5-0.9C558.1,420.8,557.5,421.7,557.5,423.5z"/>
		<path class="st4" d="M564.3,423.3c0-0.8,0.2-1.6,0.5-2.2c0.3-0.7,0.8-1.2,1.4-1.5c0.6-0.4,1.3-0.5,2.1-0.5c1.1,0,2.1,0.3,2.8,1
			c0.7,0.7,1.1,1.6,1.2,2.8l0,0.6c0,1.3-0.4,2.3-1.1,3.1c-0.7,0.8-1.7,1.2-2.9,1.2s-2.2-0.4-2.9-1.2s-1.1-1.8-1.1-3.2V423.3z
			 M566.6,423.5c0,0.8,0.2,1.4,0.5,1.8c0.3,0.4,0.7,0.6,1.3,0.6c0.5,0,1-0.2,1.3-0.6c0.3-0.4,0.5-1.1,0.5-2c0-0.8-0.2-1.4-0.5-1.8
			c-0.3-0.4-0.7-0.6-1.3-0.6c-0.6,0-1,0.2-1.3,0.6C566.7,421.9,566.6,422.6,566.6,423.5z"/>
		<path class="st4" d="M577.2,426c0.4,0,0.8-0.1,1-0.3c0.3-0.2,0.4-0.5,0.4-0.9h2.1c0,0.6-0.2,1.1-0.5,1.6c-0.3,0.5-0.7,0.8-1.3,1.1
			c-0.5,0.3-1.1,0.4-1.8,0.4c-1.2,0-2.2-0.4-2.9-1.2c-0.7-0.8-1-1.8-1-3.2v-0.1c0-1.3,0.3-2.3,1-3.1c0.7-0.8,1.6-1.2,2.9-1.2
			c1.1,0,1.9,0.3,2.5,0.9c0.6,0.6,1,1.4,1,2.4h-2.1c0-0.4-0.1-0.8-0.4-1.1c-0.3-0.3-0.6-0.4-1-0.4c-0.5,0-0.9,0.2-1.2,0.6
			c-0.3,0.4-0.4,1-0.4,1.9v0.2c0,0.9,0.1,1.5,0.4,1.9S576.7,426,577.2,426z"/>
		<path class="st4" d="M587.1,426.8c-0.6,0.7-1.3,1-2.3,1c-0.9,0-1.6-0.3-2.1-0.8s-0.7-1.3-0.7-2.3v-5.5h2.3v5.5
			c0,0.9,0.4,1.3,1.2,1.3c0.8,0,1.3-0.3,1.6-0.8v-6h2.3v8.5h-2.1L587.1,426.8z"/>
		<path class="st4" d="M593.1,419.2l0.1,0.9c0.6-0.7,1.4-1.1,2.4-1.1c1.1,0,1.8,0.4,2.2,1.3c0.6-0.9,1.4-1.3,2.5-1.3
			c0.9,0,1.6,0.3,2,0.8c0.4,0.5,0.7,1.3,0.7,2.4v5.4h-2.3v-5.4c0-0.5-0.1-0.8-0.3-1.1s-0.5-0.3-1-0.3c-0.7,0-1.1,0.3-1.4,1l0,5.8
			h-2.3v-5.4c0-0.5-0.1-0.8-0.3-1.1c-0.2-0.2-0.5-0.3-1-0.3c-0.6,0-1.1,0.3-1.4,0.8v6H591v-8.5H593.1z"/>
		<path class="st4" d="M608.7,427.8c-1.2,0-2.2-0.4-3-1.1c-0.8-0.8-1.2-1.8-1.2-3v-0.2c0-0.8,0.2-1.6,0.5-2.3s0.8-1.2,1.4-1.5
			s1.3-0.5,2.1-0.5c1.2,0,2.1,0.4,2.7,1.1s1,1.8,1,3.1v0.9h-5.4c0.1,0.6,0.3,1,0.7,1.3s0.8,0.5,1.4,0.5c0.9,0,1.5-0.3,2-0.9l1.1,1.2
			c-0.3,0.5-0.8,0.9-1.4,1.1S609.4,427.8,608.7,427.8z M608.5,420.8c-0.4,0-0.8,0.2-1.1,0.5c-0.3,0.3-0.5,0.7-0.5,1.3h3.1v-0.2
			c0-0.5-0.1-0.9-0.4-1.2C609.3,421,609,420.8,608.5,420.8z"/>
		<path class="st4" d="M615.6,419.2l0.1,1c0.6-0.8,1.4-1.1,2.4-1.1c0.9,0,1.6,0.3,2,0.8s0.7,1.3,0.7,2.4v5.5h-2.3v-5.4
			c0-0.5-0.1-0.8-0.3-1c-0.2-0.2-0.6-0.3-1-0.3c-0.6,0-1.1,0.3-1.4,0.8v6h-2.3v-8.5H615.6z"/>
		<path class="st4" d="M625.2,417.1v2.1h1.4v1.7h-1.4v4.2c0,0.3,0.1,0.5,0.2,0.7c0.1,0.1,0.3,0.2,0.7,0.2c0.2,0,0.5,0,0.7-0.1v1.7
			c-0.4,0.1-0.9,0.2-1.4,0.2c-1.6,0-2.4-0.8-2.4-2.4v-4.6h-1.2v-1.7h1.2v-2.1H625.2z"/>
		<path class="st4" d="M632.8,427.6c-0.1-0.2-0.2-0.5-0.2-0.8c-0.5,0.6-1.3,0.9-2.1,0.9c-0.8,0-1.5-0.2-2.1-0.7
			c-0.5-0.5-0.8-1.1-0.8-1.8c0-0.9,0.3-1.6,1-2.1s1.6-0.7,2.9-0.7h1V422c0-0.4-0.1-0.7-0.3-0.9c-0.2-0.2-0.5-0.4-0.9-0.4
			c-0.4,0-0.7,0.1-0.9,0.3c-0.2,0.2-0.3,0.4-0.3,0.8h-2.3c0-0.5,0.2-0.9,0.5-1.4c0.3-0.4,0.7-0.7,1.3-1c0.6-0.2,1.2-0.4,1.9-0.4
			c1,0,1.9,0.3,2.5,0.8c0.6,0.5,0.9,1.3,0.9,2.2v3.7c0,0.8,0.1,1.4,0.3,1.8v0.1H632.8z M630.9,426c0.3,0,0.6-0.1,0.9-0.2
			s0.5-0.3,0.6-0.6v-1.5h-0.8c-1.1,0-1.7,0.4-1.8,1.2l0,0.1c0,0.3,0.1,0.5,0.3,0.7C630.3,426,630.5,426,630.9,426z"/>
		<path class="st4" d="M638.8,427.6h-2.3v-12h2.3V427.6z"/>
	</g>
</g>
<g class="st5">
	<path class="st4" d="M13.9,195.1h5v1.9h-7.3v-11.4h2.3V195.1z"/>
	<path class="st4" d="M19.7,192.7c0-0.8,0.2-1.6,0.5-2.2c0.3-0.7,0.8-1.2,1.4-1.5c0.6-0.4,1.3-0.5,2.1-0.5c1.1,0,2.1,0.3,2.8,1
		c0.7,0.7,1.1,1.6,1.2,2.8l0,0.6c0,1.3-0.4,2.3-1.1,3.1c-0.7,0.8-1.7,1.2-2.9,1.2s-2.2-0.4-2.9-1.2s-1.1-1.8-1.1-3.2V192.7z
		 M21.9,192.9c0,0.8,0.2,1.4,0.5,1.8c0.3,0.4,0.7,0.6,1.3,0.6c0.5,0,1-0.2,1.3-0.6c0.3-0.4,0.5-1.1,0.5-2c0-0.8-0.2-1.4-0.5-1.8
		c-0.3-0.4-0.7-0.6-1.3-0.6c-0.6,0-1,0.2-1.3,0.6C22.1,191.3,21.9,192,21.9,192.9z M24.1,185h2.5l-2.2,2.4h-1.8L24.1,185z"/>
	<path class="st4" d="M28.8,192.7c0-1.3,0.3-2.3,0.9-3.1s1.4-1.2,2.5-1.2c0.9,0,1.6,0.3,2.2,1l0.1-0.8h2v8.2c0,0.7-0.2,1.4-0.5,1.9
		s-0.8,1-1.4,1.2s-1.3,0.4-2.1,0.4c-0.6,0-1.2-0.1-1.8-0.4c-0.6-0.2-1-0.6-1.3-1l1-1.4c0.6,0.6,1.2,0.9,2,0.9c0.6,0,1.1-0.2,1.4-0.5
		c0.3-0.3,0.5-0.8,0.5-1.4v-0.5c-0.5,0.6-1.2,0.9-2.1,0.9c-1,0-1.8-0.4-2.5-1.2C29.1,195.2,28.8,194.1,28.8,192.7L28.8,192.7z
		 M31,192.9c0,0.8,0.2,1.4,0.5,1.8c0.3,0.4,0.7,0.7,1.3,0.7c0.7,0,1.2-0.3,1.5-0.8V191c-0.3-0.5-0.8-0.8-1.5-0.8
		c-0.5,0-1,0.2-1.3,0.7C31.2,191.3,31,192,31,192.9z"/>
	<path class="st4" d="M38.2,186.4c0-0.3,0.1-0.6,0.3-0.8s0.5-0.3,0.9-0.3c0.4,0,0.7,0.1,0.9,0.3c0.2,0.2,0.3,0.5,0.3,0.8
		c0,0.3-0.1,0.6-0.3,0.8c-0.2,0.2-0.5,0.3-0.9,0.3c-0.4,0-0.7-0.1-0.9-0.3C38.3,187,38.2,186.7,38.2,186.4z M40.6,197h-2.3v-8.5h2.3
		V197z"/>
	<path class="st4" d="M46,195.3c0.4,0,0.8-0.1,1-0.3c0.3-0.2,0.4-0.5,0.4-0.9h2.1c0,0.6-0.2,1.1-0.5,1.6c-0.3,0.5-0.7,0.8-1.3,1.1
		c-0.5,0.3-1.1,0.4-1.8,0.4c-1.2,0-2.2-0.4-2.9-1.2c-0.7-0.8-1-1.8-1-3.2v-0.1c0-1.3,0.3-2.3,1-3.1c0.7-0.8,1.6-1.2,2.9-1.2
		c1.1,0,1.9,0.3,2.5,0.9c0.6,0.6,1,1.4,1,2.4h-2.1c0-0.4-0.1-0.8-0.4-1.1c-0.3-0.3-0.6-0.4-1-0.4c-0.5,0-0.9,0.2-1.2,0.6
		c-0.3,0.4-0.4,1-0.4,1.9v0.2c0,0.9,0.1,1.5,0.4,1.9S45.4,195.3,46,195.3z"/>
	<path class="st4" d="M55.7,197c-0.1-0.2-0.2-0.5-0.2-0.8c-0.5,0.6-1.3,0.9-2.1,0.9c-0.8,0-1.5-0.2-2.1-0.7
		c-0.5-0.5-0.8-1.1-0.8-1.8c0-0.9,0.3-1.6,1-2.1s1.6-0.7,2.9-0.7h1v-0.5c0-0.4-0.1-0.7-0.3-0.9c-0.2-0.2-0.5-0.4-0.9-0.4
		c-0.4,0-0.7,0.1-0.9,0.3c-0.2,0.2-0.3,0.4-0.3,0.8h-2.3c0-0.5,0.2-0.9,0.5-1.4c0.3-0.4,0.7-0.7,1.3-1c0.6-0.2,1.2-0.4,1.9-0.4
		c1,0,1.9,0.3,2.5,0.8c0.6,0.5,0.9,1.3,0.9,2.2v3.7c0,0.8,0.1,1.4,0.3,1.8v0.1H55.7z M53.8,195.4c0.3,0,0.6-0.1,0.9-0.2
		s0.5-0.3,0.6-0.6v-1.5h-0.8c-1.1,0-1.7,0.4-1.8,1.2l0,0.1c0,0.3,0.1,0.5,0.3,0.7C53.2,195.3,53.5,195.4,53.8,195.4z"/>
	<path class="st4" d="M63,192.7c0-1.3,0.3-2.4,0.9-3.1c0.6-0.8,1.4-1.2,2.4-1.2c0.8,0,1.5,0.3,2,0.9V185h2.3v12h-2l-0.1-0.9
		c-0.6,0.7-1.3,1.1-2.2,1.1c-1,0-1.8-0.4-2.4-1.2S63,194.1,63,192.7z M65.3,192.9c0,0.8,0.1,1.4,0.4,1.8c0.3,0.4,0.7,0.6,1.2,0.6
		c0.7,0,1.2-0.3,1.5-0.9v-3.3c-0.3-0.6-0.8-0.9-1.5-0.9C65.8,190.2,65.3,191.1,65.3,192.9z"/>
	<path class="st4" d="M76.3,197.2c-1.2,0-2.2-0.4-3-1.1c-0.8-0.8-1.2-1.8-1.2-3v-0.2c0-0.8,0.2-1.6,0.5-2.3s0.8-1.2,1.4-1.5
		s1.3-0.5,2.1-0.5c1.2,0,2.1,0.4,2.7,1.1s1,1.8,1,3.1v0.9h-5.4c0.1,0.6,0.3,1,0.7,1.3s0.8,0.5,1.4,0.5c0.9,0,1.5-0.3,2-0.9l1.1,1.2
		c-0.3,0.5-0.8,0.9-1.4,1.1S77,197.2,76.3,197.2z M76,190.2c-0.4,0-0.8,0.2-1.1,0.5c-0.3,0.3-0.5,0.7-0.5,1.3h3.1v-0.2
		c0-0.5-0.1-0.9-0.4-1.2C76.9,190.3,76.5,190.2,76,190.2z"/>
	<path class="st4" d="M87.1,188.5l0.1,1c0.6-0.8,1.4-1.1,2.4-1.1c0.9,0,1.6,0.3,2,0.8s0.7,1.3,0.7,2.4v5.5H90v-5.4
		c0-0.5-0.1-0.8-0.3-1c-0.2-0.2-0.6-0.3-1-0.3c-0.6,0-1.1,0.3-1.4,0.8v6H85v-8.5H87.1z"/>
	<path class="st4" d="M97.9,197.2c-1.2,0-2.2-0.4-3-1.1c-0.8-0.8-1.2-1.8-1.2-3v-0.2c0-0.8,0.2-1.6,0.5-2.3s0.8-1.2,1.4-1.5
		s1.3-0.5,2.1-0.5c1.2,0,2.1,0.4,2.7,1.1s1,1.8,1,3.1v0.9H96c0.1,0.6,0.3,1,0.7,1.3s0.8,0.5,1.4,0.5c0.9,0,1.5-0.3,2-0.9l1.1,1.2
		c-0.3,0.5-0.8,0.9-1.4,1.1S98.6,197.2,97.9,197.2z M97.6,190.2c-0.4,0-0.8,0.2-1.1,0.5c-0.3,0.3-0.5,0.7-0.5,1.3h3.1v-0.2
		c0-0.5-0.1-0.9-0.4-1.2C98.5,190.3,98.1,190.2,97.6,190.2z"/>
	<path class="st4" d="M102.3,192.7c0-1.3,0.3-2.3,0.9-3.1s1.4-1.2,2.5-1.2c0.9,0,1.6,0.3,2.2,1l0.1-0.8h2v8.2c0,0.7-0.2,1.4-0.5,1.9
		s-0.8,1-1.4,1.2s-1.3,0.4-2.1,0.4c-0.6,0-1.2-0.1-1.8-0.4c-0.6-0.2-1-0.6-1.3-1l1-1.4c0.6,0.6,1.2,0.9,2,0.9c0.6,0,1.1-0.2,1.4-0.5
		c0.3-0.3,0.5-0.8,0.5-1.4v-0.5c-0.5,0.6-1.2,0.9-2.1,0.9c-1,0-1.8-0.4-2.5-1.2C102.6,195.2,102.3,194.1,102.3,192.7L102.3,192.7z
		 M104.5,192.9c0,0.8,0.2,1.4,0.5,1.8c0.3,0.4,0.7,0.7,1.3,0.7c0.7,0,1.2-0.3,1.5-0.8V191c-0.3-0.5-0.8-0.8-1.5-0.8
		c-0.5,0-1,0.2-1.3,0.7C104.7,191.3,104.5,192,104.5,192.9z"/>
	<path class="st4" d="M111.4,192.7c0-0.8,0.2-1.6,0.5-2.2c0.3-0.7,0.8-1.2,1.4-1.5c0.6-0.4,1.3-0.5,2.1-0.5c1.1,0,2.1,0.3,2.8,1
		c0.7,0.7,1.1,1.6,1.2,2.8l0,0.6c0,1.3-0.4,2.3-1.1,3.1c-0.7,0.8-1.7,1.2-2.9,1.2s-2.2-0.4-2.9-1.2s-1.1-1.8-1.1-3.2V192.7z
		 M113.7,192.9c0,0.8,0.2,1.4,0.5,1.8c0.3,0.4,0.7,0.6,1.3,0.6c0.5,0,1-0.2,1.3-0.6c0.3-0.4,0.5-1.1,0.5-2c0-0.8-0.2-1.4-0.5-1.8
		c-0.3-0.4-0.7-0.6-1.3-0.6c-0.6,0-1,0.2-1.3,0.6C113.8,191.3,113.7,192,113.7,192.9z"/>
	<path class="st4" d="M124.3,195.3c0.4,0,0.8-0.1,1-0.3c0.3-0.2,0.4-0.5,0.4-0.9h2.1c0,0.6-0.2,1.1-0.5,1.6
		c-0.3,0.5-0.7,0.8-1.3,1.1c-0.5,0.3-1.1,0.4-1.8,0.4c-1.2,0-2.2-0.4-2.9-1.2c-0.7-0.8-1-1.8-1-3.2v-0.1c0-1.3,0.3-2.3,1-3.1
		c0.7-0.8,1.6-1.2,2.9-1.2c1.1,0,1.9,0.3,2.5,0.9c0.6,0.6,1,1.4,1,2.4h-2.1c0-0.4-0.1-0.8-0.4-1.1c-0.3-0.3-0.6-0.4-1-0.4
		c-0.5,0-0.9,0.2-1.2,0.6c-0.3,0.4-0.4,1-0.4,1.9v0.2c0,0.9,0.1,1.5,0.4,1.9S123.8,195.3,124.3,195.3z"/>
	<path class="st4" d="M129.1,186.4c0-0.3,0.1-0.6,0.3-0.8s0.5-0.3,0.9-0.3c0.4,0,0.7,0.1,0.9,0.3c0.2,0.2,0.3,0.5,0.3,0.8
		c0,0.3-0.1,0.6-0.3,0.8c-0.2,0.2-0.5,0.3-0.9,0.3c-0.4,0-0.7-0.1-0.9-0.3C129.2,187,129.1,186.7,129.1,186.4z M131.5,197h-2.3v-8.5
		h2.3V197z"/>
	<path class="st4" d="M133,192.7c0-0.8,0.2-1.6,0.5-2.2c0.3-0.7,0.8-1.2,1.4-1.5c0.6-0.4,1.3-0.5,2.1-0.5c1.1,0,2.1,0.3,2.8,1
		c0.7,0.7,1.1,1.6,1.2,2.8l0,0.6c0,1.3-0.4,2.3-1.1,3.1c-0.7,0.8-1.7,1.2-2.9,1.2s-2.2-0.4-2.9-1.2s-1.1-1.8-1.1-3.2V192.7z
		 M135.3,192.9c0,0.8,0.2,1.4,0.5,1.8c0.3,0.4,0.7,0.6,1.3,0.6c0.5,0,1-0.2,1.3-0.6c0.3-0.4,0.5-1.1,0.5-2c0-0.8-0.2-1.4-0.5-1.8
		c-0.3-0.4-0.7-0.6-1.3-0.6c-0.6,0-1,0.2-1.3,0.6C135.4,191.3,135.3,192,135.3,192.9z"/>
</g>
<g class="st5">
	<path class="st4" d="M11.5,438v-11.4h4c1.4,0,2.4,0.3,3.1,0.8c0.7,0.5,1.1,1.3,1.1,2.3c0,0.6-0.1,1-0.4,1.5
		c-0.3,0.4-0.7,0.7-1.2,0.9c0.6,0.1,1,0.4,1.4,0.9s0.5,1,0.5,1.6c0,1.1-0.3,1.9-1,2.5c-0.7,0.6-1.7,0.8-3,0.9H11.5z M13.9,431.4h1.7
		c1.2,0,1.8-0.5,1.8-1.4c0-0.5-0.1-0.9-0.4-1.1c-0.3-0.2-0.8-0.3-1.4-0.3h-1.6V431.4z M13.9,433v3.1h2c0.6,0,1-0.1,1.3-0.4
		c0.3-0.3,0.5-0.6,0.5-1.1c0-1-0.5-1.6-1.6-1.6H13.9z"/>
	<path class="st4" d="M21.7,438v-11.4h4c1.4,0,2.4,0.3,3.1,0.8c0.7,0.5,1.1,1.3,1.1,2.3c0,0.6-0.1,1-0.4,1.5
		c-0.3,0.4-0.7,0.7-1.2,0.9c0.6,0.1,1,0.4,1.4,0.9s0.5,1,0.5,1.6c0,1.1-0.3,1.9-1,2.5c-0.7,0.6-1.7,0.8-3,0.9H21.7z M24.1,431.4h1.7
		c1.2,0,1.8-0.5,1.8-1.4c0-0.5-0.1-0.9-0.4-1.1c-0.3-0.2-0.8-0.3-1.4-0.3h-1.6V431.4z M24.1,433v3.1h2c0.6,0,1-0.1,1.3-0.4
		c0.3-0.3,0.5-0.6,0.5-1.1c0-1-0.5-1.6-1.6-1.6H24.1z"/>
	<path class="st4" d="M31.9,438v-11.4h3.5c1,0,1.9,0.2,2.7,0.7s1.4,1.1,1.8,1.9c0.4,0.8,0.7,1.8,0.7,2.8v0.5c0,1.1-0.2,2-0.7,2.8
		c-0.4,0.8-1,1.5-1.8,1.9c-0.8,0.5-1.7,0.7-2.7,0.7H31.9z M34.3,428.5v7.6h1.1c0.9,0,1.6-0.3,2.1-0.9s0.7-1.5,0.7-2.6V432
		c0-1.2-0.2-2-0.7-2.6c-0.5-0.6-1.2-0.9-2.1-0.9H34.3z"/>
	<path class="st4" d="M42.3,438v-11.4h3.5c1,0,1.9,0.2,2.7,0.7s1.4,1.1,1.8,1.9c0.4,0.8,0.7,1.8,0.7,2.8v0.5c0,1.1-0.2,2-0.7,2.8
		c-0.4,0.8-1,1.5-1.8,1.9c-0.8,0.5-1.7,0.7-2.7,0.7H42.3z M44.7,428.5v7.6h1.1c0.9,0,1.6-0.3,2.1-0.9s0.7-1.5,0.7-2.6V432
		c0-1.2-0.2-2-0.7-2.6c-0.5-0.6-1.2-0.9-2.1-0.9H44.7z"/>
</g>
<g class="st5">
	<path class="st4" d="M326.4,435c0-0.4-0.2-0.8-0.5-1s-0.9-0.5-1.7-0.8s-1.5-0.5-1.9-0.8c-1.3-0.7-1.9-1.6-1.9-2.8
		c0-0.6,0.2-1.2,0.5-1.6c0.3-0.5,0.8-0.9,1.5-1.1s1.4-0.4,2.2-0.4c0.8,0,1.5,0.1,2.2,0.4c0.6,0.3,1.1,0.7,1.5,1.2s0.5,1.1,0.5,1.8
		h-2.3c0-0.5-0.2-0.9-0.5-1.2s-0.8-0.4-1.4-0.4c-0.6,0-1,0.1-1.3,0.4c-0.3,0.2-0.5,0.6-0.5,1c0,0.4,0.2,0.7,0.6,0.9
		c0.4,0.2,0.9,0.5,1.6,0.7c1.3,0.4,2.3,0.9,2.9,1.5s0.9,1.3,0.9,2.2c0,1-0.4,1.8-1.1,2.3c-0.7,0.6-1.7,0.8-3,0.8
		c-0.9,0-1.7-0.2-2.4-0.5s-1.3-0.8-1.6-1.3c-0.4-0.6-0.6-1.2-0.6-1.9h2.4c0,1.3,0.8,1.9,2.2,1.9c0.6,0,1-0.1,1.3-0.3
		S326.4,435.4,326.4,435z"/>
	<path class="st4" d="M334.1,438.2c-1.2,0-2.2-0.4-3-1.1c-0.8-0.8-1.2-1.8-1.2-3v-0.2c0-0.8,0.2-1.6,0.5-2.3s0.8-1.2,1.4-1.5
		s1.3-0.5,2.1-0.5c1.2,0,2.1,0.4,2.7,1.1s1,1.8,1,3.1v0.9h-5.4c0.1,0.6,0.3,1,0.7,1.3s0.8,0.5,1.4,0.5c0.9,0,1.5-0.3,2-0.9l1.1,1.2
		c-0.3,0.5-0.8,0.9-1.4,1.1S334.8,438.2,334.1,438.2z M333.8,431.2c-0.4,0-0.8,0.2-1.1,0.5c-0.3,0.3-0.5,0.7-0.5,1.3h3.1v-0.2
		c0-0.5-0.1-0.9-0.4-1.2C334.7,431.3,334.3,431.2,333.8,431.2z"/>
	<path class="st4" d="M343.6,431.7c-0.3,0-0.6-0.1-0.8-0.1c-0.9,0-1.4,0.3-1.7,0.9v5.5h-2.3v-8.5h2.1l0.1,1c0.5-0.8,1.1-1.2,1.9-1.2
		c0.2,0,0.5,0,0.7,0.1L343.6,431.7z"/>
	<path class="st4" d="M348,435.2l1.6-5.7h2.4l-2.9,8.5h-2.2l-2.9-8.5h2.4L348,435.2z"/>
	<path class="st4" d="M352.9,427.4c0-0.3,0.1-0.6,0.3-0.8s0.5-0.3,0.9-0.3c0.4,0,0.7,0.1,0.9,0.3c0.2,0.2,0.3,0.5,0.3,0.8
		c0,0.3-0.1,0.6-0.3,0.8c-0.2,0.2-0.5,0.3-0.9,0.3c-0.4,0-0.7-0.1-0.9-0.3C353,428,352.9,427.7,352.9,427.4z M355.3,438H353v-8.5
		h2.3V438z"/>
	<path class="st4" d="M360.7,436.3c0.4,0,0.8-0.1,1-0.3c0.3-0.2,0.4-0.5,0.4-0.9h2.1c0,0.6-0.2,1.1-0.5,1.6
		c-0.3,0.5-0.7,0.8-1.3,1.1c-0.5,0.3-1.1,0.4-1.8,0.4c-1.2,0-2.2-0.4-2.9-1.2c-0.7-0.8-1-1.8-1-3.2v-0.1c0-1.3,0.3-2.3,1-3.1
		c0.7-0.8,1.6-1.2,2.9-1.2c1.1,0,1.9,0.3,2.5,0.9c0.6,0.6,1,1.4,1,2.4h-2.1c0-0.4-0.1-0.8-0.4-1.1c-0.3-0.3-0.6-0.4-1-0.4
		c-0.5,0-0.9,0.2-1.2,0.6c-0.3,0.4-0.4,1-0.4,1.9v0.2c0,0.9,0.1,1.5,0.4,1.9S360.1,436.3,360.7,436.3z"/>
	<path class="st4" d="M365.5,427.4c0-0.3,0.1-0.6,0.3-0.8s0.5-0.3,0.9-0.3c0.4,0,0.7,0.1,0.9,0.3c0.2,0.2,0.3,0.5,0.3,0.8
		c0,0.3-0.1,0.6-0.3,0.8c-0.2,0.2-0.5,0.3-0.9,0.3c-0.4,0-0.7-0.1-0.9-0.3C365.6,428,365.5,427.7,365.5,427.4z M367.9,438h-2.3v-8.5
		h2.3V438z"/>
	<path class="st4" d="M369.4,433.7c0-0.8,0.2-1.6,0.5-2.2c0.3-0.7,0.8-1.2,1.4-1.5c0.6-0.4,1.3-0.5,2.1-0.5c1.1,0,2.1,0.3,2.8,1
		c0.7,0.7,1.1,1.6,1.2,2.8l0,0.6c0,1.3-0.4,2.3-1.1,3.1c-0.7,0.8-1.7,1.2-2.9,1.2s-2.2-0.4-2.9-1.2s-1.1-1.8-1.1-3.2V433.7z
		 M371.6,433.9c0,0.8,0.2,1.4,0.5,1.8c0.3,0.4,0.7,0.6,1.3,0.6c0.5,0,1-0.2,1.3-0.6c0.3-0.4,0.5-1.1,0.5-2c0-0.8-0.2-1.4-0.5-1.8
		c-0.3-0.4-0.7-0.6-1.3-0.6c-0.6,0-1,0.2-1.3,0.6C371.8,432.3,371.6,433,371.6,433.9z"/>
	<path class="st4" d="M383.4,435.7c0-0.3-0.1-0.5-0.4-0.7s-0.7-0.3-1.3-0.4c-2-0.4-3-1.3-3-2.6c0-0.8,0.3-1.4,0.9-1.9
		c0.6-0.5,1.4-0.8,2.4-0.8c1.1,0,1.9,0.3,2.6,0.8c0.6,0.5,1,1.2,1,2h-2.3c0-0.3-0.1-0.6-0.3-0.8c-0.2-0.2-0.5-0.3-1-0.3
		c-0.4,0-0.7,0.1-0.9,0.3c-0.2,0.2-0.3,0.4-0.3,0.7c0,0.2,0.1,0.5,0.4,0.6c0.2,0.2,0.6,0.3,1.2,0.4s1,0.2,1.4,0.4
		c1.2,0.4,1.8,1.2,1.8,2.3c0,0.8-0.3,1.4-1,1.9c-0.7,0.5-1.5,0.7-2.6,0.7c-0.7,0-1.3-0.1-1.9-0.4c-0.5-0.3-1-0.6-1.3-1
		s-0.5-0.9-0.5-1.4h2.1c0,0.4,0.2,0.7,0.4,0.9c0.3,0.2,0.6,0.3,1.1,0.3c0.4,0,0.8-0.1,1-0.2C383.3,436.1,383.4,435.9,383.4,435.7z"
		/>
</g>
<line id="Línea_1686" class="st8" x1="273.5" y1="195" x2="273.5" y2="137.5"/>
<path id="Polígono_80" class="st4" d="M273.5,204l-4.6-7h9.2L273.5,204z"/>
<g id="Grupo_106693">
	<line id="Línea_1687" class="st8" x1="168.5" y1="398.5" x2="168.5" y2="446.5"/>
	<path id="Polígono_81" class="st4" d="M168.5,389.5l4.6,7h-9.2L168.5,389.5z"/>
</g>
</svg>
