<svg xmlns="http://www.w3.org/2000/svg" xmlns:xlink="http://www.w3.org/1999/xlink" width="323.364" height="314" viewBox="0 0 323.364 314">
  <defs>
    <clipPath id="clip-path">
      <rect id="Rectángulo_45239" data-name="Rectángulo 45239" width="304.203" height="172.455" fill="none"/>
    </clipPath>
  </defs>
  <g id="Grupo_104413" data-name="Grupo 104413" transform="translate(-555.116 -116.509)">
    <g id="Grupo_104345" data-name="Grupo 104345" transform="translate(555.116 116.509)">
      <path id="Trazado_215910" data-name="Trazado 215910" d="M875.639,313.666H557.547a2.43,2.43,0,0,1-2.431-2.43V116.509H878.07V311.236A2.43,2.43,0,0,1,875.639,313.666Z" transform="translate(-555.116 -116.509)" fill="#3e4243"/>
      <rect id="Rectángulo_45232" data-name="Rectángulo 45232" width="306.943" height="175.2" transform="translate(8.234 7.777)"/>
      <path id="Trazado_215911" data-name="Trazado 215911" d="M875.886,344.542H557.439a2.323,2.323,0,0,1-2.323-2.323V340.6H878.07v1.762A2.183,2.183,0,0,1,875.886,344.542Z" transform="translate(-555.116 -147.386)" fill="#ccc"/>
      <path id="Trazado_215912" data-name="Trazado 215912" d="M753.953,357.87H728.736l1.777-9.38.624-3.314h20.413l.624,3.314Z" transform="translate(-579.039 -148.017)" fill="#3f3f3f"/>
      <path id="Trazado_215913" data-name="Trazado 215913" d="M807.573,364.013h-155.9a1.445,1.445,0,0,1-1.383-1.024l-.576-1.883a.936.936,0,0,1,.9-1.21H808.637a.935.935,0,0,1,.895,1.21l-.575,1.883A1.447,1.447,0,0,1,807.573,364.013Z" transform="translate(-568.144 -150.045)" fill="#1e1e1e"/>
      <rect id="Rectángulo_45233" data-name="Rectángulo 45233" width="154.543" height="1.144" transform="translate(84.055 213.968)" fill="#121212"/>
      <g id="Grupo_104334" data-name="Grupo 104334" transform="translate(302.655 185.267)">
        <path id="Trazado_215914" data-name="Trazado 215914" d="M908.6,333.669a1.23,1.23,0,1,1-1.23-1.229A1.231,1.231,0,0,1,908.6,333.669Z" transform="translate(-906.138 -331.529)" fill="#121212"/>
        <path id="Trazado_215915" data-name="Trazado 215915" d="M918.452,333.524a2.141,2.141,0,1,1-2.142-2.141A2.142,2.142,0,0,1,918.452,333.524Z" transform="translate(-907.245 -331.383)" fill="none" stroke="lime" stroke-miterlimit="10" stroke-width="0.951"/>
      </g>
      <path id="Trazado_215916" data-name="Trazado 215916" d="M752.46,348.49H730.8l.624-3.314h20.413Z" transform="translate(-579.323 -148.017)" fill="#ccc" style="mix-blend-mode: multiply;isolation: isolate"/>
      <g id="Grupo_104344" data-name="Grupo 104344" transform="translate(9.605 9.152)">
        <g id="Grupo_104343" data-name="Grupo 104343" clip-path="url(#clip-path)">
          <g id="Grupo_104342" data-name="Grupo 104342" transform="translate(0 -0.227)">
            <rect id="Rectángulo_45234" data-name="Rectángulo 45234" width="304.203" height="194.808" fill="#0594ce"/>
            <rect id="Rectángulo_45235" data-name="Rectángulo 45235" width="304.203" height="20.329" transform="translate(0 174.479)" fill="#272763"/>
            <g id="Grupo_104337" data-name="Grupo 104337" transform="translate(0.051 16.128)">
              <path id="Trazado_215917" data-name="Trazado 215917" d="M654.727,167.834H566.314v-20.38H673.5Z" transform="translate(-566.314 -145.826)" fill="#999" style="mix-blend-mode: multiply;isolation: isolate"/>
              <path id="Trazado_215918" data-name="Trazado 215918" d="M654.727,165.947H566.314V145.566H673.5Z" transform="translate(-566.314 -145.566)" fill="#ff0808"/>
              <g id="Grupo_104335" data-name="Grupo 104335" transform="translate(19.575 4.984)">
                <path id="Trazado_215919" data-name="Trazado 215919" d="M589.017,151.562h3.437c2.085,0,3.7.573,3.7,2.49a2.322,2.322,0,0,1-1.323,2.168v.061a2.289,2.289,0,0,1,1.818,2.364c0,2.043-1.728,2.958-3.912,2.958h-3.724Zm3.332,4.021c1.1,0,1.589-.466,1.589-1.2,0-.773-.515-1.074-1.573-1.074h-1.079v2.27Zm.206,4.269c1.238,0,1.878-.441,1.878-1.354,0-.88-.629-1.239-1.878-1.239h-1.268v2.593Z" transform="translate(-589.017 -151.377)" fill="#fff"/>
                <path id="Trazado_215920" data-name="Trazado 215920" d="M599.835,151.562h3.617c2.13,0,3.876.74,3.876,3.127,0,2.307-1.746,3.3-3.876,3.3h-1.346V161.6h-2.271Zm3.432,4.626c1.194,0,1.836-.511,1.836-1.5s-.642-1.325-1.836-1.325h-1.161v2.824Zm-.23,1.2,1.571-1.453,3.2,5.666h-2.541Z" transform="translate(-590.508 -151.377)" fill="#fff"/>
                <path id="Trazado_215921" data-name="Trazado 215921" d="M610.793,151.562h6.292v1.9h-4.021v2.017h3.424v1.9h-3.424V159.7h4.176v1.9h-6.446Z" transform="translate(-592.018 -151.377)" fill="#fff"/>
                <path id="Trazado_215922" data-name="Trazado 215922" d="M622.248,151.562h2.717l3.154,10.042h-2.4l-1.314-5.086c-.279-1-.547-2.192-.815-3.239h-.062c-.243,1.061-.511,2.235-.79,3.239l-1.32,5.086h-2.321Zm-1.074,5.885h4.832v1.764h-4.832Z" transform="translate(-593.161 -151.377)" fill="#fff"/>
                <path id="Trazado_215923" data-name="Trazado 215923" d="M630.678,151.562h2.27v4.1H633l2.994-4.1h2.5l-3.038,4.008,3.6,6.035h-2.489l-2.442-4.243-1.172,1.551V161.6h-2.27Z" transform="translate(-594.757 -151.377)" fill="#fff"/>
                <path id="Trazado_215924" data-name="Trazado 215924" d="M641.656,151.562h2.27V161.6h-2.27Z" transform="translate(-596.27 -151.377)" fill="#fff"/>
                <path id="Trazado_215925" data-name="Trazado 215925" d="M647.04,151.562h2.326l2.62,4.994.993,2.206h.061c-.107-1.062-.29-2.469-.29-3.653v-3.547h2.163V161.6h-2.326l-2.621-5.008-.993-2.193h-.061c.107,1.108.29,2.453.29,3.637V161.6H647.04Z" transform="translate(-597.012 -151.377)" fill="#fff"/>
                <path id="Trazado_215926" data-name="Trazado 215926" d="M658.373,156.611c0-3.332,2.213-5.264,4.894-5.264a4.353,4.353,0,0,1,3.169,1.3l-1.2,1.456a2.6,2.6,0,0,0-1.9-.8c-1.546,0-2.644,1.214-2.644,3.227,0,2.064.935,3.264,2.826,3.264a1.81,1.81,0,0,0,1.064-.3v-1.734h-1.664v-1.853h3.68v4.629a4.841,4.841,0,0,1-3.313,1.217C660.525,161.759,658.373,159.993,658.373,156.611Z" transform="translate(-598.573 -151.347)" fill="#fff"/>
              </g>
              <g id="Grupo_104336" data-name="Grupo 104336" transform="translate(71.636 23.332)">
                <path id="Trazado_215927" data-name="Trazado 215927" d="M649.4,172.8h1.854l2.088,3.98.792,1.758h.049c-.085-.847-.231-1.968-.231-2.911V172.8h1.724v8h-1.854l-2.088-3.989-.791-1.748h-.049c.085.883.231,1.955.231,2.9V180.8H649.4Z" transform="translate(-649.398 -172.651)" fill="#fff"/>
                <path id="Trazado_215928" data-name="Trazado 215928" d="M658.867,172.8h5.013v1.517h-3.2v1.606H663.4v1.517h-2.728v1.843H664V180.8h-5.136Z" transform="translate(-650.703 -172.651)" fill="#fff"/>
                <path id="Trazado_215929" data-name="Trazado 215929" d="M665.766,172.8h1.854l.554,3.738c.105.843.221,1.686.326,2.531h.05c.155-.844.316-1.7.476-2.531l.86-3.738h1.535l.86,3.738c.16.813.32,1.677.481,2.531h.048c.106-.854.217-1.707.322-2.531l.554-3.738h1.728l-1.421,8H671.72l-.782-3.634c-.128-.618-.235-1.259-.321-1.857h-.049c-.1.6-.2,1.239-.325,1.857l-.758,3.634h-2.233Z" transform="translate(-651.653 -172.651)" fill="#fff"/>
                <path id="Trazado_215930" data-name="Trazado 215930" d="M677.624,179.766l1.039-1.241a3.189,3.189,0,0,0,1.966.836c.755,0,1.124-.3,1.124-.773,0-.5-.455-.666-1.154-.953l-1.04-.443a2.334,2.334,0,0,1-1.615-2.181,2.587,2.587,0,0,1,2.85-2.385,3.7,3.7,0,0,1,2.574,1.049l-.912,1.14a2.607,2.607,0,0,0-1.661-.627c-.623,0-1.02.26-1.02.717,0,.491.523.669,1.222.947l1.019.413a2.208,2.208,0,0,1,1.587,2.177c0,1.329-1.108,2.48-3.014,2.48A4.406,4.406,0,0,1,677.624,179.766Z" transform="translate(-653.287 -172.627)" fill="#fff"/>
              </g>
            </g>
            <g id="Grupo_104339" data-name="Grupo 104339" transform="translate(263.783 12.292)">
              <rect id="Rectángulo_45236" data-name="Rectángulo 45236" width="30.366" height="15.725" rx="3.682" fill="#ff3e43"/>
              <g id="Grupo_104338" data-name="Grupo 104338" transform="translate(4.952 3.681)">
                <path id="Trazado_215931" data-name="Trazado 215931" d="M877.936,145.386h1.086v7.452H882.6v.911h-4.662Z" transform="translate(-877.936 -145.386)" fill="#fff"/>
                <path id="Trazado_215932" data-name="Trazado 215932" d="M885.816,145.386v8.363H884.73v-8.363Z" transform="translate(-878.872 -145.386)" fill="#fff"/>
                <path id="Trazado_215933" data-name="Trazado 215933" d="M889.875,153.749l-2.738-8.363h1.173l1.3,4.123c.359,1.128.669,2.148.894,3.121h.029c.235-.967.578-2.019.953-3.107l1.414-4.137h1.155l-2.988,8.363Z" transform="translate(-879.204 -145.386)" fill="#fff"/>
                <path id="Trazado_215934" data-name="Trazado 215934" d="M900.53,149.829h-3.242v3.021h3.627v.9H896.2v-8.363h4.521v.9h-3.435v2.649h3.242Z" transform="translate(-880.453 -145.386)" fill="#fff"/>
              </g>
            </g>
            <g id="Grupo_104340" data-name="Grupo 104340" transform="translate(268.32 30.693)">
              <path id="Trazado_215935" data-name="Trazado 215935" d="M878.8,163.422h-.021l-1.151.621-.172-.682,1.448-.772h.76v6.628H878.8Z" transform="translate(-877.455 -162.477)" fill="#fff"/>
              <path id="Trazado_215936" data-name="Trazado 215936" d="M883.341,168.566a3.5,3.5,0,0,0,.72-.035,2.461,2.461,0,0,0,1.392-.636,2.967,2.967,0,0,0,.872-1.766H886.3a1.953,1.953,0,0,1-1.568.712,1.92,1.92,0,0,1-1.955-2.032,2.276,2.276,0,0,1,2.266-2.351c1.352,0,2.191,1.1,2.191,2.8a4.194,4.194,0,0,1-1.144,3.107,3.332,3.332,0,0,1-1.928.884,4.256,4.256,0,0,1-.818.053Zm.323-3.808a1.275,1.275,0,0,0,1.279,1.406,1.494,1.494,0,0,0,1.3-.7.657.657,0,0,0,.079-.329c0-1.135-.421-1.994-1.36-1.994C884.2,163.145,883.663,163.82,883.665,164.758Z" transform="translate(-878.188 -162.459)" fill="#fff"/>
              <path id="Trazado_215937" data-name="Trazado 215937" d="M888.983,165.39a.6.6,0,0,1,.606-.643.64.64,0,1,1-.606.643Zm0,3.6a.6.6,0,0,1,.606-.643.64.64,0,1,1-.606.643Z" transform="translate(-879.043 -162.774)" fill="#fff"/>
              <path id="Trazado_215938" data-name="Trazado 215938" d="M894.062,169.217v-1.809h-3.078v-.585l2.953-4.233h.972v4.125h.929v.694h-.929v1.809Zm0-2.5V164.5q0-.519.034-1.039l-.035-.005c-.207.395-.368.68-.551.986l-1.616,2.256,0,.021Z" transform="translate(-879.319 -162.477)" fill="#fff"/>
              <path id="Trazado_215939" data-name="Trazado 215939" d="M901.356,163.341h-2.523l-.255,1.7a3.532,3.532,0,0,1,.538-.037,2.788,2.788,0,0,1,1.43.36,1.888,1.888,0,0,1,.945,1.7,2.3,2.3,0,0,1-2.465,2.26,3.246,3.246,0,0,1-1.653-.409l.227-.684a2.945,2.945,0,0,0,1.419.372,1.463,1.463,0,0,0,1.564-1.447c-.005-.851-.578-1.459-1.9-1.459a6.081,6.081,0,0,0-.923.068l.429-3.182h3.167Z" transform="translate(-880.199 -162.477)" fill="#fff"/>
            </g>
            <g id="Grupo_104341" data-name="Grupo 104341" transform="translate(0 165.965)">
              <rect id="Rectángulo_45237" data-name="Rectángulo 45237" width="304.203" height="28.843" fill="#ffca40"/>
              <rect id="Rectángulo_45238" data-name="Rectángulo 45238" width="236.053" height="20.329" transform="translate(68.151 8.514)" fill="#e6e6e6"/>
              <path id="Trazado_215940" data-name="Trazado 215940" d="M657.812,349.551H566.255V329.223H639.33Z" transform="translate(-566.255 -320.709)" fill="#ff3e43"/>
            </g>
          </g>
        </g>
      </g>
    </g>
    <g id="_3" data-name="3" transform="translate(675.989 188.152)">
      <g id="_9" data-name="9" transform="translate(26.412 120.328)">
        <path id="Trazado_215941" data-name="Trazado 215941" d="M787.649,339.158l-61.711,4.748s8.042,15.938,31.122,27.281a41.188,41.188,0,0,1,14.58,11.961l5.069.153Z" transform="translate(-725.938 -339.158)" fill="#f99370"/>
        <path id="Trazado_215942" data-name="Trazado 215942" d="M765.388,344.665a54.409,54.409,0,0,0,1.537,12.723s-5.541-6.3-40.987-12.723Z" transform="translate(-725.938 -339.917)" fill="#e57d61"/>
      </g>
      <g id="_8" data-name="8" transform="translate(0 20.647)">
        <path id="Trazado_215943" data-name="Trazado 215943" d="M729.665,241.942,728.4,257.61c-14.6-4.753-12.366-2.507-23.664-13.354-11.473-8.213-12.893-25.429-1.99-19.486l1.9,1.215Z" transform="translate(-695.305 -223.548)" fill="#f99370"/>
        <path id="Trazado_215944" data-name="Trazado 215944" d="M711.117,229.546l-.068,19.522-4.815-4.422s-.086-18.27-.087-18.271Z" transform="translate(-696.799 -223.937)" fill="#e57d61"/>
      </g>
      <g id="Grupo_104411" data-name="Grupo 104411" transform="translate(19.406)">
        <path id="Trazado_215945" data-name="Trazado 215945" d="M741.019,365.441c-11.225.059-20.446-4.8-20.554-10.825L717.813,207.7c-.078-4.285,6.352-7.8,14.331-7.846l48.813-.254c7.98-.041,14.534,3.411,14.612,7.7l2.652,146.916c.109,6.027-8.935,10.979-20.159,11.036Z" transform="translate(-717.812 -199.601)" fill="#171717"/>
        <path id="Trazado_215946" data-name="Trazado 215946" d="M778.354,364.372l-37.042.192c-10.169.053-18.493-4.331-18.591-9.791l-2.652-146.915c-.067-3.715,5.487-6.756,12.406-6.792l48.813-.253c6.919-.036,12.582,2.946,12.649,6.661l2.652,146.915C796.687,359.85,788.522,364.318,778.354,364.372Z" transform="translate(-718.123 -199.767)" fill="#3d3d3d"/>
        <g id="Grupo_104346" data-name="Grupo 104346" transform="translate(30.473 9.23)">
          <path id="Trazado_215947" data-name="Trazado 215947" d="M756.708,216.147c-1.92.01-3.5-.821-3.516-1.852l-.037-2.043c-.018-1.031,1.529-1.879,3.449-1.889l10.854-.056c1.921-.01,3.5.821,3.517,1.852l.037,2.044c.018,1.031-1.529,1.878-3.45,1.888Z" transform="translate(-753.155 -210.306)"/>
          <path id="Trazado_215948" data-name="Trazado 215948" d="M767.659,215.8l-10.854.057c-1.566.008-2.847-.667-2.863-1.508l-.036-2.043c-.016-.841,1.242-1.53,2.807-1.537l10.854-.056c1.565-.009,2.847.667,2.862,1.507l.037,2.044C770.482,215.1,769.225,215.79,767.659,215.8Z" transform="translate(-753.259 -210.362)" fill="#5e5c5d"/>
        </g>
        <g id="Grupo_104347" data-name="Grupo 104347" transform="translate(53.527 7.427)">
          <path id="Trazado_215949" data-name="Trazado 215949" d="M783.526,215.477c-1.95.01-3.551-.834-3.57-1.88l-.062-3.436c-.019-1.048,1.552-1.908,3.5-1.918l5.642-.029c1.95-.01,3.552.833,3.571,1.88l.062,3.436c.019,1.047-1.552,1.907-3.5,1.918Z" transform="translate(-779.893 -208.214)"/>
          <path id="Trazado_215950" data-name="Trazado 215950" d="M789.265,215.155l-5.642.029c-1.6.009-2.9-.679-2.917-1.536l-.062-3.436c-.016-.857,1.266-1.558,2.861-1.567l5.643-.029c1.6-.008,2.9.679,2.917,1.536l.062,3.436C792.142,214.446,790.861,215.147,789.265,215.155Z" transform="translate(-779.996 -208.269)" fill="#5e5c5d"/>
        </g>
        <g id="Grupo_104348" data-name="Grupo 104348" transform="translate(10.038 17.21)">
          <path id="Trazado_215951" data-name="Trazado 215951" d="M732.544,226.4c-1.653.009-3.01-.707-3.026-1.594l-.065-3.566c-.016-.887,1.315-1.616,2.968-1.624l11.259-.059c1.652-.009,3.009.706,3.026,1.593l.065,3.566c.016.887-1.316,1.617-2.968,1.625Z" transform="translate(-729.454 -219.561)"/>
          <path id="Trazado_215952" data-name="Trazado 215952" d="M743.9,226.053l-11.258.059c-1.3.007-2.359-.553-2.372-1.249L730.2,221.3c-.012-.7,1.03-1.267,2.326-1.273l11.259-.059c1.3-.007,2.359.553,2.371,1.249l.065,3.566C746.239,225.476,745.2,226.046,743.9,226.053Z" transform="translate(-729.557 -219.616)" fill="#5e5c5d"/>
        </g>
        <g id="Grupo_104349" data-name="Grupo 104349" transform="translate(30.529 17.103)">
          <path id="Trazado_215953" data-name="Trazado 215953" d="M756.311,226.28c-1.653.009-3.01-.706-3.026-1.593l-.065-3.567c-.016-.887,1.316-1.616,2.969-1.624l11.258-.059c1.653-.009,3.01.706,3.026,1.593l.064,3.566c.016.888-1.315,1.617-2.968,1.625Z" transform="translate(-753.22 -219.437)"/>
          <path id="Trazado_215954" data-name="Trazado 215954" d="M767.667,225.929l-11.259.059c-1.3.007-2.359-.552-2.371-1.248l-.065-3.567c-.013-.7,1.029-1.267,2.326-1.273l11.258-.059c1.3-.006,2.36.553,2.372,1.249l.065,3.566C770,225.352,768.963,225.923,767.667,225.929Z" transform="translate(-753.323 -219.492)" fill="#5e5c5d"/>
        </g>
        <g id="Grupo_104350" data-name="Grupo 104350" transform="translate(51.426 16.994)">
          <path id="Trazado_215955" data-name="Trazado 215955" d="M780.547,226.154c-1.653.009-3.01-.706-3.026-1.594l-.065-3.566c-.016-.887,1.315-1.616,2.968-1.624l11.259-.059c1.652-.009,3.009.706,3.026,1.593l.065,3.566c.016.887-1.316,1.617-2.968,1.625Z" transform="translate(-777.457 -219.311)"/>
          <path id="Trazado_215956" data-name="Trazado 215956" d="M791.9,225.8l-11.258.059c-1.3.007-2.359-.553-2.372-1.249l-.065-3.567c-.012-.7,1.029-1.267,2.326-1.273l11.259-.059c1.3-.006,2.359.553,2.371,1.249l.065,3.566C794.242,225.226,793.2,225.8,791.9,225.8Z" transform="translate(-777.56 -219.366)" fill="#5e5c5d"/>
        </g>
        <g id="Grupo_104351" data-name="Grupo 104351" transform="translate(10.194 25.908)">
          <path id="Trazado_215957" data-name="Trazado 215957" d="M732.726,236.492c-1.653.009-3.01-.706-3.025-1.593l-.065-3.566c-.016-.888,1.315-1.617,2.968-1.625l11.259-.059c1.652-.009,3.009.706,3.026,1.593l.065,3.567c.016.887-1.316,1.616-2.968,1.624Z" transform="translate(-729.636 -229.649)"/>
          <path id="Trazado_215958" data-name="Trazado 215958" d="M744.081,236.141l-11.258.059c-1.3.007-2.359-.552-2.372-1.249l-.065-3.566c-.012-.7,1.029-1.267,2.326-1.273l11.259-.059c1.3-.007,2.359.552,2.372,1.249l.064,3.567C746.421,235.564,745.379,236.135,744.081,236.141Z" transform="translate(-729.739 -229.705)" fill="#5e5c5d"/>
        </g>
        <g id="Grupo_104352" data-name="Grupo 104352" transform="translate(30.687 25.801)">
          <path id="Trazado_215959" data-name="Trazado 215959" d="M756.493,236.368c-1.653.009-3.01-.706-3.026-1.593l-.064-3.566c-.016-.887,1.315-1.617,2.968-1.625l11.258-.059c1.653-.009,3.01.707,3.026,1.594l.064,3.566c.016.887-1.315,1.616-2.968,1.624Z" transform="translate(-753.403 -229.525)"/>
          <path id="Trazado_215960" data-name="Trazado 215960" d="M767.849,236.018l-11.259.059c-1.3.007-2.359-.553-2.371-1.249l-.065-3.566c-.013-.7,1.029-1.267,2.326-1.273l11.259-.059c1.3-.007,2.359.553,2.371,1.249l.065,3.566C770.187,235.441,769.146,236.011,767.849,236.018Z" transform="translate(-753.506 -229.581)" fill="#5e5c5d"/>
        </g>
        <g id="Grupo_104353" data-name="Grupo 104353" transform="translate(51.583 25.692)">
          <path id="Trazado_215961" data-name="Trazado 215961" d="M780.729,236.242c-1.653.009-3.01-.706-3.026-1.593l-.065-3.566c-.016-.888,1.315-1.617,2.968-1.625l11.259-.059c1.652-.009,3.01.706,3.026,1.593l.065,3.567c.016.887-1.316,1.616-2.968,1.624Z" transform="translate(-777.639 -229.399)"/>
          <path id="Trazado_215962" data-name="Trazado 215962" d="M792.085,235.892l-11.258.059c-1.3.006-2.359-.553-2.372-1.249l-.064-3.566c-.013-.7,1.029-1.267,2.325-1.273l11.259-.059c1.3-.007,2.359.552,2.372,1.248l.064,3.567C794.424,235.315,793.382,235.885,792.085,235.892Z" transform="translate(-777.742 -229.455)" fill="#5e5c5d"/>
        </g>
        <g id="Grupo_104354" data-name="Grupo 104354" transform="translate(10.351 34.606)">
          <path id="Trazado_215963" data-name="Trazado 215963" d="M732.908,246.58c-1.652.009-3.01-.706-3.025-1.593l-.065-3.566c-.016-.887,1.316-1.617,2.968-1.625l11.259-.059c1.652-.008,3.01.707,3.026,1.594l.065,3.566c.016.887-1.316,1.616-2.968,1.624Z" transform="translate(-729.818 -239.737)"/>
          <path id="Trazado_215964" data-name="Trazado 215964" d="M744.264,246.23l-11.259.059c-1.3.007-2.359-.553-2.372-1.249l-.064-3.566c-.013-.7,1.029-1.267,2.326-1.273l11.258-.059c1.3-.007,2.359.553,2.372,1.249l.064,3.566C746.6,245.653,745.561,246.223,744.264,246.23Z" transform="translate(-729.921 -239.793)" fill="#5e5c5d"/>
        </g>
        <g id="Grupo_104355" data-name="Grupo 104355" transform="translate(30.844 34.5)">
          <path id="Trazado_215965" data-name="Trazado 215965" d="M756.675,246.457c-1.653.009-3.01-.706-3.026-1.594l-.064-3.566c-.016-.887,1.315-1.616,2.968-1.624l11.258-.059c1.653-.009,3.01.706,3.026,1.593l.064,3.566c.016.887-1.315,1.617-2.968,1.625Z" transform="translate(-753.585 -239.614)"/>
          <path id="Trazado_215966" data-name="Trazado 215966" d="M768.031,246.106l-11.258.059c-1.3.007-2.36-.553-2.372-1.248l-.065-3.567c-.012-.7,1.03-1.267,2.326-1.273l11.259-.059c1.3-.006,2.359.553,2.371,1.249l.065,3.566C770.37,245.529,769.328,246.1,768.031,246.106Z" transform="translate(-753.688 -239.669)" fill="#5e5c5d"/>
        </g>
        <g id="Grupo_104356" data-name="Grupo 104356" transform="translate(51.74 34.391)">
          <path id="Trazado_215967" data-name="Trazado 215967" d="M780.911,246.331c-1.652.009-3.01-.707-3.026-1.594l-.065-3.566c-.016-.887,1.316-1.616,2.968-1.624l11.259-.059c1.652-.009,3.01.706,3.026,1.593l.065,3.566c.016.887-1.316,1.617-2.968,1.625Z" transform="translate(-777.821 -239.488)"/>
          <path id="Trazado_215968" data-name="Trazado 215968" d="M792.268,245.98l-11.259.059c-1.3.007-2.359-.553-2.372-1.249l-.064-3.566c-.013-.7,1.029-1.267,2.325-1.273l11.259-.059c1.3-.007,2.359.553,2.372,1.249l.064,3.566C794.606,245.4,793.564,245.973,792.268,245.98Z" transform="translate(-777.924 -239.543)" fill="#5e5c5d"/>
        </g>
        <g id="Grupo_104357" data-name="Grupo 104357" transform="translate(10.508 43.305)">
          <path id="Trazado_215969" data-name="Trazado 215969" d="M733.09,256.669c-1.652.009-3.009-.706-3.025-1.593L730,251.509c-.016-.887,1.316-1.616,2.968-1.624l11.259-.059c1.652-.009,3.01.706,3.026,1.593l.065,3.566c.016.888-1.316,1.617-2.968,1.625Z" transform="translate(-730 -249.826)"/>
          <path id="Trazado_215970" data-name="Trazado 215970" d="M744.446,256.318l-11.259.059c-1.3.007-2.359-.552-2.372-1.249l-.064-3.567c-.013-.7,1.029-1.267,2.326-1.273l11.258-.059c1.3-.006,2.359.553,2.372,1.249l.064,3.566C746.785,255.741,745.743,256.312,744.446,256.318Z" transform="translate(-730.103 -249.881)" fill="#5e5c5d"/>
        </g>
        <g id="Grupo_104358" data-name="Grupo 104358" transform="translate(31.001 43.198)">
          <path id="Trazado_215971" data-name="Trazado 215971" d="M756.857,256.545c-1.653.009-3.01-.706-3.026-1.593l-.065-3.566c-.016-.888,1.315-1.617,2.968-1.625l11.258-.059c1.653-.009,3.01.706,3.026,1.594l.065,3.566c.016.887-1.316,1.616-2.968,1.624Z" transform="translate(-753.767 -249.702)"/>
          <path id="Trazado_215972" data-name="Trazado 215972" d="M768.213,256.195l-11.258.059c-1.3.006-2.359-.553-2.372-1.249l-.065-3.566c-.012-.7,1.03-1.267,2.326-1.273l11.259-.059c1.3-.007,2.359.553,2.372,1.248l.064,3.567C770.552,255.618,769.51,256.188,768.213,256.195Z" transform="translate(-753.87 -249.758)" fill="#5e5c5d"/>
        </g>
        <g id="Grupo_104359" data-name="Grupo 104359" transform="translate(51.897 43.089)">
          <path id="Trazado_215973" data-name="Trazado 215973" d="M781.093,256.419c-1.652.009-3.01-.706-3.026-1.593L778,251.259c-.016-.887,1.316-1.616,2.968-1.624l11.259-.059c1.652-.009,3.01.706,3.026,1.593l.065,3.567c.016.887-1.315,1.616-2.968,1.624Z" transform="translate(-778.003 -249.576)"/>
          <path id="Trazado_215974" data-name="Trazado 215974" d="M792.45,256.069l-11.259.058c-1.3.007-2.359-.552-2.372-1.249l-.064-3.566c-.013-.7,1.029-1.267,2.326-1.273l11.258-.059c1.3-.007,2.359.552,2.372,1.248l.065,3.567C794.788,255.491,793.746,256.062,792.45,256.069Z" transform="translate(-778.106 -249.632)" fill="#5e5c5d"/>
        </g>
        <g id="Grupo_104361" data-name="Grupo 104361" transform="translate(11.201 7.657)">
          <path id="Trazado_215975" data-name="Trazado 215975" d="M738.109,216.251c-3.989.022-7.267-1.7-7.305-3.847s3.176-3.9,7.165-3.923,7.268,1.705,7.306,3.848S742.1,216.231,738.109,216.251Z" transform="translate(-730.804 -208.481)"/>
          <path id="Trazado_215976" data-name="Trazado 215976" d="M744.73,212.388c.035,1.953-2.885,3.552-6.524,3.571s-6.617-1.549-6.652-3.5,2.886-3.552,6.524-3.571S744.7,210.434,744.73,212.388Z" transform="translate(-730.907 -208.536)" fill="#d64d5d"/>
          <g id="Grupo_104360" data-name="Grupo 104360" transform="translate(3.809 2.013)">
            <path id="Trazado_215977" data-name="Trazado 215977" d="M740.236,211.133c1.084.3,1.827.911,1.84,1.613.018,1.017-1.5,1.849-3.394,1.858s-3.442-.805-3.46-1.822c-.013-.7.709-1.317,1.781-1.632" transform="translate(-735.222 -210.859)" fill="none" stroke="#fff" stroke-linecap="round" stroke-miterlimit="10" stroke-width="0.881"/>
            <line id="Línea_1655" data-name="Línea 1655" x2="0.029" y2="1.609" transform="translate(3.393)" fill="none" stroke="#fff" stroke-linecap="round" stroke-miterlimit="10" stroke-width="0.881"/>
          </g>
        </g>
        <g id="Grupo_104362" data-name="Grupo 104362" transform="translate(9.381 52.132)">
          <path id="Trazado_215978" data-name="Trazado 215978" d="M732.973,279.523c-2.188.011-3.985-.935-4.007-2.111l-.273-15.135c-.022-1.175,1.742-2.14,3.93-2.151l11.906-.062c2.189-.011,3.987.935,4.008,2.11l.273,15.135c.022,1.175-1.742,2.141-3.93,2.152Z" transform="translate(-728.693 -260.064)"/>
          <path id="Trazado_215979" data-name="Trazado 215979" d="M746.9,262.351l.272,15.135c.011.6-.887,1.092-2,1.1l-11.906.062c-1.118.006-2.034-.477-2.045-1.077l-.273-15.135c-.01-.6.888-1.092,2.005-1.1l11.906-.062C745.977,261.269,746.893,261.751,746.9,262.351Z" transform="translate(-729.003 -260.231)" fill="#afc5ea"/>
          <path id="Trazado_215980" data-name="Trazado 215980" d="M745.19,279.763l-11.906.062c-1.118.006-2.034-.477-2.044-1.077l.022,1.217c.011.6.927,1.083,2.045,1.077l11.906-.062c1.118-.005,2.016-.5,2-1.1l-.022-1.217C747.206,279.265,746.308,279.757,745.19,279.763Z" transform="translate(-729.044 -262.627)" fill="#d9d4d6" style="mix-blend-mode: multiply;isolation: isolate"/>
          <path id="Trazado_215981" data-name="Trazado 215981" d="M744.859,261.274l-11.906.062c-1.118.006-2.016.5-2.005,1.1l.022,1.218c-.011-.6.887-1.092,2.005-1.1l11.906-.062c1.118-.006,2.034.476,2.044,1.077l-.022-1.218C746.893,261.751,745.977,261.269,744.859,261.274Z" transform="translate(-729.003 -260.231)" fill="#fff" opacity="0.2"/>
          <path id="Trazado_215982" data-name="Trazado 215982" d="M739.761,264.277l-2.94,1.32,5.928-.031Z" transform="translate(-729.813 -260.644)" fill="#fff"/>
          <path id="Trazado_215983" data-name="Trazado 215983" d="M740.009,278.174l2.94-1.32-5.928.031Z" transform="translate(-729.84 -262.377)" fill="#fff"/>
          <path id="Trazado_215984" data-name="Trazado 215984" d="M747.062,271.3l.136,7.568c.011.6-.887,1.092-2,1.1l-11.906.062c-1.118.006-2.034-.477-2.045-1.077l-.136-7.568Z" transform="translate(-729.025 -261.612)" fill="#e6e0e2" style="mix-blend-mode: multiply;isolation: isolate"/>
        </g>
        <g id="Grupo_104363" data-name="Grupo 104363" transform="translate(50.203 51.919)">
          <path id="Trazado_215985" data-name="Trazado 215985" d="M780.319,279.276c-2.188.012-3.986-.935-4.008-2.11l-.273-15.135c-.021-1.175,1.742-2.141,3.931-2.152l11.906-.062c2.188-.011,3.986.936,4.008,2.111l.272,15.135c.022,1.175-1.742,2.14-3.93,2.151Z" transform="translate(-776.038 -259.817)"/>
          <path id="Trazado_215986" data-name="Trazado 215986" d="M794.249,262.1l.273,15.135c.01.6-.888,1.092-2.006,1.1l-11.906.062c-1.117.006-2.034-.477-2.044-1.077l-.273-15.135c-.011-.6.887-1.092,2.005-1.1l11.906-.062C793.322,261.022,794.238,261.5,794.249,262.1Z" transform="translate(-776.349 -259.984)" fill="#afc5ea"/>
          <path id="Trazado_215987" data-name="Trazado 215987" d="M792.535,279.516l-11.906.061c-1.118.006-2.034-.476-2.045-1.076l.022,1.217c.01.6.926,1.082,2.044,1.077l11.906-.062c1.118-.006,2.016-.5,2.006-1.1l-.022-1.218C794.551,279.019,793.654,279.51,792.535,279.516Z" transform="translate(-776.389 -262.38)" fill="#d9d4d6" style="mix-blend-mode: multiply;isolation: isolate"/>
          <path id="Trazado_215988" data-name="Trazado 215988" d="M792.2,261.028l-11.906.062c-1.118.006-2.017.5-2.005,1.1l.021,1.217c-.01-.6.887-1.092,2.005-1.1l11.906-.062c1.118-.006,2.034.477,2.045,1.077l-.022-1.217C794.238,261.5,793.323,261.022,792.2,261.028Z" transform="translate(-776.349 -259.984)" fill="#fff" opacity="0.2"/>
          <path id="Trazado_215989" data-name="Trazado 215989" d="M787.107,264.031l-2.94,1.32,5.928-.031Z" transform="translate(-777.158 -260.397)" fill="#fff"/>
          <path id="Trazado_215990" data-name="Trazado 215990" d="M787.354,277.928l2.94-1.32-5.928.031Z" transform="translate(-777.185 -262.13)" fill="#fff"/>
          <path id="Trazado_215991" data-name="Trazado 215991" d="M794.408,271.054l.136,7.568c.01.6-.888,1.092-2.006,1.1l-11.906.062c-1.117.006-2.034-.477-2.044-1.077l-.137-7.568Z" transform="translate(-776.37 -261.365)" fill="#e6e0e2" style="mix-blend-mode: multiply;isolation: isolate"/>
        </g>
        <g id="Grupo_104364" data-name="Grupo 104364" transform="translate(30.523 52.491)">
          <path id="Trazado_215992" data-name="Trazado 215992" d="M756.539,266.34c-1.794.009-3.268-.767-3.285-1.73l-.041-2.306c-.017-.963,1.428-1.755,3.221-1.764l11.636-.06c1.794-.009,3.268.767,3.285,1.73l.042,2.3c.017.963-1.428,1.755-3.222,1.764Z" transform="translate(-753.213 -260.48)"/>
          <path id="Trazado_215993" data-name="Trazado 215993" d="M768.273,265.987l-11.636.06c-1.439.008-2.617-.612-2.631-1.385l-.042-2.306c-.014-.773,1.142-1.4,2.581-1.412l11.636-.06c1.439-.008,2.617.612,2.631,1.385l.041,2.306C770.867,265.347,769.711,265.979,768.273,265.987Z" transform="translate(-753.316 -260.536)" fill="#5e5c5d"/>
        </g>
        <g id="Grupo_104365" data-name="Grupo 104365" transform="translate(30.751 65.176)">
          <path id="Trazado_215994" data-name="Trazado 215994" d="M756.8,281.052c-1.793.009-3.267-.767-3.284-1.73l-.042-2.306c-.017-.963,1.428-1.755,3.222-1.763l11.636-.061c1.794-.009,3.268.767,3.285,1.73l.041,2.3c.017.964-1.428,1.755-3.222,1.764Z" transform="translate(-753.478 -275.192)"/>
          <path id="Trazado_215995" data-name="Trazado 215995" d="M768.538,280.7l-11.636.061c-1.439.007-2.617-.613-2.631-1.386l-.041-2.306c-.014-.773,1.141-1.4,2.58-1.412l11.636-.06c1.439-.008,2.617.613,2.631,1.386l.042,2.3C771.133,280.059,769.977,280.692,768.538,280.7Z" transform="translate(-753.581 -275.248)" fill="#5e5c5d"/>
        </g>
        <g id="Grupo_104366" data-name="Grupo 104366" transform="translate(9.753 73.115)">
          <path id="Trazado_215996" data-name="Trazado 215996" d="M732.45,290.259c-1.793.009-3.267-.767-3.285-1.73l-.041-2.3c-.017-.964,1.428-1.755,3.222-1.764l11.636-.06c1.793-.009,3.267.767,3.285,1.73l.041,2.306c.017.963-1.428,1.754-3.222,1.763Z" transform="translate(-729.124 -284.4)"/>
          <path id="Trazado_215997" data-name="Trazado 215997" d="M744.184,289.906l-11.636.06c-1.439.008-2.617-.613-2.631-1.386l-.041-2.3c-.015-.773,1.141-1.405,2.58-1.413l11.636-.06c1.439-.008,2.617.613,2.631,1.386l.041,2.3C746.778,289.266,745.623,289.9,744.184,289.906Z" transform="translate(-729.228 -284.455)" fill="#89898b"/>
        </g>
        <g id="Grupo_104367" data-name="Grupo 104367" transform="translate(30.893 73.005)">
          <path id="Trazado_215998" data-name="Trazado 215998" d="M756.968,290.132c-1.793.009-3.267-.767-3.284-1.73l-.042-2.3c-.017-.963,1.428-1.755,3.222-1.764l11.636-.06c1.794-.01,3.268.767,3.285,1.73l.041,2.306c.017.963-1.428,1.755-3.222,1.764Z" transform="translate(-753.642 -284.272)"/>
          <path id="Trazado_215999" data-name="Trazado 215999" d="M768.7,289.779l-11.636.06c-1.439.008-2.617-.612-2.63-1.385l-.042-2.306c-.014-.773,1.141-1.405,2.58-1.412l11.636-.06c1.439-.008,2.617.612,2.631,1.385l.041,2.306C771.3,289.139,770.141,289.771,768.7,289.779Z" transform="translate(-753.745 -284.328)" fill="#f59942"/>
        </g>
        <g id="Grupo_104368" data-name="Grupo 104368" transform="translate(52.033 72.894)">
          <path id="Trazado_216000" data-name="Trazado 216000" d="M781.487,290c-1.794.009-3.268-.767-3.285-1.73l-.041-2.306c-.018-.963,1.427-1.755,3.221-1.763l11.636-.061c1.794-.01,3.268.767,3.285,1.73l.041,2.3c.017.963-1.428,1.755-3.221,1.764Z" transform="translate(-778.161 -284.144)"/>
          <path id="Trazado_216001" data-name="Trazado 216001" d="M793.22,289.651l-11.636.061c-1.439.007-2.617-.613-2.631-1.386l-.041-2.306c-.014-.773,1.142-1.4,2.58-1.412l11.636-.06c1.439-.008,2.617.613,2.631,1.386l.042,2.3C795.815,289.011,794.659,289.644,793.22,289.651Z" transform="translate(-778.264 -284.2)" fill="#89898b"/>
        </g>
        <g id="Grupo_104369" data-name="Grupo 104369" transform="translate(10.596 119.839)">
          <path id="Trazado_216002" data-name="Trazado 216002" d="M733.428,344.451c-1.793.009-3.267-.767-3.284-1.73l-.042-2.306c-.017-.963,1.428-1.755,3.222-1.764l11.636-.06c1.794-.01,3.268.767,3.285,1.73l.041,2.3c.017.963-1.428,1.755-3.222,1.764Z" transform="translate(-730.102 -338.591)"/>
          <path id="Trazado_216003" data-name="Trazado 216003" d="M745.162,344.1l-11.636.061c-1.439.007-2.617-.613-2.631-1.386l-.041-2.306c-.014-.773,1.141-1.4,2.58-1.412l11.636-.06c1.439-.008,2.617.612,2.631,1.386l.042,2.3C747.757,343.458,746.6,344.091,745.162,344.1Z" transform="translate(-730.205 -338.647)" fill="#7a7a7c"/>
        </g>
        <g id="Grupo_104370" data-name="Grupo 104370" transform="translate(31.737 119.73)">
          <path id="Trazado_216004" data-name="Trazado 216004" d="M757.947,344.323c-1.793.01-3.267-.766-3.284-1.73l-.041-2.3c-.018-.964,1.428-1.755,3.221-1.764l11.636-.06c1.794-.009,3.268.766,3.285,1.73l.041,2.306c.017.963-1.428,1.754-3.221,1.763Z" transform="translate(-754.621 -338.464)"/>
          <path id="Trazado_216005" data-name="Trazado 216005" d="M769.68,343.97l-11.636.06c-1.439.008-2.616-.613-2.631-1.386l-.041-2.3c-.014-.773,1.142-1.405,2.58-1.413l11.636-.06c1.439-.008,2.617.613,2.631,1.386l.042,2.3C772.275,343.331,771.119,343.963,769.68,343.97Z" transform="translate(-754.724 -338.519)" fill="#7a7a7c"/>
        </g>
        <g id="Grupo_104371" data-name="Grupo 104371" transform="translate(52.877 119.619)">
          <path id="Trazado_216006" data-name="Trazado 216006" d="M782.465,344.2c-1.794.009-3.268-.766-3.285-1.73l-.041-2.3c-.017-.963,1.428-1.755,3.221-1.764l11.636-.06c1.794-.009,3.268.767,3.285,1.73l.041,2.306c.018.963-1.428,1.755-3.221,1.764Z" transform="translate(-779.139 -338.336)"/>
          <path id="Trazado_216007" data-name="Trazado 216007" d="M794.2,343.843l-11.636.06c-1.439.008-2.617-.612-2.631-1.386l-.042-2.3c-.014-.773,1.142-1.405,2.581-1.412l11.636-.06c1.438-.008,2.616.612,2.631,1.385l.041,2.306C796.793,343.2,795.637,343.835,794.2,343.843Z" transform="translate(-779.242 -338.392)" fill="#7a7a7c"/>
        </g>
        <g id="Grupo_104372" data-name="Grupo 104372" transform="translate(10.72 126.668)">
          <path id="Trazado_216008" data-name="Trazado 216008" d="M733.571,352.37c-1.793.009-3.267-.767-3.284-1.73l-.042-2.3c-.017-.964,1.428-1.755,3.222-1.764l11.636-.06c1.794-.009,3.268.767,3.285,1.73l.041,2.306c.017.963-1.428,1.754-3.222,1.763Z" transform="translate(-730.245 -346.511)"/>
          <path id="Trazado_216009" data-name="Trazado 216009" d="M745.305,352.017l-11.636.06c-1.439.008-2.617-.613-2.631-1.386l-.041-2.3c-.014-.773,1.141-1.405,2.58-1.413l11.636-.06c1.439-.008,2.617.613,2.631,1.386l.041,2.3C747.9,351.378,746.744,352.01,745.305,352.017Z" transform="translate(-730.348 -346.566)" fill="#7a7a7c"/>
        </g>
        <g id="Grupo_104373" data-name="Grupo 104373" transform="translate(31.86 126.557)">
          <path id="Trazado_216010" data-name="Trazado 216010" d="M758.09,352.243c-1.794.01-3.268-.766-3.285-1.73l-.041-2.3c-.018-.963,1.427-1.755,3.221-1.764l11.636-.06c1.794-.009,3.268.767,3.285,1.73l.041,2.306c.017.963-1.428,1.755-3.221,1.764Z" transform="translate(-754.764 -346.383)"/>
          <path id="Trazado_216011" data-name="Trazado 216011" d="M769.823,351.89l-11.636.06c-1.439.008-2.616-.612-2.631-1.386l-.041-2.3c-.014-.773,1.142-1.405,2.58-1.412l11.636-.06c1.439-.008,2.617.612,2.631,1.385l.042,2.306C772.418,351.25,771.262,351.882,769.823,351.89Z" transform="translate(-754.867 -346.439)" fill="#7a7a7c"/>
        </g>
        <g id="Grupo_104374" data-name="Grupo 104374" transform="translate(53 126.447)">
          <path id="Trazado_216012" data-name="Trazado 216012" d="M782.608,352.115c-1.794.01-3.268-.767-3.285-1.73l-.041-2.306c-.017-.963,1.428-1.755,3.221-1.763l11.636-.061c1.794-.009,3.268.767,3.285,1.73l.041,2.3c.018.964-1.428,1.755-3.221,1.764Z" transform="translate(-779.282 -346.255)"/>
          <path id="Trazado_216013" data-name="Trazado 216013" d="M794.341,351.762l-11.636.061c-1.438.007-2.616-.613-2.63-1.386l-.042-2.306c-.014-.773,1.142-1.4,2.581-1.412l11.636-.06c1.438-.008,2.616.613,2.631,1.386l.041,2.3C796.936,351.122,795.78,351.755,794.341,351.762Z" transform="translate(-779.385 -346.311)" fill="#7a7a7c"/>
        </g>
        <g id="Grupo_104375" data-name="Grupo 104375" transform="translate(10.843 133.496)">
          <path id="Trazado_216014" data-name="Trazado 216014" d="M733.714,360.29c-1.793.009-3.267-.767-3.284-1.73l-.042-2.306c-.017-.963,1.428-1.755,3.222-1.764l11.636-.06c1.794-.009,3.268.766,3.285,1.73l.041,2.3c.017.963-1.428,1.755-3.222,1.764Z" transform="translate(-730.388 -354.43)"/>
          <path id="Trazado_216015" data-name="Trazado 216015" d="M745.448,359.937l-11.636.06c-1.439.008-2.617-.612-2.631-1.385l-.041-2.306c-.014-.773,1.141-1.405,2.58-1.412l11.636-.06c1.439-.008,2.617.612,2.631,1.385l.041,2.306C748.043,359.3,746.887,359.929,745.448,359.937Z" transform="translate(-730.491 -354.486)" fill="#5e5c5d"/>
        </g>
        <g id="Grupo_104376" data-name="Grupo 104376" transform="translate(31.983 133.385)">
          <path id="Trazado_216016" data-name="Trazado 216016" d="M758.232,360.162c-1.793.009-3.267-.766-3.284-1.73l-.042-2.306c-.017-.963,1.428-1.755,3.222-1.763l11.636-.061c1.794-.009,3.268.767,3.285,1.73l.041,2.3c.017.964-1.428,1.755-3.221,1.764Z" transform="translate(-754.906 -354.302)"/>
          <path id="Trazado_216017" data-name="Trazado 216017" d="M769.966,359.809l-11.636.061c-1.439.007-2.617-.613-2.631-1.386l-.041-2.306c-.014-.773,1.142-1.4,2.58-1.412l11.636-.06c1.439-.008,2.617.613,2.631,1.386l.042,2.3C772.561,359.169,771.405,359.8,769.966,359.809Z" transform="translate(-755.009 -354.358)" fill="#5e5c5d"/>
        </g>
        <g id="Grupo_104377" data-name="Grupo 104377" transform="translate(53.123 133.276)">
          <path id="Trazado_216018" data-name="Trazado 216018" d="M782.751,360.035c-1.794.009-3.268-.767-3.285-1.73l-.041-2.3c-.017-.963,1.428-1.755,3.221-1.764l11.636-.06c1.794-.009,3.268.767,3.285,1.73l.041,2.306c.017.963-1.428,1.755-3.221,1.763Z" transform="translate(-779.425 -354.175)"/>
          <path id="Trazado_216019" data-name="Trazado 216019" d="M794.484,359.681l-11.636.06c-1.438.008-2.616-.613-2.631-1.386l-.041-2.3c-.014-.773,1.142-1.405,2.581-1.412l11.636-.061c1.438-.007,2.616.613,2.631,1.386l.041,2.306C797.079,359.042,795.923,359.674,794.484,359.681Z" transform="translate(-779.528 -354.23)" fill="#5e5c5d"/>
        </g>
        <g id="Grupo_104378" data-name="Grupo 104378" transform="translate(10.966 140.324)">
          <path id="Trazado_216020" data-name="Trazado 216020" d="M733.857,368.209c-1.793.01-3.267-.766-3.284-1.73l-.042-2.306c-.017-.963,1.428-1.755,3.222-1.763l11.636-.061c1.793-.009,3.267.767,3.285,1.73l.041,2.3c.017.964-1.428,1.755-3.222,1.764Z" transform="translate(-730.531 -362.349)"/>
          <path id="Trazado_216021" data-name="Trazado 216021" d="M745.591,367.856l-11.636.06c-1.439.007-2.617-.613-2.631-1.386l-.041-2.3c-.014-.773,1.141-1.405,2.58-1.413l11.636-.06c1.439-.008,2.617.613,2.631,1.386l.041,2.3C748.186,367.216,747.03,367.849,745.591,367.856Z" transform="translate(-730.634 -362.405)" fill="#5e5c5d"/>
        </g>
        <g id="Grupo_104379" data-name="Grupo 104379" transform="translate(32.106 140.214)">
          <path id="Trazado_216022" data-name="Trazado 216022" d="M758.375,368.082c-1.793.009-3.267-.767-3.284-1.73l-.042-2.3c-.017-.963,1.429-1.755,3.222-1.764l11.636-.06c1.794-.009,3.268.767,3.285,1.73l.041,2.306c.017.963-1.428,1.755-3.221,1.763Z" transform="translate(-755.049 -362.222)"/>
          <path id="Trazado_216023" data-name="Trazado 216023" d="M770.109,367.728l-11.636.06c-1.439.008-2.617-.613-2.631-1.386l-.041-2.3c-.014-.773,1.142-1.405,2.58-1.412l11.636-.061c1.439-.007,2.617.613,2.631,1.386l.042,2.306C772.7,367.089,771.548,367.721,770.109,367.728Z" transform="translate(-755.152 -362.277)" fill="#5e5c5d"/>
        </g>
        <g id="Grupo_104380" data-name="Grupo 104380" transform="translate(53.246 140.104)">
          <path id="Trazado_216024" data-name="Trazado 216024" d="M782.894,367.954c-1.794.009-3.268-.767-3.285-1.73l-.041-2.306c-.017-.963,1.428-1.755,3.221-1.764l11.636-.06c1.794-.009,3.268.767,3.285,1.73l.041,2.3c.017.963-1.428,1.755-3.221,1.764Z" transform="translate(-779.568 -362.094)"/>
          <path id="Trazado_216025" data-name="Trazado 216025" d="M794.627,367.6l-11.636.061c-1.439.007-2.616-.613-2.631-1.386l-.041-2.306c-.014-.773,1.142-1.4,2.581-1.412l11.636-.06c1.438-.008,2.616.612,2.631,1.386l.041,2.3C797.222,366.961,796.066,367.594,794.627,367.6Z" transform="translate(-779.671 -362.15)" fill="#5e5c5d"/>
        </g>
        <g id="Grupo_104381" data-name="Grupo 104381" transform="translate(14.674 81.208)">
          <path id="Trazado_216026" data-name="Trazado 216026" d="M737.7,301.867c-1.518.008-2.766-.649-2.781-1.464l-.091-5.074c-.015-.816,1.208-1.486,2.727-1.493l9.449-.049c1.518-.008,2.766.649,2.781,1.464l.091,5.074c.015.816-1.209,1.486-2.727,1.493Z" transform="translate(-734.831 -293.786)"/>
          <path id="Trazado_216027" data-name="Trazado 216027" d="M747.249,301.525l-9.45.049c-1.162.007-2.115-.495-2.126-1.119l-.091-5.074c-.011-.624.923-1.136,2.086-1.142l9.45-.049c1.162-.006,2.114.495,2.126,1.119l.091,5.074C749.346,301.008,748.413,301.519,747.249,301.525Z" transform="translate(-734.934 -293.842)" fill="#5e5c5d"/>
        </g>
        <g id="Grupo_104382" data-name="Grupo 104382" transform="translate(50.257 81.022)">
          <path id="Trazado_216028" data-name="Trazado 216028" d="M778.973,301.652c-1.518.008-2.765-.649-2.781-1.464l-.091-5.074c-.015-.816,1.209-1.486,2.727-1.493l9.45-.049c1.518-.008,2.766.649,2.781,1.465l.091,5.073c.015.816-1.209,1.486-2.727,1.493Z" transform="translate(-776.101 -293.571)"/>
          <path id="Trazado_216029" data-name="Trazado 216029" d="M788.52,301.311l-9.45.049c-1.163.006-2.115-.5-2.126-1.12l-.091-5.074c-.011-.624.922-1.136,2.086-1.142l9.449-.049c1.163-.006,2.115.495,2.126,1.12l.091,5.073C790.617,300.793,789.684,301.3,788.52,301.311Z" transform="translate(-776.205 -293.627)" fill="#5e5c5d"/>
        </g>
        <g id="Grupo_104383" data-name="Grupo 104383" transform="translate(15.022 100.518)">
          <path id="Trazado_216030" data-name="Trazado 216030" d="M738.107,324.263c-1.518.008-2.766-.649-2.781-1.464l-.091-5.074c-.015-.816,1.209-1.486,2.727-1.493l9.449-.049c1.519-.008,2.766.649,2.781,1.465l.092,5.074c.015.815-1.209,1.485-2.727,1.492Z" transform="translate(-735.235 -316.182)"/>
          <path id="Trazado_216031" data-name="Trazado 216031" d="M747.653,323.922l-9.449.049c-1.163.006-2.115-.5-2.126-1.12l-.092-5.074c-.011-.624.923-1.136,2.086-1.142l9.45-.049c1.163-.006,2.115.495,2.126,1.12l.091,5.073C749.75,323.4,748.817,323.916,747.653,323.922Z" transform="translate(-735.338 -316.238)" fill="#5e5c5d"/>
        </g>
        <g id="Grupo_104384" data-name="Grupo 104384" transform="translate(50.606 100.332)">
          <path id="Trazado_216032" data-name="Trazado 216032" d="M779.378,324.048c-1.518.009-2.766-.648-2.781-1.464l-.091-5.074c-.016-.815,1.208-1.485,2.727-1.493l9.449-.049c1.518-.008,2.766.649,2.781,1.465l.091,5.074c.015.815-1.209,1.485-2.727,1.492Z" transform="translate(-776.506 -315.967)"/>
          <path id="Trazado_216033" data-name="Trazado 216033" d="M788.924,323.707l-9.45.049c-1.162.006-2.115-.5-2.126-1.12l-.091-5.074c-.011-.624.923-1.136,2.086-1.142l9.449-.049c1.163-.006,2.115.5,2.127,1.12l.091,5.074C791.021,323.189,790.088,323.7,788.924,323.707Z" transform="translate(-776.609 -316.023)" fill="#5e5c5d"/>
        </g>
        <path id="Trazado_216034" data-name="Trazado 216034" d="M785.406,303.121l-15.471.08c-1.409.008-2.562-.6-2.575-1.356l-.15-8.307c-.014-.756-1.167-1.364-2.576-1.356l-9.8.051c-1.409.007-2.54.627-2.526,1.383l.15,8.307c.014.756-1.117,1.375-2.527,1.383l-15.47.08c-1.409.008-2.54.627-2.526,1.384l.095,5.262c.014.757,1.167,1.364,2.575,1.357l15.471-.081c1.409-.007,2.563.6,2.576,1.357l.15,8.307c.014.757,1.167,1.364,2.576,1.357l9.8-.051c1.409-.008,2.54-.627,2.527-1.384l-.15-8.307c-.014-.757,1.117-1.376,2.526-1.384l15.47-.08c1.41-.007,2.541-.627,2.527-1.383l-.095-5.263C787.968,303.721,786.815,303.113,785.406,303.121Z" transform="translate(-719.758 -212.357)" fill="#1a1a18"/>
        <g id="Grupo_104385" data-name="Grupo 104385" transform="translate(34.138 80.55)">
          <path id="Trazado_216035" data-name="Trazado 216035" d="M769.037,301.448l-11.5.06-.13-7.176c-.012-.7,1.029-1.267,2.326-1.273l6.8-.035c1.3-.007,2.359.552,2.372,1.248Z" transform="translate(-757.406 -293.023)" fill="#424041"/>
          <path id="Trazado_216036" data-name="Trazado 216036" d="M757.8,316.3l11.5-.059.129,7.176c.013.7-1.029,1.267-2.326,1.273l-6.8.035c-1.3.007-2.359-.553-2.371-1.249Z" transform="translate(-757.46 -296.222)" fill="#424041"/>
        </g>
        <g id="Grupo_104386" data-name="Grupo 104386" transform="translate(13.585 91.586)">
          <path id="Trazado_216037" data-name="Trazado 216037" d="M776.912,312.069l-.111-6.176,13.364-.07c1.3-.007,2.359.553,2.371,1.249l.066,3.653c.012.7-1.029,1.267-2.326,1.273Z" transform="translate(-739.525 -305.823)" fill="#424041"/>
          <path id="Trazado_216038" data-name="Trazado 216038" d="M749.259,306.034l.111,6.176-13.364.07c-1.3.006-2.359-.553-2.372-1.249l-.066-3.653c-.013-.7,1.029-1.267,2.326-1.273Z" transform="translate(-733.568 -305.852)" fill="#424041"/>
        </g>
        <path id="Trazado_216039" data-name="Trazado 216039" d="M767.9,312.261l-8.572.044c-.844,0-1.536-.36-1.543-.813l-.084-4.6c-.008-.454.67-.824,1.514-.829l8.572-.045c.845,0,1.536.36,1.544.813l.083,4.6C769.419,311.885,768.741,312.256,767.9,312.261Z" transform="translate(-723.308 -214.263)" fill="#424041"/>
        <g id="Grupo_104387" data-name="Grupo 104387" transform="translate(10.854 111.747)">
          <path id="Trazado_216040" data-name="Trazado 216040" d="M733.6,334.892c-1.727.009-3.145-.738-3.162-1.665l-.041-2.291c-.017-.927,1.374-1.689,3.1-1.7l6.236-.033c1.727-.009,3.145.738,3.163,1.666l.041,2.29c.016.928-1.374,1.689-3.1,1.7Z" transform="translate(-730.401 -329.206)"/>
          <path id="Trazado_216041" data-name="Trazado 216041" d="M739.938,334.568l-6.236.033c-1.372.007-2.494-.585-2.508-1.321l-.041-2.291c-.013-.736,1.088-1.339,2.46-1.347l6.236-.032c1.372-.008,2.5.584,2.508,1.321l.041,2.29C742.412,333.958,741.31,334.561,739.938,334.568Z" transform="translate(-730.504 -329.262)" fill="#b94140"/>
        </g>
        <g id="Grupo_104388" data-name="Grupo 104388" transform="translate(26.405 111.666)">
          <path id="Trazado_216042" data-name="Trazado 216042" d="M751.64,334.8c-1.726.009-3.144-.738-3.162-1.665l-.041-2.291c-.016-.927,1.374-1.689,3.1-1.7l6.236-.033c1.727-.009,3.146.739,3.163,1.666l.041,2.29c.017.928-1.374,1.689-3.1,1.7Z" transform="translate(-748.437 -329.112)"/>
          <path id="Trazado_216043" data-name="Trazado 216043" d="M757.975,334.474l-6.237.033c-1.372.007-2.494-.585-2.507-1.321l-.041-2.291c-.014-.736,1.088-1.339,2.459-1.346l6.237-.033c1.372-.007,2.494.585,2.508,1.321l.041,2.29C760.448,333.864,759.347,334.467,757.975,334.474Z" transform="translate(-748.54 -329.168)" fill="#3c706e"/>
        </g>
        <g id="Grupo_104389" data-name="Grupo 104389" transform="translate(41.956 111.585)">
          <path id="Trazado_216044" data-name="Trazado 216044" d="M769.677,334.705c-1.727.009-3.145-.739-3.163-1.666l-.041-2.291c-.016-.927,1.375-1.688,3.1-1.7l6.237-.033c1.727-.009,3.145.739,3.162,1.666l.041,2.291c.017.927-1.374,1.689-3.1,1.7Z" transform="translate(-766.473 -329.018)"/>
          <path id="Trazado_216045" data-name="Trazado 216045" d="M776.011,334.38l-6.236.033c-1.372.007-2.5-.585-2.508-1.321l-.041-2.29c-.013-.737,1.088-1.34,2.46-1.347l6.236-.033c1.372-.007,2.494.585,2.508,1.321l.041,2.291C778.484,333.77,777.383,334.373,776.011,334.38Z" transform="translate(-766.576 -329.074)" fill="#fecd54"/>
        </g>
        <g id="Grupo_104390" data-name="Grupo 104390" transform="translate(57.508 111.505)">
          <path id="Trazado_216046" data-name="Trazado 216046" d="M787.713,334.611c-1.727.009-3.145-.738-3.162-1.666l-.041-2.29c-.017-.928,1.374-1.689,3.1-1.7l6.236-.032c1.727-.009,3.145.738,3.163,1.665l.041,2.291c.016.927-1.374,1.689-3.1,1.7Z" transform="translate(-784.51 -328.925)"/>
          <path id="Trazado_216047" data-name="Trazado 216047" d="M794.047,334.287l-6.236.032c-1.372.007-2.494-.584-2.508-1.321l-.041-2.29c-.013-.737,1.088-1.34,2.46-1.347l6.237-.033c1.372-.007,2.494.585,2.507,1.321l.041,2.291C796.521,333.676,795.419,334.279,794.047,334.287Z" transform="translate(-784.613 -328.98)" fill="#336eba"/>
        </g>
        <path id="Trazado_216048" data-name="Trazado 216048" d="M739.359,221.863h-.023l-1.379.381-.26-.58,1.842-.5,1.2-.007.073,4.071-1.388.008Z" transform="translate(-720.552 -202.571)" fill="#fff"/>
        <path id="Trazado_216049" data-name="Trazado 216049" d="M760.326,225.158l-.008-.467.89-.454c1.768-.895,2.6-1.387,2.6-1.925-.006-.367-.376-.683-1.367-.678a4.225,4.225,0,0,0-1.612.347l-.43-.545a6.093,6.093,0,0,1,2.319-.429c1.68-.009,2.513.554,2.525,1.22.013.716-.935,1.3-2.248,1.96l-.65.312v.012l3.106-.016.011.636Z" transform="translate(-723.669 -202.55)" fill="#fff"/>
        <path id="Trazado_216050" data-name="Trazado 216050" d="M784.907,224.194a6.517,6.517,0,0,0,1.731.241c1.095-.005,1.531-.34,1.522-.66-.016-.479-.86-.685-1.736-.681l-.655,0-.009-.561.639,0c.662,0,1.5-.169,1.488-.574,0-.281-.385-.508-1.222-.5a5.1,5.1,0,0,0-1.546.262l-.335-.554a7.068,7.068,0,0,1,2.177-.322c1.567-.009,2.373.452,2.382.984.008.424-.453.775-1.374.958v.012c.921.087,1.67.456,1.68,1.006.013.688-1.054,1.24-2.927,1.249a7.1,7.1,0,0,1-2.125-.271Z" transform="translate(-727.014 -202.527)" fill="#fff"/>
        <path id="Trazado_216051" data-name="Trazado 216051" d="M739.805,235.323l-.019-1.036-3.432.018-.01-.5,3.05-2.55,1.693-.009.045,2.451.976-.005.01.584-.976.005.018,1.035Zm-.029-1.619-.02-1.107a6.34,6.34,0,0,1,.033-.705l-.041,0c-.235.257-.427.466-.658.691l-1.367,1.121,0,.013Z" transform="translate(-720.366 -203.961)" fill="#fff"/>
        <path id="Trazado_216052" data-name="Trazado 216052" d="M765.317,231.719l-2.916.015-.206.815c.17-.012.321-.019.547-.02a5.787,5.787,0,0,1,1.84.251c.581.192,1,.536,1.01,1.029.014.775-1.169,1.416-3.033,1.425a7.555,7.555,0,0,1-2.017-.229l.285-.584a6.662,6.662,0,0,0,1.673.206c.838,0,1.639-.266,1.626-.751-.012-.465-.654-.772-2.166-.764-.427,0-.74.022-1.036.045l.454-2.056,3.927-.02Z" transform="translate(-723.7 -203.938)" fill="#fff"/>
        <path id="Trazado_216053" data-name="Trazado 216053" d="M789.19,231.528c-.21,0-.442,0-.73.022-1.59.109-2.344.634-2.521,1.2h.032a3.262,3.262,0,0,1,1.7-.4c1.306-.007,2.331.488,2.346,1.311.014.781-1.035,1.461-2.647,1.468-1.839.009-2.873-.735-2.891-1.741a2.08,2.08,0,0,1,1.283-1.831,6.59,6.59,0,0,1,2.686-.615c.316-.022.549-.023.726-.02Zm-.629,2.184c-.01-.47-.5-.8-1.336-.8a1.719,1.719,0,0,0-1.233.429.329.329,0,0,0-.087.242c.035.538.514.975,1.443.97C788.092,234.551,788.57,234.2,788.562,233.712Z" transform="translate(-726.998 -203.916)" fill="#fff"/>
        <path id="Trazado_216054" data-name="Trazado 216054" d="M741.958,241.33l.009.493-3.141,3.594-1.509.008,3.133-3.438v-.012l-3.578.018-.012-.636Z" transform="translate(-720.437 -205.35)" fill="#fff"/>
        <path id="Trazado_216055" data-name="Trazado 216055" d="M760.485,244.247c-.009-.5.529-.852,1.4-1.063l0-.016c-.79-.2-1.159-.541-1.165-.9-.012-.669,1.073-1.123,2.508-1.129,1.636-.009,2.383.512,2.393,1.011.006.349-.326.709-1.152.929v.017c.831.169,1.461.512,1.471,1.023.013.726-1.12,1.219-2.744,1.228C761.423,245.359,760.5,244.818,760.485,244.247Zm3.991-.053c-.007-.416-.574-.637-1.421-.757-.714.111-1.113.38-1.107.715-.013.348.484.66,1.286.657C763.992,244.8,764.483,244.542,764.476,244.193Zm-2.4-1.964c0,.335.518.53,1.249.637.515-.089.935-.316.93-.623-.005-.283-.322-.573-1.1-.57C762.445,241.677,762.071,241.934,762.077,242.229Z" transform="translate(-723.692 -205.324)" fill="#fff"/>
        <path id="Trazado_216056" data-name="Trazado 216056" d="M785.405,244.617a7.925,7.925,0,0,0,.794-.015,4.513,4.513,0,0,0,1.531-.322,1.606,1.606,0,0,0,.957-.908l-.028,0a3.166,3.166,0,0,1-1.639.367c-1.318.007-2.312-.5-2.326-1.248-.014-.781,1.1-1.461,2.711-1.469,1.767-.009,2.718.73,2.736,1.723a2.071,2.071,0,0,1-1.285,1.9,6.416,6.416,0,0,1-2.577.57c-.325.022-.646.024-.863.018Zm.716-2.181c.01.421.467.745,1.261.741a1.881,1.881,0,0,0,1.211-.345.288.288,0,0,0,.082-.223c-.005-.552-.4-1.02-1.327-1.016C786.623,241.6,786.109,241.943,786.121,242.436Z" transform="translate(-727.028 -205.308)" fill="#fff"/>
        <path id="Trazado_216057" data-name="Trazado 216057" d="M766.1,253.292c.023,1.311-.916,2.137-2.732,2.146-1.744.009-2.688-.84-2.726-2.078-.022-1.267.965-2.121,2.736-2.131C765.212,251.221,766.08,252.095,766.1,253.292Zm-4.018.059c.015.993.529,1.5,1.322,1.5.85,0,1.273-.558,1.256-1.533-.017-.948-.442-1.5-1.31-1.5C762.592,251.825,762.064,252.334,762.084,253.351Z" transform="translate(-723.714 -206.714)" fill="#fff"/>
        <g id="Grupo_104393" data-name="Grupo 104393" transform="translate(18.161 93.744)">
          <g id="Grupo_104391" data-name="Grupo 104391" transform="translate(39.778)">
            <path id="Trazado_216058" data-name="Trazado 216058" d="M785.01,308.326l4.232,1.039-4.194,1.083Z" transform="translate(-785.01 -308.326)"/>
            <path id="Trazado_216059" data-name="Trazado 216059" d="M788.674,309.4l-3.359-.825.03,1.684Z" transform="translate(-785.052 -308.36)" fill="#5e5c5d"/>
          </g>
          <g id="Grupo_104392" data-name="Grupo 104392" transform="translate(0 0.185)">
            <path id="Trazado_216060" data-name="Trazado 216060" d="M743.107,310.663l-4.232-1.039,4.194-1.083Z" transform="translate(-738.875 -308.54)"/>
            <path id="Trazado_216061" data-name="Trazado 216061" d="M739.583,309.655l3.359.825-.03-1.684Z" transform="translate(-738.973 -308.576)" fill="#5e5c5d"/>
          </g>
        </g>
        <g id="Grupo_104396" data-name="Grupo 104396" transform="translate(37.975 82.984)">
          <g id="Grupo_104394" data-name="Grupo 104394" transform="translate(0.345 21.359)">
            <path id="Trazado_216062" data-name="Trazado 216062" d="M766.208,320.619l-1.935,2.272-2.017-2.252Z" transform="translate(-762.256 -320.619)"/>
            <path id="Trazado_216063" data-name="Trazado 216063" d="M764.332,322.586l1.536-1.8-3.137.016Z" transform="translate(-762.321 -320.641)" fill="#5e5c5d"/>
          </g>
          <g id="Grupo_104395" data-name="Grupo 104395">
            <path id="Trazado_216064" data-name="Trazado 216064" d="M761.856,298.119l1.935-2.272,2.017,2.252Z" transform="translate(-761.856 -295.846)"/>
            <path id="Trazado_216065" data-name="Trazado 216065" d="M763.862,296.226l-1.536,1.8,3.137-.016Z" transform="translate(-761.92 -295.899)" fill="#5e5c5d"/>
          </g>
        </g>
        <path id="Trazado_216066" data-name="Trazado 216066" d="M778.76,203.488l-39.715.207c-2.543.013-4.623-1.083-4.648-2.448l0-.181,48.921-.255,0,.182C783.343,202.358,781.3,203.475,778.76,203.488Z" transform="translate(-720.097 -199.767)" fill="#171717"/>
        <g id="Grupo_104397" data-name="Grupo 104397" transform="translate(15.182 121.389)">
          <path id="Trazado_216067" data-name="Trazado 216067" d="M736.51,343.154h0c-.578,0-1.055-.248-1.061-.559l-.029-1.6c-.005-.31.463-.566,1.041-.57h0c.578,0,1.055.248,1.061.559l.028,1.6C737.556,342.9,737.088,343.151,736.51,343.154Z" transform="translate(-735.42 -340.395)" fill="#fff"/>
          <path id="Trazado_216068" data-name="Trazado 216068" d="M740.5,343.134h0c-.578,0-1.055-.248-1.061-.559l-.029-1.6c-.005-.31.463-.566,1.041-.569h0c.578,0,1.055.248,1.061.559l.028,1.6C741.549,342.874,741.08,343.13,740.5,343.134Z" transform="translate(-735.97 -340.392)" fill="#fff"/>
          <path id="Trazado_216069" data-name="Trazado 216069" d="M744.494,343.113h0c-.578,0-1.055-.248-1.061-.559l-.028-1.6c-.006-.31.462-.567,1.04-.57h0c.578,0,1.055.248,1.061.559l.028,1.6C745.541,342.853,745.073,343.109,744.494,343.113Z" transform="translate(-736.52 -340.389)" fill="#fff"/>
        </g>
        <g id="Grupo_104398" data-name="Grupo 104398" transform="translate(17.691 83.869)">
          <path id="Trazado_216070" data-name="Trazado 216070" d="M739.42,299.637h0c-.578,0-1.055-.248-1.061-.559l-.028-1.6c-.006-.31.462-.566,1.041-.57h0c.578,0,1.055.248,1.061.559l.029,1.6C740.466,299.377,740,299.634,739.42,299.637Z" transform="translate(-738.33 -296.878)" fill="#fff"/>
          <path id="Trazado_216071" data-name="Trazado 216071" d="M743.412,299.617h0c-.578,0-1.055-.249-1.061-.56l-.029-1.6c-.005-.31.463-.566,1.041-.57h0c.578,0,1.055.249,1.061.559l.029,1.6C744.458,299.357,743.99,299.613,743.412,299.617Z" transform="translate(-738.88 -296.875)" fill="#fff"/>
          <path id="Trazado_216072" data-name="Trazado 216072" d="M747.4,299.6h0c-.578,0-1.055-.248-1.061-.559l-.029-1.6c-.005-.31.463-.567,1.041-.569h0c.578,0,1.055.248,1.061.559l.028,1.6C748.451,299.336,747.982,299.592,747.4,299.6Z" transform="translate(-739.43 -296.872)" fill="#fff"/>
        </g>
        <g id="Grupo_104399" data-name="Grupo 104399" transform="translate(18.044 103.478)">
          <path id="Trazado_216073" data-name="Trazado 216073" d="M739.83,322.38h0c-.578,0-1.055-.248-1.061-.559l-.029-1.6c-.005-.31.463-.566,1.041-.57h0c.578,0,1.055.248,1.061.559l.028,1.6C740.877,322.121,740.408,322.377,739.83,322.38Z" transform="translate(-738.74 -319.621)" fill="#fff"/>
          <path id="Trazado_216074" data-name="Trazado 216074" d="M743.823,322.36h0c-.579,0-1.055-.249-1.061-.559l-.029-1.6c-.006-.31.462-.566,1.04-.569h0c.578,0,1.055.248,1.061.559l.028,1.6C744.869,322.1,744.4,322.356,743.823,322.36Z" transform="translate(-739.29 -319.618)" fill="#fff"/>
          <path id="Trazado_216075" data-name="Trazado 216075" d="M747.815,322.339h0c-.579,0-1.055-.248-1.061-.559l-.029-1.6c-.006-.31.462-.567,1.041-.57h0c.578,0,1.055.248,1.061.559l.028,1.6C748.861,322.079,748.393,322.335,747.815,322.339Z" transform="translate(-739.84 -319.615)" fill="#fff"/>
        </g>
        <g id="Grupo_104400" data-name="Grupo 104400" transform="translate(53.14 83.684)">
          <path id="Trazado_216076" data-name="Trazado 216076" d="M780.534,299.423h0c-.578,0-1.055-.248-1.06-.559l-.029-1.6c-.005-.31.463-.566,1.041-.57h0c.578,0,1.055.248,1.06.559l.029,1.6C781.58,299.163,781.111,299.42,780.534,299.423Z" transform="translate(-779.444 -296.664)" fill="#fff"/>
          <path id="Trazado_216077" data-name="Trazado 216077" d="M784.526,299.4h0c-.578,0-1.055-.249-1.061-.56l-.029-1.6c-.005-.31.463-.566,1.041-.57h0c.578,0,1.055.249,1.061.559l.028,1.6C785.572,299.143,785.1,299.4,784.526,299.4Z" transform="translate(-779.994 -296.661)" fill="#fff"/>
          <path id="Trazado_216078" data-name="Trazado 216078" d="M788.518,299.382h0c-.578,0-1.055-.248-1.061-.559l-.029-1.6c-.005-.31.463-.566,1.041-.569h0c.578,0,1.055.248,1.061.559l.028,1.6C789.565,299.122,789.1,299.378,788.518,299.382Z" transform="translate(-780.544 -296.658)" fill="#fff"/>
        </g>
        <g id="Grupo_104401" data-name="Grupo 104401" transform="translate(53.494 103.293)">
          <path id="Trazado_216079" data-name="Trazado 216079" d="M780.944,322.166h0c-.578,0-1.054-.248-1.06-.559l-.028-1.6c-.006-.31.462-.566,1.04-.57h0c.579,0,1.055.248,1.061.559l.029,1.6C781.991,321.907,781.523,322.163,780.944,322.166Z" transform="translate(-779.855 -319.407)" fill="#fff"/>
          <path id="Trazado_216080" data-name="Trazado 216080" d="M784.937,322.146h0c-.579,0-1.055-.248-1.061-.559l-.028-1.6c-.006-.31.462-.567,1.041-.569h0c.578,0,1.055.248,1.06.559l.029,1.6C785.983,321.886,785.515,322.142,784.937,322.146Z" transform="translate(-780.405 -319.404)" fill="#fff"/>
          <path id="Trazado_216081" data-name="Trazado 216081" d="M788.929,322.125h0c-.578,0-1.055-.248-1.061-.559l-.028-1.6c-.006-.31.463-.567,1.041-.57h0c.578,0,1.055.248,1.06.559l.029,1.6C789.975,321.865,789.507,322.121,788.929,322.125Z" transform="translate(-780.955 -319.401)" fill="#fff"/>
        </g>
        <g id="Grupo_104402" data-name="Grupo 104402" transform="translate(57.462 121.17)">
          <path id="Trazado_216082" data-name="Trazado 216082" d="M785.546,342.9h0c-.578,0-1.055-.248-1.06-.559l-.028-1.6c-.006-.31.462-.566,1.04-.57h0c.578,0,1.055.248,1.061.559l.028,1.6C786.593,342.639,786.125,342.9,785.546,342.9Z" transform="translate(-784.457 -340.14)" fill="#fff"/>
          <path id="Trazado_216083" data-name="Trazado 216083" d="M789.539,342.878h0c-.579,0-1.055-.248-1.061-.559l-.028-1.6c-.006-.31.462-.566,1.041-.57h0c.578,0,1.055.248,1.06.559l.028,1.6C790.585,342.619,790.116,342.875,789.539,342.878Z" transform="translate(-785.007 -340.137)" fill="#fff"/>
          <path id="Trazado_216084" data-name="Trazado 216084" d="M793.531,342.858h0c-.579,0-1.055-.248-1.061-.559l-.028-1.6c-.006-.31.462-.566,1.041-.569h0c.578,0,1.055.248,1.06.559l.029,1.6C794.577,342.6,794.108,342.854,793.531,342.858Z" transform="translate(-785.557 -340.134)" fill="#fff"/>
        </g>
        <g id="Grupo_104403" data-name="Grupo 104403" transform="translate(34.893 10.771)">
          <path id="Trazado_216085" data-name="Trazado 216085" d="M759.372,214.858h0c-.578,0-1.055-.248-1.061-.559l-.029-1.6c-.005-.31.463-.566,1.041-.57h0c.578,0,1.055.249,1.061.559l.029,1.6C760.419,214.6,759.95,214.855,759.372,214.858Z" transform="translate(-758.282 -212.099)" fill="#fff"/>
          <path id="Trazado_216086" data-name="Trazado 216086" d="M763.364,214.838h0c-.578,0-1.055-.248-1.061-.559l-.029-1.6c-.005-.31.463-.566,1.041-.569h0c.578,0,1.055.248,1.061.559l.029,1.6C764.411,214.578,763.942,214.834,763.364,214.838Z" transform="translate(-758.832 -212.096)" fill="#fff"/>
          <path id="Trazado_216087" data-name="Trazado 216087" d="M767.356,214.817h0c-.578,0-1.055-.248-1.061-.559l-.028-1.6c-.006-.31.462-.567,1.04-.57h0c.578,0,1.056.248,1.061.559l.029,1.6C768.4,214.557,767.935,214.813,767.356,214.817Z" transform="translate(-759.382 -212.093)" fill="#fff"/>
        </g>
        <g id="Grupo_104404" data-name="Grupo 104404" transform="translate(57.346 8.638)">
          <path id="Trazado_216088" data-name="Trazado 216088" d="M784.323,210.2h0c-.006-.31.462-.566,1.04-.569l2.971-.016c.579,0,1.055.248,1.061.559h0c.005.31-.463.566-1.041.57l-2.971.015C784.806,210.766,784.328,210.514,784.323,210.2Z" transform="translate(-784.323 -209.619)" fill="#fff"/>
          <path id="Trazado_216089" data-name="Trazado 216089" d="M784.361,212.347h0c-.005-.31.463-.566,1.041-.57l2.971-.016c.578,0,1.055.249,1.061.559h0c.006.31-.462.567-1.04.57l-2.971.016C784.844,212.91,784.367,212.658,784.361,212.347Z" transform="translate(-784.328 -209.914)" fill="#fff"/>
          <path id="Trazado_216090" data-name="Trazado 216090" d="M784.4,214.491h0c-.006-.31.462-.566,1.041-.57l2.971-.016c.578,0,1.055.248,1.061.559h0c.006.31-.462.566-1.041.57l-2.971.016C784.883,215.053,784.406,214.8,784.4,214.491Z" transform="translate(-784.334 -210.21)" fill="#fff"/>
        </g>
        <g id="Grupo_104405" data-name="Grupo 104405" transform="translate(35.275 74.556)">
          <path id="Trazado_216091" data-name="Trazado 216091" d="M759.815,288.836h0c-.578,0-1.055-.248-1.061-.559l-.029-1.6c-.005-.31.463-.566,1.041-.57h0c.578,0,1.055.249,1.061.559l.028,1.6C760.861,288.577,760.393,288.833,759.815,288.836Z" transform="translate(-758.725 -286.077)" fill="#fff"/>
          <path id="Trazado_216092" data-name="Trazado 216092" d="M763.807,288.816h0c-.578,0-1.055-.248-1.061-.559l-.029-1.6c-.005-.31.463-.566,1.041-.569h0c.578,0,1.055.248,1.061.559l.028,1.6C764.854,288.556,764.385,288.812,763.807,288.816Z" transform="translate(-759.275 -286.074)" fill="#fff"/>
          <path id="Trazado_216093" data-name="Trazado 216093" d="M767.8,288.795h0c-.578,0-1.055-.248-1.061-.559l-.028-1.6c-.006-.31.462-.567,1.04-.57h0c.578,0,1.055.248,1.061.559l.029,1.6C768.846,288.535,768.378,288.791,767.8,288.795Z" transform="translate(-759.825 -286.071)" fill="#fff"/>
        </g>
        <g id="Grupo_104406" data-name="Grupo 104406" transform="translate(13.809 45.351)">
          <path id="Trazado_216094" data-name="Trazado 216094" d="M734.918,254.965h0c-.578,0-1.055-.248-1.061-.559l-.029-1.6c-.005-.31.463-.566,1.041-.569h0c.578,0,1.055.248,1.061.559l.028,1.6C735.964,254.705,735.5,254.961,734.918,254.965Z" transform="translate(-733.828 -252.205)" fill="#fff"/>
          <path id="Trazado_216095" data-name="Trazado 216095" d="M738.91,254.944h0c-.578,0-1.055-.248-1.06-.559l-.029-1.6c-.005-.31.463-.567,1.041-.57h0c.578,0,1.055.248,1.061.559l.028,1.6C739.957,254.684,739.488,254.941,738.91,254.944Z" transform="translate(-734.378 -252.202)" fill="#fff"/>
          <path id="Trazado_216096" data-name="Trazado 216096" d="M742.9,254.923h0c-.578,0-1.055-.248-1.06-.559l-.029-1.6c-.006-.31.462-.566,1.04-.57h0c.579,0,1.055.248,1.061.559l.028,1.6C743.949,254.663,743.481,254.92,742.9,254.923Z" transform="translate(-734.928 -252.199)" fill="#fff"/>
        </g>
        <g id="Grupo_104407" data-name="Grupo 104407" transform="translate(56.089 45.131)">
          <path id="Trazado_216097" data-name="Trazado 216097" d="M783.954,254.71h0c-.578,0-1.055-.249-1.06-.559l-.028-1.6c-.006-.31.462-.566,1.04-.569h0c.579,0,1.055.248,1.061.559l.028,1.6C785,254.45,784.532,254.706,783.954,254.71Z" transform="translate(-782.865 -251.95)" fill="#fff"/>
          <path id="Trazado_216098" data-name="Trazado 216098" d="M787.947,254.689h0c-.578,0-1.055-.248-1.061-.559l-.028-1.6c-.006-.31.462-.566,1.04-.569h0c.578,0,1.056.248,1.061.559l.029,1.6C788.993,254.429,788.525,254.685,787.947,254.689Z" transform="translate(-783.415 -251.947)" fill="#fff"/>
          <path id="Trazado_216099" data-name="Trazado 216099" d="M791.939,254.668h0c-.578,0-1.055-.248-1.061-.559l-.028-1.6c-.006-.31.462-.567,1.041-.57h0c.578,0,1.055.248,1.06.559l.029,1.6C792.985,254.408,792.516,254.665,791.939,254.668Z" transform="translate(-783.965 -251.944)" fill="#fff"/>
        </g>
        <path id="Trazado_216100" data-name="Trazado 216100" d="M767.807,342.289l-6.642.034c-.546,0-1-.235-1-.527h0c-.006-.293.436-.535.982-.538l6.642-.034c.546,0,1,.235,1,.527h0C768.795,342.044,768.352,342.286,767.807,342.289Z" transform="translate(-723.648 -219.115)" fill="#fff"/>
        <path id="Trazado_216101" data-name="Trazado 216101" d="M744.887,350.326l-10.106.053c-.546,0-1-.235-1-.528h0c-.005-.293.437-.535.983-.538l10.106-.053c.546,0,1,.235,1,.528h0C745.875,350.081,745.433,350.323,744.887,350.326Z" transform="translate(-720.012 -220.222)" fill="#fff"/>
        <path id="Trazado_216102" data-name="Trazado 216102" d="M743.766,288.215l-10.106.053c-.546,0-1-.235-1-.528h0c-.005-.293.437-.535.983-.538l10.106-.053c.546,0,1,.235,1,.528h0C744.754,287.97,744.312,288.212,743.766,288.215Z" transform="translate(-719.858 -211.664)" fill="#fff"/>
        <path id="Trazado_216103" data-name="Trazado 216103" d="M793.924,350.071l-10.106.053c-.546,0-1-.235-1-.528h0c-.005-.293.436-.535.982-.538l10.106-.053c.546,0,1,.235,1,.528h0C794.911,349.826,794.47,350.067,793.924,350.071Z" transform="translate(-726.769 -220.187)" fill="#fff"/>
        <path id="Trazado_216104" data-name="Trazado 216104" d="M792.8,287.96l-10.107.053c-.545,0-1-.235-1-.528h0c-.005-.293.437-.535.983-.538l10.106-.053c.546,0,1,.234,1,.528h0C793.79,287.715,793.348,287.956,792.8,287.96Z" transform="translate(-726.614 -211.629)" fill="#fff"/>
        <g id="Grupo_104408" data-name="Grupo 104408" transform="translate(35.201 128.229)">
          <path id="Trazado_216105" data-name="Trazado 216105" d="M769.463,349.021l-10.166.053c-.358,0-.654-.154-.658-.347h0c0-.192.287-.352.646-.353l10.165-.053c.359,0,.655.153.659.347h0C770.112,348.861,769.822,349.02,769.463,349.021Z" transform="translate(-758.639 -348.322)" fill="#fff"/>
          <path id="Trazado_216106" data-name="Trazado 216106" d="M769.5,351.067l-10.166.053c-.358,0-.654-.153-.658-.347h0c0-.192.287-.351.646-.353l10.166-.053c.359,0,.655.154.659.347h0C770.149,350.906,769.859,351.065,769.5,351.067Z" transform="translate(-758.644 -348.604)" fill="#fff"/>
        </g>
        <g id="Grupo_104409" data-name="Grupo 104409" transform="translate(34.093 66.848)">
          <path id="Trazado_216107" data-name="Trazado 216107" d="M768.178,277.831l-10.166.053c-.358,0-.654-.154-.658-.347h0c0-.192.287-.351.645-.354l10.166-.053c.359,0,.654.154.658.347h0C768.827,277.67,768.537,277.829,768.178,277.831Z" transform="translate(-757.354 -277.131)" fill="#fff"/>
          <path id="Trazado_216108" data-name="Trazado 216108" d="M768.215,279.876l-10.166.053c-.359,0-.654-.154-.658-.347h0c0-.193.287-.352.645-.354l10.166-.053c.359,0,.654.153.658.346h0C768.864,279.716,768.574,279.875,768.215,279.876Z" transform="translate(-757.359 -277.413)" fill="#fff"/>
        </g>
        <g id="Grupo_104410" data-name="Grupo 104410" transform="translate(37.169 53.822)">
          <path id="Trazado_216109" data-name="Trazado 216109" d="M762.42,264.527l-1.174.006-.031-1.7,1.174-.006Z" transform="translate(-760.961 -262.135)" fill="none" stroke="#fff" stroke-miterlimit="10" stroke-width="0.281"/>
          <path id="Trazado_216110" data-name="Trazado 216110" d="M764.766,265.09l-2.159-.674-.031-1.7,2.134-.7Z" transform="translate(-761.149 -262.024)" fill="none" stroke="#fff" stroke-miterlimit="10" stroke-width="0.281"/>
          <line id="Línea_1656" data-name="Línea 1656" x2="4.895" y2="3.052" transform="translate(0 0.127)" fill="none" stroke="#fff" stroke-miterlimit="10" stroke-width="0.281"/>
        </g>
      </g>
      <g id="_5" data-name="5" transform="translate(3.138 86.09)">
        <path id="Trazado_216111" data-name="Trazado 216111" d="M711.525,318.694c-1.779-.28-4.6-2.45-6.482-4.028v0c-4.061-3.32-8.186-7.658-4.915-12.443a5.944,5.944,0,0,1,3.607-2.617c3.816-.973,9.066,2.788,11.317,6.514C718.423,311.835,717.25,320.041,711.525,318.694Z" transform="translate(-698.944 -299.448)" fill="#f99370"/>
        <path id="Trazado_216112" data-name="Trazado 216112" d="M712.5,320.2c-1.779-.28-4.6-2.45-6.482-4.028,0,0,.348-2.9,4.429-5.8C710.446,310.367,718.325,315.2,712.5,320.2Z" transform="translate(-699.919 -300.953)" fill="#fcb5a7"/>
        <path id="Trazado_216113" data-name="Trazado 216113" d="M714.52,304.5c-2.918-3.3-7.472-6.245-11.174-4.563,3.548,2.864,7.928,7.5,12.312,6.179A11.965,11.965,0,0,0,714.52,304.5Z" transform="translate(-699.551 -299.449)" fill="#e57d61"/>
      </g>
      <g id="_4" data-name="4" transform="translate(62.785 34.104)">
        <g id="Grupo_104412" data-name="Grupo 104412">
          <path id="Trazado_216114" data-name="Trazado 216114" d="M798.006,246.454v73.093c-.235,14.961-20.579,9.705-29.882,10.58,0,0-.089-7.379,5.571-18.215h19.767V239.155C795.309,240.9,796.687,244.156,798.006,246.454Z" transform="translate(-768.124 -239.155)" fill="#163356"/>
        </g>
      </g>
      <g id="_3-2" data-name="3" transform="translate(1.715 67.291)">
        <path id="Trazado_216115" data-name="Trazado 216115" d="M712.043,300.553c-2.519-.592-6.284-4.024-8.842-6.081-5.566-4.149-8.83-11.559-2.264-15.892,4.721-2.655,9.761.816,13.372,4.523C719.729,288.471,719.922,302.39,712.043,300.553Z" transform="translate(-697.294 -277.645)" fill="#f99370"/>
        <path id="Trazado_216116" data-name="Trazado 216116" d="M713.2,302.266c-3.532-.255-7.48-4.81-7.48-4.81s-.494-4.082,4.566-7.377C710.289,290.079,720.625,296.8,713.2,302.266Z" transform="translate(-698.453 -279.358)" fill="#fcb5a7"/>
        <path id="Trazado_216117" data-name="Trazado 216117" d="M714.891,283.1c-3.611-3.708-8.651-7.179-13.373-4.524a37.377,37.377,0,0,0,3.121,2.854h0c3.516,2.826,8.206,7.067,12.028,4.1A13.838,13.838,0,0,0,714.891,283.1Z" transform="translate(-697.876 -277.645)" fill="#e57d61"/>
      </g>
      <g id="_2" data-name="2" transform="translate(1.879 50.511)">
        <path id="Trazado_216118" data-name="Trazado 216118" d="M712.093,280.647c-2.2-.29-5.721-3.034-8.008-4.967h0c-13.771-8.861-3.661-25.325,9.107-13.192C720.27,268.452,719.91,282.295,712.093,280.647Z" transform="translate(-697.485 -258.183)" fill="#f99370"/>
        <path id="Trazado_216119" data-name="Trazado 216119" d="M713.148,282.316h0c-2.2-.29-5.721-3.034-8.008-4.967,0,0-.234-3.987,4.713-7.049C709.852,270.3,719.979,276.52,713.148,282.316Z" transform="translate(-698.539 -259.853)" fill="#fcb5a7"/>
      </g>
      <g id="_1" data-name="1" transform="translate(65.862 32.831)">
        <path id="Trazado_216120" data-name="Trazado 216120" d="M858.689,363.567v35.809H795.734c-5.263-9.207-11.727-19.077-16.056-30.158-2.291-8.8-6.534-36.174-7.986-39.3,1.092-25.1,23.115-28.887,21.4-64.118-11.1-13.944-2.549-37.6,6-24.112,15.042,26.76,22.217,52.378,22.932,80.945a43.353,43.353,0,0,0,6.146,21.211C834.289,349.609,846.567,355.472,858.689,363.567Z" transform="translate(-771.692 -237.678)" fill="#f99370"/>
        <path id="Trazado_216121" data-name="Trazado 216121" d="M908.983,422.339v41.832H781.2c-4.834-33.675-6.367-64.593-2.593-78.038,0,0,31.016-4,50.218-25.315,0,0,9.135,1.963,20.826,9C866.186,379.779,904.436,413.394,908.983,422.339Z" transform="translate(-772.353 -254.645)" fill="#1d3f70"/>
        <path id="Trazado_216122" data-name="Trazado 216122" d="M800.554,238.957c-3.969,2.508-.775,13.007,1.43,14.733a16.809,16.809,0,0,1,5.311-3.4S803.438,241.486,800.554,238.957Z" transform="translate(-775.409 -237.854)" fill="#fcb5a7"/>
        <path id="Trazado_216123" data-name="Trazado 216123" d="M849.639,369.821q-1.8,2.55-3.718,4.878l-.026.03c-.1.12-.2.24-.3.359a82.563,82.563,0,0,1-9.874,9.973l-.386.329,0,0a88.345,88.345,0,0,1-11.42,8.138h0c-.14.084-.277.166-.415.25l-.016.008a98.075,98.075,0,0,1-11.955,6.012l-.4.167-.051.022a108.3,108.3,0,0,1-11.93,4.151l-.5.141a112.357,112.357,0,0,1-12.119,2.676l-.5.081a79.695,79.695,0,0,1-9.544,1.009c-.211-6.205-.041-14.807,2.114-21.914a21.544,21.544,0,0,0,5.595-1.045q.529-.15,1.093-.322c1.968-.594,4.237-1.378,6.71-2.331.353-.136.71-.277,1.072-.419,2.453-.974,5.089-2.107,7.818-3.388q.46-.213.923-.436c2.553-1.218,5.177-2.561,7.8-4.016v0q.428-.237.858-.479c2.362-1.331,4.719-2.752,7.022-4.257.314-.205.625-.411.937-.619,2.047-1.367,4.045-2.8,5.957-4.291q.5-.392,1-.788c1.183-.952,2.331-1.926,3.432-2.922C828.813,360.818,838.055,362.605,849.639,369.821Z" transform="translate(-772.342 -254.645)" fill="#163356"/>
        <path id="Trazado_216124" data-name="Trazado 216124" d="M788.386,411.172s-1.135-.292-1.137-.306a79.628,79.628,0,0,1-1.835-21.95q.529-.15,1.093-.322C786.339,392.037,786.224,402.583,788.386,411.172Z" transform="translate(-773.567 -258.472)" fill="#1d3f70"/>
        <path id="Trazado_216125" data-name="Trazado 216125" d="M802.349,407.742l-1.211-.073c-3.729-8.1-6.093-19.071-6.655-21.846.353-.136.71-.277,1.072-.419C796.178,388.564,798.735,399.927,802.349,407.742Z" transform="translate(-774.832 -258.033)" fill="#1d3f70"/>
        <path id="Trazado_216126" data-name="Trazado 216126" d="M814.739,403.556c-3.639-9-8.564-19.319-9.946-22.151q.46-.213.923-.436c1.287,2.636,6.205,12.894,9.912,22.065Z" transform="translate(-776.253 -257.422)" fill="#1d3f70"/>
        <path id="Trazado_216127" data-name="Trazado 216127" d="M828.759,396.73c-4.058-7.8-11.294-17.286-13.843-20.5v0q.428-.237.858-.479c2.118,2.624,9.4,11.979,13.71,20.259Z" transform="translate(-777.648 -256.703)" fill="#1d3f70"/>
        <path id="Trazado_216128" data-name="Trazado 216128" d="M841.879,387.569c-4.179-6.917-14.387-14.529-17.824-16.852.314-.205.625-.411.937-.619,4.095,2.541,14.42,10.878,17.662,16.713C842.668,386.835,841.879,387.569,841.879,387.569Z" transform="translate(-778.907 -255.924)" fill="#1d3f70"/>
        <path id="Trazado_216129" data-name="Trazado 216129" d="M854.333,375.015l-.314,1.1C845.7,369.5,835.06,365.836,832.051,365q.5-.392,1-.788A64.362,64.362,0,0,1,854.333,375.015Z" transform="translate(-780.009 -255.112)" fill="#1d3f70"/>
      </g>
    </g>
    <g id="_1-2" data-name="1" transform="translate(555.132 276.111)">
      <path id="Trazado_216130" data-name="Trazado 216130" d="M637.159,341.949c0,4.981-6.5,42.993-34.926,28.334C611.736,337.609,635.26,322.151,637.159,341.949Z" transform="translate(-561.625 -305.963)" fill="#f99370"/>
      <path id="Trazado_216131" data-name="Trazado 216131" d="M642.528,462.635a231.19,231.19,0,0,1,9.879-24.44c6.7-13.459,29.474-44.857,26.69-72.7l-65.009-15.783s-9.242.646-18.07,25.941c-14.839,42.517-15.833,66.061-30.728,86.983Z" transform="translate(-556.534 -308.244)" fill="#f99370"/>
      <path id="Trazado_216132" data-name="Trazado 216132" d="M727.587,386.025c-.786,2.74-3.75,6.335-9.108,10.577-18.9,14.968-27.787,27.569-57.284,46.294-19.887,12.621-37.38-18.546-16.067-28.464,14.994-6.717,27.338-19.032,41.911-21.223a90.187,90.187,0,0,0,14.091-3.4c6.658-6.876,10.485-8.617,15.246-9.552C724.814,378.6,728.856,381.605,727.587,386.025Z" transform="translate(-566.194 -312.389)" fill="#f99370"/>
      <path id="Trazado_216133" data-name="Trazado 216133" d="M739.683,386.86c-.485,2.732-5.541,8.028-10.531,11.712a25.233,25.233,0,0,0-5.972-6.61C735.017,382.483,739.683,386.86,739.683,386.86Z" transform="translate(-578.29 -313.223)" fill="#fcb5a7"/>
      <path id="Trazado_216134" data-name="Trazado 216134" d="M644.81,477.709H555.135a70.235,70.235,0,0,1,18.625-18.6,74.618,74.618,0,0,0,8.546,3.751c2.985,1.136,6.73,2.422,11.2,3.7,3.532,1.005,7.513,2,11.93,2.91,4.23.873,8.86,1.663,13.873,2.3,4.3.55,8.894.987,13.754,1.27q4.63.27,9.589.339A12.705,12.705,0,0,1,644.81,477.709Z" transform="translate(-555.135 -323.318)" fill="#163356"/>
      <path id="Trazado_216135" data-name="Trazado 216135" d="M572.709,478.231h-1.642A126.029,126.029,0,0,1,584.028,462.9l.948.97A106.9,106.9,0,0,0,572.709,478.231Z" transform="translate(-557.33 -323.84)" fill="#1d3f70"/>
      <path id="Trazado_216136" data-name="Trazado 216136" d="M593.594,478.827l-1.523-.006c3.086-6.392,5.495-10.71,5.916-11.453l.066-.117.074-.071.472.493.588.328-.021.035C598.749,468.773,596.661,472.474,593.594,478.827Z" transform="translate(-560.224 -324.43)" fill="#1d3f70"/>
      <path id="Trazado_216137" data-name="Trazado 216137" d="M611.92,479.339h-1.408c1.03-4.8,1.887-8.364,1.894-8.4l1.318.317C613.717,471.292,612.947,474.558,611.92,479.339Z" transform="translate(-562.765 -324.948)" fill="#1d3f70"/>
      <path id="Trazado_216138" data-name="Trazado 216138" d="M630.205,479.723h-1.352c.106-3.613-.071-5.861-.072-5.884l1.351-.109A59.5,59.5,0,0,1,630.205,479.723Z" transform="translate(-565.283 -325.332)" fill="#1d3f70"/>
      <path id="Trazado_216139" data-name="Trazado 216139" d="M645.669,479.907c-.464-2.854-.908-4.473-.912-4.49l1.308-.355c.02.072.51,1.915.987,4.846Z" transform="translate(-567.484 -325.516)" fill="#1d3f70"/>
      <path id="Trazado_216140" data-name="Trazado 216140" d="M641.492,342.31l-6.348,12.743c-4.934-10.847,4.2-19.272,4.2-19.272A10.178,10.178,0,0,1,641.492,342.31Z" transform="translate(-565.958 -306.324)" fill="#e57d61"/>
      <path id="Trazado_216141" data-name="Trazado 216141" d="M654.512,359.022c-4.089,7.788-18.756,6.793-19.135-4.244.592-22.884,17.346-24.249,23.03-17.3C661.143,340.825,655.25,357.615,654.512,359.022Z" transform="translate(-566.191 -306.05)" fill="#f99370"/>
      <path id="Trazado_216142" data-name="Trazado 216142" d="M658.513,352.6a6.423,6.423,0,0,0-.351,1.843c0,.008,0,.05,0,.079a.036.036,0,0,1,0,.019c.1,1.973-2.028,3.873-2.767,5.281-4.183-14.99,5.628-21.751,5.628-21.751C663.758,341.414,658.586,352.417,658.513,352.6Z" transform="translate(-568.806 -306.64)" fill="#e57d61"/>
      <path id="Trazado_216143" data-name="Trazado 216143" d="M679.274,355.481a30.9,30.9,0,0,1-3.416,8.582,25.733,25.733,0,0,1-3.9,5.094A15.273,15.273,0,0,1,669.816,371c-12.137,10.656-22.689-4.555-10.295-26.5,6.095-10.788,16.224-7.466,19.809-.205A12.371,12.371,0,0,1,679.274,355.481Z" transform="translate(-568.753 -306.573)" fill="#f99370"/>
      <path id="Trazado_216144" data-name="Trazado 216144" d="M682.142,356.554c-.833,3.495-7.316,13.676-7.316,13.676-.7-15.827,7.367-24.867,7.372-24.857A12.371,12.371,0,0,1,682.142,356.554Z" transform="translate(-571.621 -307.646)" fill="#e57d61"/>
      <path id="Trazado_216145" data-name="Trazado 216145" d="M719.547,320.4c-16.576,22.4-22.829,42.759-30.186,64.065-4.879,10.082-4.627,23.231-19.875,23.522-36.685-4.865,19.04-75.864,40.2-99.015C726.378,292.664,731.836,307.167,719.547,320.4Z" transform="translate(-569.21 -301.633)" fill="#f99370"/>
      <path id="Trazado_216146" data-name="Trazado 216146" d="M725.3,313.739c-4.376-4.3-7.247-4.771-7.247-4.771l0-.005c4.815-4.551,9.027-7.317,12.089-7.345C734.551,305.541,725.3,313.739,725.3,313.739Z" transform="translate(-577.584 -301.617)" fill="#fcb5a7"/>
      <path id="Trazado_216147" data-name="Trazado 216147" d="M708.51,391.415a56.935,56.935,0,0,0-19.521,15.716,93.042,93.042,0,0,0,5.434-12.323A90.442,90.442,0,0,0,708.51,391.415Z" transform="translate(-573.578 -313.99)" fill="#e57d61"/>
    </g>
  </g>
</svg>
